<?xml version="1.0" encoding="UTF-8" standalone="no"?>
<svg
   version="1.2"
   width="100mm"
   height="100mm"
   viewBox="0 0 10000 10000"
   preserveAspectRatio="xMidYMid"
   fill-rule="evenodd"
   stroke-width="28.222"
   stroke-linejoin="round"
   xml:space="preserve"
   id="svg24"
   sodipodi:docname="gobo-caps-266B.svg"
   inkscape:version="1.4 (86a8ad7, 2024-10-11)"
   xmlns:inkscape="http://www.inkscape.org/namespaces/inkscape"
   xmlns:sodipodi="http://sodipodi.sourceforge.net/DTD/sodipodi-0.dtd"
   xmlns="http://www.w3.org/2000/svg"
   xmlns:svg="http://www.w3.org/2000/svg"
   xmlns:ooo="http://xml.openoffice.org/svg/export"><sodipodi:namedview
   id="namedview24"
   pagecolor="#ffffff"
   bordercolor="#000000"
   borderopacity="0.25"
   inkscape:showpageshadow="2"
   inkscape:pageopacity="0.0"
   inkscape:pagecheckerboard="0"
   inkscape:deskcolor="#d1d1d1"
   inkscape:document-units="mm"
   showgrid="false"
   inkscape:zoom="3.0876875"
   inkscape:cx="188.81444"
   inkscape:cy="188.97638"
   inkscape:window-width="2560"
   inkscape:window-height="1369"
   inkscape:window-x="-8"
   inkscape:window-y="-8"
   inkscape:window-maximized="1"
   inkscape:current-layer="svg24" />
 <defs
   class="ClipPathGroup"
   id="defs2">
  
  <clipPath
   id="presentation_clip_path_shrink"
   clipPathUnits="userSpaceOnUse">
   <rect
   x="10"
   y="10"
   width="9980"
   height="9980"
   id="rect2" />
  </clipPath>
 
  
 
   
  
    
   
     
    
      
      
      
      
      
      
      
      
      
     
       
      
       
      
       
      
       
      
       
      
       
      
       
      
       
      
       
      
        
        
       
        
        
       
        
        
       
        
        
       
        
        
       
        
        
       
        
        
       
        
        
       
        
        
       </defs>
 <defs
   class="TextShapeIndex"
   id="defs3">
  <g
   ooo:slide="id1"
   ooo:id-list="id3 id4 id5 id6 id7 id8 id9 id10 id11"
   id="g2" />
 </defs>
 <defs
   class="EmbeddedBulletChars"
   id="defs12">
  <g
   id="bullet-char-template-57356"
   transform="scale(0.00048828125,-0.00048828125)">
   <path
   d="M 580,1141 L 1163,571 580,0 -4,571 580,1141 Z"
   id="path3" />
  </g>
  <g
   id="bullet-char-template-57354"
   transform="scale(0.00048828125,-0.00048828125)">
   <path
   d="M 8,1128 L 1137,1128 1137,0 8,0 8,1128 Z"
   id="path4" />
  </g>
  <g
   id="bullet-char-template-10146"
   transform="scale(0.00048828125,-0.00048828125)">
   <path
   d="M 174,0 L 602,739 174,1481 1456,739 174,0 Z M 1358,739 L 309,1346 659,739 1358,739 Z"
   id="path5" />
  </g>
  <g
   id="bullet-char-template-10132"
   transform="scale(0.00048828125,-0.00048828125)">
   <path
   d="M 2015,739 L 1276,0 717,0 1260,543 174,543 174,936 1260,936 717,1481 1274,1481 2015,739 Z"
   id="path6" />
  </g>
  <g
   id="bullet-char-template-10007"
   transform="scale(0.00048828125,-0.00048828125)">
   <path
   d="M 0,-2 C -7,14 -16,27 -25,37 L 356,567 C 262,823 215,952 215,954 215,979 228,992 255,992 264,992 276,990 289,987 310,991 331,999 354,1012 L 381,999 492,748 772,1049 836,1024 860,1049 C 881,1039 901,1025 922,1006 886,937 835,863 770,784 769,783 710,716 594,584 L 774,223 C 774,196 753,168 711,139 L 727,119 C 717,90 699,76 672,76 641,76 570,178 457,381 L 164,-76 C 142,-110 111,-127 72,-127 30,-127 9,-110 8,-76 1,-67 -2,-52 -2,-32 -2,-23 -1,-13 0,-2 Z"
   id="path7" />
  </g>
  <g
   id="bullet-char-template-10004"
   transform="scale(0.00048828125,-0.00048828125)">
   <path
   d="M 285,-33 C 182,-33 111,30 74,156 52,228 41,333 41,471 41,549 55,616 82,672 116,743 169,778 240,778 293,778 328,747 346,684 L 369,508 C 377,444 397,411 428,410 L 1163,1116 C 1174,1127 1196,1133 1229,1133 1271,1133 1292,1118 1292,1087 L 1292,965 C 1292,929 1282,901 1262,881 L 442,47 C 390,-6 338,-33 285,-33 Z"
   id="path8" />
  </g>
  <g
   id="bullet-char-template-9679"
   transform="scale(0.00048828125,-0.00048828125)">
   <path
   d="M 813,0 C 632,0 489,54 383,161 276,268 223,411 223,592 223,773 276,916 383,1023 489,1130 632,1184 813,1184 992,1184 1136,1130 1245,1023 1353,916 1407,772 1407,592 1407,412 1353,268 1245,161 1136,54 992,0 813,0 Z"
   id="path9" />
  </g>
  <g
   id="bullet-char-template-8226"
   transform="scale(0.00048828125,-0.00048828125)">
   <path
   d="M 346,457 C 273,457 209,483 155,535 101,586 74,649 74,723 74,796 101,859 155,911 209,963 273,989 346,989 419,989 480,963 531,910 582,859 608,796 608,723 608,648 583,586 532,535 482,483 420,457 346,457 Z"
   id="path10" />
  </g>
  <g
   id="bullet-char-template-8211"
   transform="scale(0.00048828125,-0.00048828125)">
   <path
   d="M -4,459 L 1135,459 1135,606 -4,606 -4,459 Z"
   id="path11" />
  </g>
  <g
   id="bullet-char-template-61548"
   transform="scale(0.00048828125,-0.00048828125)">
   <path
   d="M 173,740 C 173,903 231,1043 346,1159 462,1274 601,1332 765,1332 928,1332 1067,1274 1183,1159 1299,1043 1357,903 1357,740 1357,577 1299,437 1183,322 1067,206 928,148 765,148 601,148 462,206 346,322 231,437 173,577 173,740 Z"
   id="path12" />
  </g>
 </defs>
 
 <path
   id="path13"
   d="M 7531.995 1999.9813 C 7518.922 1999.9078 7505.2656 2000.2648 7491.0156 2001.0148 C 7455.6864 2003.056 7420.9535 2006.9073 7387.2493 2012.1769 C 7383.8289 2012.4772 7380.6407 2012.3262 7377.0174 2013.0037 C 7131.0174 2059.0037 6184.0057 2244.0128 5578.0057 2414.0128 C 4972.0057 2584.0128 4356.9988 2831.0085 3997.9988 3035.0085 C 3995.6606 3036.3378 3993.5894 3038.3088 3991.3842 3039.9695 C 3908.302 3079.7688 3851.0963 3136.8261 3841.0058 3212.0003 C 3835.99 3244.4943 3833.3458 3281.7439 3833.0477 3321.0892 C 3810.8813 3703.2002 3819.0703 4866.7736 3821.0071 5564.0014 C 3824.4549 6059.8027 3847.6323 7143.6755 3866.4306 7903.9103 C 3858.6064 7899.9531 3851.0052 7895.9395 3843.0212 7892.0247 C 3275.0212 7612.0247 2641.0122 7620.0121 2340.0122 7887.0121 C 2039.0122 8155.0121 2264.9792 8568.0082 2879.9792 8881.0082 C 3410.5671 9150.6089 3961.6778 9160.3457 4243.0485 8966.8428 C 4259.6706 8956.0322 4277.1808 8943.8106 4296.0168 8929.9975 C 4429.0168 8832.9975 4517.0037 8655.0207 4553.0037 8550.0207 C 4572.0829 8494.0274 4583.7506 8445.826 4588.4537 8404.5515 C 4590.5969 8399.4841 4592.1001 8394.5373 4592.0194 8389.9788 C 4591.8661 8382.9259 4591.1568 8370.6351 4590.9342 8362.952 C 4590.883 8357.4731 4590.6333 8352.1573 4590.2624 8346.984 C 4576.9912 7939.916 4479.3517 6758.5196 4458.0224 5948.009 C 4437.1062 5300.381 4471.383 4217.1546 4508.8204 3592.7006 C 4816.0123 3451.7955 5255.9659 3263.7159 5689.0067 3120.0163 C 6158.5837 2964.1925 6700.0193 2884.6724 7021.0701 2845.7178 C 7015.5579 3367.0453 7019.6337 4094.4944 7021.0184 4593.0013 C 7024.4663 5088.8026 7047.6437 6172.6753 7066.442 6932.9101 C 7058.6104 6928.949 7050.9726 6924.9431 7042.9809 6921.0245 C 6474.9809 6641.0245 5841.0236 6649.0119 5540.0236 6916.0119 C 5239.0236 7184.0119 5464.9906 7597.0081 6079.9906 7910.0081 C 6610.6749 8179.6577 7161.8913 8189.3514 7443.2149 7995.7393 C 7459.7877 7984.9545 7477.2039 7972.7639 7495.9765 7958.9973 C 7628.9765 7861.9973 7717.0151 7684.0205 7753.0151 7579.0205 C 7772.0943 7523.0272 7783.7619 7474.8258 7788.4651 7433.5514 C 7790.6083 7428.484 7792.0598 7423.5372 7791.9791 7418.9786 C 7791.8314 7412.182 7791.1577 7400.3158 7790.9456 7392.9337 C 7790.91 7386.9289 7790.6392 7381.1071 7790.2221 7375.4671 C 7776.8917 6967.963 7679.3033 5787.2133 7657.9821 4977.0088 C 7630.9821 4141.0088 7695.9745 2568.9761 7740.9745 2210.9761 C 7741.3674 2207.5798 7741.0221 2204.4429 7740.3027 2201.416 C 7755.4834 2058.2844 7683.4485 2000.8326 7531.995 1999.9813 z " />
   
  
</svg>
