<?xml version="1.0" encoding="UTF-8" standalone="no"?>
<svg
   version="1.2"
   width="100mm"
   height="100mm"
   viewBox="0 0 10000 10000"
   preserveAspectRatio="xMidYMid"
   fill-rule="evenodd"
   stroke-width="28.222"
   stroke-linejoin="round"
   xml:space="preserve"
   id="svg21"
   sodipodi:docname="gobo-caps-017F.svg"
   inkscape:version="1.4 (86a8ad7, 2024-10-11)"
   xmlns:inkscape="http://www.inkscape.org/namespaces/inkscape"
   xmlns:sodipodi="http://sodipodi.sourceforge.net/DTD/sodipodi-0.dtd"
   xmlns="http://www.w3.org/2000/svg"
   xmlns:svg="http://www.w3.org/2000/svg"
   xmlns:ooo="http://xml.openoffice.org/svg/export"><sodipodi:namedview
   id="namedview21"
   pagecolor="#ffffff"
   bordercolor="#000000"
   borderopacity="0.25"
   inkscape:showpageshadow="2"
   inkscape:pageopacity="0.0"
   inkscape:pagecheckerboard="0"
   inkscape:deskcolor="#d1d1d1"
   inkscape:document-units="mm"
   showgrid="false"
   inkscape:zoom="3.0876875"
   inkscape:cx="188.81444"
   inkscape:cy="188.97638"
   inkscape:window-width="2560"
   inkscape:window-height="1369"
   inkscape:window-x="-8"
   inkscape:window-y="-8"
   inkscape:window-maximized="1"
   inkscape:current-layer="svg21" />
 <defs
   class="ClipPathGroup"
   id="defs2">
  
  <clipPath
   id="presentation_clip_path_shrink"
   clipPathUnits="userSpaceOnUse">
   <rect
   x="10"
   y="10"
   width="9980"
   height="9980"
   id="rect2" />
  </clipPath>
 
  
 
   
  
    
   
     
    
      
      
      
      
      
      
     
       
      
       
      
       
      
       
      
       
      
       
      
        
        
       
        
        
       
        
        
       
        
        
       
        
        
       
        
        
       </defs>
 <defs
   class="TextShapeIndex"
   id="defs3">
  <g
   ooo:slide="id1"
   ooo:id-list="id3 id4 id5 id6 id7 id8"
   id="g2" />
 </defs>
 <defs
   class="EmbeddedBulletChars"
   id="defs12">
  <g
   id="bullet-char-template-57356"
   transform="scale(0.00048828125,-0.00048828125)">
   <path
   d="M 580,1141 L 1163,571 580,0 -4,571 580,1141 Z"
   id="path3" />
  </g>
  <g
   id="bullet-char-template-57354"
   transform="scale(0.00048828125,-0.00048828125)">
   <path
   d="M 8,1128 L 1137,1128 1137,0 8,0 8,1128 Z"
   id="path4" />
  </g>
  <g
   id="bullet-char-template-10146"
   transform="scale(0.00048828125,-0.00048828125)">
   <path
   d="M 174,0 L 602,739 174,1481 1456,739 174,0 Z M 1358,739 L 309,1346 659,739 1358,739 Z"
   id="path5" />
  </g>
  <g
   id="bullet-char-template-10132"
   transform="scale(0.00048828125,-0.00048828125)">
   <path
   d="M 2015,739 L 1276,0 717,0 1260,543 174,543 174,936 1260,936 717,1481 1274,1481 2015,739 Z"
   id="path6" />
  </g>
  <g
   id="bullet-char-template-10007"
   transform="scale(0.00048828125,-0.00048828125)">
   <path
   d="M 0,-2 C -7,14 -16,27 -25,37 L 356,567 C 262,823 215,952 215,954 215,979 228,992 255,992 264,992 276,990 289,987 310,991 331,999 354,1012 L 381,999 492,748 772,1049 836,1024 860,1049 C 881,1039 901,1025 922,1006 886,937 835,863 770,784 769,783 710,716 594,584 L 774,223 C 774,196 753,168 711,139 L 727,119 C 717,90 699,76 672,76 641,76 570,178 457,381 L 164,-76 C 142,-110 111,-127 72,-127 30,-127 9,-110 8,-76 1,-67 -2,-52 -2,-32 -2,-23 -1,-13 0,-2 Z"
   id="path7" />
  </g>
  <g
   id="bullet-char-template-10004"
   transform="scale(0.00048828125,-0.00048828125)">
   <path
   d="M 285,-33 C 182,-33 111,30 74,156 52,228 41,333 41,471 41,549 55,616 82,672 116,743 169,778 240,778 293,778 328,747 346,684 L 369,508 C 377,444 397,411 428,410 L 1163,1116 C 1174,1127 1196,1133 1229,1133 1271,1133 1292,1118 1292,1087 L 1292,965 C 1292,929 1282,901 1262,881 L 442,47 C 390,-6 338,-33 285,-33 Z"
   id="path8" />
  </g>
  <g
   id="bullet-char-template-9679"
   transform="scale(0.00048828125,-0.00048828125)">
   <path
   d="M 813,0 C 632,0 489,54 383,161 276,268 223,411 223,592 223,773 276,916 383,1023 489,1130 632,1184 813,1184 992,1184 1136,1130 1245,1023 1353,916 1407,772 1407,592 1407,412 1353,268 1245,161 1136,54 992,0 813,0 Z"
   id="path9" />
  </g>
  <g
   id="bullet-char-template-8226"
   transform="scale(0.00048828125,-0.00048828125)">
   <path
   d="M 346,457 C 273,457 209,483 155,535 101,586 74,649 74,723 74,796 101,859 155,911 209,963 273,989 346,989 419,989 480,963 531,910 582,859 608,796 608,723 608,648 583,586 532,535 482,483 420,457 346,457 Z"
   id="path10" />
  </g>
  <g
   id="bullet-char-template-8211"
   transform="scale(0.00048828125,-0.00048828125)">
   <path
   d="M -4,459 L 1135,459 1135,606 -4,606 -4,459 Z"
   id="path11" />
  </g>
  <g
   id="bullet-char-template-61548"
   transform="scale(0.00048828125,-0.00048828125)">
   <path
   d="M 173,740 C 173,903 231,1043 346,1159 462,1274 601,1332 765,1332 928,1332 1067,1274 1183,1159 1299,1043 1357,903 1357,740 1357,577 1299,437 1183,322 1067,206 928,148 765,148 601,148 462,206 346,322 231,437 173,577 173,740 Z"
   id="path12" />
  </g>
 </defs>
 
 <path
   id="path13"
   d="M 6159.8307 2800.1391 C 6146.8126 2800.0183 6133.1938 2800.3301 6119.0063 2801.0176 C 6082.3454 2803.1265 6046.3868 2807.1413 6011.571 2812.6965 C 6008.6199 2812.9154 6006.0411 2812.6714 6002.9927 2813.0066 C 5620.9927 2855.0066 5021.0048 3083.0149 4832.0048 3607.0149 C 4720.1751 3917.0613 4678.1303 4188.6659 4665.9167 4559.1015 C 4385.2818 4609.7471 4124.1342 4661.503 3951.8518 4698.8863 C 3938.9192 4701.3638 3926.2281 4704.1251 3913.7662 4707.1028 C 3906.9577 4708.6119 3897.4107 4710.5655 3890.9769 4712.0121 C 3879.4597 4714.6514 3868.7842 4718.2327 3858.5758 4722.3991 C 3739.063 4761.0096 3652.3276 4826.4482 3639.0027 4920.9916 C 3616.0027 5070.9916 3639.9938 5317.0044 3741.9938 5430.0044 C 3787.3141 5480.0456 3827.5351 5500.5984 3871.5466 5498.0106 C 3877.3032 5499.8097 3882.8322 5500.2241 3887.9797 5498.0106 C 3997.9928 5461.3396 4306.4707 5364.5252 4666.7952 5297.0927 C 4668.1454 5368.211 4669.3834 5436.9699 4670.981 5515.0122 C 4690.0281 6445.4648 4600.3062 7696.5618 4592.4845 8390.4439 C 4580.7502 8539.8163 4608.6879 8747.8262 4701.005 8850.0024 C 4797.005 8956.0024 4869.9839 8929.9854 5003.9839 8830.9854 C 5137.9839 8732.9854 5225.0225 8555.9751 5261.0225 8449.9751 C 5282.1664 8388.5895 5294.35 8336.6361 5298.0745 8292.9304 C 5300.3654 8283.1956 5302.0019 8273.2975 5302.0019 8263.0098 C 5286.0019 7857.0098 5346.0047 6800.9926 5299.0047 5666.9926 C 5292.9091 5519.9193 5285.6767 5372.6597 5279.0576 5227.6395 C 5323.1491 5226.6519 5366.9111 5226.6546 5410.0057 5228.0013 C 5410.5168 5227.9945 5411.043 5227.9132 5411.5559 5227.8979 C 5465.1968 5232.0468 5522.717 5199.107 5601.9836 5140.9782 C 5735.9836 5043.9782 5823.0222 4866.0195 5859.0222 4760.0195 C 5951.0222 4491.0195 5874.0119 4399.9787 5646.0119 4411.9787 C 5625.6894 4413.1477 5605.6585 4415.0399 5585.8089 4417.2497 C 5579.3632 4417.6671 5572.8211 4418.2155 5566.0168 4419.0067 C 5477.5937 4428.9146 5372.902 4443.5684 5263.1412 4459.9345 C 5279.4004 3859.8411 5402.3691 3459.2364 5862.0194 3616.0066 C 5865.2386 3616.7821 5868.7186 3616.5752 5872.1997 3616.3684 C 5929.2587 3626.8086 5989.4812 3593.439 6073.9961 3530.9989 C 6207.9961 3432.9989 6294.983 3255.9886 6330.983 3149.9886 C 6418.1705 2896.8636 6355.1017 2801.9519 6159.8307 2800.1391 z " />
   
  
</svg>
