<?xml version="1.0" encoding="UTF-8" standalone="no"?>
<svg
   version="1.2"
   width="100mm"
   height="100mm"
   viewBox="0 0 10000 10000"
   preserveAspectRatio="xMidYMid"
   fill-rule="evenodd"
   stroke-width="28.222"
   stroke-linejoin="round"
   xml:space="preserve"
   id="svg23"
   sodipodi:docname="gobo-caps-0122.svg"
   inkscape:version="1.4 (86a8ad7, 2024-10-11)"
   xmlns:inkscape="http://www.inkscape.org/namespaces/inkscape"
   xmlns:sodipodi="http://sodipodi.sourceforge.net/DTD/sodipodi-0.dtd"
   xmlns="http://www.w3.org/2000/svg"
   xmlns:svg="http://www.w3.org/2000/svg"
   xmlns:ooo="http://xml.openoffice.org/svg/export"><sodipodi:namedview
   id="namedview23"
   pagecolor="#ffffff"
   bordercolor="#000000"
   borderopacity="0.25"
   inkscape:showpageshadow="2"
   inkscape:pageopacity="0.0"
   inkscape:pagecheckerboard="0"
   inkscape:deskcolor="#d1d1d1"
   inkscape:document-units="mm"
   showgrid="false"
   inkscape:zoom="3.0876875"
   inkscape:cx="188.81444"
   inkscape:cy="188.97638"
   inkscape:window-width="2560"
   inkscape:window-height="1369"
   inkscape:window-x="-8"
   inkscape:window-y="-8"
   inkscape:window-maximized="1"
   inkscape:current-layer="svg23" />
 <defs
   class="ClipPathGroup"
   id="defs2">
  
  <clipPath
   id="presentation_clip_path_shrink"
   clipPathUnits="userSpaceOnUse">
   <rect
   x="10"
   y="10"
   width="9980"
   height="9980"
   id="rect2" />
  </clipPath>
 
  
 
   
  
    
   
     
    
      
      
      
      
      
      
      
      
     
       
      
       
      
       
      
       
      
       
      
       
      
       
      
       
      
        
        
       
        
        
       
        
        
       
        
        
       
        
        
       
        
        
       
        
        
       
        
        
       </defs>
 <defs
   class="TextShapeIndex"
   id="defs3">
  <g
   ooo:slide="id1"
   ooo:id-list="id3 id4 id5 id6 id7 id8 id9 id10"
   id="g2" />
 </defs>
 <defs
   class="EmbeddedBulletChars"
   id="defs12">
  <g
   id="bullet-char-template-57356"
   transform="scale(0.00048828125,-0.00048828125)">
   <path
   d="M 580,1141 L 1163,571 580,0 -4,571 580,1141 Z"
   id="path3" />
  </g>
  <g
   id="bullet-char-template-57354"
   transform="scale(0.00048828125,-0.00048828125)">
   <path
   d="M 8,1128 L 1137,1128 1137,0 8,0 8,1128 Z"
   id="path4" />
  </g>
  <g
   id="bullet-char-template-10146"
   transform="scale(0.00048828125,-0.00048828125)">
   <path
   d="M 174,0 L 602,739 174,1481 1456,739 174,0 Z M 1358,739 L 309,1346 659,739 1358,739 Z"
   id="path5" />
  </g>
  <g
   id="bullet-char-template-10132"
   transform="scale(0.00048828125,-0.00048828125)">
   <path
   d="M 2015,739 L 1276,0 717,0 1260,543 174,543 174,936 1260,936 717,1481 1274,1481 2015,739 Z"
   id="path6" />
  </g>
  <g
   id="bullet-char-template-10007"
   transform="scale(0.00048828125,-0.00048828125)">
   <path
   d="M 0,-2 C -7,14 -16,27 -25,37 L 356,567 C 262,823 215,952 215,954 215,979 228,992 255,992 264,992 276,990 289,987 310,991 331,999 354,1012 L 381,999 492,748 772,1049 836,1024 860,1049 C 881,1039 901,1025 922,1006 886,937 835,863 770,784 769,783 710,716 594,584 L 774,223 C 774,196 753,168 711,139 L 727,119 C 717,90 699,76 672,76 641,76 570,178 457,381 L 164,-76 C 142,-110 111,-127 72,-127 30,-127 9,-110 8,-76 1,-67 -2,-52 -2,-32 -2,-23 -1,-13 0,-2 Z"
   id="path7" />
  </g>
  <g
   id="bullet-char-template-10004"
   transform="scale(0.00048828125,-0.00048828125)">
   <path
   d="M 285,-33 C 182,-33 111,30 74,156 52,228 41,333 41,471 41,549 55,616 82,672 116,743 169,778 240,778 293,778 328,747 346,684 L 369,508 C 377,444 397,411 428,410 L 1163,1116 C 1174,1127 1196,1133 1229,1133 1271,1133 1292,1118 1292,1087 L 1292,965 C 1292,929 1282,901 1262,881 L 442,47 C 390,-6 338,-33 285,-33 Z"
   id="path8" />
  </g>
  <g
   id="bullet-char-template-9679"
   transform="scale(0.00048828125,-0.00048828125)">
   <path
   d="M 813,0 C 632,0 489,54 383,161 276,268 223,411 223,592 223,773 276,916 383,1023 489,1130 632,1184 813,1184 992,1184 1136,1130 1245,1023 1353,916 1407,772 1407,592 1407,412 1353,268 1245,161 1136,54 992,0 813,0 Z"
   id="path9" />
  </g>
  <g
   id="bullet-char-template-8226"
   transform="scale(0.00048828125,-0.00048828125)">
   <path
   d="M 346,457 C 273,457 209,483 155,535 101,586 74,649 74,723 74,796 101,859 155,911 209,963 273,989 346,989 419,989 480,963 531,910 582,859 608,796 608,723 608,648 583,586 532,535 482,483 420,457 346,457 Z"
   id="path10" />
  </g>
  <g
   id="bullet-char-template-8211"
   transform="scale(0.00048828125,-0.00048828125)">
   <path
   d="M -4,459 L 1135,459 1135,606 -4,606 -4,459 Z"
   id="path11" />
  </g>
  <g
   id="bullet-char-template-61548"
   transform="scale(0.00048828125,-0.00048828125)">
   <path
   d="M 173,740 C 173,903 231,1043 346,1159 462,1274 601,1332 765,1332 928,1332 1067,1274 1183,1159 1299,1043 1357,903 1357,740 1357,577 1299,437 1183,322 1067,206 928,148 765,148 601,148 462,206 346,322 231,437 173,577 173,740 Z"
   id="path12" />
  </g>
 </defs>
 
 <path
   id="path13"
   d="M 5556.8184 2125.9167 C 5478.3133 2127.9189 5396.7255 2132.5869 5311.9755 2140.0244 C 3955.9755 2259.0244 2756.98 3720.9898 2486.98 5669.9898 C 2320.5704 6871.2203 2687.6417 7872.6981 3389.7672 8414.7835 C 3272.7551 8606.377 3173.1026 8776.0286 3118.9827 8881.0082 C 3116.0401 8885.5673 3114.5689 8890.5936 3113.7117 8895.8394 C 3107.5941 8910.0982 3103.2233 8925.1189 3100.9993 8941.0046 C 3077.9993 9090.0046 3101.0086 9335.9839 3203.0086 9448.9839 C 3300.0086 9554.9839 3372.0211 9529.0186 3507.0211 9430.0186 C 3620.2138 9348.0806 3699.6815 9209.1861 3743.3891 9104.0954 C 3804.9582 8966.5553 3867.9707 8836.8594 3932.2147 8715.1269 C 4262.5512 8837.3764 4636.3743 8881.4022 5042.9996 8830.0036 C 6736.9996 8616.0036 7303.0202 6536.996 7542.0202 5737.996 C 7544.721 5728.9044 7545.8871 5720.1478 7546.4127 5711.5376 C 7585.6099 5525.078 7506.9238 5456.8873 7322.6021 5462.3539 C 7314.2505 5462.0728 7306.136 5461.563 7297.0222 5461.9921 C 6850.0222 5483.9921 6624.0097 5479.9829 6190.0097 5527.9829 C 5757.0097 5576.9829 5657.9917 5608.0122 5256.9917 5683.0122 C 5251.7304 5683.955 5246.6684 5685.6084 5241.7472 5687.9215 C 5096.1544 5723.4642 4985.1595 5793.5981 4969.9808 5902.017 C 4946.9808 6051.017 4970.0236 6296.9781 5073.0236 6410.9781 C 5123.8309 6467.0778 5168.1696 6486.2239 5218.5445 6477.124 C 5219.0389 6477.0181 5219.4934 6477.1532 5219.9914 6477.0206 C 5220.8458 6476.7814 5222.2314 6476.3833 5223.092 6476.1421 C 5229.3771 6474.8067 5235.8111 6472.9445 5242.3156 6470.7678 C 5472.4616 6405.9999 5895.9905 6282.2629 6216.003 6256.0005 C 6395.3641 6241.8261 6573.9227 6246.2219 6731.7338 6254.967 C 6488.8072 7155.887 6007.9058 8068.5196 5051.0095 8098.9888 C 4816.1302 8106.6699 4591.984 8073.3372 4384.1768 8004.8343 C 4449.8945 7920.493 4515.9732 7843.1495 4582.0459 7772.8072 C 4678.641 7673.2436 4743.4504 7536.7468 4774.0238 7449.9845 C 4866.0238 7179.9845 4789.0136 7089.0135 4561.0136 7101.0135 C 4393.9243 7110.5825 4239.935 7154.8633 4161.8648 7236.9742 C 4158.4419 7238.2903 4155.3426 7240.1285 4152.9764 7243.0204 C 4065.9592 7364.6669 3953.7123 7531.3494 3835.4765 7711.6223 C 3327.9013 7314.3833 3020.7019 6638.7597 3078.0033 5806.984 C 3173.0033 4427.984 3831.0169 3503.991 4464.0169 3109.991 C 5098.0169 2716.991 6407.0054 2700.9997 6811.0054 3940.9997 C 6818.435 3963.7614 6828.3339 3981.8896 6839.9959 3996.4485 C 6849.9325 4013.227 6860.9094 4028.562 6873.0171 4041.9755 C 6970.0171 4147.9755 7041.9779 4122.0102 7176.9779 4023.0102 C 7310.9779 3926.0102 7398.0165 3747.9999 7434.0165 3641.9999 C 7470.6746 3535.9671 7480.629 3457.6895 7465.4357 3402.3763 C 7465.1211 3400.9913 7465.3707 3399.3525 7465.0223 3397.9838 C 7224.0848 2662.9838 6734.3953 2095.8838 5556.8184 2125.9167 z " />
   
  
</svg>
