<?xml version="1.0" encoding="UTF-8" standalone="no"?>
<svg
   version="1.2"
   width="100mm"
   height="100mm"
   viewBox="0 0 10000 10000"
   preserveAspectRatio="xMidYMid"
   fill-rule="evenodd"
   stroke-width="28.222"
   stroke-linejoin="round"
   xml:space="preserve"
   id="svg24"
   sodipodi:docname="gobo-caps-0166.svg"
   inkscape:version="1.4 (86a8ad7, 2024-10-11)"
   xmlns:inkscape="http://www.inkscape.org/namespaces/inkscape"
   xmlns:sodipodi="http://sodipodi.sourceforge.net/DTD/sodipodi-0.dtd"
   xmlns="http://www.w3.org/2000/svg"
   xmlns:svg="http://www.w3.org/2000/svg"
   xmlns:ooo="http://xml.openoffice.org/svg/export"><sodipodi:namedview
   id="namedview24"
   pagecolor="#ffffff"
   bordercolor="#000000"
   borderopacity="0.25"
   inkscape:showpageshadow="2"
   inkscape:pageopacity="0.0"
   inkscape:pagecheckerboard="0"
   inkscape:deskcolor="#d1d1d1"
   inkscape:document-units="mm"
   showgrid="false"
   inkscape:zoom="3.0876875"
   inkscape:cx="188.81444"
   inkscape:cy="188.97638"
   inkscape:window-width="2560"
   inkscape:window-height="1369"
   inkscape:window-x="-8"
   inkscape:window-y="-8"
   inkscape:window-maximized="1"
   inkscape:current-layer="svg24" />
 <defs
   class="ClipPathGroup"
   id="defs2">
  
  <clipPath
   id="presentation_clip_path_shrink"
   clipPathUnits="userSpaceOnUse">
   <rect
   x="10"
   y="10"
   width="9980"
   height="9980"
   id="rect2" />
  </clipPath>
 
  
 
   
  
    
   
     
    
      
      
      
      
      
      
      
      
      
     
       
      
       
      
       
      
       
      
       
      
       
      
       
      
       
      
       
      
        
        
       
        
        
       
        
        
       
        
        
       
        
        
       
        
        
       
        
        
       
        
        
       
        
        
       </defs>
 <defs
   class="TextShapeIndex"
   id="defs3">
  <g
   ooo:slide="id1"
   ooo:id-list="id3 id4 id5 id6 id7 id8 id9 id10 id11"
   id="g2" />
 </defs>
 <defs
   class="EmbeddedBulletChars"
   id="defs12">
  <g
   id="bullet-char-template-57356"
   transform="scale(0.00048828125,-0.00048828125)">
   <path
   d="M 580,1141 L 1163,571 580,0 -4,571 580,1141 Z"
   id="path3" />
  </g>
  <g
   id="bullet-char-template-57354"
   transform="scale(0.00048828125,-0.00048828125)">
   <path
   d="M 8,1128 L 1137,1128 1137,0 8,0 8,1128 Z"
   id="path4" />
  </g>
  <g
   id="bullet-char-template-10146"
   transform="scale(0.00048828125,-0.00048828125)">
   <path
   d="M 174,0 L 602,739 174,1481 1456,739 174,0 Z M 1358,739 L 309,1346 659,739 1358,739 Z"
   id="path5" />
  </g>
  <g
   id="bullet-char-template-10132"
   transform="scale(0.00048828125,-0.00048828125)">
   <path
   d="M 2015,739 L 1276,0 717,0 1260,543 174,543 174,936 1260,936 717,1481 1274,1481 2015,739 Z"
   id="path6" />
  </g>
  <g
   id="bullet-char-template-10007"
   transform="scale(0.00048828125,-0.00048828125)">
   <path
   d="M 0,-2 C -7,14 -16,27 -25,37 L 356,567 C 262,823 215,952 215,954 215,979 228,992 255,992 264,992 276,990 289,987 310,991 331,999 354,1012 L 381,999 492,748 772,1049 836,1024 860,1049 C 881,1039 901,1025 922,1006 886,937 835,863 770,784 769,783 710,716 594,584 L 774,223 C 774,196 753,168 711,139 L 727,119 C 717,90 699,76 672,76 641,76 570,178 457,381 L 164,-76 C 142,-110 111,-127 72,-127 30,-127 9,-110 8,-76 1,-67 -2,-52 -2,-32 -2,-23 -1,-13 0,-2 Z"
   id="path7" />
  </g>
  <g
   id="bullet-char-template-10004"
   transform="scale(0.00048828125,-0.00048828125)">
   <path
   d="M 285,-33 C 182,-33 111,30 74,156 52,228 41,333 41,471 41,549 55,616 82,672 116,743 169,778 240,778 293,778 328,747 346,684 L 369,508 C 377,444 397,411 428,410 L 1163,1116 C 1174,1127 1196,1133 1229,1133 1271,1133 1292,1118 1292,1087 L 1292,965 C 1292,929 1282,901 1262,881 L 442,47 C 390,-6 338,-33 285,-33 Z"
   id="path8" />
  </g>
  <g
   id="bullet-char-template-9679"
   transform="scale(0.00048828125,-0.00048828125)">
   <path
   d="M 813,0 C 632,0 489,54 383,161 276,268 223,411 223,592 223,773 276,916 383,1023 489,1130 632,1184 813,1184 992,1184 1136,1130 1245,1023 1353,916 1407,772 1407,592 1407,412 1353,268 1245,161 1136,54 992,0 813,0 Z"
   id="path9" />
  </g>
  <g
   id="bullet-char-template-8226"
   transform="scale(0.00048828125,-0.00048828125)">
   <path
   d="M 346,457 C 273,457 209,483 155,535 101,586 74,649 74,723 74,796 101,859 155,911 209,963 273,989 346,989 419,989 480,963 531,910 582,859 608,796 608,723 608,648 583,586 532,535 482,483 420,457 346,457 Z"
   id="path10" />
  </g>
  <g
   id="bullet-char-template-8211"
   transform="scale(0.00048828125,-0.00048828125)">
   <path
   d="M -4,459 L 1135,459 1135,606 -4,606 -4,459 Z"
   id="path11" />
  </g>
  <g
   id="bullet-char-template-61548"
   transform="scale(0.00048828125,-0.00048828125)">
   <path
   d="M 173,740 C 173,903 231,1043 346,1159 462,1274 601,1332 765,1332 928,1332 1067,1274 1183,1159 1299,1043 1357,903 1357,740 1357,577 1299,437 1183,322 1067,206 928,148 765,148 601,148 462,206 346,322 231,437 173,577 173,740 Z"
   id="path12" />
  </g>
 </defs>
 
 <path
   id="path13"
   d="M 7218.009 2053.8281 C 7204.936 2053.8027 7191.2279 2054.2042 7176.9779 2055.0167 C 7171.5816 2055.3271 7166.2744 2055.8217 7160.9065 2056.2052 C 6867.6121 2060.6498 5540.9463 2101.4111 4746.997 2201.9844 C 3990.2207 2296.12 3469.624 2392.0729 2963.695 2489.6155 C 2764.3177 2512.4185 2596.0126 2588.0893 2577.0003 2722.9862 C 2554.0003 2872.9862 2577.0096 3118.9991 2679.0096 3231.9991 C 2732.8982 3290.8877 2779.0815 3308.9669 2832.7986 3296.4913 C 2835.8717 3297.5562 2838.9294 3297.9354 2841.997 3297.008 C 3164.9995 3217.4415 3871.158 3027.6655 4597.4971 2940.699 C 4589.9556 3020.5961 4593.9475 3118.7801 4613.3618 3209.1064 C 4642.52 3507.2754 4664.6683 4068.1832 4680.6445 4619.0979 C 4182.9311 4698.1624 4073.0587 4741.609 3759.9772 4812.006 C 3748.46 4814.6453 3737.7845 4818.2266 3727.5761 4822.3929 C 3608.0632 4861.0035 3521.3278 4926.4421 3508.0029 5020.9855 C 3485.0029 5170.9855 3508.994 5416.9983 3610.994 5529.9983 C 3656.2776 5579.9989 3696.4739 5600.6043 3740.4435 5598.0562 C 3746.2341 5599.8858 3751.8045 5600.2299 3756.98 5598.0045 C 3762.8079 5596.0619 3771.7955 5592.6652 3777.9089 5590.5631 C 3782.5787 5589.0788 3787.3162 5587.3538 3792.1199 5585.4471 C 3969.8437 5523.3373 4258.0375 5404.7649 4698.2662 5334.2997 C 4701.7244 5517.9972 4705.0461 5701.9386 4706.0176 5822.0218 C 4709.6826 6389.1724 4588.6191 7872.3383 4582.0975 8328.1221 C 4572.7929 8476.7681 4601.3465 8678.8206 4690.9798 8778.999 C 4786.9798 8884.999 4859.9922 8858.982 4994.9922 8759.982 C 5128.9922 8661.982 5215.9973 8485.0052 5250.9973 8380.0052 C 5264.1607 8342.0553 5273.8199 8307.7541 5280.2978 8276.6524 C 5284.2056 8261.2639 5287.3964 8245.5154 5288.9795 8229.0067 C 5325.9795 7863.0067 5339.0133 6685.0046 5327.0133 5766.0046 C 5325.3508 5627.2648 5323.4375 5433.4644 5321.5873 5272.288 C 5642.5802 5253.9256 5956.5091 5250.5504 6077.9752 5258.0253 C 6078.1238 5258.0337 6078.2913 5257.9662 6078.4403 5257.9736 C 6131.5455 5261.216 6188.6697 5228.4499 6267.0076 5171.0022 C 6401.0076 5074.0022 6487.9945 4895.9918 6523.9945 4789.9918 C 6615.9945 4520.9918 6538.9842 4430.0027 6310.9842 4442.0027 C 6303.6616 4442.4239 6296.4477 4443.1005 6289.1768 4443.6564 C 6287.0146 4443.8676 6285.1792 4443.7665 6282.9756 4444.0181 C 6281.5378 4444.1792 6280.1745 4444.3229 6278.7382 4444.4832 C 6265.9608 4445.578 6253.3091 4446.8936 6240.756 4448.4106 C 5930.8835 4481.8467 5648.4467 4499.3434 5313.5258 4534.8653 C 5306.5073 3861.403 5300.856 3228.2295 5301.2268 2886.8522 C 6001.4538 2854.781 6781.2062 2864.72 6941.0233 2873.9848 C 6944.8613 2874.1624 6949.1274 2873.0362 6953.6324 2871.1942 C 7004.3107 2870.4102 7059.5575 2838.1935 7133.9831 2784.0161 C 7266.9831 2686.0161 7353.9881 2509.0058 7389.9881 2403.0058 C 7477.1756 2150.8183 7414.1039 2054.209 7218.009 2053.8281 z " />
   
  
</svg>
