<?xml version="1.0" encoding="UTF-8" standalone="no"?>
<svg
   version="1.2"
   width="100mm"
   height="100mm"
   viewBox="0 0 10000 10000"
   preserveAspectRatio="xMidYMid"
   fill-rule="evenodd"
   stroke-width="28.222"
   stroke-linejoin="round"
   xml:space="preserve"
   id="svg27"
   sodipodi:docname="gobo-caps-0113.svg"
   inkscape:version="1.4 (86a8ad7, 2024-10-11)"
   xmlns:inkscape="http://www.inkscape.org/namespaces/inkscape"
   xmlns:sodipodi="http://sodipodi.sourceforge.net/DTD/sodipodi-0.dtd"
   xmlns="http://www.w3.org/2000/svg"
   xmlns:svg="http://www.w3.org/2000/svg"
   xmlns:ooo="http://xml.openoffice.org/svg/export"><sodipodi:namedview
   id="namedview27"
   pagecolor="#ffffff"
   bordercolor="#000000"
   borderopacity="0.25"
   inkscape:showpageshadow="2"
   inkscape:pageopacity="0.0"
   inkscape:pagecheckerboard="0"
   inkscape:deskcolor="#d1d1d1"
   inkscape:document-units="mm"
   showgrid="false"
   inkscape:zoom="3.0876875"
   inkscape:cx="188.81444"
   inkscape:cy="188.97638"
   inkscape:window-width="2560"
   inkscape:window-height="1369"
   inkscape:window-x="-8"
   inkscape:window-y="-8"
   inkscape:window-maximized="1"
   inkscape:current-layer="svg27" />
 <defs
   class="ClipPathGroup"
   id="defs2">
  
  <clipPath
   id="presentation_clip_path_shrink"
   clipPathUnits="userSpaceOnUse">
   <rect
   x="10"
   y="10"
   width="9980"
   height="9980"
   id="rect2" />
  </clipPath>
 
  
 
   
  
    
   
     
    
      
      
      
      
      
      
      
      
      
      
      
      
     
       
      
       
      
       
      
       
      
       
      
       
      
       
      
       
      
       
      
       
      
       
      
       
      
        
        
       
        
        
       
        
        
       
        
        
       
        
        
       
        
        
       
        
        
       
        
        
       
        
        
       
        
        
       
        
        
       
        
        
       </defs>
 <defs
   class="TextShapeIndex"
   id="defs3">
  <g
   ooo:slide="id1"
   ooo:id-list="id3 id4 id5 id6 id7 id8 id9 id10 id11 id12 id13 id14"
   id="g2" />
 </defs>
 <defs
   class="EmbeddedBulletChars"
   id="defs12">
  <g
   id="bullet-char-template-57356"
   transform="scale(0.00048828125,-0.00048828125)">
   <path
   d="M 580,1141 L 1163,571 580,0 -4,571 580,1141 Z"
   id="path3" />
  </g>
  <g
   id="bullet-char-template-57354"
   transform="scale(0.00048828125,-0.00048828125)">
   <path
   d="M 8,1128 L 1137,1128 1137,0 8,0 8,1128 Z"
   id="path4" />
  </g>
  <g
   id="bullet-char-template-10146"
   transform="scale(0.00048828125,-0.00048828125)">
   <path
   d="M 174,0 L 602,739 174,1481 1456,739 174,0 Z M 1358,739 L 309,1346 659,739 1358,739 Z"
   id="path5" />
  </g>
  <g
   id="bullet-char-template-10132"
   transform="scale(0.00048828125,-0.00048828125)">
   <path
   d="M 2015,739 L 1276,0 717,0 1260,543 174,543 174,936 1260,936 717,1481 1274,1481 2015,739 Z"
   id="path6" />
  </g>
  <g
   id="bullet-char-template-10007"
   transform="scale(0.00048828125,-0.00048828125)">
   <path
   d="M 0,-2 C -7,14 -16,27 -25,37 L 356,567 C 262,823 215,952 215,954 215,979 228,992 255,992 264,992 276,990 289,987 310,991 331,999 354,1012 L 381,999 492,748 772,1049 836,1024 860,1049 C 881,1039 901,1025 922,1006 886,937 835,863 770,784 769,783 710,716 594,584 L 774,223 C 774,196 753,168 711,139 L 727,119 C 717,90 699,76 672,76 641,76 570,178 457,381 L 164,-76 C 142,-110 111,-127 72,-127 30,-127 9,-110 8,-76 1,-67 -2,-52 -2,-32 -2,-23 -1,-13 0,-2 Z"
   id="path7" />
  </g>
  <g
   id="bullet-char-template-10004"
   transform="scale(0.00048828125,-0.00048828125)">
   <path
   d="M 285,-33 C 182,-33 111,30 74,156 52,228 41,333 41,471 41,549 55,616 82,672 116,743 169,778 240,778 293,778 328,747 346,684 L 369,508 C 377,444 397,411 428,410 L 1163,1116 C 1174,1127 1196,1133 1229,1133 1271,1133 1292,1118 1292,1087 L 1292,965 C 1292,929 1282,901 1262,881 L 442,47 C 390,-6 338,-33 285,-33 Z"
   id="path8" />
  </g>
  <g
   id="bullet-char-template-9679"
   transform="scale(0.00048828125,-0.00048828125)">
   <path
   d="M 813,0 C 632,0 489,54 383,161 276,268 223,411 223,592 223,773 276,916 383,1023 489,1130 632,1184 813,1184 992,1184 1136,1130 1245,1023 1353,916 1407,772 1407,592 1407,412 1353,268 1245,161 1136,54 992,0 813,0 Z"
   id="path9" />
  </g>
  <g
   id="bullet-char-template-8226"
   transform="scale(0.00048828125,-0.00048828125)">
   <path
   d="M 346,457 C 273,457 209,483 155,535 101,586 74,649 74,723 74,796 101,859 155,911 209,963 273,989 346,989 419,989 480,963 531,910 582,859 608,796 608,723 608,648 583,586 532,535 482,483 420,457 346,457 Z"
   id="path10" />
  </g>
  <g
   id="bullet-char-template-8211"
   transform="scale(0.00048828125,-0.00048828125)">
   <path
   d="M -4,459 L 1135,459 1135,606 -4,606 -4,459 Z"
   id="path11" />
  </g>
  <g
   id="bullet-char-template-61548"
   transform="scale(0.00048828125,-0.00048828125)">
   <path
   d="M 173,740 C 173,903 231,1043 346,1159 462,1274 601,1332 765,1332 928,1332 1067,1274 1183,1159 1299,1043 1357,903 1357,740 1357,577 1299,437 1183,322 1067,206 928,148 765,148 601,148 462,206 346,322 231,437 173,577 173,740 Z"
   id="path12" />
  </g>
 </defs>
 
 <path
   id="path13"
   d="M 6307.0052 1749.9707 C 6293.9322 1749.8972 6280.2757 1750.2542 6266.0257 1751.0042 C 6218.7978 1753.7329 6172.5578 1759.4939 6128.6181 1768.0058 C 5707.5013 1817.4094 5442.6016 1826.0327 4991.995 1856.0107 C 4538.9836 1887.026 4269.5127 1886.56 3984.718 1909.5992 C 3981.1531 1909.738 3977.6625 1909.8209 3974.021 1910.0126 C 3748.021 1923.0126 3545.0226 1999.9979 3524.0226 2149.9979 C 3501.0226 2298.9979 3524.0137 2545.0108 3627.0137 2659.0108 C 3668.4028 2704.7112 3705.5241 2725.8153 3745.0944 2727.172 C 3749.2271 2729.42 3753.5125 2730.4326 3758.0135 2728.9807 C 3761.4477 2727.8235 3766.1437 2726.6767 3769.8991 2725.5184 C 3781.1749 2723.6973 3792.7783 2720.2892 3804.7807 2715.6998 C 4034.0726 2658.053 4620.0978 2601.3048 4960.0073 2579.0157 C 5324.0073 2555.0157 5899.9903 2566.9877 6042.9903 2571.9877 C 6048.3957 2571.9441 6054.7983 2569.7075 6061.5938 2566.51 C 6107.0559 2559.1101 6157.2688 2528.4532 6221.9974 2480.9855 C 6355.9974 2382.9855 6443.9843 2206.0087 6478.9843 2101.0087 C 6566.1718 1846.9462 6503.1001 1751.073 6307.0052 1749.9707 z M 6771.8347 3040.7963 C 6758.8166 3040.778 6745.1978 3041.1723 6731.0103 3041.9848 C 6725.6316 3042.2704 6720.3422 3042.7624 6714.9906 3043.1217 C 6418.3149 3048.9146 5516.9825 3098.1917 4886.9885 3177.9972 C 4284.4856 3251.8466 3899.6877 3314.9716 3431.2117 3403.2031 C 3222.3751 3422.9833 3041.6832 3500.2288 3021.9861 3639.9845 C 2999.9861 3788.9845 3022.9772 4034.9974 3124.9772 4148.9974 C 3176.3387 4205.7091 3221.1467 4224.6022 3272.3584 4214.7815 C 3273.7539 4215.3827 3275.1471 4215.9143 3276.5442 4216.125 C 3277.4325 4220.7881 3278.2125 4225.5023 3279.1797 4230.1294 C 3318.4891 4615.7793 3392.879 4706.5704 3380.0004 5509.9996 C 3369.0004 6319.9996 3218.0163 6571.0142 3120.0163 7175.0142 C 3022.0163 7781.0142 3260.0177 8310.0014 4239.0177 8104.0014 C 5209.2813 7900.4149 6321.133 7832.326 6492.2135 7824.5353 C 6547.0473 7830.6438 6605.7852 7797.5216 6686.982 7737.9772 C 6819.982 7640.9772 6907.0205 7463.0004 6944.0205 7358.0004 C 7036.0205 7088.0004 6959.0103 6996.9778 6731.0103 7008.9778 C 6688.0157 7011.4401 6645.894 7016.2871 6605.6949 7023.3955 C 6276.2536 7052.8904 5749.4034 7117.6778 5345.9786 7178.0114 C 4901.9786 7243.0114 4223.0145 7472.0032 3869.0145 7355.0032 C 3608.0145 7268.0032 3732.9868 7185.0147 3898.9868 6278.0147 C 3917.1921 6177.8305 3932.2887 6075.7816 3945.3922 5973.1237 C 4206.084 5887.5993 4583.1196 5782.5102 4914.0153 5734.0169 C 5377.0153 5667.0169 5988.0156 5665.9886 6221.0156 5689.9886 C 6224.7047 5690.3653 6228.4155 5689.8823 6232.126 5689.8335 C 6285.8849 5694.1848 6343.548 5661.2956 6423.0187 5603.0171 C 6557.0187 5506.0171 6644.0056 5328.0068 6680.0056 5222.0068 C 6773.0056 4953.0068 6694.9954 4862.0177 6466.9954 4874.0177 C 6449.2296 4875.0396 6431.6898 4876.5417 6414.2854 4878.3585 C 5942.6114 4904.444 5141.4988 4944.6438 4630.9834 5057.9858 C 4305.768 5129.4484 4160.6128 5158.5074 4004.0966 5196.6337 C 4017.6336 4762.6912 4002.7545 4357.7681 3984.6146 4052.6725 C 4271.8788 3991.3674 4585.2277 3932.931 4857.998 3903.0175 C 5395.998 3846.0175 6296.9776 3849.0228 6504.9776 3860.0228 C 6508.5757 3860.1893 6512.5733 3859.3098 6516.7598 3857.6973 C 6564.8477 3853.2858 6617.7444 3821.7585 6686.982 3770.9843 C 6819.982 3672.9843 6906.987 3496.0256 6942.987 3390.0256 C 7030.1745 3136.9006 6967.1057 3041.0709 6771.8347 3040.7963 z " />
   
  
</svg>
