<?xml version="1.0" encoding="UTF-8" standalone="no"?>
<svg
   version="1.2"
   width="100mm"
   height="100mm"
   viewBox="0 0 10000 10000"
   preserveAspectRatio="xMidYMid"
   fill-rule="evenodd"
   stroke-width="28.222"
   stroke-linejoin="round"
   xml:space="preserve"
   id="svg27"
   sodipodi:docname="gobo-caps-0115.svg"
   inkscape:version="1.4 (86a8ad7, 2024-10-11)"
   xmlns:inkscape="http://www.inkscape.org/namespaces/inkscape"
   xmlns:sodipodi="http://sodipodi.sourceforge.net/DTD/sodipodi-0.dtd"
   xmlns="http://www.w3.org/2000/svg"
   xmlns:svg="http://www.w3.org/2000/svg"
   xmlns:ooo="http://xml.openoffice.org/svg/export"><sodipodi:namedview
   id="namedview27"
   pagecolor="#ffffff"
   bordercolor="#000000"
   borderopacity="0.25"
   inkscape:showpageshadow="2"
   inkscape:pageopacity="0.0"
   inkscape:pagecheckerboard="0"
   inkscape:deskcolor="#d1d1d1"
   inkscape:document-units="mm"
   showgrid="false"
   inkscape:zoom="3.0876875"
   inkscape:cx="188.81444"
   inkscape:cy="188.97638"
   inkscape:window-width="2560"
   inkscape:window-height="1369"
   inkscape:window-x="-8"
   inkscape:window-y="-8"
   inkscape:window-maximized="1"
   inkscape:current-layer="svg27" />
 <defs
   class="ClipPathGroup"
   id="defs2">
  
  <clipPath
   id="presentation_clip_path_shrink"
   clipPathUnits="userSpaceOnUse">
   <rect
   x="10"
   y="10"
   width="9980"
   height="9980"
   id="rect2" />
  </clipPath>
 
  
 
   
  
    
   
     
    
      
      
      
      
      
      
      
      
      
      
      
      
     
       
      
       
      
       
      
       
      
       
      
       
      
       
      
       
      
       
      
       
      
       
      
       
      
        
        
       
        
        
       
        
        
       
        
        
       
        
        
       
        
        
       
        
        
       
        
        
       
        
        
       
        
        
       
        
        
       
        
        
       </defs>
 <defs
   class="TextShapeIndex"
   id="defs3">
  <g
   ooo:slide="id1"
   ooo:id-list="id3 id4 id5 id6 id7 id8 id9 id10 id11 id12 id13 id14"
   id="g2" />
 </defs>
 <defs
   class="EmbeddedBulletChars"
   id="defs12">
  <g
   id="bullet-char-template-57356"
   transform="scale(0.00048828125,-0.00048828125)">
   <path
   d="M 580,1141 L 1163,571 580,0 -4,571 580,1141 Z"
   id="path3" />
  </g>
  <g
   id="bullet-char-template-57354"
   transform="scale(0.00048828125,-0.00048828125)">
   <path
   d="M 8,1128 L 1137,1128 1137,0 8,0 8,1128 Z"
   id="path4" />
  </g>
  <g
   id="bullet-char-template-10146"
   transform="scale(0.00048828125,-0.00048828125)">
   <path
   d="M 174,0 L 602,739 174,1481 1456,739 174,0 Z M 1358,739 L 309,1346 659,739 1358,739 Z"
   id="path5" />
  </g>
  <g
   id="bullet-char-template-10132"
   transform="scale(0.00048828125,-0.00048828125)">
   <path
   d="M 2015,739 L 1276,0 717,0 1260,543 174,543 174,936 1260,936 717,1481 1274,1481 2015,739 Z"
   id="path6" />
  </g>
  <g
   id="bullet-char-template-10007"
   transform="scale(0.00048828125,-0.00048828125)">
   <path
   d="M 0,-2 C -7,14 -16,27 -25,37 L 356,567 C 262,823 215,952 215,954 215,979 228,992 255,992 264,992 276,990 289,987 310,991 331,999 354,1012 L 381,999 492,748 772,1049 836,1024 860,1049 C 881,1039 901,1025 922,1006 886,937 835,863 770,784 769,783 710,716 594,584 L 774,223 C 774,196 753,168 711,139 L 727,119 C 717,90 699,76 672,76 641,76 570,178 457,381 L 164,-76 C 142,-110 111,-127 72,-127 30,-127 9,-110 8,-76 1,-67 -2,-52 -2,-32 -2,-23 -1,-13 0,-2 Z"
   id="path7" />
  </g>
  <g
   id="bullet-char-template-10004"
   transform="scale(0.00048828125,-0.00048828125)">
   <path
   d="M 285,-33 C 182,-33 111,30 74,156 52,228 41,333 41,471 41,549 55,616 82,672 116,743 169,778 240,778 293,778 328,747 346,684 L 369,508 C 377,444 397,411 428,410 L 1163,1116 C 1174,1127 1196,1133 1229,1133 1271,1133 1292,1118 1292,1087 L 1292,965 C 1292,929 1282,901 1262,881 L 442,47 C 390,-6 338,-33 285,-33 Z"
   id="path8" />
  </g>
  <g
   id="bullet-char-template-9679"
   transform="scale(0.00048828125,-0.00048828125)">
   <path
   d="M 813,0 C 632,0 489,54 383,161 276,268 223,411 223,592 223,773 276,916 383,1023 489,1130 632,1184 813,1184 992,1184 1136,1130 1245,1023 1353,916 1407,772 1407,592 1407,412 1353,268 1245,161 1136,54 992,0 813,0 Z"
   id="path9" />
  </g>
  <g
   id="bullet-char-template-8226"
   transform="scale(0.00048828125,-0.00048828125)">
   <path
   d="M 346,457 C 273,457 209,483 155,535 101,586 74,649 74,723 74,796 101,859 155,911 209,963 273,989 346,989 419,989 480,963 531,910 582,859 608,796 608,723 608,648 583,586 532,535 482,483 420,457 346,457 Z"
   id="path10" />
  </g>
  <g
   id="bullet-char-template-8211"
   transform="scale(0.00048828125,-0.00048828125)">
   <path
   d="M -4,459 L 1135,459 1135,606 -4,606 -4,459 Z"
   id="path11" />
  </g>
  <g
   id="bullet-char-template-61548"
   transform="scale(0.00048828125,-0.00048828125)">
   <path
   d="M 173,740 C 173,903 231,1043 346,1159 462,1274 601,1332 765,1332 928,1332 1067,1274 1183,1159 1299,1043 1357,903 1357,740 1357,577 1299,437 1183,322 1067,206 928,148 765,148 601,148 462,206 346,322 231,437 173,577 173,740 Z"
   id="path12" />
  </g>
 </defs>
 
 <path
   id="path13"
   d="M 6385.8117 1252.1199 C 6372.7937 1251.9991 6359.1748 1252.3109 6344.9873 1252.9984 C 6131.4447 1265.2819 5937.6689 1335.6491 5899.2264 1469.0576 C 5799.8765 1715.463 5684.9293 2103.5901 5125.0101 2170.9786 C 4560.0101 2238.9786 4375.0063 1811.9872 4214.0063 1563.9872 C 4213.0499 1562.5139 4211.8456 1561.3809 4210.8541 1559.9564 C 4177.9977 1496.1124 4099.2905 1473.102 3978.0001 1478.9795 C 3752.0001 1491.9795 3548.0198 1570.0165 3527.0198 1719.0165 C 3507.6707 1844.3652 3520.856 2038.3183 3586.8611 2164.6224 C 3586.9197 2164.743 3586.9575 2164.8635 3587.0162 2164.9841 C 3587.151 2165.2415 3587.2943 2165.5024 3587.4296 2165.7593 C 3783.8463 2568.482 4400.4208 2957.9772 5083.979 2892.0198 C 5766.979 2826.0198 6346.0016 2141.0174 6535.0016 1662.0174 C 6537.1166 1656.6571 6538.4869 1651.6953 6540.3759 1646.4628 C 6546.7378 1630.6846 6552.3549 1615.7446 6557.0157 1602.0211 C 6644.2032 1348.8961 6581.0827 1253.9327 6385.8117 1252.1199 z M 6769.8193 3040.7963 C 6756.8012 3040.778 6743.1824 3041.1723 6728.9949 3041.9848 C 6723.6162 3042.2704 6718.3268 3042.7624 6712.9752 3043.1217 C 6416.2995 3048.9146 5515.0188 3098.1917 4885.0248 3177.9972 C 4282.4142 3251.8598 3897.5292 3314.9464 3428.938 3403.2031 C 3220.2307 3423.0298 3039.7099 3500.297 3020.0224 3639.9845 C 2998.0224 3788.9845 3021.0135 4034.9974 3123.0135 4148.9974 C 3174.3751 4205.7091 3219.1313 4224.6022 3270.343 4214.7815 C 3271.7557 4215.3902 3273.1662 4215.9167 3274.5805 4216.125 C 3275.4622 4220.7529 3276.205 4225.4335 3277.1643 4230.026 C 3316.4707 4615.7686 3390.8649 4706.4942 3377.985 5509.9996 C 3366.985 6319.9996 3216.0009 6571.0142 3118.0009 7175.0142 C 3020.0009 7781.0142 3258.0023 8310.0014 4237.0023 8104.0014 C 5207.2659 7900.4149 6319.1177 7832.326 6490.1981 7824.5353 C 6545.0355 7830.6502 6603.8153 7797.5261 6685.0183 7737.9772 C 6818.0183 7640.9772 6905.0052 7463.0004 6942.0052 7358.0004 C 7034.0052 7088.0004 6956.9949 6996.9778 6728.9949 7008.9778 C 6685.9823 7011.4411 6643.8422 7016.2822 6603.6279 7023.3955 C 6274.1795 7052.894 5747.4071 7117.6827 5344.0149 7178.0114 C 4900.0149 7243.0114 4220.9991 7472.0032 3866.9991 7355.0032 C 3605.9991 7268.0032 3731.0231 7185.0147 3897.0231 6278.0147 C 3915.2284 6177.8305 3930.2733 6075.7816 3943.3768 5973.1237 C 4204.0687 5887.5993 4581.1042 5782.5102 4911.9999 5734.0169 C 5374.9999 5667.0169 5986.0002 5665.9886 6219.0002 5689.9886 C 6222.6978 5690.3662 6226.4431 5689.8834 6230.1623 5689.8335 C 6283.909 5694.1638 6341.5538 5661.2802 6421.0034 5603.0171 C 6555.0034 5506.0171 6641.9903 5328.0068 6677.9903 5222.0068 C 6770.9903 4953.0068 6692.98 4862.0177 6464.98 4874.0177 C 6447.2142 4875.0396 6429.6744 4876.5417 6412.2701 4878.3585 C 5940.5947 4904.444 5139.5319 4944.6445 4629.0197 5057.9858 C 4303.8381 5129.441 4158.6304 5158.5133 4002.1329 5196.6337 C 4015.6698 4762.6914 4000.7391 4357.7679 3982.5993 4052.6725 C 4269.8634 3991.3674 4583.2124 3932.931 4855.9826 3903.0175 C 5393.9826 3846.0175 6295.0139 3849.0228 6503.0139 3860.0228 C 6506.6119 3860.1893 6510.5579 3859.3098 6514.7444 3857.6973 C 6562.8323 3853.2858 6615.7806 3821.7585 6685.0183 3770.9843 C 6818.0183 3672.9843 6905.0233 3496.0256 6941.0233 3390.0256 C 7028.2108 3136.9006 6965.0903 3041.0709 6769.8193 3040.7963 z " />
   
  
</svg>
