<?xml version="1.0" encoding="UTF-8" standalone="no"?>
<svg
   version="1.2"
   width="100mm"
   height="100mm"
   viewBox="0 0 10000 10000"
   preserveAspectRatio="xMidYMid"
   fill-rule="evenodd"
   stroke-width="28.222"
   stroke-linejoin="round"
   xml:space="preserve"
   id="svg27"
   sodipodi:docname="gobo-caps-0132.svg"
   inkscape:version="1.4 (86a8ad7, 2024-10-11)"
   xmlns:inkscape="http://www.inkscape.org/namespaces/inkscape"
   xmlns:sodipodi="http://sodipodi.sourceforge.net/DTD/sodipodi-0.dtd"
   xmlns="http://www.w3.org/2000/svg"
   xmlns:svg="http://www.w3.org/2000/svg"
   xmlns:ooo="http://xml.openoffice.org/svg/export"><sodipodi:namedview
   id="namedview27"
   pagecolor="#ffffff"
   bordercolor="#000000"
   borderopacity="0.25"
   inkscape:showpageshadow="2"
   inkscape:pageopacity="0.0"
   inkscape:pagecheckerboard="0"
   inkscape:deskcolor="#d1d1d1"
   inkscape:document-units="mm"
   showgrid="false"
   inkscape:zoom="3.0876875"
   inkscape:cx="188.81444"
   inkscape:cy="188.97638"
   inkscape:window-width="2560"
   inkscape:window-height="1369"
   inkscape:window-x="-8"
   inkscape:window-y="-8"
   inkscape:window-maximized="1"
   inkscape:current-layer="svg27" />
 <defs
   class="ClipPathGroup"
   id="defs2">
  
  <clipPath
   id="presentation_clip_path_shrink"
   clipPathUnits="userSpaceOnUse">
   <rect
   x="10"
   y="10"
   width="9980"
   height="9980"
   id="rect2" />
  </clipPath>
 
  
 
   
  
    
   
     
    
      
      
      
      
      
      
      
      
      
      
      
      
     
       
      
       
      
       
      
       
      
       
      
       
      
       
      
       
      
       
      
       
      
       
      
       
      
        
        
       
        
        
       
        
        
       
        
        
       
        
        
       
        
        
       
        
        
       
        
        
       
        
        
       
        
        
       
        
        
       
        
        
       </defs>
 <defs
   class="TextShapeIndex"
   id="defs3">
  <g
   ooo:slide="id1"
   ooo:id-list="id3 id4 id5 id6 id7 id8 id9 id10 id11 id12 id13 id14"
   id="g2" />
 </defs>
 <defs
   class="EmbeddedBulletChars"
   id="defs12">
  <g
   id="bullet-char-template-57356"
   transform="scale(0.00048828125,-0.00048828125)">
   <path
   d="M 580,1141 L 1163,571 580,0 -4,571 580,1141 Z"
   id="path3" />
  </g>
  <g
   id="bullet-char-template-57354"
   transform="scale(0.00048828125,-0.00048828125)">
   <path
   d="M 8,1128 L 1137,1128 1137,0 8,0 8,1128 Z"
   id="path4" />
  </g>
  <g
   id="bullet-char-template-10146"
   transform="scale(0.00048828125,-0.00048828125)">
   <path
   d="M 174,0 L 602,739 174,1481 1456,739 174,0 Z M 1358,739 L 309,1346 659,739 1358,739 Z"
   id="path5" />
  </g>
  <g
   id="bullet-char-template-10132"
   transform="scale(0.00048828125,-0.00048828125)">
   <path
   d="M 2015,739 L 1276,0 717,0 1260,543 174,543 174,936 1260,936 717,1481 1274,1481 2015,739 Z"
   id="path6" />
  </g>
  <g
   id="bullet-char-template-10007"
   transform="scale(0.00048828125,-0.00048828125)">
   <path
   d="M 0,-2 C -7,14 -16,27 -25,37 L 356,567 C 262,823 215,952 215,954 215,979 228,992 255,992 264,992 276,990 289,987 310,991 331,999 354,1012 L 381,999 492,748 772,1049 836,1024 860,1049 C 881,1039 901,1025 922,1006 886,937 835,863 770,784 769,783 710,716 594,584 L 774,223 C 774,196 753,168 711,139 L 727,119 C 717,90 699,76 672,76 641,76 570,178 457,381 L 164,-76 C 142,-110 111,-127 72,-127 30,-127 9,-110 8,-76 1,-67 -2,-52 -2,-32 -2,-23 -1,-13 0,-2 Z"
   id="path7" />
  </g>
  <g
   id="bullet-char-template-10004"
   transform="scale(0.00048828125,-0.00048828125)">
   <path
   d="M 285,-33 C 182,-33 111,30 74,156 52,228 41,333 41,471 41,549 55,616 82,672 116,743 169,778 240,778 293,778 328,747 346,684 L 369,508 C 377,444 397,411 428,410 L 1163,1116 C 1174,1127 1196,1133 1229,1133 1271,1133 1292,1118 1292,1087 L 1292,965 C 1292,929 1282,901 1262,881 L 442,47 C 390,-6 338,-33 285,-33 Z"
   id="path8" />
  </g>
  <g
   id="bullet-char-template-9679"
   transform="scale(0.00048828125,-0.00048828125)">
   <path
   d="M 813,0 C 632,0 489,54 383,161 276,268 223,411 223,592 223,773 276,916 383,1023 489,1130 632,1184 813,1184 992,1184 1136,1130 1245,1023 1353,916 1407,772 1407,592 1407,412 1353,268 1245,161 1136,54 992,0 813,0 Z"
   id="path9" />
  </g>
  <g
   id="bullet-char-template-8226"
   transform="scale(0.00048828125,-0.00048828125)">
   <path
   d="M 346,457 C 273,457 209,483 155,535 101,586 74,649 74,723 74,796 101,859 155,911 209,963 273,989 346,989 419,989 480,963 531,910 582,859 608,796 608,723 608,648 583,586 532,535 482,483 420,457 346,457 Z"
   id="path10" />
  </g>
  <g
   id="bullet-char-template-8211"
   transform="scale(0.00048828125,-0.00048828125)">
   <path
   d="M -4,459 L 1135,459 1135,606 -4,606 -4,459 Z"
   id="path11" />
  </g>
  <g
   id="bullet-char-template-61548"
   transform="scale(0.00048828125,-0.00048828125)">
   <path
   d="M 173,740 C 173,903 231,1043 346,1159 462,1274 601,1332 765,1332 928,1332 1067,1274 1183,1159 1299,1043 1357,903 1357,740 1357,577 1299,437 1183,322 1067,206 928,148 765,148 601,148 462,206 346,322 231,437 173,577 173,740 Z"
   id="path12" />
  </g>
 </defs>
 
 <path
   id="path13"
   d="M 7073.0049 1999.9813 C 7069.3557 2000.1875 7063.2269 2000.6484 7059.5174 2000.8598 C 7058.0006 2000.9311 7056.5518 2000.9343 7055.0215 2001.0148 C 7050.3423 2001.2632 7045.7278 2001.6916 7041.0689 2001.9966 C 6572.1711 2029.0146 5656.6376 2094.7637 4906.0054 2186.9983 C 4141.0054 2280.9983 3343.9866 2440.9834 2927.9866 2557.9834 C 2922.5759 2559.5217 2917.5331 2561.8088 2912.5871 2564.2879 C 2798.3685 2603.3555 2715.926 2668.1847 2702.9874 2759.9866 C 2680.9874 2909.9866 2703.9786 3155.9994 2805.9786 3268.9994 C 2858.6082 3326.5122 2903.9257 3345.0997 2955.8919 3334.3184 C 2958.6004 3334.547 2961.318 3334.6986 2964.0051 3334.0084 C 3120.5575 3274.3325 3888.3931 3091.2077 4525.2535 2970.9297 C 4526.2801 2980.6413 4527.477 2990.3281 4528.8191 3000.0236 C 4563.4177 3337.1917 4664.2667 3793.5705 4667.0019 4450.0126 C 4672.4896 5107.6152 4642.448 5668.4175 4646.383 6045.1607 C 4540.1367 6064.5021 4444.7751 6083.7775 4367.0202 6101.6947 C 4354.8283 6104.2385 4342.9036 6107.0125 4331.1568 6110.0146 C 4329.8665 6110.3283 4328.2998 6110.6838 4327.0227 6110.9965 C 4326.7431 6111.0679 4326.4744 6111.1802 4326.1958 6111.2548 C 4187.2913 6147.7268 4082.7266 6216.6655 4068.0204 6321.0095 C 4046.0204 6471.0095 4069.0115 6717.0223 4171.0115 6830.0223 C 4216.3901 6880.0791 4256.2918 6900.794 4299.7375 6898.5453 C 4302.4526 6899.0192 4305.203 6899.2773 4308.0057 6899.0104 C 4711.0057 6808.0104 5231.0023 6738.9823 5507.0023 6723.9823 C 5512.5011 6722.648 5518.2815 6719.6761 5524.1589 6715.9724 C 5563.2443 6703.4082 5606.698 6676.1109 5660.0162 6637.0109 C 5794.0162 6539.0109 5881.0213 6362.0005 5916.0213 6256.0005 C 6003.6617 6001.5605 5939.3719 5906.1647 5742.5435 5906.0477 C 5742.3472 5906.0502 5742.1726 5905.9912 5741.9751 5905.996 C 5741.4278 5906.0017 5740.7171 5906.0413 5740.1664 5906.0477 C 5728.8493 5906.0842 5717.1553 5906.3311 5704.9747 5906.9779 C 5703.5165 5907.0614 5702.0902 5907.1991 5700.6339 5907.288 C 5612.7081 5910.6546 5493.9837 5921.498 5359.9829 5937.4153 C 5368.699 5596.7881 5323.919 5162.312 5293.9921 4464.0169 C 5268.6297 3873.9195 5227.9975 3252.8776 5227.3811 2862.6676 C 5535.0282 2830.3646 5872.5501 2813.7677 6162.7762 2807.5289 C 6166.7269 2841.8475 6172.691 2876.0593 6180.708 2909.0731 C 6306.5647 3688.4544 6416.3242 5421.257 6461.0009 6424.0006 C 6506.0009 7434.0006 6362.9779 7926.0183 5271.9779 8123.0183 C 4180.9779 8320.0183 3151.9998 7566.0249 3473.9998 6491.0249 C 3475.5319 6484.5681 3476.3078 6478.2749 3476.7903 6472.1114 C 3517.5599 6278.591 3433.4537 6211.604 3235.9782 6221.9974 C 3010.6824 6234.8998 2809.1121 6310.8848 2785.5664 6457.6936 C 2354.5906 8005.1274 3563.831 9060.9388 5022.019 8864.9885 C 6488.019 8667.9885 7159.0092 7730.0043 7087.0092 6532.0043 C 7021.7571 5446.2814 6959.66 3889.5099 6886.0913 2805.3068 C 6922.4135 2791.2783 6962.6896 2765.4368 7010.9932 2730.0142 C 7143.9932 2632.0142 7231.9801 2454.9857 7267.9801 2349.9857 C 7358.0139 2087.6291 7287.8082 1994.9474 7076.3639 2000.188 C 7075.1905 2000.2104 7074.2033 1999.9179 7073.0049 1999.9813 z " />
   
  
</svg>
