<?xml version="1.0" encoding="UTF-8" standalone="no"?>
<svg
   version="1.2"
   width="100mm"
   height="100mm"
   viewBox="0 0 10000 10000"
   preserveAspectRatio="xMidYMid"
   fill-rule="evenodd"
   stroke-width="28.222"
   stroke-linejoin="round"
   xml:space="preserve"
   id="svg24"
   sodipodi:docname="gobo-caps-0170.svg"
   inkscape:version="1.4 (86a8ad7, 2024-10-11)"
   xmlns:inkscape="http://www.inkscape.org/namespaces/inkscape"
   xmlns:sodipodi="http://sodipodi.sourceforge.net/DTD/sodipodi-0.dtd"
   xmlns="http://www.w3.org/2000/svg"
   xmlns:svg="http://www.w3.org/2000/svg"
   xmlns:ooo="http://xml.openoffice.org/svg/export"><sodipodi:namedview
   id="namedview24"
   pagecolor="#ffffff"
   bordercolor="#000000"
   borderopacity="0.25"
   inkscape:showpageshadow="2"
   inkscape:pageopacity="0.0"
   inkscape:pagecheckerboard="0"
   inkscape:deskcolor="#d1d1d1"
   inkscape:document-units="mm"
   showgrid="false"
   inkscape:zoom="3.0876875"
   inkscape:cx="188.81444"
   inkscape:cy="188.97638"
   inkscape:window-width="2560"
   inkscape:window-height="1369"
   inkscape:window-x="-8"
   inkscape:window-y="-8"
   inkscape:window-maximized="1"
   inkscape:current-layer="svg24" />
 <defs
   class="ClipPathGroup"
   id="defs2">
  
  <clipPath
   id="presentation_clip_path_shrink"
   clipPathUnits="userSpaceOnUse">
   <rect
   x="10"
   y="10"
   width="9980"
   height="9980"
   id="rect2" />
  </clipPath>
 
  
 
   
  
    
   
     
    
      
      
      
      
      
      
      
      
      
     
       
      
       
      
       
      
       
      
       
      
       
      
       
      
       
      
       
      
        
        
       
        
        
       
        
        
       
        
        
       
        
        
       
        
        
       
        
        
       
        
        
       
        
        
       </defs>
 <defs
   class="TextShapeIndex"
   id="defs3">
  <g
   ooo:slide="id1"
   ooo:id-list="id3 id4 id5 id6 id7 id8 id9 id10 id11"
   id="g2" />
 </defs>
 <defs
   class="EmbeddedBulletChars"
   id="defs12">
  <g
   id="bullet-char-template-57356"
   transform="scale(0.00048828125,-0.00048828125)">
   <path
   d="M 580,1141 L 1163,571 580,0 -4,571 580,1141 Z"
   id="path3" />
  </g>
  <g
   id="bullet-char-template-57354"
   transform="scale(0.00048828125,-0.00048828125)">
   <path
   d="M 8,1128 L 1137,1128 1137,0 8,0 8,1128 Z"
   id="path4" />
  </g>
  <g
   id="bullet-char-template-10146"
   transform="scale(0.00048828125,-0.00048828125)">
   <path
   d="M 174,0 L 602,739 174,1481 1456,739 174,0 Z M 1358,739 L 309,1346 659,739 1358,739 Z"
   id="path5" />
  </g>
  <g
   id="bullet-char-template-10132"
   transform="scale(0.00048828125,-0.00048828125)">
   <path
   d="M 2015,739 L 1276,0 717,0 1260,543 174,543 174,936 1260,936 717,1481 1274,1481 2015,739 Z"
   id="path6" />
  </g>
  <g
   id="bullet-char-template-10007"
   transform="scale(0.00048828125,-0.00048828125)">
   <path
   d="M 0,-2 C -7,14 -16,27 -25,37 L 356,567 C 262,823 215,952 215,954 215,979 228,992 255,992 264,992 276,990 289,987 310,991 331,999 354,1012 L 381,999 492,748 772,1049 836,1024 860,1049 C 881,1039 901,1025 922,1006 886,937 835,863 770,784 769,783 710,716 594,584 L 774,223 C 774,196 753,168 711,139 L 727,119 C 717,90 699,76 672,76 641,76 570,178 457,381 L 164,-76 C 142,-110 111,-127 72,-127 30,-127 9,-110 8,-76 1,-67 -2,-52 -2,-32 -2,-23 -1,-13 0,-2 Z"
   id="path7" />
  </g>
  <g
   id="bullet-char-template-10004"
   transform="scale(0.00048828125,-0.00048828125)">
   <path
   d="M 285,-33 C 182,-33 111,30 74,156 52,228 41,333 41,471 41,549 55,616 82,672 116,743 169,778 240,778 293,778 328,747 346,684 L 369,508 C 377,444 397,411 428,410 L 1163,1116 C 1174,1127 1196,1133 1229,1133 1271,1133 1292,1118 1292,1087 L 1292,965 C 1292,929 1282,901 1262,881 L 442,47 C 390,-6 338,-33 285,-33 Z"
   id="path8" />
  </g>
  <g
   id="bullet-char-template-9679"
   transform="scale(0.00048828125,-0.00048828125)">
   <path
   d="M 813,0 C 632,0 489,54 383,161 276,268 223,411 223,592 223,773 276,916 383,1023 489,1130 632,1184 813,1184 992,1184 1136,1130 1245,1023 1353,916 1407,772 1407,592 1407,412 1353,268 1245,161 1136,54 992,0 813,0 Z"
   id="path9" />
  </g>
  <g
   id="bullet-char-template-8226"
   transform="scale(0.00048828125,-0.00048828125)">
   <path
   d="M 346,457 C 273,457 209,483 155,535 101,586 74,649 74,723 74,796 101,859 155,911 209,963 273,989 346,989 419,989 480,963 531,910 582,859 608,796 608,723 608,648 583,586 532,535 482,483 420,457 346,457 Z"
   id="path10" />
  </g>
  <g
   id="bullet-char-template-8211"
   transform="scale(0.00048828125,-0.00048828125)">
   <path
   d="M -4,459 L 1135,459 1135,606 -4,606 -4,459 Z"
   id="path11" />
  </g>
  <g
   id="bullet-char-template-61548"
   transform="scale(0.00048828125,-0.00048828125)">
   <path
   d="M 173,740 C 173,903 231,1043 346,1159 462,1274 601,1332 765,1332 928,1332 1067,1274 1183,1159 1299,1043 1357,903 1357,740 1357,577 1299,437 1183,322 1067,206 928,148 765,148 601,148 462,206 346,322 231,437 173,577 173,740 Z"
   id="path12" />
  </g>
 </defs>
 
 <path
   id="path13"
   d="M 6529.8339 600.7902 C 6516.8159 600.77897 6503.1971 601.16626 6489.0096 601.97876 C 6315.8048 611.17547 6155.6531 658.65521 6080.7657 747.80965 C 6075.6552 752.33781 6071.3161 757.66477 6068.0017 763.98437 C 6067.4776 765.00411 6066.7575 766.23628 6066.193 767.29166 C 6062.4594 772.97202 6059.0329 778.77701 6055.9611 784.75829 C 5959.3676 940.59859 5567.1776 1354.9368 5450.1582 1491.0718 C 5446.2561 1495.336 5442.4713 1499.8829 5438.6861 1504.4043 C 5435.4522 1508.2613 5429.5763 1514.806 5427.0072 1517.9952 C 5424.9263 1520.5784 5423.1313 1523.6054 5421.3228 1526.6252 C 5407.5254 1545.4766 5394.3877 1566.053 5381.997 1588.9986 C 5299.997 1739.9986 5313.0207 1951.0013 5375.0207 2053.0013 C 5430.6381 2144.5009 5548.9808 2118.4178 5656.5022 2055.7918 C 5827.5105 1970.3696 6515.5623 1337.7779 6608.0204 1145.9766 C 6608.1024 1145.8073 6608.146 1145.6292 6608.2271 1145.4598 C 6651.7332 1075.0772 6682.7847 1003.6131 6700.9863 950.01952 C 6788.1738 695.95702 6725.1049 600.95865 6529.8339 600.7902 z M 5203.8167 709.77579 C 5190.7986 709.76456 5177.1798 710.20353 5162.9923 711.01603 C 4989.7515 720.21466 4829.5642 767.65653 4754.6968 856.84692 C 4749.6085 861.36598 4745.2881 866.72263 4741.9844 873.02164 C 4741.5302 873.90559 4740.8671 874.95309 4740.3825 875.86384 C 4736.3866 881.91276 4732.7737 888.12807 4729.5304 894.51904 C 4632.1596 1050.9358 4240.9508 1464.2121 4124.141 1600.109 C 4120.1873 1604.4297 4116.3475 1609.0118 4112.5138 1613.5966 C 4109.3353 1617.3892 4103.5223 1623.8372 4100.99 1626.9808 C 4098.8427 1629.6464 4096.9561 1632.7392 4095.0988 1635.8691 C 4081.3688 1654.655 4068.316 1675.1394 4055.9798 1697.9842 C 3973.9798 1848.9842 3987.0035 2059.9869 4049.0035 2161.9869 C 4104.546 2253.3634 4222.6658 2227.4788 4330.0716 2165.0358 C 4500.2895 2080.537 5189.4607 1446.9902 5282.0031 1255.0138 C 5282.0708 1254.8742 5282.1428 1254.7402 5282.2098 1254.6004 C 5325.7588 1184.1753 5356.8078 1112.6321 5375.0207 1059.0051 C 5462.2082 804.94262 5399.0877 709.94425 5203.8167 709.77579 z M 6994.9735 2012.9521 C 6981.9005 2012.8791 6968.2441 2013.2356 6953.9941 2013.9856 C 6727.9941 2026.9856 6524.9957 2103.9891 6503.9957 2252.9891 C 6500.8505 2273.5013 6498.6699 2295.9279 6497.3295 2319.445 C 6497.312 2319.967 6497.0304 2320.473 6497.0194 2320.9953 C 6497.0517 2321.5591 6497.0904 2322.9618 6497.1228 2323.5274 C 6494.2151 2379.3365 6496.6709 2441.5283 6505.4427 2502.7413 C 6557.866 3512.4262 6653.9318 6202.5866 6631.9982 6790.0248 C 6607.9982 7407.0248 6393.0026 7745.9814 5376.0026 8050.9814 C 4358.0026 8355.9814 3359.9822 7727.9825 3380.9822 6592.9825 C 3401.6845 5474.073 3485.8963 3333.1548 3495.9623 2524.0836 C 3517.8181 2360.5515 3431.5845 2303.3241 3248.0188 2312.9854 C 3022.0188 2325.9854 2819.0204 2403.0224 2798.0204 2553.0224 C 2796.6699 2561.7714 2795.4814 2570.8846 2794.4547 2580.2559 C 2793.5449 2585.5934 2791.2364 2590.4711 2790.9924 2596.0172 C 2791.1478 2603.0006 2791.1529 2612.3939 2791.3025 2619.4783 C 2789.0504 2659.1495 2789.4825 2702.2079 2793.0595 2746.0339 C 2809.2111 3774.9824 2776.165 5653.1703 2758.0228 6904.023 C 2739.0228 8214.023 3681.9978 9008.9925 4988.9978 8841.9925 C 6296.9978 8674.9925 7209.9979 7715.0109 7229.9979 6805.0109 C 7249.9979 5895.0109 7244.0019 3457.977 7207.0019 2153.977 C 7204.7743 2132.8149 7198.5953 2114.7441 7189.7936 2098.89 C 7161.8077 2039.4251 7096.1655 2013.5171 6994.9735 2012.9521 z " />
   
  
</svg>
