<?xml version="1.0" encoding="UTF-8" standalone="no"?>
<svg
   version="1.2"
   width="100mm"
   height="100mm"
   viewBox="0 0 10000 10000"
   preserveAspectRatio="xMidYMid"
   fill-rule="evenodd"
   stroke-width="28.222"
   stroke-linejoin="round"
   xml:space="preserve"
   id="svg22"
   sodipodi:docname="gobo-caps-0151.svg"
   inkscape:version="1.4 (86a8ad7, 2024-10-11)"
   xmlns:inkscape="http://www.inkscape.org/namespaces/inkscape"
   xmlns:sodipodi="http://sodipodi.sourceforge.net/DTD/sodipodi-0.dtd"
   xmlns="http://www.w3.org/2000/svg"
   xmlns:svg="http://www.w3.org/2000/svg"
   xmlns:ooo="http://xml.openoffice.org/svg/export"><sodipodi:namedview
   id="namedview22"
   pagecolor="#ffffff"
   bordercolor="#000000"
   borderopacity="0.25"
   inkscape:showpageshadow="2"
   inkscape:pageopacity="0.0"
   inkscape:pagecheckerboard="0"
   inkscape:deskcolor="#d1d1d1"
   inkscape:document-units="mm"
   showgrid="false"
   inkscape:zoom="3.0876875"
   inkscape:cx="188.81444"
   inkscape:cy="188.97638"
   inkscape:window-width="2560"
   inkscape:window-height="1369"
   inkscape:window-x="-8"
   inkscape:window-y="-8"
   inkscape:window-maximized="1"
   inkscape:current-layer="svg22" />
 <defs
   class="ClipPathGroup"
   id="defs2">
  
  <clipPath
   id="presentation_clip_path_shrink"
   clipPathUnits="userSpaceOnUse">
   <rect
   x="10"
   y="10"
   width="9980"
   height="9980"
   id="rect2" />
  </clipPath>
 
  
 
   
  
    
   
     
    
      
      
      
      
      
      
      
     
       
      
       
      
       
      
       
      
       
      
       
      
       
      
        
        
       
        
        
       
        
        
       
        
        
       
        
        
       
        
        
       
        
        
       </defs>
 <defs
   class="TextShapeIndex"
   id="defs3">
  <g
   ooo:slide="id1"
   ooo:id-list="id3 id4 id5 id6 id7 id8 id9"
   id="g2" />
 </defs>
 <defs
   class="EmbeddedBulletChars"
   id="defs12">
  <g
   id="bullet-char-template-57356"
   transform="scale(0.00048828125,-0.00048828125)">
   <path
   d="M 580,1141 L 1163,571 580,0 -4,571 580,1141 Z"
   id="path3" />
  </g>
  <g
   id="bullet-char-template-57354"
   transform="scale(0.00048828125,-0.00048828125)">
   <path
   d="M 8,1128 L 1137,1128 1137,0 8,0 8,1128 Z"
   id="path4" />
  </g>
  <g
   id="bullet-char-template-10146"
   transform="scale(0.00048828125,-0.00048828125)">
   <path
   d="M 174,0 L 602,739 174,1481 1456,739 174,0 Z M 1358,739 L 309,1346 659,739 1358,739 Z"
   id="path5" />
  </g>
  <g
   id="bullet-char-template-10132"
   transform="scale(0.00048828125,-0.00048828125)">
   <path
   d="M 2015,739 L 1276,0 717,0 1260,543 174,543 174,936 1260,936 717,1481 1274,1481 2015,739 Z"
   id="path6" />
  </g>
  <g
   id="bullet-char-template-10007"
   transform="scale(0.00048828125,-0.00048828125)">
   <path
   d="M 0,-2 C -7,14 -16,27 -25,37 L 356,567 C 262,823 215,952 215,954 215,979 228,992 255,992 264,992 276,990 289,987 310,991 331,999 354,1012 L 381,999 492,748 772,1049 836,1024 860,1049 C 881,1039 901,1025 922,1006 886,937 835,863 770,784 769,783 710,716 594,584 L 774,223 C 774,196 753,168 711,139 L 727,119 C 717,90 699,76 672,76 641,76 570,178 457,381 L 164,-76 C 142,-110 111,-127 72,-127 30,-127 9,-110 8,-76 1,-67 -2,-52 -2,-32 -2,-23 -1,-13 0,-2 Z"
   id="path7" />
  </g>
  <g
   id="bullet-char-template-10004"
   transform="scale(0.00048828125,-0.00048828125)">
   <path
   d="M 285,-33 C 182,-33 111,30 74,156 52,228 41,333 41,471 41,549 55,616 82,672 116,743 169,778 240,778 293,778 328,747 346,684 L 369,508 C 377,444 397,411 428,410 L 1163,1116 C 1174,1127 1196,1133 1229,1133 1271,1133 1292,1118 1292,1087 L 1292,965 C 1292,929 1282,901 1262,881 L 442,47 C 390,-6 338,-33 285,-33 Z"
   id="path8" />
  </g>
  <g
   id="bullet-char-template-9679"
   transform="scale(0.00048828125,-0.00048828125)">
   <path
   d="M 813,0 C 632,0 489,54 383,161 276,268 223,411 223,592 223,773 276,916 383,1023 489,1130 632,1184 813,1184 992,1184 1136,1130 1245,1023 1353,916 1407,772 1407,592 1407,412 1353,268 1245,161 1136,54 992,0 813,0 Z"
   id="path9" />
  </g>
  <g
   id="bullet-char-template-8226"
   transform="scale(0.00048828125,-0.00048828125)">
   <path
   d="M 346,457 C 273,457 209,483 155,535 101,586 74,649 74,723 74,796 101,859 155,911 209,963 273,989 346,989 419,989 480,963 531,910 582,859 608,796 608,723 608,648 583,586 532,535 482,483 420,457 346,457 Z"
   id="path10" />
  </g>
  <g
   id="bullet-char-template-8211"
   transform="scale(0.00048828125,-0.00048828125)">
   <path
   d="M -4,459 L 1135,459 1135,606 -4,606 -4,459 Z"
   id="path11" />
  </g>
  <g
   id="bullet-char-template-61548"
   transform="scale(0.00048828125,-0.00048828125)">
   <path
   d="M 173,740 C 173,903 231,1043 346,1159 462,1274 601,1332 765,1332 928,1332 1067,1274 1183,1159 1299,1043 1357,903 1357,740 1357,577 1299,437 1183,322 1067,206 928,148 765,148 601,148 462,206 346,322 231,437 173,577 173,740 Z"
   id="path12" />
  </g>
 </defs>
 
 <path
   id="path13"
   d="M 6630.8097 1400.793 C 6617.7916 1400.7818 6604.1728 1401.1691 6589.9853 1401.9816 C 6416.7805 1411.1783 6256.6289 1458.6581 6181.7415 1547.8125 C 6176.631 1552.3407 6172.2919 1557.6676 6168.9774 1563.9872 C 6168.4526 1565.0085 6167.7341 1566.2374 6167.1687 1567.2945 C 6163.35 1573.1049 6159.8561 1579.0493 6156.7301 1585.1745 C 6059.7481 1741.2572 5668.481 2154.6353 5551.3407 2290.8679 C 5547.1772 2295.4109 5543.124 2300.2433 5539.0934 2305.0789 C 5536.05 2308.7143 5530.4248 2314.9668 5527.9829 2317.998 C 5525.902 2320.5812 5524.107 2323.6083 5522.2985 2326.628 C 5508.5011 2345.4795 5495.4151 2366.0558 5483.0245 2389.0014 C 5401.0245 2540.0014 5413.9965 2751.0041 5475.9965 2853.0041 C 5531.5839 2944.4544 5649.8479 2918.4506 5757.323 2855.898 C 5927.9804 2770.8858 6616.5005 2137.8585 6708.9961 1945.9794 C 6709.0371 1945.8948 6709.0587 1945.8057 6709.0995 1945.721 C 6752.6883 1875.2563 6783.7902 1803.6805 6802.0137 1750.0224 C 6889.2012 1495.9599 6826.0807 1400.9615 6630.8097 1400.793 z M 5304.7924 1509.7786 C 5291.7744 1509.7674 5278.2072 1510.2064 5264.0197 1511.0189 C 5090.8424 1520.2141 4930.6785 1567.6193 4855.7759 1656.7464 C 4850.6412 1661.2845 4846.3381 1666.6824 4843.0118 1673.0245 C 4842.5583 1673.9071 4841.8938 1674.9573 4841.4099 1675.8667 C 4837.4996 1681.7856 4833.9546 1687.862 4830.7645 1694.1085 C 4733.7809 1850.284 4341.6497 2264.5202 4224.9617 2400.3186 C 4221.3112 2404.314 4217.761 2408.5519 4214.213 2412.7726 C 4210.8011 2416.8362 4204.7036 2423.6491 4202.0174 2426.9836 C 4199.7249 2429.8295 4197.6751 2433.118 4195.7129 2436.4921 C 4182.1456 2455.1185 4169.2117 2475.3862 4157.0072 2497.987 C 4075.0072 2648.987 4087.9792 2859.9897 4149.9792 2961.9897 C 4205.5218 3053.3662 4323.6416 3027.4817 4431.0473 2965.0386 C 4601.2653 2880.5398 5290.4364 2246.9931 5382.9789 2055.0167 C 5383.0436 2054.8832 5383.0698 2054.7369 5383.1339 2054.6033 C 5426.6912 1984.1699 5457.7813 1912.6415 5475.9965 1859.008 C 5563.184 1604.9455 5500.0634 1509.9471 5304.7924 1509.7786 z M 5434.8103 3131.9018 C 5353.438 3131.8166 5270.1315 3136.101 5185.0065 3144.976 C 3821.0065 3287.976 2601.9969 4470.9923 2505.9969 5797.9923 C 2410.9969 7125.9923 3038.0205 8194.9995 4871.0205 8049.9995 C 6705.0205 7905.9995 7561.9891 6653.9967 7500.9891 5344.9967 C 7443.8016 4117.8092 6655.3951 3133.1799 5434.8103 3131.9018 z M 5216.1674 3862.5032 C 6053.9701 3842.5411 6832.4479 4671.0083 6899.0104 5706.0083 C 6969.0104 6809.0083 5860.0122 7317.9776 4880.0122 7307.9776 C 3900.0122 7296.9776 3007.9855 6843.0043 3115.9855 5729.0043 C 3222.9855 4616.0043 4149.0122 4023.0062 5048.0122 3878.0062 C 5104.1997 3868.9437 5160.3138 3863.834 5216.1674 3862.5032 z " />
   
  
</svg>
