<?xml version="1.0" encoding="UTF-8" standalone="no"?>
<svg
   version="1.2"
   width="100mm"
   height="100mm"
   viewBox="0 0 10000 10000"
   preserveAspectRatio="xMidYMid"
   fill-rule="evenodd"
   stroke-width="28.222"
   stroke-linejoin="round"
   xml:space="preserve"
   id="svg24"
   sodipodi:docname="gobo-caps-0137.svg"
   inkscape:version="1.4 (86a8ad7, 2024-10-11)"
   xmlns:inkscape="http://www.inkscape.org/namespaces/inkscape"
   xmlns:sodipodi="http://sodipodi.sourceforge.net/DTD/sodipodi-0.dtd"
   xmlns="http://www.w3.org/2000/svg"
   xmlns:svg="http://www.w3.org/2000/svg"
   xmlns:ooo="http://xml.openoffice.org/svg/export"><sodipodi:namedview
   id="namedview24"
   pagecolor="#ffffff"
   bordercolor="#000000"
   borderopacity="0.25"
   inkscape:showpageshadow="2"
   inkscape:pageopacity="0.0"
   inkscape:pagecheckerboard="0"
   inkscape:deskcolor="#d1d1d1"
   inkscape:document-units="mm"
   showgrid="false"
   inkscape:zoom="3.0876875"
   inkscape:cx="188.81444"
   inkscape:cy="188.97638"
   inkscape:window-width="2560"
   inkscape:window-height="1369"
   inkscape:window-x="-8"
   inkscape:window-y="-8"
   inkscape:window-maximized="1"
   inkscape:current-layer="svg24" />
 <defs
   class="ClipPathGroup"
   id="defs2">
  
  <clipPath
   id="presentation_clip_path_shrink"
   clipPathUnits="userSpaceOnUse">
   <rect
   x="10"
   y="10"
   width="9980"
   height="9980"
   id="rect2" />
  </clipPath>
 
  
 
   
  
    
   
     
    
      
      
      
      
      
      
      
      
      
     
       
      
       
      
       
      
       
      
       
      
       
      
       
      
       
      
       
      
        
        
       
        
        
       
        
        
       
        
        
       
        
        
       
        
        
       
        
        
       
        
        
       
        
        
       </defs>
 <defs
   class="TextShapeIndex"
   id="defs3">
  <g
   ooo:slide="id1"
   ooo:id-list="id3 id4 id5 id6 id7 id8 id9 id10 id11"
   id="g2" />
 </defs>
 <defs
   class="EmbeddedBulletChars"
   id="defs12">
  <g
   id="bullet-char-template-57356"
   transform="scale(0.00048828125,-0.00048828125)">
   <path
   d="M 580,1141 L 1163,571 580,0 -4,571 580,1141 Z"
   id="path3" />
  </g>
  <g
   id="bullet-char-template-57354"
   transform="scale(0.00048828125,-0.00048828125)">
   <path
   d="M 8,1128 L 1137,1128 1137,0 8,0 8,1128 Z"
   id="path4" />
  </g>
  <g
   id="bullet-char-template-10146"
   transform="scale(0.00048828125,-0.00048828125)">
   <path
   d="M 174,0 L 602,739 174,1481 1456,739 174,0 Z M 1358,739 L 309,1346 659,739 1358,739 Z"
   id="path5" />
  </g>
  <g
   id="bullet-char-template-10132"
   transform="scale(0.00048828125,-0.00048828125)">
   <path
   d="M 2015,739 L 1276,0 717,0 1260,543 174,543 174,936 1260,936 717,1481 1274,1481 2015,739 Z"
   id="path6" />
  </g>
  <g
   id="bullet-char-template-10007"
   transform="scale(0.00048828125,-0.00048828125)">
   <path
   d="M 0,-2 C -7,14 -16,27 -25,37 L 356,567 C 262,823 215,952 215,954 215,979 228,992 255,992 264,992 276,990 289,987 310,991 331,999 354,1012 L 381,999 492,748 772,1049 836,1024 860,1049 C 881,1039 901,1025 922,1006 886,937 835,863 770,784 769,783 710,716 594,584 L 774,223 C 774,196 753,168 711,139 L 727,119 C 717,90 699,76 672,76 641,76 570,178 457,381 L 164,-76 C 142,-110 111,-127 72,-127 30,-127 9,-110 8,-76 1,-67 -2,-52 -2,-32 -2,-23 -1,-13 0,-2 Z"
   id="path7" />
  </g>
  <g
   id="bullet-char-template-10004"
   transform="scale(0.00048828125,-0.00048828125)">
   <path
   d="M 285,-33 C 182,-33 111,30 74,156 52,228 41,333 41,471 41,549 55,616 82,672 116,743 169,778 240,778 293,778 328,747 346,684 L 369,508 C 377,444 397,411 428,410 L 1163,1116 C 1174,1127 1196,1133 1229,1133 1271,1133 1292,1118 1292,1087 L 1292,965 C 1292,929 1282,901 1262,881 L 442,47 C 390,-6 338,-33 285,-33 Z"
   id="path8" />
  </g>
  <g
   id="bullet-char-template-9679"
   transform="scale(0.00048828125,-0.00048828125)">
   <path
   d="M 813,0 C 632,0 489,54 383,161 276,268 223,411 223,592 223,773 276,916 383,1023 489,1130 632,1184 813,1184 992,1184 1136,1130 1245,1023 1353,916 1407,772 1407,592 1407,412 1353,268 1245,161 1136,54 992,0 813,0 Z"
   id="path9" />
  </g>
  <g
   id="bullet-char-template-8226"
   transform="scale(0.00048828125,-0.00048828125)">
   <path
   d="M 346,457 C 273,457 209,483 155,535 101,586 74,649 74,723 74,796 101,859 155,911 209,963 273,989 346,989 419,989 480,963 531,910 582,859 608,796 608,723 608,648 583,586 532,535 482,483 420,457 346,457 Z"
   id="path10" />
  </g>
  <g
   id="bullet-char-template-8211"
   transform="scale(0.00048828125,-0.00048828125)">
   <path
   d="M -4,459 L 1135,459 1135,606 -4,606 -4,459 Z"
   id="path11" />
  </g>
  <g
   id="bullet-char-template-61548"
   transform="scale(0.00048828125,-0.00048828125)">
   <path
   d="M 173,740 C 173,903 231,1043 346,1159 462,1274 601,1332 765,1332 928,1332 1067,1274 1183,1159 1299,1043 1357,903 1357,740 1357,577 1299,437 1183,322 1067,206 928,148 765,148 601,148 462,206 346,322 231,437 173,577 173,740 Z"
   id="path12" />
  </g>
 </defs>
 
 <path
   id="path13"
   d="M 6495.9859 3040.9513 C 6482.9129 3040.8781 6469.2565 3041.2348 6455.0065 3041.9848 C 6302.8691 3050.7361 6161.2279 3088.5484 6078.4403 3158.0501 C 6069.239 3163.5922 6060.6492 3170.6464 6053.0155 3180.0126 C 5752.0155 3550.0126 5771.9837 3593.0023 5134.9837 4237.0023 C 4499.9837 4877.0023 4299.9764 4993.9856 3984.9764 5356.9856 C 3957.8967 5388.1058 3932.987 5422.8356 3909.1154 5458.9432 C 3908.8077 4698.4426 3994.1623 3845.2071 4027.9712 3484.2834 C 4053.4206 3315.2104 3967.646 3256.3642 3783.0249 3266.984 C 3557.276 3278.9179 3354.3101 3356.1582 3331.4245 3503.5587 C 3331.3477 3504.0381 3331.0551 3504.5263 3331.0111 3505.0057 C 3330.981 3505.4344 3330.9379 3506.2807 3330.9078 3506.711 C 3325.1502 3546.0358 3322.61 3592.1069 3323.7247 3640.6563 C 3301.6942 4032.4291 3279.1062 4758.8552 3280.0065 5407.9903 C 3286.6334 6087.7263 3336.9739 7303.2459 3352.7152 7753.4802 C 3346.8025 7900.0886 3376.6947 8087.4642 3462.0109 8181.9811 C 3559.0109 8287.9811 3631.0233 8262.0159 3766.0233 8163.0159 C 3900.0233 8066.0159 3987.0102 7888.0056 4023.0102 7782.0056 C 4044.9341 7718.5914 4057.2311 7665.1809 4060.424 7620.5684 C 4060.9116 7619.0576 4061.7209 7617.4743 4061.9743 7616.0209 C 4068.6991 7416.7198 4019.7769 7067.5909 3975.6746 6636.1324 C 4006.4641 6657.6325 4039.974 6677.1873 4077.0121 6694.01 C 4984.0121 7106.01 6048.0208 7790.9995 6178.0208 7881.9995 C 6184.8872 7886.8217 6193.2301 7888.8822 6202.4121 7889.3892 C 6263.2787 7907.4119 6325.7626 7873.9422 6417.0243 7807.0169 C 6551.0243 7710.0169 6638.0112 7532.9885 6674.0112 7426.9885 C 6736.2362 7244.3716 6721.0478 7143.736 6634.2203 7101.3753 C 6629.3063 7097.8132 6624.5882 7094.0883 6618.9758 7090.9883 C 6340.9758 6936.9883 4790.988 6180.9773 4513.988 6000.9773 C 4237.988 5822.9773 4315.9839 5784.9868 5003.9839 5168.9868 C 5686.9839 4549.9868 6113.0237 4133.0002 6511.0237 3679.0002 C 6513.4238 3675.5264 6515.2485 3671.7089 6517.1732 3667.9415 C 6591.8248 3575.1485 6642.6415 3465.7232 6668.0167 3391.0075 C 6755.2042 3137.8825 6692.0808 3042.0499 6495.9859 3040.9513 z M 4986.8274 7623.7723 C 4973.8093 7623.7611 4960.1905 7624.2001 4946.003 7625.0126 C 4720.003 7637.0126 4516.0228 7714.0161 4495.0228 7864.0161 C 4491.1209 7889.293 4488.6178 7917.473 4487.5297 7947.2151 C 4467.5797 8162.8679 4344.1202 8593.691 4216.4351 8864.9369 C 4206.7773 8882.9493 4200.0686 8902.2709 4197.0048 8923.0212 C 4175.0048 9072.0212 4197.9778 9317.9823 4300.9778 9431.9823 C 4396.9778 9537.9823 4470.0083 9512.0171 4604.0083 9413.0171 C 4668.6232 9365.7615 4722.2056 9300.1001 4764.5153 9232.9247 C 4935.4696 8987.9392 5187.1088 8075.1401 5196.0136 7807.9988 C 5196.07 7806.3042 5195.9613 7804.6979 5195.9619 7803.0379 C 5202.2997 7675.1857 5130.2339 7623.896 4986.8274 7623.7723 z " />
   
  
</svg>
