<?xml version="1.0" encoding="UTF-8" standalone="no"?>
<svg
   version="1.2"
   width="100mm"
   height="100mm"
   viewBox="0 0 10000 10000"
   preserveAspectRatio="xMidYMid"
   fill-rule="evenodd"
   stroke-width="28.222"
   stroke-linejoin="round"
   xml:space="preserve"
   id="svg26"
   sodipodi:docname="gobo-caps-0155.svg"
   inkscape:version="1.4 (86a8ad7, 2024-10-11)"
   xmlns:inkscape="http://www.inkscape.org/namespaces/inkscape"
   xmlns:sodipodi="http://sodipodi.sourceforge.net/DTD/sodipodi-0.dtd"
   xmlns="http://www.w3.org/2000/svg"
   xmlns:svg="http://www.w3.org/2000/svg"
   xmlns:ooo="http://xml.openoffice.org/svg/export"><sodipodi:namedview
   id="namedview26"
   pagecolor="#ffffff"
   bordercolor="#000000"
   borderopacity="0.25"
   inkscape:showpageshadow="2"
   inkscape:pageopacity="0.0"
   inkscape:pagecheckerboard="0"
   inkscape:deskcolor="#d1d1d1"
   inkscape:document-units="mm"
   showgrid="false"
   inkscape:zoom="3.0876875"
   inkscape:cx="188.81444"
   inkscape:cy="188.97638"
   inkscape:window-width="2560"
   inkscape:window-height="1369"
   inkscape:window-x="-8"
   inkscape:window-y="-8"
   inkscape:window-maximized="1"
   inkscape:current-layer="svg26" />
 <defs
   class="ClipPathGroup"
   id="defs2">
  
  <clipPath
   id="presentation_clip_path_shrink"
   clipPathUnits="userSpaceOnUse">
   <rect
   x="10"
   y="10"
   width="9980"
   height="9980"
   id="rect2" />
  </clipPath>
 
  
 
   
  
    
   
     
    
      
      
      
      
      
      
      
      
      
      
      
     
       
      
       
      
       
      
       
      
       
      
       
      
       
      
       
      
       
      
       
      
       
      
        
        
       
        
        
       
        
        
       
        
        
       
        
        
       
        
        
       
        
        
       
        
        
       
        
        
       
        
        
       
        
        
       </defs>
 <defs
   class="TextShapeIndex"
   id="defs3">
  <g
   ooo:slide="id1"
   ooo:id-list="id3 id4 id5 id6 id7 id8 id9 id10 id11 id12 id13"
   id="g2" />
 </defs>
 <defs
   class="EmbeddedBulletChars"
   id="defs12">
  <g
   id="bullet-char-template-57356"
   transform="scale(0.00048828125,-0.00048828125)">
   <path
   d="M 580,1141 L 1163,571 580,0 -4,571 580,1141 Z"
   id="path3" />
  </g>
  <g
   id="bullet-char-template-57354"
   transform="scale(0.00048828125,-0.00048828125)">
   <path
   d="M 8,1128 L 1137,1128 1137,0 8,0 8,1128 Z"
   id="path4" />
  </g>
  <g
   id="bullet-char-template-10146"
   transform="scale(0.00048828125,-0.00048828125)">
   <path
   d="M 174,0 L 602,739 174,1481 1456,739 174,0 Z M 1358,739 L 309,1346 659,739 1358,739 Z"
   id="path5" />
  </g>
  <g
   id="bullet-char-template-10132"
   transform="scale(0.00048828125,-0.00048828125)">
   <path
   d="M 2015,739 L 1276,0 717,0 1260,543 174,543 174,936 1260,936 717,1481 1274,1481 2015,739 Z"
   id="path6" />
  </g>
  <g
   id="bullet-char-template-10007"
   transform="scale(0.00048828125,-0.00048828125)">
   <path
   d="M 0,-2 C -7,14 -16,27 -25,37 L 356,567 C 262,823 215,952 215,954 215,979 228,992 255,992 264,992 276,990 289,987 310,991 331,999 354,1012 L 381,999 492,748 772,1049 836,1024 860,1049 C 881,1039 901,1025 922,1006 886,937 835,863 770,784 769,783 710,716 594,584 L 774,223 C 774,196 753,168 711,139 L 727,119 C 717,90 699,76 672,76 641,76 570,178 457,381 L 164,-76 C 142,-110 111,-127 72,-127 30,-127 9,-110 8,-76 1,-67 -2,-52 -2,-32 -2,-23 -1,-13 0,-2 Z"
   id="path7" />
  </g>
  <g
   id="bullet-char-template-10004"
   transform="scale(0.00048828125,-0.00048828125)">
   <path
   d="M 285,-33 C 182,-33 111,30 74,156 52,228 41,333 41,471 41,549 55,616 82,672 116,743 169,778 240,778 293,778 328,747 346,684 L 369,508 C 377,444 397,411 428,410 L 1163,1116 C 1174,1127 1196,1133 1229,1133 1271,1133 1292,1118 1292,1087 L 1292,965 C 1292,929 1282,901 1262,881 L 442,47 C 390,-6 338,-33 285,-33 Z"
   id="path8" />
  </g>
  <g
   id="bullet-char-template-9679"
   transform="scale(0.00048828125,-0.00048828125)">
   <path
   d="M 813,0 C 632,0 489,54 383,161 276,268 223,411 223,592 223,773 276,916 383,1023 489,1130 632,1184 813,1184 992,1184 1136,1130 1245,1023 1353,916 1407,772 1407,592 1407,412 1353,268 1245,161 1136,54 992,0 813,0 Z"
   id="path9" />
  </g>
  <g
   id="bullet-char-template-8226"
   transform="scale(0.00048828125,-0.00048828125)">
   <path
   d="M 346,457 C 273,457 209,483 155,535 101,586 74,649 74,723 74,796 101,859 155,911 209,963 273,989 346,989 419,989 480,963 531,910 582,859 608,796 608,723 608,648 583,586 532,535 482,483 420,457 346,457 Z"
   id="path10" />
  </g>
  <g
   id="bullet-char-template-8211"
   transform="scale(0.00048828125,-0.00048828125)">
   <path
   d="M -4,459 L 1135,459 1135,606 -4,606 -4,459 Z"
   id="path11" />
  </g>
  <g
   id="bullet-char-template-61548"
   transform="scale(0.00048828125,-0.00048828125)">
   <path
   d="M 173,740 C 173,903 231,1043 346,1159 462,1274 601,1332 765,1332 928,1332 1067,1274 1183,1159 1299,1043 1357,903 1357,740 1357,577 1299,437 1183,322 1067,206 928,148 765,148 601,148 462,206 346,322 231,437 173,577 173,740 Z"
   id="path12" />
  </g>
 </defs>
 
 <path
   id="path13"
   d="M 5687.8182 1400.793 C 5674.8001 1400.7818 5661.1813 1401.1691 5646.9938 1401.9816 C 5473.789 1411.1783 5313.6373 1458.6581 5238.75 1547.8125 C 5233.6394 1552.3407 5229.3004 1557.6676 5225.9859 1563.9872 C 5225.436 1565.0572 5224.6682 1566.3403 5224.0739 1567.4495 C 5220.4149 1573.0284 5217.0699 1578.7373 5214.0486 1584.6061 C 5117.6716 1740.2445 4725.6307 2154.471 4608.3492 2290.8679 C 4604.1857 2295.4109 4600.1325 2300.2433 4596.1019 2305.0789 C 4593.0585 2308.7143 4587.4333 2314.9668 4584.9914 2317.998 C 4582.9105 2320.5812 4581.1155 2323.6083 4579.307 2326.628 C 4565.5096 2345.4795 4552.3719 2366.0558 4539.9812 2389.0014 C 4457.9812 2540.0014 4471.0049 2751.0041 4533.0049 2853.0041 C 4588.5923 2944.4544 4706.8564 2918.4506 4814.3314 2855.898 C 4984.9889 2770.8858 5673.509 2137.8585 5766.0046 1945.9794 C 5766.0456 1945.8948 5766.0672 1945.8057 5766.1079 1945.721 C 5809.6961 1875.257 5840.7988 1803.6799 5859.0222 1750.0224 C 5946.2097 1495.9599 5883.0891 1400.9615 5687.8182 1400.793 z M 5074.9357 3144.5109 C 4573.1991 3150.3464 3989.2142 3228.7968 3349.3046 3361.0351 C 3328.7923 3364.4846 3308.8469 3368.6149 3289.4116 3373.2824 C 3286.5818 3373.8789 3283.8203 3374.3893 3280.9883 3374.9878 C 3269.5282 3376.6779 3258.7634 3380.1787 3248.2772 3384.3929 C 3121.9838 3422.3797 3028.819 3489.0362 3015.0097 3587.0162 C 2993.0097 3737.0162 3016.0009 3982.9773 3118.0009 4095.9773 C 3160.6908 4143.0683 3198.5202 4164.2399 3239.0271 4164.707 C 3253.716 4166.4775 3269.3497 4165.4226 3286.001 4160.9863 C 3305.1599 4155.8613 3324.4349 4151.5663 3343.6202 4146.5686 C 3420.0311 4597.3965 3438.2287 5267.4303 3442.0121 5851.0123 C 3445.989 6464.443 3271.2381 7553.4904 3317.3685 7817.6623 C 3326.0749 7940.1213 3358.8745 8069.1003 3425.0106 8143.0171 C 3522.0106 8249.0171 3594.0049 8223.0002 3730.0049 8124.0002 C 3863.0049 8026.0002 3950.0099 7848.9898 3986.0099 7742.9898 C 4001.2939 7698.7812 4011.8575 7659.4628 4017.9976 7624.4958 C 4019.3871 7616.5829 4020.5328 7608.9078 4021.4599 7601.4481 C 4021.9119 7597.9385 4022.6693 7594.5645 4023.0102 7591.0095 C 4049.2852 7324.6101 4065.2803 6977.2994 4067.8137 6453.3011 C 4312.1937 6451.5951 4481.4739 6548.6103 4695.9924 6682.021 C 5506.1473 7185.1397 6010.5054 7593.5483 6427.4112 7828.566 C 6445.9062 7843.4521 6463.8242 7853.3683 6481.8782 7858.7967 C 6482.5775 7859.1717 6483.2981 7859.6114 6483.9969 7859.9853 C 6493.9788 7865.2948 6506.0971 7866.1385 6519.602 7863.7577 C 6569.6065 7862.2569 6624.1263 7830.4389 6697.0072 7776.9929 C 6831.0072 7678.9929 6918.0122 7501.9826 6953.0122 7395.9826 C 7006.4459 7240.8526 7003.3094 7144.9361 6948.2063 7093.5721 C 6938.9121 7082.1894 6927.4288 7072.4365 6913.0147 7064.9951 C 6431.0147 6816.9951 5997.9753 6520.9812 5610.9753 6276.9812 C 5555.1921 6242.2239 5493.4678 6202.0045 5428.5575 6159.8824 C 6472.4344 5861.0727 6921.2249 5416.2368 6928.9827 4442.9846 C 6936.5452 3492.8596 6218.1434 3131.2147 5074.9357 3144.5109 z M 4981.6597 3908.4953 C 5725.8934 3911.6994 6275.6619 4128.67 6302.9744 4687.9825 C 6344.5144 5578.2594 5143.7738 5522.2415 4062.6977 5657.8975 C 4051.7977 4938.9102 4033.8856 4428.8625 4038.8232 3996.0351 C 4369.6587 3939.6041 4690.6733 3907.2425 4981.6597 3908.4953 z " />
   
  
</svg>
