<?xml version="1.0" encoding="UTF-8" standalone="no"?>
<svg
   version="1.2"
   width="100mm"
   height="100mm"
   viewBox="0 0 10000 10000"
   preserveAspectRatio="xMidYMid"
   fill-rule="evenodd"
   stroke-width="28.222"
   stroke-linejoin="round"
   xml:space="preserve"
   id="svg25"
   sodipodi:docname="gobo-caps-017A.svg"
   inkscape:version="1.4 (86a8ad7, 2024-10-11)"
   xmlns:inkscape="http://www.inkscape.org/namespaces/inkscape"
   xmlns:sodipodi="http://sodipodi.sourceforge.net/DTD/sodipodi-0.dtd"
   xmlns="http://www.w3.org/2000/svg"
   xmlns:svg="http://www.w3.org/2000/svg"
   xmlns:ooo="http://xml.openoffice.org/svg/export"><sodipodi:namedview
   id="namedview25"
   pagecolor="#ffffff"
   bordercolor="#000000"
   borderopacity="0.25"
   inkscape:showpageshadow="2"
   inkscape:pageopacity="0.0"
   inkscape:pagecheckerboard="0"
   inkscape:deskcolor="#d1d1d1"
   inkscape:document-units="mm"
   showgrid="false"
   inkscape:zoom="3.0876875"
   inkscape:cx="188.81444"
   inkscape:cy="188.97638"
   inkscape:window-width="2560"
   inkscape:window-height="1369"
   inkscape:window-x="-8"
   inkscape:window-y="-8"
   inkscape:window-maximized="1"
   inkscape:current-layer="svg25" />
 <defs
   class="ClipPathGroup"
   id="defs2">
  
  <clipPath
   id="presentation_clip_path_shrink"
   clipPathUnits="userSpaceOnUse">
   <rect
   x="10"
   y="10"
   width="9980"
   height="9980"
   id="rect2" />
  </clipPath>
 
  
 
   
  
    
   
     
    
      
      
      
      
      
      
      
      
      
      
     
       
      
       
      
       
      
       
      
       
      
       
      
       
      
       
      
       
      
       
      
        
        
       
        
        
       
        
        
       
        
        
       
        
        
       
        
        
       
        
        
       
        
        
       
        
        
       
        
        
       </defs>
 <defs
   class="TextShapeIndex"
   id="defs3">
  <g
   ooo:slide="id1"
   ooo:id-list="id3 id4 id5 id6 id7 id8 id9 id10 id11 id12"
   id="g2" />
 </defs>
 <defs
   class="EmbeddedBulletChars"
   id="defs12">
  <g
   id="bullet-char-template-57356"
   transform="scale(0.00048828125,-0.00048828125)">
   <path
   d="M 580,1141 L 1163,571 580,0 -4,571 580,1141 Z"
   id="path3" />
  </g>
  <g
   id="bullet-char-template-57354"
   transform="scale(0.00048828125,-0.00048828125)">
   <path
   d="M 8,1128 L 1137,1128 1137,0 8,0 8,1128 Z"
   id="path4" />
  </g>
  <g
   id="bullet-char-template-10146"
   transform="scale(0.00048828125,-0.00048828125)">
   <path
   d="M 174,0 L 602,739 174,1481 1456,739 174,0 Z M 1358,739 L 309,1346 659,739 1358,739 Z"
   id="path5" />
  </g>
  <g
   id="bullet-char-template-10132"
   transform="scale(0.00048828125,-0.00048828125)">
   <path
   d="M 2015,739 L 1276,0 717,0 1260,543 174,543 174,936 1260,936 717,1481 1274,1481 2015,739 Z"
   id="path6" />
  </g>
  <g
   id="bullet-char-template-10007"
   transform="scale(0.00048828125,-0.00048828125)">
   <path
   d="M 0,-2 C -7,14 -16,27 -25,37 L 356,567 C 262,823 215,952 215,954 215,979 228,992 255,992 264,992 276,990 289,987 310,991 331,999 354,1012 L 381,999 492,748 772,1049 836,1024 860,1049 C 881,1039 901,1025 922,1006 886,937 835,863 770,784 769,783 710,716 594,584 L 774,223 C 774,196 753,168 711,139 L 727,119 C 717,90 699,76 672,76 641,76 570,178 457,381 L 164,-76 C 142,-110 111,-127 72,-127 30,-127 9,-110 8,-76 1,-67 -2,-52 -2,-32 -2,-23 -1,-13 0,-2 Z"
   id="path7" />
  </g>
  <g
   id="bullet-char-template-10004"
   transform="scale(0.00048828125,-0.00048828125)">
   <path
   d="M 285,-33 C 182,-33 111,30 74,156 52,228 41,333 41,471 41,549 55,616 82,672 116,743 169,778 240,778 293,778 328,747 346,684 L 369,508 C 377,444 397,411 428,410 L 1163,1116 C 1174,1127 1196,1133 1229,1133 1271,1133 1292,1118 1292,1087 L 1292,965 C 1292,929 1282,901 1262,881 L 442,47 C 390,-6 338,-33 285,-33 Z"
   id="path8" />
  </g>
  <g
   id="bullet-char-template-9679"
   transform="scale(0.00048828125,-0.00048828125)">
   <path
   d="M 813,0 C 632,0 489,54 383,161 276,268 223,411 223,592 223,773 276,916 383,1023 489,1130 632,1184 813,1184 992,1184 1136,1130 1245,1023 1353,916 1407,772 1407,592 1407,412 1353,268 1245,161 1136,54 992,0 813,0 Z"
   id="path9" />
  </g>
  <g
   id="bullet-char-template-8226"
   transform="scale(0.00048828125,-0.00048828125)">
   <path
   d="M 346,457 C 273,457 209,483 155,535 101,586 74,649 74,723 74,796 101,859 155,911 209,963 273,989 346,989 419,989 480,963 531,910 582,859 608,796 608,723 608,648 583,586 532,535 482,483 420,457 346,457 Z"
   id="path10" />
  </g>
  <g
   id="bullet-char-template-8211"
   transform="scale(0.00048828125,-0.00048828125)">
   <path
   d="M -4,459 L 1135,459 1135,606 -4,606 -4,459 Z"
   id="path11" />
  </g>
  <g
   id="bullet-char-template-61548"
   transform="scale(0.00048828125,-0.00048828125)">
   <path
   d="M 173,740 C 173,903 231,1043 346,1159 462,1274 601,1332 765,1332 928,1332 1067,1274 1183,1159 1299,1043 1357,903 1357,740 1357,577 1299,437 1183,322 1067,206 928,148 765,148 601,148 462,206 346,322 231,437 173,577 173,740 Z"
   id="path12" />
  </g>
 </defs>
 
 <path
   id="path13"
   d="M 5889.8213 1350.7703 C 5876.8033 1350.759 5863.1844 1351.198 5848.9969 1352.0105 C 5675.6119 1361.2168 5515.282 1408.7138 5440.4948 1498.0481 C 5435.4934 1502.5309 5431.2502 1507.7982 5427.9891 1514.0161 C 5427.5097 1514.949 5426.797 1516.0506 5426.2837 1517.0133 C 5422.4485 1522.8311 5418.9852 1528.8112 5415.8451 1534.9451 C 5319.0907 1690.898 4927.2071 2104.9336 4810.1973 2241.0518 C 4806.6193 2244.9605 4803.1349 2249.1229 4799.6553 2253.2475 C 4796.0916 2257.4869 4789.7792 2264.5184 4786.9946 2267.9752 C 4784.7867 2270.7161 4782.8499 2273.8906 4780.9484 2277.122 C 4767.2802 2295.8475 4754.2707 2316.2263 4741.9844 2338.9787 C 4659.9844 2489.9787 4673.0081 2700.9813 4735.0081 2802.9813 C 4790.5717 2894.3925 4908.7412 2868.4214 5016.1796 2805.9269 C 5186.6437 2721.1405 5875.4915 2087.9302 5968.0078 1896.0083 C 5968.0755 1895.8686 5968.1474 1895.7347 5968.2145 1895.5949 C 6011.7634 1825.1698 6042.8124 1753.6266 6061.0253 1699.9996 C 6148.2128 1445.9371 6085.0923 1350.9387 5889.8213 1350.7703 z M 6664.9678 3053.9738 C 6651.8948 3053.9003 6638.2384 3054.2573 6623.9884 3055.0073 C 6605.6921 3056.0644 6587.6196 3057.6865 6569.6765 3059.6065 C 6270.7667 3071.3482 5527.7925 3114.2985 4883.9913 3180.9944 C 4264.4239 3245.3651 3901.4096 3287.5331 3543.4529 3349.3046 C 3505.1986 3353.8801 3468.2718 3360.4156 3433.2788 3368.9416 C 3427.5081 3370.0052 3421.8013 3370.9144 3416.0189 3371.9905 C 3410.3337 3373.0941 3404.8167 3375.2156 3399.4307 3377.985 C 3270.7865 3415.7234 3175.9549 3482.8309 3161.9775 3582.0036 C 3139.9775 3732.0036 3163.0203 3978.0164 3265.0203 4091.0164 C 3305.6322 4135.8151 3341.8497 4157.0654 3380.1554 4159.436 C 3384.4957 4159.9625 3388.9698 4159.9889 3393.5913 4159.5394 C 3406.3847 4158.8932 3419.5397 4156.0015 3433.1754 4151.5295 C 3663.2968 4096.2584 4440.8933 3960.9267 4991.995 3903.0175 C 5237.7143 3876.8132 5509.3859 3866.2016 5750.2433 3862.9683 C 5397.2835 4365.3242 4971.8517 4970.9472 4635.0142 5444.9906 C 4118.0142 6172.9906 3327.0083 7259.9787 3166.0083 7586.9787 C 3163.2782 7591.2688 3161.7026 7596.2033 3160.6856 7601.3964 C 3155.6574 7613.9988 3152.029 7627.1615 3149.9886 7640.9806 C 3127.9886 7789.9806 3151.0132 8035.9934 3254.0132 8149.9934 C 3290.4517 8190.2276 3323.5815 8211.3854 3357.9862 8216.8111 C 3367.4629 8219.6795 3377.7678 8219.7995 3388.7337 8217.5862 C 3399.3686 8216.519 3410.2683 8213.9372 3421.4966 8210.2998 C 3652.8024 8153.4599 4445.0292 8008.8705 4997.0076 7950.0056 C 5569.0076 7889.0056 6160.9852 7843.9837 6421.9852 7842.9837 C 6423.5903 7843.0878 6425.367 7842.4206 6427.0495 7842.1569 C 6477.2031 7840.6012 6532.0739 7808.4749 6605.0231 7754.9788 C 6738.0231 7656.9788 6825.9765 7480.002 6860.9765 7375.002 C 6953.9765 7104.002 6875.9998 7013.9794 6648.9998 7025.9794 C 6613.5399 7027.8539 6578.8022 7031.5617 6545.0785 7036.6764 C 6221.8045 7070.7584 5538.1729 7171.8549 4945.0211 7232.9951 C 4623.7777 7266.6021 4342.8587 7296.7937 4091.5848 7328.0281 C 4401.0203 6825.1793 4842.6055 6131.2683 5188.9856 5632.9895 C 5732.9856 4849.9895 6467.0226 3948.9931 6699.0226 3667.9931 C 6701.6205 3664.8691 6703.5235 3661.3283 6704.9137 3657.4511 C 6769.6992 3570.3434 6814.4257 3472.7305 6836.9986 3405.0118 C 6924.1861 3150.9493 6861.0628 3055.0761 6664.9678 3053.9738 z " />
   
  
</svg>
