<?xml version="1.0" encoding="UTF-8" standalone="no"?>
<svg
   version="1.2"
   width="100mm"
   height="100mm"
   viewBox="0 0 10000 10000"
   preserveAspectRatio="xMidYMid"
   fill-rule="evenodd"
   stroke-width="28.222"
   stroke-linejoin="round"
   xml:space="preserve"
   id="svg25"
   sodipodi:docname="gobo-caps-0146.svg"
   inkscape:version="1.4 (86a8ad7, 2024-10-11)"
   xmlns:inkscape="http://www.inkscape.org/namespaces/inkscape"
   xmlns:sodipodi="http://sodipodi.sourceforge.net/DTD/sodipodi-0.dtd"
   xmlns="http://www.w3.org/2000/svg"
   xmlns:svg="http://www.w3.org/2000/svg"
   xmlns:ooo="http://xml.openoffice.org/svg/export"><sodipodi:namedview
   id="namedview25"
   pagecolor="#ffffff"
   bordercolor="#000000"
   borderopacity="0.25"
   inkscape:showpageshadow="2"
   inkscape:pageopacity="0.0"
   inkscape:pagecheckerboard="0"
   inkscape:deskcolor="#d1d1d1"
   inkscape:document-units="mm"
   showgrid="false"
   inkscape:zoom="3.0876875"
   inkscape:cx="188.81444"
   inkscape:cy="188.97638"
   inkscape:window-width="2560"
   inkscape:window-height="1369"
   inkscape:window-x="-8"
   inkscape:window-y="-8"
   inkscape:window-maximized="1"
   inkscape:current-layer="svg25" />
 <defs
   class="ClipPathGroup"
   id="defs2">
  
  <clipPath
   id="presentation_clip_path_shrink"
   clipPathUnits="userSpaceOnUse">
   <rect
   x="10"
   y="10"
   width="9980"
   height="9980"
   id="rect2" />
  </clipPath>
 
  
 
   
  
    
   
     
    
      
      
      
      
      
      
      
      
      
      
     
       
      
       
      
       
      
       
      
       
      
       
      
       
      
       
      
       
      
       
      
        
        
       
        
        
       
        
        
       
        
        
       
        
        
       
        
        
       
        
        
       
        
        
       
        
        
       
        
        
       </defs>
 <defs
   class="TextShapeIndex"
   id="defs3">
  <g
   ooo:slide="id1"
   ooo:id-list="id3 id4 id5 id6 id7 id8 id9 id10 id11 id12"
   id="g2" />
 </defs>
 <defs
   class="EmbeddedBulletChars"
   id="defs12">
  <g
   id="bullet-char-template-57356"
   transform="scale(0.00048828125,-0.00048828125)">
   <path
   d="M 580,1141 L 1163,571 580,0 -4,571 580,1141 Z"
   id="path3" />
  </g>
  <g
   id="bullet-char-template-57354"
   transform="scale(0.00048828125,-0.00048828125)">
   <path
   d="M 8,1128 L 1137,1128 1137,0 8,0 8,1128 Z"
   id="path4" />
  </g>
  <g
   id="bullet-char-template-10146"
   transform="scale(0.00048828125,-0.00048828125)">
   <path
   d="M 174,0 L 602,739 174,1481 1456,739 174,0 Z M 1358,739 L 309,1346 659,739 1358,739 Z"
   id="path5" />
  </g>
  <g
   id="bullet-char-template-10132"
   transform="scale(0.00048828125,-0.00048828125)">
   <path
   d="M 2015,739 L 1276,0 717,0 1260,543 174,543 174,936 1260,936 717,1481 1274,1481 2015,739 Z"
   id="path6" />
  </g>
  <g
   id="bullet-char-template-10007"
   transform="scale(0.00048828125,-0.00048828125)">
   <path
   d="M 0,-2 C -7,14 -16,27 -25,37 L 356,567 C 262,823 215,952 215,954 215,979 228,992 255,992 264,992 276,990 289,987 310,991 331,999 354,1012 L 381,999 492,748 772,1049 836,1024 860,1049 C 881,1039 901,1025 922,1006 886,937 835,863 770,784 769,783 710,716 594,584 L 774,223 C 774,196 753,168 711,139 L 727,119 C 717,90 699,76 672,76 641,76 570,178 457,381 L 164,-76 C 142,-110 111,-127 72,-127 30,-127 9,-110 8,-76 1,-67 -2,-52 -2,-32 -2,-23 -1,-13 0,-2 Z"
   id="path7" />
  </g>
  <g
   id="bullet-char-template-10004"
   transform="scale(0.00048828125,-0.00048828125)">
   <path
   d="M 285,-33 C 182,-33 111,30 74,156 52,228 41,333 41,471 41,549 55,616 82,672 116,743 169,778 240,778 293,778 328,747 346,684 L 369,508 C 377,444 397,411 428,410 L 1163,1116 C 1174,1127 1196,1133 1229,1133 1271,1133 1292,1118 1292,1087 L 1292,965 C 1292,929 1282,901 1262,881 L 442,47 C 390,-6 338,-33 285,-33 Z"
   id="path8" />
  </g>
  <g
   id="bullet-char-template-9679"
   transform="scale(0.00048828125,-0.00048828125)">
   <path
   d="M 813,0 C 632,0 489,54 383,161 276,268 223,411 223,592 223,773 276,916 383,1023 489,1130 632,1184 813,1184 992,1184 1136,1130 1245,1023 1353,916 1407,772 1407,592 1407,412 1353,268 1245,161 1136,54 992,0 813,0 Z"
   id="path9" />
  </g>
  <g
   id="bullet-char-template-8226"
   transform="scale(0.00048828125,-0.00048828125)">
   <path
   d="M 346,457 C 273,457 209,483 155,535 101,586 74,649 74,723 74,796 101,859 155,911 209,963 273,989 346,989 419,989 480,963 531,910 582,859 608,796 608,723 608,648 583,586 532,535 482,483 420,457 346,457 Z"
   id="path10" />
  </g>
  <g
   id="bullet-char-template-8211"
   transform="scale(0.00048828125,-0.00048828125)">
   <path
   d="M -4,459 L 1135,459 1135,606 -4,606 -4,459 Z"
   id="path11" />
  </g>
  <g
   id="bullet-char-template-61548"
   transform="scale(0.00048828125,-0.00048828125)">
   <path
   d="M 173,740 C 173,903 231,1043 346,1159 462,1274 601,1332 765,1332 928,1332 1067,1274 1183,1159 1299,1043 1357,903 1357,740 1357,577 1299,437 1183,322 1067,206 928,148 765,148 601,148 462,206 346,322 231,437 173,577 173,740 Z"
   id="path12" />
  </g>
 </defs>
 
 <path
   id="path13"
   d="M 6549.9877 3038.9876 C 6536.9218 3038.9144 6523.2583 3039.2711 6509.0083 3040.0211 C 6282.0083 3052.0211 6078.9764 3130.0246 6057.9764 3279.0246 C 6050.5245 3327.6244 6048.1502 3386.3168 6051.6202 3447.2831 C 6050.8073 3454.5946 6050.5444 3461.8473 6051.0001 3468.9872 C 6068.0001 3703.9872 6216.9888 4354.002 6193.9888 5470.002 C 6186.5033 5834.1875 6165.7134 6125.4448 6140.607 6366.8465 C 5873.5156 5998.9848 5552.6727 5561.8546 5267.9988 5160.9769 C 4713.4428 4382.4276 4169.6305 3684.1972 3912.1126 3342.845 C 3879.4135 3278.6907 3800.6128 3256.0403 3679.0002 3263.0049 C 3453.0002 3275.0049 3249.02 3352.0084 3228.02 3502.0084 C 3222.2016 3539.7013 3219.3389 3583.6104 3219.9585 3630.011 C 3197.196 3999.0135 3177.1907 4824.8586 3181.9763 5513.9786 C 3185.8306 6207.7549 3228.5695 7341.4274 3242.4894 7759.9397 C 3237.2915 7905.4082 3267.6417 8090.4762 3353.0253 8184.9784 C 3449.0253 8290.9784 3522.0042 8265.0131 3656.0042 8166.0131 C 3790.0042 8068.0131 3876.9911 7891.0028 3912.9911 7785.0028 C 3940.7085 7704.533 3953.13 7640.1465 3951.025 7589.5625 C 3956.152 7251.6742 3833.8418 6684.0725 3809.0181 5852.976 C 3797.6116 5471.5434 3807.3095 5021.0095 3827.0532 4607.7807 C 4178.8842 5044.7196 4619.2029 5608.0412 4857.0162 5962.9952 C 5262.0162 6565.9952 5933.0131 7476.0225 6093.0131 7801.0225 C 6096.1797 7807.4504 6100.8205 7811.479 6106.1905 7814.4067 C 6109.3782 7818.4036 6112.6537 7822.265 6116.0091 7825.9822 C 6212.0091 7932.9822 6285.0215 7906.0169 6420.0215 7807.0169 C 6553.0215 7710.0169 6640.0084 7532.9885 6677.0084 7426.9885 C 6686.1733 7400.0916 6693.6076 7375.0635 6699.436 7351.6442 C 6700.718 7347.7923 6702.1713 7344.0337 6703.0017 7340.017 C 6703.9365 7335.2877 6704.7166 7328.958 6705.6372 7324.1007 C 6708.4716 7310.1764 6710.6264 7296.9212 6712.1484 7284.3098 C 6773.4541 6925.9829 6801.8812 6267.561 6819.0152 5368.9746 C 6835.0152 4425.9746 6791.9826 3463.9944 6760.9826 3180.9944 C 6759.5797 3168.456 6756.4912 3157.5505 6752.6627 3147.3531 C 6731.3747 3071.8071 6662.9511 3039.6208 6549.9877 3038.9876 z M 5090.8003 7669.9711 C 5077.7823 7669.9049 5064.1635 7670.2546 5049.976 7671.0046 C 4822.976 7683.0046 4618.9957 7761.0081 4598.9957 7910.0081 C 4595.7132 7932.2398 4593.5988 7956.7718 4592.4328 7982.5618 C 4576.4024 8196.311 4456.1717 8761.8632 4375.0301 9033.5571 C 4368.4169 9051.8006 4362.9136 9070.5104 4358.4419 9089.471 C 4356.4543 9097.1689 4354.8701 9104.7864 4353.7394 9112.3119 C 4330.0292 9236.4276 4348.8105 9366.8037 4393.0135 9439.9922 C 4457.0135 9541.9922 4595.9939 9497.9934 4712.9939 9419.9934 C 4777.8513 9375.4392 4834.0977 9321.6328 4876.7566 9251.9933 C 5047.446 8987.8569 5291.2591 8115.814 5299.9865 7853.9908 C 5300.0329 7852.7376 5299.9708 7851.5561 5299.9865 7850.3218 C 5306.4515 7722.2082 5234.3185 7670.7005 5090.8003 7669.9711 z " />
   
  
</svg>
