<?xml version="1.0" encoding="UTF-8" standalone="no"?>
<svg
   version="1.2"
   width="100mm"
   height="100mm"
   viewBox="0 0 10000 10000"
   preserveAspectRatio="xMidYMid"
   fill-rule="evenodd"
   stroke-width="28.222"
   stroke-linejoin="round"
   xml:space="preserve"
   id="svg25"
   sodipodi:docname="gobo-caps-011C.svg"
   inkscape:version="1.4 (86a8ad7, 2024-10-11)"
   xmlns:inkscape="http://www.inkscape.org/namespaces/inkscape"
   xmlns:sodipodi="http://sodipodi.sourceforge.net/DTD/sodipodi-0.dtd"
   xmlns="http://www.w3.org/2000/svg"
   xmlns:svg="http://www.w3.org/2000/svg"
   xmlns:ooo="http://xml.openoffice.org/svg/export"><sodipodi:namedview
   id="namedview25"
   pagecolor="#ffffff"
   bordercolor="#000000"
   borderopacity="0.25"
   inkscape:showpageshadow="2"
   inkscape:pageopacity="0.0"
   inkscape:pagecheckerboard="0"
   inkscape:deskcolor="#d1d1d1"
   inkscape:document-units="mm"
   showgrid="false"
   inkscape:zoom="3.0876875"
   inkscape:cx="188.81444"
   inkscape:cy="188.97638"
   inkscape:window-width="2560"
   inkscape:window-height="1369"
   inkscape:window-x="-8"
   inkscape:window-y="-8"
   inkscape:window-maximized="1"
   inkscape:current-layer="svg25" />
 <defs
   class="ClipPathGroup"
   id="defs2">
  
  <clipPath
   id="presentation_clip_path_shrink"
   clipPathUnits="userSpaceOnUse">
   <rect
   x="10"
   y="10"
   width="9980"
   height="9980"
   id="rect2" />
  </clipPath>
 
  
 
   
  
    
   
     
    
      
      
      
      
      
      
      
      
      
      
     
       
      
       
      
       
      
       
      
       
      
       
      
       
      
       
      
       
      
       
      
        
        
       
        
        
       
        
        
       
        
        
       
        
        
       
        
        
       
        
        
       
        
        
       
        
        
       
        
        
       </defs>
 <defs
   class="TextShapeIndex"
   id="defs3">
  <g
   ooo:slide="id1"
   ooo:id-list="id3 id4 id5 id6 id7 id8 id9 id10 id11 id12"
   id="g2" />
 </defs>
 <defs
   class="EmbeddedBulletChars"
   id="defs12">
  <g
   id="bullet-char-template-57356"
   transform="scale(0.00048828125,-0.00048828125)">
   <path
   d="M 580,1141 L 1163,571 580,0 -4,571 580,1141 Z"
   id="path3" />
  </g>
  <g
   id="bullet-char-template-57354"
   transform="scale(0.00048828125,-0.00048828125)">
   <path
   d="M 8,1128 L 1137,1128 1137,0 8,0 8,1128 Z"
   id="path4" />
  </g>
  <g
   id="bullet-char-template-10146"
   transform="scale(0.00048828125,-0.00048828125)">
   <path
   d="M 174,0 L 602,739 174,1481 1456,739 174,0 Z M 1358,739 L 309,1346 659,739 1358,739 Z"
   id="path5" />
  </g>
  <g
   id="bullet-char-template-10132"
   transform="scale(0.00048828125,-0.00048828125)">
   <path
   d="M 2015,739 L 1276,0 717,0 1260,543 174,543 174,936 1260,936 717,1481 1274,1481 2015,739 Z"
   id="path6" />
  </g>
  <g
   id="bullet-char-template-10007"
   transform="scale(0.00048828125,-0.00048828125)">
   <path
   d="M 0,-2 C -7,14 -16,27 -25,37 L 356,567 C 262,823 215,952 215,954 215,979 228,992 255,992 264,992 276,990 289,987 310,991 331,999 354,1012 L 381,999 492,748 772,1049 836,1024 860,1049 C 881,1039 901,1025 922,1006 886,937 835,863 770,784 769,783 710,716 594,584 L 774,223 C 774,196 753,168 711,139 L 727,119 C 717,90 699,76 672,76 641,76 570,178 457,381 L 164,-76 C 142,-110 111,-127 72,-127 30,-127 9,-110 8,-76 1,-67 -2,-52 -2,-32 -2,-23 -1,-13 0,-2 Z"
   id="path7" />
  </g>
  <g
   id="bullet-char-template-10004"
   transform="scale(0.00048828125,-0.00048828125)">
   <path
   d="M 285,-33 C 182,-33 111,30 74,156 52,228 41,333 41,471 41,549 55,616 82,672 116,743 169,778 240,778 293,778 328,747 346,684 L 369,508 C 377,444 397,411 428,410 L 1163,1116 C 1174,1127 1196,1133 1229,1133 1271,1133 1292,1118 1292,1087 L 1292,965 C 1292,929 1282,901 1262,881 L 442,47 C 390,-6 338,-33 285,-33 Z"
   id="path8" />
  </g>
  <g
   id="bullet-char-template-9679"
   transform="scale(0.00048828125,-0.00048828125)">
   <path
   d="M 813,0 C 632,0 489,54 383,161 276,268 223,411 223,592 223,773 276,916 383,1023 489,1130 632,1184 813,1184 992,1184 1136,1130 1245,1023 1353,916 1407,772 1407,592 1407,412 1353,268 1245,161 1136,54 992,0 813,0 Z"
   id="path9" />
  </g>
  <g
   id="bullet-char-template-8226"
   transform="scale(0.00048828125,-0.00048828125)">
   <path
   d="M 346,457 C 273,457 209,483 155,535 101,586 74,649 74,723 74,796 101,859 155,911 209,963 273,989 346,989 419,989 480,963 531,910 582,859 608,796 608,723 608,648 583,586 532,535 482,483 420,457 346,457 Z"
   id="path10" />
  </g>
  <g
   id="bullet-char-template-8211"
   transform="scale(0.00048828125,-0.00048828125)">
   <path
   d="M -4,459 L 1135,459 1135,606 -4,606 -4,459 Z"
   id="path11" />
  </g>
  <g
   id="bullet-char-template-61548"
   transform="scale(0.00048828125,-0.00048828125)">
   <path
   d="M 173,740 C 173,903 231,1043 346,1159 462,1274 601,1332 765,1332 928,1332 1067,1274 1183,1159 1299,1043 1357,903 1357,740 1357,577 1299,437 1183,322 1067,206 928,148 765,148 601,148 462,206 346,322 231,437 173,577 173,740 Z"
   id="path12" />
  </g>
 </defs>
 
 <path
   id="path13"
   d="M 5530.9802 500.7963 C 5517.9143 500.77091 5504.2508 501.17236 5490.0008 501.98486 C 5317.0881 511.93116 5157.1671 559.4097 5082.1187 647.86743 C 5076.9372 652.43554 5072.3149 657.57087 5068.9929 663.99047 C 4996.6907 804.68655 4569.6997 1197.628 4300.1509 1335.0089 C 4214.1122 1368.3317 4150.2314 1427.0195 4097.0109 1525.0232 C 4016.0109 1676.0232 4028.9829 1886.9923 4089.9829 1987.9923 C 4123.8907 2042.8907 4180.1736 2055.2538 4242.9451 2043.0277 C 4243.2979 2042.9728 4243.6249 2043.0353 4243.9786 2042.9761 C 4642.4372 1979.8602 5048.8004 1671.8846 5315.8512 1405.9607 C 5542.5424 1577.0217 5955.0295 1810.1706 6415.0089 1839.991 C 6417.5438 1840.0095 6420.1115 1839.5259 6422.657 1839.4226 C 6490.9903 1849.4493 6577.6918 1813.3304 6654.0124 1762.0113 C 6769.0124 1682.0113 6857.0187 1574.0179 6890.0187 1400.0179 C 6917.5663 1251.0887 6892.4023 1122.2541 6772.6098 1097.5557 C 6771.1127 1097.2142 6769.6033 1096.8668 6768.0623 1096.5739 C 6766.2936 1096.2549 6764.445 1096.0217 6762.6363 1095.7471 C 6761.0771 1095.5152 6759.5873 1095.2075 6757.9854 1095.0236 C 6180.0274 1028.8381 5844.7523 702.80781 5716.4986 570.24943 C 5684.7798 522.12443 5622.4416 500.97404 5530.9802 500.7963 z M 5554.803 2125.9167 C 5476.2979 2127.9189 5394.7618 2132.5869 5310.0118 2140.0244 C 3954.0118 2259.0244 2755.0163 3720.9898 2485.0163 5669.9898 C 2215.0163 7618.9898 3347.9843 9044.0036 5040.9843 8830.0036 C 6734.9843 8616.0036 7301.0048 6536.996 7540.0048 5737.996 C 7542.7112 5728.8859 7543.9266 5720.1126 7544.449 5711.486 C 7583.6166 5525.0718 7504.9403 5456.8879 7320.6384 5462.3539 C 7312.2714 5462.0708 7304.1391 5461.5622 7295.0069 5461.9921 C 6848.0069 5483.9921 6621.9943 5479.9829 6187.9943 5527.9829 C 5754.9943 5576.9829 5655.9764 5608.0122 5254.9764 5683.0122 C 5249.5701 5683.981 5244.3656 5685.6623 5239.3184 5688.0765 C 5093.9494 5723.6545 4983.18 5793.7109 4968.0171 5902.017 C 4945.0171 6051.017 4968.0083 6296.9781 5071.0083 6410.9781 C 5121.8144 6467.0766 5166.1556 6486.2225 5216.5291 6477.124 C 5217.0235 6477.0181 5217.478 6477.1532 5217.976 6477.0206 C 5218.8002 6476.7899 5220.1433 6476.4264 5220.9733 6476.1938 C 5227.3325 6474.8484 5233.8197 6472.9232 5240.4036 6470.7161 C 5470.571 6405.941 5894.017 6282.2595 6213.9876 6256.0005 C 6393.3487 6241.8261 6571.9073 6246.2219 6729.7184 6254.967 C 6486.7919 7155.887 6005.8904 8068.5196 5048.9941 8098.9888 C 3886.9941 8136.9888 2980.9879 7185.984 3075.9879 5806.984 C 3170.9879 4427.984 3829.0015 3503.991 4462.0015 3109.991 C 5096.0015 2716.991 6404.99 2700.9997 6808.99 3940.9997 C 6816.4197 3963.7614 6826.3185 3981.8896 6837.9805 3996.4485 C 6847.9178 4013.2288 6858.8929 4028.5608 6871.0017 4041.9755 C 6968.0017 4147.9755 7040.0142 4122.0102 7175.0142 4023.0102 C 7309.0142 3926.0102 7396.0011 3747.9999 7432.0011 3641.9999 C 7468.6593 3535.9671 7478.6137 3457.6895 7463.4204 3402.3763 C 7463.1057 3400.9913 7463.3554 3399.3525 7463.0069 3397.9838 C 7222.0694 2662.9838 6732.3799 2095.8838 5554.803 2125.9167 z " />
   
  
</svg>
