<?xml version="1.0" encoding="UTF-8" standalone="no"?>
<svg
   version="1.2"
   width="100mm"
   height="100mm"
   viewBox="0 0 10000 10000"
   preserveAspectRatio="xMidYMid"
   fill-rule="evenodd"
   stroke-width="28.222"
   stroke-linejoin="round"
   xml:space="preserve"
   id="svg26"
   sodipodi:docname="gobo-caps-0165.svg"
   inkscape:version="1.4 (86a8ad7, 2024-10-11)"
   xmlns:inkscape="http://www.inkscape.org/namespaces/inkscape"
   xmlns:sodipodi="http://sodipodi.sourceforge.net/DTD/sodipodi-0.dtd"
   xmlns="http://www.w3.org/2000/svg"
   xmlns:svg="http://www.w3.org/2000/svg"
   xmlns:ooo="http://xml.openoffice.org/svg/export"><sodipodi:namedview
   id="namedview26"
   pagecolor="#ffffff"
   bordercolor="#000000"
   borderopacity="0.25"
   inkscape:showpageshadow="2"
   inkscape:pageopacity="0.0"
   inkscape:pagecheckerboard="0"
   inkscape:deskcolor="#d1d1d1"
   inkscape:document-units="mm"
   showgrid="false"
   inkscape:zoom="3.0876875"
   inkscape:cx="188.81444"
   inkscape:cy="188.97638"
   inkscape:window-width="2560"
   inkscape:window-height="1369"
   inkscape:window-x="-8"
   inkscape:window-y="-8"
   inkscape:window-maximized="1"
   inkscape:current-layer="svg26" />
 <defs
   class="ClipPathGroup"
   id="defs2">
  
  <clipPath
   id="presentation_clip_path_shrink"
   clipPathUnits="userSpaceOnUse">
   <rect
   x="10"
   y="10"
   width="9980"
   height="9980"
   id="rect2" />
  </clipPath>
 
  
 
   
  
    
   
     
    
      
      
      
      
      
      
      
      
      
      
      
     
       
      
       
      
       
      
       
      
       
      
       
      
       
      
       
      
       
      
       
      
       
      
        
        
       
        
        
       
        
        
       
        
        
       
        
        
       
        
        
       
        
        
       
        
        
       
        
        
       
        
        
       
        
        
       </defs>
 <defs
   class="TextShapeIndex"
   id="defs3">
  <g
   ooo:slide="id1"
   ooo:id-list="id3 id4 id5 id6 id7 id8 id9 id10 id11 id12 id13"
   id="g2" />
 </defs>
 <defs
   class="EmbeddedBulletChars"
   id="defs12">
  <g
   id="bullet-char-template-57356"
   transform="scale(0.00048828125,-0.00048828125)">
   <path
   d="M 580,1141 L 1163,571 580,0 -4,571 580,1141 Z"
   id="path3" />
  </g>
  <g
   id="bullet-char-template-57354"
   transform="scale(0.00048828125,-0.00048828125)">
   <path
   d="M 8,1128 L 1137,1128 1137,0 8,0 8,1128 Z"
   id="path4" />
  </g>
  <g
   id="bullet-char-template-10146"
   transform="scale(0.00048828125,-0.00048828125)">
   <path
   d="M 174,0 L 602,739 174,1481 1456,739 174,0 Z M 1358,739 L 309,1346 659,739 1358,739 Z"
   id="path5" />
  </g>
  <g
   id="bullet-char-template-10132"
   transform="scale(0.00048828125,-0.00048828125)">
   <path
   d="M 2015,739 L 1276,0 717,0 1260,543 174,543 174,936 1260,936 717,1481 1274,1481 2015,739 Z"
   id="path6" />
  </g>
  <g
   id="bullet-char-template-10007"
   transform="scale(0.00048828125,-0.00048828125)">
   <path
   d="M 0,-2 C -7,14 -16,27 -25,37 L 356,567 C 262,823 215,952 215,954 215,979 228,992 255,992 264,992 276,990 289,987 310,991 331,999 354,1012 L 381,999 492,748 772,1049 836,1024 860,1049 C 881,1039 901,1025 922,1006 886,937 835,863 770,784 769,783 710,716 594,584 L 774,223 C 774,196 753,168 711,139 L 727,119 C 717,90 699,76 672,76 641,76 570,178 457,381 L 164,-76 C 142,-110 111,-127 72,-127 30,-127 9,-110 8,-76 1,-67 -2,-52 -2,-32 -2,-23 -1,-13 0,-2 Z"
   id="path7" />
  </g>
  <g
   id="bullet-char-template-10004"
   transform="scale(0.00048828125,-0.00048828125)">
   <path
   d="M 285,-33 C 182,-33 111,30 74,156 52,228 41,333 41,471 41,549 55,616 82,672 116,743 169,778 240,778 293,778 328,747 346,684 L 369,508 C 377,444 397,411 428,410 L 1163,1116 C 1174,1127 1196,1133 1229,1133 1271,1133 1292,1118 1292,1087 L 1292,965 C 1292,929 1282,901 1262,881 L 442,47 C 390,-6 338,-33 285,-33 Z"
   id="path8" />
  </g>
  <g
   id="bullet-char-template-9679"
   transform="scale(0.00048828125,-0.00048828125)">
   <path
   d="M 813,0 C 632,0 489,54 383,161 276,268 223,411 223,592 223,773 276,916 383,1023 489,1130 632,1184 813,1184 992,1184 1136,1130 1245,1023 1353,916 1407,772 1407,592 1407,412 1353,268 1245,161 1136,54 992,0 813,0 Z"
   id="path9" />
  </g>
  <g
   id="bullet-char-template-8226"
   transform="scale(0.00048828125,-0.00048828125)">
   <path
   d="M 346,457 C 273,457 209,483 155,535 101,586 74,649 74,723 74,796 101,859 155,911 209,963 273,989 346,989 419,989 480,963 531,910 582,859 608,796 608,723 608,648 583,586 532,535 482,483 420,457 346,457 Z"
   id="path10" />
  </g>
  <g
   id="bullet-char-template-8211"
   transform="scale(0.00048828125,-0.00048828125)">
   <path
   d="M -4,459 L 1135,459 1135,606 -4,606 -4,459 Z"
   id="path11" />
  </g>
  <g
   id="bullet-char-template-61548"
   transform="scale(0.00048828125,-0.00048828125)">
   <path
   d="M 173,740 C 173,903 231,1043 346,1159 462,1274 601,1332 765,1332 928,1332 1067,1274 1183,1159 1299,1043 1357,903 1357,740 1357,577 1299,437 1183,322 1067,206 928,148 765,148 601,148 462,206 346,322 231,437 173,577 173,740 Z"
   id="path12" />
  </g>
 </defs>
 
 <path
   id="path13"
   d="M 6119.1097 1200.1335 C 6113.8733 1200.2625 6108.4866 1200.5745 6102.9866 1201.012 C 6062.0719 1204.5189 6024.9628 1210.5102 5990.8487 1219.3571 C 5604.4198 1301.1946 5175.887 1600.6194 4887.2469 1859.3697 C 4586.1274 1675.6908 4117.2147 1454.6354 3705.9753 1427.9748 C 3703.4306 1427.9563 3700.8766 1428.4384 3698.3272 1428.5433 C 3686.9001 1427.9109 3674.8514 1427.986 3661.9987 1429.0084 C 3486.9987 1444.0084 3379.008 1502.0257 3297.008 1653.0257 C 3216.008 1804.0257 3229.0136 2013.9949 3291.0136 2115.9949 C 3315.7168 2156.6357 3352.9787 2174.0537 3396.1234 2175.4228 C 3397.1367 2175.5566 3397.9875 2175.8772 3399.0173 2175.9912 C 4018.0173 2247.9912 4562.9838 2706.9857 4667.9838 2816.9857 C 4672.5473 2821.7665 4677.9435 2824.9319 4684.0035 2826.7008 C 4762.5136 2887.2557 4832.6904 2856.1986 4948.0184 2770.9936 C 4974.3439 2751.7407 4998.7834 2729.3716 5021.4506 2705.1579 C 5030.1477 2700.5859 5037.7439 2694.3226 5043.9815 2685.9859 C 5147.9815 2544.9859 5715.0121 2036.9791 5982.0121 1908.9791 C 5992.3204 1904.1145 6002.0398 1898.3093 6011.5193 1892.0809 C 6024.5579 1884.5213 6037.4629 1876.5155 6050.0183 1867.9997 C 6166.0183 1787.9997 6254.0064 1681.0063 6287.0064 1506.0063 C 6318.0064 1338.4125 6281.4358 1196.1326 6119.1097 1200.1335 z M 6648.9998 3041.9848 C 6635.9268 3041.9116 6622.2704 3042.2684 6608.0204 3043.0184 C 6593.6842 3043.843 6579.4461 3044.8803 6565.3356 3046.2223 C 6274.4363 3058.1205 5519.6747 3101.4521 4868.0232 3168.0237 C 4248.5803 3233.2752 3885.5785 3274.6999 3527.6916 3337.0056 C 3487.0768 3341.7363 3447.8754 3348.7638 3410.9546 3358.0379 C 3407.29 3358.7245 3403.6686 3359.3096 3399.9992 3360.0016 C 3395.8538 3360.8063 3391.8421 3362.4377 3387.8552 3364.1357 C 3256.5857 3401.5961 3159.4835 3469.6332 3146.0095 3570.0146 C 3124.0095 3719.0146 3147.0006 3964.9758 3249.0006 4078.9758 C 3288.0006 4122.0383 3323.2045 4143.3273 3360.3117 4146.7753 C 3368.4945 4148.3607 3377.1335 4148.4025 3386.3566 4146.3619 C 3386.6295 4146.3293 3386.9102 4146.2928 3387.1834 4146.2585 C 3387.806 4146.1134 3388.3647 4146.1625 3388.9921 4146.0001 C 3389.1046 4145.9703 3389.3442 4145.9267 3389.4572 4145.8968 C 3397.0867 4144.8108 3404.9274 4142.8485 3412.8666 4140.4708 C 3569.1096 4101.9489 3991.7657 4025.5197 4423.8643 3961.9287 C 4423.8405 3971.7527 4423.9865 3981.675 4425.0012 3992.0044 C 4512.0012 4442.0044 4532.984 5154.9991 4536.984 5771.9991 C 4540.967 6386.3674 4365.6684 7479.0248 4412.5472 7741.0778 C 4421.5353 7863.0069 4454.5703 7991.4439 4521.016 8064.9857 C 4617.016 8170.9857 4689.9949 8145.0204 4823.9949 8046.0204 C 4957.9949 7948.0204 5044.9818 7771.0101 5080.9818 7665.0101 C 5096.2202 7620.7697 5106.7691 7581.4388 5112.9178 7546.5161 C 5114.3253 7538.522 5115.4947 7530.7898 5116.4318 7523.2617 C 5116.8841 7519.8085 5117.6372 7516.4754 5117.9821 7512.9781 C 5153.9821 7146.9781 5171.0132 6635.0153 5159.0132 5717.0153 C 5149.1434 4893.3377 5127.4183 4346.4011 5134.5703 3875.629 C 5674.1314 3832.9495 6281.6659 3850.9993 6378.9904 3861.0046 C 6382.6269 3861.3445 6386.6755 3860.5352 6390.9277 3858.9892 C 6439.7635 3855.7325 6493.1963 3823.9347 6563.9921 3772.0178 C 6697.9921 3675.0178 6784.979 3497.9893 6820.979 3391.9893 C 6908.1665 3138.8643 6845.0948 3043.0835 6648.9998 3041.9848 z " />
   
  
</svg>
