<?xml version="1.0" encoding="UTF-8" standalone="no"?>
<svg
   version="1.2"
   width="100mm"
   height="100mm"
   viewBox="0 0 10000 10000"
   preserveAspectRatio="xMidYMid"
   fill-rule="evenodd"
   stroke-width="28.222"
   stroke-linejoin="round"
   xml:space="preserve"
   id="svg22"
   sodipodi:docname="gobo-caps-0150.svg"
   inkscape:version="1.4 (86a8ad7, 2024-10-11)"
   xmlns:inkscape="http://www.inkscape.org/namespaces/inkscape"
   xmlns:sodipodi="http://sodipodi.sourceforge.net/DTD/sodipodi-0.dtd"
   xmlns="http://www.w3.org/2000/svg"
   xmlns:svg="http://www.w3.org/2000/svg"
   xmlns:ooo="http://xml.openoffice.org/svg/export"><sodipodi:namedview
   id="namedview22"
   pagecolor="#ffffff"
   bordercolor="#000000"
   borderopacity="0.25"
   inkscape:showpageshadow="2"
   inkscape:pageopacity="0.0"
   inkscape:pagecheckerboard="0"
   inkscape:deskcolor="#d1d1d1"
   inkscape:document-units="mm"
   showgrid="false"
   inkscape:zoom="3.0876875"
   inkscape:cx="188.81444"
   inkscape:cy="188.97638"
   inkscape:window-width="2560"
   inkscape:window-height="1369"
   inkscape:window-x="-8"
   inkscape:window-y="-8"
   inkscape:window-maximized="1"
   inkscape:current-layer="svg22" />
 <defs
   class="ClipPathGroup"
   id="defs2">
  
  <clipPath
   id="presentation_clip_path_shrink"
   clipPathUnits="userSpaceOnUse">
   <rect
   x="10"
   y="10"
   width="9980"
   height="9980"
   id="rect2" />
  </clipPath>
 
  
 
   
  
    
   
     
    
      
      
      
      
      
      
      
     
       
      
       
      
       
      
       
      
       
      
       
      
       
      
        
        
       
        
        
       
        
        
       
        
        
       
        
        
       
        
        
       
        
        
       </defs>
 <defs
   class="TextShapeIndex"
   id="defs3">
  <g
   ooo:slide="id1"
   ooo:id-list="id3 id4 id5 id6 id7 id8 id9"
   id="g2" />
 </defs>
 <defs
   class="EmbeddedBulletChars"
   id="defs12">
  <g
   id="bullet-char-template-57356"
   transform="scale(0.00048828125,-0.00048828125)">
   <path
   d="M 580,1141 L 1163,571 580,0 -4,571 580,1141 Z"
   id="path3" />
  </g>
  <g
   id="bullet-char-template-57354"
   transform="scale(0.00048828125,-0.00048828125)">
   <path
   d="M 8,1128 L 1137,1128 1137,0 8,0 8,1128 Z"
   id="path4" />
  </g>
  <g
   id="bullet-char-template-10146"
   transform="scale(0.00048828125,-0.00048828125)">
   <path
   d="M 174,0 L 602,739 174,1481 1456,739 174,0 Z M 1358,739 L 309,1346 659,739 1358,739 Z"
   id="path5" />
  </g>
  <g
   id="bullet-char-template-10132"
   transform="scale(0.00048828125,-0.00048828125)">
   <path
   d="M 2015,739 L 1276,0 717,0 1260,543 174,543 174,936 1260,936 717,1481 1274,1481 2015,739 Z"
   id="path6" />
  </g>
  <g
   id="bullet-char-template-10007"
   transform="scale(0.00048828125,-0.00048828125)">
   <path
   d="M 0,-2 C -7,14 -16,27 -25,37 L 356,567 C 262,823 215,952 215,954 215,979 228,992 255,992 264,992 276,990 289,987 310,991 331,999 354,1012 L 381,999 492,748 772,1049 836,1024 860,1049 C 881,1039 901,1025 922,1006 886,937 835,863 770,784 769,783 710,716 594,584 L 774,223 C 774,196 753,168 711,139 L 727,119 C 717,90 699,76 672,76 641,76 570,178 457,381 L 164,-76 C 142,-110 111,-127 72,-127 30,-127 9,-110 8,-76 1,-67 -2,-52 -2,-32 -2,-23 -1,-13 0,-2 Z"
   id="path7" />
  </g>
  <g
   id="bullet-char-template-10004"
   transform="scale(0.00048828125,-0.00048828125)">
   <path
   d="M 285,-33 C 182,-33 111,30 74,156 52,228 41,333 41,471 41,549 55,616 82,672 116,743 169,778 240,778 293,778 328,747 346,684 L 369,508 C 377,444 397,411 428,410 L 1163,1116 C 1174,1127 1196,1133 1229,1133 1271,1133 1292,1118 1292,1087 L 1292,965 C 1292,929 1282,901 1262,881 L 442,47 C 390,-6 338,-33 285,-33 Z"
   id="path8" />
  </g>
  <g
   id="bullet-char-template-9679"
   transform="scale(0.00048828125,-0.00048828125)">
   <path
   d="M 813,0 C 632,0 489,54 383,161 276,268 223,411 223,592 223,773 276,916 383,1023 489,1130 632,1184 813,1184 992,1184 1136,1130 1245,1023 1353,916 1407,772 1407,592 1407,412 1353,268 1245,161 1136,54 992,0 813,0 Z"
   id="path9" />
  </g>
  <g
   id="bullet-char-template-8226"
   transform="scale(0.00048828125,-0.00048828125)">
   <path
   d="M 346,457 C 273,457 209,483 155,535 101,586 74,649 74,723 74,796 101,859 155,911 209,963 273,989 346,989 419,989 480,963 531,910 582,859 608,796 608,723 608,648 583,586 532,535 482,483 420,457 346,457 Z"
   id="path10" />
  </g>
  <g
   id="bullet-char-template-8211"
   transform="scale(0.00048828125,-0.00048828125)">
   <path
   d="M -4,459 L 1135,459 1135,606 -4,606 -4,459 Z"
   id="path11" />
  </g>
  <g
   id="bullet-char-template-61548"
   transform="scale(0.00048828125,-0.00048828125)">
   <path
   d="M 173,740 C 173,903 231,1043 346,1159 462,1274 601,1332 765,1332 928,1332 1067,1274 1183,1159 1299,1043 1357,903 1357,740 1357,577 1299,437 1183,322 1067,206 928,148 765,148 601,148 462,206 346,322 231,437 173,577 173,740 Z"
   id="path12" />
  </g>
 </defs>
 
 <path
   id="path13"
   d="M 6930.7914 300.80851 C 6917.7733 300.79728 6904.2062 301.18457 6890.0187 301.99707 C 6716.6968 311.2 6556.3906 358.66011 6481.5681 447.93131 C 6476.5209 452.43334 6472.2944 457.74197 6469.0108 464.00268 C 6468.5572 464.88531 6467.8927 465.93553 6467.4088 466.84489 C 6463.4985 472.76384 6459.9535 478.8402 6456.7635 485.08667 C 6359.8484 641.15181 5968.2195 1054.9368 5851.219 1191.0384 C 5847.3006 1195.3189 5843.4958 1199.8828 5839.6952 1204.4226 C 5836.4613 1208.2796 5830.5854 1214.8243 5828.0163 1218.0135 C 5825.6963 1220.8936 5823.5903 1224.1529 5821.6084 1227.5736 C 5808.0691 1246.1727 5795.188 1266.4579 5783.0061 1289.0169 C 5701.0061 1440.0169 5713.9781 1651.0196 5775.9781 1753.0196 C 5831.5853 1844.5023 5949.9025 1818.4109 6057.408 1755.8101 C 6228.2577 1670.5733 6916.5028 1037.8314 7008.9778 845.99487 C 7009.0425 845.86135 7009.0687 845.71509 7009.1328 845.58146 C 7052.6901 775.14806 7083.7802 703.61967 7101.9954 649.98616 C 7189.1829 395.92366 7126.0624 300.97697 6930.7914 300.80851 z M 5604.8258 409.7941 C 5591.8077 409.78287 5578.1889 410.17016 5564.0014 410.98266 C 5390.7966 420.17938 5230.645 467.65912 5155.7576 556.81355 C 5150.6471 561.34172 5146.308 566.66868 5142.9935 572.98828 C 5142.4981 573.95238 5141.7681 575.09289 5141.2365 576.08886 C 5137.501 581.76195 5134.1314 587.63369 5131.0563 593.60717 C 5034.6921 749.22475 4642.7489 1163.3632 4525.4085 1299.8173 C 4521.227 1304.3781 4517.1571 1309.2241 4513.1095 1314.08 C 4510.0662 1317.7154 4504.4409 1323.9679 4501.9991 1326.9991 C 4499.9181 1329.5823 4498.1231 1332.6093 4496.3147 1335.6291 C 4482.5172 1354.4805 4469.3795 1375.0569 4456.9889 1398.0025 C 4374.9889 1549.0025 4388.0126 1760.0052 4450.0126 1862.0052 C 4505.6277 1953.501 4623.9763 1927.416 4731.4941 1864.7957 C 4902.4689 1779.4126 5590.5506 1146.7892 5683.0122 954.98046 C 5683.0533 954.89585 5683.0748 954.80674 5683.1156 954.72208 C 5726.7037 884.25808 5757.7548 812.68101 5775.9781 759.02343 C 5863.1656 504.96093 5800.0968 409.96256 5604.8258 409.7941 z M 5537.8531 2124.7799 C 5436.1771 2123.5906 5331.5847 2128.5869 5224.0222 2140.0244 C 3502.0222 2324.0244 2151.0037 3951.9803 2013.0037 5866.9803 C 1874.0037 7781.9803 2869.0063 9014.015 4849.0063 8855.015 C 6829.0063 8695.015 8076.9795 7142.9822 7996.9795 5285.9822 C 7921.9795 3545.9822 7062.9935 2142.618 5537.8531 2124.7799 z M 5379.1548 2847.0613 C 6618.1856 2859.1536 7304.4909 4291.8888 7386.9909 5700.0138 C 7473.9909 7201.0138 5993.9826 8168.9805 4855.9826 8107.9805 C 3718.9826 8046.9805 2469.0105 7593.9803 2622.0105 5866.9803 C 2774.0105 4139.9803 3723.9766 3060.0112 5123.9766 2864.0112 C 5211.4766 2851.7612 5296.5528 2846.2552 5379.1548 2847.0613 z " />
   
  
</svg>
