<?xml version="1.0" encoding="UTF-8" standalone="no"?>
<svg
   version="1.2"
   width="100mm"
   height="100mm"
   viewBox="0 0 10000 10000"
   preserveAspectRatio="xMidYMid"
   fill-rule="evenodd"
   stroke-width="28.222"
   stroke-linejoin="round"
   xml:space="preserve"
   id="svg27"
   sodipodi:docname="gobo-caps-017E.svg"
   inkscape:version="1.4 (86a8ad7, 2024-10-11)"
   xmlns:inkscape="http://www.inkscape.org/namespaces/inkscape"
   xmlns:sodipodi="http://sodipodi.sourceforge.net/DTD/sodipodi-0.dtd"
   xmlns="http://www.w3.org/2000/svg"
   xmlns:svg="http://www.w3.org/2000/svg"
   xmlns:ooo="http://xml.openoffice.org/svg/export"><sodipodi:namedview
   id="namedview27"
   pagecolor="#ffffff"
   bordercolor="#000000"
   borderopacity="0.25"
   inkscape:showpageshadow="2"
   inkscape:pageopacity="0.0"
   inkscape:pagecheckerboard="0"
   inkscape:deskcolor="#d1d1d1"
   inkscape:document-units="mm"
   showgrid="false"
   inkscape:zoom="3.0876875"
   inkscape:cx="188.81444"
   inkscape:cy="188.97638"
   inkscape:window-width="2560"
   inkscape:window-height="1369"
   inkscape:window-x="-8"
   inkscape:window-y="-8"
   inkscape:window-maximized="1"
   inkscape:current-layer="svg27" />
 <defs
   class="ClipPathGroup"
   id="defs2">
  
  <clipPath
   id="presentation_clip_path_shrink"
   clipPathUnits="userSpaceOnUse">
   <rect
   x="10"
   y="10"
   width="9980"
   height="9980"
   id="rect2" />
  </clipPath>
 
  
 
   
  
    
   
     
    
      
      
      
      
      
      
      
      
      
      
      
      
     
       
      
       
      
       
      
       
      
       
      
       
      
       
      
       
      
       
      
       
      
       
      
       
      
        
        
       
        
        
       
        
        
       
        
        
       
        
        
       
        
        
       
        
        
       
        
        
       
        
        
       
        
        
       
        
        
       
        
        
       </defs>
 <defs
   class="TextShapeIndex"
   id="defs3">
  <g
   ooo:slide="id1"
   ooo:id-list="id3 id4 id5 id6 id7 id8 id9 id10 id11 id12 id13 id14"
   id="g2" />
 </defs>
 <defs
   class="EmbeddedBulletChars"
   id="defs12">
  <g
   id="bullet-char-template-57356"
   transform="scale(0.00048828125,-0.00048828125)">
   <path
   d="M 580,1141 L 1163,571 580,0 -4,571 580,1141 Z"
   id="path3" />
  </g>
  <g
   id="bullet-char-template-57354"
   transform="scale(0.00048828125,-0.00048828125)">
   <path
   d="M 8,1128 L 1137,1128 1137,0 8,0 8,1128 Z"
   id="path4" />
  </g>
  <g
   id="bullet-char-template-10146"
   transform="scale(0.00048828125,-0.00048828125)">
   <path
   d="M 174,0 L 602,739 174,1481 1456,739 174,0 Z M 1358,739 L 309,1346 659,739 1358,739 Z"
   id="path5" />
  </g>
  <g
   id="bullet-char-template-10132"
   transform="scale(0.00048828125,-0.00048828125)">
   <path
   d="M 2015,739 L 1276,0 717,0 1260,543 174,543 174,936 1260,936 717,1481 1274,1481 2015,739 Z"
   id="path6" />
  </g>
  <g
   id="bullet-char-template-10007"
   transform="scale(0.00048828125,-0.00048828125)">
   <path
   d="M 0,-2 C -7,14 -16,27 -25,37 L 356,567 C 262,823 215,952 215,954 215,979 228,992 255,992 264,992 276,990 289,987 310,991 331,999 354,1012 L 381,999 492,748 772,1049 836,1024 860,1049 C 881,1039 901,1025 922,1006 886,937 835,863 770,784 769,783 710,716 594,584 L 774,223 C 774,196 753,168 711,139 L 727,119 C 717,90 699,76 672,76 641,76 570,178 457,381 L 164,-76 C 142,-110 111,-127 72,-127 30,-127 9,-110 8,-76 1,-67 -2,-52 -2,-32 -2,-23 -1,-13 0,-2 Z"
   id="path7" />
  </g>
  <g
   id="bullet-char-template-10004"
   transform="scale(0.00048828125,-0.00048828125)">
   <path
   d="M 285,-33 C 182,-33 111,30 74,156 52,228 41,333 41,471 41,549 55,616 82,672 116,743 169,778 240,778 293,778 328,747 346,684 L 369,508 C 377,444 397,411 428,410 L 1163,1116 C 1174,1127 1196,1133 1229,1133 1271,1133 1292,1118 1292,1087 L 1292,965 C 1292,929 1282,901 1262,881 L 442,47 C 390,-6 338,-33 285,-33 Z"
   id="path8" />
  </g>
  <g
   id="bullet-char-template-9679"
   transform="scale(0.00048828125,-0.00048828125)">
   <path
   d="M 813,0 C 632,0 489,54 383,161 276,268 223,411 223,592 223,773 276,916 383,1023 489,1130 632,1184 813,1184 992,1184 1136,1130 1245,1023 1353,916 1407,772 1407,592 1407,412 1353,268 1245,161 1136,54 992,0 813,0 Z"
   id="path9" />
  </g>
  <g
   id="bullet-char-template-8226"
   transform="scale(0.00048828125,-0.00048828125)">
   <path
   d="M 346,457 C 273,457 209,483 155,535 101,586 74,649 74,723 74,796 101,859 155,911 209,963 273,989 346,989 419,989 480,963 531,910 582,859 608,796 608,723 608,648 583,586 532,535 482,483 420,457 346,457 Z"
   id="path10" />
  </g>
  <g
   id="bullet-char-template-8211"
   transform="scale(0.00048828125,-0.00048828125)">
   <path
   d="M -4,459 L 1135,459 1135,606 -4,606 -4,459 Z"
   id="path11" />
  </g>
  <g
   id="bullet-char-template-61548"
   transform="scale(0.00048828125,-0.00048828125)">
   <path
   d="M 173,740 C 173,903 231,1043 346,1159 462,1274 601,1332 765,1332 928,1332 1067,1274 1183,1159 1299,1043 1357,903 1357,740 1357,577 1299,437 1183,322 1067,206 928,148 765,148 601,148 462,206 346,322 231,437 173,577 173,740 Z"
   id="path12" />
  </g>
 </defs>
 
 <path
   id="path13"
   d="M 6320.0793 1142.1525 C 6314.843 1142.2816 6309.5079 1142.5418 6304.0079 1142.9793 C 6263.1621 1146.4804 6226.0923 1152.4508 6192.0251 1161.2728 C 5805.5794 1243.0562 5376.9477 1542.5623 5088.2682 1801.3371 C 4787.1488 1617.6579 4318.237 1396.6545 3906.9966 1369.9939 C 3904.5203 1369.9758 3902.036 1370.4635 3899.5552 1370.5623 C 3888.0616 1369.915 3875.9581 1369.9466 3863.02 1370.9757 C 3688.02 1385.9757 3579.9777 1443.9931 3497.9777 1594.9931 C 3416.9777 1745.9931 3429.9832 1956.0139 3491.9832 2058.0139 C 3516.6939 2098.6669 3553.9835 2116.082 3597.1447 2117.4418 C 3598.1429 2117.5733 3598.9727 2117.898 3599.987 2118.0102 C 4218.987 2190.0102 4764.0051 2649.0047 4869.0051 2759.0047 C 4873.5407 2763.7563 4878.9072 2766.8408 4884.9214 2768.6165 C 4963.4675 2829.2633 5033.6165 2798.2498 5148.988 2713.0127 C 5175.3029 2693.7675 5199.709 2671.3794 5222.3685 2647.1769 C 5231.0831 2642.6034 5238.7553 2636.3549 5245.0028 2628.0049 C 5349.0028 2487.0049 5915.9817 1978.9981 6182.9817 1850.9981 C 6193.3931 1846.0849 6203.233 1840.197 6212.799 1833.8932 C 6225.7331 1826.3842 6238.5305 1818.4681 6250.9879 1810.0187 C 6366.9879 1730.0187 6454.976 1623.0253 6487.976 1448.0253 C 6518.976 1280.4315 6482.4055 1138.1517 6320.0793 1142.1525 z M 6643.0053 3053.9738 C 6629.9323 3053.9003 6616.2242 3054.2573 6601.9742 3055.0073 C 6583.6605 3056.0654 6565.5704 3057.6839 6547.6106 3059.6065 C 6248.6603 3071.3517 5505.7368 3114.3028 4861.9771 3180.9944 C 4242.3853 3245.3676 3879.4092 3287.5291 3521.4388 3349.3046 C 3483.2024 3353.8798 3446.2422 3360.4194 3411.2646 3368.9416 C 3405.4958 3370.0048 3399.7852 3370.9148 3394.0047 3371.9905 C 3388.3186 3373.0943 3382.8034 3375.2149 3377.4166 3377.985 C 3248.7724 3415.7234 3153.9924 3482.8309 3140.015 3582.0036 C 3118.015 3732.0036 3141.0062 3978.0164 3243.0062 4091.0164 C 3283.618 4135.8151 3319.8356 4157.0654 3358.1413 4159.436 C 3362.4816 4159.9625 3366.9556 4159.9889 3371.5771 4159.5394 C 3384.3706 4158.8932 3397.5256 4156.0015 3411.1613 4151.5295 C 3641.2827 4096.2584 4418.8791 3960.9267 4969.9808 3903.0175 C 5215.7101 3876.8121 5487.4163 3866.201 5728.2808 3862.9683 C 5375.3205 4365.3249 4949.8395 4970.9444 4613 5444.9906 C 4096 6172.9906 3304.9941 7259.9787 3143.9941 7586.9787 C 3141.2996 7591.213 3139.7999 7596.0751 3138.7748 7601.1897 C 3133.7022 7613.8561 3130.0263 7627.0838 3127.9744 7640.9806 C 3105.9744 7789.9806 3128.9991 8035.9934 3231.9991 8149.9934 C 3268.435 8190.2247 3301.57 8211.3835 3335.9721 8216.8111 C 3345.4487 8219.6795 3355.7536 8219.7995 3366.7195 8217.5862 C 3377.3995 8216.5145 3388.4102 8213.9632 3399.6891 8210.2998 C 3631.204 8153.432 4423.143 8008.8568 4974.9935 7950.0056 C 5546.9935 7889.0056 6139.0227 7843.9837 6400.0227 7842.9837 C 6401.6195 7843.0872 6403.3621 7842.4173 6405.0354 7842.1569 C 6455.1988 7840.6157 6510.042 7808.4879 6583.009 7754.9788 C 6716.009 7656.9788 6804.014 7480.002 6839.014 7375.002 C 6932.014 7104.002 6853.9856 7013.9794 6626.9856 7025.9794 C 6591.508 7027.8548 6556.752 7031.5576 6523.0126 7036.6764 C 6199.6997 7070.7681 5516.1018 7171.8607 4923.007 7232.9951 C 4601.7436 7266.6042 4320.8564 7296.7917 4069.5707 7328.0281 C 4379.0061 6825.1793 4820.643 6131.2683 5167.0231 5632.9895 C 5711.0231 4849.9895 6445.0084 3948.9931 6677.0084 3667.9931 C 6679.5939 3664.884 6681.4587 3661.358 6682.8478 3657.5028 C 6747.6635 3570.3762 6792.4051 3472.7499 6814.9845 3405.0118 C 6902.172 3150.9493 6839.1003 3055.0761 6643.0053 3053.9738 z " />
   
  
</svg>
