<?xml version="1.0" encoding="UTF-8" standalone="no"?>
<svg
   version="1.2"
   width="100mm"
   height="100mm"
   viewBox="0 0 10000 10000"
   preserveAspectRatio="xMidYMid"
   fill-rule="evenodd"
   stroke-width="28.222"
   stroke-linejoin="round"
   xml:space="preserve"
   id="svg23"
   sodipodi:docname="gobo-caps-011E.svg"
   inkscape:version="1.4 (86a8ad7, 2024-10-11)"
   xmlns:inkscape="http://www.inkscape.org/namespaces/inkscape"
   xmlns:sodipodi="http://sodipodi.sourceforge.net/DTD/sodipodi-0.dtd"
   xmlns="http://www.w3.org/2000/svg"
   xmlns:svg="http://www.w3.org/2000/svg"
   xmlns:ooo="http://xml.openoffice.org/svg/export"><sodipodi:namedview
   id="namedview23"
   pagecolor="#ffffff"
   bordercolor="#000000"
   borderopacity="0.25"
   inkscape:showpageshadow="2"
   inkscape:pageopacity="0.0"
   inkscape:pagecheckerboard="0"
   inkscape:deskcolor="#d1d1d1"
   inkscape:document-units="mm"
   showgrid="false"
   inkscape:zoom="3.0876875"
   inkscape:cx="188.81444"
   inkscape:cy="188.97638"
   inkscape:window-width="2560"
   inkscape:window-height="1369"
   inkscape:window-x="-8"
   inkscape:window-y="-8"
   inkscape:window-maximized="1"
   inkscape:current-layer="svg23" />
 <defs
   class="ClipPathGroup"
   id="defs2">
  
  <clipPath
   id="presentation_clip_path_shrink"
   clipPathUnits="userSpaceOnUse">
   <rect
   x="10"
   y="10"
   width="9980"
   height="9980"
   id="rect2" />
  </clipPath>
 
  
 
   
  
    
   
     
    
      
      
      
      
      
      
      
      
     
       
      
       
      
       
      
       
      
       
      
       
      
       
      
       
      
        
        
       
        
        
       
        
        
       
        
        
       
        
        
       
        
        
       
        
        
       
        
        
       </defs>
 <defs
   class="TextShapeIndex"
   id="defs3">
  <g
   ooo:slide="id1"
   ooo:id-list="id3 id4 id5 id6 id7 id8 id9 id10"
   id="g2" />
 </defs>
 <defs
   class="EmbeddedBulletChars"
   id="defs12">
  <g
   id="bullet-char-template-57356"
   transform="scale(0.00048828125,-0.00048828125)">
   <path
   d="M 580,1141 L 1163,571 580,0 -4,571 580,1141 Z"
   id="path3" />
  </g>
  <g
   id="bullet-char-template-57354"
   transform="scale(0.00048828125,-0.00048828125)">
   <path
   d="M 8,1128 L 1137,1128 1137,0 8,0 8,1128 Z"
   id="path4" />
  </g>
  <g
   id="bullet-char-template-10146"
   transform="scale(0.00048828125,-0.00048828125)">
   <path
   d="M 174,0 L 602,739 174,1481 1456,739 174,0 Z M 1358,739 L 309,1346 659,739 1358,739 Z"
   id="path5" />
  </g>
  <g
   id="bullet-char-template-10132"
   transform="scale(0.00048828125,-0.00048828125)">
   <path
   d="M 2015,739 L 1276,0 717,0 1260,543 174,543 174,936 1260,936 717,1481 1274,1481 2015,739 Z"
   id="path6" />
  </g>
  <g
   id="bullet-char-template-10007"
   transform="scale(0.00048828125,-0.00048828125)">
   <path
   d="M 0,-2 C -7,14 -16,27 -25,37 L 356,567 C 262,823 215,952 215,954 215,979 228,992 255,992 264,992 276,990 289,987 310,991 331,999 354,1012 L 381,999 492,748 772,1049 836,1024 860,1049 C 881,1039 901,1025 922,1006 886,937 835,863 770,784 769,783 710,716 594,584 L 774,223 C 774,196 753,168 711,139 L 727,119 C 717,90 699,76 672,76 641,76 570,178 457,381 L 164,-76 C 142,-110 111,-127 72,-127 30,-127 9,-110 8,-76 1,-67 -2,-52 -2,-32 -2,-23 -1,-13 0,-2 Z"
   id="path7" />
  </g>
  <g
   id="bullet-char-template-10004"
   transform="scale(0.00048828125,-0.00048828125)">
   <path
   d="M 285,-33 C 182,-33 111,30 74,156 52,228 41,333 41,471 41,549 55,616 82,672 116,743 169,778 240,778 293,778 328,747 346,684 L 369,508 C 377,444 397,411 428,410 L 1163,1116 C 1174,1127 1196,1133 1229,1133 1271,1133 1292,1118 1292,1087 L 1292,965 C 1292,929 1282,901 1262,881 L 442,47 C 390,-6 338,-33 285,-33 Z"
   id="path8" />
  </g>
  <g
   id="bullet-char-template-9679"
   transform="scale(0.00048828125,-0.00048828125)">
   <path
   d="M 813,0 C 632,0 489,54 383,161 276,268 223,411 223,592 223,773 276,916 383,1023 489,1130 632,1184 813,1184 992,1184 1136,1130 1245,1023 1353,916 1407,772 1407,592 1407,412 1353,268 1245,161 1136,54 992,0 813,0 Z"
   id="path9" />
  </g>
  <g
   id="bullet-char-template-8226"
   transform="scale(0.00048828125,-0.00048828125)">
   <path
   d="M 346,457 C 273,457 209,483 155,535 101,586 74,649 74,723 74,796 101,859 155,911 209,963 273,989 346,989 419,989 480,963 531,910 582,859 608,796 608,723 608,648 583,586 532,535 482,483 420,457 346,457 Z"
   id="path10" />
  </g>
  <g
   id="bullet-char-template-8211"
   transform="scale(0.00048828125,-0.00048828125)">
   <path
   d="M -4,459 L 1135,459 1135,606 -4,606 -4,459 Z"
   id="path11" />
  </g>
  <g
   id="bullet-char-template-61548"
   transform="scale(0.00048828125,-0.00048828125)">
   <path
   d="M 173,740 C 173,903 231,1043 346,1159 462,1274 601,1332 765,1332 928,1332 1067,1274 1183,1159 1299,1043 1357,903 1357,740 1357,577 1299,437 1183,322 1067,206 928,148 765,148 601,148 462,206 346,322 231,437 173,577 173,740 Z"
   id="path12" />
  </g>
 </defs>
 
 <path
   id="path13"
   d="M 6687.8088 200.14282 C 6674.7907 200.02197 6661.1719 200.33382 6646.9844 201.02132 C 6433.3646 213.30919 6239.5158 283.68154 6201.1718 417.18383 C 6101.8316 663.59461 5986.8462 1051.6226 5427.0072 1119.0015 C 4862.0072 1187.0015 4677.0034 760.01009 4516.0034 512.01009 C 4515.0469 510.53682 4513.8426 509.40377 4512.8511 507.97933 C 4479.9948 444.13532 4401.2875 421.12485 4279.9971 427.00236 C 4053.9971 440.00236 3850.0169 517.98771 3829.0169 666.98771 C 3809.6678 792.33638 3822.8531 986.34113 3888.8582 1112.6453 C 3888.9167 1112.7659 3888.9546 1112.8864 3889.0132 1113.007 C 3889.1481 1113.2644 3889.2914 1113.5253 3889.4266 1113.7821 C 4085.8434 1516.5049 4702.4179 1905.9484 5385.9761 1839.991 C 6068.9761 1773.991 6647.9986 1088.9886 6836.9986 609.9886 C 6839.1074 604.6442 6840.4889 599.70302 6842.373 594.48567 C 6848.7416 578.69271 6854.3481 563.72737 6859.0128 549.99226 C 6946.2003 296.86726 6883.0798 201.95556 6687.8088 200.14282 z M 5552.8393 2125.9167 C 5474.3342 2127.9189 5392.7464 2132.5869 5307.9964 2140.0244 C 3951.9964 2259.0244 2753.0009 3720.9898 2483.0009 5669.9898 C 2213.0009 7618.9898 3346.0206 9044.0036 5039.0206 8830.0036 C 6733.0206 8616.0036 7298.9894 6536.996 7537.9894 5737.996 C 7540.7067 5728.8491 7541.9176 5720.0421 7542.4336 5711.3826 C 7581.554 5525.0412 7502.8933 5456.8888 7318.623 5462.3539 C 7310.2661 5462.0721 7302.1116 5461.5627 7292.9915 5461.9921 C 6845.9915 5483.9921 6619.979 5479.9829 6185.979 5527.9829 C 5752.979 5576.9829 5654.0127 5608.0122 5253.0127 5683.0122 C 5247.6064 5683.981 5242.3502 5685.6623 5237.303 5688.0765 C 5091.9341 5723.6545 4981.1646 5793.7109 4966.0018 5902.017 C 4943.0018 6051.017 4965.9929 6296.9781 5068.9929 6410.9781 C 5119.8002 6467.0778 5164.1905 6486.2239 5214.5654 6477.124 C 5215.0576 6477.0184 5215.5165 6477.1526 5216.0123 6477.0206 C 5216.8667 6476.7814 5218.2523 6476.3833 5219.1129 6476.1421 C 5225.398 6474.8067 5231.832 6472.9445 5238.3365 6470.7678 C 5468.4826 6405.9999 5892.0114 6282.2629 6212.0239 6256.0005 C 6391.3921 6241.8255 6569.9391 6246.2212 6727.7547 6254.967 C 6484.8283 7155.8877 6003.8758 8068.5196 5046.9787 8098.9888 C 3884.9787 8136.9888 2979.0242 7185.984 3074.0242 5806.984 C 3169.0242 4427.984 3826.9861 3503.991 4459.9861 3109.991 C 5093.9861 2716.991 6402.9746 2700.9997 6806.9746 3940.9997 C 6814.4043 3963.7614 6824.3031 3981.8896 6835.9651 3996.4485 C 6845.9025 4013.2288 6856.8775 4028.5608 6868.9864 4041.9755 C 6965.9864 4147.9755 7037.9988 4122.0102 7172.9988 4023.0102 C 7306.9988 3926.0102 7393.9857 3747.9999 7429.9857 3641.9999 C 7466.6439 3535.9671 7476.5983 3457.6895 7461.405 3402.3763 C 7461.0903 3400.9915 7461.3399 3399.3524 7460.9916 3397.9838 C 7220.0541 2662.9838 6730.4162 2095.8838 5552.8393 2125.9167 z " />
   
  
</svg>
