<?xml version="1.0" encoding="UTF-8" standalone="no"?>
<svg
   version="1.2"
   width="100mm"
   height="100mm"
   viewBox="0 0 10000 10000"
   preserveAspectRatio="xMidYMid"
   fill-rule="evenodd"
   stroke-width="28.222"
   stroke-linejoin="round"
   xml:space="preserve"
   id="svg23"
   sodipodi:docname="gobo-caps-0161.svg"
   inkscape:version="1.4 (86a8ad7, 2024-10-11)"
   xmlns:inkscape="http://www.inkscape.org/namespaces/inkscape"
   xmlns:sodipodi="http://sodipodi.sourceforge.net/DTD/sodipodi-0.dtd"
   xmlns="http://www.w3.org/2000/svg"
   xmlns:svg="http://www.w3.org/2000/svg"
   xmlns:ooo="http://xml.openoffice.org/svg/export"><sodipodi:namedview
   id="namedview23"
   pagecolor="#ffffff"
   bordercolor="#000000"
   borderopacity="0.25"
   inkscape:showpageshadow="2"
   inkscape:pageopacity="0.0"
   inkscape:pagecheckerboard="0"
   inkscape:deskcolor="#d1d1d1"
   inkscape:document-units="mm"
   showgrid="false"
   inkscape:zoom="3.0876875"
   inkscape:cx="188.81444"
   inkscape:cy="188.97638"
   inkscape:window-width="2560"
   inkscape:window-height="1369"
   inkscape:window-x="-8"
   inkscape:window-y="-8"
   inkscape:window-maximized="1"
   inkscape:current-layer="svg23" />
 <defs
   class="ClipPathGroup"
   id="defs2">
  
  <clipPath
   id="presentation_clip_path_shrink"
   clipPathUnits="userSpaceOnUse">
   <rect
   x="10"
   y="10"
   width="9980"
   height="9980"
   id="rect2" />
  </clipPath>
 
  
 
   
  
    
   
     
    
      
      
      
      
      
      
      
      
     
       
      
       
      
       
      
       
      
       
      
       
      
       
      
       
      
        
        
       
        
        
       
        
        
       
        
        
       
        
        
       
        
        
       
        
        
       
        
        
       </defs>
 <defs
   class="TextShapeIndex"
   id="defs3">
  <g
   ooo:slide="id1"
   ooo:id-list="id3 id4 id5 id6 id7 id8 id9 id10"
   id="g2" />
 </defs>
 <defs
   class="EmbeddedBulletChars"
   id="defs12">
  <g
   id="bullet-char-template-57356"
   transform="scale(0.00048828125,-0.00048828125)">
   <path
   d="M 580,1141 L 1163,571 580,0 -4,571 580,1141 Z"
   id="path3" />
  </g>
  <g
   id="bullet-char-template-57354"
   transform="scale(0.00048828125,-0.00048828125)">
   <path
   d="M 8,1128 L 1137,1128 1137,0 8,0 8,1128 Z"
   id="path4" />
  </g>
  <g
   id="bullet-char-template-10146"
   transform="scale(0.00048828125,-0.00048828125)">
   <path
   d="M 174,0 L 602,739 174,1481 1456,739 174,0 Z M 1358,739 L 309,1346 659,739 1358,739 Z"
   id="path5" />
  </g>
  <g
   id="bullet-char-template-10132"
   transform="scale(0.00048828125,-0.00048828125)">
   <path
   d="M 2015,739 L 1276,0 717,0 1260,543 174,543 174,936 1260,936 717,1481 1274,1481 2015,739 Z"
   id="path6" />
  </g>
  <g
   id="bullet-char-template-10007"
   transform="scale(0.00048828125,-0.00048828125)">
   <path
   d="M 0,-2 C -7,14 -16,27 -25,37 L 356,567 C 262,823 215,952 215,954 215,979 228,992 255,992 264,992 276,990 289,987 310,991 331,999 354,1012 L 381,999 492,748 772,1049 836,1024 860,1049 C 881,1039 901,1025 922,1006 886,937 835,863 770,784 769,783 710,716 594,584 L 774,223 C 774,196 753,168 711,139 L 727,119 C 717,90 699,76 672,76 641,76 570,178 457,381 L 164,-76 C 142,-110 111,-127 72,-127 30,-127 9,-110 8,-76 1,-67 -2,-52 -2,-32 -2,-23 -1,-13 0,-2 Z"
   id="path7" />
  </g>
  <g
   id="bullet-char-template-10004"
   transform="scale(0.00048828125,-0.00048828125)">
   <path
   d="M 285,-33 C 182,-33 111,30 74,156 52,228 41,333 41,471 41,549 55,616 82,672 116,743 169,778 240,778 293,778 328,747 346,684 L 369,508 C 377,444 397,411 428,410 L 1163,1116 C 1174,1127 1196,1133 1229,1133 1271,1133 1292,1118 1292,1087 L 1292,965 C 1292,929 1282,901 1262,881 L 442,47 C 390,-6 338,-33 285,-33 Z"
   id="path8" />
  </g>
  <g
   id="bullet-char-template-9679"
   transform="scale(0.00048828125,-0.00048828125)">
   <path
   d="M 813,0 C 632,0 489,54 383,161 276,268 223,411 223,592 223,773 276,916 383,1023 489,1130 632,1184 813,1184 992,1184 1136,1130 1245,1023 1353,916 1407,772 1407,592 1407,412 1353,268 1245,161 1136,54 992,0 813,0 Z"
   id="path9" />
  </g>
  <g
   id="bullet-char-template-8226"
   transform="scale(0.00048828125,-0.00048828125)">
   <path
   d="M 346,457 C 273,457 209,483 155,535 101,586 74,649 74,723 74,796 101,859 155,911 209,963 273,989 346,989 419,989 480,963 531,910 582,859 608,796 608,723 608,648 583,586 532,535 482,483 420,457 346,457 Z"
   id="path10" />
  </g>
  <g
   id="bullet-char-template-8211"
   transform="scale(0.00048828125,-0.00048828125)">
   <path
   d="M -4,459 L 1135,459 1135,606 -4,606 -4,459 Z"
   id="path11" />
  </g>
  <g
   id="bullet-char-template-61548"
   transform="scale(0.00048828125,-0.00048828125)">
   <path
   d="M 173,740 C 173,903 231,1043 346,1159 462,1274 601,1332 765,1332 928,1332 1067,1274 1183,1159 1299,1043 1357,903 1357,740 1357,577 1299,437 1183,322 1067,206 928,148 765,148 601,148 462,206 346,322 231,437 173,577 173,740 Z"
   id="path12" />
  </g>
 </defs>
 
 <path
   id="path13"
   d="M 6277.0845 1200.1335 C 6271.8482 1200.2625 6266.5131 1200.5745 6261.0131 1201.012 C 6220.0842 1204.5202 6182.9473 1210.5051 6148.8236 1219.3571 C 5762.4324 1301.2047 5333.9006 1600.5902 5045.2734 1859.318 C 4744.154 1675.6388 4275.2422 1454.6355 3864.0018 1427.9748 C 3861.4401 1427.9561 3858.8686 1428.4369 3856.3021 1428.5433 C 3844.885 1427.9132 3832.865 1427.987 3820.0252 1429.0084 C 3645.0252 1444.0084 3536.9829 1502.0257 3454.9829 1653.0257 C 3373.9829 1804.0257 3386.9884 2013.9949 3448.9884 2115.9949 C 3473.6991 2156.6479 3510.9887 2174.0629 3554.15 2175.4228 C 3555.1481 2175.5543 3555.9779 2175.8789 3556.9922 2175.9912 C 4175.9922 2247.9912 4721.0103 2706.9857 4826.0103 2816.9857 C 4830.5605 2821.7526 4835.9402 2824.877 4841.9783 2826.6491 C 4920.5057 2887.2481 4990.6444 2856.214 5105.9932 2770.9936 C 5132.3187 2751.7407 5156.7583 2729.3716 5179.4254 2705.1579 C 5188.1238 2700.5858 5195.7697 2694.3236 5202.008 2685.9859 C 5306.008 2544.9859 5872.9869 2036.9791 6139.9869 1908.9791 C 6150.3765 1904.0761 6160.2048 1898.2137 6169.7526 1891.9258 C 6182.702 1884.4094 6195.5213 1876.4588 6207.9931 1867.9997 C 6323.9931 1787.9997 6411.9812 1681.0063 6444.9812 1506.0063 C 6475.9812 1338.4125 6439.4107 1196.1326 6277.0845 1200.1335 z M 5510.4646 3140.3768 C 5464.9419 3138.8865 5417.7871 3139.0594 5368.9746 3140.9969 C 4586.9746 3170.9969 3685.9921 3641.0087 3388.9921 4641.0087 C 3090.9921 5642.0087 3779.9935 6161.0057 4339.9935 6213.0057 C 4899.9935 6265.0057 5614.9884 5983.0087 5988.9884 6546.0087 C 6362.9884 7110.0087 5491.9951 7282.0041 5159.9951 7298.0041 C 4828.9951 7314.0041 4329.9817 7317.0144 4109.9817 6876.0144 C 4109.0522 6874.1776 4107.7288 6872.995 4106.6744 6871.3635 C 4072.555 6810.2623 3994.3893 6788.1789 3875.0089 6794.9857 C 3649.0089 6807.9857 3446.0106 6884.9892 3425.0106 7033.9892 C 3402.0106 7183.9892 3425.0198 7429.0021 3527.0198 7543.0021 C 3539.5985 7556.7478 3551.7287 7568.242 3563.6584 7577.6769 C 4001.8913 8037.7429 4681.9617 8129.2849 5336.005 7990.985 C 6017.005 7845.985 6705.0001 7446.9862 6686.0001 6532.9862 C 6667.0001 5618.9862 5925.016 5335.0004 5156.016 5453.0004 C 4387.016 5571.0004 3575.9804 5136.9965 4129.9804 4373.9965 C 4666.1698 3636.857 5797.6039 3849.015 5927.8035 4374.6167 C 5942.2323 4476.7923 5974.0847 4576.1559 6028.986 4636.9779 C 6125.986 4742.9779 6197.9984 4717.0127 6332.9984 4618.0127 C 6465.9984 4521.0127 6553.9853 4342.9842 6589.9853 4237.9842 C 6625.928 4132.5001 6635.9782 4054.4577 6621.4046 3999.084 C 6621.7801 3992.3123 6621.4985 3985.8632 6620.0093 3980.0154 C 6511.2593 3559.0779 6193.3052 3162.7303 5510.4646 3140.3768 z " />
   
  
</svg>
