<?xml version="1.0" encoding="UTF-8" standalone="no"?>
<svg
   version="1.2"
   width="100mm"
   height="100mm"
   viewBox="0 0 10000 10000"
   preserveAspectRatio="xMidYMid"
   fill-rule="evenodd"
   stroke-width="28.222"
   stroke-linejoin="round"
   xml:space="preserve"
   id="svg21"
   sodipodi:docname="gobo-caps-0168.svg"
   inkscape:version="1.4 (86a8ad7, 2024-10-11)"
   xmlns:inkscape="http://www.inkscape.org/namespaces/inkscape"
   xmlns:sodipodi="http://sodipodi.sourceforge.net/DTD/sodipodi-0.dtd"
   xmlns="http://www.w3.org/2000/svg"
   xmlns:svg="http://www.w3.org/2000/svg"
   xmlns:ooo="http://xml.openoffice.org/svg/export"><sodipodi:namedview
   id="namedview21"
   pagecolor="#ffffff"
   bordercolor="#000000"
   borderopacity="0.25"
   inkscape:showpageshadow="2"
   inkscape:pageopacity="0.0"
   inkscape:pagecheckerboard="0"
   inkscape:deskcolor="#d1d1d1"
   inkscape:document-units="mm"
   showgrid="false"
   inkscape:zoom="3.0876875"
   inkscape:cx="188.81444"
   inkscape:cy="188.97638"
   inkscape:window-width="2560"
   inkscape:window-height="1369"
   inkscape:window-x="-8"
   inkscape:window-y="-8"
   inkscape:window-maximized="1"
   inkscape:current-layer="svg21" />
 <defs
   class="ClipPathGroup"
   id="defs2">
  
  <clipPath
   id="presentation_clip_path_shrink"
   clipPathUnits="userSpaceOnUse">
   <rect
   x="10"
   y="10"
   width="9980"
   height="9980"
   id="rect2" />
  </clipPath>
 
  
 
   
  
    
   
     
    
      
      
      
      
      
      
     
       
      
       
      
       
      
       
      
       
      
       
      
        
        
       
        
        
       
        
        
       
        
        
       
        
        
       
        
        
       </defs>
 <defs
   class="TextShapeIndex"
   id="defs3">
  <g
   ooo:slide="id1"
   ooo:id-list="id3 id4 id5 id6 id7 id8"
   id="g2" />
 </defs>
 <defs
   class="EmbeddedBulletChars"
   id="defs12">
  <g
   id="bullet-char-template-57356"
   transform="scale(0.00048828125,-0.00048828125)">
   <path
   d="M 580,1141 L 1163,571 580,0 -4,571 580,1141 Z"
   id="path3" />
  </g>
  <g
   id="bullet-char-template-57354"
   transform="scale(0.00048828125,-0.00048828125)">
   <path
   d="M 8,1128 L 1137,1128 1137,0 8,0 8,1128 Z"
   id="path4" />
  </g>
  <g
   id="bullet-char-template-10146"
   transform="scale(0.00048828125,-0.00048828125)">
   <path
   d="M 174,0 L 602,739 174,1481 1456,739 174,0 Z M 1358,739 L 309,1346 659,739 1358,739 Z"
   id="path5" />
  </g>
  <g
   id="bullet-char-template-10132"
   transform="scale(0.00048828125,-0.00048828125)">
   <path
   d="M 2015,739 L 1276,0 717,0 1260,543 174,543 174,936 1260,936 717,1481 1274,1481 2015,739 Z"
   id="path6" />
  </g>
  <g
   id="bullet-char-template-10007"
   transform="scale(0.00048828125,-0.00048828125)">
   <path
   d="M 0,-2 C -7,14 -16,27 -25,37 L 356,567 C 262,823 215,952 215,954 215,979 228,992 255,992 264,992 276,990 289,987 310,991 331,999 354,1012 L 381,999 492,748 772,1049 836,1024 860,1049 C 881,1039 901,1025 922,1006 886,937 835,863 770,784 769,783 710,716 594,584 L 774,223 C 774,196 753,168 711,139 L 727,119 C 717,90 699,76 672,76 641,76 570,178 457,381 L 164,-76 C 142,-110 111,-127 72,-127 30,-127 9,-110 8,-76 1,-67 -2,-52 -2,-32 -2,-23 -1,-13 0,-2 Z"
   id="path7" />
  </g>
  <g
   id="bullet-char-template-10004"
   transform="scale(0.00048828125,-0.00048828125)">
   <path
   d="M 285,-33 C 182,-33 111,30 74,156 52,228 41,333 41,471 41,549 55,616 82,672 116,743 169,778 240,778 293,778 328,747 346,684 L 369,508 C 377,444 397,411 428,410 L 1163,1116 C 1174,1127 1196,1133 1229,1133 1271,1133 1292,1118 1292,1087 L 1292,965 C 1292,929 1282,901 1262,881 L 442,47 C 390,-6 338,-33 285,-33 Z"
   id="path8" />
  </g>
  <g
   id="bullet-char-template-9679"
   transform="scale(0.00048828125,-0.00048828125)">
   <path
   d="M 813,0 C 632,0 489,54 383,161 276,268 223,411 223,592 223,773 276,916 383,1023 489,1130 632,1184 813,1184 992,1184 1136,1130 1245,1023 1353,916 1407,772 1407,592 1407,412 1353,268 1245,161 1136,54 992,0 813,0 Z"
   id="path9" />
  </g>
  <g
   id="bullet-char-template-8226"
   transform="scale(0.00048828125,-0.00048828125)">
   <path
   d="M 346,457 C 273,457 209,483 155,535 101,586 74,649 74,723 74,796 101,859 155,911 209,963 273,989 346,989 419,989 480,963 531,910 582,859 608,796 608,723 608,648 583,586 532,535 482,483 420,457 346,457 Z"
   id="path10" />
  </g>
  <g
   id="bullet-char-template-8211"
   transform="scale(0.00048828125,-0.00048828125)">
   <path
   d="M -4,459 L 1135,459 1135,606 -4,606 -4,459 Z"
   id="path11" />
  </g>
  <g
   id="bullet-char-template-61548"
   transform="scale(0.00048828125,-0.00048828125)">
   <path
   d="M 173,740 C 173,903 231,1043 346,1159 462,1274 601,1332 765,1332 928,1332 1067,1274 1183,1159 1299,1043 1357,903 1357,740 1357,577 1299,437 1183,322 1067,206 928,148 765,148 601,148 462,206 346,322 231,437 173,577 173,740 Z"
   id="path12" />
  </g>
 </defs>
 
 <path
   id="path13"
   d="M 4383.0916 699.64721 C 4059.8494 699.66674 3722.351 828.87125 3312.976 1161.9962 C 3300.5001 1172.1823 3291.7313 1185.4258 3285.4842 1200.6502 C 3268.9774 1224.1259 3258.0718 1250.1951 3254.0132 1278.9917 C 3231.0132 1428.9917 3254.0225 1674.0045 3356.0225 1788.0045 C 3453.0225 1894.0045 3525.0168 1867.9876 3661.0168 1768.9876 C 3688.8532 1748.4766 3714.5642 1724.4029 3738.3248 1698.3459 C 4162.6868 1384.5764 4458.8949 1530.2211 4789.9918 1657.0048 C 5152.9918 1796.0048 5790.9837 2051.9829 6404.9837 1549.9829 C 6405.8794 1549.1759 6406.567 1547.9871 6407.4125 1547.089 C 6540.0186 1448.7299 6627.2386 1273.3751 6662.0222 1169.0242 C 6755.0222 898.02424 6677.012 807.01977 6449.012 819.01977 C 6344.5976 825.0526 6244.5153 845.05926 6165.205 879.6879 C 6154.2394 880.17845 6143.4736 883.61937 6133.0106 891.00504 C 6128.416 895.13766 6123.8838 898.81701 6119.3164 902.78727 C 6090.538 919.45859 6065.7946 938.57972 6046.2976 960.25146 C 5718.8551 1190.6878 5444.1212 1012.5262 4962.0227 822.99885 C 4765.8977 746.12385 4577.0369 699.63549 4383.0916 699.64721 z M 6993.9916 2012.9521 C 6980.9186 2012.8791 6967.2622 2013.2356 6953.0122 2013.9856 C 6727.0122 2026.9856 6524.0139 2103.9891 6503.0139 2252.9891 C 6499.88 2273.4273 6497.69 2295.7631 6496.3476 2319.1866 C 6496.3261 2319.7954 6495.9987 2320.3861 6495.9859 2320.9953 C 6496.0228 2321.64 6496.1039 2323.2421 6496.1409 2323.8891 C 6493.266 2379.529 6495.6862 2441.4828 6504.4091 2502.4829 C 6556.8299 3511.9991 6652.9515 6202.5461 6631.0164 6790.0248 C 6607.0164 7407.0248 6392.0207 7745.9814 5375.0207 8050.9814 C 4357.0207 8355.9814 3359.0004 7727.9825 3380.0004 6592.9825 C 3400.7037 5474.0189 3484.9212 3332.909 3494.9804 2523.9286 C 3516.7604 2360.5162 3430.4926 2303.3271 3246.9852 2312.9854 C 3020.9852 2325.9854 2817.9869 2403.0224 2796.9869 2553.0224 C 2795.6083 2561.9531 2794.4105 2571.2463 2793.3695 2580.8244 C 2792.5147 2585.9781 2790.2459 2590.6696 2790.0106 2596.0172 C 2790.1611 2602.7853 2790.1755 2611.8918 2790.3206 2618.7549 C 2788.0205 2658.653 2788.4714 2702.0126 2792.0776 2746.1373 C 2808.2255 3775.1082 2775.1309 5653.211 2756.9893 6904.023 C 2737.9893 8214.023 3681.0159 9008.9925 4988.0159 8841.9925 C 6296.0159 8674.9925 7209.0161 7715.0109 7229.0161 6805.0109 C 7249.0161 5895.0109 7243.02 3457.977 7206.02 2153.977 C 7203.8005 2132.8913 7197.6633 2114.8602 7188.9151 2099.045 C 7160.9736 2039.462 7095.2778 2013.5176 6993.9916 2012.9521 z " />
   
  
</svg>
