<?xml version="1.0" encoding="UTF-8" standalone="no"?>
<svg
   version="1.2"
   width="100mm"
   height="100mm"
   viewBox="0 0 10000 10000"
   preserveAspectRatio="xMidYMid"
   fill-rule="evenodd"
   stroke-width="28.222"
   stroke-linejoin="round"
   xml:space="preserve"
   id="svg25"
   sodipodi:docname="gobo-caps-0145.svg"
   inkscape:version="1.4 (86a8ad7, 2024-10-11)"
   xmlns:inkscape="http://www.inkscape.org/namespaces/inkscape"
   xmlns:sodipodi="http://sodipodi.sourceforge.net/DTD/sodipodi-0.dtd"
   xmlns="http://www.w3.org/2000/svg"
   xmlns:svg="http://www.w3.org/2000/svg"
   xmlns:ooo="http://xml.openoffice.org/svg/export"><sodipodi:namedview
   id="namedview25"
   pagecolor="#ffffff"
   bordercolor="#000000"
   borderopacity="0.25"
   inkscape:showpageshadow="2"
   inkscape:pageopacity="0.0"
   inkscape:pagecheckerboard="0"
   inkscape:deskcolor="#d1d1d1"
   inkscape:document-units="mm"
   showgrid="false"
   inkscape:zoom="3.0876875"
   inkscape:cx="188.81444"
   inkscape:cy="188.97638"
   inkscape:window-width="2560"
   inkscape:window-height="1369"
   inkscape:window-x="-8"
   inkscape:window-y="-8"
   inkscape:window-maximized="1"
   inkscape:current-layer="svg25" />
 <defs
   class="ClipPathGroup"
   id="defs2">
  
  <clipPath
   id="presentation_clip_path_shrink"
   clipPathUnits="userSpaceOnUse">
   <rect
   x="10"
   y="10"
   width="9980"
   height="9980"
   id="rect2" />
  </clipPath>
 
  
 
   
  
    
   
     
    
      
      
      
      
      
      
      
      
      
      
     
       
      
       
      
       
      
       
      
       
      
       
      
       
      
       
      
       
      
       
      
        
        
       
        
        
       
        
        
       
        
        
       
        
        
       
        
        
       
        
        
       
        
        
       
        
        
       
        
        
       </defs>
 <defs
   class="TextShapeIndex"
   id="defs3">
  <g
   ooo:slide="id1"
   ooo:id-list="id3 id4 id5 id6 id7 id8 id9 id10 id11 id12"
   id="g2" />
 </defs>
 <defs
   class="EmbeddedBulletChars"
   id="defs12">
  <g
   id="bullet-char-template-57356"
   transform="scale(0.00048828125,-0.00048828125)">
   <path
   d="M 580,1141 L 1163,571 580,0 -4,571 580,1141 Z"
   id="path3" />
  </g>
  <g
   id="bullet-char-template-57354"
   transform="scale(0.00048828125,-0.00048828125)">
   <path
   d="M 8,1128 L 1137,1128 1137,0 8,0 8,1128 Z"
   id="path4" />
  </g>
  <g
   id="bullet-char-template-10146"
   transform="scale(0.00048828125,-0.00048828125)">
   <path
   d="M 174,0 L 602,739 174,1481 1456,739 174,0 Z M 1358,739 L 309,1346 659,739 1358,739 Z"
   id="path5" />
  </g>
  <g
   id="bullet-char-template-10132"
   transform="scale(0.00048828125,-0.00048828125)">
   <path
   d="M 2015,739 L 1276,0 717,0 1260,543 174,543 174,936 1260,936 717,1481 1274,1481 2015,739 Z"
   id="path6" />
  </g>
  <g
   id="bullet-char-template-10007"
   transform="scale(0.00048828125,-0.00048828125)">
   <path
   d="M 0,-2 C -7,14 -16,27 -25,37 L 356,567 C 262,823 215,952 215,954 215,979 228,992 255,992 264,992 276,990 289,987 310,991 331,999 354,1012 L 381,999 492,748 772,1049 836,1024 860,1049 C 881,1039 901,1025 922,1006 886,937 835,863 770,784 769,783 710,716 594,584 L 774,223 C 774,196 753,168 711,139 L 727,119 C 717,90 699,76 672,76 641,76 570,178 457,381 L 164,-76 C 142,-110 111,-127 72,-127 30,-127 9,-110 8,-76 1,-67 -2,-52 -2,-32 -2,-23 -1,-13 0,-2 Z"
   id="path7" />
  </g>
  <g
   id="bullet-char-template-10004"
   transform="scale(0.00048828125,-0.00048828125)">
   <path
   d="M 285,-33 C 182,-33 111,30 74,156 52,228 41,333 41,471 41,549 55,616 82,672 116,743 169,778 240,778 293,778 328,747 346,684 L 369,508 C 377,444 397,411 428,410 L 1163,1116 C 1174,1127 1196,1133 1229,1133 1271,1133 1292,1118 1292,1087 L 1292,965 C 1292,929 1282,901 1262,881 L 442,47 C 390,-6 338,-33 285,-33 Z"
   id="path8" />
  </g>
  <g
   id="bullet-char-template-9679"
   transform="scale(0.00048828125,-0.00048828125)">
   <path
   d="M 813,0 C 632,0 489,54 383,161 276,268 223,411 223,592 223,773 276,916 383,1023 489,1130 632,1184 813,1184 992,1184 1136,1130 1245,1023 1353,916 1407,772 1407,592 1407,412 1353,268 1245,161 1136,54 992,0 813,0 Z"
   id="path9" />
  </g>
  <g
   id="bullet-char-template-8226"
   transform="scale(0.00048828125,-0.00048828125)">
   <path
   d="M 346,457 C 273,457 209,483 155,535 101,586 74,649 74,723 74,796 101,859 155,911 209,963 273,989 346,989 419,989 480,963 531,910 582,859 608,796 608,723 608,648 583,586 532,535 482,483 420,457 346,457 Z"
   id="path10" />
  </g>
  <g
   id="bullet-char-template-8211"
   transform="scale(0.00048828125,-0.00048828125)">
   <path
   d="M -4,459 L 1135,459 1135,606 -4,606 -4,459 Z"
   id="path11" />
  </g>
  <g
   id="bullet-char-template-61548"
   transform="scale(0.00048828125,-0.00048828125)">
   <path
   d="M 173,740 C 173,903 231,1043 346,1159 462,1274 601,1332 765,1332 928,1332 1067,1274 1183,1159 1299,1043 1357,903 1357,740 1357,577 1299,437 1183,322 1067,206 928,148 765,148 601,148 462,206 346,322 231,437 173,577 173,740 Z"
   id="path12" />
  </g>
 </defs>
 
 <path
   id="path13"
   d="M 6985.9818 2001.9966 C 6972.9088 2001.9234 6959.2524 2002.2285 6945.0024 2002.9785 C 6719.0024 2015.9785 6516.004 2093.0155 6495.004 2243.0155 C 6489.7105 2277.3082 6487.0121 2316.8508 6486.9942 2358.6157 C 6485.9208 2366.7899 6485.4626 2374.9325 6486.0123 2383.007 C 6486.5512 2390.3927 6489.2622 2425.8006 6490.0431 2436.0787 C 6490.1656 2437.5802 6490.2232 2439.0716 6490.3531 2440.5745 C 6514.7387 2760.9525 6644.2501 4359.419 6623.0065 5438.0143 C 6612.3352 5956.736 6571.8677 6497.5746 6530.2473 6969.187 C 6102.9621 6310.265 5556.4193 5481.2375 5225.004 5000.9867 C 4680.1479 4212.8735 3733.0097 2749.2802 3473.0696 2389.8283 C 3438.473 2330.2811 3361.0451 2308.7882 3243.0062 2315.0008 C 3016.0062 2327.0008 2812.9743 2405.0043 2791.9743 2554.0043 C 2791.9548 2554.1371 2791.942 2554.2848 2791.9226 2554.4177 C 2790.2766 2557.6172 2789.2628 2560.8025 2788.977 2563.9778 C 2788.4907 2570.3374 2788.0603 2585.8832 2787.5818 2593.3301 C 2785.7834 2613.9824 2784.7533 2635.7598 2784.5329 2658.3907 C 2761.3682 3147.1476 2748.2174 4867.184 2751.9767 5541.9873 C 2755.9767 6261.9873 2834.9915 8305.0051 2847.9915 8679.0051 C 2847.8786 8683.7834 2849.0661 8687.7563 2850.8854 8691.3557 C 2862.4431 8804.8683 2895.0115 8919.8202 2955.9953 8987.9784 C 3052.9953 9093.9784 3124.9896 9068.0132 3260.9896 8969.0132 C 3393.9896 8871.0132 3480.9946 8694.0029 3516.9946 8588.0029 C 3548.5054 8496.8587 3560.3097 8426.0751 3553.3748 8372.7705 C 3553.4787 8011.5509 3404.5635 6705.9496 3377.985 5883 C 3364.6448 5417.7602 3380.8362 4529.9681 3409.0942 3767.3152 C 3888.8782 4437.9771 4542.9012 5370.3316 4798.0017 5763.9892 C 5193.0017 6373.9892 6328.9969 8152.981 6483.9969 8480.981 C 6484.425 8481.615 6485.088 8481.9391 6485.5472 8482.5313 C 6499.624 8512.5129 6516.3454 8539.2202 6535.9834 8560.9761 C 6631.9834 8667.9761 6704.9959 8641.0108 6839.9959 8542.0108 C 6972.9959 8445.0108 7059.9828 8267.9824 7096.9828 8161.9824 C 7109.4406 8125.4212 7118.6865 8092.2773 7124.9914 8062.0918 C 7125.6726 8060.3836 7126.668 8058.6696 7127.0068 8056.9758 C 7195.0068 7711.9758 7229.9995 6280.9869 7246.9995 5336.9869 C 7262.9995 4393.9869 7229.0102 2429.0189 7198.0102 2146.0189 C 7196.5755 2133.585 7193.4629 2122.5897 7189.6386 2112.2742 C 7168.9119 2035.3604 7099.9532 2002.6352 6985.9818 2001.9966 z M 5090.8003 7999.9767 C 5077.7823 7999.9106 5064.1635 8000.2603 5049.976 8001.0103 C 4822.976 8013.0103 4618.9957 8091.0138 4598.9957 8240.0138 C 4595.7132 8262.2455 4593.5988 8286.7775 4592.4328 8312.5675 C 4576.4024 8526.3167 4456.1717 9091.8689 4375.0301 9363.5628 C 4368.3962 9381.8632 4362.8694 9400.6104 4358.3903 9419.6317 C 4356.4353 9427.2245 4354.8603 9434.7376 4353.7394 9442.1626 C 4329.994 9566.3142 4348.7962 9696.7858 4393.0135 9769.9979 C 4457.0135 9871.9979 4595.9939 9827.9991 4712.9939 9749.9991 C 4777.8513 9705.4449 4834.0977 9651.6385 4876.7566 9581.999 C 5047.446 9317.8626 5291.2591 8445.8197 5299.9865 8183.9965 C 5300.0329 8182.7433 5299.9708 8181.5618 5299.9865 8180.3275 C 5306.4515 8052.2139 5234.3185 8000.7062 5090.8003 7999.9767 z " />
   
  
</svg>
