<?xml version="1.0" encoding="UTF-8" standalone="no"?>
<svg
   version="1.2"
   width="100mm"
   height="100mm"
   viewBox="0 0 10000 10000"
   preserveAspectRatio="xMidYMid"
   fill-rule="evenodd"
   stroke-width="28.222"
   stroke-linejoin="round"
   xml:space="preserve"
   id="svg27"
   sodipodi:docname="gobo-caps-0114.svg"
   inkscape:version="1.4 (86a8ad7, 2024-10-11)"
   xmlns:inkscape="http://www.inkscape.org/namespaces/inkscape"
   xmlns:sodipodi="http://sodipodi.sourceforge.net/DTD/sodipodi-0.dtd"
   xmlns="http://www.w3.org/2000/svg"
   xmlns:svg="http://www.w3.org/2000/svg"
   xmlns:ooo="http://xml.openoffice.org/svg/export"><sodipodi:namedview
   id="namedview27"
   pagecolor="#ffffff"
   bordercolor="#000000"
   borderopacity="0.25"
   inkscape:showpageshadow="2"
   inkscape:pageopacity="0.0"
   inkscape:pagecheckerboard="0"
   inkscape:deskcolor="#d1d1d1"
   inkscape:document-units="mm"
   showgrid="false"
   inkscape:zoom="3.0876875"
   inkscape:cx="188.81444"
   inkscape:cy="188.97638"
   inkscape:window-width="2560"
   inkscape:window-height="1369"
   inkscape:window-x="-8"
   inkscape:window-y="-8"
   inkscape:window-maximized="1"
   inkscape:current-layer="svg27" />
 <defs
   class="ClipPathGroup"
   id="defs2">
  
  <clipPath
   id="presentation_clip_path_shrink"
   clipPathUnits="userSpaceOnUse">
   <rect
   x="10"
   y="10"
   width="9980"
   height="9980"
   id="rect2" />
  </clipPath>
 
  
 
   
  
    
   
     
    
      
      
      
      
      
      
      
      
      
      
      
      
     
       
      
       
      
       
      
       
      
       
      
       
      
       
      
       
      
       
      
       
      
       
      
       
      
        
        
       
        
        
       
        
        
       
        
        
       
        
        
       
        
        
       
        
        
       
        
        
       
        
        
       
        
        
       
        
        
       
        
        
       </defs>
 <defs
   class="TextShapeIndex"
   id="defs3">
  <g
   ooo:slide="id1"
   ooo:id-list="id3 id4 id5 id6 id7 id8 id9 id10 id11 id12 id13 id14"
   id="g2" />
 </defs>
 <defs
   class="EmbeddedBulletChars"
   id="defs12">
  <g
   id="bullet-char-template-57356"
   transform="scale(0.00048828125,-0.00048828125)">
   <path
   d="M 580,1141 L 1163,571 580,0 -4,571 580,1141 Z"
   id="path3" />
  </g>
  <g
   id="bullet-char-template-57354"
   transform="scale(0.00048828125,-0.00048828125)">
   <path
   d="M 8,1128 L 1137,1128 1137,0 8,0 8,1128 Z"
   id="path4" />
  </g>
  <g
   id="bullet-char-template-10146"
   transform="scale(0.00048828125,-0.00048828125)">
   <path
   d="M 174,0 L 602,739 174,1481 1456,739 174,0 Z M 1358,739 L 309,1346 659,739 1358,739 Z"
   id="path5" />
  </g>
  <g
   id="bullet-char-template-10132"
   transform="scale(0.00048828125,-0.00048828125)">
   <path
   d="M 2015,739 L 1276,0 717,0 1260,543 174,543 174,936 1260,936 717,1481 1274,1481 2015,739 Z"
   id="path6" />
  </g>
  <g
   id="bullet-char-template-10007"
   transform="scale(0.00048828125,-0.00048828125)">
   <path
   d="M 0,-2 C -7,14 -16,27 -25,37 L 356,567 C 262,823 215,952 215,954 215,979 228,992 255,992 264,992 276,990 289,987 310,991 331,999 354,1012 L 381,999 492,748 772,1049 836,1024 860,1049 C 881,1039 901,1025 922,1006 886,937 835,863 770,784 769,783 710,716 594,584 L 774,223 C 774,196 753,168 711,139 L 727,119 C 717,90 699,76 672,76 641,76 570,178 457,381 L 164,-76 C 142,-110 111,-127 72,-127 30,-127 9,-110 8,-76 1,-67 -2,-52 -2,-32 -2,-23 -1,-13 0,-2 Z"
   id="path7" />
  </g>
  <g
   id="bullet-char-template-10004"
   transform="scale(0.00048828125,-0.00048828125)">
   <path
   d="M 285,-33 C 182,-33 111,30 74,156 52,228 41,333 41,471 41,549 55,616 82,672 116,743 169,778 240,778 293,778 328,747 346,684 L 369,508 C 377,444 397,411 428,410 L 1163,1116 C 1174,1127 1196,1133 1229,1133 1271,1133 1292,1118 1292,1087 L 1292,965 C 1292,929 1282,901 1262,881 L 442,47 C 390,-6 338,-33 285,-33 Z"
   id="path8" />
  </g>
  <g
   id="bullet-char-template-9679"
   transform="scale(0.00048828125,-0.00048828125)">
   <path
   d="M 813,0 C 632,0 489,54 383,161 276,268 223,411 223,592 223,773 276,916 383,1023 489,1130 632,1184 813,1184 992,1184 1136,1130 1245,1023 1353,916 1407,772 1407,592 1407,412 1353,268 1245,161 1136,54 992,0 813,0 Z"
   id="path9" />
  </g>
  <g
   id="bullet-char-template-8226"
   transform="scale(0.00048828125,-0.00048828125)">
   <path
   d="M 346,457 C 273,457 209,483 155,535 101,586 74,649 74,723 74,796 101,859 155,911 209,963 273,989 346,989 419,989 480,963 531,910 582,859 608,796 608,723 608,648 583,586 532,535 482,483 420,457 346,457 Z"
   id="path10" />
  </g>
  <g
   id="bullet-char-template-8211"
   transform="scale(0.00048828125,-0.00048828125)">
   <path
   d="M -4,459 L 1135,459 1135,606 -4,606 -4,459 Z"
   id="path11" />
  </g>
  <g
   id="bullet-char-template-61548"
   transform="scale(0.00048828125,-0.00048828125)">
   <path
   d="M 173,740 C 173,903 231,1043 346,1159 462,1274 601,1332 765,1332 928,1332 1067,1274 1183,1159 1299,1043 1357,903 1357,740 1357,577 1299,437 1183,322 1067,206 928,148 765,148 601,148 462,206 346,322 231,437 173,577 173,740 Z"
   id="path12" />
  </g>
 </defs>
 
 <path
   id="path13"
   d="M 6487.821 252.12931 C 6474.8029 252.00846 6461.1841 252.32031 6446.9966 253.00781 C 6233.6464 265.28017 6040.0268 335.53066 6001.3391 468.70524 C 5901.9572 715.09275 5787.2004 1103.5679 5227.0194 1170.9879 C 4662.0194 1238.9879 4477.0156 811.99658 4316.0156 563.99658 C 4315.0592 562.52331 4313.8548 561.39026 4312.8633 559.96582 C 4280.007 496.12181 4201.2997 473.11134 4080.0093 478.98885 C 3854.0093 491.98885 3649.9774 569.9742 3628.9774 718.9742 C 3609.6251 844.34357 3622.8886 1038.3808 3688.9221 1164.6834 C 3688.9706 1164.7833 3688.9769 1164.8936 3689.0254 1164.9935 C 3689.1601 1165.2505 3689.3038 1165.5122 3689.4389 1165.7686 C 3885.8556 1568.4914 4502.4301 1957.9349 5185.9883 1891.9775 C 5868.9883 1825.9775 6448.0109 1140.9751 6637.0109 661.97509 C 6639.1196 656.63069 6640.5011 651.68951 6642.3852 646.47216 C 6648.7538 630.6792 6654.3603 615.71386 6659.025 601.97876 C 6746.2125 348.85376 6683.092 253.94206 6487.821 252.12931 z M 7216.9754 2023.9591 C 7203.9025 2023.8856 7190.246 2024.2427 7175.996 2024.9927 C 7164.7779 2025.6408 7153.6597 2026.5527 7142.5614 2027.5248 C 6827.5341 2032.0282 5530.2257 2073.6276 4746.0152 2172.0121 C 3989.1387 2267.0832 3468.4982 2363.0636 2962.5065 2460.625 C 2763.2185 2483.4565 2595.0243 2559.1448 2576.0185 2693.9957 C 2553.0185 2843.9957 2575.9761 3089.0086 2677.9761 3203.0086 C 2731.9102 3261.9469 2778.1449 3280.0387 2831.9201 3267.5008 C 2834.9379 3268.5404 2838.0029 3268.8932 2841.0152 3268.0176 C 2913.0144 3250.2817 3012.931 3224.9562 3118.9827 3198.6161 C 3118.9408 3240.1649 3121.7289 3283.8264 3127.6644 3327.1871 C 3127.4604 3338.949 3127.8505 3350.8764 3129.008 3362.9988 C 3231.008 4115.9988 3278.0203 5517.0193 3265.0203 6329.0193 C 3253.0203 7139.0193 3102.0027 7388.9823 3004.0027 7993.9823 C 2907.0027 8598.9823 3135.0226 9132.0003 4159.0226 8927.0003 C 5180.0226 8720.0003 6791.015 8602.0127 6950.015 8596.0127 C 6959.2094 8595.6079 6969.1592 8592.1327 6979.5739 8586.5042 C 7019.7029 8574.4625 7064.2188 8546.4628 7118.9969 8505.9924 C 7252.9969 8407.9924 7339.9838 8230.982 7375.9838 8124.982 C 7468.9838 7854.982 7391.0253 7765.0111 7163.0253 7776.0111 C 7130.6226 7777.875 7098.777 7781.2241 7067.7856 7785.7779 C 6694.7407 7816.4506 5831.1063 7906.5502 5327.0133 7989.0213 C 4784.0133 8077.0213 4106.9827 8290.9894 3753.9827 8172.9894 C 3491.9827 8086.9894 3617.0249 8003.0009 3783.0249 7096.0009 C 3836.9508 6799.572 3863.06 6308.2314 3873.0452 5764.6093 C 4123.8256 5689.1746 4459.8615 5604.7871 4763.9986 5560.0223 C 5227.9986 5493.0223 6359.9979 5425.0032 6594.9979 5450.0032 C 6600.3923 5450.5334 6605.8366 5450.1244 6611.276 5449.7448 C 6665.5659 5455.0174 6723.5917 5421.9296 6803.9774 5362.9801 C 6937.9774 5265.9801 7025.016 5088.0214 7061.016 4982.0214 C 7150.141 4721.4277 7080.6501 4627.8361 6868.9347 4633.1539 C 6867.9036 4633.1779 6867.0395 4632.9433 6865.9891 4632.9988 C 6863.0785 4633.1637 6857.8351 4633.5539 6854.8787 4633.7223 C 6852.5709 4633.8237 6850.3454 4633.8575 6848.0057 4633.9807 C 6843.3903 4634.2462 6838.8555 4634.6953 6834.2598 4635.0142 C 6363.4759 4662.1138 5361.6663 4731.3854 4639.9751 4860.9952 C 4204.6815 4938.5782 4032.1221 4967.5175 3876.9726 5002.6403 C 3872.8659 4166.7096 3844.6711 3374.9102 3825.7613 3048.0827 C 3826.1634 3044.6853 3826.5415 3041.257 3826.8465 3037.9541 C 4106.2347 2981.5983 4411.4659 2929.5465 4718.0066 2898.0143 C 5484.0066 2819.0143 6732.9898 2832.9943 6939.9898 2844.9943 C 6943.7603 2845.1339 6947.9255 2844.0122 6952.3404 2842.2038 C 7002.9633 2841.5045 7058.0406 2809.2767 7132.0194 2755.0256 C 7266.0194 2657.0256 7354.0063 2479.9971 7389.0063 2374.9971 C 7476.1938 2120.9346 7413.0704 2025.0614 7216.9754 2023.9591 z " />
   
  
</svg>
