<?xml version="1.0" encoding="UTF-8" standalone="no"?>
<svg
   version="1.2"
   width="100mm"
   height="100mm"
   viewBox="0 0 10000 10000"
   preserveAspectRatio="xMidYMid"
   fill-rule="evenodd"
   stroke-width="28.222"
   stroke-linejoin="round"
   xml:space="preserve"
   id="svg24"
   sodipodi:docname="gobo-caps-011F.svg"
   inkscape:version="1.4 (86a8ad7, 2024-10-11)"
   xmlns:inkscape="http://www.inkscape.org/namespaces/inkscape"
   xmlns:sodipodi="http://sodipodi.sourceforge.net/DTD/sodipodi-0.dtd"
   xmlns="http://www.w3.org/2000/svg"
   xmlns:svg="http://www.w3.org/2000/svg"
   xmlns:ooo="http://xml.openoffice.org/svg/export"><sodipodi:namedview
   id="namedview24"
   pagecolor="#ffffff"
   bordercolor="#000000"
   borderopacity="0.25"
   inkscape:showpageshadow="2"
   inkscape:pageopacity="0.0"
   inkscape:pagecheckerboard="0"
   inkscape:deskcolor="#d1d1d1"
   inkscape:document-units="mm"
   showgrid="false"
   inkscape:zoom="3.0876875"
   inkscape:cx="188.81444"
   inkscape:cy="188.97638"
   inkscape:window-width="2560"
   inkscape:window-height="1369"
   inkscape:window-x="-8"
   inkscape:window-y="-8"
   inkscape:window-maximized="1"
   inkscape:current-layer="svg24" />
 <defs
   class="ClipPathGroup"
   id="defs2">
  
  <clipPath
   id="presentation_clip_path_shrink"
   clipPathUnits="userSpaceOnUse">
   <rect
   x="10"
   y="10"
   width="9980"
   height="9980"
   id="rect2" />
  </clipPath>
 
  
 
   
  
    
   
     
    
      
      
      
      
      
      
      
      
      
     
       
      
       
      
       
      
       
      
       
      
       
      
       
      
       
      
       
      
        
        
       
        
        
       
        
        
       
        
        
       
        
        
       
        
        
       
        
        
       
        
        
       
        
        
       </defs>
 <defs
   class="TextShapeIndex"
   id="defs3">
  <g
   ooo:slide="id1"
   ooo:id-list="id3 id4 id5 id6 id7 id8 id9 id10 id11"
   id="g2" />
 </defs>
 <defs
   class="EmbeddedBulletChars"
   id="defs12">
  <g
   id="bullet-char-template-57356"
   transform="scale(0.00048828125,-0.00048828125)">
   <path
   d="M 580,1141 L 1163,571 580,0 -4,571 580,1141 Z"
   id="path3" />
  </g>
  <g
   id="bullet-char-template-57354"
   transform="scale(0.00048828125,-0.00048828125)">
   <path
   d="M 8,1128 L 1137,1128 1137,0 8,0 8,1128 Z"
   id="path4" />
  </g>
  <g
   id="bullet-char-template-10146"
   transform="scale(0.00048828125,-0.00048828125)">
   <path
   d="M 174,0 L 602,739 174,1481 1456,739 174,0 Z M 1358,739 L 309,1346 659,739 1358,739 Z"
   id="path5" />
  </g>
  <g
   id="bullet-char-template-10132"
   transform="scale(0.00048828125,-0.00048828125)">
   <path
   d="M 2015,739 L 1276,0 717,0 1260,543 174,543 174,936 1260,936 717,1481 1274,1481 2015,739 Z"
   id="path6" />
  </g>
  <g
   id="bullet-char-template-10007"
   transform="scale(0.00048828125,-0.00048828125)">
   <path
   d="M 0,-2 C -7,14 -16,27 -25,37 L 356,567 C 262,823 215,952 215,954 215,979 228,992 255,992 264,992 276,990 289,987 310,991 331,999 354,1012 L 381,999 492,748 772,1049 836,1024 860,1049 C 881,1039 901,1025 922,1006 886,937 835,863 770,784 769,783 710,716 594,584 L 774,223 C 774,196 753,168 711,139 L 727,119 C 717,90 699,76 672,76 641,76 570,178 457,381 L 164,-76 C 142,-110 111,-127 72,-127 30,-127 9,-110 8,-76 1,-67 -2,-52 -2,-32 -2,-23 -1,-13 0,-2 Z"
   id="path7" />
  </g>
  <g
   id="bullet-char-template-10004"
   transform="scale(0.00048828125,-0.00048828125)">
   <path
   d="M 285,-33 C 182,-33 111,30 74,156 52,228 41,333 41,471 41,549 55,616 82,672 116,743 169,778 240,778 293,778 328,747 346,684 L 369,508 C 377,444 397,411 428,410 L 1163,1116 C 1174,1127 1196,1133 1229,1133 1271,1133 1292,1118 1292,1087 L 1292,965 C 1292,929 1282,901 1262,881 L 442,47 C 390,-6 338,-33 285,-33 Z"
   id="path8" />
  </g>
  <g
   id="bullet-char-template-9679"
   transform="scale(0.00048828125,-0.00048828125)">
   <path
   d="M 813,0 C 632,0 489,54 383,161 276,268 223,411 223,592 223,773 276,916 383,1023 489,1130 632,1184 813,1184 992,1184 1136,1130 1245,1023 1353,916 1407,772 1407,592 1407,412 1353,268 1245,161 1136,54 992,0 813,0 Z"
   id="path9" />
  </g>
  <g
   id="bullet-char-template-8226"
   transform="scale(0.00048828125,-0.00048828125)">
   <path
   d="M 346,457 C 273,457 209,483 155,535 101,586 74,649 74,723 74,796 101,859 155,911 209,963 273,989 346,989 419,989 480,963 531,910 582,859 608,796 608,723 608,648 583,586 532,535 482,483 420,457 346,457 Z"
   id="path10" />
  </g>
  <g
   id="bullet-char-template-8211"
   transform="scale(0.00048828125,-0.00048828125)">
   <path
   d="M -4,459 L 1135,459 1135,606 -4,606 -4,459 Z"
   id="path11" />
  </g>
  <g
   id="bullet-char-template-61548"
   transform="scale(0.00048828125,-0.00048828125)">
   <path
   d="M 173,740 C 173,903 231,1043 346,1159 462,1274 601,1332 765,1332 928,1332 1067,1274 1183,1159 1299,1043 1357,903 1357,740 1357,577 1299,437 1183,322 1067,206 928,148 765,148 601,148 462,206 346,322 231,437 173,577 173,740 Z"
   id="path12" />
  </g>
 </defs>
 
 <path
   id="path13"
   d="M 6462.8096 1152.126 C 6449.7915 1152.0052 6436.1727 1152.317 6421.9852 1153.0045 C 6208.4426 1165.288 6014.6668 1235.6552 5976.2243 1369.0637 C 5876.8744 1615.4691 5761.9272 2003.5962 5202.008 2070.9847 C 4637.008 2138.9847 4452.0042 1711.9933 4291.0042 1463.9933 C 4290.0478 1462.52 4288.8435 1461.387 4287.8519 1459.9626 C 4254.9956 1396.1185 4176.2883 1373.1081 4054.9979 1378.9856 C 3828.9979 1391.9856 3625.0177 1470.0226 3604.0177 1619.0226 C 3584.6686 1744.3713 3597.8539 1938.3244 3663.859 2064.6285 C 3663.9175 2064.7491 3663.9554 2064.8696 3664.0141 2064.9902 C 3664.1489 2065.2476 3664.2922 2065.5086 3664.4275 2065.7654 C 3860.8442 2468.4881 4477.4187 2857.9316 5160.9769 2791.9743 C 5843.9769 2725.9743 6422.9995 2041.0235 6611.9995 1562.0235 C 6614.1354 1556.6102 6615.5717 1551.5968 6617.4772 1546.3139 C 6623.8177 1530.582 6629.3651 1515.6627 6634.0136 1501.9755 C 6721.2011 1248.8505 6658.0806 1153.9388 6462.8096 1152.126 z M 5492.843 3142.9089 C 5362.6184 3139.3933 5222.4901 3143.9984 5071.9901 3157.9984 C 3866.9901 3269.9984 2974.0189 4449.9938 2781.0189 5646.9938 C 2587.0189 6844.9938 3377.9922 8198.0244 4826.9922 8023.0244 C 6276.9922 7848.0244 6627.0236 7001.0245 6978.0236 6286.0245 C 6978.8795 6284.2578 6979.2755 6282.4719 6980.039 6280.7019 C 6994.1219 6249.8941 7005.5124 6220.9674 7013.9904 6196.0042 C 7026.1014 6160.8432 7035.2798 6128.7819 7041.6373 6099.5243 C 7121.5098 6004.3933 7175.5498 5888.8644 7201.9893 5811.0148 C 7290.2308 5554.8296 7224.4138 5459.814 7023.5506 5461.0103 C 7014.4393 5460.6228 7005.059 5460.5378 6995.0252 5461.0103 C 6548.0252 5483.0103 6377.9782 5480.0165 5943.9782 5529.0165 C 5543.4437 5573.4175 5566.3133 5570.2621 5200.1993 5632.421 C 5184.6178 5634.6572 5169.3061 5637.3142 5154.259 5640.2242 C 5140.2136 5642.6046 5135.1464 5643.4497 5119.9975 5646.0119 C 5118.0929 5646.7738 5116.3746 5647.9778 5114.5198 5648.8541 C 4968.7257 5684.3236 4858.1984 5754.2669 4843.0118 5862.0194 C 4820.0118 6012.0194 4844.003 6257.9806 4946.003 6370.9806 C 4993.8964 6424.3618 5036.0501 6444.4031 5083.0489 6438.7801 C 5087.9746 6440.658 5092.9516 6441.0919 5097.9834 6438.9868 C 5296.9834 6352.9868 5677.9899 6271.9934 6005.9899 6244.9934 C 6107.5831 6236.9648 6199.5223 6236.2628 6285.0427 6238.8439 C 5917.8449 7116.3039 5360.7942 7297.7714 4737.0235 7294.025 C 4072.0235 7290.025 3337.9893 6613.9892 3391.9893 5763.9892 C 3446.9893 4913.9892 3818.9968 4445.9848 4242.9968 4143.9848 C 4666.9968 3841.9848 5959.9772 3583.0006 6299.9772 4519.0006 C 6301.879 4524.2346 6304.2524 4528.4738 6306.385 4533.2116 C 6322.9471 4576.677 6344.1987 4615.3456 6370.9806 4644.9878 C 6466.9806 4750.9878 6539.993 4725.0225 6674.993 4626.0225 C 6807.993 4528.0225 6894.9981 4351.0122 6930.9981 4245.0122 C 6966.0324 4143.2997 6976.7564 4067.0238 6964.4327 4012.1065 C 6964.059 4004.1678 6963.134 3996.6212 6961.0221 3989.989 C 6832.3971 3590.989 6404.4152 3167.5183 5492.843 3142.9089 z " />
   
  
</svg>
