<?xml version="1.0" encoding="UTF-8" standalone="no"?>
<svg
   version="1.2"
   width="100mm"
   height="100mm"
   viewBox="0 0 10000 10000"
   preserveAspectRatio="xMidYMid"
   fill-rule="evenodd"
   stroke-width="28.222"
   stroke-linejoin="round"
   xml:space="preserve"
   id="svg29"
   sodipodi:docname="gobo-caps-0174.svg"
   inkscape:version="1.4 (86a8ad7, 2024-10-11)"
   xmlns:inkscape="http://www.inkscape.org/namespaces/inkscape"
   xmlns:sodipodi="http://sodipodi.sourceforge.net/DTD/sodipodi-0.dtd"
   xmlns="http://www.w3.org/2000/svg"
   xmlns:svg="http://www.w3.org/2000/svg"
   xmlns:ooo="http://xml.openoffice.org/svg/export"><sodipodi:namedview
   id="namedview29"
   pagecolor="#ffffff"
   bordercolor="#000000"
   borderopacity="0.25"
   inkscape:showpageshadow="2"
   inkscape:pageopacity="0.0"
   inkscape:pagecheckerboard="0"
   inkscape:deskcolor="#d1d1d1"
   inkscape:document-units="mm"
   showgrid="false"
   inkscape:zoom="3.0876875"
   inkscape:cx="188.81444"
   inkscape:cy="188.97638"
   inkscape:window-width="2560"
   inkscape:window-height="1369"
   inkscape:window-x="-8"
   inkscape:window-y="-8"
   inkscape:window-maximized="1"
   inkscape:current-layer="svg29" />
 <defs
   class="ClipPathGroup"
   id="defs2">
  
  <clipPath
   id="presentation_clip_path_shrink"
   clipPathUnits="userSpaceOnUse">
   <rect
   x="10"
   y="10"
   width="9980"
   height="9980"
   id="rect2" />
  </clipPath>
 
  
 
   
  
    
   
     
    
      
      
      
      
      
      
      
      
      
      
      
      
      
      
     
       
      
       
      
       
      
       
      
       
      
       
      
       
      
       
      
       
      
       
      
       
      
       
      
       
      
       
      
        
        
       
        
        
       
        
        
       
        
        
       
        
        
       
        
        
       
        
        
       
        
        
       
        
        
       
        
        
       
        
        
       
        
        
       
        
        
       
        
        
       </defs>
 <defs
   class="TextShapeIndex"
   id="defs3">
  <g
   ooo:slide="id1"
   ooo:id-list="id3 id4 id5 id6 id7 id8 id9 id10 id11 id12 id13 id14 id15 id16"
   id="g2" />
 </defs>
 <defs
   class="EmbeddedBulletChars"
   id="defs12">
  <g
   id="bullet-char-template-57356"
   transform="scale(0.00048828125,-0.00048828125)">
   <path
   d="M 580,1141 L 1163,571 580,0 -4,571 580,1141 Z"
   id="path3" />
  </g>
  <g
   id="bullet-char-template-57354"
   transform="scale(0.00048828125,-0.00048828125)">
   <path
   d="M 8,1128 L 1137,1128 1137,0 8,0 8,1128 Z"
   id="path4" />
  </g>
  <g
   id="bullet-char-template-10146"
   transform="scale(0.00048828125,-0.00048828125)">
   <path
   d="M 174,0 L 602,739 174,1481 1456,739 174,0 Z M 1358,739 L 309,1346 659,739 1358,739 Z"
   id="path5" />
  </g>
  <g
   id="bullet-char-template-10132"
   transform="scale(0.00048828125,-0.00048828125)">
   <path
   d="M 2015,739 L 1276,0 717,0 1260,543 174,543 174,936 1260,936 717,1481 1274,1481 2015,739 Z"
   id="path6" />
  </g>
  <g
   id="bullet-char-template-10007"
   transform="scale(0.00048828125,-0.00048828125)">
   <path
   d="M 0,-2 C -7,14 -16,27 -25,37 L 356,567 C 262,823 215,952 215,954 215,979 228,992 255,992 264,992 276,990 289,987 310,991 331,999 354,1012 L 381,999 492,748 772,1049 836,1024 860,1049 C 881,1039 901,1025 922,1006 886,937 835,863 770,784 769,783 710,716 594,584 L 774,223 C 774,196 753,168 711,139 L 727,119 C 717,90 699,76 672,76 641,76 570,178 457,381 L 164,-76 C 142,-110 111,-127 72,-127 30,-127 9,-110 8,-76 1,-67 -2,-52 -2,-32 -2,-23 -1,-13 0,-2 Z"
   id="path7" />
  </g>
  <g
   id="bullet-char-template-10004"
   transform="scale(0.00048828125,-0.00048828125)">
   <path
   d="M 285,-33 C 182,-33 111,30 74,156 52,228 41,333 41,471 41,549 55,616 82,672 116,743 169,778 240,778 293,778 328,747 346,684 L 369,508 C 377,444 397,411 428,410 L 1163,1116 C 1174,1127 1196,1133 1229,1133 1271,1133 1292,1118 1292,1087 L 1292,965 C 1292,929 1282,901 1262,881 L 442,47 C 390,-6 338,-33 285,-33 Z"
   id="path8" />
  </g>
  <g
   id="bullet-char-template-9679"
   transform="scale(0.00048828125,-0.00048828125)">
   <path
   d="M 813,0 C 632,0 489,54 383,161 276,268 223,411 223,592 223,773 276,916 383,1023 489,1130 632,1184 813,1184 992,1184 1136,1130 1245,1023 1353,916 1407,772 1407,592 1407,412 1353,268 1245,161 1136,54 992,0 813,0 Z"
   id="path9" />
  </g>
  <g
   id="bullet-char-template-8226"
   transform="scale(0.00048828125,-0.00048828125)">
   <path
   d="M 346,457 C 273,457 209,483 155,535 101,586 74,649 74,723 74,796 101,859 155,911 209,963 273,989 346,989 419,989 480,963 531,910 582,859 608,796 608,723 608,648 583,586 532,535 482,483 420,457 346,457 Z"
   id="path10" />
  </g>
  <g
   id="bullet-char-template-8211"
   transform="scale(0.00048828125,-0.00048828125)">
   <path
   d="M -4,459 L 1135,459 1135,606 -4,606 -4,459 Z"
   id="path11" />
  </g>
  <g
   id="bullet-char-template-61548"
   transform="scale(0.00048828125,-0.00048828125)">
   <path
   d="M 173,740 C 173,903 231,1043 346,1159 462,1274 601,1332 765,1332 928,1332 1067,1274 1183,1159 1299,1043 1357,903 1357,740 1357,577 1299,437 1183,322 1067,206 928,148 765,148 601,148 462,206 346,322 231,437 173,577 173,740 Z"
   id="path12" />
  </g>
 </defs>
 
 <path
   id="path13"
   d="M 5090.9554 900.82356 C 5077.8894 900.79817 5064.226 901.19962 5049.976 902.01212 C 4877.0451 911.95947 4717.1323 959.41904 4642.0939 1047.8947 C 4636.9246 1052.4579 4632.3359 1057.6095 4629.0197 1064.0177 C 4556.7273 1204.6949 4129.8361 1597.5531 3860.2811 1734.9845 C 3774.1848 1768.2995 3710.2301 1826.9519 3656.9861 1924.9988 C 3575.9861 2075.9988 3589.0097 2287.0196 3650.0097 2388.0196 C 3683.833 2442.7811 3739.9246 2455.1787 3802.5069 2443.1067 C 3803.0168 2443.03 3803.4934 2443.0891 3804.0055 2443.0033 C 4202.4851 2379.8841 4608.828 2071.8697 4875.8781 1805.9363 C 5102.5693 1976.9973 5515.0047 2210.1979 5974.9841 2240.0183 C 5977.4966 2240.0366 5980.0576 2239.5512 5982.5805 2239.4499 C 6050.9216 2249.5019 6137.648 2213.3186 6213.9876 2161.9869 C 6328.9876 2081.9869 6416.9938 1973.9935 6449.9938 1799.9935 C 6477.5609 1650.9591 6452.3377 1522.0998 6332.3266 1497.5313 C 6330.8629 1497.2007 6329.3879 1496.8855 6327.8824 1496.6011 C 6326.6747 1496.3843 6325.4398 1496.1772 6324.2134 1495.981 C 6322.1457 1495.6491 6320.1565 1495.2454 6318.0122 1494.9992 C 5740.4834 1428.8628 5405.202 1103.3374 5276.7321 970.58674 C 5245.0843 922.21758 5182.6352 901.00172 5090.9554 900.82356 z M 7963.8032 1935.7991 C 7950.7852 1935.7808 7937.1664 1936.1752 7922.9789 1936.9877 C 7696.9789 1948.9877 7492.9986 2025.9912 7471.9986 2175.9912 C 7470.9601 2182.7193 7470.1076 2189.8693 7469.2598 2196.9718 C 7469.2241 2197.3162 7469.0233 2197.6608 7469.0014 2198.0054 C 7468.9695 2198.6163 7468.8788 2199.7674 7468.8464 2200.3825 C 7466.7285 2218.9578 7465.3087 2238.7021 7464.5572 2259.2419 C 7430.8409 2779.0118 7253.2547 4320.5883 7119.9788 5014.0092 C 7031.5068 5478.3258 6802.1185 6339.2269 6567.196 7064.7367 C 6386.3206 6546.7179 6173.3312 5927.417 6002.9927 5427.9891 C 5710.9927 4568.9891 5472.9881 3742.0073 5316.9881 3055.0073 C 5316.9752 3054.9506 5316.9494 3054.9089 5316.9364 3054.8523 C 5298.4648 2960.3473 5214.6589 2926.3661 5069.9747 2933.9811 C 4849.5766 2946.6589 4650.1884 3020.2502 4620.9582 3162.0809 C 4620.1994 3164.0396 4619.2288 3165.9931 4618.9945 3168.0237 C 4566.9945 3620.0237 4432.9888 4975.0233 4288.9888 5671.0233 C 4201.6903 6098.2943 3989.1577 6791.4693 3769.2273 7407.7648 C 3585.6412 6827.5687 3368.0457 6106.8555 3220.0101 5575.9904 C 2974.0101 4700.9904 2591.0237 2786.0206 2533.0237 2499.0206 C 2531.8916 2493.3279 2529.9461 2488.2673 2527.4426 2483.7243 C 2501.5691 2403.6896 2419.3478 2374.953 2284.9768 2382.0251 C 2058.9768 2395.0251 1855.9966 2472.0105 1833.9966 2622.0105 C 1821.4087 2707.2645 1823.6895 2824.1837 1847.1224 2930.0537 C 1847.7586 2933.7033 1847.9839 2937.4287 1848.9827 2941.0091 C 1908.9827 3169.0091 2281.0141 4809.9945 2562.0141 5888.9945 C 2843.0141 6967.9945 3287.9964 8451.9965 3402.9964 8818.9965 C 3403.9297 8822.1334 3405.6271 8824.7848 3407.4922 8827.3164 C 3423.8875 8869.5425 3444.8454 8907.0412 3471.0026 8935.992 C 3567.0026 9041.992 3639.9815 9015.975 3773.9815 8916.975 C 3872.5254 8844.1702 3945.5263 8729.8123 3991.6426 8632.1862 C 3996.2785 8625.726 4000.5233 8618.7974 4003.9933 8610.9989 C 4296.9933 7898.9989 4624.9906 6791.9841 4809.9906 5974.9841 C 4880.4459 5665.1324 4960.4563 5239.0041 5036.3334 4809.5255 C 5156.7464 5196.7913 5287.9651 5611.2935 5424.9918 6013.9998 C 5777.0272 7042.8768 6089.8375 8043.7463 6212.0239 8429.4596 C 6216.164 8444.4643 6220.7768 8459.0147 6225.8732 8473.1778 C 6226.4602 8475.0273 6228.4493 8481.1822 6229.0254 8482.9964 C 6229.2695 8483.8473 6229.8575 8484.3284 6230.1623 8485.1151 C 6246.4184 8527.114 6267.1488 8564.3754 6293.0008 8593.0155 C 6390.0008 8699.0155 6462.0133 8672.9986 6597.0133 8573.9986 C 6689.0519 8506.1806 6759.4775 8400.5308 6806.0961 8307.0898 C 6809.8365 8301.2573 6813.1743 8294.9274 6816.018 8288.0212 C 6817.3117 8284.8829 6818.5995 8281.4086 6819.8937 8278.2543 C 6834.0472 8247.5145 6845.5226 8218.748 6854.0002 8194.0217 C 6854.8697 8191.4699 6855.6413 8189.0486 6856.4807 8186.5287 C 7154.1155 7430.5094 7460.1194 6287.6197 7617.0027 5463.0257 C 7783.0027 4601.0257 8135.023 2506.0019 8174.023 2127.0019 C 8174.5159 2122.3683 8174.0697 2118.0449 8173.0411 2113.9278 C 8178.7147 1987.3462 8106.6239 1936 7963.8032 1935.7991 z " />
   
  
</svg>
