<?xml version="1.0" encoding="UTF-8" standalone="no"?>
<svg
   version="1.2"
   width="100mm"
   height="100mm"
   viewBox="0 0 10000 10000"
   preserveAspectRatio="xMidYMid"
   fill-rule="evenodd"
   stroke-width="28.222"
   stroke-linejoin="round"
   xml:space="preserve"
   id="svg27"
   sodipodi:docname="gobo-caps-0147.svg"
   inkscape:version="1.4 (86a8ad7, 2024-10-11)"
   xmlns:inkscape="http://www.inkscape.org/namespaces/inkscape"
   xmlns:sodipodi="http://sodipodi.sourceforge.net/DTD/sodipodi-0.dtd"
   xmlns="http://www.w3.org/2000/svg"
   xmlns:svg="http://www.w3.org/2000/svg"
   xmlns:ooo="http://xml.openoffice.org/svg/export"><sodipodi:namedview
   id="namedview27"
   pagecolor="#ffffff"
   bordercolor="#000000"
   borderopacity="0.25"
   inkscape:showpageshadow="2"
   inkscape:pageopacity="0.0"
   inkscape:pagecheckerboard="0"
   inkscape:deskcolor="#d1d1d1"
   inkscape:document-units="mm"
   showgrid="false"
   inkscape:zoom="3.0876875"
   inkscape:cx="188.81444"
   inkscape:cy="188.97638"
   inkscape:window-width="2560"
   inkscape:window-height="1369"
   inkscape:window-x="-8"
   inkscape:window-y="-8"
   inkscape:window-maximized="1"
   inkscape:current-layer="svg27" />
 <defs
   class="ClipPathGroup"
   id="defs2">
  
  <clipPath
   id="presentation_clip_path_shrink"
   clipPathUnits="userSpaceOnUse">
   <rect
   x="10"
   y="10"
   width="9980"
   height="9980"
   id="rect2" />
  </clipPath>
 
  
 
   
  
    
   
     
    
      
      
      
      
      
      
      
      
      
      
      
      
     
       
      
       
      
       
      
       
      
       
      
       
      
       
      
       
      
       
      
       
      
       
      
       
      
        
        
       
        
        
       
        
        
       
        
        
       
        
        
       
        
        
       
        
        
       
        
        
       
        
        
       
        
        
       
        
        
       
        
        
       </defs>
 <defs
   class="TextShapeIndex"
   id="defs3">
  <g
   ooo:slide="id1"
   ooo:id-list="id3 id4 id5 id6 id7 id8 id9 id10 id11 id12 id13 id14"
   id="g2" />
 </defs>
 <defs
   class="EmbeddedBulletChars"
   id="defs12">
  <g
   id="bullet-char-template-57356"
   transform="scale(0.00048828125,-0.00048828125)">
   <path
   d="M 580,1141 L 1163,571 580,0 -4,571 580,1141 Z"
   id="path3" />
  </g>
  <g
   id="bullet-char-template-57354"
   transform="scale(0.00048828125,-0.00048828125)">
   <path
   d="M 8,1128 L 1137,1128 1137,0 8,0 8,1128 Z"
   id="path4" />
  </g>
  <g
   id="bullet-char-template-10146"
   transform="scale(0.00048828125,-0.00048828125)">
   <path
   d="M 174,0 L 602,739 174,1481 1456,739 174,0 Z M 1358,739 L 309,1346 659,739 1358,739 Z"
   id="path5" />
  </g>
  <g
   id="bullet-char-template-10132"
   transform="scale(0.00048828125,-0.00048828125)">
   <path
   d="M 2015,739 L 1276,0 717,0 1260,543 174,543 174,936 1260,936 717,1481 1274,1481 2015,739 Z"
   id="path6" />
  </g>
  <g
   id="bullet-char-template-10007"
   transform="scale(0.00048828125,-0.00048828125)">
   <path
   d="M 0,-2 C -7,14 -16,27 -25,37 L 356,567 C 262,823 215,952 215,954 215,979 228,992 255,992 264,992 276,990 289,987 310,991 331,999 354,1012 L 381,999 492,748 772,1049 836,1024 860,1049 C 881,1039 901,1025 922,1006 886,937 835,863 770,784 769,783 710,716 594,584 L 774,223 C 774,196 753,168 711,139 L 727,119 C 717,90 699,76 672,76 641,76 570,178 457,381 L 164,-76 C 142,-110 111,-127 72,-127 30,-127 9,-110 8,-76 1,-67 -2,-52 -2,-32 -2,-23 -1,-13 0,-2 Z"
   id="path7" />
  </g>
  <g
   id="bullet-char-template-10004"
   transform="scale(0.00048828125,-0.00048828125)">
   <path
   d="M 285,-33 C 182,-33 111,30 74,156 52,228 41,333 41,471 41,549 55,616 82,672 116,743 169,778 240,778 293,778 328,747 346,684 L 369,508 C 377,444 397,411 428,410 L 1163,1116 C 1174,1127 1196,1133 1229,1133 1271,1133 1292,1118 1292,1087 L 1292,965 C 1292,929 1282,901 1262,881 L 442,47 C 390,-6 338,-33 285,-33 Z"
   id="path8" />
  </g>
  <g
   id="bullet-char-template-9679"
   transform="scale(0.00048828125,-0.00048828125)">
   <path
   d="M 813,0 C 632,0 489,54 383,161 276,268 223,411 223,592 223,773 276,916 383,1023 489,1130 632,1184 813,1184 992,1184 1136,1130 1245,1023 1353,916 1407,772 1407,592 1407,412 1353,268 1245,161 1136,54 992,0 813,0 Z"
   id="path9" />
  </g>
  <g
   id="bullet-char-template-8226"
   transform="scale(0.00048828125,-0.00048828125)">
   <path
   d="M 346,457 C 273,457 209,483 155,535 101,586 74,649 74,723 74,796 101,859 155,911 209,963 273,989 346,989 419,989 480,963 531,910 582,859 608,796 608,723 608,648 583,586 532,535 482,483 420,457 346,457 Z"
   id="path10" />
  </g>
  <g
   id="bullet-char-template-8211"
   transform="scale(0.00048828125,-0.00048828125)">
   <path
   d="M -4,459 L 1135,459 1135,606 -4,606 -4,459 Z"
   id="path11" />
  </g>
  <g
   id="bullet-char-template-61548"
   transform="scale(0.00048828125,-0.00048828125)">
   <path
   d="M 173,740 C 173,903 231,1043 346,1159 462,1274 601,1332 765,1332 928,1332 1067,1274 1183,1159 1299,1043 1357,903 1357,740 1357,577 1299,437 1183,322 1067,206 928,148 765,148 601,148 462,206 346,322 231,437 173,577 173,740 Z"
   id="path12" />
  </g>
 </defs>
 
 <path
   id="path13"
   d="M 6316.1002 585.13224 C 6310.8639 585.2613 6305.4772 585.57324 6299.9772 586.01074 C 6259.0625 589.51771 6221.9533 595.50901 6187.8393 604.35587 C 5801.4103 686.19343 5372.8776 985.61815 5084.2374 1244.3685 C 4783.1172 1060.692 4314.2478 839.68528 3903.0175 813.0253 C 3900.5471 813.00727 3898.051 813.44375 3895.5761 813.54207 C 3884.0733 812.89272 3871.9391 812.97705 3858.9892 814.00716 C 3683.9892 829.00716 3575.9986 887.02449 3493.9986 1038.0245 C 3412.9986 1189.0245 3426.0041 1398.9936 3488.0041 1500.9936 C 3512.7074 1541.6345 3549.9693 1559.0524 3593.114 1560.4215 C 3594.1272 1560.5554 3594.978 1560.876 3596.0079 1560.99 C 4215.0079 1632.99 4759.9743 2091.9844 4864.9743 2201.9844 C 4869.5009 2206.7266 4874.8912 2209.8701 4880.8907 2211.6479 C 4959.4426 2272.3099 5029.6303 2241.2348 5145.0089 2155.9924 C 5171.3344 2136.7394 5195.774 2114.3704 5218.4411 2090.1566 C 5227.1382 2085.5847 5234.7862 2079.3214 5241.0237 2070.9847 C 5345.0237 1929.9847 5912.0026 1421.9779 6179.0026 1293.9779 C 6189.3922 1289.0749 6199.2205 1283.2125 6208.7683 1276.9246 C 6221.7177 1269.4081 6234.537 1261.4576 6247.0088 1252.9984 C 6363.0088 1172.9984 6450.9969 1066.005 6483.9969 891.00504 C 6514.9969 723.41129 6478.4264 581.13141 6316.1002 585.13224 z M 6984.9999 2001.9966 C 6971.9269 2001.9234 6958.2705 2002.2285 6944.0205 2002.9785 C 6718.0205 2015.9785 6515.0222 2093.0155 6494.0222 2243.0155 C 6488.7265 2277.3225 6485.9762 2316.8831 6485.9606 2358.6674 C 6484.8937 2366.8216 6484.4304 2374.952 6484.9788 2383.007 C 6501.9788 2616.007 6644.0247 4321.0143 6622.0247 5438.0143 C 6611.3537 5956.7179 6570.8327 6497.5343 6529.2138 6969.1353 C 6101.9334 6310.2217 5555.427 5481.2224 5224.0222 5000.9867 C 4679.3305 4213.1114 3732.6239 2750.2537 3472.3462 2390.2417 C 3437.8712 2330.3733 3360.3419 2308.7736 3242.0243 2315.0008 C 3015.0243 2327.0008 2811.9924 2405.0043 2790.9924 2554.0043 C 2790.9729 2554.1371 2790.9601 2554.2848 2790.9407 2554.4177 C 2789.2947 2557.6172 2788.281 2560.8025 2787.9952 2563.9778 C 2787.5089 2570.3374 2787.0785 2585.8832 2786.5999 2593.3301 C 2784.7907 2614.1075 2783.7628 2636.0269 2783.551 2658.8041 C 2760.3985 3148.1219 2747.2366 4867.3727 2750.9949 5541.9873 C 2754.9949 6261.9873 2834.0097 8305.0051 2847.0097 8679.0051 C 2846.8979 8683.7381 2848.0673 8687.6762 2849.8519 8691.2524 C 2861.4003 8804.7981 2894.0114 8919.7997 2955.0134 8987.9784 C 3052.0134 9093.9784 3124.0077 9068.0132 3260.0077 8969.0132 C 3393.0077 8871.0132 3480.0127 8694.0029 3516.0127 8588.0029 C 3547.5235 8496.8587 3559.3279 8426.0751 3552.393 8372.7705 C 3552.4968 8011.5509 3403.5817 6705.9496 3377.0031 5883 C 3363.6629 5417.7602 3379.8027 4529.9681 3408.0607 3767.3152 C 3887.8446 4437.9771 4541.9193 5370.3316 4797.0198 5763.9892 C 5192.0198 6373.9892 6328.0151 8152.981 6483.0151 8480.981 C 6483.4432 8481.615 6484.1062 8481.9391 6484.5654 8482.5313 C 6498.6421 8512.5129 6515.3635 8539.2202 6535.0016 8560.9761 C 6631.0016 8667.9761 6704.014 8641.0108 6839.014 8542.0108 C 6972.014 8445.0108 7059.0009 8267.9824 7096.0009 8161.9824 C 7108.4661 8125.3997 7117.7045 8092.2397 7124.0095 8062.0401 C 7124.6801 8060.35 7125.6897 8058.6519 7126.0249 8056.9758 C 7194.0249 7711.9758 7229.0176 6280.9869 7246.0176 5336.9869 C 7262.0176 4393.9869 7227.9767 2429.0189 7196.9767 2146.0189 C 7195.534 2133.5159 7192.4117 2122.4805 7188.5534 2112.1191 C 7167.7727 2035.3232 7098.8901 2002.6347 6984.9999 2001.9966 z " />
   
  
</svg>
