<?xml version="1.0" encoding="UTF-8" standalone="no"?>
<svg
   version="1.2"
   width="100mm"
   height="100mm"
   viewBox="0 0 10000 10000"
   preserveAspectRatio="xMidYMid"
   fill-rule="evenodd"
   stroke-width="28.222"
   stroke-linejoin="round"
   xml:space="preserve"
   id="svg26"
   sodipodi:docname="gobo-caps-0101.svg"
   inkscape:version="1.4 (86a8ad7, 2024-10-11)"
   xmlns:inkscape="http://www.inkscape.org/namespaces/inkscape"
   xmlns:sodipodi="http://sodipodi.sourceforge.net/DTD/sodipodi-0.dtd"
   xmlns="http://www.w3.org/2000/svg"
   xmlns:svg="http://www.w3.org/2000/svg"
   xmlns:ooo="http://xml.openoffice.org/svg/export"><sodipodi:namedview
   id="namedview26"
   pagecolor="#ffffff"
   bordercolor="#000000"
   borderopacity="0.25"
   inkscape:showpageshadow="2"
   inkscape:pageopacity="0.0"
   inkscape:pagecheckerboard="0"
   inkscape:deskcolor="#d1d1d1"
   inkscape:document-units="mm"
   showgrid="false"
   inkscape:zoom="3.0876875"
   inkscape:cx="188.81444"
   inkscape:cy="188.97638"
   inkscape:window-width="2560"
   inkscape:window-height="1369"
   inkscape:window-x="-8"
   inkscape:window-y="-8"
   inkscape:window-maximized="1"
   inkscape:current-layer="svg26" />
 <defs
   class="ClipPathGroup"
   id="defs2">
  
  <clipPath
   id="presentation_clip_path_shrink"
   clipPathUnits="userSpaceOnUse">
   <rect
   x="10"
   y="10"
   width="9980"
   height="9980"
   id="rect2" />
  </clipPath>
 
  
 
   
  
    
   
     
    
      
      
      
      
      
      
      
      
      
      
      
     
       
      
       
      
       
      
       
      
       
      
       
      
       
      
       
      
       
      
       
      
       
      
        
        
       
        
        
       
        
        
       
        
        
       
        
        
       
        
        
       
        
        
       
        
        
       
        
        
       
        
        
       
        
        
       </defs>
 <defs
   class="TextShapeIndex"
   id="defs3">
  <g
   ooo:slide="id1"
   ooo:id-list="id3 id4 id5 id6 id7 id8 id9 id10 id11 id12 id13"
   id="g2" />
 </defs>
 <defs
   class="EmbeddedBulletChars"
   id="defs12">
  <g
   id="bullet-char-template-57356"
   transform="scale(0.00048828125,-0.00048828125)">
   <path
   d="M 580,1141 L 1163,571 580,0 -4,571 580,1141 Z"
   id="path3" />
  </g>
  <g
   id="bullet-char-template-57354"
   transform="scale(0.00048828125,-0.00048828125)">
   <path
   d="M 8,1128 L 1137,1128 1137,0 8,0 8,1128 Z"
   id="path4" />
  </g>
  <g
   id="bullet-char-template-10146"
   transform="scale(0.00048828125,-0.00048828125)">
   <path
   d="M 174,0 L 602,739 174,1481 1456,739 174,0 Z M 1358,739 L 309,1346 659,739 1358,739 Z"
   id="path5" />
  </g>
  <g
   id="bullet-char-template-10132"
   transform="scale(0.00048828125,-0.00048828125)">
   <path
   d="M 2015,739 L 1276,0 717,0 1260,543 174,543 174,936 1260,936 717,1481 1274,1481 2015,739 Z"
   id="path6" />
  </g>
  <g
   id="bullet-char-template-10007"
   transform="scale(0.00048828125,-0.00048828125)">
   <path
   d="M 0,-2 C -7,14 -16,27 -25,37 L 356,567 C 262,823 215,952 215,954 215,979 228,992 255,992 264,992 276,990 289,987 310,991 331,999 354,1012 L 381,999 492,748 772,1049 836,1024 860,1049 C 881,1039 901,1025 922,1006 886,937 835,863 770,784 769,783 710,716 594,584 L 774,223 C 774,196 753,168 711,139 L 727,119 C 717,90 699,76 672,76 641,76 570,178 457,381 L 164,-76 C 142,-110 111,-127 72,-127 30,-127 9,-110 8,-76 1,-67 -2,-52 -2,-32 -2,-23 -1,-13 0,-2 Z"
   id="path7" />
  </g>
  <g
   id="bullet-char-template-10004"
   transform="scale(0.00048828125,-0.00048828125)">
   <path
   d="M 285,-33 C 182,-33 111,30 74,156 52,228 41,333 41,471 41,549 55,616 82,672 116,743 169,778 240,778 293,778 328,747 346,684 L 369,508 C 377,444 397,411 428,410 L 1163,1116 C 1174,1127 1196,1133 1229,1133 1271,1133 1292,1118 1292,1087 L 1292,965 C 1292,929 1282,901 1262,881 L 442,47 C 390,-6 338,-33 285,-33 Z"
   id="path8" />
  </g>
  <g
   id="bullet-char-template-9679"
   transform="scale(0.00048828125,-0.00048828125)">
   <path
   d="M 813,0 C 632,0 489,54 383,161 276,268 223,411 223,592 223,773 276,916 383,1023 489,1130 632,1184 813,1184 992,1184 1136,1130 1245,1023 1353,916 1407,772 1407,592 1407,412 1353,268 1245,161 1136,54 992,0 813,0 Z"
   id="path9" />
  </g>
  <g
   id="bullet-char-template-8226"
   transform="scale(0.00048828125,-0.00048828125)">
   <path
   d="M 346,457 C 273,457 209,483 155,535 101,586 74,649 74,723 74,796 101,859 155,911 209,963 273,989 346,989 419,989 480,963 531,910 582,859 608,796 608,723 608,648 583,586 532,535 482,483 420,457 346,457 Z"
   id="path10" />
  </g>
  <g
   id="bullet-char-template-8211"
   transform="scale(0.00048828125,-0.00048828125)">
   <path
   d="M -4,459 L 1135,459 1135,606 -4,606 -4,459 Z"
   id="path11" />
  </g>
  <g
   id="bullet-char-template-61548"
   transform="scale(0.00048828125,-0.00048828125)">
   <path
   d="M 173,740 C 173,903 231,1043 346,1159 462,1274 601,1332 765,1332 928,1332 1067,1274 1183,1159 1299,1043 1357,903 1357,740 1357,577 1299,437 1183,322 1067,206 928,148 765,148 601,148 462,206 346,322 231,437 173,577 173,740 Z"
   id="path12" />
  </g>
 </defs>
 
 <path
   id="path13"
   d="M 6294.9646 2084.989 C 6281.8916 2084.9155 6268.2351 2085.2725 6253.9851 2086.0225 C 6206.6083 2088.7599 6160.2788 2094.5186 6116.2158 2103.0757 C 5695.3401 2152.4362 5430.4653 2161.0092 4980.0061 2190.9774 C 4527.023 2221.9907 4257.5557 2221.531 3972.7807 2244.5658 C 3969.1818 2244.7054 3965.6574 2244.7857 3961.9804 2244.9792 C 3735.9804 2257.9792 3532.982 2335.0163 3511.982 2485.0163 C 3488.982 2634.0163 3512.0248 2879.9774 3615.0248 2993.9774 C 3656.4464 3039.7138 3693.5518 3060.8637 3733.1571 3062.1903 C 3737.2746 3064.4149 3741.5419 3065.445 3746.0245 3063.999 C 3749.5041 3062.8265 3754.256 3061.6586 3758.0652 3060.485 C 3769.2858 3058.6586 3780.8514 3055.2838 3792.7917 3050.7182 C 4022.0836 2993.0713 4608.1089 2936.2715 4948.0184 2913.9823 C 5312.0184 2889.9823 5888.0013 2902.006 6031.0013 2907.006 C 6036.4502 2906.9621 6042.8996 2904.6725 6049.7599 2901.4249 C 6095.1711 2893.9696 6145.3717 2863.4041 6210.0085 2816.0038 C 6344.0085 2718.0038 6431.9954 2540.9753 6466.9954 2435.9753 C 6554.1829 2181.9128 6491.0595 2086.0913 6294.9646 2084.989 z M 5176.9966 3152.9858 C 5163.9236 3152.9128 5150.2672 3153.2693 5136.0172 3154.0193 C 4923.2948 3166.2556 4730.9783 3235.1855 4691.5999 3367.4947 C 4516.2627 3697.9901 4038.1177 4656.0564 3758.0135 5296.9893 C 3481.8871 5924.4628 2839.0452 7476.2593 2770.2702 7707.3331 C 2768.7205 7712.2933 2767.3996 7717.3363 2766.2911 7722.4743 C 2765.4637 7726.0325 2763.1786 7732.8805 2762.9838 7734.98 C 2762.7878 7737.0704 2763.1042 7739.3579 2763.1905 7741.5429 C 2742.7613 7891.0948 2766.4493 8131.6032 2867.0084 8243.9929 C 2963.0084 8349.9929 3036.0209 8323.9759 3171.0209 8224.9759 C 3255.69 8162.5882 3322.0362 8068.2675 3368.4249 7980.8048 C 3371.0873 7976.6934 3373.7764 7972.6136 3376.0213 7967.989 C 3377.5754 7964.7381 3379.7641 7959.1242 3381.4473 7955.38 C 3401.5268 7914.8279 3417.1674 7876.617 3428.0078 7844.9991 C 3435.7578 7822.4158 3442.206 7801.1905 3447.5932 7781.0754 C 3486.6746 7670.9203 3540.7193 7510.3295 3597.1964 7341.3606 C 3823.2189 7222.8111 4415.914 6884.3392 5051.9913 6733.0257 C 5535.6117 6618.897 5908.0688 6572.8481 6188.8728 6549.0576 C 6370.7214 7050.5646 6474.1448 7421.9372 6565.2323 7666.0953 C 6571.8718 7687.2439 6579.476 7707.6057 6588.1766 7726.6601 C 6591.0887 7733.8796 6594.1076 7743.0643 6597.0133 7750.0178 C 6598.8241 7754.7259 6601.859 7757.8607 6605.4366 7760.3531 C 6616.0455 7778.7182 6627.8495 7795.4704 6640.9899 7810.0142 C 6736.9899 7916.0142 6810.0205 7889.9973 6944.0205 7790.9973 C 7078.0205 7692.9973 7165.0074 7515.9869 7201.0074 7409.9869 C 7243.8127 7285.7135 7250.2596 7199.6672 7222.6599 7143.9567 C 7167.2043 6937.4697 7040.9681 6602.7386 6871.3118 6192.1801 C 6897.3368 6142.6171 6917.0454 6095.1864 6930.0162 6056.9946 C 7023.0162 5786.9946 6945.006 5696.0236 6717.006 5708.0236 C 6700.3885 5708.9795 6683.9606 5710.3512 6667.655 5712.0027 C 6605.9582 5568.7415 6544.3411 5425.6289 6477.0206 5273.0114 C 6108.0206 4443.0114 5522.0235 3480.9963 5372.0235 3234.9963 C 5369.3422 3230.6169 5366.1926 3227.1141 5363.2385 3223.2658 C 5331.5335 3174.8296 5268.8847 3153.4989 5176.9966 3152.9858 z M 4965.485 4175.3007 C 5196.1764 4509.6466 5546.8051 5022.3786 5848.9969 5701.9775 C 5867.9455 5744.7685 5885.6055 5786.0698 5903.5156 5827.6546 C 5569.4847 5894.4096 5185.4199 5984.2002 4854.0189 6082.9878 C 4459.2762 6199.7995 4158.1265 6320.5543 3911.6475 6423.1738 C 3990.9915 6201.5068 4072.5912 5984.1911 4151.9946 5792.9797 C 4362.479 5275.1213 4701.0017 4634.9923 4965.485 4175.3007 z " />
   
  
</svg>
