<?xml version="1.0" encoding="UTF-8" standalone="no"?>
<svg
   version="1.2"
   width="100mm"
   height="100mm"
   viewBox="0 0 10000 10000"
   preserveAspectRatio="xMidYMid"
   fill-rule="evenodd"
   stroke-width="28.222"
   stroke-linejoin="round"
   xml:space="preserve"
   id="svg26"
   sodipodi:docname="gobo-caps-012E.svg"
   inkscape:version="1.4 (86a8ad7, 2024-10-11)"
   xmlns:inkscape="http://www.inkscape.org/namespaces/inkscape"
   xmlns:sodipodi="http://sodipodi.sourceforge.net/DTD/sodipodi-0.dtd"
   xmlns="http://www.w3.org/2000/svg"
   xmlns:svg="http://www.w3.org/2000/svg"
   xmlns:ooo="http://xml.openoffice.org/svg/export"><sodipodi:namedview
   id="namedview26"
   pagecolor="#ffffff"
   bordercolor="#000000"
   borderopacity="0.25"
   inkscape:showpageshadow="2"
   inkscape:pageopacity="0.0"
   inkscape:pagecheckerboard="0"
   inkscape:deskcolor="#d1d1d1"
   inkscape:document-units="mm"
   showgrid="false"
   inkscape:zoom="3.0876875"
   inkscape:cx="188.81444"
   inkscape:cy="188.97638"
   inkscape:window-width="2560"
   inkscape:window-height="1369"
   inkscape:window-x="-8"
   inkscape:window-y="-8"
   inkscape:window-maximized="1"
   inkscape:current-layer="svg26" />
 <defs
   class="ClipPathGroup"
   id="defs2">
  
  <clipPath
   id="presentation_clip_path_shrink"
   clipPathUnits="userSpaceOnUse">
   <rect
   x="10"
   y="10"
   width="9980"
   height="9980"
   id="rect2" />
  </clipPath>
 
  
 
   
  
    
   
     
    
      
      
      
      
      
      
      
      
      
      
      
     
       
      
       
      
       
      
       
      
       
      
       
      
       
      
       
      
       
      
       
      
       
      
        
        
       
        
        
       
        
        
       
        
        
       
        
        
       
        
        
       
        
        
       
        
        
       
        
        
       
        
        
       
        
        
       </defs>
 <defs
   class="TextShapeIndex"
   id="defs3">
  <g
   ooo:slide="id1"
   ooo:id-list="id3 id4 id5 id6 id7 id8 id9 id10 id11 id12 id13"
   id="g2" />
 </defs>
 <defs
   class="EmbeddedBulletChars"
   id="defs12">
  <g
   id="bullet-char-template-57356"
   transform="scale(0.00048828125,-0.00048828125)">
   <path
   d="M 580,1141 L 1163,571 580,0 -4,571 580,1141 Z"
   id="path3" />
  </g>
  <g
   id="bullet-char-template-57354"
   transform="scale(0.00048828125,-0.00048828125)">
   <path
   d="M 8,1128 L 1137,1128 1137,0 8,0 8,1128 Z"
   id="path4" />
  </g>
  <g
   id="bullet-char-template-10146"
   transform="scale(0.00048828125,-0.00048828125)">
   <path
   d="M 174,0 L 602,739 174,1481 1456,739 174,0 Z M 1358,739 L 309,1346 659,739 1358,739 Z"
   id="path5" />
  </g>
  <g
   id="bullet-char-template-10132"
   transform="scale(0.00048828125,-0.00048828125)">
   <path
   d="M 2015,739 L 1276,0 717,0 1260,543 174,543 174,936 1260,936 717,1481 1274,1481 2015,739 Z"
   id="path6" />
  </g>
  <g
   id="bullet-char-template-10007"
   transform="scale(0.00048828125,-0.00048828125)">
   <path
   d="M 0,-2 C -7,14 -16,27 -25,37 L 356,567 C 262,823 215,952 215,954 215,979 228,992 255,992 264,992 276,990 289,987 310,991 331,999 354,1012 L 381,999 492,748 772,1049 836,1024 860,1049 C 881,1039 901,1025 922,1006 886,937 835,863 770,784 769,783 710,716 594,584 L 774,223 C 774,196 753,168 711,139 L 727,119 C 717,90 699,76 672,76 641,76 570,178 457,381 L 164,-76 C 142,-110 111,-127 72,-127 30,-127 9,-110 8,-76 1,-67 -2,-52 -2,-32 -2,-23 -1,-13 0,-2 Z"
   id="path7" />
  </g>
  <g
   id="bullet-char-template-10004"
   transform="scale(0.00048828125,-0.00048828125)">
   <path
   d="M 285,-33 C 182,-33 111,30 74,156 52,228 41,333 41,471 41,549 55,616 82,672 116,743 169,778 240,778 293,778 328,747 346,684 L 369,508 C 377,444 397,411 428,410 L 1163,1116 C 1174,1127 1196,1133 1229,1133 1271,1133 1292,1118 1292,1087 L 1292,965 C 1292,929 1282,901 1262,881 L 442,47 C 390,-6 338,-33 285,-33 Z"
   id="path8" />
  </g>
  <g
   id="bullet-char-template-9679"
   transform="scale(0.00048828125,-0.00048828125)">
   <path
   d="M 813,0 C 632,0 489,54 383,161 276,268 223,411 223,592 223,773 276,916 383,1023 489,1130 632,1184 813,1184 992,1184 1136,1130 1245,1023 1353,916 1407,772 1407,592 1407,412 1353,268 1245,161 1136,54 992,0 813,0 Z"
   id="path9" />
  </g>
  <g
   id="bullet-char-template-8226"
   transform="scale(0.00048828125,-0.00048828125)">
   <path
   d="M 346,457 C 273,457 209,483 155,535 101,586 74,649 74,723 74,796 101,859 155,911 209,963 273,989 346,989 419,989 480,963 531,910 582,859 608,796 608,723 608,648 583,586 532,535 482,483 420,457 346,457 Z"
   id="path10" />
  </g>
  <g
   id="bullet-char-template-8211"
   transform="scale(0.00048828125,-0.00048828125)">
   <path
   d="M -4,459 L 1135,459 1135,606 -4,606 -4,459 Z"
   id="path11" />
  </g>
  <g
   id="bullet-char-template-61548"
   transform="scale(0.00048828125,-0.00048828125)">
   <path
   d="M 173,740 C 173,903 231,1043 346,1159 462,1274 601,1332 765,1332 928,1332 1067,1274 1183,1159 1299,1043 1357,903 1357,740 1357,577 1299,437 1183,322 1067,206 928,148 765,148 601,148 462,206 346,322 231,437 173,577 173,740 Z"
   id="path12" />
  </g>
 </defs>
 
 <path
   id="path13"
   d="M 6234.9682 2092.9988 C 6232.7962 2092.9867 6230.5068 2093.0395 6228.302 2093.0505 C 5719.8103 2091.1235 4214.6852 2226.0716 3776.9787 2323.9925 C 3774.0481 2324.7411 3771.3348 2326.1965 3768.5038 2327.2998 C 3620.8659 2362.8116 3508.3123 2433.4895 3493.0167 2542.0154 C 3471.0167 2691.0154 3494.0079 2936.9765 3596.0079 3050.9765 C 3640.755 3099.4141 3680.1794 3120.1191 3722.9252 3118.7243 C 3723.6268 3118.719 3724.2831 3119.0423 3724.9922 3118.9827 C 3725.651 3118.8369 3726.6525 3118.6638 3727.3177 3118.5176 C 3738.1492 3117.786 3749.2719 3115.4416 3760.7007 3112.0064 C 3927.1502 3078.8416 4238.9384 3039.2216 4581.1674 3003.4342 C 4561.4615 3419.4516 4569.1095 4531.0971 4570.9871 5207.0206 C 4575.4222 5844.7935 4611.7668 7430.4961 4629.9499 8054.3404 C 4318.1718 8097.0222 4044.9006 8139.3132 3891.442 8169.8889 C 3715.9827 8199.2557 3575.271 8273.6653 3558.0257 8396.0249 C 3536.0257 8545.0249 3559.0168 8790.9861 3661.0168 8904.9861 C 3707.4534 8955.2525 3748.1592 8975.7036 3792.7917 8972.5272 C 3794.5314 8972.6576 3796.2364 8973.1613 3798.011 8972.9923 C 4079.3825 8910.155 4922.5626 8801.2424 5502.1447 8742.8771 C 5498.2912 8758.4931 5494.4685 8774.1658 5490.9826 8790.006 C 5350.9826 9428.006 5774.9996 9867.0136 6312.9996 9809.0136 C 6851.9996 9751.0136 7006.004 9601.019 7130.004 9467.019 C 7130.754 9466.2144 7131.113 9464.9588 7131.7093 9463.9701 C 7224.6453 9365.0773 7287.1515 9232.7853 7317.021 9148.0204 C 7409.021 8878.0204 7332.0108 8786.9977 7104.0108 8798.9977 C 6953.9876 8807.5894 6814.4585 8844.1715 6731.0103 8910.9806 C 6622.0103 9001.9806 6400.9824 9135.0037 6256.9824 8998.0037 C 6125.1582 8872.5876 6146.1756 8703.7114 6258.791 8578.5978 C 6368.0323 8477.5486 6440.102 8328.0604 6472.008 8235.0012 C 6565.008 7964.0012 6486.9978 7873.9785 6258.9978 7885.9785 C 6254.9372 7886.1941 6250.9509 7886.5988 6246.9055 7886.857 C 6056.7228 7890.5916 5713.5511 7922.6669 5339.2606 7965.5086 C 5323.2845 7538.6196 5228.9499 6386.9772 5208.0025 5590.9765 C 5183.0666 4818.8874 5236.4667 3431.0951 5280.2461 2939.5622 C 5609.8384 2914.1805 5884.2047 2900.702 5976.0176 2910.9851 C 5981.3188 2910.8254 5986.7206 2909.8267 5992.244 2908.0912 C 6036.9991 2899.9403 6086.5584 2869.5128 6150.0122 2822.9801 C 6283.0122 2725.9801 6370.9991 2548.0033 6406.9991 2443.0033 C 6488.3054 2204.3868 6437.5266 2105.651 6267.266 2094.1874 C 6265.473 2093.8572 6263.9092 2093.1156 6261.995 2092.9988 C 6254.6034 2092.8744 6244.6871 2093.1045 6236.7769 2093.0505 C 6236.1631 2093.0452 6235.5846 2093.0023 6234.9682 2092.9988 z " />
   
  
</svg>
