<?xml version="1.0" encoding="UTF-8" standalone="no"?>
<svg
   version="1.2"
   width="100mm"
   height="100mm"
   viewBox="0 0 10000 10000"
   preserveAspectRatio="xMidYMid"
   fill-rule="evenodd"
   stroke-width="28.222"
   stroke-linejoin="round"
   xml:space="preserve"
   id="svg23"
   sodipodi:docname="gobo-caps-0108.svg"
   inkscape:version="1.4 (86a8ad7, 2024-10-11)"
   xmlns:inkscape="http://www.inkscape.org/namespaces/inkscape"
   xmlns:sodipodi="http://sodipodi.sourceforge.net/DTD/sodipodi-0.dtd"
   xmlns="http://www.w3.org/2000/svg"
   xmlns:svg="http://www.w3.org/2000/svg"
   xmlns:ooo="http://xml.openoffice.org/svg/export"><sodipodi:namedview
   id="namedview23"
   pagecolor="#ffffff"
   bordercolor="#000000"
   borderopacity="0.25"
   inkscape:showpageshadow="2"
   inkscape:pageopacity="0.0"
   inkscape:pagecheckerboard="0"
   inkscape:deskcolor="#d1d1d1"
   inkscape:document-units="mm"
   showgrid="false"
   inkscape:zoom="3.0876875"
   inkscape:cx="188.81444"
   inkscape:cy="188.97638"
   inkscape:window-width="2560"
   inkscape:window-height="1369"
   inkscape:window-x="-8"
   inkscape:window-y="-8"
   inkscape:window-maximized="1"
   inkscape:current-layer="svg23" />
 <defs
   class="ClipPathGroup"
   id="defs2">
  
  <clipPath
   id="presentation_clip_path_shrink"
   clipPathUnits="userSpaceOnUse">
   <rect
   x="10"
   y="10"
   width="9980"
   height="9980"
   id="rect2" />
  </clipPath>
 
  
 
   
  
    
   
     
    
      
      
      
      
      
      
      
      
     
       
      
       
      
       
      
       
      
       
      
       
      
       
      
       
      
        
        
       
        
        
       
        
        
       
        
        
       
        
        
       
        
        
       
        
        
       
        
        
       </defs>
 <defs
   class="TextShapeIndex"
   id="defs3">
  <g
   ooo:slide="id1"
   ooo:id-list="id3 id4 id5 id6 id7 id8 id9 id10"
   id="g2" />
 </defs>
 <defs
   class="EmbeddedBulletChars"
   id="defs12">
  <g
   id="bullet-char-template-57356"
   transform="scale(0.00048828125,-0.00048828125)">
   <path
   d="M 580,1141 L 1163,571 580,0 -4,571 580,1141 Z"
   id="path3" />
  </g>
  <g
   id="bullet-char-template-57354"
   transform="scale(0.00048828125,-0.00048828125)">
   <path
   d="M 8,1128 L 1137,1128 1137,0 8,0 8,1128 Z"
   id="path4" />
  </g>
  <g
   id="bullet-char-template-10146"
   transform="scale(0.00048828125,-0.00048828125)">
   <path
   d="M 174,0 L 602,739 174,1481 1456,739 174,0 Z M 1358,739 L 309,1346 659,739 1358,739 Z"
   id="path5" />
  </g>
  <g
   id="bullet-char-template-10132"
   transform="scale(0.00048828125,-0.00048828125)">
   <path
   d="M 2015,739 L 1276,0 717,0 1260,543 174,543 174,936 1260,936 717,1481 1274,1481 2015,739 Z"
   id="path6" />
  </g>
  <g
   id="bullet-char-template-10007"
   transform="scale(0.00048828125,-0.00048828125)">
   <path
   d="M 0,-2 C -7,14 -16,27 -25,37 L 356,567 C 262,823 215,952 215,954 215,979 228,992 255,992 264,992 276,990 289,987 310,991 331,999 354,1012 L 381,999 492,748 772,1049 836,1024 860,1049 C 881,1039 901,1025 922,1006 886,937 835,863 770,784 769,783 710,716 594,584 L 774,223 C 774,196 753,168 711,139 L 727,119 C 717,90 699,76 672,76 641,76 570,178 457,381 L 164,-76 C 142,-110 111,-127 72,-127 30,-127 9,-110 8,-76 1,-67 -2,-52 -2,-32 -2,-23 -1,-13 0,-2 Z"
   id="path7" />
  </g>
  <g
   id="bullet-char-template-10004"
   transform="scale(0.00048828125,-0.00048828125)">
   <path
   d="M 285,-33 C 182,-33 111,30 74,156 52,228 41,333 41,471 41,549 55,616 82,672 116,743 169,778 240,778 293,778 328,747 346,684 L 369,508 C 377,444 397,411 428,410 L 1163,1116 C 1174,1127 1196,1133 1229,1133 1271,1133 1292,1118 1292,1087 L 1292,965 C 1292,929 1282,901 1262,881 L 442,47 C 390,-6 338,-33 285,-33 Z"
   id="path8" />
  </g>
  <g
   id="bullet-char-template-9679"
   transform="scale(0.00048828125,-0.00048828125)">
   <path
   d="M 813,0 C 632,0 489,54 383,161 276,268 223,411 223,592 223,773 276,916 383,1023 489,1130 632,1184 813,1184 992,1184 1136,1130 1245,1023 1353,916 1407,772 1407,592 1407,412 1353,268 1245,161 1136,54 992,0 813,0 Z"
   id="path9" />
  </g>
  <g
   id="bullet-char-template-8226"
   transform="scale(0.00048828125,-0.00048828125)">
   <path
   d="M 346,457 C 273,457 209,483 155,535 101,586 74,649 74,723 74,796 101,859 155,911 209,963 273,989 346,989 419,989 480,963 531,910 582,859 608,796 608,723 608,648 583,586 532,535 482,483 420,457 346,457 Z"
   id="path10" />
  </g>
  <g
   id="bullet-char-template-8211"
   transform="scale(0.00048828125,-0.00048828125)">
   <path
   d="M -4,459 L 1135,459 1135,606 -4,606 -4,459 Z"
   id="path11" />
  </g>
  <g
   id="bullet-char-template-61548"
   transform="scale(0.00048828125,-0.00048828125)">
   <path
   d="M 173,740 C 173,903 231,1043 346,1159 462,1274 601,1332 765,1332 928,1332 1067,1274 1183,1159 1299,1043 1357,903 1357,740 1357,577 1299,437 1183,322 1067,206 928,148 765,148 601,148 462,206 346,322 231,437 173,577 173,740 Z"
   id="path12" />
  </g>
 </defs>
 
 <path
   id="path13"
   d="M 5662.9618 518.83138 C 5649.8959 518.80599 5636.2324 519.20743 5621.9824 520.01993 C 5448.9873 529.97098 5289.0001 577.4668 5213.9969 666.00585 C 5208.8763 670.54944 5204.2673 675.66244 5200.9745 682.02555 C 5128.6875 822.69206 4701.8977 1215.4809 4432.3392 1352.9407 C 4346.1976 1386.2495 4282.2549 1444.9257 4228.9925 1543.0066 C 4147.9925 1694.0066 4161.0162 1904.9757 4222.0162 2005.9757 C 4255.8448 2060.7459 4311.9191 2073.1962 4374.5133 2061.1145 C 4375.0234 2061.0378 4375.4997 2061.097 4376.0119 2061.0111 C 4774.4652 1997.8961 5180.7819 1689.9172 5447.8328 1423.9958 C 5674.529 1595.0552 6087.0268 1828.1551 6546.9905 1857.9744 C 6549.4682 1857.9925 6551.9958 1857.556 6554.4836 1857.4577 C 6622.8402 1867.5601 6709.6169 1831.3517 6785.994 1779.9947 C 6900.994 1699.9947 6989.0003 1592.0013 7022.0003 1418.0013 C 7049.6157 1268.7055 7024.2679 1139.5768 6903.7129 1115.3324 C 6902.7726 1115.1252 6901.8281 1114.9522 6900.8707 1114.764 C 6898.8037 1114.3816 6896.6882 1114.0519 6894.5662 1113.7305 C 6893.0348 1113.5037 6891.5913 1113.1876 6890.0187 1113.007 C 6312.2945 1046.8483 5977.0067 721.10275 5848.6352 588.43953 C 5816.96 540.1644 5754.5576 519.00937 5662.9618 518.83138 z M 5705.3365 2125.6067 C 5610.8246 2123.498 5511.4459 2128.5819 5407.0084 2141.9881 C 4294.0084 2284.9881 3181.9755 3847.9803 2771.9755 5698.9803 C 2361.9755 7550.9803 3443.0242 9054.9968 4979.0242 8855.9968 C 6515.0242 8656.9968 6920.9855 8030.9782 7093.9855 7848.9782 C 7094.7996 7848.1046 7095.0739 7846.739 7095.8459 7845.8259 C 7188.903 7746.7109 7251.0285 7615.3455 7280.0207 7529.9796 C 7373.0207 7259.9796 7295.0104 7170.0087 7067.0104 7181.0087 C 6909.0657 7190.094 6762.4295 7230.9726 6680.8841 7305.6005 C 6677.9202 7308.0673 6674.8774 7310.1554 6671.9958 7312.9903 C 6347.9958 7628.9903 5626.9773 8224.0088 4730.9773 8152.0088 C 3834.9773 8080.0088 3209.9776 7122.0216 3329.9776 5953.0216 C 3449.9776 4784.0216 4032.0044 3790.9975 4627.0044 3214.9975 C 5223.0044 2638.9975 6249.9807 2828.0052 6538.9807 3767.0052 C 6546.0773 3790.2244 6555.8648 3808.2026 6567.5061 3822.3506 C 6582.0003 3853.9421 6599.3753 3882.1436 6620.0093 3904.9813 C 6716.0093 4010.9813 6788.9882 3985.016 6922.9882 3886.016 C 7056.9882 3788.016 7143.9751 3611.0057 7179.9751 3505.0057 C 7220.6626 3386.8807 7228.6215 3303.1812 7205.6066 3247.347 C 7205.5768 3247.2745 7205.5333 3247.2126 7205.5033 3247.1403 C 7070.4549 2834.0177 6614.0862 2145.8817 5705.3365 2125.6067 z " />
   
  
</svg>
