<?xml version="1.0" encoding="UTF-8" standalone="no"?>
<svg
   version="1.2"
   width="100mm"
   height="100mm"
   viewBox="0 0 10000 10000"
   preserveAspectRatio="xMidYMid"
   fill-rule="evenodd"
   stroke-width="28.222"
   stroke-linejoin="round"
   xml:space="preserve"
   id="svg26"
   sodipodi:docname="gobo-caps-0135.svg"
   inkscape:version="1.4 (86a8ad7, 2024-10-11)"
   xmlns:inkscape="http://www.inkscape.org/namespaces/inkscape"
   xmlns:sodipodi="http://sodipodi.sourceforge.net/DTD/sodipodi-0.dtd"
   xmlns="http://www.w3.org/2000/svg"
   xmlns:svg="http://www.w3.org/2000/svg"
   xmlns:ooo="http://xml.openoffice.org/svg/export"><sodipodi:namedview
   id="namedview26"
   pagecolor="#ffffff"
   bordercolor="#000000"
   borderopacity="0.25"
   inkscape:showpageshadow="2"
   inkscape:pageopacity="0.0"
   inkscape:pagecheckerboard="0"
   inkscape:deskcolor="#d1d1d1"
   inkscape:document-units="mm"
   showgrid="false"
   inkscape:zoom="3.0876875"
   inkscape:cx="188.81444"
   inkscape:cy="188.97638"
   inkscape:window-width="2560"
   inkscape:window-height="1369"
   inkscape:window-x="-8"
   inkscape:window-y="-8"
   inkscape:window-maximized="1"
   inkscape:current-layer="svg26" />
 <defs
   class="ClipPathGroup"
   id="defs2">
  
  <clipPath
   id="presentation_clip_path_shrink"
   clipPathUnits="userSpaceOnUse">
   <rect
   x="10"
   y="10"
   width="9980"
   height="9980"
   id="rect2" />
  </clipPath>
 
  
 
   
  
    
   
     
    
      
      
      
      
      
      
      
      
      
      
      
     
       
      
       
      
       
      
       
      
       
      
       
      
       
      
       
      
       
      
       
      
       
      
        
        
       
        
        
       
        
        
       
        
        
       
        
        
       
        
        
       
        
        
       
        
        
       
        
        
       
        
        
       
        
        
       </defs>
 <defs
   class="TextShapeIndex"
   id="defs3">
  <g
   ooo:slide="id1"
   ooo:id-list="id3 id4 id5 id6 id7 id8 id9 id10 id11 id12 id13"
   id="g2" />
 </defs>
 <defs
   class="EmbeddedBulletChars"
   id="defs12">
  <g
   id="bullet-char-template-57356"
   transform="scale(0.00048828125,-0.00048828125)">
   <path
   d="M 580,1141 L 1163,571 580,0 -4,571 580,1141 Z"
   id="path3" />
  </g>
  <g
   id="bullet-char-template-57354"
   transform="scale(0.00048828125,-0.00048828125)">
   <path
   d="M 8,1128 L 1137,1128 1137,0 8,0 8,1128 Z"
   id="path4" />
  </g>
  <g
   id="bullet-char-template-10146"
   transform="scale(0.00048828125,-0.00048828125)">
   <path
   d="M 174,0 L 602,739 174,1481 1456,739 174,0 Z M 1358,739 L 309,1346 659,739 1358,739 Z"
   id="path5" />
  </g>
  <g
   id="bullet-char-template-10132"
   transform="scale(0.00048828125,-0.00048828125)">
   <path
   d="M 2015,739 L 1276,0 717,0 1260,543 174,543 174,936 1260,936 717,1481 1274,1481 2015,739 Z"
   id="path6" />
  </g>
  <g
   id="bullet-char-template-10007"
   transform="scale(0.00048828125,-0.00048828125)">
   <path
   d="M 0,-2 C -7,14 -16,27 -25,37 L 356,567 C 262,823 215,952 215,954 215,979 228,992 255,992 264,992 276,990 289,987 310,991 331,999 354,1012 L 381,999 492,748 772,1049 836,1024 860,1049 C 881,1039 901,1025 922,1006 886,937 835,863 770,784 769,783 710,716 594,584 L 774,223 C 774,196 753,168 711,139 L 727,119 C 717,90 699,76 672,76 641,76 570,178 457,381 L 164,-76 C 142,-110 111,-127 72,-127 30,-127 9,-110 8,-76 1,-67 -2,-52 -2,-32 -2,-23 -1,-13 0,-2 Z"
   id="path7" />
  </g>
  <g
   id="bullet-char-template-10004"
   transform="scale(0.00048828125,-0.00048828125)">
   <path
   d="M 285,-33 C 182,-33 111,30 74,156 52,228 41,333 41,471 41,549 55,616 82,672 116,743 169,778 240,778 293,778 328,747 346,684 L 369,508 C 377,444 397,411 428,410 L 1163,1116 C 1174,1127 1196,1133 1229,1133 1271,1133 1292,1118 1292,1087 L 1292,965 C 1292,929 1282,901 1262,881 L 442,47 C 390,-6 338,-33 285,-33 Z"
   id="path8" />
  </g>
  <g
   id="bullet-char-template-9679"
   transform="scale(0.00048828125,-0.00048828125)">
   <path
   d="M 813,0 C 632,0 489,54 383,161 276,268 223,411 223,592 223,773 276,916 383,1023 489,1130 632,1184 813,1184 992,1184 1136,1130 1245,1023 1353,916 1407,772 1407,592 1407,412 1353,268 1245,161 1136,54 992,0 813,0 Z"
   id="path9" />
  </g>
  <g
   id="bullet-char-template-8226"
   transform="scale(0.00048828125,-0.00048828125)">
   <path
   d="M 346,457 C 273,457 209,483 155,535 101,586 74,649 74,723 74,796 101,859 155,911 209,963 273,989 346,989 419,989 480,963 531,910 582,859 608,796 608,723 608,648 583,586 532,535 482,483 420,457 346,457 Z"
   id="path10" />
  </g>
  <g
   id="bullet-char-template-8211"
   transform="scale(0.00048828125,-0.00048828125)">
   <path
   d="M -4,459 L 1135,459 1135,606 -4,606 -4,459 Z"
   id="path11" />
  </g>
  <g
   id="bullet-char-template-61548"
   transform="scale(0.00048828125,-0.00048828125)">
   <path
   d="M 173,740 C 173,903 231,1043 346,1159 462,1274 601,1332 765,1332 928,1332 1067,1274 1183,1159 1299,1043 1357,903 1357,740 1357,577 1299,437 1183,322 1067,206 928,148 765,148 601,148 462,206 346,322 231,437 173,577 173,740 Z"
   id="path12" />
  </g>
 </defs>
 
 <path
   id="path13"
   d="M 5228.9831 1352.7856 C 5215.9172 1352.7602 5202.2537 1353.1617 5188.0037 1353.9742 C 5015.1367 1363.9179 4855.2468 1411.3923 4780.1733 1499.8051 C 4774.9674 1504.3829 4770.3295 1509.5377 4766.9958 1515.9798 C 4694.702 1656.6596 4267.8113 2049.5738 3998.2572 2186.9983 C 3912.1697 2220.3144 3848.2542 2278.9722 3795.0138 2377.0125 C 3714.0138 2528.0125 3726.9858 2738.9817 3787.9858 2839.9817 C 3821.8181 2894.7578 3877.9322 2907.2089 3940.5346 2895.1204 C 3941.0287 2895.0459 3941.4855 2895.1002 3941.9816 2895.0171 C 4340.4375 2831.9017 4746.8033 2523.9244 5013.8541 2258.0017 C 5240.5503 2429.0611 5653.0481 2662.161 6113.0118 2691.9804 C 6115.5468 2691.9989 6118.1144 2691.5152 6120.6599 2691.4119 C 6188.9928 2701.4372 6275.6957 2665.319 6352.0153 2614.0006 C 6467.0153 2534.0006 6555.0216 2426.0072 6588.0216 2252.0072 C 6615.5598 2103.1286 6590.4036 1974.3058 6470.7161 1949.5451 C 6469.1711 1949.1912 6467.6054 1948.8652 6466.0135 1948.5632 C 6464.4919 1948.2892 6462.9139 1948.081 6461.3627 1947.8397 C 6459.569 1947.5634 6457.8389 1947.2254 6455.9883 1947.0129 C 5878.2641 1880.8542 5543.0281 1555.1087 5414.6565 1422.4455 C 5382.9814 1374.1701 5320.5791 1352.9636 5228.9831 1352.7856 z M 6038.5978 3106.477 C 5792.5919 3107.4927 5541.23 3117.1317 5194.98 3149.0067 C 4723.8793 3191.5248 4479.823 3226.9665 4226.0986 3276.5442 C 4026.4091 3298.9501 3858.0912 3375.4172 3840.024 3510.0183 C 3818.024 3659.0183 3841.0151 3904.9795 3943.0151 4018.9795 C 3990.7684 4071.7071 4032.8144 4091.7511 4079.6476 4086.4172 C 4084.3493 4087.6251 4089.1133 4088.1135 4094.0136 4086.9856 C 4298.0136 4041.9856 4652.0157 3943.9813 5119.0157 3904.9813 C 5241.5509 3895.0742 5358.6948 3891.3444 5469.0201 3891.132 C 5537.0105 4154.0592 5637.7936 4540.4224 5808.0175 5506.0205 C 5979.0175 6476.0205 6112.9958 7093.0176 5401.9958 7246.0176 C 4691.9958 7397.0176 3896.9872 7190.9901 4103.9872 6341.9901 C 4104.8733 6338.3213 4105.0523 6334.8957 4105.5892 6331.3448 C 4140.7227 6147.7413 4055.2889 6083.8211 3861.9865 6093.9949 C 3638.8801 6106.8285 3438.3279 6182.0923 3413.0216 6327.3657 C 3412.4159 6328.9389 3411.5479 6330.4208 3411.0062 6332.0166 C 3077.0062 7320.0166 4058.9855 8123.9838 5020.9855 8010.9838 C 5983.9855 7896.9838 6476.989 7268.0241 6529.989 6716.0241 C 6584.989 6164.0241 6562.9754 5967.9818 6413.9754 5080.9818 C 6312.7239 4474.1571 6273.7559 4217.2527 6225.253 3918.9339 C 6263.3295 3905.6424 6305.6451 3878.6487 6356.9763 3841.0058 C 6489.9763 3743.0058 6576.9813 3565.9955 6612.9813 3459.9955 C 6688.0685 3242.0006 6651.6401 3140.7543 6515.3645 3116.6573 C 6509.474 3113.141 6502.9231 3110.8314 6495.004 3111.0246 C 6331.879 3108.3996 6186.2013 3105.8677 6038.5978 3106.477 z " />
   
  
</svg>
