<?xml version="1.0" encoding="UTF-8" standalone="no"?>
<svg
   version="1.2"
   width="100mm"
   height="100mm"
   viewBox="0 0 10000 10000"
   preserveAspectRatio="xMidYMid"
   fill-rule="evenodd"
   stroke-width="28.222"
   stroke-linejoin="round"
   xml:space="preserve"
   id="svg25"
   sodipodi:docname="gobo-caps-0179.svg"
   inkscape:version="1.4 (86a8ad7, 2024-10-11)"
   xmlns:inkscape="http://www.inkscape.org/namespaces/inkscape"
   xmlns:sodipodi="http://sodipodi.sourceforge.net/DTD/sodipodi-0.dtd"
   xmlns="http://www.w3.org/2000/svg"
   xmlns:svg="http://www.w3.org/2000/svg"
   xmlns:ooo="http://xml.openoffice.org/svg/export"><sodipodi:namedview
   id="namedview25"
   pagecolor="#ffffff"
   bordercolor="#000000"
   borderopacity="0.25"
   inkscape:showpageshadow="2"
   inkscape:pageopacity="0.0"
   inkscape:pagecheckerboard="0"
   inkscape:deskcolor="#d1d1d1"
   inkscape:document-units="mm"
   showgrid="false"
   inkscape:zoom="3.0876875"
   inkscape:cx="188.81444"
   inkscape:cy="188.97638"
   inkscape:window-width="2560"
   inkscape:window-height="1369"
   inkscape:window-x="-8"
   inkscape:window-y="-8"
   inkscape:window-maximized="1"
   inkscape:current-layer="svg25" />
 <defs
   class="ClipPathGroup"
   id="defs2">
  
  <clipPath
   id="presentation_clip_path_shrink"
   clipPathUnits="userSpaceOnUse">
   <rect
   x="10"
   y="10"
   width="9980"
   height="9980"
   id="rect2" />
  </clipPath>
 
  
 
   
  
    
   
     
    
      
      
      
      
      
      
      
      
      
      
     
       
      
       
      
       
      
       
      
       
      
       
      
       
      
       
      
       
      
       
      
        
        
       
        
        
       
        
        
       
        
        
       
        
        
       
        
        
       
        
        
       
        
        
       
        
        
       
        
        
       </defs>
 <defs
   class="TextShapeIndex"
   id="defs3">
  <g
   ooo:slide="id1"
   ooo:id-list="id3 id4 id5 id6 id7 id8 id9 id10 id11 id12"
   id="g2" />
 </defs>
 <defs
   class="EmbeddedBulletChars"
   id="defs12">
  <g
   id="bullet-char-template-57356"
   transform="scale(0.00048828125,-0.00048828125)">
   <path
   d="M 580,1141 L 1163,571 580,0 -4,571 580,1141 Z"
   id="path3" />
  </g>
  <g
   id="bullet-char-template-57354"
   transform="scale(0.00048828125,-0.00048828125)">
   <path
   d="M 8,1128 L 1137,1128 1137,0 8,0 8,1128 Z"
   id="path4" />
  </g>
  <g
   id="bullet-char-template-10146"
   transform="scale(0.00048828125,-0.00048828125)">
   <path
   d="M 174,0 L 602,739 174,1481 1456,739 174,0 Z M 1358,739 L 309,1346 659,739 1358,739 Z"
   id="path5" />
  </g>
  <g
   id="bullet-char-template-10132"
   transform="scale(0.00048828125,-0.00048828125)">
   <path
   d="M 2015,739 L 1276,0 717,0 1260,543 174,543 174,936 1260,936 717,1481 1274,1481 2015,739 Z"
   id="path6" />
  </g>
  <g
   id="bullet-char-template-10007"
   transform="scale(0.00048828125,-0.00048828125)">
   <path
   d="M 0,-2 C -7,14 -16,27 -25,37 L 356,567 C 262,823 215,952 215,954 215,979 228,992 255,992 264,992 276,990 289,987 310,991 331,999 354,1012 L 381,999 492,748 772,1049 836,1024 860,1049 C 881,1039 901,1025 922,1006 886,937 835,863 770,784 769,783 710,716 594,584 L 774,223 C 774,196 753,168 711,139 L 727,119 C 717,90 699,76 672,76 641,76 570,178 457,381 L 164,-76 C 142,-110 111,-127 72,-127 30,-127 9,-110 8,-76 1,-67 -2,-52 -2,-32 -2,-23 -1,-13 0,-2 Z"
   id="path7" />
  </g>
  <g
   id="bullet-char-template-10004"
   transform="scale(0.00048828125,-0.00048828125)">
   <path
   d="M 285,-33 C 182,-33 111,30 74,156 52,228 41,333 41,471 41,549 55,616 82,672 116,743 169,778 240,778 293,778 328,747 346,684 L 369,508 C 377,444 397,411 428,410 L 1163,1116 C 1174,1127 1196,1133 1229,1133 1271,1133 1292,1118 1292,1087 L 1292,965 C 1292,929 1282,901 1262,881 L 442,47 C 390,-6 338,-33 285,-33 Z"
   id="path8" />
  </g>
  <g
   id="bullet-char-template-9679"
   transform="scale(0.00048828125,-0.00048828125)">
   <path
   d="M 813,0 C 632,0 489,54 383,161 276,268 223,411 223,592 223,773 276,916 383,1023 489,1130 632,1184 813,1184 992,1184 1136,1130 1245,1023 1353,916 1407,772 1407,592 1407,412 1353,268 1245,161 1136,54 992,0 813,0 Z"
   id="path9" />
  </g>
  <g
   id="bullet-char-template-8226"
   transform="scale(0.00048828125,-0.00048828125)">
   <path
   d="M 346,457 C 273,457 209,483 155,535 101,586 74,649 74,723 74,796 101,859 155,911 209,963 273,989 346,989 419,989 480,963 531,910 582,859 608,796 608,723 608,648 583,586 532,535 482,483 420,457 346,457 Z"
   id="path10" />
  </g>
  <g
   id="bullet-char-template-8211"
   transform="scale(0.00048828125,-0.00048828125)">
   <path
   d="M -4,459 L 1135,459 1135,606 -4,606 -4,459 Z"
   id="path11" />
  </g>
  <g
   id="bullet-char-template-61548"
   transform="scale(0.00048828125,-0.00048828125)">
   <path
   d="M 173,740 C 173,903 231,1043 346,1159 462,1274 601,1332 765,1332 928,1332 1067,1274 1183,1159 1299,1043 1357,903 1357,740 1357,577 1299,437 1183,322 1067,206 928,148 765,148 601,148 462,206 346,322 231,437 173,577 173,740 Z"
   id="path12" />
  </g>
 </defs>
 
 <path
   id="path13"
   d="M 5989.8152 300.80851 C 5976.7972 300.79728 5963.1783 301.18457 5948.9908 301.99707 C 5775.6058 311.20335 5615.2759 358.70039 5540.4886 448.03466 C 5535.4873 452.51749 5531.2441 457.78483 5527.9829 464.00268 C 5527.5287 464.88663 5526.8656 465.93413 5526.381 466.84489 C 5522.3851 472.8938 5518.7722 479.10911 5515.5289 485.50008 C 5418.2139 641.82708 5027.4084 1054.7416 4910.3462 1190.8834 C 4906.1828 1195.4264 4902.1296 1200.2588 4898.0989 1205.0944 C 4895.0556 1208.7298 4889.4303 1214.9823 4886.9885 1218.0135 C 4884.8112 1220.7164 4882.9249 1223.8251 4881.0457 1227.0052 C 4867.3458 1245.7617 4854.2902 1266.2171 4841.9783 1289.0169 C 4759.9783 1440.0169 4773.002 1651.0196 4835.002 1753.0196 C 4890.6091 1844.5023 5008.9264 1818.4109 5116.4318 1755.8101 C 5287.2815 1670.5733 5975.5266 1037.8314 6068.0017 845.99487 C 6068.0664 845.86135 6068.0926 845.71509 6068.1567 845.58146 C 6111.714 775.14806 6142.8041 703.61967 6161.0192 649.98616 C 6248.2067 395.92366 6185.0862 300.97697 5989.8152 300.80851 z M 7233.6153 2016.001 C 7220.6521 2015.9277 7207.1226 2016.2328 7192.9976 2016.9828 C 7172.1763 2018.1752 7151.6584 2020.1181 7131.3476 2022.4088 C 6745.8518 2040.2319 5222.8743 2138.4223 4570.0053 2206.9971 C 3956.0932 2270.5966 3409.8381 2329.5252 3012.8393 2394.7892 C 2963.1075 2399.7487 2915.1607 2408.0597 2870.5741 2419.6456 C 2868.1755 2420.0945 2865.3619 2420.5395 2862.9777 2420.9892 C 2859.2152 2421.7016 2855.604 2423.2482 2851.9706 2424.7099 C 2720.7059 2462.4494 2623.1521 2530.5049 2608.988 2631.0022 C 2585.988 2780.0022 2608.9791 3026.015 2711.9791 3140.015 C 2753.9791 3186.39 2791.5873 3207.4952 2831.8168 3208.2796 C 2832.9077 3208.3 2834.0163 3208.2662 2835.1241 3208.2279 C 2851.1053 3208.1021 2867.535 3204.813 2884.8368 3198.6678 C 3134.6277 3141.5014 4127.7531 2986.6678 4678.009 2927.9866 C 5029.4545 2890.5073 5763.6423 2858.8493 6303.5945 2842.6688 C 5759.5678 3616.6976 4888.557 4857.9472 4492.0255 5416.0001 C 3987.2239 6126.4256 2836.3218 8032.3059 2628.6251 8431.2682 C 2610.9374 8455.6251 2599.2121 8482.8178 2594.9837 8513.0204 C 2571.9837 8662.0204 2594.993 8907.9997 2696.993 9020.9997 C 2741.8989 9070.0721 2781.4542 9090.8151 2824.3754 9089.1609 C 2826.9739 9089.2514 2829.7297 9088.8466 2832.4369 9088.5925 C 2836.0372 9088.2255 2839.6297 9087.7616 2843.289 9087.0938 C 2843.3936 9087.0747 2843.4943 9087.0615 2843.599 9087.0422 C 2843.7421 9087.0052 2843.8691 9087.0283 2844.0124 9086.9905 C 3041.0124 9036.9905 4732.0173 8785.9789 5304.0173 8725.9789 C 5876.0173 8664.9789 6716.9901 8589.9847 6976.9901 8588.9847 C 6978.4972 8589.0684 6980.1689 8588.3979 6981.7443 8588.1579 C 7031.9821 8586.7257 7086.8764 8554.5863 7159.9763 8500.9798 C 7292.9763 8402.9798 7379.9814 8226.0211 7415.9814 8120.0211 C 7508.9814 7850.0211 7431.0047 7758.9803 7204.0047 7771.9803 C 7198.7813 7772.2577 7193.6479 7772.7703 7188.4501 7773.1172 C 7187.934 7773.146 7187.5267 7772.9716 7187.0031 7773.0139 C 7185.2778 7773.1529 7181.9659 7773.5367 7180.1818 7773.6857 C 7158.8312 7775.2673 7137.691 7777.373 7116.9816 7780.1452 C 6776.3379 7815.0853 5859.7495 7946.4149 5250.9973 8010.002 C 4809.4534 8056.2654 4063.5081 8136.951 3501.1299 8207.6126 C 3917.5443 7460.1362 4647.0694 6177.7591 5045.015 5604.9808 C 5586.004 4826.3147 7011.9064 2939.7571 7254.906 2642.4743 C 7329.0872 2549.9335 7379.4044 2440.472 7403.9925 2366.0054 C 7491.18 2112.8804 7428.0623 2017.0996 7233.6153 2016.001 z " />
   
  
</svg>
