<?xml version="1.0" encoding="UTF-8" standalone="no"?>
<svg
   version="1.2"
   width="100mm"
   height="100mm"
   viewBox="0 0 10000 10000"
   preserveAspectRatio="xMidYMid"
   fill-rule="evenodd"
   stroke-width="28.222"
   stroke-linejoin="round"
   xml:space="preserve"
   id="svg24"
   sodipodi:docname="gobo-caps-0153.svg"
   inkscape:version="1.4 (86a8ad7, 2024-10-11)"
   xmlns:inkscape="http://www.inkscape.org/namespaces/inkscape"
   xmlns:sodipodi="http://sodipodi.sourceforge.net/DTD/sodipodi-0.dtd"
   xmlns="http://www.w3.org/2000/svg"
   xmlns:svg="http://www.w3.org/2000/svg"
   xmlns:ooo="http://xml.openoffice.org/svg/export"><sodipodi:namedview
   id="namedview24"
   pagecolor="#ffffff"
   bordercolor="#000000"
   borderopacity="0.25"
   inkscape:showpageshadow="2"
   inkscape:pageopacity="0.0"
   inkscape:pagecheckerboard="0"
   inkscape:deskcolor="#d1d1d1"
   inkscape:document-units="mm"
   showgrid="false"
   inkscape:zoom="3.0876875"
   inkscape:cx="188.81444"
   inkscape:cy="188.97638"
   inkscape:window-width="2560"
   inkscape:window-height="1369"
   inkscape:window-x="-8"
   inkscape:window-y="-8"
   inkscape:window-maximized="1"
   inkscape:current-layer="svg24" />
 <defs
   class="ClipPathGroup"
   id="defs2">
  
  <clipPath
   id="presentation_clip_path_shrink"
   clipPathUnits="userSpaceOnUse">
   <rect
   x="10"
   y="10"
   width="9980"
   height="9980"
   id="rect2" />
  </clipPath>
 
  
 
   
  
    
   
     
    
      
      
      
      
      
      
      
      
      
     
       
      
       
      
       
      
       
      
       
      
       
      
       
      
       
      
       
      
        
        
       
        
        
       
        
        
       
        
        
       
        
        
       
        
        
       
        
        
       
        
        
       
        
        
       </defs>
 <defs
   class="TextShapeIndex"
   id="defs3">
  <g
   ooo:slide="id1"
   ooo:id-list="id3 id4 id5 id6 id7 id8 id9 id10 id11"
   id="g2" />
 </defs>
 <defs
   class="EmbeddedBulletChars"
   id="defs12">
  <g
   id="bullet-char-template-57356"
   transform="scale(0.00048828125,-0.00048828125)">
   <path
   d="M 580,1141 L 1163,571 580,0 -4,571 580,1141 Z"
   id="path3" />
  </g>
  <g
   id="bullet-char-template-57354"
   transform="scale(0.00048828125,-0.00048828125)">
   <path
   d="M 8,1128 L 1137,1128 1137,0 8,0 8,1128 Z"
   id="path4" />
  </g>
  <g
   id="bullet-char-template-10146"
   transform="scale(0.00048828125,-0.00048828125)">
   <path
   d="M 174,0 L 602,739 174,1481 1456,739 174,0 Z M 1358,739 L 309,1346 659,739 1358,739 Z"
   id="path5" />
  </g>
  <g
   id="bullet-char-template-10132"
   transform="scale(0.00048828125,-0.00048828125)">
   <path
   d="M 2015,739 L 1276,0 717,0 1260,543 174,543 174,936 1260,936 717,1481 1274,1481 2015,739 Z"
   id="path6" />
  </g>
  <g
   id="bullet-char-template-10007"
   transform="scale(0.00048828125,-0.00048828125)">
   <path
   d="M 0,-2 C -7,14 -16,27 -25,37 L 356,567 C 262,823 215,952 215,954 215,979 228,992 255,992 264,992 276,990 289,987 310,991 331,999 354,1012 L 381,999 492,748 772,1049 836,1024 860,1049 C 881,1039 901,1025 922,1006 886,937 835,863 770,784 769,783 710,716 594,584 L 774,223 C 774,196 753,168 711,139 L 727,119 C 717,90 699,76 672,76 641,76 570,178 457,381 L 164,-76 C 142,-110 111,-127 72,-127 30,-127 9,-110 8,-76 1,-67 -2,-52 -2,-32 -2,-23 -1,-13 0,-2 Z"
   id="path7" />
  </g>
  <g
   id="bullet-char-template-10004"
   transform="scale(0.00048828125,-0.00048828125)">
   <path
   d="M 285,-33 C 182,-33 111,30 74,156 52,228 41,333 41,471 41,549 55,616 82,672 116,743 169,778 240,778 293,778 328,747 346,684 L 369,508 C 377,444 397,411 428,410 L 1163,1116 C 1174,1127 1196,1133 1229,1133 1271,1133 1292,1118 1292,1087 L 1292,965 C 1292,929 1282,901 1262,881 L 442,47 C 390,-6 338,-33 285,-33 Z"
   id="path8" />
  </g>
  <g
   id="bullet-char-template-9679"
   transform="scale(0.00048828125,-0.00048828125)">
   <path
   d="M 813,0 C 632,0 489,54 383,161 276,268 223,411 223,592 223,773 276,916 383,1023 489,1130 632,1184 813,1184 992,1184 1136,1130 1245,1023 1353,916 1407,772 1407,592 1407,412 1353,268 1245,161 1136,54 992,0 813,0 Z"
   id="path9" />
  </g>
  <g
   id="bullet-char-template-8226"
   transform="scale(0.00048828125,-0.00048828125)">
   <path
   d="M 346,457 C 273,457 209,483 155,535 101,586 74,649 74,723 74,796 101,859 155,911 209,963 273,989 346,989 419,989 480,963 531,910 582,859 608,796 608,723 608,648 583,586 532,535 482,483 420,457 346,457 Z"
   id="path10" />
  </g>
  <g
   id="bullet-char-template-8211"
   transform="scale(0.00048828125,-0.00048828125)">
   <path
   d="M -4,459 L 1135,459 1135,606 -4,606 -4,459 Z"
   id="path11" />
  </g>
  <g
   id="bullet-char-template-61548"
   transform="scale(0.00048828125,-0.00048828125)">
   <path
   d="M 173,740 C 173,903 231,1043 346,1159 462,1274 601,1332 765,1332 928,1332 1067,1274 1183,1159 1299,1043 1357,903 1357,740 1357,577 1299,437 1183,322 1067,206 928,148 765,148 601,148 462,206 346,322 231,437 173,577 173,740 Z"
   id="path12" />
  </g>
 </defs>
 
 <path
   id="path13"
   d="M 7899.8278 3040.7963 C 7886.8098 3040.778 7873.1909 3041.1723 7859.0034 3041.9848 C 7851.0217 3042.4087 7843.1521 3043.1038 7835.2323 3043.6902 C 7531.482 3052.294 6647.7309 3115.6528 6014.9816 3177.9972 C 5334.9816 3245.9972 4742.9909 3342.0207 4211.9909 3470.0207 C 4211.0602 3470.5152 4210.3566 3471.2482 4209.4588 3471.7777 C 3001.6161 3767.6269 1987.214 4854.2652 1899.9874 6059.9918 C 1804.9874 7387.9918 2432.011 8456.999 4265.011 8311.999 C 4632.6307 8283.4173 4998.3614 8182.2943 5272.1329 8121.9331 C 5302.9822 8116.6945 5334.5467 8110.8325 5367.0109 8104.0014 C 6337.2744 7900.4149 7449.1262 7832.326 7620.2066 7824.5353 C 7675.044 7830.6502 7733.7721 7797.5261 7814.9751 7737.9772 C 7947.9751 7640.9772 8035.0137 7463.0004 8072.0137 7358.0004 C 8164.0137 7088.0004 8087.0034 6996.9778 7859.0034 7008.9778 C 7816.0088 7011.4401 7773.8872 7016.2871 7733.6881 7023.3955 C 7404.2468 7052.8904 6877.4482 7117.6778 6474.0234 7178.0114 C 6030.0234 7243.0114 5351.0076 7472.0032 4997.0076 7355.0032 C 4736.0076 7268.0032 4860.9799 7185.0147 5026.9799 6278.0147 C 5045.1852 6177.8305 5060.2819 6075.7816 5073.3854 5973.1237 C 5334.0772 5887.5993 5711.1127 5782.5102 6042.0084 5734.0169 C 6505.0084 5667.0169 7116.0087 5665.9886 7349.0087 5689.9886 C 7352.6893 5690.3644 7356.4173 5689.8812 7360.1192 5689.8335 C 7413.8781 5694.1848 7471.5412 5661.2956 7551.0119 5603.0171 C 7685.0119 5506.0171 7771.9988 5328.0068 7807.9988 5222.0068 C 7900.9988 4953.0068 7822.9885 4862.0177 7594.9885 4874.0177 C 7577.2227 4875.0396 7559.6829 4876.5417 7542.2786 4878.3585 C 7070.6032 4904.444 6269.4887 4944.6445 5758.9766 5057.9858 C 5433.795 5129.441 5288.6389 5158.5133 5132.1415 5196.6337 C 5146.2591 4744.0743 5129.4494 4322.8932 5110.334 4013.8635 C 5391.8783 3969.8577 5702.7339 3929.8691 5985.9912 3903.0175 C 6523.9912 3853.0175 7425.0043 3849.0046 7634.0043 3861.0046 C 7638.1329 3861.159 7642.7847 3859.6551 7647.6985 3857.4389 C 7695.0021 3852.0332 7747.1527 3820.7207 7814.9751 3770.9843 C 7947.9751 3672.9843 8034.9802 3496.0256 8070.9802 3390.0256 C 8158.1677 3136.9006 8095.0988 3041.0709 7899.8278 3040.7963 z M 4394.4604 4149.1524 C 4397.4953 4176.3322 4401.6253 4203.5292 4407.1728 4230.0777 C 4446.4808 4615.7739 4520.8728 4706.5323 4507.9935 5509.9996 C 4496.9935 6319.9996 4346.0094 6571.0142 4248.0094 7175.0142 C 4225.698 7312.9809 4221.9251 7446.3622 4239.2244 7568.5819 C 3273.0941 7547.2567 2403.2622 7091.7371 2509.976 5991.0038 C 2615.091 4897.6108 3510.6209 4307.1262 4394.4604 4149.1524 z " />
   
  
</svg>
