<?xml version="1.0" encoding="UTF-8" standalone="no"?>
<svg
   version="1.2"
   width="100mm"
   height="100mm"
   viewBox="0 0 10000 10000"
   preserveAspectRatio="xMidYMid"
   fill-rule="evenodd"
   stroke-width="28.222"
   stroke-linejoin="round"
   xml:space="preserve"
   id="svg24"
   sodipodi:docname="gobo-caps-0162.svg"
   inkscape:version="1.4 (86a8ad7, 2024-10-11)"
   xmlns:inkscape="http://www.inkscape.org/namespaces/inkscape"
   xmlns:sodipodi="http://sodipodi.sourceforge.net/DTD/sodipodi-0.dtd"
   xmlns="http://www.w3.org/2000/svg"
   xmlns:svg="http://www.w3.org/2000/svg"
   xmlns:ooo="http://xml.openoffice.org/svg/export"><sodipodi:namedview
   id="namedview24"
   pagecolor="#ffffff"
   bordercolor="#000000"
   borderopacity="0.25"
   inkscape:showpageshadow="2"
   inkscape:pageopacity="0.0"
   inkscape:pagecheckerboard="0"
   inkscape:deskcolor="#d1d1d1"
   inkscape:document-units="mm"
   showgrid="false"
   inkscape:zoom="3.0876875"
   inkscape:cx="188.81444"
   inkscape:cy="188.97638"
   inkscape:window-width="2560"
   inkscape:window-height="1369"
   inkscape:window-x="-8"
   inkscape:window-y="-8"
   inkscape:window-maximized="1"
   inkscape:current-layer="svg24" />
 <defs
   class="ClipPathGroup"
   id="defs2">
  
  <clipPath
   id="presentation_clip_path_shrink"
   clipPathUnits="userSpaceOnUse">
   <rect
   x="10"
   y="10"
   width="9980"
   height="9980"
   id="rect2" />
  </clipPath>
 
  
 
   
  
    
   
     
    
      
      
      
      
      
      
      
      
      
     
       
      
       
      
       
      
       
      
       
      
       
      
       
      
       
      
       
      
        
        
       
        
        
       
        
        
       
        
        
       
        
        
       
        
        
       
        
        
       
        
        
       
        
        
       </defs>
 <defs
   class="TextShapeIndex"
   id="defs3">
  <g
   ooo:slide="id1"
   ooo:id-list="id3 id4 id5 id6 id7 id8 id9 id10 id11"
   id="g2" />
 </defs>
 <defs
   class="EmbeddedBulletChars"
   id="defs12">
  <g
   id="bullet-char-template-57356"
   transform="scale(0.00048828125,-0.00048828125)">
   <path
   d="M 580,1141 L 1163,571 580,0 -4,571 580,1141 Z"
   id="path3" />
  </g>
  <g
   id="bullet-char-template-57354"
   transform="scale(0.00048828125,-0.00048828125)">
   <path
   d="M 8,1128 L 1137,1128 1137,0 8,0 8,1128 Z"
   id="path4" />
  </g>
  <g
   id="bullet-char-template-10146"
   transform="scale(0.00048828125,-0.00048828125)">
   <path
   d="M 174,0 L 602,739 174,1481 1456,739 174,0 Z M 1358,739 L 309,1346 659,739 1358,739 Z"
   id="path5" />
  </g>
  <g
   id="bullet-char-template-10132"
   transform="scale(0.00048828125,-0.00048828125)">
   <path
   d="M 2015,739 L 1276,0 717,0 1260,543 174,543 174,936 1260,936 717,1481 1274,1481 2015,739 Z"
   id="path6" />
  </g>
  <g
   id="bullet-char-template-10007"
   transform="scale(0.00048828125,-0.00048828125)">
   <path
   d="M 0,-2 C -7,14 -16,27 -25,37 L 356,567 C 262,823 215,952 215,954 215,979 228,992 255,992 264,992 276,990 289,987 310,991 331,999 354,1012 L 381,999 492,748 772,1049 836,1024 860,1049 C 881,1039 901,1025 922,1006 886,937 835,863 770,784 769,783 710,716 594,584 L 774,223 C 774,196 753,168 711,139 L 727,119 C 717,90 699,76 672,76 641,76 570,178 457,381 L 164,-76 C 142,-110 111,-127 72,-127 30,-127 9,-110 8,-76 1,-67 -2,-52 -2,-32 -2,-23 -1,-13 0,-2 Z"
   id="path7" />
  </g>
  <g
   id="bullet-char-template-10004"
   transform="scale(0.00048828125,-0.00048828125)">
   <path
   d="M 285,-33 C 182,-33 111,30 74,156 52,228 41,333 41,471 41,549 55,616 82,672 116,743 169,778 240,778 293,778 328,747 346,684 L 369,508 C 377,444 397,411 428,410 L 1163,1116 C 1174,1127 1196,1133 1229,1133 1271,1133 1292,1118 1292,1087 L 1292,965 C 1292,929 1282,901 1262,881 L 442,47 C 390,-6 338,-33 285,-33 Z"
   id="path8" />
  </g>
  <g
   id="bullet-char-template-9679"
   transform="scale(0.00048828125,-0.00048828125)">
   <path
   d="M 813,0 C 632,0 489,54 383,161 276,268 223,411 223,592 223,773 276,916 383,1023 489,1130 632,1184 813,1184 992,1184 1136,1130 1245,1023 1353,916 1407,772 1407,592 1407,412 1353,268 1245,161 1136,54 992,0 813,0 Z"
   id="path9" />
  </g>
  <g
   id="bullet-char-template-8226"
   transform="scale(0.00048828125,-0.00048828125)">
   <path
   d="M 346,457 C 273,457 209,483 155,535 101,586 74,649 74,723 74,796 101,859 155,911 209,963 273,989 346,989 419,989 480,963 531,910 582,859 608,796 608,723 608,648 583,586 532,535 482,483 420,457 346,457 Z"
   id="path10" />
  </g>
  <g
   id="bullet-char-template-8211"
   transform="scale(0.00048828125,-0.00048828125)">
   <path
   d="M -4,459 L 1135,459 1135,606 -4,606 -4,459 Z"
   id="path11" />
  </g>
  <g
   id="bullet-char-template-61548"
   transform="scale(0.00048828125,-0.00048828125)">
   <path
   d="M 173,740 C 173,903 231,1043 346,1159 462,1274 601,1332 765,1332 928,1332 1067,1274 1183,1159 1299,1043 1357,903 1357,740 1357,577 1299,437 1183,322 1067,206 928,148 765,148 601,148 462,206 346,322 231,437 173,577 173,740 Z"
   id="path12" />
  </g>
 </defs>
 
 <path
   id="path13"
   d="M 7219.9727 2053.8281 C 7206.8997 2053.8027 7193.2433 2054.2042 7178.9933 2055.0167 C 7173.597 2055.3271 7168.2898 2055.8217 7162.9219 2056.2052 C 6869.6852 2060.6476 5542.9869 2101.4079 4749.0124 2201.9844 C 3992.2361 2296.12 3471.6394 2392.0729 2965.7104 2489.6155 C 2766.3331 2512.4185 2598.028 2588.0893 2579.0157 2722.9862 C 2556.0157 2872.9862 2579.025 3118.9991 2681.025 3231.9991 C 2734.9266 3290.9018 2781.0804 3308.9846 2834.814 3296.4913 C 2837.8852 3297.5544 2840.9467 3297.9349 2844.0124 3297.008 C 3167.0212 3217.4399 3873.1582 3027.6631 4599.5125 2940.699 C 4591.9607 3020.7051 4595.946 3119.0407 4615.4288 3209.4682 C 4669.5971 3763.8546 4703.3531 5249.9697 4707.9813 5822.0218 C 4711.1266 6308.7485 4623.1451 7463.3597 4593.7247 8071.7036 C 4370.9011 8085.4986 4172.6724 8163.2489 4152.9764 8309.9837 C 4149.6611 8332.4373 4147.517 8357.2886 4146.3619 8383.3642 C 4130.1043 8597.637 4010.1056 9161.8566 3929.0625 9433.3259 C 3922.5108 9451.3744 3917.0832 9469.9168 3912.6294 9488.6714 C 3910.5545 9496.5885 3908.9406 9504.3971 3907.7718 9512.1325 C 3884.0101 9636.3007 3902.7704 9766.7964 3946.9942 9840.0195 C 4010.9942 9942.0195 4149.9747 9898.0207 4266.9747 9820.0207 C 4331.8319 9775.4666 4388.0785 9721.6598 4430.7373 9652.0206 C 4529.2736 9499.5387 4651.8856 9144.8079 4739.8657 8821.477 C 4815.2946 8874.1299 4884.6996 8842.3412 4997.0076 8759.982 C 5131.0076 8661.982 5218.0127 8485.0052 5253.0127 8380.0052 C 5266.111 8342.243 5275.7313 8308.098 5282.2098 8277.1174 C 5286.1792 8261.5862 5289.396 8245.6807 5290.9948 8229.0067 C 5327.9948 7863.0067 5340.977 6685.0046 5328.977 5766.0046 C 5318.3827 4881.8628 5302.633 3447.6812 5303.2421 2886.8522 C 6003.4691 2854.781 6783.1699 2864.72 6942.987 2873.9848 C 6946.8154 2874.162 6951.1039 2873.0268 6955.5961 2871.1942 C 7006.2885 2870.4314 7061.5476 2838.212 7135.9985 2784.0161 C 7268.9985 2686.0161 7356.0035 2509.0058 7392.0035 2403.0058 C 7479.191 2150.8183 7416.0677 2054.209 7219.9727 2053.8281 z " />
   
  
</svg>
