<?xml version="1.0" encoding="UTF-8" standalone="no"?>
<svg
   version="1.2"
   width="100mm"
   height="100mm"
   viewBox="0 0 10000 10000"
   preserveAspectRatio="xMidYMid"
   fill-rule="evenodd"
   stroke-width="28.222"
   stroke-linejoin="round"
   xml:space="preserve"
   id="svg21"
   sodipodi:docname="gobo-caps-016A.svg"
   inkscape:version="1.4 (86a8ad7, 2024-10-11)"
   xmlns:inkscape="http://www.inkscape.org/namespaces/inkscape"
   xmlns:sodipodi="http://sodipodi.sourceforge.net/DTD/sodipodi-0.dtd"
   xmlns="http://www.w3.org/2000/svg"
   xmlns:svg="http://www.w3.org/2000/svg"
   xmlns:ooo="http://xml.openoffice.org/svg/export"><sodipodi:namedview
   id="namedview21"
   pagecolor="#ffffff"
   bordercolor="#000000"
   borderopacity="0.25"
   inkscape:showpageshadow="2"
   inkscape:pageopacity="0.0"
   inkscape:pagecheckerboard="0"
   inkscape:deskcolor="#d1d1d1"
   inkscape:document-units="mm"
   showgrid="false"
   inkscape:zoom="3.0876875"
   inkscape:cx="188.81444"
   inkscape:cy="188.97638"
   inkscape:window-width="2560"
   inkscape:window-height="1369"
   inkscape:window-x="-8"
   inkscape:window-y="-8"
   inkscape:window-maximized="1"
   inkscape:current-layer="svg21" />
 <defs
   class="ClipPathGroup"
   id="defs2">
  
  <clipPath
   id="presentation_clip_path_shrink"
   clipPathUnits="userSpaceOnUse">
   <rect
   x="10"
   y="10"
   width="9980"
   height="9980"
   id="rect2" />
  </clipPath>
 
  
 
   
  
    
   
     
    
      
      
      
      
      
      
     
       
      
       
      
       
      
       
      
       
      
       
      
        
        
       
        
        
       
        
        
       
        
        
       
        
        
       
        
        
       </defs>
 <defs
   class="TextShapeIndex"
   id="defs3">
  <g
   ooo:slide="id1"
   ooo:id-list="id3 id4 id5 id6 id7 id8"
   id="g2" />
 </defs>
 <defs
   class="EmbeddedBulletChars"
   id="defs12">
  <g
   id="bullet-char-template-57356"
   transform="scale(0.00048828125,-0.00048828125)">
   <path
   d="M 580,1141 L 1163,571 580,0 -4,571 580,1141 Z"
   id="path3" />
  </g>
  <g
   id="bullet-char-template-57354"
   transform="scale(0.00048828125,-0.00048828125)">
   <path
   d="M 8,1128 L 1137,1128 1137,0 8,0 8,1128 Z"
   id="path4" />
  </g>
  <g
   id="bullet-char-template-10146"
   transform="scale(0.00048828125,-0.00048828125)">
   <path
   d="M 174,0 L 602,739 174,1481 1456,739 174,0 Z M 1358,739 L 309,1346 659,739 1358,739 Z"
   id="path5" />
  </g>
  <g
   id="bullet-char-template-10132"
   transform="scale(0.00048828125,-0.00048828125)">
   <path
   d="M 2015,739 L 1276,0 717,0 1260,543 174,543 174,936 1260,936 717,1481 1274,1481 2015,739 Z"
   id="path6" />
  </g>
  <g
   id="bullet-char-template-10007"
   transform="scale(0.00048828125,-0.00048828125)">
   <path
   d="M 0,-2 C -7,14 -16,27 -25,37 L 356,567 C 262,823 215,952 215,954 215,979 228,992 255,992 264,992 276,990 289,987 310,991 331,999 354,1012 L 381,999 492,748 772,1049 836,1024 860,1049 C 881,1039 901,1025 922,1006 886,937 835,863 770,784 769,783 710,716 594,584 L 774,223 C 774,196 753,168 711,139 L 727,119 C 717,90 699,76 672,76 641,76 570,178 457,381 L 164,-76 C 142,-110 111,-127 72,-127 30,-127 9,-110 8,-76 1,-67 -2,-52 -2,-32 -2,-23 -1,-13 0,-2 Z"
   id="path7" />
  </g>
  <g
   id="bullet-char-template-10004"
   transform="scale(0.00048828125,-0.00048828125)">
   <path
   d="M 285,-33 C 182,-33 111,30 74,156 52,228 41,333 41,471 41,549 55,616 82,672 116,743 169,778 240,778 293,778 328,747 346,684 L 369,508 C 377,444 397,411 428,410 L 1163,1116 C 1174,1127 1196,1133 1229,1133 1271,1133 1292,1118 1292,1087 L 1292,965 C 1292,929 1282,901 1262,881 L 442,47 C 390,-6 338,-33 285,-33 Z"
   id="path8" />
  </g>
  <g
   id="bullet-char-template-9679"
   transform="scale(0.00048828125,-0.00048828125)">
   <path
   d="M 813,0 C 632,0 489,54 383,161 276,268 223,411 223,592 223,773 276,916 383,1023 489,1130 632,1184 813,1184 992,1184 1136,1130 1245,1023 1353,916 1407,772 1407,592 1407,412 1353,268 1245,161 1136,54 992,0 813,0 Z"
   id="path9" />
  </g>
  <g
   id="bullet-char-template-8226"
   transform="scale(0.00048828125,-0.00048828125)">
   <path
   d="M 346,457 C 273,457 209,483 155,535 101,586 74,649 74,723 74,796 101,859 155,911 209,963 273,989 346,989 419,989 480,963 531,910 582,859 608,796 608,723 608,648 583,586 532,535 482,483 420,457 346,457 Z"
   id="path10" />
  </g>
  <g
   id="bullet-char-template-8211"
   transform="scale(0.00048828125,-0.00048828125)">
   <path
   d="M -4,459 L 1135,459 1135,606 -4,606 -4,459 Z"
   id="path11" />
  </g>
  <g
   id="bullet-char-template-61548"
   transform="scale(0.00048828125,-0.00048828125)">
   <path
   d="M 173,740 C 173,903 231,1043 346,1159 462,1274 601,1332 765,1332 928,1332 1067,1274 1183,1159 1299,1043 1357,903 1357,740 1357,577 1299,437 1183,322 1067,206 928,148 765,148 601,148 462,206 346,322 231,437 173,577 173,740 Z"
   id="path12" />
  </g>
 </defs>
 
 <path
   id="path13"
   d="M 6290.9855 720.98958 C 6277.9125 720.91609 6264.2561 721.27311 6250.0061 722.02311 C 6202.6292 724.76044 6156.2997 730.51915 6112.2367 739.07633 C 5691.361 788.43676 5426.4346 797.00976 4975.9753 826.97794 C 4522.9782 857.99227 4253.5348 857.5294 3968.75 880.5664 C 3965.1679 880.70562 3961.6607 880.78721 3958.0013 880.97981 C 3732.0013 893.97981 3529.0029 971.01684 3508.0029 1121.0168 C 3485.0029 1270.0168 3507.994 1515.978 3610.994 1629.978 C 3652.3976 1675.6945 3689.5404 1696.8476 3729.1264 1698.1909 C 3733.2495 1700.4241 3737.5043 1701.4478 3741.9938 1699.9996 C 3745.4596 1698.8318 3750.1899 1697.6545 3753.9827 1696.4856 C 3765.249 1694.66 3776.8725 1691.3069 3788.8643 1686.7187 C 4018.2207 1629.0797 4604.1232 1572.2691 4943.9876 1549.9829 C 5307.9876 1525.9829 5884.0223 1538.0066 6027.0223 1543.0066 C 6032.4667 1542.9627 6038.8754 1540.668 6045.7291 1537.4255 C 6091.1494 1529.98 6141.3246 1499.4167 6205.9777 1452.0044 C 6339.9777 1354.0044 6428.0163 1176.9759 6463.0163 1071.9759 C 6550.2038 817.9134 6487.0804 722.09187 6290.9855 720.98958 z M 6993.9916 2012.9521 C 6980.9186 2012.8791 6967.2622 2013.2356 6953.0122 2013.9856 C 6727.0122 2026.9856 6524.0139 2103.9891 6503.0139 2252.9891 C 6499.88 2273.4273 6497.69 2295.7631 6496.3476 2319.1866 C 6496.3261 2319.7954 6495.9987 2320.3861 6495.9859 2320.9953 C 6496.0228 2321.64 6496.1039 2323.2421 6496.1409 2323.8891 C 6493.266 2379.529 6495.6862 2441.4828 6504.4091 2502.4829 C 6556.8299 3511.9991 6652.9515 6202.5461 6631.0164 6790.0248 C 6607.0164 7407.0248 6392.0207 7745.9814 5375.0207 8050.9814 C 4357.0207 8355.9814 3359.0004 7727.9825 3380.0004 6592.9825 C 3400.7037 5474.0189 3484.9212 3332.909 3494.9804 2523.9286 C 3516.7604 2360.5162 3430.4926 2303.3271 3246.9852 2312.9854 C 3020.9852 2325.9854 2817.9869 2403.0224 2796.9869 2553.0224 C 2795.6083 2561.9531 2794.4105 2571.2463 2793.3695 2580.8244 C 2792.5147 2585.9781 2790.2459 2590.6696 2790.0106 2596.0172 C 2790.1611 2602.7853 2790.1755 2611.8918 2790.3206 2618.7549 C 2788.0205 2658.653 2788.4714 2702.0126 2792.0776 2746.1373 C 2808.2255 3775.1082 2775.1309 5653.211 2756.9893 6904.023 C 2737.9893 8214.023 3681.0159 9008.9925 4988.0159 8841.9925 C 6296.0159 8674.9925 7209.0161 7715.0109 7229.0161 6805.0109 C 7249.0161 5895.0109 7243.02 3457.977 7206.02 2153.977 C 7203.8005 2132.8913 7197.6633 2114.8602 7188.9151 2099.045 C 7160.9736 2039.462 7095.2778 2013.5176 6993.9916 2012.9521 z " />
   
  
</svg>
