<?xml version="1.0" encoding="UTF-8" standalone="no"?>
<svg
   version="1.2"
   width="100mm"
   height="100mm"
   viewBox="0 0 10000 10000"
   preserveAspectRatio="xMidYMid"
   fill-rule="evenodd"
   stroke-width="28.222"
   stroke-linejoin="round"
   xml:space="preserve"
   id="svg27"
   sodipodi:docname="gobo-caps-0127.svg"
   inkscape:version="1.4 (86a8ad7, 2024-10-11)"
   xmlns:inkscape="http://www.inkscape.org/namespaces/inkscape"
   xmlns:sodipodi="http://sodipodi.sourceforge.net/DTD/sodipodi-0.dtd"
   xmlns="http://www.w3.org/2000/svg"
   xmlns:svg="http://www.w3.org/2000/svg"
   xmlns:ooo="http://xml.openoffice.org/svg/export"><sodipodi:namedview
   id="namedview27"
   pagecolor="#ffffff"
   bordercolor="#000000"
   borderopacity="0.25"
   inkscape:showpageshadow="2"
   inkscape:pageopacity="0.0"
   inkscape:pagecheckerboard="0"
   inkscape:deskcolor="#d1d1d1"
   inkscape:document-units="mm"
   showgrid="false"
   inkscape:zoom="3.0876875"
   inkscape:cx="188.81444"
   inkscape:cy="188.97638"
   inkscape:window-width="2560"
   inkscape:window-height="1369"
   inkscape:window-x="-8"
   inkscape:window-y="-8"
   inkscape:window-maximized="1"
   inkscape:current-layer="svg27" />
 <defs
   class="ClipPathGroup"
   id="defs2">
  
  <clipPath
   id="presentation_clip_path_shrink"
   clipPathUnits="userSpaceOnUse">
   <rect
   x="10"
   y="10"
   width="9980"
   height="9980"
   id="rect2" />
  </clipPath>
 
  
 
   
  
    
   
     
    
      
      
      
      
      
      
      
      
      
      
      
      
     
       
      
       
      
       
      
       
      
       
      
       
      
       
      
       
      
       
      
       
      
       
      
       
      
        
        
       
        
        
       
        
        
       
        
        
       
        
        
       
        
        
       
        
        
       
        
        
       
        
        
       
        
        
       
        
        
       
        
        
       </defs>
 <defs
   class="TextShapeIndex"
   id="defs3">
  <g
   ooo:slide="id1"
   ooo:id-list="id3 id4 id5 id6 id7 id8 id9 id10 id11 id12 id13 id14"
   id="g2" />
 </defs>
 <defs
   class="EmbeddedBulletChars"
   id="defs12">
  <g
   id="bullet-char-template-57356"
   transform="scale(0.00048828125,-0.00048828125)">
   <path
   d="M 580,1141 L 1163,571 580,0 -4,571 580,1141 Z"
   id="path3" />
  </g>
  <g
   id="bullet-char-template-57354"
   transform="scale(0.00048828125,-0.00048828125)">
   <path
   d="M 8,1128 L 1137,1128 1137,0 8,0 8,1128 Z"
   id="path4" />
  </g>
  <g
   id="bullet-char-template-10146"
   transform="scale(0.00048828125,-0.00048828125)">
   <path
   d="M 174,0 L 602,739 174,1481 1456,739 174,0 Z M 1358,739 L 309,1346 659,739 1358,739 Z"
   id="path5" />
  </g>
  <g
   id="bullet-char-template-10132"
   transform="scale(0.00048828125,-0.00048828125)">
   <path
   d="M 2015,739 L 1276,0 717,0 1260,543 174,543 174,936 1260,936 717,1481 1274,1481 2015,739 Z"
   id="path6" />
  </g>
  <g
   id="bullet-char-template-10007"
   transform="scale(0.00048828125,-0.00048828125)">
   <path
   d="M 0,-2 C -7,14 -16,27 -25,37 L 356,567 C 262,823 215,952 215,954 215,979 228,992 255,992 264,992 276,990 289,987 310,991 331,999 354,1012 L 381,999 492,748 772,1049 836,1024 860,1049 C 881,1039 901,1025 922,1006 886,937 835,863 770,784 769,783 710,716 594,584 L 774,223 C 774,196 753,168 711,139 L 727,119 C 717,90 699,76 672,76 641,76 570,178 457,381 L 164,-76 C 142,-110 111,-127 72,-127 30,-127 9,-110 8,-76 1,-67 -2,-52 -2,-32 -2,-23 -1,-13 0,-2 Z"
   id="path7" />
  </g>
  <g
   id="bullet-char-template-10004"
   transform="scale(0.00048828125,-0.00048828125)">
   <path
   d="M 285,-33 C 182,-33 111,30 74,156 52,228 41,333 41,471 41,549 55,616 82,672 116,743 169,778 240,778 293,778 328,747 346,684 L 369,508 C 377,444 397,411 428,410 L 1163,1116 C 1174,1127 1196,1133 1229,1133 1271,1133 1292,1118 1292,1087 L 1292,965 C 1292,929 1282,901 1262,881 L 442,47 C 390,-6 338,-33 285,-33 Z"
   id="path8" />
  </g>
  <g
   id="bullet-char-template-9679"
   transform="scale(0.00048828125,-0.00048828125)">
   <path
   d="M 813,0 C 632,0 489,54 383,161 276,268 223,411 223,592 223,773 276,916 383,1023 489,1130 632,1184 813,1184 992,1184 1136,1130 1245,1023 1353,916 1407,772 1407,592 1407,412 1353,268 1245,161 1136,54 992,0 813,0 Z"
   id="path9" />
  </g>
  <g
   id="bullet-char-template-8226"
   transform="scale(0.00048828125,-0.00048828125)">
   <path
   d="M 346,457 C 273,457 209,483 155,535 101,586 74,649 74,723 74,796 101,859 155,911 209,963 273,989 346,989 419,989 480,963 531,910 582,859 608,796 608,723 608,648 583,586 532,535 482,483 420,457 346,457 Z"
   id="path10" />
  </g>
  <g
   id="bullet-char-template-8211"
   transform="scale(0.00048828125,-0.00048828125)">
   <path
   d="M -4,459 L 1135,459 1135,606 -4,606 -4,459 Z"
   id="path11" />
  </g>
  <g
   id="bullet-char-template-61548"
   transform="scale(0.00048828125,-0.00048828125)">
   <path
   d="M 173,740 C 173,903 231,1043 346,1159 462,1274 601,1332 765,1332 928,1332 1067,1274 1183,1159 1299,1043 1357,903 1357,740 1357,577 1299,437 1183,322 1067,206 928,148 765,148 601,148 462,206 346,322 231,437 173,577 173,740 Z"
   id="path12" />
  </g>
 </defs>
 
 <path
   id="path13"
   d="M 6326.7972 3059.9682 C 6313.7792 3059.9021 6300.212 3060.2518 6286.0245 3061.0018 C 6059.0245 3073.0018 5854.9926 3151.0053 5834.9926 3300.0053 C 5823.4832 3377.9553 5824.4431 3482.4028 5842.434 3580.66 C 5863.2416 3713.8684 5913.1986 3922.072 5967.9561 4194.9894 C 5572.2975 4274.1557 5108.3885 4380.8501 4746.997 4484.9975 C 4422.8507 4578.4115 4112.7762 4679.1111 3830.9806 4776.7627 C 3852.8682 4253.8733 3894.0171 3772.954 3922.913 3519.165 C 3962.1341 3328.6895 3877.1391 3262.6562 3681.0156 3272.9785 C 3455.0156 3285.9785 3252.0172 3363.0155 3231.0172 3513.0155 C 3229.9872 3519.688 3229.1726 3526.7486 3228.3301 3533.7894 C 3226.5012 3537.206 3225.2936 3540.6362 3225.0228 3544.0214 C 3204.9074 3829.8265 3189.7599 4408.9388 3186.3171 5013.079 C 3164.0676 5021.6583 3141.2886 5030.3461 3119.9646 5038.6588 C 2983.9609 5075.555 2882.2167 5144.3075 2867.0084 5248 C 2845.0084 5397 2867.9814 5643.0129 2970.9814 5757.0129 C 3028.6119 5820.6466 3078.0504 5836.4238 3137.2762 5817.681 C 3141.0283 5818.7563 3144.6754 5819.1475 3148.0249 5817.9911 C 3158.315 5812.9579 3177.7313 5803.9511 3192.0015 5797.1655 C 3207.8158 6507.5554 3244.3203 7411.9428 3257.0621 7779.0083 C 3256.6326 7809.6633 3257.6332 7841.6816 3260.4728 7874.093 C 3260.55 7876.4657 3260.916 7885.7005 3260.9896 7887.9939 C 3260.9896 7892.0381 3261.7376 7895.7016 3263.1083 7898.9493 C 3275.7275 8008.9253 3308.42 8119.0227 3368.0114 8184.9784 C 3464.0114 8290.9784 3537.0239 8265.0131 3672.0239 8166.0131 C 3805.0239 8068.0131 3891.9773 7891.0028 3927.9773 7785.0028 C 3947.6102 7728.004 3959.5525 7679.0613 3964.1508 7637.3115 C 3966.475 7631.9741 3968.0589 7626.8086 3967.9748 7622.0153 C 3964.0091 7440.0861 3933.4588 7182.1823 3900.8988 6867.281 C 4167.9374 6747.2762 4536.9331 6598.4059 4957.0101 6486.9942 C 5576.6563 6322.6532 5888.0211 6296.8526 6159.9857 6279.4099 C 6143.4087 6847.8574 6064.5684 7112.2357 6062.834 7380.4797 C 6054.292 7529.3749 6083.1484 7728.6102 6171.9746 7827.0157 C 6268.9746 7933.0157 6340.9871 7906.9988 6475.9871 7807.9988 C 6608.9871 7710.9988 6697.0257 7533.022 6733.0257 7428.022 C 6734.9789 7422.2896 6736.754 7416.7472 6738.555 7411.1755 C 6751.6522 7387.272 6760.871 7360.0778 6765.0134 7329.01 C 6809.0134 6982.01 6832.994 6355.006 6785.994 5447.006 C 6774.7398 5219.9211 6756.9876 4983.017 6735.8679 4751.0278 C 6835.5334 4650.7222 6901.7716 4511.9326 6931.9799 4422.9858 C 7018.3841 4173.0642 6957.1318 4076.0076 6765.1684 4073.9115 C 6759.7012 4072.8132 6754.0976 4071.9727 6748.0118 4071.9995 C 6727.5297 4072.0893 6698.0309 4074.4018 6664.7094 4077.7356 C 6615.6301 3666.5217 6565.8533 3333.1507 6540.0142 3194.0169 C 6536.3674 3173.4488 6529.0817 3156.4976 6519.3436 3142.2371 C 6490.5863 3085.1085 6425.6567 3060.4707 6326.7972 3059.9682 z M 6089.344 4927.7095 C 6112.2258 5106.2528 6131.4214 5298.4354 6144.4828 5503.385 C 5797.5022 5564.7851 5303.289 5677.8775 4838.9811 5811.0148 C 4403.5712 5936.6742 4104.0531 6036.6472 3839.0421 6134.3025 C 3831.3679 6008.874 3824.7062 5880.462 3821.0071 5746.0058 C 3818.6853 5674.033 3817.5404 5599.5911 3816.8729 5524.3139 C 4136.8522 5394.2004 4520.0112 5252.4671 4864.9743 5160.9769 C 5332.3399 5037.0234 5764.8311 4966.651 6089.344 4927.7095 z " />
   
  
</svg>
