<?xml version="1.0" encoding="UTF-8" standalone="no"?>
<svg
   version="1.2"
   width="100mm"
   height="100mm"
   viewBox="0 0 10000 10000"
   preserveAspectRatio="xMidYMid"
   fill-rule="evenodd"
   stroke-width="28.222"
   stroke-linejoin="round"
   xml:space="preserve"
   id="svg24"
   sodipodi:docname="gobo-caps-0152.svg"
   inkscape:version="1.4 (86a8ad7, 2024-10-11)"
   xmlns:inkscape="http://www.inkscape.org/namespaces/inkscape"
   xmlns:sodipodi="http://sodipodi.sourceforge.net/DTD/sodipodi-0.dtd"
   xmlns="http://www.w3.org/2000/svg"
   xmlns:svg="http://www.w3.org/2000/svg"
   xmlns:ooo="http://xml.openoffice.org/svg/export"><sodipodi:namedview
   id="namedview24"
   pagecolor="#ffffff"
   bordercolor="#000000"
   borderopacity="0.25"
   inkscape:showpageshadow="2"
   inkscape:pageopacity="0.0"
   inkscape:pagecheckerboard="0"
   inkscape:deskcolor="#d1d1d1"
   inkscape:document-units="mm"
   showgrid="false"
   inkscape:zoom="3.0876875"
   inkscape:cx="188.81444"
   inkscape:cy="188.97638"
   inkscape:window-width="2560"
   inkscape:window-height="1369"
   inkscape:window-x="-8"
   inkscape:window-y="-8"
   inkscape:window-maximized="1"
   inkscape:current-layer="svg24" />
 <defs
   class="ClipPathGroup"
   id="defs2">
  
  <clipPath
   id="presentation_clip_path_shrink"
   clipPathUnits="userSpaceOnUse">
   <rect
   x="10"
   y="10"
   width="9980"
   height="9980"
   id="rect2" />
  </clipPath>
 
  
 
   
  
    
   
     
    
      
      
      
      
      
      
      
      
      
     
       
      
       
      
       
      
       
      
       
      
       
      
       
      
       
      
       
      
        
        
       
        
        
       
        
        
       
        
        
       
        
        
       
        
        
       
        
        
       
        
        
       
        
        
       </defs>
 <defs
   class="TextShapeIndex"
   id="defs3">
  <g
   ooo:slide="id1"
   ooo:id-list="id3 id4 id5 id6 id7 id8 id9 id10 id11"
   id="g2" />
 </defs>
 <defs
   class="EmbeddedBulletChars"
   id="defs12">
  <g
   id="bullet-char-template-57356"
   transform="scale(0.00048828125,-0.00048828125)">
   <path
   d="M 580,1141 L 1163,571 580,0 -4,571 580,1141 Z"
   id="path3" />
  </g>
  <g
   id="bullet-char-template-57354"
   transform="scale(0.00048828125,-0.00048828125)">
   <path
   d="M 8,1128 L 1137,1128 1137,0 8,0 8,1128 Z"
   id="path4" />
  </g>
  <g
   id="bullet-char-template-10146"
   transform="scale(0.00048828125,-0.00048828125)">
   <path
   d="M 174,0 L 602,739 174,1481 1456,739 174,0 Z M 1358,739 L 309,1346 659,739 1358,739 Z"
   id="path5" />
  </g>
  <g
   id="bullet-char-template-10132"
   transform="scale(0.00048828125,-0.00048828125)">
   <path
   d="M 2015,739 L 1276,0 717,0 1260,543 174,543 174,936 1260,936 717,1481 1274,1481 2015,739 Z"
   id="path6" />
  </g>
  <g
   id="bullet-char-template-10007"
   transform="scale(0.00048828125,-0.00048828125)">
   <path
   d="M 0,-2 C -7,14 -16,27 -25,37 L 356,567 C 262,823 215,952 215,954 215,979 228,992 255,992 264,992 276,990 289,987 310,991 331,999 354,1012 L 381,999 492,748 772,1049 836,1024 860,1049 C 881,1039 901,1025 922,1006 886,937 835,863 770,784 769,783 710,716 594,584 L 774,223 C 774,196 753,168 711,139 L 727,119 C 717,90 699,76 672,76 641,76 570,178 457,381 L 164,-76 C 142,-110 111,-127 72,-127 30,-127 9,-110 8,-76 1,-67 -2,-52 -2,-32 -2,-23 -1,-13 0,-2 Z"
   id="path7" />
  </g>
  <g
   id="bullet-char-template-10004"
   transform="scale(0.00048828125,-0.00048828125)">
   <path
   d="M 285,-33 C 182,-33 111,30 74,156 52,228 41,333 41,471 41,549 55,616 82,672 116,743 169,778 240,778 293,778 328,747 346,684 L 369,508 C 377,444 397,411 428,410 L 1163,1116 C 1174,1127 1196,1133 1229,1133 1271,1133 1292,1118 1292,1087 L 1292,965 C 1292,929 1282,901 1262,881 L 442,47 C 390,-6 338,-33 285,-33 Z"
   id="path8" />
  </g>
  <g
   id="bullet-char-template-9679"
   transform="scale(0.00048828125,-0.00048828125)">
   <path
   d="M 813,0 C 632,0 489,54 383,161 276,268 223,411 223,592 223,773 276,916 383,1023 489,1130 632,1184 813,1184 992,1184 1136,1130 1245,1023 1353,916 1407,772 1407,592 1407,412 1353,268 1245,161 1136,54 992,0 813,0 Z"
   id="path9" />
  </g>
  <g
   id="bullet-char-template-8226"
   transform="scale(0.00048828125,-0.00048828125)">
   <path
   d="M 346,457 C 273,457 209,483 155,535 101,586 74,649 74,723 74,796 101,859 155,911 209,963 273,989 346,989 419,989 480,963 531,910 582,859 608,796 608,723 608,648 583,586 532,535 482,483 420,457 346,457 Z"
   id="path10" />
  </g>
  <g
   id="bullet-char-template-8211"
   transform="scale(0.00048828125,-0.00048828125)">
   <path
   d="M -4,459 L 1135,459 1135,606 -4,606 -4,459 Z"
   id="path11" />
  </g>
  <g
   id="bullet-char-template-61548"
   transform="scale(0.00048828125,-0.00048828125)">
   <path
   d="M 173,740 C 173,903 231,1043 346,1159 462,1274 601,1332 765,1332 928,1332 1067,1274 1183,1159 1299,1043 1357,903 1357,740 1357,577 1299,437 1183,322 1067,206 928,148 765,148 601,148 462,206 346,322 231,437 173,577 173,740 Z"
   id="path12" />
  </g>
 </defs>
 
 <path
   id="path13"
   d="M 8354.9938 2023.9591 C 8341.9208 2023.8856 8328.2644 2024.2427 8314.0144 2024.9927 C 8304.2695 2025.5557 8294.6288 2026.4074 8284.9723 2027.2147 C 7950.9236 2033.4768 6655.6399 2084.1734 5883.9819 2172.0121 C 5067.9819 2266.0121 4426.9918 2392.9839 4154.9918 2463.9839 C 4151.9644 2464.9334 4149.1836 2466.5155 4146.3102 2467.8597 C 2667.0802 2867.339 1572.6508 4312.6043 1448.0253 6042.0084 C 1309.0253 7957.0084 2303.9762 9188.9914 4283.9762 9029.9914 C 4405.9762 9019.9914 4830.9784 8980.9797 5009.9784 8967.9797 C 5016.0633 8967.5378 5020.8796 8966.2596 5024.8095 8964.3623 C 5109.1552 8957.7205 5198.2694 8946.7635 5296.9893 8927.0003 C 6317.9893 8720.0003 7928.9817 8602.0127 8087.9817 8596.0127 C 8097.1555 8595.6088 8107.1 8592.1608 8117.489 8586.5559 C 8157.6461 8574.5327 8202.1877 8546.4993 8257.0153 8505.9924 C 8391.0153 8407.9924 8478.0022 8230.982 8514.0022 8124.982 C 8607.0022 7854.982 8528.992 7765.0111 8300.992 7776.0111 C 8268.5768 7777.8757 8236.7549 7781.2213 8205.7523 7785.7779 C 7832.6888 7816.4533 6969.0586 7906.5526 6464.98 7989.0213 C 5921.98 8077.0213 5245.0011 8290.9894 4892.0011 8172.9894 C 4630.0011 8086.9894 4754.9916 8003.0009 4920.9916 7096.0009 C 4974.9175 6799.572 5001.0784 6308.2314 5011.0636 5764.6093 C 5261.8427 5689.1756 5597.8852 5604.7863 5902.017 5560.0223 C 6366.017 5493.0223 7498.0163 5425.0032 7733.0163 5450.0032 C 7738.4107 5450.5334 7743.855 5450.1244 7749.2944 5449.7448 C 7803.5843 5455.0174 7861.6101 5421.9296 7941.9958 5362.9801 C 8075.9958 5265.9801 8162.9827 5088.0214 8198.9827 4982.0214 C 8288.1077 4721.4277 8218.6685 4627.8361 8006.9531 4633.1539 C 8005.9195 4633.1779 8005.0604 4632.9432 8004.0075 4632.9988 C 8001.0973 4633.1637 7995.8532 4633.5539 7992.8971 4633.7223 C 7990.5893 4633.8237 7988.3637 4633.8575 7986.0241 4633.9807 C 7981.3971 4634.2468 7976.8337 4634.6943 7972.2265 4635.0142 C 7501.4258 4662.1154 6499.6646 4731.389 5777.9935 4860.9952 C 5342.6999 4938.5782 5170.0888 4967.5175 5014.9393 5002.6403 C 5010.833 4166.7857 4982.638 3375.0722 4963.728 3048.186 C 4965.1795 3035.951 4966.0121 3024.3278 4966.2085 3013.3044 C 5228.0742 2972.0612 5525.9519 2932.0238 5857.0068 2898.0143 C 6622.0068 2819.0143 7872.0082 2832.9761 8078.0082 2845.9761 C 8082.2656 2846.0944 8087.0947 2844.5546 8092.1675 2842.2038 C 8142.2952 2840.7717 8196.8861 2808.6323 8269.9861 2755.0256 C 8403.9861 2657.0256 8492.0247 2479.9971 8527.0247 2374.9971 C 8614.2122 2120.9346 8551.0888 2025.0614 8354.9938 2023.9591 z M 4258.2413 3151.0738 C 4255.2217 3205.9216 4257.3898 3267.0717 4265.6827 3327.4971 C 4265.4919 3339.1605 4265.8273 3350.9812 4266.9747 3362.9988 C 4368.9747 4115.9988 4415.987 5517.0193 4402.987 6329.0193 C 4390.987 7139.0193 4240.021 7388.9823 4142.021 7993.9823 C 4126.8087 8088.8633 4120.723 8181.4741 4123.3142 8270.2445 C 3034.8949 8173.7283 1911.4684 7684.4862 2056.9804 6042.0084 C 2198.719 4431.5966 3013.7071 3436.2782 4258.2413 3151.0738 z " />
   
  
</svg>
