<?xml version="1.0" encoding="UTF-8" standalone="no"?>
<svg
   version="1.2"
   width="100mm"
   height="100mm"
   viewBox="0 0 10000 10000"
   preserveAspectRatio="xMidYMid"
   fill-rule="evenodd"
   stroke-width="28.222"
   stroke-linejoin="round"
   xml:space="preserve"
   id="svg22"
   sodipodi:docname="gobo-caps-0121.svg"
   inkscape:version="1.4 (86a8ad7, 2024-10-11)"
   xmlns:inkscape="http://www.inkscape.org/namespaces/inkscape"
   xmlns:sodipodi="http://sodipodi.sourceforge.net/DTD/sodipodi-0.dtd"
   xmlns="http://www.w3.org/2000/svg"
   xmlns:svg="http://www.w3.org/2000/svg"
   xmlns:ooo="http://xml.openoffice.org/svg/export"><sodipodi:namedview
   id="namedview22"
   pagecolor="#ffffff"
   bordercolor="#000000"
   borderopacity="0.25"
   inkscape:showpageshadow="2"
   inkscape:pageopacity="0.0"
   inkscape:pagecheckerboard="0"
   inkscape:deskcolor="#d1d1d1"
   inkscape:document-units="mm"
   showgrid="false"
   inkscape:zoom="3.0876875"
   inkscape:cx="188.81444"
   inkscape:cy="188.97638"
   inkscape:window-width="2560"
   inkscape:window-height="1369"
   inkscape:window-x="-8"
   inkscape:window-y="-8"
   inkscape:window-maximized="1"
   inkscape:current-layer="svg22" />
 <defs
   class="ClipPathGroup"
   id="defs2">
  
  <clipPath
   id="presentation_clip_path_shrink"
   clipPathUnits="userSpaceOnUse">
   <rect
   x="10"
   y="10"
   width="9980"
   height="9980"
   id="rect2" />
  </clipPath>
 
  
 
   
  
    
   
     
    
      
      
      
      
      
      
      
     
       
      
       
      
       
      
       
      
       
      
       
      
       
      
        
        
       
        
        
       
        
        
       
        
        
       
        
        
       
        
        
       
        
        
       </defs>
 <defs
   class="TextShapeIndex"
   id="defs3">
  <g
   ooo:slide="id1"
   ooo:id-list="id3 id4 id5 id6 id7 id8 id9"
   id="g2" />
 </defs>
 <defs
   class="EmbeddedBulletChars"
   id="defs12">
  <g
   id="bullet-char-template-57356"
   transform="scale(0.00048828125,-0.00048828125)">
   <path
   d="M 580,1141 L 1163,571 580,0 -4,571 580,1141 Z"
   id="path3" />
  </g>
  <g
   id="bullet-char-template-57354"
   transform="scale(0.00048828125,-0.00048828125)">
   <path
   d="M 8,1128 L 1137,1128 1137,0 8,0 8,1128 Z"
   id="path4" />
  </g>
  <g
   id="bullet-char-template-10146"
   transform="scale(0.00048828125,-0.00048828125)">
   <path
   d="M 174,0 L 602,739 174,1481 1456,739 174,0 Z M 1358,739 L 309,1346 659,739 1358,739 Z"
   id="path5" />
  </g>
  <g
   id="bullet-char-template-10132"
   transform="scale(0.00048828125,-0.00048828125)">
   <path
   d="M 2015,739 L 1276,0 717,0 1260,543 174,543 174,936 1260,936 717,1481 1274,1481 2015,739 Z"
   id="path6" />
  </g>
  <g
   id="bullet-char-template-10007"
   transform="scale(0.00048828125,-0.00048828125)">
   <path
   d="M 0,-2 C -7,14 -16,27 -25,37 L 356,567 C 262,823 215,952 215,954 215,979 228,992 255,992 264,992 276,990 289,987 310,991 331,999 354,1012 L 381,999 492,748 772,1049 836,1024 860,1049 C 881,1039 901,1025 922,1006 886,937 835,863 770,784 769,783 710,716 594,584 L 774,223 C 774,196 753,168 711,139 L 727,119 C 717,90 699,76 672,76 641,76 570,178 457,381 L 164,-76 C 142,-110 111,-127 72,-127 30,-127 9,-110 8,-76 1,-67 -2,-52 -2,-32 -2,-23 -1,-13 0,-2 Z"
   id="path7" />
  </g>
  <g
   id="bullet-char-template-10004"
   transform="scale(0.00048828125,-0.00048828125)">
   <path
   d="M 285,-33 C 182,-33 111,30 74,156 52,228 41,333 41,471 41,549 55,616 82,672 116,743 169,778 240,778 293,778 328,747 346,684 L 369,508 C 377,444 397,411 428,410 L 1163,1116 C 1174,1127 1196,1133 1229,1133 1271,1133 1292,1118 1292,1087 L 1292,965 C 1292,929 1282,901 1262,881 L 442,47 C 390,-6 338,-33 285,-33 Z"
   id="path8" />
  </g>
  <g
   id="bullet-char-template-9679"
   transform="scale(0.00048828125,-0.00048828125)">
   <path
   d="M 813,0 C 632,0 489,54 383,161 276,268 223,411 223,592 223,773 276,916 383,1023 489,1130 632,1184 813,1184 992,1184 1136,1130 1245,1023 1353,916 1407,772 1407,592 1407,412 1353,268 1245,161 1136,54 992,0 813,0 Z"
   id="path9" />
  </g>
  <g
   id="bullet-char-template-8226"
   transform="scale(0.00048828125,-0.00048828125)">
   <path
   d="M 346,457 C 273,457 209,483 155,535 101,586 74,649 74,723 74,796 101,859 155,911 209,963 273,989 346,989 419,989 480,963 531,910 582,859 608,796 608,723 608,648 583,586 532,535 482,483 420,457 346,457 Z"
   id="path10" />
  </g>
  <g
   id="bullet-char-template-8211"
   transform="scale(0.00048828125,-0.00048828125)">
   <path
   d="M -4,459 L 1135,459 1135,606 -4,606 -4,459 Z"
   id="path11" />
  </g>
  <g
   id="bullet-char-template-61548"
   transform="scale(0.00048828125,-0.00048828125)">
   <path
   d="M 173,740 C 173,903 231,1043 346,1159 462,1274 601,1332 765,1332 928,1332 1067,1274 1183,1159 1299,1043 1357,903 1357,740 1357,577 1299,437 1183,322 1067,206 928,148 765,148 601,148 462,206 346,322 231,437 173,577 173,740 Z"
   id="path12" />
  </g>
 </defs>
 
 <path
   id="path13"
   d="M 5389.8002 1882.159 C 5376.7821 1882.0382 5363.1633 1882.2983 5348.9758 1882.9858 C 5122.9758 1895.9858 4918.9956 1974.0229 4897.9956 2123.0229 C 4874.9956 2272.0229 4897.9867 2517.984 5000.9867 2631.984 C 5096.9867 2737.984 5170.0173 2712.0188 5304.0173 2613.0188 C 5438.0173 2515.0188 5525.0042 2338.0084 5561.0042 2232.0084 C 5648.1917 1978.8834 5585.0712 1883.9717 5389.8002 1882.159 z M 5496.8221 3142.9089 C 5366.5975 3139.3933 5226.5209 3143.9984 5076.0209 3157.9984 C 3871.0209 3269.9984 2977.9979 4449.9938 2784.9979 5646.9938 C 2590.9979 6844.9938 3382.0229 8198.0244 4831.0229 8023.0244 C 6281.0229 7848.0244 6631.0027 7001.0245 6982.0027 6286.0245 C 6982.8925 6284.1879 6983.3315 6282.3354 6984.1214 6280.4952 C 6998.1592 6249.7673 7009.5626 6220.9099 7018.0212 6196.0042 C 7030.1252 6160.8634 7039.2593 6128.82 7045.6164 6099.576 C 7125.5059 6004.438 7179.5771 5888.8744 7206.02 5811.0148 C 7294.2691 5554.8078 7228.4331 5459.7975 7027.5297 5461.0103 C 7018.4184 5460.6228 7009.0381 5460.5378 6999.0043 5461.0103 C 6552.0043 5483.0103 6382.009 5480.0165 5948.009 5529.0165 C 5547.4101 5573.4247 5570.3271 5570.2818 5204.0234 5632.4727 C 5188.6081 5634.6877 5173.4921 5637.2979 5158.5998 5640.1725 C 5144.4181 5642.576 5139.2847 5643.4228 5123.9766 5646.0119 C 5122.0603 5646.7784 5120.3647 5648.0234 5118.4989 5648.9058 C 4972.7349 5684.38 4862.1754 5754.2819 4846.9909 5862.0194 C 4823.9909 6012.0194 4847.9821 6257.9806 4949.9821 6370.9806 C 4997.8579 6424.3422 5040.0499 6444.3823 5087.028 6438.7801 C 5091.9591 6440.6644 5096.9767 6441.0943 5102.0141 6438.9868 C 5301.0141 6352.9868 5682.0207 6271.9934 6010.0207 6244.9934 C 6111.6235 6236.964 6203.5464 6236.2618 6289.0734 6238.8439 C 5921.8757 7116.3041 5364.7733 7297.7714 4741.0026 7294.025 C 4076.0026 7290.025 3342.0201 6613.9892 3396.0201 5763.9892 C 3451.0201 4913.9892 3822.9759 4445.9848 4246.9759 4143.9848 C 4670.9759 3841.9848 5964.0079 3583.0006 6304.0079 4519.0006 C 6305.9098 4524.2346 6308.2832 4528.4738 6310.4158 4533.2116 C 6326.9779 4576.677 6348.2294 4615.3456 6375.0113 4644.9878 C 6471.0113 4750.9878 6544.0238 4725.0225 6679.0238 4626.0225 C 6812.0238 4528.0225 6898.9772 4351.0122 6934.9772 4245.0122 C 6970.0458 4143.2 6980.7929 4066.8806 6968.4118 4011.9515 C 6968.0299 4004.0701 6967.0999 3996.5797 6965.0012 3989.989 C 6836.3762 3590.989 6408.3943 3167.5183 5496.8221 3142.9089 z " />
   
  
</svg>
