<?xml version="1.0" encoding="UTF-8" standalone="no"?>
<svg
   version="1.2"
   width="100mm"
   height="100mm"
   viewBox="0 0 10000 10000"
   preserveAspectRatio="xMidYMid"
   fill-rule="evenodd"
   stroke-width="28.222"
   stroke-linejoin="round"
   xml:space="preserve"
   id="svg29"
   sodipodi:docname="gobo-caps-011B.svg"
   inkscape:version="1.4 (86a8ad7, 2024-10-11)"
   xmlns:inkscape="http://www.inkscape.org/namespaces/inkscape"
   xmlns:sodipodi="http://sodipodi.sourceforge.net/DTD/sodipodi-0.dtd"
   xmlns="http://www.w3.org/2000/svg"
   xmlns:svg="http://www.w3.org/2000/svg"
   xmlns:ooo="http://xml.openoffice.org/svg/export"><sodipodi:namedview
   id="namedview29"
   pagecolor="#ffffff"
   bordercolor="#000000"
   borderopacity="0.25"
   inkscape:showpageshadow="2"
   inkscape:pageopacity="0.0"
   inkscape:pagecheckerboard="0"
   inkscape:deskcolor="#d1d1d1"
   inkscape:document-units="mm"
   showgrid="false"
   inkscape:zoom="3.0876875"
   inkscape:cx="188.81444"
   inkscape:cy="188.97638"
   inkscape:window-width="2560"
   inkscape:window-height="1369"
   inkscape:window-x="-8"
   inkscape:window-y="-8"
   inkscape:window-maximized="1"
   inkscape:current-layer="svg29" />
 <defs
   class="ClipPathGroup"
   id="defs2">
  
  <clipPath
   id="presentation_clip_path_shrink"
   clipPathUnits="userSpaceOnUse">
   <rect
   x="10"
   y="10"
   width="9980"
   height="9980"
   id="rect2" />
  </clipPath>
 
  
 
   
  
    
   
     
    
      
      
      
      
      
      
      
      
      
      
      
      
      
      
     
       
      
       
      
       
      
       
      
       
      
       
      
       
      
       
      
       
      
       
      
       
      
       
      
       
      
       
      
        
        
       
        
        
       
        
        
       
        
        
       
        
        
       
        
        
       
        
        
       
        
        
       
        
        
       
        
        
       
        
        
       
        
        
       
        
        
       
        
        
       </defs>
 <defs
   class="TextShapeIndex"
   id="defs3">
  <g
   ooo:slide="id1"
   ooo:id-list="id3 id4 id5 id6 id7 id8 id9 id10 id11 id12 id13 id14 id15 id16"
   id="g2" />
 </defs>
 <defs
   class="EmbeddedBulletChars"
   id="defs12">
  <g
   id="bullet-char-template-57356"
   transform="scale(0.00048828125,-0.00048828125)">
   <path
   d="M 580,1141 L 1163,571 580,0 -4,571 580,1141 Z"
   id="path3" />
  </g>
  <g
   id="bullet-char-template-57354"
   transform="scale(0.00048828125,-0.00048828125)">
   <path
   d="M 8,1128 L 1137,1128 1137,0 8,0 8,1128 Z"
   id="path4" />
  </g>
  <g
   id="bullet-char-template-10146"
   transform="scale(0.00048828125,-0.00048828125)">
   <path
   d="M 174,0 L 602,739 174,1481 1456,739 174,0 Z M 1358,739 L 309,1346 659,739 1358,739 Z"
   id="path5" />
  </g>
  <g
   id="bullet-char-template-10132"
   transform="scale(0.00048828125,-0.00048828125)">
   <path
   d="M 2015,739 L 1276,0 717,0 1260,543 174,543 174,936 1260,936 717,1481 1274,1481 2015,739 Z"
   id="path6" />
  </g>
  <g
   id="bullet-char-template-10007"
   transform="scale(0.00048828125,-0.00048828125)">
   <path
   d="M 0,-2 C -7,14 -16,27 -25,37 L 356,567 C 262,823 215,952 215,954 215,979 228,992 255,992 264,992 276,990 289,987 310,991 331,999 354,1012 L 381,999 492,748 772,1049 836,1024 860,1049 C 881,1039 901,1025 922,1006 886,937 835,863 770,784 769,783 710,716 594,584 L 774,223 C 774,196 753,168 711,139 L 727,119 C 717,90 699,76 672,76 641,76 570,178 457,381 L 164,-76 C 142,-110 111,-127 72,-127 30,-127 9,-110 8,-76 1,-67 -2,-52 -2,-32 -2,-23 -1,-13 0,-2 Z"
   id="path7" />
  </g>
  <g
   id="bullet-char-template-10004"
   transform="scale(0.00048828125,-0.00048828125)">
   <path
   d="M 285,-33 C 182,-33 111,30 74,156 52,228 41,333 41,471 41,549 55,616 82,672 116,743 169,778 240,778 293,778 328,747 346,684 L 369,508 C 377,444 397,411 428,410 L 1163,1116 C 1174,1127 1196,1133 1229,1133 1271,1133 1292,1118 1292,1087 L 1292,965 C 1292,929 1282,901 1262,881 L 442,47 C 390,-6 338,-33 285,-33 Z"
   id="path8" />
  </g>
  <g
   id="bullet-char-template-9679"
   transform="scale(0.00048828125,-0.00048828125)">
   <path
   d="M 813,0 C 632,0 489,54 383,161 276,268 223,411 223,592 223,773 276,916 383,1023 489,1130 632,1184 813,1184 992,1184 1136,1130 1245,1023 1353,916 1407,772 1407,592 1407,412 1353,268 1245,161 1136,54 992,0 813,0 Z"
   id="path9" />
  </g>
  <g
   id="bullet-char-template-8226"
   transform="scale(0.00048828125,-0.00048828125)">
   <path
   d="M 346,457 C 273,457 209,483 155,535 101,586 74,649 74,723 74,796 101,859 155,911 209,963 273,989 346,989 419,989 480,963 531,910 582,859 608,796 608,723 608,648 583,586 532,535 482,483 420,457 346,457 Z"
   id="path10" />
  </g>
  <g
   id="bullet-char-template-8211"
   transform="scale(0.00048828125,-0.00048828125)">
   <path
   d="M -4,459 L 1135,459 1135,606 -4,606 -4,459 Z"
   id="path11" />
  </g>
  <g
   id="bullet-char-template-61548"
   transform="scale(0.00048828125,-0.00048828125)">
   <path
   d="M 173,740 C 173,903 231,1043 346,1159 462,1274 601,1332 765,1332 928,1332 1067,1274 1183,1159 1299,1043 1357,903 1357,740 1357,577 1299,437 1183,322 1067,206 928,148 765,148 601,148 462,206 346,322 231,437 173,577 173,740 Z"
   id="path12" />
  </g>
 </defs>
 
 <path
   id="path13"
   d="M 6320.0793 1200.1335 C 6314.843 1200.2625 6309.5079 1200.5745 6304.0079 1201.012 C 6263.079 1204.5202 6225.9421 1210.5051 6191.8184 1219.3571 C 5805.4272 1301.2047 5376.8954 1600.5902 5088.2682 1859.318 C 4787.1488 1675.6388 4318.237 1454.6355 3906.9966 1427.9748 C 3904.4349 1427.9561 3901.8634 1428.4369 3899.2968 1428.5433 C 3887.8798 1427.9132 3875.8598 1427.987 3863.02 1429.0084 C 3688.02 1444.0084 3579.9777 1502.0257 3497.9777 1653.0257 C 3416.9777 1804.0257 3429.9832 2013.9949 3491.9832 2115.9949 C 3516.6939 2156.6479 3553.9835 2174.0629 3597.1447 2175.4228 C 3598.1429 2175.5543 3598.9727 2175.8789 3599.987 2175.9912 C 4218.987 2247.9912 4764.0051 2706.9857 4869.0051 2816.9857 C 4873.5526 2821.7497 4878.9394 2824.8763 4884.9731 2826.6491 C 4963.5004 2887.2481 5033.6392 2856.214 5148.988 2770.9936 C 5175.3135 2751.7407 5199.7531 2729.3716 5222.4202 2705.1579 C 5231.1186 2700.5858 5238.7645 2694.3236 5245.0028 2685.9859 C 5349.0028 2544.9859 5915.9817 2036.9791 6182.9817 1908.9791 C 6193.3495 1904.0864 6203.1662 1898.2494 6212.6957 1891.9775 C 6225.6695 1884.4492 6238.4932 1876.4743 6250.9879 1867.9997 C 6366.9879 1787.9997 6454.976 1681.0063 6487.976 1506.0063 C 6518.976 1338.4125 6482.4055 1196.1326 6320.0793 1200.1335 z M 6773.7984 3040.7963 C 6760.7803 3040.778 6747.2132 3041.1723 6733.0257 3041.9848 C 6727.6363 3042.271 6722.3165 3042.7615 6716.9543 3043.1217 C 6420.2786 3048.9146 5518.9979 3098.1917 4889.0039 3177.9972 C 4286.5095 3251.8455 3901.694 3314.9736 3433.2271 3403.2031 C 3224.3903 3422.9833 3043.6986 3500.2288 3024.0014 3639.9845 C 3002.0014 3788.9845 3024.9926 4034.9974 3126.9926 4148.9974 C 3178.3562 4205.7113 3223.1596 4224.6049 3274.3738 4214.7815 C 3275.7693 4215.3827 3277.1625 4215.9143 3278.5595 4216.125 C 3279.4479 4220.7881 3280.2279 4225.5023 3281.195 4230.1294 C 3320.5044 4615.7793 3394.8944 4706.5704 3382.0158 5509.9996 C 3371.0158 6319.9996 3219.98 6571.0142 3121.98 7175.0142 C 3023.98 7781.0142 3261.9814 8310.0014 4240.9814 8104.0014 C 5211.2437 7900.4151 6323.0946 7832.3261 6494.1772 7824.5353 C 6549.0145 7830.6502 6607.7944 7797.5261 6688.9973 7737.9772 C 6821.9973 7640.9772 6908.9842 7463.0004 6945.9842 7358.0004 C 7037.9842 7088.0004 6961.0257 6996.9778 6733.0257 7008.9778 C 6690.0311 7011.4401 6647.9094 7016.2871 6607.7103 7023.3955 C 6278.269 7052.8904 5751.4188 7117.6778 5347.9939 7178.0114 C 4903.9939 7243.0114 4224.9782 7472.0032 3870.9782 7355.0032 C 3609.9782 7268.0032 3735.0022 7185.0147 3901.0022 6278.0147 C 3919.2074 6177.8305 3934.2524 6075.7816 3947.3559 5973.1237 C 4208.0491 5887.5967 4585.0641 5782.513 4915.979 5734.0169 C 5378.979 5667.0169 5989.9793 5665.9886 6222.9793 5689.9886 C 6226.6769 5690.3662 6230.4222 5689.8834 6234.1414 5689.8335 C 6287.9003 5694.1848 6345.5117 5661.2956 6424.9825 5603.0171 C 6558.9825 5506.0171 6646.021 5328.0068 6682.021 5222.0068 C 6775.021 4953.0068 6697.0108 4862.0177 6469.0108 4874.0177 C 6451.245 4875.0396 6433.7051 4876.5417 6416.3008 4878.3585 C 5944.6268 4904.444 5143.5142 4944.6438 4632.9988 5057.9858 C 4307.7833 5129.4484 4162.6281 5158.5074 4006.112 5196.6337 C 4019.6489 4762.6915 4004.7699 4357.7679 3986.63 4052.6725 C 4273.8934 3991.3676 4587.244 3932.9309 4860.0134 3903.0175 C 5398.0134 3846.0175 6298.993 3849.0228 6506.993 3860.0228 C 6510.591 3860.1893 6514.537 3859.3098 6518.7235 3857.6973 C 6566.8251 3853.3036 6619.7351 3821.7766 6688.9973 3770.9843 C 6821.9973 3672.9843 6909.0024 3496.0256 6945.0024 3390.0256 C 7032.1899 3136.9006 6969.0694 3041.0709 6773.7984 3040.7963 z " />
   
  
</svg>
