<?xml version="1.0" encoding="UTF-8" standalone="no"?>
<svg
   version="1.2"
   width="100mm"
   height="100mm"
   viewBox="0 0 10000 10000"
   preserveAspectRatio="xMidYMid"
   fill-rule="evenodd"
   stroke-width="28.222"
   stroke-linejoin="round"
   xml:space="preserve"
   id="svg21"
   sodipodi:docname="gobo-caps-0142.svg"
   inkscape:version="1.4 (86a8ad7, 2024-10-11)"
   xmlns:inkscape="http://www.inkscape.org/namespaces/inkscape"
   xmlns:sodipodi="http://sodipodi.sourceforge.net/DTD/sodipodi-0.dtd"
   xmlns="http://www.w3.org/2000/svg"
   xmlns:svg="http://www.w3.org/2000/svg"
   xmlns:ooo="http://xml.openoffice.org/svg/export"><sodipodi:namedview
   id="namedview21"
   pagecolor="#ffffff"
   bordercolor="#000000"
   borderopacity="0.25"
   inkscape:showpageshadow="2"
   inkscape:pageopacity="0.0"
   inkscape:pagecheckerboard="0"
   inkscape:deskcolor="#d1d1d1"
   inkscape:document-units="mm"
   showgrid="false"
   inkscape:zoom="3.0876875"
   inkscape:cx="188.81444"
   inkscape:cy="188.97638"
   inkscape:window-width="2560"
   inkscape:window-height="1369"
   inkscape:window-x="-8"
   inkscape:window-y="-8"
   inkscape:window-maximized="1"
   inkscape:current-layer="svg21" />
 <defs
   class="ClipPathGroup"
   id="defs2">
  
  <clipPath
   id="presentation_clip_path_shrink"
   clipPathUnits="userSpaceOnUse">
   <rect
   x="10"
   y="10"
   width="9980"
   height="9980"
   id="rect2" />
  </clipPath>
 
  
 
   
  
    
   
     
    
      
      
      
      
      
      
     
       
      
       
      
       
      
       
      
       
      
       
      
        
        
       
        
        
       
        
        
       
        
        
       
        
        
       
        
        
       </defs>
 <defs
   class="TextShapeIndex"
   id="defs3">
  <g
   ooo:slide="id1"
   ooo:id-list="id3 id4 id5 id6 id7 id8"
   id="g2" />
 </defs>
 <defs
   class="EmbeddedBulletChars"
   id="defs12">
  <g
   id="bullet-char-template-57356"
   transform="scale(0.00048828125,-0.00048828125)">
   <path
   d="M 580,1141 L 1163,571 580,0 -4,571 580,1141 Z"
   id="path3" />
  </g>
  <g
   id="bullet-char-template-57354"
   transform="scale(0.00048828125,-0.00048828125)">
   <path
   d="M 8,1128 L 1137,1128 1137,0 8,0 8,1128 Z"
   id="path4" />
  </g>
  <g
   id="bullet-char-template-10146"
   transform="scale(0.00048828125,-0.00048828125)">
   <path
   d="M 174,0 L 602,739 174,1481 1456,739 174,0 Z M 1358,739 L 309,1346 659,739 1358,739 Z"
   id="path5" />
  </g>
  <g
   id="bullet-char-template-10132"
   transform="scale(0.00048828125,-0.00048828125)">
   <path
   d="M 2015,739 L 1276,0 717,0 1260,543 174,543 174,936 1260,936 717,1481 1274,1481 2015,739 Z"
   id="path6" />
  </g>
  <g
   id="bullet-char-template-10007"
   transform="scale(0.00048828125,-0.00048828125)">
   <path
   d="M 0,-2 C -7,14 -16,27 -25,37 L 356,567 C 262,823 215,952 215,954 215,979 228,992 255,992 264,992 276,990 289,987 310,991 331,999 354,1012 L 381,999 492,748 772,1049 836,1024 860,1049 C 881,1039 901,1025 922,1006 886,937 835,863 770,784 769,783 710,716 594,584 L 774,223 C 774,196 753,168 711,139 L 727,119 C 717,90 699,76 672,76 641,76 570,178 457,381 L 164,-76 C 142,-110 111,-127 72,-127 30,-127 9,-110 8,-76 1,-67 -2,-52 -2,-32 -2,-23 -1,-13 0,-2 Z"
   id="path7" />
  </g>
  <g
   id="bullet-char-template-10004"
   transform="scale(0.00048828125,-0.00048828125)">
   <path
   d="M 285,-33 C 182,-33 111,30 74,156 52,228 41,333 41,471 41,549 55,616 82,672 116,743 169,778 240,778 293,778 328,747 346,684 L 369,508 C 377,444 397,411 428,410 L 1163,1116 C 1174,1127 1196,1133 1229,1133 1271,1133 1292,1118 1292,1087 L 1292,965 C 1292,929 1282,901 1262,881 L 442,47 C 390,-6 338,-33 285,-33 Z"
   id="path8" />
  </g>
  <g
   id="bullet-char-template-9679"
   transform="scale(0.00048828125,-0.00048828125)">
   <path
   d="M 813,0 C 632,0 489,54 383,161 276,268 223,411 223,592 223,773 276,916 383,1023 489,1130 632,1184 813,1184 992,1184 1136,1130 1245,1023 1353,916 1407,772 1407,592 1407,412 1353,268 1245,161 1136,54 992,0 813,0 Z"
   id="path9" />
  </g>
  <g
   id="bullet-char-template-8226"
   transform="scale(0.00048828125,-0.00048828125)">
   <path
   d="M 346,457 C 273,457 209,483 155,535 101,586 74,649 74,723 74,796 101,859 155,911 209,963 273,989 346,989 419,989 480,963 531,910 582,859 608,796 608,723 608,648 583,586 532,535 482,483 420,457 346,457 Z"
   id="path10" />
  </g>
  <g
   id="bullet-char-template-8211"
   transform="scale(0.00048828125,-0.00048828125)">
   <path
   d="M -4,459 L 1135,459 1135,606 -4,606 -4,459 Z"
   id="path11" />
  </g>
  <g
   id="bullet-char-template-61548"
   transform="scale(0.00048828125,-0.00048828125)">
   <path
   d="M 173,740 C 173,903 231,1043 346,1159 462,1274 601,1332 765,1332 928,1332 1067,1274 1183,1159 1299,1043 1357,903 1357,740 1357,577 1299,437 1183,322 1067,206 928,148 765,148 601,148 462,206 346,322 231,437 173,577 173,740 Z"
   id="path12" />
  </g>
 </defs>
 
 <path
   id="path13"
   d="M 3976.9665 3257.9923 C 3963.9006 3257.9191 3950.2371 3258.2242 3935.9871 3258.9742 C 3709.9871 3271.9742 3506.0069 3348.9777 3485.0069 3497.9777 C 3480.2373 3530.4976 3477.7584 3567.7008 3477.5655 3606.9116 C 3447.8593 4049.2992 3386.0909 4824.1424 3374.0059 5578.9876 C 3372.6375 5664.0373 3372.1367 5741.4207 3371.8355 5817.0609 C 3223.7003 5922.5754 3090.6604 6013.8025 2969.5862 6086.1401 C 2965.7838 6088.3134 2962.0843 6090.5462 2958.424 6092.8063 C 2951.6502 6096.8126 2944.7168 6101.1135 2938.0119 6105.002 C 2934.1441 6107.261 2930.7784 6110.371 2927.7282 6114.0454 C 2883.3926 6148.8587 2854.2834 6192.0566 2847.0097 6244.0116 C 2824.0097 6393.0116 2847.0189 6638.9909 2949.0189 6751.9909 C 3046.0189 6857.9909 3117.9797 6832.0257 3252.9797 6733.0257 C 3300.7733 6698.5957 3346.2811 6666.4902 3393.5396 6632.67 C 3407.6236 6862.0589 3427.2052 7083.4265 3450.0219 7358.9823 C 3501.0219 7986.9823 3701.9984 8211.9995 4427.9984 8049.9995 C 5150.9984 7887.9995 5766.9937 7859.0007 6113.9937 7862.0007 C 6125.1553 7862.0328 6136.2687 7861.1402 6147.2733 7859.5202 C 6199.8381 7861.623 6256.7463 7828.6186 6333.9803 7771.9803 C 6466.9803 7674.9803 6554.0188 7498.0035 6591.0188 7392.0035 C 6683.0188 7122.0035 6606.0086 7030.9809 6378.0086 7042.9809 C 6363.3261 7043.8217 6348.7292 7044.9614 6334.2903 7046.3399 C 5913.1133 7075.8724 4691.4474 7300.8944 4382.0064 7349.0087 C 4055.0064 7400.0087 4075.9905 7223.9799 4006.9905 6296.9799 C 4004.6802 6266.7835 4003.308 6234.8536 4001.5128 6203.704 C 4206.3749 6061.9554 4376.5205 5947.51 4481.0184 5882.0182 C 4484.1858 5880.089 4486.9247 5877.5517 4489.4417 5874.6801 C 4504.1532 5864.92 4519.6157 5854.0374 4536.0022 5842.0206 C 4669.0022 5745.0206 4755.9891 5566.9921 4792.9891 5461.9921 C 4884.9891 5191.9921 4807.9788 5101.0212 4579.9788 5113.0212 C 4436.3411 5121.2472 4302.426 5155.1295 4218.0371 5216.6324 C 4217.7143 5216.8255 4217.3203 5216.7805 4217.0035 5216.9942 C 4142.0374 5268.0349 4070.4463 5317.7054 4001.2028 5366.2874 C 4034.0417 4604.47 4136.3088 3810.2306 4188.0131 3442.0121 C 4188.4878 3436.2132 4187.9528 3430.7394 4186.8245 3425.4756 C 4187.5481 3307.2158 4115.8969 3258.7711 3976.9665 3257.9923 z " />
   
  
</svg>
