<?xml version="1.0" encoding="UTF-8" standalone="no"?>
<svg
   version="1.2"
   width="100mm"
   height="100mm"
   viewBox="0 0 10000 10000"
   preserveAspectRatio="xMidYMid"
   fill-rule="evenodd"
   stroke-width="28.222"
   stroke-linejoin="round"
   xml:space="preserve"
   id="svg26"
   sodipodi:docname="gobo-caps-0118.svg"
   inkscape:version="1.4 (86a8ad7, 2024-10-11)"
   xmlns:inkscape="http://www.inkscape.org/namespaces/inkscape"
   xmlns:sodipodi="http://sodipodi.sourceforge.net/DTD/sodipodi-0.dtd"
   xmlns="http://www.w3.org/2000/svg"
   xmlns:svg="http://www.w3.org/2000/svg"
   xmlns:ooo="http://xml.openoffice.org/svg/export"><sodipodi:namedview
   id="namedview26"
   pagecolor="#ffffff"
   bordercolor="#000000"
   borderopacity="0.25"
   inkscape:showpageshadow="2"
   inkscape:pageopacity="0.0"
   inkscape:pagecheckerboard="0"
   inkscape:deskcolor="#d1d1d1"
   inkscape:document-units="mm"
   showgrid="false"
   inkscape:zoom="3.0876875"
   inkscape:cx="188.81444"
   inkscape:cy="188.97638"
   inkscape:window-width="2560"
   inkscape:window-height="1369"
   inkscape:window-x="-8"
   inkscape:window-y="-8"
   inkscape:window-maximized="1"
   inkscape:current-layer="svg26" />
 <defs
   class="ClipPathGroup"
   id="defs2">
  
  <clipPath
   id="presentation_clip_path_shrink"
   clipPathUnits="userSpaceOnUse">
   <rect
   x="10"
   y="10"
   width="9980"
   height="9980"
   id="rect2" />
  </clipPath>
 
  
 
   
  
    
   
     
    
      
      
      
      
      
      
      
      
      
      
      
     
       
      
       
      
       
      
       
      
       
      
       
      
       
      
       
      
       
      
       
      
       
      
        
        
       
        
        
       
        
        
       
        
        
       
        
        
       
        
        
       
        
        
       
        
        
       
        
        
       
        
        
       
        
        
       </defs>
 <defs
   class="TextShapeIndex"
   id="defs3">
  <g
   ooo:slide="id1"
   ooo:id-list="id3 id4 id5 id6 id7 id8 id9 id10 id11 id12 id13"
   id="g2" />
 </defs>
 <defs
   class="EmbeddedBulletChars"
   id="defs12">
  <g
   id="bullet-char-template-57356"
   transform="scale(0.00048828125,-0.00048828125)">
   <path
   d="M 580,1141 L 1163,571 580,0 -4,571 580,1141 Z"
   id="path3" />
  </g>
  <g
   id="bullet-char-template-57354"
   transform="scale(0.00048828125,-0.00048828125)">
   <path
   d="M 8,1128 L 1137,1128 1137,0 8,0 8,1128 Z"
   id="path4" />
  </g>
  <g
   id="bullet-char-template-10146"
   transform="scale(0.00048828125,-0.00048828125)">
   <path
   d="M 174,0 L 602,739 174,1481 1456,739 174,0 Z M 1358,739 L 309,1346 659,739 1358,739 Z"
   id="path5" />
  </g>
  <g
   id="bullet-char-template-10132"
   transform="scale(0.00048828125,-0.00048828125)">
   <path
   d="M 2015,739 L 1276,0 717,0 1260,543 174,543 174,936 1260,936 717,1481 1274,1481 2015,739 Z"
   id="path6" />
  </g>
  <g
   id="bullet-char-template-10007"
   transform="scale(0.00048828125,-0.00048828125)">
   <path
   d="M 0,-2 C -7,14 -16,27 -25,37 L 356,567 C 262,823 215,952 215,954 215,979 228,992 255,992 264,992 276,990 289,987 310,991 331,999 354,1012 L 381,999 492,748 772,1049 836,1024 860,1049 C 881,1039 901,1025 922,1006 886,937 835,863 770,784 769,783 710,716 594,584 L 774,223 C 774,196 753,168 711,139 L 727,119 C 717,90 699,76 672,76 641,76 570,178 457,381 L 164,-76 C 142,-110 111,-127 72,-127 30,-127 9,-110 8,-76 1,-67 -2,-52 -2,-32 -2,-23 -1,-13 0,-2 Z"
   id="path7" />
  </g>
  <g
   id="bullet-char-template-10004"
   transform="scale(0.00048828125,-0.00048828125)">
   <path
   d="M 285,-33 C 182,-33 111,30 74,156 52,228 41,333 41,471 41,549 55,616 82,672 116,743 169,778 240,778 293,778 328,747 346,684 L 369,508 C 377,444 397,411 428,410 L 1163,1116 C 1174,1127 1196,1133 1229,1133 1271,1133 1292,1118 1292,1087 L 1292,965 C 1292,929 1282,901 1262,881 L 442,47 C 390,-6 338,-33 285,-33 Z"
   id="path8" />
  </g>
  <g
   id="bullet-char-template-9679"
   transform="scale(0.00048828125,-0.00048828125)">
   <path
   d="M 813,0 C 632,0 489,54 383,161 276,268 223,411 223,592 223,773 276,916 383,1023 489,1130 632,1184 813,1184 992,1184 1136,1130 1245,1023 1353,916 1407,772 1407,592 1407,412 1353,268 1245,161 1136,54 992,0 813,0 Z"
   id="path9" />
  </g>
  <g
   id="bullet-char-template-8226"
   transform="scale(0.00048828125,-0.00048828125)">
   <path
   d="M 346,457 C 273,457 209,483 155,535 101,586 74,649 74,723 74,796 101,859 155,911 209,963 273,989 346,989 419,989 480,963 531,910 582,859 608,796 608,723 608,648 583,586 532,535 482,483 420,457 346,457 Z"
   id="path10" />
  </g>
  <g
   id="bullet-char-template-8211"
   transform="scale(0.00048828125,-0.00048828125)">
   <path
   d="M -4,459 L 1135,459 1135,606 -4,606 -4,459 Z"
   id="path11" />
  </g>
  <g
   id="bullet-char-template-61548"
   transform="scale(0.00048828125,-0.00048828125)">
   <path
   d="M 173,740 C 173,903 231,1043 346,1159 462,1274 601,1332 765,1332 928,1332 1067,1274 1183,1159 1299,1043 1357,903 1357,740 1357,577 1299,437 1183,322 1067,206 928,148 765,148 601,148 462,206 346,322 231,437 173,577 173,740 Z"
   id="path12" />
  </g>
 </defs>
 
 <path
   id="path13"
   d="M 6817.9817 2023.9591 C 6804.9087 2023.8856 6791.2523 2024.2427 6777.0023 2024.9927 C 6765.7841 2025.6408 6754.666 2026.5527 6743.5677 2027.5248 C 6428.5404 2032.0282 5131.232 2073.6276 4347.0215 2172.0121 C 3590.1374 2267.0841 3069.4576 2363.0626 2563.4611 2460.625 C 2364.1838 2483.4599 2196.0298 2559.1503 2177.0247 2693.9957 C 2154.0247 2843.9957 2176.9823 3089.0086 2278.9823 3203.0086 C 2332.9164 3261.9469 2379.1512 3280.0387 2432.9264 3267.5008 C 2435.9441 3268.5404 2439.0092 3268.8932 2442.0215 3268.0176 C 2514.0206 3250.2817 2613.9372 3224.9562 2719.989 3198.6161 C 2719.947 3240.2799 2722.7011 3284.0707 2728.6706 3327.5488 C 2728.4819 3339.1957 2728.8685 3350.9987 2730.0142 3362.9988 C 2832.0142 4115.9988 2878.9749 5517.0193 2865.9749 6329.0193 C 2853.9749 7139.0193 2703.0089 7388.9823 2605.0089 7993.9823 C 2508.0089 8598.9823 2735.9772 9132.0003 3759.9772 8927.0003 C 4444.5708 8788.2041 5385.7303 8690.5336 5985.2677 8638.6974 C 5979.1327 8662.2317 5973.3015 8685.9554 5968.0078 8710.0109 C 5828.0078 9348.0109 6252.0248 9787.0185 6790.0248 9729.0185 C 7329.0248 9671.0185 7482.9775 9521.0239 7606.9775 9387.0239 C 7607.7799 9386.163 7608.2112 9384.8397 7608.8378 9383.7682 C 7701.6899 9284.893 7764.1412 9152.7439 7793.9945 9068.0252 C 7885.9945 8798.0252 7808.9842 8707.0026 7580.9842 8719.0026 C 7430.9611 8727.5943 7291.432 8764.1764 7207.9838 8830.9854 C 7098.9838 8921.9854 6878.0075 9055.0086 6734.0075 8918.0086 C 6590.0075 8781.0086 6627.9925 8592.013 6768.9925 8465.013 C 6769.0637 8464.943 6769.078 8464.8259 6769.1475 8464.7546 C 6875.4386 8363.8067 6945.5995 8217.41 6976.9901 8124.982 C 7069.9901 7854.982 6991.9798 7765.0111 6763.9798 7776.0111 C 6731.5647 7777.8757 6699.7428 7781.2213 6668.7402 7785.7779 C 6295.6766 7816.4533 5432.0982 7906.5526 4928.0196 7989.0213 C 4385.0196 8077.0213 3707.989 8290.9894 3354.989 8172.9894 C 3092.989 8086.9894 3217.9795 8003.0009 3383.9795 7096.0009 C 3437.9053 6799.572 3464.0663 6308.2314 3474.0515 5764.6093 C 3724.8319 5689.1746 4060.8678 5604.7871 4365.0048 5560.0223 C 4829.0048 5493.0223 5961.0042 5425.0032 6196.0042 5450.0032 C 6201.3986 5450.5334 6206.8428 5450.1244 6212.2823 5449.7448 C 6266.5722 5455.0174 6324.598 5421.9296 6404.9837 5362.9801 C 6538.9837 5265.9801 6626.0222 5088.0214 6662.0222 4982.0214 C 6751.1472 4721.4277 6681.6563 4627.8361 6469.9409 4633.1539 C 6468.9098 4633.1779 6468.0457 4632.9433 6466.9954 4632.9988 C 6464.0851 4633.1637 6458.8411 4633.5539 6455.885 4633.7223 C 6453.5771 4633.8237 6451.3516 4633.8575 6449.012 4633.9807 C 6444.4138 4634.2452 6439.8964 4634.6967 6435.3177 4635.0142 C 5964.5532 4662.1119 4962.6957 4731.3813 4240.9814 4860.9952 C 3805.6878 4938.5782 3633.0767 4967.5175 3477.9272 5002.6403 C 3473.8205 4166.7096 3445.6773 3374.9102 3426.7676 3048.0827 C 3427.1697 3044.6853 3427.5477 3041.257 3427.8528 3037.9541 C 3707.241 2981.5983 4012.4722 2929.5465 4319.0128 2898.0143 C 5085.0128 2819.0143 6333.996 2832.9943 6540.996 2844.9943 C 6544.7665 2845.1339 6548.9318 2844.0122 6553.3467 2842.2038 C 6603.9696 2841.5045 6659.0469 2809.2767 6733.0257 2755.0256 C 6867.0257 2657.0256 6955.0126 2479.9971 6990.0126 2374.9971 C 7077.2001 2120.9346 7014.0767 2025.0614 6817.9817 2023.9591 z " />
   
  
</svg>
