<?xml version="1.0" encoding="UTF-8" standalone="no"?>
<svg
   version="1.2"
   width="100mm"
   height="100mm"
   viewBox="0 0 10000 10000"
   preserveAspectRatio="xMidYMid"
   fill-rule="evenodd"
   stroke-width="28.222"
   stroke-linejoin="round"
   xml:space="preserve"
   id="svg27"
   sodipodi:docname="gobo-caps-0112.svg"
   inkscape:version="1.4 (86a8ad7, 2024-10-11)"
   xmlns:inkscape="http://www.inkscape.org/namespaces/inkscape"
   xmlns:sodipodi="http://sodipodi.sourceforge.net/DTD/sodipodi-0.dtd"
   xmlns="http://www.w3.org/2000/svg"
   xmlns:svg="http://www.w3.org/2000/svg"
   xmlns:ooo="http://xml.openoffice.org/svg/export"><sodipodi:namedview
   id="namedview27"
   pagecolor="#ffffff"
   bordercolor="#000000"
   borderopacity="0.25"
   inkscape:showpageshadow="2"
   inkscape:pageopacity="0.0"
   inkscape:pagecheckerboard="0"
   inkscape:deskcolor="#d1d1d1"
   inkscape:document-units="mm"
   showgrid="false"
   inkscape:zoom="3.0876875"
   inkscape:cx="188.81444"
   inkscape:cy="188.97638"
   inkscape:window-width="2560"
   inkscape:window-height="1369"
   inkscape:window-x="-8"
   inkscape:window-y="-8"
   inkscape:window-maximized="1"
   inkscape:current-layer="svg27" />
 <defs
   class="ClipPathGroup"
   id="defs2">
  
  <clipPath
   id="presentation_clip_path_shrink"
   clipPathUnits="userSpaceOnUse">
   <rect
   x="10"
   y="10"
   width="9980"
   height="9980"
   id="rect2" />
  </clipPath>
 
  
 
   
  
    
   
     
    
      
      
      
      
      
      
      
      
      
      
      
      
     
       
      
       
      
       
      
       
      
       
      
       
      
       
      
       
      
       
      
       
      
       
      
       
      
        
        
       
        
        
       
        
        
       
        
        
       
        
        
       
        
        
       
        
        
       
        
        
       
        
        
       
        
        
       
        
        
       
        
        
       </defs>
 <defs
   class="TextShapeIndex"
   id="defs3">
  <g
   ooo:slide="id1"
   ooo:id-list="id3 id4 id5 id6 id7 id8 id9 id10 id11 id12 id13 id14"
   id="g2" />
 </defs>
 <defs
   class="EmbeddedBulletChars"
   id="defs12">
  <g
   id="bullet-char-template-57356"
   transform="scale(0.00048828125,-0.00048828125)">
   <path
   d="M 580,1141 L 1163,571 580,0 -4,571 580,1141 Z"
   id="path3" />
  </g>
  <g
   id="bullet-char-template-57354"
   transform="scale(0.00048828125,-0.00048828125)">
   <path
   d="M 8,1128 L 1137,1128 1137,0 8,0 8,1128 Z"
   id="path4" />
  </g>
  <g
   id="bullet-char-template-10146"
   transform="scale(0.00048828125,-0.00048828125)">
   <path
   d="M 174,0 L 602,739 174,1481 1456,739 174,0 Z M 1358,739 L 309,1346 659,739 1358,739 Z"
   id="path5" />
  </g>
  <g
   id="bullet-char-template-10132"
   transform="scale(0.00048828125,-0.00048828125)">
   <path
   d="M 2015,739 L 1276,0 717,0 1260,543 174,543 174,936 1260,936 717,1481 1274,1481 2015,739 Z"
   id="path6" />
  </g>
  <g
   id="bullet-char-template-10007"
   transform="scale(0.00048828125,-0.00048828125)">
   <path
   d="M 0,-2 C -7,14 -16,27 -25,37 L 356,567 C 262,823 215,952 215,954 215,979 228,992 255,992 264,992 276,990 289,987 310,991 331,999 354,1012 L 381,999 492,748 772,1049 836,1024 860,1049 C 881,1039 901,1025 922,1006 886,937 835,863 770,784 769,783 710,716 594,584 L 774,223 C 774,196 753,168 711,139 L 727,119 C 717,90 699,76 672,76 641,76 570,178 457,381 L 164,-76 C 142,-110 111,-127 72,-127 30,-127 9,-110 8,-76 1,-67 -2,-52 -2,-32 -2,-23 -1,-13 0,-2 Z"
   id="path7" />
  </g>
  <g
   id="bullet-char-template-10004"
   transform="scale(0.00048828125,-0.00048828125)">
   <path
   d="M 285,-33 C 182,-33 111,30 74,156 52,228 41,333 41,471 41,549 55,616 82,672 116,743 169,778 240,778 293,778 328,747 346,684 L 369,508 C 377,444 397,411 428,410 L 1163,1116 C 1174,1127 1196,1133 1229,1133 1271,1133 1292,1118 1292,1087 L 1292,965 C 1292,929 1282,901 1262,881 L 442,47 C 390,-6 338,-33 285,-33 Z"
   id="path8" />
  </g>
  <g
   id="bullet-char-template-9679"
   transform="scale(0.00048828125,-0.00048828125)">
   <path
   d="M 813,0 C 632,0 489,54 383,161 276,268 223,411 223,592 223,773 276,916 383,1023 489,1130 632,1184 813,1184 992,1184 1136,1130 1245,1023 1353,916 1407,772 1407,592 1407,412 1353,268 1245,161 1136,54 992,0 813,0 Z"
   id="path9" />
  </g>
  <g
   id="bullet-char-template-8226"
   transform="scale(0.00048828125,-0.00048828125)">
   <path
   d="M 346,457 C 273,457 209,483 155,535 101,586 74,649 74,723 74,796 101,859 155,911 209,963 273,989 346,989 419,989 480,963 531,910 582,859 608,796 608,723 608,648 583,586 532,535 482,483 420,457 346,457 Z"
   id="path10" />
  </g>
  <g
   id="bullet-char-template-8211"
   transform="scale(0.00048828125,-0.00048828125)">
   <path
   d="M -4,459 L 1135,459 1135,606 -4,606 -4,459 Z"
   id="path11" />
  </g>
  <g
   id="bullet-char-template-61548"
   transform="scale(0.00048828125,-0.00048828125)">
   <path
   d="M 173,740 C 173,903 231,1043 346,1159 462,1274 601,1332 765,1332 928,1332 1067,1274 1183,1159 1299,1043 1357,903 1357,740 1357,577 1299,437 1183,322 1067,206 928,148 765,148 601,148 462,206 346,322 231,437 173,577 173,740 Z"
   id="path12" />
  </g>
 </defs>
 
 <path
   id="path13"
   d="M 6464.98 672.98217 C 6451.907 672.90869 6438.2506 673.2657 6424.0006 674.0157 C 6376.7726 676.74443 6330.5843 682.50538 6286.6446 691.01725 C 5865.5279 740.42086 5600.6281 749.04423 5150.0215 779.02221 C 4696.7229 810.05718 4427.1711 809.52659 4142.1761 832.61067 C 4138.7796 832.74522 4135.4617 832.84167 4131.9958 833.02408 C 3905.9958 846.02408 3702.9974 923.00943 3681.9974 1073.0094 C 3658.9974 1222.0094 3681.9886 1468.0223 3784.9886 1582.0223 C 3826.3742 1627.7189 3863.5026 1648.8236 3903.0692 1650.1835 C 3907.2075 1652.44 3911.4807 1653.4463 3915.9883 1651.9922 C 3919.4541 1650.8244 3924.1845 1649.6471 3927.9773 1648.4782 C 3939.2435 1646.6526 3950.8671 1643.2995 3962.8589 1638.7113 C 4192.2152 1581.0723 4778.1178 1524.2617 5117.9821 1501.9755 C 5481.9821 1477.9755 6058.0168 1489.9992 6201.0168 1494.9992 C 6206.445 1494.9554 6212.8425 1492.6935 6219.672 1489.4698 C 6265.1069 1482.0402 6315.3444 1451.4286 6380.024 1403.997 C 6514.024 1305.997 6602.0109 1129.0202 6637.0109 1024.0202 C 6724.1984 769.95767 6661.075 674.08447 6464.98 672.98217 z M 7218.9908 2023.9591 C 7205.9178 2023.8856 7192.2614 2024.2427 7178.0114 2024.9927 C 7166.7932 2025.6408 7155.6751 2026.5527 7144.5768 2027.5248 C 6829.5495 2032.0282 5532.1894 2073.6276 4747.9789 2172.0121 C 3991.1195 2267.081 3470.5029 2363.0659 2964.5219 2460.625 C 2765.2115 2483.4493 2596.9896 2559.1333 2577.9822 2693.9957 C 2554.9822 2843.9957 2577.9914 3089.0086 2679.9914 3203.0086 C 2733.929 3261.9507 2780.1559 3280.0434 2833.9355 3267.5008 C 2836.9532 3268.5404 2839.9666 3268.8932 2842.9789 3268.0176 C 2914.98 3250.2812 3014.9426 3224.9571 3120.9981 3198.6161 C 3120.9561 3240.2799 3123.7102 3284.0707 3129.6797 3327.5488 C 3129.491 3339.1957 3129.8776 3350.9987 3131.0233 3362.9988 C 3233.0233 4115.9988 3279.984 5517.0193 3266.984 6329.0193 C 3254.984 7139.0193 3104.018 7388.9823 3006.018 7993.9823 C 2909.018 8598.9823 3136.9863 9132.0003 4160.9863 8927.0003 C 5181.9863 8720.0003 6792.9787 8602.0127 6951.9787 8596.0127 C 6961.1525 8595.6088 6971.0969 8592.1608 6981.4859 8586.5559 C 7021.6431 8574.5327 7066.1847 8546.4993 7121.0123 8505.9924 C 7255.0123 8407.9924 7341.9992 8230.982 7377.9992 8124.982 C 7470.9992 7854.982 7392.989 7765.0111 7164.989 7776.0111 C 7132.5738 7777.8757 7100.7519 7781.2213 7069.7493 7785.7779 C 6696.6858 7816.4533 5833.0556 7906.5526 5328.977 7989.0213 C 4785.977 8077.0213 4108.9981 8290.9894 3755.9981 8172.9894 C 3493.9981 8086.9894 3618.9886 8003.0009 3784.9886 7096.0009 C 3838.9145 6799.572 3865.0754 6308.2314 3875.0606 5764.6093 C 4125.841 5689.1746 4461.8769 5604.7871 4766.014 5560.0223 C 5230.014 5493.0223 6362.0133 5425.0032 6597.0133 5450.0032 C 6602.4077 5450.5334 6607.852 5450.1244 6613.2914 5449.7448 C 6667.5813 5455.0174 6725.6071 5421.9296 6805.9928 5362.9801 C 6939.9928 5265.9801 7026.9797 5088.0214 7062.9797 4982.0214 C 7152.1047 4721.4277 7082.6655 4627.8361 6870.9501 4633.1539 C 6869.919 4633.1779 6869.0549 4632.9433 6868.0045 4632.9988 C 6865.0943 4633.1637 6859.8502 4633.5539 6856.8941 4633.7223 C 6854.5863 4633.8237 6852.3607 4633.8575 6850.0211 4633.9807 C 6845.3941 4634.2468 6840.8307 4634.6943 6836.2235 4635.0142 C 6365.4228 4662.1154 5363.6616 4731.389 4641.9905 4860.9952 C 4206.6969 4938.5782 4034.0858 4967.5175 3878.9363 5002.6403 C 3874.83 4166.7857 3846.635 3375.0722 3827.725 3048.186 C 3828.1324 3044.7517 3828.5536 3041.292 3828.8619 3037.9541 C 4108.2501 2981.5983 4413.4813 2929.5465 4720.0219 2898.0143 C 5486.0219 2819.0143 6735.0052 2832.9943 6942.0052 2844.9943 C 6945.7756 2845.1339 6949.9409 2844.0122 6954.3558 2842.2038 C 7004.9787 2841.5045 7060.0043 2809.2767 7133.9831 2755.0256 C 7267.9831 2657.0256 7356.0217 2479.9971 7391.0217 2374.9971 C 7478.2092 2120.9346 7415.0858 2025.0614 7218.9908 2023.9591 z " />
   
  
</svg>
