<?xml version="1.0" encoding="UTF-8" standalone="no"?>
<svg
   version="1.2"
   width="100mm"
   height="100mm"
   viewBox="0 0 10000 10000"
   preserveAspectRatio="xMidYMid"
   fill-rule="evenodd"
   stroke-width="28.222"
   stroke-linejoin="round"
   xml:space="preserve"
   id="svg21"
   sodipodi:docname="gobo-caps-0106.svg"
   inkscape:version="1.4 (86a8ad7, 2024-10-11)"
   xmlns:inkscape="http://www.inkscape.org/namespaces/inkscape"
   xmlns:sodipodi="http://sodipodi.sourceforge.net/DTD/sodipodi-0.dtd"
   xmlns="http://www.w3.org/2000/svg"
   xmlns:svg="http://www.w3.org/2000/svg"
   xmlns:ooo="http://xml.openoffice.org/svg/export"><sodipodi:namedview
   id="namedview21"
   pagecolor="#ffffff"
   bordercolor="#000000"
   borderopacity="0.25"
   inkscape:showpageshadow="2"
   inkscape:pageopacity="0.0"
   inkscape:pagecheckerboard="0"
   inkscape:deskcolor="#d1d1d1"
   inkscape:document-units="mm"
   showgrid="false"
   inkscape:zoom="3.0876875"
   inkscape:cx="188.81444"
   inkscape:cy="188.97638"
   inkscape:window-width="2560"
   inkscape:window-height="1369"
   inkscape:window-x="-8"
   inkscape:window-y="-8"
   inkscape:window-maximized="1"
   inkscape:current-layer="svg21" />
 <defs
   class="ClipPathGroup"
   id="defs2">
  
  <clipPath
   id="presentation_clip_path_shrink"
   clipPathUnits="userSpaceOnUse">
   <rect
   x="10"
   y="10"
   width="9980"
   height="9980"
   id="rect2" />
  </clipPath>
 
  
 
   
  
    
   
     
    
      
      
      
      
      
      
     
       
      
       
      
       
      
       
      
       
      
       
      
        
        
       
        
        
       
        
        
       
        
        
       
        
        
       
        
        
       </defs>
 <defs
   class="TextShapeIndex"
   id="defs3">
  <g
   ooo:slide="id1"
   ooo:id-list="id3 id4 id5 id6 id7 id8"
   id="g2" />
 </defs>
 <defs
   class="EmbeddedBulletChars"
   id="defs12">
  <g
   id="bullet-char-template-57356"
   transform="scale(0.00048828125,-0.00048828125)">
   <path
   d="M 580,1141 L 1163,571 580,0 -4,571 580,1141 Z"
   id="path3" />
  </g>
  <g
   id="bullet-char-template-57354"
   transform="scale(0.00048828125,-0.00048828125)">
   <path
   d="M 8,1128 L 1137,1128 1137,0 8,0 8,1128 Z"
   id="path4" />
  </g>
  <g
   id="bullet-char-template-10146"
   transform="scale(0.00048828125,-0.00048828125)">
   <path
   d="M 174,0 L 602,739 174,1481 1456,739 174,0 Z M 1358,739 L 309,1346 659,739 1358,739 Z"
   id="path5" />
  </g>
  <g
   id="bullet-char-template-10132"
   transform="scale(0.00048828125,-0.00048828125)">
   <path
   d="M 2015,739 L 1276,0 717,0 1260,543 174,543 174,936 1260,936 717,1481 1274,1481 2015,739 Z"
   id="path6" />
  </g>
  <g
   id="bullet-char-template-10007"
   transform="scale(0.00048828125,-0.00048828125)">
   <path
   d="M 0,-2 C -7,14 -16,27 -25,37 L 356,567 C 262,823 215,952 215,954 215,979 228,992 255,992 264,992 276,990 289,987 310,991 331,999 354,1012 L 381,999 492,748 772,1049 836,1024 860,1049 C 881,1039 901,1025 922,1006 886,937 835,863 770,784 769,783 710,716 594,584 L 774,223 C 774,196 753,168 711,139 L 727,119 C 717,90 699,76 672,76 641,76 570,178 457,381 L 164,-76 C 142,-110 111,-127 72,-127 30,-127 9,-110 8,-76 1,-67 -2,-52 -2,-32 -2,-23 -1,-13 0,-2 Z"
   id="path7" />
  </g>
  <g
   id="bullet-char-template-10004"
   transform="scale(0.00048828125,-0.00048828125)">
   <path
   d="M 285,-33 C 182,-33 111,30 74,156 52,228 41,333 41,471 41,549 55,616 82,672 116,743 169,778 240,778 293,778 328,747 346,684 L 369,508 C 377,444 397,411 428,410 L 1163,1116 C 1174,1127 1196,1133 1229,1133 1271,1133 1292,1118 1292,1087 L 1292,965 C 1292,929 1282,901 1262,881 L 442,47 C 390,-6 338,-33 285,-33 Z"
   id="path8" />
  </g>
  <g
   id="bullet-char-template-9679"
   transform="scale(0.00048828125,-0.00048828125)">
   <path
   d="M 813,0 C 632,0 489,54 383,161 276,268 223,411 223,592 223,773 276,916 383,1023 489,1130 632,1184 813,1184 992,1184 1136,1130 1245,1023 1353,916 1407,772 1407,592 1407,412 1353,268 1245,161 1136,54 992,0 813,0 Z"
   id="path9" />
  </g>
  <g
   id="bullet-char-template-8226"
   transform="scale(0.00048828125,-0.00048828125)">
   <path
   d="M 346,457 C 273,457 209,483 155,535 101,586 74,649 74,723 74,796 101,859 155,911 209,963 273,989 346,989 419,989 480,963 531,910 582,859 608,796 608,723 608,648 583,586 532,535 482,483 420,457 346,457 Z"
   id="path10" />
  </g>
  <g
   id="bullet-char-template-8211"
   transform="scale(0.00048828125,-0.00048828125)">
   <path
   d="M -4,459 L 1135,459 1135,606 -4,606 -4,459 Z"
   id="path11" />
  </g>
  <g
   id="bullet-char-template-61548"
   transform="scale(0.00048828125,-0.00048828125)">
   <path
   d="M 173,740 C 173,903 231,1043 346,1159 462,1274 601,1332 765,1332 928,1332 1067,1274 1183,1159 1299,1043 1357,903 1357,740 1357,577 1299,437 1183,322 1067,206 928,148 765,148 601,148 462,206 346,322 231,437 173,577 173,740 Z"
   id="path12" />
  </g>
 </defs>
 
 <path
   id="path13"
   d="M 6703.8285 387.77994 C 6690.8104 387.76871 6677.1916 388.20768 6663.0041 389.02018 C 6489.7993 398.21689 6329.6477 445.64496 6254.7603 534.79939 C 6249.6498 539.32756 6245.3107 544.70619 6241.9962 551.02579 C 6241.5168 551.95867 6240.8041 553.0603 6240.2909 554.02303 C 6236.4557 559.84081 6232.9924 565.82087 6229.8522 571.95475 C 6133.1954 727.75043 5742.0198 1141.0993 5624.5662 1277.6481 C 5620.1698 1282.4377 5615.8956 1287.5187 5611.6471 1292.6343 C 5608.7572 1296.0908 5603.3396 1302.0828 5601.0017 1304.9849 C 5598.8545 1307.6505 5596.9679 1310.7433 5595.1106 1313.8733 C 5581.3806 1332.6591 5568.3278 1353.1435 5555.9916 1375.9884 C 5473.9916 1526.9884 5487.0153 1737.991 5549.0153 1839.991 C 5604.5789 1931.4022 5722.7484 1905.4311 5830.1867 1842.9366 C 6000.6509 1758.1502 6689.4987 1124.9399 6782.0149 933.01798 C 6782.0826 932.87831 6782.1546 932.74437 6782.2216 932.60457 C 6825.7706 862.17947 6856.7679 790.63625 6874.9808 737.00927 C 6962.1683 482.94677 6899.0995 387.9484 6703.8285 387.77994 z M 5703.3728 2125.6067 C 5608.8609 2123.498 5509.4305 2128.5819 5404.993 2141.9881 C 4291.993 2284.9881 3180.0118 3847.9803 2770.0118 5698.9803 C 2360.0118 7550.9803 3441.0088 9054.9968 4977.0088 8855.9968 C 6513.0088 8656.9968 6919.0218 8030.9782 7092.0218 7848.9782 C 7092.8721 7848.0657 7093.1295 7846.6264 7093.9339 7845.6709 C 7186.9224 7746.5711 7249.0259 7615.3078 7278.0053 7529.9796 C 7371.0053 7259.9796 7292.9951 7170.0087 7064.9951 7181.0087 C 6907.0918 7190.0916 6760.5302 7230.9582 6678.9721 7305.5489 C 6675.9838 7308.0325 6672.885 7310.1327 6669.9804 7312.9903 C 6345.9804 7628.9903 5625.0136 8224.0088 4729.0136 8152.0088 C 3833.0136 8080.0088 3208.0139 7122.0216 3328.0139 5953.0216 C 3448.0139 4784.0216 4029.989 3790.9975 4624.989 3214.9975 C 5220.989 2638.9975 6248.017 2828.0052 6537.017 3767.0052 C 6544.1099 3790.2122 6553.8577 3808.2055 6565.4907 3822.3506 C 6579.986 3853.9467 6597.3574 3882.1409 6617.9939 3904.9813 C 6713.9939 4010.9813 6787.0245 3985.016 6921.0245 3886.016 C 7055.0245 3788.016 7142.0114 3611.0057 7178.0114 3505.0057 C 7217.1377 3391.4133 7225.8637 3309.7688 7206.02 3254.0132 C 7205.3377 3251.8867 7204.3426 3249.4884 7203.6429 3247.347 C 7203.6131 3247.2746 7203.5695 3247.2125 7203.5396 3247.1403 C 7068.4917 2834.0178 6612.1234 2145.8817 5703.3728 2125.6067 z " />
   
  
</svg>
