<?xml version="1.0" encoding="UTF-8" standalone="no"?>
<svg
   version="1.2"
   width="100mm"
   height="100mm"
   viewBox="0 0 10000 10000"
   preserveAspectRatio="xMidYMid"
   fill-rule="evenodd"
   stroke-width="28.222"
   stroke-linejoin="round"
   xml:space="preserve"
   id="svg25"
   sodipodi:docname="gobo-caps-0177.svg"
   inkscape:version="1.4 (86a8ad7, 2024-10-11)"
   xmlns:inkscape="http://www.inkscape.org/namespaces/inkscape"
   xmlns:sodipodi="http://sodipodi.sourceforge.net/DTD/sodipodi-0.dtd"
   xmlns="http://www.w3.org/2000/svg"
   xmlns:svg="http://www.w3.org/2000/svg"
   xmlns:ooo="http://xml.openoffice.org/svg/export"><sodipodi:namedview
   id="namedview25"
   pagecolor="#ffffff"
   bordercolor="#000000"
   borderopacity="0.25"
   inkscape:showpageshadow="2"
   inkscape:pageopacity="0.0"
   inkscape:pagecheckerboard="0"
   inkscape:deskcolor="#d1d1d1"
   inkscape:document-units="mm"
   showgrid="false"
   inkscape:zoom="3.0876875"
   inkscape:cx="188.81444"
   inkscape:cy="188.97638"
   inkscape:window-width="2560"
   inkscape:window-height="1369"
   inkscape:window-x="-8"
   inkscape:window-y="-8"
   inkscape:window-maximized="1"
   inkscape:current-layer="svg25" />
 <defs
   class="ClipPathGroup"
   id="defs2">
  
  <clipPath
   id="presentation_clip_path_shrink"
   clipPathUnits="userSpaceOnUse">
   <rect
   x="10"
   y="10"
   width="9980"
   height="9980"
   id="rect2" />
  </clipPath>
 
  
 
   
  
    
   
     
    
      
      
      
      
      
      
      
      
      
      
     
       
      
       
      
       
      
       
      
       
      
       
      
       
      
       
      
       
      
       
      
        
        
       
        
        
       
        
        
       
        
        
       
        
        
       
        
        
       
        
        
       
        
        
       
        
        
       
        
        
       </defs>
 <defs
   class="TextShapeIndex"
   id="defs3">
  <g
   ooo:slide="id1"
   ooo:id-list="id3 id4 id5 id6 id7 id8 id9 id10 id11 id12"
   id="g2" />
 </defs>
 <defs
   class="EmbeddedBulletChars"
   id="defs12">
  <g
   id="bullet-char-template-57356"
   transform="scale(0.00048828125,-0.00048828125)">
   <path
   d="M 580,1141 L 1163,571 580,0 -4,571 580,1141 Z"
   id="path3" />
  </g>
  <g
   id="bullet-char-template-57354"
   transform="scale(0.00048828125,-0.00048828125)">
   <path
   d="M 8,1128 L 1137,1128 1137,0 8,0 8,1128 Z"
   id="path4" />
  </g>
  <g
   id="bullet-char-template-10146"
   transform="scale(0.00048828125,-0.00048828125)">
   <path
   d="M 174,0 L 602,739 174,1481 1456,739 174,0 Z M 1358,739 L 309,1346 659,739 1358,739 Z"
   id="path5" />
  </g>
  <g
   id="bullet-char-template-10132"
   transform="scale(0.00048828125,-0.00048828125)">
   <path
   d="M 2015,739 L 1276,0 717,0 1260,543 174,543 174,936 1260,936 717,1481 1274,1481 2015,739 Z"
   id="path6" />
  </g>
  <g
   id="bullet-char-template-10007"
   transform="scale(0.00048828125,-0.00048828125)">
   <path
   d="M 0,-2 C -7,14 -16,27 -25,37 L 356,567 C 262,823 215,952 215,954 215,979 228,992 255,992 264,992 276,990 289,987 310,991 331,999 354,1012 L 381,999 492,748 772,1049 836,1024 860,1049 C 881,1039 901,1025 922,1006 886,937 835,863 770,784 769,783 710,716 594,584 L 774,223 C 774,196 753,168 711,139 L 727,119 C 717,90 699,76 672,76 641,76 570,178 457,381 L 164,-76 C 142,-110 111,-127 72,-127 30,-127 9,-110 8,-76 1,-67 -2,-52 -2,-32 -2,-23 -1,-13 0,-2 Z"
   id="path7" />
  </g>
  <g
   id="bullet-char-template-10004"
   transform="scale(0.00048828125,-0.00048828125)">
   <path
   d="M 285,-33 C 182,-33 111,30 74,156 52,228 41,333 41,471 41,549 55,616 82,672 116,743 169,778 240,778 293,778 328,747 346,684 L 369,508 C 377,444 397,411 428,410 L 1163,1116 C 1174,1127 1196,1133 1229,1133 1271,1133 1292,1118 1292,1087 L 1292,965 C 1292,929 1282,901 1262,881 L 442,47 C 390,-6 338,-33 285,-33 Z"
   id="path8" />
  </g>
  <g
   id="bullet-char-template-9679"
   transform="scale(0.00048828125,-0.00048828125)">
   <path
   d="M 813,0 C 632,0 489,54 383,161 276,268 223,411 223,592 223,773 276,916 383,1023 489,1130 632,1184 813,1184 992,1184 1136,1130 1245,1023 1353,916 1407,772 1407,592 1407,412 1353,268 1245,161 1136,54 992,0 813,0 Z"
   id="path9" />
  </g>
  <g
   id="bullet-char-template-8226"
   transform="scale(0.00048828125,-0.00048828125)">
   <path
   d="M 346,457 C 273,457 209,483 155,535 101,586 74,649 74,723 74,796 101,859 155,911 209,963 273,989 346,989 419,989 480,963 531,910 582,859 608,796 608,723 608,648 583,586 532,535 482,483 420,457 346,457 Z"
   id="path10" />
  </g>
  <g
   id="bullet-char-template-8211"
   transform="scale(0.00048828125,-0.00048828125)">
   <path
   d="M -4,459 L 1135,459 1135,606 -4,606 -4,459 Z"
   id="path11" />
  </g>
  <g
   id="bullet-char-template-61548"
   transform="scale(0.00048828125,-0.00048828125)">
   <path
   d="M 173,740 C 173,903 231,1043 346,1159 462,1274 601,1332 765,1332 928,1332 1067,1274 1183,1159 1299,1043 1357,903 1357,740 1357,577 1299,437 1183,322 1067,206 928,148 765,148 601,148 462,206 346,322 231,437 173,577 173,740 Z"
   id="path12" />
  </g>
 </defs>
 
 <path
   id="path13"
   d="M 5030.959 1300.7991 C 5017.8931 1300.7738 5004.2296 1301.1752 4989.9796 1301.9877 C 4816.9484 1311.9408 4656.9257 1359.4506 4581.9425 1448.0253 C 4576.8414 1452.5609 4572.3068 1457.6484 4569.0234 1463.9933 C 4496.7407 1604.6515 4069.9493 1997.4264 3800.3882 2134.9084 C 3714.2376 2168.216 3650.2558 2226.8868 3596.9897 2324.9743 C 3515.9897 2475.9743 3529.0134 2686.9952 3590.0134 2787.9952 C 3623.9212 2842.8935 3680.2042 2855.2567 3742.9756 2843.0306 C 3743.3273 2842.9758 3743.6564 2843.038 3744.0092 2842.9789 C 4142.4651 2779.8635 4548.7792 2471.8862 4815.83 2205.9635 C 5042.5145 2377.0267 5454.9868 2610.1721 5914.9877 2639.9939 C 5917.5346 2640.0125 5920.13 2639.5298 5922.6875 2639.4254 C 5991.013 2649.4267 6077.6895 2613.3205 6153.9912 2562.0141 C 6268.9912 2482.0141 6356.9975 2374.0207 6389.9975 2200.0207 C 6417.5451 2051.0915 6392.3811 1922.257 6272.5887 1897.5586 C 6271.0068 1897.1977 6269.4136 1896.8317 6267.7827 1896.5251 C 6266.612 1896.3156 6265.4053 1896.1467 6264.2171 1895.9566 C 6262.1493 1895.6247 6260.1601 1895.2209 6258.0159 1894.9748 C 5680.058 1828.7893 5344.7311 1502.8107 5216.4774 1370.2523 C 5184.7587 1322.1273 5122.4205 1300.9769 5030.959 1300.7991 z M 6515.9847 3040.9513 C 6502.9117 3040.8781 6489.2552 3041.2348 6475.0052 3041.9848 C 6292.4381 3052.4865 6124.9085 3104.8018 6055.651 3203.577 C 6051.6358 3207.0601 6048.1772 3211.0105 6045.9875 3215.9794 C 5928.9575 3483.4764 5487.1469 4314.9534 5185.0581 4959.1805 C 4997.256 4829.0361 4911.9267 4756.573 4689.9979 4524.9951 C 4366.9979 4187.9951 4030.0001 3607.9752 3978.0001 3369.9752 C 3975.2086 3357.7236 3970.2633 3347.5549 3964.1508 3338.5559 C 3930.3344 3277.0981 3852.262 3255.1932 3733.0021 3262.0231 C 3507.0021 3274.0231 3303.0219 3350.9749 3282.0219 3500.9749 C 3270.2217 3577.4197 3270.6467 3679.3609 3287.6546 3775.9452 C 3287.6278 3793.1392 3289.4268 3810.2121 3294.0108 3827.0015 C 3377.0108 4129.0015 3666.0216 4579.0064 4048.0216 5017.0064 C 4344.3949 5358.4969 4603.7609 5543.8866 4857.3779 5725.1802 C 4592.0218 6390.9438 4286.9019 7220.9379 4146.0001 7515.9753 C 4143.2758 7521.7267 4142.6222 7528.1075 4143.0546 7534.7338 C 4142.2868 7538.453 4141.5214 7542.1859 4140.9875 7545.9993 C 4118.9875 7694.9993 4141.9786 7941.0121 4243.9786 8055.0121 C 4339.9786 8161.0121 4412.9911 8134.9952 4547.9911 8035.9952 C 4653.5045 7958.8287 4729.1121 7832.7955 4774.1272 7730.8976 C 4778.5943 7724.4746 4782.6471 7717.6355 4786.0127 7710.0203 C 4885.0127 7486.0203 5097.0183 6586.0148 5415.0183 5811.0148 C 5734.0183 5037.0148 6431.9884 3902.0088 6623.9884 3539.0088 C 6625.3165 3536.4531 6625.9739 3533.701 6626.7789 3530.9989 C 6654.1292 3479.6942 6674.6075 3430.4866 6688.0155 3391.0075 C 6775.203 3137.8825 6712.0796 3042.0499 6515.9847 3040.9513 z " />
   
  
</svg>
