<?xml version="1.0" encoding="UTF-8" standalone="no"?>
<svg
   version="1.2"
   width="100mm"
   height="100mm"
   viewBox="0 0 10000 10000"
   preserveAspectRatio="xMidYMid"
   fill-rule="evenodd"
   stroke-width="28.222"
   stroke-linejoin="round"
   xml:space="preserve"
   id="svg29"
   sodipodi:docname="gobo-caps-0175.svg"
   inkscape:version="1.4 (86a8ad7, 2024-10-11)"
   xmlns:inkscape="http://www.inkscape.org/namespaces/inkscape"
   xmlns:sodipodi="http://sodipodi.sourceforge.net/DTD/sodipodi-0.dtd"
   xmlns="http://www.w3.org/2000/svg"
   xmlns:svg="http://www.w3.org/2000/svg"
   xmlns:ooo="http://xml.openoffice.org/svg/export"><sodipodi:namedview
   id="namedview29"
   pagecolor="#ffffff"
   bordercolor="#000000"
   borderopacity="0.25"
   inkscape:showpageshadow="2"
   inkscape:pageopacity="0.0"
   inkscape:pagecheckerboard="0"
   inkscape:deskcolor="#d1d1d1"
   inkscape:document-units="mm"
   showgrid="false"
   inkscape:zoom="3.0876875"
   inkscape:cx="188.81444"
   inkscape:cy="188.97638"
   inkscape:window-width="2560"
   inkscape:window-height="1369"
   inkscape:window-x="-8"
   inkscape:window-y="-8"
   inkscape:window-maximized="1"
   inkscape:current-layer="svg29" />
 <defs
   class="ClipPathGroup"
   id="defs2">
  
  <clipPath
   id="presentation_clip_path_shrink"
   clipPathUnits="userSpaceOnUse">
   <rect
   x="10"
   y="10"
   width="9980"
   height="9980"
   id="rect2" />
  </clipPath>
 
  
 
   
  
    
   
     
    
      
      
      
      
      
      
      
      
      
      
      
      
      
      
     
       
      
       
      
       
      
       
      
       
      
       
      
       
      
       
      
       
      
       
      
       
      
       
      
       
      
       
      
        
        
       
        
        
       
        
        
       
        
        
       
        
        
       
        
        
       
        
        
       
        
        
       
        
        
       
        
        
       
        
        
       
        
        
       
        
        
       
        
        
       </defs>
 <defs
   class="TextShapeIndex"
   id="defs3">
  <g
   ooo:slide="id1"
   ooo:id-list="id3 id4 id5 id6 id7 id8 id9 id10 id11 id12 id13 id14 id15 id16"
   id="g2" />
 </defs>
 <defs
   class="EmbeddedBulletChars"
   id="defs12">
  <g
   id="bullet-char-template-57356"
   transform="scale(0.00048828125,-0.00048828125)">
   <path
   d="M 580,1141 L 1163,571 580,0 -4,571 580,1141 Z"
   id="path3" />
  </g>
  <g
   id="bullet-char-template-57354"
   transform="scale(0.00048828125,-0.00048828125)">
   <path
   d="M 8,1128 L 1137,1128 1137,0 8,0 8,1128 Z"
   id="path4" />
  </g>
  <g
   id="bullet-char-template-10146"
   transform="scale(0.00048828125,-0.00048828125)">
   <path
   d="M 174,0 L 602,739 174,1481 1456,739 174,0 Z M 1358,739 L 309,1346 659,739 1358,739 Z"
   id="path5" />
  </g>
  <g
   id="bullet-char-template-10132"
   transform="scale(0.00048828125,-0.00048828125)">
   <path
   d="M 2015,739 L 1276,0 717,0 1260,543 174,543 174,936 1260,936 717,1481 1274,1481 2015,739 Z"
   id="path6" />
  </g>
  <g
   id="bullet-char-template-10007"
   transform="scale(0.00048828125,-0.00048828125)">
   <path
   d="M 0,-2 C -7,14 -16,27 -25,37 L 356,567 C 262,823 215,952 215,954 215,979 228,992 255,992 264,992 276,990 289,987 310,991 331,999 354,1012 L 381,999 492,748 772,1049 836,1024 860,1049 C 881,1039 901,1025 922,1006 886,937 835,863 770,784 769,783 710,716 594,584 L 774,223 C 774,196 753,168 711,139 L 727,119 C 717,90 699,76 672,76 641,76 570,178 457,381 L 164,-76 C 142,-110 111,-127 72,-127 30,-127 9,-110 8,-76 1,-67 -2,-52 -2,-32 -2,-23 -1,-13 0,-2 Z"
   id="path7" />
  </g>
  <g
   id="bullet-char-template-10004"
   transform="scale(0.00048828125,-0.00048828125)">
   <path
   d="M 285,-33 C 182,-33 111,30 74,156 52,228 41,333 41,471 41,549 55,616 82,672 116,743 169,778 240,778 293,778 328,747 346,684 L 369,508 C 377,444 397,411 428,410 L 1163,1116 C 1174,1127 1196,1133 1229,1133 1271,1133 1292,1118 1292,1087 L 1292,965 C 1292,929 1282,901 1262,881 L 442,47 C 390,-6 338,-33 285,-33 Z"
   id="path8" />
  </g>
  <g
   id="bullet-char-template-9679"
   transform="scale(0.00048828125,-0.00048828125)">
   <path
   d="M 813,0 C 632,0 489,54 383,161 276,268 223,411 223,592 223,773 276,916 383,1023 489,1130 632,1184 813,1184 992,1184 1136,1130 1245,1023 1353,916 1407,772 1407,592 1407,412 1353,268 1245,161 1136,54 992,0 813,0 Z"
   id="path9" />
  </g>
  <g
   id="bullet-char-template-8226"
   transform="scale(0.00048828125,-0.00048828125)">
   <path
   d="M 346,457 C 273,457 209,483 155,535 101,586 74,649 74,723 74,796 101,859 155,911 209,963 273,989 346,989 419,989 480,963 531,910 582,859 608,796 608,723 608,648 583,586 532,535 482,483 420,457 346,457 Z"
   id="path10" />
  </g>
  <g
   id="bullet-char-template-8211"
   transform="scale(0.00048828125,-0.00048828125)">
   <path
   d="M -4,459 L 1135,459 1135,606 -4,606 -4,459 Z"
   id="path11" />
  </g>
  <g
   id="bullet-char-template-61548"
   transform="scale(0.00048828125,-0.00048828125)">
   <path
   d="M 173,740 C 173,903 231,1043 346,1159 462,1274 601,1332 765,1332 928,1332 1067,1274 1183,1159 1299,1043 1357,903 1357,740 1357,577 1299,437 1183,322 1067,206 928,148 765,148 601,148 462,206 346,322 231,437 173,577 173,740 Z"
   id="path12" />
  </g>
 </defs>
 
 <path
   id="path13"
   d="M 5090.9554 1552.8251 C 5077.8894 1552.7997 5064.226 1553.2012 5049.976 1554.0137 C 4877.0451 1563.961 4717.1323 1611.4206 4642.0939 1699.8962 C 4636.9246 1704.4594 4632.3359 1709.6111 4629.0197 1716.0193 C 4556.7273 1856.6964 4129.8361 2249.5547 3860.2811 2386.9861 C 3774.1848 2420.301 3710.2301 2478.9534 3656.9861 2577.0003 C 3575.9861 2728.0003 3589.0097 2939.0211 3650.0097 3040.0211 C 3683.833 3094.7826 3739.9246 3107.1802 3802.5069 3095.1082 C 3803.0168 3095.0315 3803.4934 3095.0907 3804.0055 3095.0049 C 4202.4851 3031.8857 4608.828 2723.8713 4875.8781 2457.9378 C 5102.5693 2628.9988 5515.0047 2862.1995 5974.9841 2892.0198 C 5977.4966 2892.0382 5980.0576 2891.5527 5982.5805 2891.4514 C 6050.9216 2901.5034 6137.648 2865.3202 6213.9876 2813.9884 C 6328.9876 2733.9884 6416.9938 2625.995 6449.9938 2451.995 C 6477.5609 2302.9606 6452.3377 2174.1013 6332.3266 2149.5329 C 6330.8629 2149.2022 6329.3879 2148.887 6327.8824 2148.6027 C 6326.6747 2148.3859 6325.4398 2148.1788 6324.2134 2147.9826 C 6322.1457 2147.6507 6320.1565 2147.2469 6318.0122 2147.0007 C 5740.4834 2080.8643 5405.202 1755.3389 5276.7321 1622.5883 C 5245.0843 1574.2191 5182.6352 1553.0033 5090.9554 1552.8251 z M 7457.6326 2970.9814 C 7444.6695 2970.9082 7431.1399 2971.265 7417.0149 2972.015 C 7203.2716 2984.2558 7009.968 3054.1178 6970.5822 3186.6272 C 6968.186 3190.6868 6966.4042 3194.766 6965.983 3198.9778 C 6965.452 3204.91 6964.6106 3213.4083 6964.071 3219.4417 C 6961.595 3237.7622 6959.7391 3257.3612 6958.645 3277.9911 C 6917.1465 3741.1308 6850.7906 4454.6101 6694.9918 5131.0046 C 6597.3894 5555.337 6461.5404 6019.8472 6297.7034 6459.2439 C 6163.7175 6146.6375 6008.8789 5775.2601 5840.9871 5338.0204 C 5516.9871 4489.0204 5475.9921 4269.998 5293.9921 3587.998 C 5291.0487 3576.8552 5286.6599 3567.6174 5281.6414 3559.2142 C 5248.9691 3494.7587 5170.2213 3471.5468 5048.0122 3477.9789 C 4821.0122 3490.9789 4617.9804 3567.9824 4596.9804 3716.9824 C 4592.4268 3746.6794 4589.8058 3780.2387 4589.1772 3815.6844 C 4540.5595 4258.1688 4509.9551 4844.6899 4368.9839 5479.9755 C 4278.5934 5884.1085 4137.197 6317.3175 3974.8995 6731.8371 C 3867.247 6445.7323 3745.3151 6098.4643 3611.9759 5675.0024 C 3337.9759 4808.0024 3102.975 3729.9758 3033.975 3443.9758 C 3032.3323 3436.8301 3029.2052 3431.0629 3025.3967 3425.8374 C 2993.2094 3360.195 2914.1828 3336.5164 2790.9924 3343.0001 C 2564.9924 3356.0001 2361.0122 3433.0036 2340.0122 3582.0036 C 2327.9201 3664.4493 2329.553 3775.8399 2350.2958 3878.2645 C 2350.489 3889.471 2351.6587 3900.4535 2354.9984 3910.9757 C 2421.9984 4136.9757 2649.0051 4939.9872 2964.0051 6008.9872 C 3281.0051 7077.9872 3507.0082 7666.0008 3633.0082 8030.0008 C 3633.7885 8032.2656 3635.2988 8034.0202 3636.5739 8035.9435 C 3651.9568 8072.595 3670.9103 8105.1856 3693.9864 8130.9765 C 3789.9864 8236.9765 3862.9988 8211.0112 3997.9988 8112.0112 C 4094.2139 8040.927 4165.5446 7930.2104 4211.5258 7834.1471 C 4215.4015 7828.571 4218.9545 7822.5867 4222.0162 7816.0086 C 4525.0162 7110.0086 4686.0094 6606.9978 4883.0094 5791.9978 C 4929.6521 5600.4802 4972.6571 5403.4662 5012.5622 5209.2427 C 5090.2195 5424.5668 5180.3097 5667.8945 5287.0157 5945.0118 C 5660.1765 6918.0285 5822.411 7341.7194 5945.8903 7682.2184 C 5963.7996 7744.7372 5989.8921 7801.0684 6025.9887 7841.02 C 6121.9887 7947.02 6195.0193 7921.0031 6329.0193 7822.0031 C 6447.5027 7734.4669 6529.1544 7586.7906 6571.3818 7480.4736 C 6885.8351 6784.8103 6983.8395 6427.7716 7175.996 5598.0045 C 7373.996 4743.0045 7614.9892 3547.0055 7668.9892 3169.0055 C 7670.0111 3161.8012 7668.7042 3155.2284 7666.0953 3149.0584 C 7671.4537 3023.0506 7599.5332 2971.7832 7457.6326 2970.9814 z " />
   
  
</svg>
