<?xml version="1.0" encoding="UTF-8" standalone="no"?>
<svg
   version="1.2"
   width="100mm"
   height="100mm"
   viewBox="0 0 10000 10000"
   preserveAspectRatio="xMidYMid"
   fill-rule="evenodd"
   stroke-width="28.222"
   stroke-linejoin="round"
   xml:space="preserve"
   id="svg26"
   sodipodi:docname="gobo-caps-011D.svg"
   inkscape:version="1.4 (86a8ad7, 2024-10-11)"
   xmlns:inkscape="http://www.inkscape.org/namespaces/inkscape"
   xmlns:sodipodi="http://sodipodi.sourceforge.net/DTD/sodipodi-0.dtd"
   xmlns="http://www.w3.org/2000/svg"
   xmlns:svg="http://www.w3.org/2000/svg"
   xmlns:ooo="http://xml.openoffice.org/svg/export"><sodipodi:namedview
   id="namedview26"
   pagecolor="#ffffff"
   bordercolor="#000000"
   borderopacity="0.25"
   inkscape:showpageshadow="2"
   inkscape:pageopacity="0.0"
   inkscape:pagecheckerboard="0"
   inkscape:deskcolor="#d1d1d1"
   inkscape:document-units="mm"
   showgrid="false"
   inkscape:zoom="3.0876875"
   inkscape:cx="188.81444"
   inkscape:cy="188.97638"
   inkscape:window-width="2560"
   inkscape:window-height="1369"
   inkscape:window-x="-8"
   inkscape:window-y="-8"
   inkscape:window-maximized="1"
   inkscape:current-layer="svg26" />
 <defs
   class="ClipPathGroup"
   id="defs2">
  
  <clipPath
   id="presentation_clip_path_shrink"
   clipPathUnits="userSpaceOnUse">
   <rect
   x="10"
   y="10"
   width="9980"
   height="9980"
   id="rect2" />
  </clipPath>
 
  
 
   
  
    
   
     
    
      
      
      
      
      
      
      
      
      
      
      
     
       
      
       
      
       
      
       
      
       
      
       
      
       
      
       
      
       
      
       
      
       
      
        
        
       
        
        
       
        
        
       
        
        
       
        
        
       
        
        
       
        
        
       
        
        
       
        
        
       
        
        
       
        
        
       </defs>
 <defs
   class="TextShapeIndex"
   id="defs3">
  <g
   ooo:slide="id1"
   ooo:id-list="id3 id4 id5 id6 id7 id8 id9 id10 id11 id12 id13"
   id="g2" />
 </defs>
 <defs
   class="EmbeddedBulletChars"
   id="defs12">
  <g
   id="bullet-char-template-57356"
   transform="scale(0.00048828125,-0.00048828125)">
   <path
   d="M 580,1141 L 1163,571 580,0 -4,571 580,1141 Z"
   id="path3" />
  </g>
  <g
   id="bullet-char-template-57354"
   transform="scale(0.00048828125,-0.00048828125)">
   <path
   d="M 8,1128 L 1137,1128 1137,0 8,0 8,1128 Z"
   id="path4" />
  </g>
  <g
   id="bullet-char-template-10146"
   transform="scale(0.00048828125,-0.00048828125)">
   <path
   d="M 174,0 L 602,739 174,1481 1456,739 174,0 Z M 1358,739 L 309,1346 659,739 1358,739 Z"
   id="path5" />
  </g>
  <g
   id="bullet-char-template-10132"
   transform="scale(0.00048828125,-0.00048828125)">
   <path
   d="M 2015,739 L 1276,0 717,0 1260,543 174,543 174,936 1260,936 717,1481 1274,1481 2015,739 Z"
   id="path6" />
  </g>
  <g
   id="bullet-char-template-10007"
   transform="scale(0.00048828125,-0.00048828125)">
   <path
   d="M 0,-2 C -7,14 -16,27 -25,37 L 356,567 C 262,823 215,952 215,954 215,979 228,992 255,992 264,992 276,990 289,987 310,991 331,999 354,1012 L 381,999 492,748 772,1049 836,1024 860,1049 C 881,1039 901,1025 922,1006 886,937 835,863 770,784 769,783 710,716 594,584 L 774,223 C 774,196 753,168 711,139 L 727,119 C 717,90 699,76 672,76 641,76 570,178 457,381 L 164,-76 C 142,-110 111,-127 72,-127 30,-127 9,-110 8,-76 1,-67 -2,-52 -2,-32 -2,-23 -1,-13 0,-2 Z"
   id="path7" />
  </g>
  <g
   id="bullet-char-template-10004"
   transform="scale(0.00048828125,-0.00048828125)">
   <path
   d="M 285,-33 C 182,-33 111,30 74,156 52,228 41,333 41,471 41,549 55,616 82,672 116,743 169,778 240,778 293,778 328,747 346,684 L 369,508 C 377,444 397,411 428,410 L 1163,1116 C 1174,1127 1196,1133 1229,1133 1271,1133 1292,1118 1292,1087 L 1292,965 C 1292,929 1282,901 1262,881 L 442,47 C 390,-6 338,-33 285,-33 Z"
   id="path8" />
  </g>
  <g
   id="bullet-char-template-9679"
   transform="scale(0.00048828125,-0.00048828125)">
   <path
   d="M 813,0 C 632,0 489,54 383,161 276,268 223,411 223,592 223,773 276,916 383,1023 489,1130 632,1184 813,1184 992,1184 1136,1130 1245,1023 1353,916 1407,772 1407,592 1407,412 1353,268 1245,161 1136,54 992,0 813,0 Z"
   id="path9" />
  </g>
  <g
   id="bullet-char-template-8226"
   transform="scale(0.00048828125,-0.00048828125)">
   <path
   d="M 346,457 C 273,457 209,483 155,535 101,586 74,649 74,723 74,796 101,859 155,911 209,963 273,989 346,989 419,989 480,963 531,910 582,859 608,796 608,723 608,648 583,586 532,535 482,483 420,457 346,457 Z"
   id="path10" />
  </g>
  <g
   id="bullet-char-template-8211"
   transform="scale(0.00048828125,-0.00048828125)">
   <path
   d="M -4,459 L 1135,459 1135,606 -4,606 -4,459 Z"
   id="path11" />
  </g>
  <g
   id="bullet-char-template-61548"
   transform="scale(0.00048828125,-0.00048828125)">
   <path
   d="M 173,740 C 173,903 231,1043 346,1159 462,1274 601,1332 765,1332 928,1332 1067,1274 1183,1159 1299,1043 1357,903 1357,740 1357,577 1299,437 1183,322 1067,206 928,148 765,148 601,148 462,206 346,322 231,437 173,577 173,740 Z"
   id="path12" />
  </g>
 </defs>
 
 <path
   id="path13"
   d="M 5288.9795 1552.8251 C 5275.9135 1552.7997 5262.25 1553.2012 5248 1554.0137 C 5075.0773 1563.9605 4915.1608 1611.4285 4840.118 1699.8962 C 4834.9413 1704.4624 4830.3118 1709.6042 4826.9922 1716.0193 C 4754.6984 1856.699 4327.8077 2249.5616 4058.2535 2386.9861 C 3972.166 2420.3022 3908.2506 2478.96 3855.0101 2577.0003 C 3774.0101 2728.0003 3786.9821 2939.0211 3847.9821 3040.0211 C 3881.8054 3094.7826 3937.897 3107.1802 4000.4793 3095.1082 C 4000.9908 3095.0313 4001.4643 3095.0909 4001.9779 3095.0049 C 4400.4338 3031.8894 4806.7996 2723.9122 5073.8505 2457.9895 C 5300.5467 2629.0489 5713.0445 2862.2005 6173.0082 2892.0198 C 6175.5257 2892.0382 6178.0766 2891.5532 6180.6046 2891.4514 C 6248.9457 2901.5034 6335.6721 2865.3202 6412.0117 2813.9884 C 6527.0117 2733.9884 6615.0179 2625.995 6648.0179 2451.995 C 6675.585 2302.9606 6650.3618 2174.1013 6530.3507 2149.5329 C 6528.906 2149.2065 6527.4437 2148.8839 6525.9582 2148.6027 C 6524.7041 2148.3772 6523.4083 2148.1858 6522.1341 2147.9826 C 6520.0907 2147.6558 6518.1027 2147.2439 6515.9847 2147.0007 C 5938.2605 2080.842 5603.0244 1755.0965 5474.6529 1622.4333 C 5442.9777 1574.1579 5380.5755 1553.0031 5288.9795 1552.8251 z M 5494.8067 3142.9089 C 5364.5821 3139.3933 5224.5055 3143.9984 5074.0055 3157.9984 C 3869.0055 3269.9984 2975.9826 4449.9938 2782.9826 5646.9938 C 2588.9826 6844.9938 3380.0075 8198.0244 4829.0075 8023.0244 C 6279.0075 7848.0244 6628.9873 7001.0245 6979.9873 6286.0245 C 6980.7762 6284.3962 6981.1373 6282.7465 6981.8477 6281.1153 C 6996.0202 6250.1491 7007.4891 6221.0812 7016.0058 6196.0042 C 7028.1027 6160.8842 7037.2443 6128.8578 7043.601 6099.6276 C 7123.5134 6004.4803 7177.5572 5888.888 7204.0047 5811.0148 C 7292.2462 5554.8296 7226.4292 5459.814 7025.5659 5461.0103 C 7016.4547 5460.6228 7007.0227 5460.5378 6996.9889 5461.0103 C 6549.9889 5483.0103 6379.9936 5480.0165 5945.9936 5529.0165 C 5545.5466 5573.4078 5568.2781 5570.3055 5202.4214 5632.421 C 5186.7569 5634.6653 5171.3992 5637.2992 5156.2744 5640.2242 C 5142.2265 5642.605 5137.1646 5643.4493 5122.0129 5646.0119 C 5120.1082 5646.7738 5118.39 5647.9778 5116.5352 5648.8541 C 4970.7411 5684.3236 4860.1621 5754.2669 4844.9755 5862.0194 C 4821.9755 6012.0194 4846.0184 6257.9806 4948.0184 6370.9806 C 4995.9117 6424.3618 5038.0655 6444.4031 5085.0643 6438.7801 C 5089.9899 6440.658 5094.967 6441.0919 5099.9987 6438.9868 C 5298.9987 6352.9868 5680.0053 6271.9934 6008.0053 6244.9934 C 6109.6082 6236.964 6201.531 6236.2618 6287.0581 6238.8439 C 5919.8603 7116.3041 5362.7579 7297.7714 4738.9872 7294.025 C 4073.9872 7290.025 3340.0047 6613.9892 3394.0047 5763.9892 C 3449.0047 4913.9892 3821.0122 4445.9848 4245.0122 4143.9848 C 4669.0122 3841.9848 5961.9925 3583.0006 6301.9925 4519.0006 C 6303.8944 4524.2346 6306.2678 4528.4738 6308.4004 4533.2116 C 6324.9625 4576.677 6346.214 4615.3456 6372.996 4644.9878 C 6468.996 4750.9878 6542.0084 4725.0225 6677.0084 4626.0225 C 6810.0084 4528.0225 6897.0135 4351.0122 6933.0135 4245.0122 C 6968.0821 4143.2 6978.7775 4066.8806 6966.3964 4011.9515 C 6966.0145 4004.0701 6965.0845 3996.5797 6962.9858 3989.989 C 6834.3608 3590.989 6406.3789 3167.5183 5494.8067 3142.9089 z " />
   
  
</svg>
