<?xml version="1.0" encoding="UTF-8" standalone="no"?>
<svg
   version="1.2"
   width="100mm"
   height="100mm"
   viewBox="0 0 10000 10000"
   preserveAspectRatio="xMidYMid"
   fill-rule="evenodd"
   stroke-width="28.222"
   stroke-linejoin="round"
   xml:space="preserve"
   id="svg26"
   sodipodi:docname="gobo-caps-0119.svg"
   inkscape:version="1.4 (86a8ad7, 2024-10-11)"
   xmlns:inkscape="http://www.inkscape.org/namespaces/inkscape"
   xmlns:sodipodi="http://sodipodi.sourceforge.net/DTD/sodipodi-0.dtd"
   xmlns="http://www.w3.org/2000/svg"
   xmlns:svg="http://www.w3.org/2000/svg"
   xmlns:ooo="http://xml.openoffice.org/svg/export"><sodipodi:namedview
   id="namedview26"
   pagecolor="#ffffff"
   bordercolor="#000000"
   borderopacity="0.25"
   inkscape:showpageshadow="2"
   inkscape:pageopacity="0.0"
   inkscape:pagecheckerboard="0"
   inkscape:deskcolor="#d1d1d1"
   inkscape:document-units="mm"
   showgrid="false"
   inkscape:zoom="3.0876875"
   inkscape:cx="188.81444"
   inkscape:cy="188.97638"
   inkscape:window-width="2560"
   inkscape:window-height="1369"
   inkscape:window-x="-8"
   inkscape:window-y="-8"
   inkscape:window-maximized="1"
   inkscape:current-layer="svg26" />
 <defs
   class="ClipPathGroup"
   id="defs2">
  
  <clipPath
   id="presentation_clip_path_shrink"
   clipPathUnits="userSpaceOnUse">
   <rect
   x="10"
   y="10"
   width="9980"
   height="9980"
   id="rect2" />
  </clipPath>
 
  
 
   
  
    
   
     
    
      
      
      
      
      
      
      
      
      
      
      
     
       
      
       
      
       
      
       
      
       
      
       
      
       
      
       
      
       
      
       
      
       
      
        
        
       
        
        
       
        
        
       
        
        
       
        
        
       
        
        
       
        
        
       
        
        
       
        
        
       
        
        
       
        
        
       </defs>
 <defs
   class="TextShapeIndex"
   id="defs3">
  <g
   ooo:slide="id1"
   ooo:id-list="id3 id4 id5 id6 id7 id8 id9 id10 id11 id12 id13"
   id="g2" />
 </defs>
 <defs
   class="EmbeddedBulletChars"
   id="defs12">
  <g
   id="bullet-char-template-57356"
   transform="scale(0.00048828125,-0.00048828125)">
   <path
   d="M 580,1141 L 1163,571 580,0 -4,571 580,1141 Z"
   id="path3" />
  </g>
  <g
   id="bullet-char-template-57354"
   transform="scale(0.00048828125,-0.00048828125)">
   <path
   d="M 8,1128 L 1137,1128 1137,0 8,0 8,1128 Z"
   id="path4" />
  </g>
  <g
   id="bullet-char-template-10146"
   transform="scale(0.00048828125,-0.00048828125)">
   <path
   d="M 174,0 L 602,739 174,1481 1456,739 174,0 Z M 1358,739 L 309,1346 659,739 1358,739 Z"
   id="path5" />
  </g>
  <g
   id="bullet-char-template-10132"
   transform="scale(0.00048828125,-0.00048828125)">
   <path
   d="M 2015,739 L 1276,0 717,0 1260,543 174,543 174,936 1260,936 717,1481 1274,1481 2015,739 Z"
   id="path6" />
  </g>
  <g
   id="bullet-char-template-10007"
   transform="scale(0.00048828125,-0.00048828125)">
   <path
   d="M 0,-2 C -7,14 -16,27 -25,37 L 356,567 C 262,823 215,952 215,954 215,979 228,992 255,992 264,992 276,990 289,987 310,991 331,999 354,1012 L 381,999 492,748 772,1049 836,1024 860,1049 C 881,1039 901,1025 922,1006 886,937 835,863 770,784 769,783 710,716 594,584 L 774,223 C 774,196 753,168 711,139 L 727,119 C 717,90 699,76 672,76 641,76 570,178 457,381 L 164,-76 C 142,-110 111,-127 72,-127 30,-127 9,-110 8,-76 1,-67 -2,-52 -2,-32 -2,-23 -1,-13 0,-2 Z"
   id="path7" />
  </g>
  <g
   id="bullet-char-template-10004"
   transform="scale(0.00048828125,-0.00048828125)">
   <path
   d="M 285,-33 C 182,-33 111,30 74,156 52,228 41,333 41,471 41,549 55,616 82,672 116,743 169,778 240,778 293,778 328,747 346,684 L 369,508 C 377,444 397,411 428,410 L 1163,1116 C 1174,1127 1196,1133 1229,1133 1271,1133 1292,1118 1292,1087 L 1292,965 C 1292,929 1282,901 1262,881 L 442,47 C 390,-6 338,-33 285,-33 Z"
   id="path8" />
  </g>
  <g
   id="bullet-char-template-9679"
   transform="scale(0.00048828125,-0.00048828125)">
   <path
   d="M 813,0 C 632,0 489,54 383,161 276,268 223,411 223,592 223,773 276,916 383,1023 489,1130 632,1184 813,1184 992,1184 1136,1130 1245,1023 1353,916 1407,772 1407,592 1407,412 1353,268 1245,161 1136,54 992,0 813,0 Z"
   id="path9" />
  </g>
  <g
   id="bullet-char-template-8226"
   transform="scale(0.00048828125,-0.00048828125)">
   <path
   d="M 346,457 C 273,457 209,483 155,535 101,586 74,649 74,723 74,796 101,859 155,911 209,963 273,989 346,989 419,989 480,963 531,910 582,859 608,796 608,723 608,648 583,586 532,535 482,483 420,457 346,457 Z"
   id="path10" />
  </g>
  <g
   id="bullet-char-template-8211"
   transform="scale(0.00048828125,-0.00048828125)">
   <path
   d="M -4,459 L 1135,459 1135,606 -4,606 -4,459 Z"
   id="path11" />
  </g>
  <g
   id="bullet-char-template-61548"
   transform="scale(0.00048828125,-0.00048828125)">
   <path
   d="M 173,740 C 173,903 231,1043 346,1159 462,1274 601,1332 765,1332 928,1332 1067,1274 1183,1159 1299,1043 1357,903 1357,740 1357,577 1299,437 1183,322 1067,206 928,148 765,148 601,148 462,206 346,322 231,437 173,577 173,740 Z"
   id="path12" />
  </g>
 </defs>
 
 <path
   id="path13"
   d="M 6363.7976 3040.7963 C 6350.7795 3040.778 6337.2124 3041.1723 6323.0249 3041.9848 C 6317.6355 3042.271 6312.3157 3042.7615 6306.9535 3043.1217 C 6010.2778 3048.9146 5108.997 3098.1917 4479.0031 3177.9972 C 3876.5087 3251.8455 3491.6932 3314.9736 3023.2263 3403.2031 C 2814.3895 3422.9833 2633.6977 3500.2288 2614.0006 3639.9845 C 2592.0006 3788.9845 2614.9918 4034.9974 2716.9918 4148.9974 C 2768.3553 4205.7113 2813.1587 4224.6049 2864.3729 4214.7815 C 2865.7685 4215.3827 2867.1617 4215.9143 2868.5587 4216.125 C 2869.4471 4220.7881 2870.2271 4225.5023 2871.1942 4230.1294 C 2910.5036 4615.7793 2984.8936 4706.5704 2972.015 5509.9996 C 2961.015 6319.9996 2809.9791 6571.0142 2711.9791 7175.0142 C 2613.9791 7781.0142 2851.9806 8310.0014 3830.9806 8104.0014 C 4435.0838 7977.2448 5094.6296 7903.1034 5548.5502 7863.1376 C 5541.9572 7888.1721 5535.638 7913.3714 5529.9983 7938.9986 C 5389.9983 8576.9986 5814.0153 9016.0061 6352.0153 8958.0061 C 6891.0153 8900.0061 7045.0197 8750.0115 7169.0197 8616.0115 C 7169.8096 8615.1642 7170.2089 8613.859 7170.8284 8612.8076 C 7263.6817 8513.932 7326.1316 8381.7323 7355.9851 8297.0129 C 7447.9851 8027.0129 7370.9748 7935.9903 7142.9748 7947.9903 C 6992.5829 7956.603 6852.7825 7993.3157 6769.4059 8060.4382 C 6660.2323 8151.4266 6439.7795 8283.7883 6295.9981 8146.9962 C 6151.9981 8009.9962 6189.983 7821.0006 6330.983 7694.0006 C 6331.0822 7693.9033 6331.0941 7693.7389 6331.1897 7693.6389 C 6434.8972 7593.2773 6504.0763 7448.5477 6535.9834 7358.0004 C 6627.9834 7088.0004 6551.0249 6996.9778 6323.0249 7008.9778 C 6280.0303 7011.4401 6237.9086 7016.2871 6197.7095 7023.3955 C 5868.2682 7052.8904 5341.418 7117.6778 4937.9931 7178.0114 C 4493.9931 7243.0114 3814.9773 7472.0032 3460.9773 7355.0032 C 3199.9773 7268.0032 3325.0014 7185.0147 3491.0014 6278.0147 C 3509.2066 6177.8305 3524.2516 6075.7816 3537.3551 5973.1237 C 3798.0483 5887.5967 4175.0632 5782.513 4505.9782 5734.0169 C 4968.9782 5667.0169 5579.9785 5665.9886 5812.9785 5689.9886 C 5816.6761 5690.3662 5820.4214 5689.8834 5824.1406 5689.8335 C 5877.8995 5694.1848 5935.5109 5661.2956 6014.9816 5603.0171 C 6148.9816 5506.0171 6236.0202 5328.0068 6272.0202 5222.0068 C 6365.0202 4953.0068 6287.01 4862.0177 6059.01 4874.0177 C 6041.2441 4875.0396 6023.7043 4876.5417 6006.3 4878.3585 C 5534.626 4904.444 4733.5134 4944.6438 4222.998 5057.9858 C 3897.7825 5129.4484 3752.6273 5158.5074 3596.1112 5196.6337 C 3609.6482 4762.6912 3594.7691 4357.7681 3576.6292 4052.6725 C 3863.8926 3991.3676 4177.2432 3932.9309 4450.0126 3903.0175 C 4988.0126 3846.0175 5888.9921 3849.0228 6096.9921 3860.0228 C 6100.5902 3860.1893 6104.5362 3859.3098 6108.7227 3857.6973 C 6156.8242 3853.3036 6209.7343 3821.7766 6278.9965 3770.9843 C 6411.9965 3672.9843 6499.0016 3496.0256 6535.0016 3390.0256 C 6622.1891 3136.9006 6559.0686 3041.0709 6363.7976 3040.7963 z " />
   
  
</svg>
