<?xml version="1.0" encoding="UTF-8" standalone="no"?>
<svg
   version="1.2"
   width="100mm"
   height="100mm"
   viewBox="0 0 10000 10000"
   preserveAspectRatio="xMidYMid"
   fill-rule="evenodd"
   stroke-width="28.222"
   stroke-linejoin="round"
   xml:space="preserve"
   id="svg24"
   sodipodi:docname="gobo-caps-0163.svg"
   inkscape:version="1.4 (86a8ad7, 2024-10-11)"
   xmlns:inkscape="http://www.inkscape.org/namespaces/inkscape"
   xmlns:sodipodi="http://sodipodi.sourceforge.net/DTD/sodipodi-0.dtd"
   xmlns="http://www.w3.org/2000/svg"
   xmlns:svg="http://www.w3.org/2000/svg"
   xmlns:ooo="http://xml.openoffice.org/svg/export"><sodipodi:namedview
   id="namedview24"
   pagecolor="#ffffff"
   bordercolor="#000000"
   borderopacity="0.25"
   inkscape:showpageshadow="2"
   inkscape:pageopacity="0.0"
   inkscape:pagecheckerboard="0"
   inkscape:deskcolor="#d1d1d1"
   inkscape:document-units="mm"
   showgrid="false"
   inkscape:zoom="3.0876875"
   inkscape:cx="188.81444"
   inkscape:cy="188.97638"
   inkscape:window-width="2560"
   inkscape:window-height="1369"
   inkscape:window-x="-8"
   inkscape:window-y="-8"
   inkscape:window-maximized="1"
   inkscape:current-layer="svg24" />
 <defs
   class="ClipPathGroup"
   id="defs2">
  
  <clipPath
   id="presentation_clip_path_shrink"
   clipPathUnits="userSpaceOnUse">
   <rect
   x="10"
   y="10"
   width="9980"
   height="9980"
   id="rect2" />
  </clipPath>
 
  
 
   
  
    
   
     
    
      
      
      
      
      
      
      
      
      
     
       
      
       
      
       
      
       
      
       
      
       
      
       
      
       
      
       
      
        
        
       
        
        
       
        
        
       
        
        
       
        
        
       
        
        
       
        
        
       
        
        
       
        
        
       </defs>
 <defs
   class="TextShapeIndex"
   id="defs3">
  <g
   ooo:slide="id1"
   ooo:id-list="id3 id4 id5 id6 id7 id8 id9 id10 id11"
   id="g2" />
 </defs>
 <defs
   class="EmbeddedBulletChars"
   id="defs12">
  <g
   id="bullet-char-template-57356"
   transform="scale(0.00048828125,-0.00048828125)">
   <path
   d="M 580,1141 L 1163,571 580,0 -4,571 580,1141 Z"
   id="path3" />
  </g>
  <g
   id="bullet-char-template-57354"
   transform="scale(0.00048828125,-0.00048828125)">
   <path
   d="M 8,1128 L 1137,1128 1137,0 8,0 8,1128 Z"
   id="path4" />
  </g>
  <g
   id="bullet-char-template-10146"
   transform="scale(0.00048828125,-0.00048828125)">
   <path
   d="M 174,0 L 602,739 174,1481 1456,739 174,0 Z M 1358,739 L 309,1346 659,739 1358,739 Z"
   id="path5" />
  </g>
  <g
   id="bullet-char-template-10132"
   transform="scale(0.00048828125,-0.00048828125)">
   <path
   d="M 2015,739 L 1276,0 717,0 1260,543 174,543 174,936 1260,936 717,1481 1274,1481 2015,739 Z"
   id="path6" />
  </g>
  <g
   id="bullet-char-template-10007"
   transform="scale(0.00048828125,-0.00048828125)">
   <path
   d="M 0,-2 C -7,14 -16,27 -25,37 L 356,567 C 262,823 215,952 215,954 215,979 228,992 255,992 264,992 276,990 289,987 310,991 331,999 354,1012 L 381,999 492,748 772,1049 836,1024 860,1049 C 881,1039 901,1025 922,1006 886,937 835,863 770,784 769,783 710,716 594,584 L 774,223 C 774,196 753,168 711,139 L 727,119 C 717,90 699,76 672,76 641,76 570,178 457,381 L 164,-76 C 142,-110 111,-127 72,-127 30,-127 9,-110 8,-76 1,-67 -2,-52 -2,-32 -2,-23 -1,-13 0,-2 Z"
   id="path7" />
  </g>
  <g
   id="bullet-char-template-10004"
   transform="scale(0.00048828125,-0.00048828125)">
   <path
   d="M 285,-33 C 182,-33 111,30 74,156 52,228 41,333 41,471 41,549 55,616 82,672 116,743 169,778 240,778 293,778 328,747 346,684 L 369,508 C 377,444 397,411 428,410 L 1163,1116 C 1174,1127 1196,1133 1229,1133 1271,1133 1292,1118 1292,1087 L 1292,965 C 1292,929 1282,901 1262,881 L 442,47 C 390,-6 338,-33 285,-33 Z"
   id="path8" />
  </g>
  <g
   id="bullet-char-template-9679"
   transform="scale(0.00048828125,-0.00048828125)">
   <path
   d="M 813,0 C 632,0 489,54 383,161 276,268 223,411 223,592 223,773 276,916 383,1023 489,1130 632,1184 813,1184 992,1184 1136,1130 1245,1023 1353,916 1407,772 1407,592 1407,412 1353,268 1245,161 1136,54 992,0 813,0 Z"
   id="path9" />
  </g>
  <g
   id="bullet-char-template-8226"
   transform="scale(0.00048828125,-0.00048828125)">
   <path
   d="M 346,457 C 273,457 209,483 155,535 101,586 74,649 74,723 74,796 101,859 155,911 209,963 273,989 346,989 419,989 480,963 531,910 582,859 608,796 608,723 608,648 583,586 532,535 482,483 420,457 346,457 Z"
   id="path10" />
  </g>
  <g
   id="bullet-char-template-8211"
   transform="scale(0.00048828125,-0.00048828125)">
   <path
   d="M -4,459 L 1135,459 1135,606 -4,606 -4,459 Z"
   id="path11" />
  </g>
  <g
   id="bullet-char-template-61548"
   transform="scale(0.00048828125,-0.00048828125)">
   <path
   d="M 173,740 C 173,903 231,1043 346,1159 462,1274 601,1332 765,1332 928,1332 1067,1274 1183,1159 1299,1043 1357,903 1357,740 1357,577 1299,437 1183,322 1067,206 928,148 765,148 601,148 462,206 346,322 231,437 173,577 173,740 Z"
   id="path12" />
  </g>
 </defs>
 
 <path
   id="path13"
   d="M 6649.9816 3041.9848 C 6636.9086 3041.9116 6623.2522 3042.2684 6609.0022 3043.0184 C 6594.6658 3043.843 6580.4282 3044.8803 6566.3175 3046.2223 C 6275.4099 3058.1212 5520.6486 3101.4529 4869.0051 3168.0237 C 4249.5622 3233.2752 3886.5603 3274.6999 3528.6735 3337.0056 C 3488.1058 3341.7308 3448.9749 3348.7282 3412.0914 3357.9862 C 3408.3737 3358.6827 3404.7037 3359.2995 3400.981 3360.0016 C 3396.8178 3360.8097 3392.8404 3362.4783 3388.8371 3364.1874 C 3257.5993 3401.6516 3160.4632 3469.6492 3146.9913 3570.0146 C 3124.9913 3719.0146 3147.9825 3964.9758 3249.9825 4078.9758 C 3289.1078 4122.1767 3324.4165 4143.4311 3361.6552 4146.7753 C 3369.7477 4148.2965 3378.2833 4148.3778 3387.3901 4146.3619 C 3387.6823 4146.327 3387.976 4146.2437 3388.2686 4146.2068 C 3388.8699 4146.0661 3389.4199 4146.1569 3390.0256 4146.0001 C 3390.1382 4145.9703 3390.3777 4145.9267 3390.4907 4145.8968 C 3398.1202 4144.8108 3405.9609 4142.8485 3413.9001 4140.4708 C 3570.1431 4101.9489 3992.7475 4025.5197 4424.8462 3961.9287 C 4424.8223 3971.7527 4424.9683 3981.675 4425.983 3992.0044 C 4512.983 4442.0044 4534.0175 5154.9991 4538.0175 5771.9991 C 4540.9928 6230.9347 4444.0671 6956.0809 4414.2525 7403.3723 C 4200.7289 7420.8869 4015.0146 7498.2167 3995.9834 7639.9987 C 3992.6703 7662.4376 3990.5247 7687.271 3989.3689 7713.3276 C 3973.1188 7927.5814 3853.1158 8491.8611 3772.0695 8763.341 C 3765.4899 8781.4662 3760.0487 8800.0567 3755.5847 8818.8932 C 3753.4711 8826.988 3751.7907 8834.9667 3750.6238 8842.871 C 3727.081 8966.8152 3745.8662 9096.9068 3790.0012 9169.9828 C 3854.0012 9271.9828 3992.9817 9227.9841 4109.9817 9149.9841 C 4174.839 9105.4299 4231.0855 9051.6235 4273.7443 8981.984 C 4375.4022 8824.6716 4502.7697 8452.0511 4591.1926 8120.7962 C 4658.4325 8153.39 4724.5817 8120.1929 4824.9768 8046.0204 C 4958.9768 7948.0204 5046.0153 7771.0101 5082.0153 7665.0101 C 5097.2164 7620.878 5107.744 7581.6336 5113.8997 7546.7744 C 5113.9152 7546.6867 5113.9359 7546.6037 5113.9514 7546.5161 C 5114.0378 7546.0943 5114.0732 7545.6466 5114.1581 7545.2241 C 5115.4167 7537.9657 5116.4937 7530.9088 5117.362 7524.0368 C 5117.8569 7520.3276 5118.6448 7516.7383 5119.0157 7512.9781 C 5155.0157 7146.9781 5171.9951 6635.0153 5159.9951 5717.0153 C 5150.1253 4893.3377 5128.4518 4346.4011 5135.6038 3875.629 C 5675.1521 3832.9547 6282.7025 3850.9996 6380.024 3861.0046 C 6383.6604 3861.3445 6387.6574 3860.5352 6391.9095 3858.9892 C 6440.7454 3855.7325 6494.2298 3823.9347 6565.0256 3772.0178 C 6699.0256 3675.0178 6786.0125 3497.9893 6822.0125 3391.9893 C 6909.2 3138.8643 6846.0766 3043.0835 6649.9816 3041.9848 z " />
   
  
</svg>
