<?xml version="1.0" encoding="UTF-8" standalone="no"?>
<svg
   version="1.2"
   width="100mm"
   height="100mm"
   viewBox="0 0 10000 10000"
   preserveAspectRatio="xMidYMid"
   fill-rule="evenodd"
   stroke-width="28.222"
   stroke-linejoin="round"
   xml:space="preserve"
   id="svg23"
   sodipodi:docname="gobo-caps-0160.svg"
   inkscape:version="1.4 (86a8ad7, 2024-10-11)"
   xmlns:inkscape="http://www.inkscape.org/namespaces/inkscape"
   xmlns:sodipodi="http://sodipodi.sourceforge.net/DTD/sodipodi-0.dtd"
   xmlns="http://www.w3.org/2000/svg"
   xmlns:svg="http://www.w3.org/2000/svg"
   xmlns:ooo="http://xml.openoffice.org/svg/export"><sodipodi:namedview
   id="namedview23"
   pagecolor="#ffffff"
   bordercolor="#000000"
   borderopacity="0.25"
   inkscape:showpageshadow="2"
   inkscape:pageopacity="0.0"
   inkscape:pagecheckerboard="0"
   inkscape:deskcolor="#d1d1d1"
   inkscape:document-units="mm"
   showgrid="false"
   inkscape:zoom="3.0876875"
   inkscape:cx="188.81444"
   inkscape:cy="188.97638"
   inkscape:window-width="2560"
   inkscape:window-height="1369"
   inkscape:window-x="-8"
   inkscape:window-y="-8"
   inkscape:window-maximized="1"
   inkscape:current-layer="svg23" />
 <defs
   class="ClipPathGroup"
   id="defs2">
  
  <clipPath
   id="presentation_clip_path_shrink"
   clipPathUnits="userSpaceOnUse">
   <rect
   x="10"
   y="10"
   width="9980"
   height="9980"
   id="rect2" />
  </clipPath>
 
  
 
   
  
    
   
     
    
      
      
      
      
      
      
      
      
     
       
      
       
      
       
      
       
      
       
      
       
      
       
      
       
      
        
        
       
        
        
       
        
        
       
        
        
       
        
        
       
        
        
       
        
        
       
        
        
       </defs>
 <defs
   class="TextShapeIndex"
   id="defs3">
  <g
   ooo:slide="id1"
   ooo:id-list="id3 id4 id5 id6 id7 id8 id9 id10"
   id="g2" />
 </defs>
 <defs
   class="EmbeddedBulletChars"
   id="defs12">
  <g
   id="bullet-char-template-57356"
   transform="scale(0.00048828125,-0.00048828125)">
   <path
   d="M 580,1141 L 1163,571 580,0 -4,571 580,1141 Z"
   id="path3" />
  </g>
  <g
   id="bullet-char-template-57354"
   transform="scale(0.00048828125,-0.00048828125)">
   <path
   d="M 8,1128 L 1137,1128 1137,0 8,0 8,1128 Z"
   id="path4" />
  </g>
  <g
   id="bullet-char-template-10146"
   transform="scale(0.00048828125,-0.00048828125)">
   <path
   d="M 174,0 L 602,739 174,1481 1456,739 174,0 Z M 1358,739 L 309,1346 659,739 1358,739 Z"
   id="path5" />
  </g>
  <g
   id="bullet-char-template-10132"
   transform="scale(0.00048828125,-0.00048828125)">
   <path
   d="M 2015,739 L 1276,0 717,0 1260,543 174,543 174,936 1260,936 717,1481 1274,1481 2015,739 Z"
   id="path6" />
  </g>
  <g
   id="bullet-char-template-10007"
   transform="scale(0.00048828125,-0.00048828125)">
   <path
   d="M 0,-2 C -7,14 -16,27 -25,37 L 356,567 C 262,823 215,952 215,954 215,979 228,992 255,992 264,992 276,990 289,987 310,991 331,999 354,1012 L 381,999 492,748 772,1049 836,1024 860,1049 C 881,1039 901,1025 922,1006 886,937 835,863 770,784 769,783 710,716 594,584 L 774,223 C 774,196 753,168 711,139 L 727,119 C 717,90 699,76 672,76 641,76 570,178 457,381 L 164,-76 C 142,-110 111,-127 72,-127 30,-127 9,-110 8,-76 1,-67 -2,-52 -2,-32 -2,-23 -1,-13 0,-2 Z"
   id="path7" />
  </g>
  <g
   id="bullet-char-template-10004"
   transform="scale(0.00048828125,-0.00048828125)">
   <path
   d="M 285,-33 C 182,-33 111,30 74,156 52,228 41,333 41,471 41,549 55,616 82,672 116,743 169,778 240,778 293,778 328,747 346,684 L 369,508 C 377,444 397,411 428,410 L 1163,1116 C 1174,1127 1196,1133 1229,1133 1271,1133 1292,1118 1292,1087 L 1292,965 C 1292,929 1282,901 1262,881 L 442,47 C 390,-6 338,-33 285,-33 Z"
   id="path8" />
  </g>
  <g
   id="bullet-char-template-9679"
   transform="scale(0.00048828125,-0.00048828125)">
   <path
   d="M 813,0 C 632,0 489,54 383,161 276,268 223,411 223,592 223,773 276,916 383,1023 489,1130 632,1184 813,1184 992,1184 1136,1130 1245,1023 1353,916 1407,772 1407,592 1407,412 1353,268 1245,161 1136,54 992,0 813,0 Z"
   id="path9" />
  </g>
  <g
   id="bullet-char-template-8226"
   transform="scale(0.00048828125,-0.00048828125)">
   <path
   d="M 346,457 C 273,457 209,483 155,535 101,586 74,649 74,723 74,796 101,859 155,911 209,963 273,989 346,989 419,989 480,963 531,910 582,859 608,796 608,723 608,648 583,586 532,535 482,483 420,457 346,457 Z"
   id="path10" />
  </g>
  <g
   id="bullet-char-template-8211"
   transform="scale(0.00048828125,-0.00048828125)">
   <path
   d="M -4,459 L 1135,459 1135,606 -4,606 -4,459 Z"
   id="path11" />
  </g>
  <g
   id="bullet-char-template-61548"
   transform="scale(0.00048828125,-0.00048828125)">
   <path
   d="M 173,740 C 173,903 231,1043 346,1159 462,1274 601,1332 765,1332 928,1332 1067,1274 1183,1159 1299,1043 1357,903 1357,740 1357,577 1299,437 1183,322 1067,206 928,148 765,148 601,148 462,206 346,322 231,437 173,577 173,740 Z"
   id="path12" />
  </g>
 </defs>
 
 <path
   id="path13"
   d="M 6320.0793 200.14282 C 6314.843 200.27188 6309.5079 200.58382 6304.0079 201.02132 C 6263.1621 204.5224 6226.0923 210.44116 6192.0251 219.2631 C 5805.5794 301.04653 5376.9477 600.55267 5088.2682 859.32739 C 4787.1488 675.6482 4318.237 454.64485 3906.9966 427.98421 C 3904.4349 427.96551 3901.8634 428.44628 3899.2968 428.55265 C 3887.8798 427.92253 3875.8598 427.99639 3863.02 429.01774 C 3688.02 444.01774 3579.9777 501.98339 3497.9777 652.98339 C 3416.9777 803.98339 3429.9832 1014.0042 3491.9832 1116.0042 C 3516.6939 1156.6573 3553.9835 1174.0723 3597.1447 1175.4321 C 3598.1429 1175.5637 3598.9727 1175.8883 3599.987 1176.0006 C 4218.987 1248.0006 4764.0051 1706.995 4869.0051 1816.995 C 4873.5687 1821.7759 4878.9649 1824.9413 4885.0248 1826.7102 C 4963.5242 1887.2377 5033.673 1856.1984 5148.988 1771.003 C 5175.3029 1751.7578 5199.709 1729.3697 5222.3685 1705.1672 C 5231.0831 1700.5938 5238.7553 1694.3453 5245.0028 1685.9953 C 5349.0028 1544.9953 5915.9817 1036.9884 6182.9817 908.98844 C 6193.3495 904.09577 6203.1662 898.25877 6212.6957 891.98689 C 6225.6695 884.45861 6238.4932 876.48367 6250.9879 868.00903 C 6366.9879 788.00903 6454.976 681.01562 6487.976 506.01562 C 6518.976 338.42187 6482.4055 196.142 6320.0793 200.14282 z M 5272.2363 2154.7005 C 5208.9497 2154.0823 5144.1721 2156.4244 5077.9846 2161.9869 C 4019.9846 2251.9869 3082.0254 3098.011 2886.0254 4265.011 C 2690.0254 5432.011 3745.0071 6043.0149 4624.0071 6147.0149 C 5503.0071 6252.0149 6280.9886 6144.9759 6492.9886 6954.9759 C 6705.9886 7764.9759 5745.0129 8094.0042 5122.0129 8101.0042 C 4500.0129 8107.0042 3875.998 7951.9835 3587.998 7338.9835 C 3584.9203 7332.791 3580.9759 7328.1704 3576.5775 7324.3074 C 3538.0148 7276.4945 3464.2203 7259.3399 3357.0044 7264.9829 C 3131.0044 7276.9829 2927.0241 7354.9864 2906.0241 7503.9864 C 2884.0241 7653.9864 2907.0153 7899.9992 3009.0153 8012.9992 C 3009.9406 8014.0104 3010.8333 8014.8025 3011.7541 8015.7897 C 3612.3539 8775.6634 4447.7404 8933.5856 5330.9924 8801.995 C 6216.9924 8670.995 7158.9929 7983.0061 7141.9929 6885.0061 C 7123.9929 5787.0061 6388.9924 5391.0183 5330.9924 5415.0183 C 4271.9924 5439.0183 3026.0113 4742.0113 3667.0113 3667.0113 C 4309.0113 2593.0113 6120.9925 2620.9864 6301.9925 3693.9864 C 6303.0844 3702.2774 6305.0993 3709.5426 6307.677 3716.1039 C 6325.0595 3794.081 6353.9508 3865.8823 6397.0255 3914.0246 C 6494.0255 4020.0246 6565.9863 3994.0077 6700.9863 3895.0077 C 6834.9863 3797.0077 6923.0248 3619.9792 6958.0248 3514.9792 C 6995.6026 3405.4784 7005.2328 3325.4242 6988.3589 3269.6195 C 6988.2146 3265.2731 6988.0174 3260.9455 6987.0153 3257.0105 C 6839.8278 2837.948 6221.5356 2163.973 5272.2363 2154.7005 z " />
   
  
</svg>
