<?xml version="1.0" encoding="UTF-8" standalone="no"?>
<svg
   version="1.2"
   width="100mm"
   height="100mm"
   viewBox="0 0 10000 10000"
   preserveAspectRatio="xMidYMid"
   fill-rule="evenodd"
   stroke-width="28.222"
   stroke-linejoin="round"
   xml:space="preserve"
   id="svg23"
   sodipodi:docname="gobo-caps-015D.svg"
   inkscape:version="1.4 (86a8ad7, 2024-10-11)"
   xmlns:inkscape="http://www.inkscape.org/namespaces/inkscape"
   xmlns:sodipodi="http://sodipodi.sourceforge.net/DTD/sodipodi-0.dtd"
   xmlns="http://www.w3.org/2000/svg"
   xmlns:svg="http://www.w3.org/2000/svg"
   xmlns:ooo="http://xml.openoffice.org/svg/export"><sodipodi:namedview
   id="namedview23"
   pagecolor="#ffffff"
   bordercolor="#000000"
   borderopacity="0.25"
   inkscape:showpageshadow="2"
   inkscape:pageopacity="0.0"
   inkscape:pagecheckerboard="0"
   inkscape:deskcolor="#d1d1d1"
   inkscape:document-units="mm"
   showgrid="false"
   inkscape:zoom="3.0876875"
   inkscape:cx="188.81444"
   inkscape:cy="188.97638"
   inkscape:window-width="2560"
   inkscape:window-height="1369"
   inkscape:window-x="-8"
   inkscape:window-y="-8"
   inkscape:window-maximized="1"
   inkscape:current-layer="svg23" />
 <defs
   class="ClipPathGroup"
   id="defs2">
  
  <clipPath
   id="presentation_clip_path_shrink"
   clipPathUnits="userSpaceOnUse">
   <rect
   x="10"
   y="10"
   width="9980"
   height="9980"
   id="rect2" />
  </clipPath>
 
  
 
   
  
    
   
     
    
      
      
      
      
      
      
      
      
     
       
      
       
      
       
      
       
      
       
      
       
      
       
      
       
      
        
        
       
        
        
       
        
        
       
        
        
       
        
        
       
        
        
       
        
        
       
        
        
       </defs>
 <defs
   class="TextShapeIndex"
   id="defs3">
  <g
   ooo:slide="id1"
   ooo:id-list="id3 id4 id5 id6 id7 id8 id9 id10"
   id="g2" />
 </defs>
 <defs
   class="EmbeddedBulletChars"
   id="defs12">
  <g
   id="bullet-char-template-57356"
   transform="scale(0.00048828125,-0.00048828125)">
   <path
   d="M 580,1141 L 1163,571 580,0 -4,571 580,1141 Z"
   id="path3" />
  </g>
  <g
   id="bullet-char-template-57354"
   transform="scale(0.00048828125,-0.00048828125)">
   <path
   d="M 8,1128 L 1137,1128 1137,0 8,0 8,1128 Z"
   id="path4" />
  </g>
  <g
   id="bullet-char-template-10146"
   transform="scale(0.00048828125,-0.00048828125)">
   <path
   d="M 174,0 L 602,739 174,1481 1456,739 174,0 Z M 1358,739 L 309,1346 659,739 1358,739 Z"
   id="path5" />
  </g>
  <g
   id="bullet-char-template-10132"
   transform="scale(0.00048828125,-0.00048828125)">
   <path
   d="M 2015,739 L 1276,0 717,0 1260,543 174,543 174,936 1260,936 717,1481 1274,1481 2015,739 Z"
   id="path6" />
  </g>
  <g
   id="bullet-char-template-10007"
   transform="scale(0.00048828125,-0.00048828125)">
   <path
   d="M 0,-2 C -7,14 -16,27 -25,37 L 356,567 C 262,823 215,952 215,954 215,979 228,992 255,992 264,992 276,990 289,987 310,991 331,999 354,1012 L 381,999 492,748 772,1049 836,1024 860,1049 C 881,1039 901,1025 922,1006 886,937 835,863 770,784 769,783 710,716 594,584 L 774,223 C 774,196 753,168 711,139 L 727,119 C 717,90 699,76 672,76 641,76 570,178 457,381 L 164,-76 C 142,-110 111,-127 72,-127 30,-127 9,-110 8,-76 1,-67 -2,-52 -2,-32 -2,-23 -1,-13 0,-2 Z"
   id="path7" />
  </g>
  <g
   id="bullet-char-template-10004"
   transform="scale(0.00048828125,-0.00048828125)">
   <path
   d="M 285,-33 C 182,-33 111,30 74,156 52,228 41,333 41,471 41,549 55,616 82,672 116,743 169,778 240,778 293,778 328,747 346,684 L 369,508 C 377,444 397,411 428,410 L 1163,1116 C 1174,1127 1196,1133 1229,1133 1271,1133 1292,1118 1292,1087 L 1292,965 C 1292,929 1282,901 1262,881 L 442,47 C 390,-6 338,-33 285,-33 Z"
   id="path8" />
  </g>
  <g
   id="bullet-char-template-9679"
   transform="scale(0.00048828125,-0.00048828125)">
   <path
   d="M 813,0 C 632,0 489,54 383,161 276,268 223,411 223,592 223,773 276,916 383,1023 489,1130 632,1184 813,1184 992,1184 1136,1130 1245,1023 1353,916 1407,772 1407,592 1407,412 1353,268 1245,161 1136,54 992,0 813,0 Z"
   id="path9" />
  </g>
  <g
   id="bullet-char-template-8226"
   transform="scale(0.00048828125,-0.00048828125)">
   <path
   d="M 346,457 C 273,457 209,483 155,535 101,586 74,649 74,723 74,796 101,859 155,911 209,963 273,989 346,989 419,989 480,963 531,910 582,859 608,796 608,723 608,648 583,586 532,535 482,483 420,457 346,457 Z"
   id="path10" />
  </g>
  <g
   id="bullet-char-template-8211"
   transform="scale(0.00048828125,-0.00048828125)">
   <path
   d="M -4,459 L 1135,459 1135,606 -4,606 -4,459 Z"
   id="path11" />
  </g>
  <g
   id="bullet-char-template-61548"
   transform="scale(0.00048828125,-0.00048828125)">
   <path
   d="M 173,740 C 173,903 231,1043 346,1159 462,1274 601,1332 765,1332 928,1332 1067,1274 1183,1159 1299,1043 1357,903 1357,740 1357,577 1299,437 1183,322 1067,206 928,148 765,148 601,148 462,206 346,322 231,437 173,577 173,740 Z"
   id="path12" />
  </g>
 </defs>
 
 <path
   id="path13"
   d="M 5191.0009 1552.8251 C 5177.935 1552.7997 5164.2715 1553.2012 5150.0215 1554.0137 C 4977.0907 1563.961 4817.1262 1611.4206 4742.0878 1699.8962 C 4736.9185 1704.4594 4732.3298 1709.6111 4729.0136 1716.0193 C 4656.7176 1856.7035 4229.776 2249.5734 3960.2234 2386.9861 C 3874.1586 2420.3053 3810.2111 2478.9771 3756.98 2577.0003 C 3675.98 2728.0003 3689.0036 2939.0211 3750.0036 3040.0211 C 3783.8269 3094.7826 3839.9185 3107.1802 3902.5008 3095.1082 C 3903.0107 3095.0315 3903.4873 3095.0907 3903.9994 3095.0049 C 4302.479 3031.8857 4708.8219 2723.8713 4975.872 2457.9378 C 5202.5632 2628.9988 5614.9986 2862.1995 6074.978 2892.0198 C 6077.4905 2892.0382 6080.0515 2891.5527 6082.5744 2891.4514 C 6150.9155 2901.5034 6237.6419 2865.3202 6313.9815 2813.9884 C 6428.9815 2733.9884 6516.9877 2625.995 6549.9877 2451.995 C 6577.551 2302.9812 6552.3405 2174.1268 6432.3722 2149.5329 C 6430.8955 2149.1987 6429.3956 2148.8896 6427.8763 2148.6027 C 6426.6686 2148.3859 6425.4337 2148.1788 6424.2073 2147.9826 C 6422.1396 2147.6507 6420.1504 2147.2469 6418.0061 2147.0007 C 5840.3784 2080.853 5505.0945 1755.243 5376.6744 1622.5366 C 5345.0144 1574.2089 5282.6437 1553.0032 5191.0009 1552.8251 z M 5509.4828 3140.3768 C 5463.9601 3138.8865 5416.8052 3139.0594 5367.9927 3140.9969 C 4585.9927 3170.9969 3685.0102 3641.0087 3388.0102 4641.0087 C 3090.0102 5642.0087 3779.0116 6161.0057 4339.0116 6213.0057 C 4899.0116 6265.0057 5614.0065 5983.0087 5988.0065 6546.0087 C 6362.0065 7110.0087 5491.0132 7282.0041 5159.0132 7298.0041 C 4828.0132 7314.0041 4328.9998 7317.0144 4108.9998 6876.0144 C 4108.0703 6874.1776 4106.7469 6872.995 4105.6925 6871.3635 C 4071.5731 6810.2623 3993.3558 6788.1789 3873.9754 6794.9857 C 3647.9754 6807.9857 3444.977 6884.9892 3423.977 7033.9892 C 3400.977 7183.9892 3423.9863 7429.0021 3525.9863 7543.0021 C 3538.5552 7556.7371 3550.7041 7568.2461 3562.6249 7577.6769 C 4000.8572 8037.7568 4680.9722 8129.2866 5335.0232 7990.985 C 6016.0232 7845.985 6704.0183 7446.9862 6685.0183 6532.9862 C 6666.0183 5618.9862 5923.9825 5335.0004 5154.9825 5453.0004 C 4385.9825 5571.0004 3574.9986 5136.9965 4128.9986 4373.9965 C 4665.1879 3636.857 5796.6221 3849.015 5926.8217 4374.6167 C 5941.2505 4476.7923 5973.1029 4576.1559 6028.0041 4636.9779 C 6125.0041 4742.9779 6197.0166 4717.0127 6332.0166 4618.0127 C 6465.0166 4521.0127 6553.0034 4342.9842 6589.0034 4237.9842 C 6624.958 4132.4653 6634.9658 4054.4092 6620.371 3999.0324 C 6620.7415 3992.2787 6620.4614 3985.8494 6618.9758 3980.0154 C 6510.2258 3559.0779 6192.3234 3162.7303 5509.4828 3140.3768 z " />
   
  
</svg>
