<?xml version="1.0" encoding="UTF-8" standalone="no"?>
<svg
   version="1.2"
   width="100mm"
   height="100mm"
   viewBox="0 0 10000 10000"
   preserveAspectRatio="xMidYMid"
   fill-rule="evenodd"
   stroke-width="28.222"
   stroke-linejoin="round"
   xml:space="preserve"
   id="svg24"
   sodipodi:docname="gobo-caps-0167.svg"
   inkscape:version="1.4 (86a8ad7, 2024-10-11)"
   xmlns:inkscape="http://www.inkscape.org/namespaces/inkscape"
   xmlns:sodipodi="http://sodipodi.sourceforge.net/DTD/sodipodi-0.dtd"
   xmlns="http://www.w3.org/2000/svg"
   xmlns:svg="http://www.w3.org/2000/svg"
   xmlns:ooo="http://xml.openoffice.org/svg/export"><sodipodi:namedview
   id="namedview24"
   pagecolor="#ffffff"
   bordercolor="#000000"
   borderopacity="0.25"
   inkscape:showpageshadow="2"
   inkscape:pageopacity="0.0"
   inkscape:pagecheckerboard="0"
   inkscape:deskcolor="#d1d1d1"
   inkscape:document-units="mm"
   showgrid="false"
   inkscape:zoom="3.0876875"
   inkscape:cx="188.81444"
   inkscape:cy="188.97638"
   inkscape:window-width="2560"
   inkscape:window-height="1369"
   inkscape:window-x="-8"
   inkscape:window-y="-8"
   inkscape:window-maximized="1"
   inkscape:current-layer="svg24" />
 <defs
   class="ClipPathGroup"
   id="defs2">
  
  <clipPath
   id="presentation_clip_path_shrink"
   clipPathUnits="userSpaceOnUse">
   <rect
   x="10"
   y="10"
   width="9980"
   height="9980"
   id="rect2" />
  </clipPath>
 
  
 
   
  
    
   
     
    
      
      
      
      
      
      
      
      
      
     
       
      
       
      
       
      
       
      
       
      
       
      
       
      
       
      
       
      
        
        
       
        
        
       
        
        
       
        
        
       
        
        
       
        
        
       
        
        
       
        
        
       
        
        
       </defs>
 <defs
   class="TextShapeIndex"
   id="defs3">
  <g
   ooo:slide="id1"
   ooo:id-list="id3 id4 id5 id6 id7 id8 id9 id10 id11"
   id="g2" />
 </defs>
 <defs
   class="EmbeddedBulletChars"
   id="defs12">
  <g
   id="bullet-char-template-57356"
   transform="scale(0.00048828125,-0.00048828125)">
   <path
   d="M 580,1141 L 1163,571 580,0 -4,571 580,1141 Z"
   id="path3" />
  </g>
  <g
   id="bullet-char-template-57354"
   transform="scale(0.00048828125,-0.00048828125)">
   <path
   d="M 8,1128 L 1137,1128 1137,0 8,0 8,1128 Z"
   id="path4" />
  </g>
  <g
   id="bullet-char-template-10146"
   transform="scale(0.00048828125,-0.00048828125)">
   <path
   d="M 174,0 L 602,739 174,1481 1456,739 174,0 Z M 1358,739 L 309,1346 659,739 1358,739 Z"
   id="path5" />
  </g>
  <g
   id="bullet-char-template-10132"
   transform="scale(0.00048828125,-0.00048828125)">
   <path
   d="M 2015,739 L 1276,0 717,0 1260,543 174,543 174,936 1260,936 717,1481 1274,1481 2015,739 Z"
   id="path6" />
  </g>
  <g
   id="bullet-char-template-10007"
   transform="scale(0.00048828125,-0.00048828125)">
   <path
   d="M 0,-2 C -7,14 -16,27 -25,37 L 356,567 C 262,823 215,952 215,954 215,979 228,992 255,992 264,992 276,990 289,987 310,991 331,999 354,1012 L 381,999 492,748 772,1049 836,1024 860,1049 C 881,1039 901,1025 922,1006 886,937 835,863 770,784 769,783 710,716 594,584 L 774,223 C 774,196 753,168 711,139 L 727,119 C 717,90 699,76 672,76 641,76 570,178 457,381 L 164,-76 C 142,-110 111,-127 72,-127 30,-127 9,-110 8,-76 1,-67 -2,-52 -2,-32 -2,-23 -1,-13 0,-2 Z"
   id="path7" />
  </g>
  <g
   id="bullet-char-template-10004"
   transform="scale(0.00048828125,-0.00048828125)">
   <path
   d="M 285,-33 C 182,-33 111,30 74,156 52,228 41,333 41,471 41,549 55,616 82,672 116,743 169,778 240,778 293,778 328,747 346,684 L 369,508 C 377,444 397,411 428,410 L 1163,1116 C 1174,1127 1196,1133 1229,1133 1271,1133 1292,1118 1292,1087 L 1292,965 C 1292,929 1282,901 1262,881 L 442,47 C 390,-6 338,-33 285,-33 Z"
   id="path8" />
  </g>
  <g
   id="bullet-char-template-9679"
   transform="scale(0.00048828125,-0.00048828125)">
   <path
   d="M 813,0 C 632,0 489,54 383,161 276,268 223,411 223,592 223,773 276,916 383,1023 489,1130 632,1184 813,1184 992,1184 1136,1130 1245,1023 1353,916 1407,772 1407,592 1407,412 1353,268 1245,161 1136,54 992,0 813,0 Z"
   id="path9" />
  </g>
  <g
   id="bullet-char-template-8226"
   transform="scale(0.00048828125,-0.00048828125)">
   <path
   d="M 346,457 C 273,457 209,483 155,535 101,586 74,649 74,723 74,796 101,859 155,911 209,963 273,989 346,989 419,989 480,963 531,910 582,859 608,796 608,723 608,648 583,586 532,535 482,483 420,457 346,457 Z"
   id="path10" />
  </g>
  <g
   id="bullet-char-template-8211"
   transform="scale(0.00048828125,-0.00048828125)">
   <path
   d="M -4,459 L 1135,459 1135,606 -4,606 -4,459 Z"
   id="path11" />
  </g>
  <g
   id="bullet-char-template-61548"
   transform="scale(0.00048828125,-0.00048828125)">
   <path
   d="M 173,740 C 173,903 231,1043 346,1159 462,1274 601,1332 765,1332 928,1332 1067,1274 1183,1159 1299,1043 1357,903 1357,740 1357,577 1299,437 1183,322 1067,206 928,148 765,148 601,148 462,206 346,322 231,437 173,577 173,740 Z"
   id="path12" />
  </g>
 </defs>
 
 <path
   id="path13"
   d="M 6648.9998 3041.9848 C 6635.9268 3041.9116 6622.2704 3042.2684 6608.0204 3043.0184 C 6593.6842 3043.843 6579.4461 3044.8803 6565.3356 3046.2223 C 6274.4363 3058.1205 5519.6747 3101.4521 4868.0232 3168.0237 C 4248.5803 3233.2752 3885.5785 3274.6999 3527.6916 3337.0056 C 3487.0768 3341.7363 3447.8754 3348.7638 3410.9546 3358.0379 C 3407.29 3358.7245 3403.6686 3359.3096 3399.9992 3360.0016 C 3395.8538 3360.8063 3391.8421 3362.4377 3387.8552 3364.1357 C 3256.5857 3401.5961 3159.4835 3469.6332 3146.0095 3570.0146 C 3124.0095 3719.0146 3147.0006 3964.9758 3249.0006 4078.9758 C 3288.0006 4122.0383 3323.2045 4143.3273 3360.3117 4146.7753 C 3368.4945 4148.3607 3377.1335 4148.4025 3386.3566 4146.3619 C 3386.6295 4146.3293 3386.9102 4146.2928 3387.1834 4146.2585 C 3387.806 4146.1134 3388.3647 4146.1625 3388.9921 4146.0001 C 3389.1046 4145.9703 3389.3442 4145.9267 3389.4572 4145.8968 C 3397.0867 4144.8108 3404.9274 4142.8485 3412.8666 4140.4708 C 3569.1096 4101.9489 3991.7657 4025.5197 4423.8643 3961.9287 C 4423.8405 3971.7527 4423.9865 3981.675 4425.0012 3992.0044 C 4472.7468 4238.9645 4500.173 4565.8533 4516.2618 4911.8965 C 4183.1826 4970.9784 4064.5686 5011.249 3798.011 5071.0083 C 3786.4938 5073.6476 3775.7666 5077.2289 3765.5582 5081.3952 C 3646.0454 5120.0058 3559.31 5185.4444 3545.9851 5279.9878 C 3522.9851 5429.9878 3546.9762 5676.0006 3648.9762 5789.0006 C 3694.2756 5839.0187 3734.4896 5859.6238 3778.4773 5857.0585 C 3784.2501 5858.8721 3789.853 5859.2259 3795.0138 5857.0068 C 3802.1778 5854.6188 3810.9824 5851.3658 3818.5783 5848.7386 C 3821.1473 5847.8818 3823.7207 5846.9831 3826.3297 5845.9997 C 3975.5283 5793.9081 4204.3615 5700.9851 4535.5371 5629.9922 C 4536.0538 5677.5016 4536.6821 5725.4291 4536.984 5771.9991 C 4540.967 6386.3674 4365.6684 7479.0248 4412.5472 7741.0778 C 4421.5353 7863.0069 4454.5703 7991.4439 4521.016 8064.9857 C 4617.016 8170.9857 4689.9949 8145.0204 4823.9949 8046.0204 C 4957.9949 7948.0204 5044.9818 7771.0101 5080.9818 7665.0101 C 5096.2202 7620.7697 5106.7691 7581.4388 5112.9178 7546.5161 C 5114.3253 7538.522 5115.4947 7530.7898 5116.4318 7523.2617 C 5116.8841 7519.8085 5117.6372 7516.4754 5117.9821 7512.9781 C 5153.9821 7146.9781 5171.0132 6635.0153 5159.0132 5717.0153 C 5158.2592 5654.0882 5157.0993 5604.467 5156.2227 5544.6744 C 5426.6232 5525.4073 5659.0502 5529.2167 5799.4392 5537.3364 C 5856.6037 5547.8963 5916.7615 5514.5348 6002.0109 5452.0186 C 6136.0109 5355.0186 6222.9978 5177.0083 6258.9978 5071.0083 C 6350.9978 4802.0083 6273.9875 4711.0192 6045.9875 4723.0192 C 6039.6543 4723.3835 6033.4207 4723.9494 6027.1256 4724.4144 C 6010.4396 4723.579 5992.8118 4723.7151 5973.0204 4726.0164 C 5594.679 4768.4098 5484.0495 4770.0197 5143.4069 4815.7267 C 5136.0717 4454.8343 5130.4449 4147.1762 5134.5703 3875.629 C 5674.1314 3832.9495 6281.6659 3850.9993 6378.9904 3861.0046 C 6382.6269 3861.3445 6386.6755 3860.5352 6390.9277 3858.9892 C 6439.7635 3855.7325 6493.1963 3823.9347 6563.9921 3772.0178 C 6697.9921 3675.0178 6784.979 3497.9893 6820.979 3391.9893 C 6908.1665 3138.8643 6845.0948 3043.0835 6648.9998 3041.9848 z " />
   
  
</svg>
