<?xml version="1.0" encoding="UTF-8" standalone="no"?>
<svg
   version="1.2"
   width="100mm"
   height="100mm"
   viewBox="0 0 10000 10000"
   preserveAspectRatio="xMidYMid"
   fill-rule="evenodd"
   stroke-width="28.222"
   stroke-linejoin="round"
   xml:space="preserve"
   id="svg25"
   sodipodi:docname="gobo-caps-0104.svg"
   inkscape:version="1.4 (86a8ad7, 2024-10-11)"
   xmlns:inkscape="http://www.inkscape.org/namespaces/inkscape"
   xmlns:sodipodi="http://sodipodi.sourceforge.net/DTD/sodipodi-0.dtd"
   xmlns="http://www.w3.org/2000/svg"
   xmlns:svg="http://www.w3.org/2000/svg"
   xmlns:ooo="http://xml.openoffice.org/svg/export"><sodipodi:namedview
   id="namedview25"
   pagecolor="#ffffff"
   bordercolor="#000000"
   borderopacity="0.25"
   inkscape:showpageshadow="2"
   inkscape:pageopacity="0.0"
   inkscape:pagecheckerboard="0"
   inkscape:deskcolor="#d1d1d1"
   inkscape:document-units="mm"
   showgrid="false"
   inkscape:zoom="3.0876875"
   inkscape:cx="188.81444"
   inkscape:cy="188.97638"
   inkscape:window-width="2560"
   inkscape:window-height="1369"
   inkscape:window-x="-8"
   inkscape:window-y="-8"
   inkscape:window-maximized="1"
   inkscape:current-layer="svg25" />
 <defs
   class="ClipPathGroup"
   id="defs2">
  
  <clipPath
   id="presentation_clip_path_shrink"
   clipPathUnits="userSpaceOnUse">
   <rect
   x="10"
   y="10"
   width="9980"
   height="9980"
   id="rect2" />
  </clipPath>
 
  
 
   
  
    
   
     
    
      
      
      
      
      
      
      
      
      
      
     
       
      
       
      
       
      
       
      
       
      
       
      
       
      
       
      
       
      
       
      
        
        
       
        
        
       
        
        
       
        
        
       
        
        
       
        
        
       
        
        
       
        
        
       
        
        
       
        
        
       </defs>
 <defs
   class="TextShapeIndex"
   id="defs3">
  <g
   ooo:slide="id1"
   ooo:id-list="id3 id4 id5 id6 id7 id8 id9 id10 id11 id12"
   id="g2" />
 </defs>
 <defs
   class="EmbeddedBulletChars"
   id="defs12">
  <g
   id="bullet-char-template-57356"
   transform="scale(0.00048828125,-0.00048828125)">
   <path
   d="M 580,1141 L 1163,571 580,0 -4,571 580,1141 Z"
   id="path3" />
  </g>
  <g
   id="bullet-char-template-57354"
   transform="scale(0.00048828125,-0.00048828125)">
   <path
   d="M 8,1128 L 1137,1128 1137,0 8,0 8,1128 Z"
   id="path4" />
  </g>
  <g
   id="bullet-char-template-10146"
   transform="scale(0.00048828125,-0.00048828125)">
   <path
   d="M 174,0 L 602,739 174,1481 1456,739 174,0 Z M 1358,739 L 309,1346 659,739 1358,739 Z"
   id="path5" />
  </g>
  <g
   id="bullet-char-template-10132"
   transform="scale(0.00048828125,-0.00048828125)">
   <path
   d="M 2015,739 L 1276,0 717,0 1260,543 174,543 174,936 1260,936 717,1481 1274,1481 2015,739 Z"
   id="path6" />
  </g>
  <g
   id="bullet-char-template-10007"
   transform="scale(0.00048828125,-0.00048828125)">
   <path
   d="M 0,-2 C -7,14 -16,27 -25,37 L 356,567 C 262,823 215,952 215,954 215,979 228,992 255,992 264,992 276,990 289,987 310,991 331,999 354,1012 L 381,999 492,748 772,1049 836,1024 860,1049 C 881,1039 901,1025 922,1006 886,937 835,863 770,784 769,783 710,716 594,584 L 774,223 C 774,196 753,168 711,139 L 727,119 C 717,90 699,76 672,76 641,76 570,178 457,381 L 164,-76 C 142,-110 111,-127 72,-127 30,-127 9,-110 8,-76 1,-67 -2,-52 -2,-32 -2,-23 -1,-13 0,-2 Z"
   id="path7" />
  </g>
  <g
   id="bullet-char-template-10004"
   transform="scale(0.00048828125,-0.00048828125)">
   <path
   d="M 285,-33 C 182,-33 111,30 74,156 52,228 41,333 41,471 41,549 55,616 82,672 116,743 169,778 240,778 293,778 328,747 346,684 L 369,508 C 377,444 397,411 428,410 L 1163,1116 C 1174,1127 1196,1133 1229,1133 1271,1133 1292,1118 1292,1087 L 1292,965 C 1292,929 1282,901 1262,881 L 442,47 C 390,-6 338,-33 285,-33 Z"
   id="path8" />
  </g>
  <g
   id="bullet-char-template-9679"
   transform="scale(0.00048828125,-0.00048828125)">
   <path
   d="M 813,0 C 632,0 489,54 383,161 276,268 223,411 223,592 223,773 276,916 383,1023 489,1130 632,1184 813,1184 992,1184 1136,1130 1245,1023 1353,916 1407,772 1407,592 1407,412 1353,268 1245,161 1136,54 992,0 813,0 Z"
   id="path9" />
  </g>
  <g
   id="bullet-char-template-8226"
   transform="scale(0.00048828125,-0.00048828125)">
   <path
   d="M 346,457 C 273,457 209,483 155,535 101,586 74,649 74,723 74,796 101,859 155,911 209,963 273,989 346,989 419,989 480,963 531,910 582,859 608,796 608,723 608,648 583,586 532,535 482,483 420,457 346,457 Z"
   id="path10" />
  </g>
  <g
   id="bullet-char-template-8211"
   transform="scale(0.00048828125,-0.00048828125)">
   <path
   d="M -4,459 L 1135,459 1135,606 -4,606 -4,459 Z"
   id="path11" />
  </g>
  <g
   id="bullet-char-template-61548"
   transform="scale(0.00048828125,-0.00048828125)">
   <path
   d="M 173,740 C 173,903 231,1043 346,1159 462,1274 601,1332 765,1332 928,1332 1067,1274 1183,1159 1299,1043 1357,903 1357,740 1357,577 1299,437 1183,322 1067,206 928,148 765,148 601,148 462,206 346,322 231,437 173,577 173,740 Z"
   id="path12" />
  </g>
 </defs>
 
 <path
   id="path13"
   d="M 4762.9651 2153.977 C 4749.8991 2153.9038 4736.2356 2154.2606 4721.9856 2155.0106 C 4494.9856 2167.0106 4292.0054 2245.0141 4271.0054 2394.0141 C 4270.8155 2395.309 4270.6718 2396.7357 4270.4887 2398.0448 C 4066.6262 2984.5535 3703.7165 3956.0773 3325.0167 4954.9947 C 2934.2208 5978.6022 2169.8529 8000.6746 1986.5971 8483.5648 C 1978.8638 8499.6562 1973.5561 8516.7816 1970.9908 8534.9828 C 1948.9908 8683.9828 1971.9819 8929.9957 2073.9819 9043.9957 C 2169.9819 9149.9957 2242.9944 9123.9788 2377.9944 9024.9788 C 2483.3923 8947.3172 2560.39 8820.1719 2605.7841 8718.4342 C 2610.8923 8711.3258 2615.528 8703.738 2619.0132 8695.0248 C 2622.1177 8684.4918 2628.1267 8665.9784 2631.5706 8654.5104 C 2632.7009 8651.3507 2633.9381 8648.0445 2634.9813 8645.002 C 2643.5874 8619.9238 2650.7329 8596.401 2656.427 8574.3603 C 2656.5015 8574.0719 2656.6114 8573.7696 2656.6854 8573.4818 C 2732.2239 8328.971 2863.8753 7934.7674 3011.9092 7501.7643 C 3270.9827 7407.3753 3780.0033 7243.6364 4351.9824 7089.0246 C 4962.9824 6905.0246 5567.0152 6783.0143 6016.0152 6708.0143 C 6016.1894 6708.0025 6016.3577 6707.9233 6016.5319 6707.9109 C 6180.4192 7238.351 6323.1631 7732.2853 6423.9489 8058.4228 C 6313.015 8230.1898 6224.1386 8435.1043 6173.99 8662.9854 C 6033.99 9300.9854 6458.007 9739.9929 6996.007 9681.9929 C 7535.007 9623.9929 7689.0114 9473.9983 7813.0114 9339.9983 C 7813.7614 9339.1938 7814.1204 9337.9381 7814.7167 9336.9494 C 7907.6516 9238.0569 7970.1074 9105.764 7999.9767 9020.9997 C 8091.9767 8750.9997 8015.0182 8659.9771 7787.0182 8671.9771 C 7636.995 8680.5687 7497.4659 8717.2025 7414.0177 8784.0116 C 7305.0177 8875.0116 7083.9898 9007.983 6939.9898 8870.983 C 6795.9898 8733.983 6833.9747 8544.9874 6974.9747 8417.9874 C 6976.7141 8416.2797 6977.9424 8414.1546 6978.6437 8411.6312 C 7069.5146 8313.0256 7130.2193 8184.1965 7158.0126 8100.0223 C 7190.5856 8005.4556 7202.114 7932.8744 7193.7211 7879.0022 C 7194.1223 7874.6053 7193.9205 7870.6096 7192.9976 7867.0133 C 7102.9976 7525.0133 6419.0017 5502.9964 6068.0017 4672.9964 C 5725.2856 3858.9231 5124.6899 2529.1783 4961.0408 2248.3899 C 4935.4737 2182.8155 4868.7162 2154.5698 4762.9651 2153.977 z M 4566.5429 3304.9662 C 4796.5763 3744.0595 5136.2344 4392.3152 5438.0143 5068.011 C 5553.1672 5328.6337 5671.225 5649.7872 5785.8483 5988.9884 C 5295.8543 6128.1643 4865.0647 6256.3054 4310.0211 6409.9963 C 3852.3929 6545.3417 3572.1559 6616.6945 3297.7315 6677.7836 C 3478.4748 6169.4764 3656.2806 5688.7398 3781.0095 5387.9915 C 3996.209 4863.2306 4302.4687 3962.7914 4566.5429 3304.9662 z " />
   
  
</svg>
