<?xml version="1.0" encoding="UTF-8" standalone="no"?>
<svg
   version="1.2"
   width="100mm"
   height="100mm"
   viewBox="0 0 10000 10000"
   preserveAspectRatio="xMidYMid"
   fill-rule="evenodd"
   stroke-width="28.222"
   stroke-linejoin="round"
   xml:space="preserve"
   id="svg27"
   sodipodi:docname="gobo-caps-012A.svg"
   inkscape:version="1.4 (86a8ad7, 2024-10-11)"
   xmlns:inkscape="http://www.inkscape.org/namespaces/inkscape"
   xmlns:sodipodi="http://sodipodi.sourceforge.net/DTD/sodipodi-0.dtd"
   xmlns="http://www.w3.org/2000/svg"
   xmlns:svg="http://www.w3.org/2000/svg"
   xmlns:ooo="http://xml.openoffice.org/svg/export"><sodipodi:namedview
   id="namedview27"
   pagecolor="#ffffff"
   bordercolor="#000000"
   borderopacity="0.25"
   inkscape:showpageshadow="2"
   inkscape:pageopacity="0.0"
   inkscape:pagecheckerboard="0"
   inkscape:deskcolor="#d1d1d1"
   inkscape:document-units="mm"
   showgrid="false"
   inkscape:zoom="3.0876875"
   inkscape:cx="188.81444"
   inkscape:cy="188.97638"
   inkscape:window-width="2560"
   inkscape:window-height="1369"
   inkscape:window-x="-8"
   inkscape:window-y="-8"
   inkscape:window-maximized="1"
   inkscape:current-layer="svg27" />
 <defs
   class="ClipPathGroup"
   id="defs2">
  
  <clipPath
   id="presentation_clip_path_shrink"
   clipPathUnits="userSpaceOnUse">
   <rect
   x="10"
   y="10"
   width="9980"
   height="9980"
   id="rect2" />
  </clipPath>
 
  
 
   
  
    
   
     
    
      
      
      
      
      
      
      
      
      
      
      
      
     
       
      
       
      
       
      
       
      
       
      
       
      
       
      
       
      
       
      
       
      
       
      
       
      
        
        
       
        
        
       
        
        
       
        
        
       
        
        
       
        
        
       
        
        
       
        
        
       
        
        
       
        
        
       
        
        
       
        
        
       </defs>
 <defs
   class="TextShapeIndex"
   id="defs3">
  <g
   ooo:slide="id1"
   ooo:id-list="id3 id4 id5 id6 id7 id8 id9 id10 id11 id12 id13 id14"
   id="g2" />
 </defs>
 <defs
   class="EmbeddedBulletChars"
   id="defs12">
  <g
   id="bullet-char-template-57356"
   transform="scale(0.00048828125,-0.00048828125)">
   <path
   d="M 580,1141 L 1163,571 580,0 -4,571 580,1141 Z"
   id="path3" />
  </g>
  <g
   id="bullet-char-template-57354"
   transform="scale(0.00048828125,-0.00048828125)">
   <path
   d="M 8,1128 L 1137,1128 1137,0 8,0 8,1128 Z"
   id="path4" />
  </g>
  <g
   id="bullet-char-template-10146"
   transform="scale(0.00048828125,-0.00048828125)">
   <path
   d="M 174,0 L 602,739 174,1481 1456,739 174,0 Z M 1358,739 L 309,1346 659,739 1358,739 Z"
   id="path5" />
  </g>
  <g
   id="bullet-char-template-10132"
   transform="scale(0.00048828125,-0.00048828125)">
   <path
   d="M 2015,739 L 1276,0 717,0 1260,543 174,543 174,936 1260,936 717,1481 1274,1481 2015,739 Z"
   id="path6" />
  </g>
  <g
   id="bullet-char-template-10007"
   transform="scale(0.00048828125,-0.00048828125)">
   <path
   d="M 0,-2 C -7,14 -16,27 -25,37 L 356,567 C 262,823 215,952 215,954 215,979 228,992 255,992 264,992 276,990 289,987 310,991 331,999 354,1012 L 381,999 492,748 772,1049 836,1024 860,1049 C 881,1039 901,1025 922,1006 886,937 835,863 770,784 769,783 710,716 594,584 L 774,223 C 774,196 753,168 711,139 L 727,119 C 717,90 699,76 672,76 641,76 570,178 457,381 L 164,-76 C 142,-110 111,-127 72,-127 30,-127 9,-110 8,-76 1,-67 -2,-52 -2,-32 -2,-23 -1,-13 0,-2 Z"
   id="path7" />
  </g>
  <g
   id="bullet-char-template-10004"
   transform="scale(0.00048828125,-0.00048828125)">
   <path
   d="M 285,-33 C 182,-33 111,30 74,156 52,228 41,333 41,471 41,549 55,616 82,672 116,743 169,778 240,778 293,778 328,747 346,684 L 369,508 C 377,444 397,411 428,410 L 1163,1116 C 1174,1127 1196,1133 1229,1133 1271,1133 1292,1118 1292,1087 L 1292,965 C 1292,929 1282,901 1262,881 L 442,47 C 390,-6 338,-33 285,-33 Z"
   id="path8" />
  </g>
  <g
   id="bullet-char-template-9679"
   transform="scale(0.00048828125,-0.00048828125)">
   <path
   d="M 813,0 C 632,0 489,54 383,161 276,268 223,411 223,592 223,773 276,916 383,1023 489,1130 632,1184 813,1184 992,1184 1136,1130 1245,1023 1353,916 1407,772 1407,592 1407,412 1353,268 1245,161 1136,54 992,0 813,0 Z"
   id="path9" />
  </g>
  <g
   id="bullet-char-template-8226"
   transform="scale(0.00048828125,-0.00048828125)">
   <path
   d="M 346,457 C 273,457 209,483 155,535 101,586 74,649 74,723 74,796 101,859 155,911 209,963 273,989 346,989 419,989 480,963 531,910 582,859 608,796 608,723 608,648 583,586 532,535 482,483 420,457 346,457 Z"
   id="path10" />
  </g>
  <g
   id="bullet-char-template-8211"
   transform="scale(0.00048828125,-0.00048828125)">
   <path
   d="M -4,459 L 1135,459 1135,606 -4,606 -4,459 Z"
   id="path11" />
  </g>
  <g
   id="bullet-char-template-61548"
   transform="scale(0.00048828125,-0.00048828125)">
   <path
   d="M 173,740 C 173,903 231,1043 346,1159 462,1274 601,1332 765,1332 928,1332 1067,1274 1183,1159 1299,1043 1357,903 1357,740 1357,577 1299,437 1183,322 1067,206 928,148 765,148 601,148 462,206 346,322 231,437 173,577 173,740 Z"
   id="path12" />
  </g>
 </defs>
 
 <path
   id="path13"
   d="M 6238.999 699.95727 C 6235.5473 699.93792 6231.9398 700.02157 6228.4053 700.06062 C 5716.2506 698.81499 4217.6327 833.32403 3781.0095 931.0026 C 3778.0868 931.74916 3775.3582 933.21048 3772.5346 934.30989 C 3624.8809 969.81913 3512.2925 1040.4917 3496.9958 1149.0255 C 3474.9958 1298.0255 3497.987 1543.9866 3599.987 1657.9866 C 3644.7479 1706.4392 3684.1949 1727.1434 3726.9559 1725.7344 C 3727.6576 1725.7291 3728.3138 1726.0524 3729.023 1725.9928 C 3729.6817 1725.847 3730.6833 1725.6739 3731.3484 1725.5277 C 3742.168 1724.7937 3753.3158 1722.4478 3764.7314 1719.0165 C 4213.7286 1629.5546 5736.2817 1490.6991 5979.9967 1517.9952 C 5985.3453 1517.8341 5990.8551 1516.8144 5996.4298 1515.0496 C 6041.1444 1506.857 6090.6105 1476.4694 6153.9912 1429.9902 C 6286.9912 1332.9902 6374.9781 1155.0134 6410.9781 1050.0134 C 6492.3171 811.30126 6441.4632 712.54391 6271.0384 701.14583 C 6269.3216 700.83974 6267.853 700.12036 6266.0257 700.00895 C 6259.1643 699.89339 6249.9252 700.1154 6242.6163 700.06062 C 6241.3909 700.04614 6240.2351 699.9642 6238.999 699.95727 z M 6238.999 2092.9988 C 6236.8269 2092.9867 6234.5376 2093.0395 6232.3327 2093.0505 C 5723.841 2091.1235 4218.716 2226.0716 3781.0095 2323.9925 C 3778.0868 2324.7391 3775.3582 2326.2004 3772.5346 2327.2998 C 3624.8809 2362.809 3512.2925 2433.4816 3496.9958 2542.0154 C 3474.9958 2691.0154 3497.987 2936.9765 3599.987 3050.9765 C 3644.7479 3099.4291 3684.1949 3120.1333 3726.9559 3118.7243 C 3727.6576 3118.719 3728.3138 3119.0423 3729.023 3118.9827 C 3729.6817 3118.8369 3730.6833 3118.6638 3731.3484 3118.5176 C 3742.168 3117.7836 3753.3158 3115.4377 3764.7314 3112.0064 C 3931.181 3078.8416 4242.9175 3039.2216 4585.1464 3003.4342 C 4565.4407 3419.4526 4573.1403 4531.0978 4575.0179 5207.0206 C 4579.453 5844.7935 4615.7975 7430.4961 4633.9807 8054.3404 C 4322.2006 8097.0225 4048.8791 8139.3131 3895.4211 8169.8889 C 3719.9618 8199.2557 3579.2501 8273.6653 3562.0048 8396.0249 C 3540.0048 8545.0249 3562.9959 8790.9861 3664.9959 8904.9861 C 3711.4269 8955.2464 3752.1447 8975.6975 3796.7708 8972.5272 C 3798.5181 8972.6595 3800.2076 8973.162 3801.9901 8972.9923 C 4204.9901 8882.9923 5773.0057 8695.9829 6045.0057 8702.9829 C 6046.9872 8702.8518 6049.1101 8702.0031 6051.1551 8701.536 C 6098.5833 8696.4392 6150.73 8665.0428 6219.0002 8614.978 C 6353.0002 8516.978 6439.9871 8340.0012 6475.9871 8235.0012 C 6568.9871 7964.0012 6490.9768 7873.9785 6262.9768 7885.9785 C 6258.9163 7886.1941 6254.93 7886.5988 6250.8846 7886.857 C 6060.6821 7890.5967 5717.5148 7922.668 5343.2397 7965.5086 C 5327.2635 7538.6196 5232.929 6386.9772 5211.9816 5590.9765 C 5187.0457 4818.8885 5240.4458 3431.0969 5284.2252 2939.5622 C 5613.8381 2914.1782 5888.1795 2900.7016 5979.9967 2910.9851 C 5985.2982 2910.8254 5990.751 2909.8269 5996.2748 2908.0912 C 6041.0293 2899.9397 6090.5385 2869.5121 6153.9912 2822.9801 C 6286.9912 2725.9801 6374.9781 2548.0033 6410.9781 2443.0033 C 6492.2764 2204.4107 6441.5165 2105.6672 6271.2967 2094.1874 C 6269.4979 2093.8553 6267.9466 2093.116 6266.0257 2092.9988 C 6258.6342 2092.8744 6248.7179 2093.1045 6240.8077 2093.0505 C 6240.1922 2093.0452 6239.6171 2093.0023 6238.999 2092.9988 z " />
   
  
</svg>
