<?xml version="1.0" encoding="UTF-8" standalone="no"?>
<svg
   version="1.2"
   width="100mm"
   height="100mm"
   viewBox="0 0 10000 10000"
   preserveAspectRatio="xMidYMid"
   fill-rule="evenodd"
   stroke-width="28.222"
   stroke-linejoin="round"
   xml:space="preserve"
   id="svg25"
   sodipodi:docname="gobo-caps-0116.svg"
   inkscape:version="1.4 (86a8ad7, 2024-10-11)"
   xmlns:inkscape="http://www.inkscape.org/namespaces/inkscape"
   xmlns:sodipodi="http://sodipodi.sourceforge.net/DTD/sodipodi-0.dtd"
   xmlns="http://www.w3.org/2000/svg"
   xmlns:svg="http://www.w3.org/2000/svg"
   xmlns:ooo="http://xml.openoffice.org/svg/export"><sodipodi:namedview
   id="namedview25"
   pagecolor="#ffffff"
   bordercolor="#000000"
   borderopacity="0.25"
   inkscape:showpageshadow="2"
   inkscape:pageopacity="0.0"
   inkscape:pagecheckerboard="0"
   inkscape:deskcolor="#d1d1d1"
   inkscape:document-units="mm"
   showgrid="false"
   inkscape:zoom="3.0876875"
   inkscape:cx="188.81444"
   inkscape:cy="188.97638"
   inkscape:window-width="2560"
   inkscape:window-height="1369"
   inkscape:window-x="-8"
   inkscape:window-y="-8"
   inkscape:window-maximized="1"
   inkscape:current-layer="svg25" />
 <defs
   class="ClipPathGroup"
   id="defs2">
  
  <clipPath
   id="presentation_clip_path_shrink"
   clipPathUnits="userSpaceOnUse">
   <rect
   x="10"
   y="10"
   width="9980"
   height="9980"
   id="rect2" />
  </clipPath>
 
  
 
   
  
    
   
     
    
      
      
      
      
      
      
      
      
      
      
     
       
      
       
      
       
      
       
      
       
      
       
      
       
      
       
      
       
      
       
      
        
        
       
        
        
       
        
        
       
        
        
       
        
        
       
        
        
       
        
        
       
        
        
       
        
        
       
        
        
       </defs>
 <defs
   class="TextShapeIndex"
   id="defs3">
  <g
   ooo:slide="id1"
   ooo:id-list="id3 id4 id5 id6 id7 id8 id9 id10 id11 id12"
   id="g2" />
 </defs>
 <defs
   class="EmbeddedBulletChars"
   id="defs12">
  <g
   id="bullet-char-template-57356"
   transform="scale(0.00048828125,-0.00048828125)">
   <path
   d="M 580,1141 L 1163,571 580,0 -4,571 580,1141 Z"
   id="path3" />
  </g>
  <g
   id="bullet-char-template-57354"
   transform="scale(0.00048828125,-0.00048828125)">
   <path
   d="M 8,1128 L 1137,1128 1137,0 8,0 8,1128 Z"
   id="path4" />
  </g>
  <g
   id="bullet-char-template-10146"
   transform="scale(0.00048828125,-0.00048828125)">
   <path
   d="M 174,0 L 602,739 174,1481 1456,739 174,0 Z M 1358,739 L 309,1346 659,739 1358,739 Z"
   id="path5" />
  </g>
  <g
   id="bullet-char-template-10132"
   transform="scale(0.00048828125,-0.00048828125)">
   <path
   d="M 2015,739 L 1276,0 717,0 1260,543 174,543 174,936 1260,936 717,1481 1274,1481 2015,739 Z"
   id="path6" />
  </g>
  <g
   id="bullet-char-template-10007"
   transform="scale(0.00048828125,-0.00048828125)">
   <path
   d="M 0,-2 C -7,14 -16,27 -25,37 L 356,567 C 262,823 215,952 215,954 215,979 228,992 255,992 264,992 276,990 289,987 310,991 331,999 354,1012 L 381,999 492,748 772,1049 836,1024 860,1049 C 881,1039 901,1025 922,1006 886,937 835,863 770,784 769,783 710,716 594,584 L 774,223 C 774,196 753,168 711,139 L 727,119 C 717,90 699,76 672,76 641,76 570,178 457,381 L 164,-76 C 142,-110 111,-127 72,-127 30,-127 9,-110 8,-76 1,-67 -2,-52 -2,-32 -2,-23 -1,-13 0,-2 Z"
   id="path7" />
  </g>
  <g
   id="bullet-char-template-10004"
   transform="scale(0.00048828125,-0.00048828125)">
   <path
   d="M 285,-33 C 182,-33 111,30 74,156 52,228 41,333 41,471 41,549 55,616 82,672 116,743 169,778 240,778 293,778 328,747 346,684 L 369,508 C 377,444 397,411 428,410 L 1163,1116 C 1174,1127 1196,1133 1229,1133 1271,1133 1292,1118 1292,1087 L 1292,965 C 1292,929 1282,901 1262,881 L 442,47 C 390,-6 338,-33 285,-33 Z"
   id="path8" />
  </g>
  <g
   id="bullet-char-template-9679"
   transform="scale(0.00048828125,-0.00048828125)">
   <path
   d="M 813,0 C 632,0 489,54 383,161 276,268 223,411 223,592 223,773 276,916 383,1023 489,1130 632,1184 813,1184 992,1184 1136,1130 1245,1023 1353,916 1407,772 1407,592 1407,412 1353,268 1245,161 1136,54 992,0 813,0 Z"
   id="path9" />
  </g>
  <g
   id="bullet-char-template-8226"
   transform="scale(0.00048828125,-0.00048828125)">
   <path
   d="M 346,457 C 273,457 209,483 155,535 101,586 74,649 74,723 74,796 101,859 155,911 209,963 273,989 346,989 419,989 480,963 531,910 582,859 608,796 608,723 608,648 583,586 532,535 482,483 420,457 346,457 Z"
   id="path10" />
  </g>
  <g
   id="bullet-char-template-8211"
   transform="scale(0.00048828125,-0.00048828125)">
   <path
   d="M -4,459 L 1135,459 1135,606 -4,606 -4,459 Z"
   id="path11" />
  </g>
  <g
   id="bullet-char-template-61548"
   transform="scale(0.00048828125,-0.00048828125)">
   <path
   d="M 173,740 C 173,903 231,1043 346,1159 462,1274 601,1332 765,1332 928,1332 1067,1274 1183,1159 1299,1043 1357,903 1357,740 1357,577 1299,437 1183,322 1067,206 928,148 765,148 601,148 462,206 346,322 231,437 173,577 173,740 Z"
   id="path12" />
  </g>
 </defs>
 
 <path
   id="path13"
   d="M 5291.8217 1082.1562 C 5278.8036 1082.0353 5265.1848 1082.2955 5250.9973 1082.983 C 5024.9973 1095.983 4821.0171 1174.02 4800.0171 1323.02 C 4777.0171 1472.02 4800.0082 1717.9812 4903.0082 1831.9812 C 4999.0082 1937.9812 5071.9871 1912.0159 5205.9871 1813.0159 C 5339.9871 1715.0159 5427.0257 1538.0056 5463.0257 1432.0056 C 5550.2132 1178.8806 5487.0927 1083.9689 5291.8217 1082.1562 z M 7221.0062 2023.9591 C 7207.9332 2023.8856 7194.2251 2024.2427 7179.9751 2024.9927 C 7168.7384 2025.6419 7157.6052 2026.6023 7146.4888 2027.5765 C 6831.3337 2032.0852 5534.146 2073.635 4749.9943 2172.0121 C 3993.1178 2267.0832 3472.4773 2363.0636 2966.4856 2460.625 C 2767.1975 2483.4565 2599.0034 2559.1448 2579.9975 2693.9957 C 2556.9975 2843.9957 2580.0068 3089.0086 2682.0068 3203.0086 C 2735.9444 3261.9507 2782.1713 3280.0434 2835.9509 3267.5008 C 2838.9686 3268.5404 2841.982 3268.8932 2844.9943 3268.0176 C 2916.9935 3250.2817 3016.91 3224.9562 3122.9618 3198.6161 C 3122.9199 3240.1648 3125.708 3283.8265 3131.6434 3327.1871 C 3131.4395 3338.949 3131.8296 3350.8764 3132.987 3362.9988 C 3234.987 4115.9988 3281.9994 5517.0193 3268.9994 6329.0193 C 3256.9994 7139.0193 3105.9817 7388.9823 3007.9817 7993.9823 C 2910.9817 8598.9823 3139.0017 9132.0003 4163.0017 8927.0003 C 5184.0017 8720.0003 6794.9941 8602.0127 6953.9941 8596.0127 C 6963.1679 8595.6088 6973.1123 8592.1608 6983.5013 8586.5559 C 7023.6585 8574.5327 7068.1484 8546.4993 7122.976 8505.9924 C 7256.976 8407.9924 7344.0146 8230.982 7380.0146 8124.982 C 7473.0146 7854.982 7395.0043 7765.0111 7167.0043 7776.0111 C 7134.5892 7777.8757 7102.7673 7781.2213 7071.7647 7785.7779 C 6698.7011 7816.4533 5835.071 7906.5526 5330.9924 7989.0213 C 4787.9924 8077.0213 4111.0135 8290.9894 3758.0135 8172.9894 C 3496.0135 8086.9894 3621.004 8003.0009 3787.004 7096.0009 C 3840.9298 6799.572 3867.0908 6308.2315 3877.076 5764.6093 C 4127.8551 5689.1756 4463.8459 5604.7863 4767.9777 5560.0223 C 5231.9777 5493.0223 6363.977 5425.0032 6598.977 5450.0032 C 6604.3714 5450.5334 6609.8157 5450.1244 6615.2551 5449.7448 C 6669.545 5455.0174 6727.6225 5421.9296 6808.0082 5362.9801 C 6942.0082 5265.9801 7028.9951 5088.0214 7064.9951 4982.0214 C 7154.1201 4721.4277 7084.6292 4627.8361 6872.9138 4633.1539 C 6871.898 4633.178 6871.0543 4632.9442 6870.0199 4632.9988 C 6867.1366 4633.1621 6861.9411 4633.5555 6859.0128 4633.7223 C 6856.6537 4633.8254 6854.3771 4633.8548 6851.9848 4633.9807 C 6847.2818 4634.2512 6842.663 4634.7399 6837.9805 4635.0659 C 6367.0885 4662.1759 5365.5677 4731.4086 4644.0059 4860.9952 C 4208.7123 4938.5782 4036.1012 4967.5175 3880.9517 5002.6403 C 3876.8456 4166.8259 3848.6505 3375.1548 3829.7404 3048.2377 C 3830.1502 3044.7869 3830.5676 3041.3075 3830.8772 3037.9541 C 4110.2655 2981.5983 4415.445 2929.5465 4721.9856 2898.0143 C 5487.9856 2819.0143 6737.0205 2832.9943 6944.0205 2844.9943 C 6947.791 2845.1339 6951.9563 2844.0122 6956.3712 2842.2038 C 7006.9874 2841.4946 7062.0314 2809.2681 7135.9985 2755.0256 C 7269.9985 2657.0256 7357.9854 2479.9971 7392.9854 2374.9971 C 7480.1729 2120.9346 7417.1012 2025.0614 7221.0062 2023.9591 z " />
   
  
</svg>
