<?xml version="1.0" encoding="UTF-8" standalone="no"?>
<svg
   version="1.2"
   width="100mm"
   height="100mm"
   viewBox="0 0 10000 10000"
   preserveAspectRatio="xMidYMid"
   fill-rule="evenodd"
   stroke-width="28.222"
   stroke-linejoin="round"
   xml:space="preserve"
   id="svg26"
   sodipodi:docname="gobo-caps-012F.svg"
   inkscape:version="1.4 (86a8ad7, 2024-10-11)"
   xmlns:inkscape="http://www.inkscape.org/namespaces/inkscape"
   xmlns:sodipodi="http://sodipodi.sourceforge.net/DTD/sodipodi-0.dtd"
   xmlns="http://www.w3.org/2000/svg"
   xmlns:svg="http://www.w3.org/2000/svg"
   xmlns:ooo="http://xml.openoffice.org/svg/export"><sodipodi:namedview
   id="namedview26"
   pagecolor="#ffffff"
   bordercolor="#000000"
   borderopacity="0.25"
   inkscape:showpageshadow="2"
   inkscape:pageopacity="0.0"
   inkscape:pagecheckerboard="0"
   inkscape:deskcolor="#d1d1d1"
   inkscape:document-units="mm"
   showgrid="false"
   inkscape:zoom="3.0876875"
   inkscape:cx="188.81444"
   inkscape:cy="188.97638"
   inkscape:window-width="2560"
   inkscape:window-height="1369"
   inkscape:window-x="-8"
   inkscape:window-y="-8"
   inkscape:window-maximized="1"
   inkscape:current-layer="svg26" />
 <defs
   class="ClipPathGroup"
   id="defs2">
  
  <clipPath
   id="presentation_clip_path_shrink"
   clipPathUnits="userSpaceOnUse">
   <rect
   x="10"
   y="10"
   width="9980"
   height="9980"
   id="rect2" />
  </clipPath>
 
  
 
   
  
    
   
     
    
      
      
      
      
      
      
      
      
      
      
      
     
       
      
       
      
       
      
       
      
       
      
       
      
       
      
       
      
       
      
       
      
       
      
        
        
       
        
        
       
        
        
       
        
        
       
        
        
       
        
        
       
        
        
       
        
        
       
        
        
       
        
        
       
        
        
       </defs>
 <defs
   class="TextShapeIndex"
   id="defs3">
  <g
   ooo:slide="id1"
   ooo:id-list="id3 id4 id5 id6 id7 id8 id9 id10 id11 id12 id13"
   id="g2" />
 </defs>
 <defs
   class="EmbeddedBulletChars"
   id="defs12">
  <g
   id="bullet-char-template-57356"
   transform="scale(0.00048828125,-0.00048828125)">
   <path
   d="M 580,1141 L 1163,571 580,0 -4,571 580,1141 Z"
   id="path3" />
  </g>
  <g
   id="bullet-char-template-57354"
   transform="scale(0.00048828125,-0.00048828125)">
   <path
   d="M 8,1128 L 1137,1128 1137,0 8,0 8,1128 Z"
   id="path4" />
  </g>
  <g
   id="bullet-char-template-10146"
   transform="scale(0.00048828125,-0.00048828125)">
   <path
   d="M 174,0 L 602,739 174,1481 1456,739 174,0 Z M 1358,739 L 309,1346 659,739 1358,739 Z"
   id="path5" />
  </g>
  <g
   id="bullet-char-template-10132"
   transform="scale(0.00048828125,-0.00048828125)">
   <path
   d="M 2015,739 L 1276,0 717,0 1260,543 174,543 174,936 1260,936 717,1481 1274,1481 2015,739 Z"
   id="path6" />
  </g>
  <g
   id="bullet-char-template-10007"
   transform="scale(0.00048828125,-0.00048828125)">
   <path
   d="M 0,-2 C -7,14 -16,27 -25,37 L 356,567 C 262,823 215,952 215,954 215,979 228,992 255,992 264,992 276,990 289,987 310,991 331,999 354,1012 L 381,999 492,748 772,1049 836,1024 860,1049 C 881,1039 901,1025 922,1006 886,937 835,863 770,784 769,783 710,716 594,584 L 774,223 C 774,196 753,168 711,139 L 727,119 C 717,90 699,76 672,76 641,76 570,178 457,381 L 164,-76 C 142,-110 111,-127 72,-127 30,-127 9,-110 8,-76 1,-67 -2,-52 -2,-32 -2,-23 -1,-13 0,-2 Z"
   id="path7" />
  </g>
  <g
   id="bullet-char-template-10004"
   transform="scale(0.00048828125,-0.00048828125)">
   <path
   d="M 285,-33 C 182,-33 111,30 74,156 52,228 41,333 41,471 41,549 55,616 82,672 116,743 169,778 240,778 293,778 328,747 346,684 L 369,508 C 377,444 397,411 428,410 L 1163,1116 C 1174,1127 1196,1133 1229,1133 1271,1133 1292,1118 1292,1087 L 1292,965 C 1292,929 1282,901 1262,881 L 442,47 C 390,-6 338,-33 285,-33 Z"
   id="path8" />
  </g>
  <g
   id="bullet-char-template-9679"
   transform="scale(0.00048828125,-0.00048828125)">
   <path
   d="M 813,0 C 632,0 489,54 383,161 276,268 223,411 223,592 223,773 276,916 383,1023 489,1130 632,1184 813,1184 992,1184 1136,1130 1245,1023 1353,916 1407,772 1407,592 1407,412 1353,268 1245,161 1136,54 992,0 813,0 Z"
   id="path9" />
  </g>
  <g
   id="bullet-char-template-8226"
   transform="scale(0.00048828125,-0.00048828125)">
   <path
   d="M 346,457 C 273,457 209,483 155,535 101,586 74,649 74,723 74,796 101,859 155,911 209,963 273,989 346,989 419,989 480,963 531,910 582,859 608,796 608,723 608,648 583,586 532,535 482,483 420,457 346,457 Z"
   id="path10" />
  </g>
  <g
   id="bullet-char-template-8211"
   transform="scale(0.00048828125,-0.00048828125)">
   <path
   d="M -4,459 L 1135,459 1135,606 -4,606 -4,459 Z"
   id="path11" />
  </g>
  <g
   id="bullet-char-template-61548"
   transform="scale(0.00048828125,-0.00048828125)">
   <path
   d="M 173,740 C 173,903 231,1043 346,1159 462,1274 601,1332 765,1332 928,1332 1067,1274 1183,1159 1299,1043 1357,903 1357,740 1357,577 1299,437 1183,322 1067,206 928,148 765,148 601,148 462,206 346,322 231,437 173,577 173,740 Z"
   id="path12" />
  </g>
 </defs>
 
 <path
   id="path13"
   d="M 6232.9528 3092.9895 C 6230.7752 3092.9773 6228.4972 3093.0301 6226.2866 3093.0412 C 5717.7788 3091.1172 4212.7168 3226.0633 3775.015 3323.9831 C 3772.1138 3324.7242 3769.3954 3326.1499 3766.5918 3327.2387 C 3618.8996 3362.7418 3506.3008 3433.4531 3491.0014 3542.006 C 3469.0014 3691.006 3491.9925 3937.0188 3593.9925 4051.0188 C 3638.6625 4099.373 3678.0424 4120.0828 3720.7031 4118.7667 C 3721.4763 4118.7669 3722.1945 4119.0908 3722.9769 4119.025 C 3723.751 4118.8536 3724.9327 4118.6801 3725.7157 4118.5083 C 3736.28 4117.762 3747.1402 4115.4675 3758.2719 4112.1521 C 3926.1696 4078.6615 4242.6458 4038.514 4588.8672 4002.443 C 4577.3853 4366.3617 4571.6114 4843.2232 4573.0025 5344.0149 C 4579.0765 5967.0355 4611.6851 6760.216 4628.1412 7220.3861 C 4312.8679 7263.5001 4037.6435 7306.159 3885.1375 7336.8131 C 3861.7266 7340.8807 3839.0697 7345.8715 3817.1313 7351.5409 C 3816.5568 7351.6804 3815.5792 7351.8673 3815.0126 7352.006 C 3814.8542 7352.0464 3814.7055 7352.1195 3814.5475 7352.161 C 3675.4681 7388.6088 3570.7289 7457.5873 3556.0103 7562.019 C 3534.0103 7712.019 3557.0014 7957.9802 3659.0014 8070.9802 C 3704.9156 8121.6278 3745.2334 8142.223 3789.2777 8139.3998 C 3791.5142 8139.6799 3793.7007 8140.2384 3795.9957 8140.0199 C 4078.8327 8076.1534 4929.522 7966.128 5509.2761 7907.941 C 5506.4781 7919.6035 5503.6016 7931.1915 5501.0079 7942.9776 C 5361.0079 8580.9776 5785.0249 9019.9852 6323.0249 8961.9852 C 6862.0249 8903.9852 7015.9776 8753.9906 7139.9776 8619.9906 C 7140.7402 8619.1724 7141.1308 8617.8986 7141.7346 8616.89 C 7234.643 8518.003 7297.1304 8385.7417 7326.9946 8300.992 C 7418.9946 8030.992 7341.9843 7940.021 7113.9843 7952.021 C 6963.9612 7960.6126 6824.432 7997.1948 6740.9838 8064.0038 C 6631.9838 8155.0038 6411.0076 8287.9753 6267.0076 8150.9753 C 6140.5274 8030.6434 6154.4726 7870.2346 6255.2771 7746.9173 C 6365.3281 7645.8439 6437.8528 7495.3594 6469.0108 7400.9952 C 6562.0108 7130.9952 6484.0159 7040.0243 6258.0159 7052.0243 C 6249.4477 7052.515 6240.9818 7053.2601 6232.4877 7053.9363 C 6039.8341 7058.4989 5703.2325 7089.9586 5337.3486 7131.7093 C 5317.359 6800.7499 5231.7265 6354.1879 5210.0179 5598.0045 C 5191.7017 5007.6604 5217.8763 4384.9959 5258.1803 3941.0514 C 5596.9575 3914.6331 5880.2767 3900.4785 5974.0022 3910.9757 C 5979.2897 3910.8165 5984.6683 3909.8089 5990.177 3908.0818 C 6034.9581 3899.9579 6084.4961 3869.5896 6147.9968 3823.0224 C 6280.9968 3726.0224 6368.9837 3547.994 6404.9837 3442.994 C 6486.29 3204.3775 6435.5112 3105.6416 6265.2506 3094.178 C 6263.4576 3093.8478 6261.8938 3093.1062 6259.9796 3092.9895 C 6252.7358 3092.8675 6243.0203 3093.0954 6235.2783 3093.0412 C 6234.4902 3093.0336 6233.7453 3092.9939 6232.9528 3092.9895 z " />
   
  
</svg>
