<?xml version="1.0" encoding="UTF-8" standalone="no"?>
<svg
   version="1.2"
   width="100mm"
   height="100mm"
   viewBox="0 0 10000 10000"
   preserveAspectRatio="xMidYMid"
   fill-rule="evenodd"
   stroke-width="28.222"
   stroke-linejoin="round"
   xml:space="preserve"
   id="svg24"
   sodipodi:docname="gobo-caps-0136.svg"
   inkscape:version="1.4 (86a8ad7, 2024-10-11)"
   xmlns:inkscape="http://www.inkscape.org/namespaces/inkscape"
   xmlns:sodipodi="http://sodipodi.sourceforge.net/DTD/sodipodi-0.dtd"
   xmlns="http://www.w3.org/2000/svg"
   xmlns:svg="http://www.w3.org/2000/svg"
   xmlns:ooo="http://xml.openoffice.org/svg/export"><sodipodi:namedview
   id="namedview24"
   pagecolor="#ffffff"
   bordercolor="#000000"
   borderopacity="0.25"
   inkscape:showpageshadow="2"
   inkscape:pageopacity="0.0"
   inkscape:pagecheckerboard="0"
   inkscape:deskcolor="#d1d1d1"
   inkscape:document-units="mm"
   showgrid="false"
   inkscape:zoom="3.0876875"
   inkscape:cx="188.81444"
   inkscape:cy="188.97638"
   inkscape:window-width="2560"
   inkscape:window-height="1369"
   inkscape:window-x="-8"
   inkscape:window-y="-8"
   inkscape:window-maximized="1"
   inkscape:current-layer="svg24" />
 <defs
   class="ClipPathGroup"
   id="defs2">
  
  <clipPath
   id="presentation_clip_path_shrink"
   clipPathUnits="userSpaceOnUse">
   <rect
   x="10"
   y="10"
   width="9980"
   height="9980"
   id="rect2" />
  </clipPath>
 
  
 
   
  
    
   
     
    
      
      
      
      
      
      
      
      
      
     
       
      
       
      
       
      
       
      
       
      
       
      
       
      
       
      
       
      
        
        
       
        
        
       
        
        
       
        
        
       
        
        
       
        
        
       
        
        
       
        
        
       
        
        
       </defs>
 <defs
   class="TextShapeIndex"
   id="defs3">
  <g
   ooo:slide="id1"
   ooo:id-list="id3 id4 id5 id6 id7 id8 id9 id10 id11"
   id="g2" />
 </defs>
 <defs
   class="EmbeddedBulletChars"
   id="defs12">
  <g
   id="bullet-char-template-57356"
   transform="scale(0.00048828125,-0.00048828125)">
   <path
   d="M 580,1141 L 1163,571 580,0 -4,571 580,1141 Z"
   id="path3" />
  </g>
  <g
   id="bullet-char-template-57354"
   transform="scale(0.00048828125,-0.00048828125)">
   <path
   d="M 8,1128 L 1137,1128 1137,0 8,0 8,1128 Z"
   id="path4" />
  </g>
  <g
   id="bullet-char-template-10146"
   transform="scale(0.00048828125,-0.00048828125)">
   <path
   d="M 174,0 L 602,739 174,1481 1456,739 174,0 Z M 1358,739 L 309,1346 659,739 1358,739 Z"
   id="path5" />
  </g>
  <g
   id="bullet-char-template-10132"
   transform="scale(0.00048828125,-0.00048828125)">
   <path
   d="M 2015,739 L 1276,0 717,0 1260,543 174,543 174,936 1260,936 717,1481 1274,1481 2015,739 Z"
   id="path6" />
  </g>
  <g
   id="bullet-char-template-10007"
   transform="scale(0.00048828125,-0.00048828125)">
   <path
   d="M 0,-2 C -7,14 -16,27 -25,37 L 356,567 C 262,823 215,952 215,954 215,979 228,992 255,992 264,992 276,990 289,987 310,991 331,999 354,1012 L 381,999 492,748 772,1049 836,1024 860,1049 C 881,1039 901,1025 922,1006 886,937 835,863 770,784 769,783 710,716 594,584 L 774,223 C 774,196 753,168 711,139 L 727,119 C 717,90 699,76 672,76 641,76 570,178 457,381 L 164,-76 C 142,-110 111,-127 72,-127 30,-127 9,-110 8,-76 1,-67 -2,-52 -2,-32 -2,-23 -1,-13 0,-2 Z"
   id="path7" />
  </g>
  <g
   id="bullet-char-template-10004"
   transform="scale(0.00048828125,-0.00048828125)">
   <path
   d="M 285,-33 C 182,-33 111,30 74,156 52,228 41,333 41,471 41,549 55,616 82,672 116,743 169,778 240,778 293,778 328,747 346,684 L 369,508 C 377,444 397,411 428,410 L 1163,1116 C 1174,1127 1196,1133 1229,1133 1271,1133 1292,1118 1292,1087 L 1292,965 C 1292,929 1282,901 1262,881 L 442,47 C 390,-6 338,-33 285,-33 Z"
   id="path8" />
  </g>
  <g
   id="bullet-char-template-9679"
   transform="scale(0.00048828125,-0.00048828125)">
   <path
   d="M 813,0 C 632,0 489,54 383,161 276,268 223,411 223,592 223,773 276,916 383,1023 489,1130 632,1184 813,1184 992,1184 1136,1130 1245,1023 1353,916 1407,772 1407,592 1407,412 1353,268 1245,161 1136,54 992,0 813,0 Z"
   id="path9" />
  </g>
  <g
   id="bullet-char-template-8226"
   transform="scale(0.00048828125,-0.00048828125)">
   <path
   d="M 346,457 C 273,457 209,483 155,535 101,586 74,649 74,723 74,796 101,859 155,911 209,963 273,989 346,989 419,989 480,963 531,910 582,859 608,796 608,723 608,648 583,586 532,535 482,483 420,457 346,457 Z"
   id="path10" />
  </g>
  <g
   id="bullet-char-template-8211"
   transform="scale(0.00048828125,-0.00048828125)">
   <path
   d="M -4,459 L 1135,459 1135,606 -4,606 -4,459 Z"
   id="path11" />
  </g>
  <g
   id="bullet-char-template-61548"
   transform="scale(0.00048828125,-0.00048828125)">
   <path
   d="M 173,740 C 173,903 231,1043 346,1159 462,1274 601,1332 765,1332 928,1332 1067,1274 1183,1159 1299,1043 1357,903 1357,740 1357,577 1299,437 1183,322 1067,206 928,148 765,148 601,148 462,206 346,322 231,437 173,577 173,740 Z"
   id="path12" />
  </g>
 </defs>
 
 <path
   id="path13"
   d="M 7028.9766 2006.9576 C 7015.9107 2006.8843 7002.2472 2007.2411 6987.9972 2007.9911 C 6821.7348 2017.5549 6667.5037 2061.839 6589.1585 2144.2619 C 6583.4453 2148.7748 6577.97 2153.9054 6572.9838 2160.0232 C 6254.9838 2589.0232 5313.0127 3496.978 4618.0127 4169.978 C 3933.2672 4830.163 3672.1401 5046.2383 3386.3049 5420.5476 C 3382.4969 4482.5063 3450.4632 2879.7811 3490.6396 2539.1215 C 3518.5417 2365.5933 3433.3782 2305.0873 3245.0215 2315.0008 C 3018.0215 2327.0008 2814.9896 2405.0043 2793.9896 2554.0043 C 2792.3085 2565.4665 2790.996 2577.645 2789.8555 2590.1261 C 2789.6399 2591.0897 2789.0639 2592.0547 2788.977 2593.02 C 2788.6682 2597.4084 2788.4037 2607.4597 2788.0985 2612.2953 C 2787.7122 2618.476 2787.5263 2624.8584 2787.2717 2631.2089 C 2764.4334 3029.8558 2752.1021 4658.3991 2755.0256 5361.0164 C 2758.0256 6079.0164 2803.0038 8278.9783 2816.0038 8651.9783 C 2816.0038 8656.9415 2817.4112 8661.1044 2819.4661 8664.8974 C 2828.9325 8785.9891 2861.7079 8913.0359 2927.0048 8986.0147 C 3023.0048 9092.0147 3096.0172 9065.9978 3231.0172 8966.9978 C 3365.0172 8867.9978 3451.0223 8691.9875 3487.0223 8585.9875 C 3516.754 8499.3499 3528.8881 8431.3146 3524.3843 8379.1267 C 3517.8998 8126.3982 3472.9811 7436.9191 3435.966 6756.0217 C 4298.2725 7320.75 6577.9873 8513.7773 6705.017 8602.989 C 6711.3131 8607.3962 6718.9846 8609.3656 6727.3413 8610.1204 C 6789.5097 8630.9145 6852.6816 8597.4103 6945.9842 8528.9884 C 7078.9842 8430.9884 7167.0228 8254.0116 7203.0228 8149.0116 C 7264.5418 7968.4666 7250.3581 7868.0379 7166.1258 7824.8453 C 7163.6457 7823.2927 7161.6319 7821.4392 7158.9945 7819.9877 C 6879.9945 7666.9877 4177.0172 6255.9977 3866.0172 6090.9977 C 3557.0172 5925.9977 3978.9964 5581.9971 4672.9964 4914.9971 C 5338.756 4276.1369 6521.0139 3193.2536 6985.9301 2702.5224 C 7005.1435 2685.0339 7023.2798 2666.1325 7040.1904 2646.1434 C 7042.0718 2644.1003 7045.1627 2641.0282 7047.0117 2639.012 C 7047.523 2638.2675 7047.608 2637.2889 7048.0969 2636.5316 C 7123.8729 2543.6302 7175.4002 2432.4128 7201.0074 2357.0137 C 7287.2574 2103.8887 7224.9654 2008.0562 7028.9766 2006.9576 z M 4688.8094 8100.7975 C 4675.7913 8100.7862 4662.1725 8101.1735 4647.985 8101.986 C 4421.985 8113.986 4218.0048 8190.9895 4197.0048 8340.9895 C 4193.1532 8365.9411 4190.727 8393.7869 4189.615 8423.1034 C 4169.9921 8638.4893 4046.1525 9070.6715 3918.1587 9342.3754 C 3908.6353 9360.2574 3902.0245 9379.4212 3898.9868 9399.9946 C 3876.9868 9548.9946 3900.0114 9795.0075 4003.0114 9909.0075 C 4099.0114 10015.007 4171.9904 9988.9906 4305.9904 9889.9906 C 4370.3357 9842.932 4423.7528 9777.6587 4465.9806 9710.7767 C 4636.9448 9467.0089 4889.0809 8552.4625 4897.9956 8285.0239 C 4898.045 8283.5412 4897.9373 8282.1394 4897.9439 8280.6831 C 4904.54 8152.3866 4832.4424 8100.9214 4688.8094 8100.7975 z " />
   
  
</svg>
