<?xml version="1.0" encoding="UTF-8" standalone="no"?>
<svg
   version="1.2"
   width="100mm"
   height="100mm"
   viewBox="0 0 10000 10000"
   preserveAspectRatio="xMidYMid"
   fill-rule="evenodd"
   stroke-width="28.222"
   stroke-linejoin="round"
   xml:space="preserve"
   id="svg25"
   sodipodi:docname="gobo-caps-0105.svg"
   inkscape:version="1.4 (86a8ad7, 2024-10-11)"
   xmlns:inkscape="http://www.inkscape.org/namespaces/inkscape"
   xmlns:sodipodi="http://sodipodi.sourceforge.net/DTD/sodipodi-0.dtd"
   xmlns="http://www.w3.org/2000/svg"
   xmlns:svg="http://www.w3.org/2000/svg"
   xmlns:ooo="http://xml.openoffice.org/svg/export"><sodipodi:namedview
   id="namedview25"
   pagecolor="#ffffff"
   bordercolor="#000000"
   borderopacity="0.25"
   inkscape:showpageshadow="2"
   inkscape:pageopacity="0.0"
   inkscape:pagecheckerboard="0"
   inkscape:deskcolor="#d1d1d1"
   inkscape:document-units="mm"
   showgrid="false"
   inkscape:zoom="3.0876875"
   inkscape:cx="188.81444"
   inkscape:cy="188.97638"
   inkscape:window-width="2560"
   inkscape:window-height="1369"
   inkscape:window-x="-8"
   inkscape:window-y="-8"
   inkscape:window-maximized="1"
   inkscape:current-layer="svg25" />
 <defs
   class="ClipPathGroup"
   id="defs2">
  
  <clipPath
   id="presentation_clip_path_shrink"
   clipPathUnits="userSpaceOnUse">
   <rect
   x="10"
   y="10"
   width="9980"
   height="9980"
   id="rect2" />
  </clipPath>
 
  
 
   
  
    
   
     
    
      
      
      
      
      
      
      
      
      
      
     
       
      
       
      
       
      
       
      
       
      
       
      
       
      
       
      
       
      
       
      
        
        
       
        
        
       
        
        
       
        
        
       
        
        
       
        
        
       
        
        
       
        
        
       
        
        
       
        
        
       </defs>
 <defs
   class="TextShapeIndex"
   id="defs3">
  <g
   ooo:slide="id1"
   ooo:id-list="id3 id4 id5 id6 id7 id8 id9 id10 id11 id12"
   id="g2" />
 </defs>
 <defs
   class="EmbeddedBulletChars"
   id="defs12">
  <g
   id="bullet-char-template-57356"
   transform="scale(0.00048828125,-0.00048828125)">
   <path
   d="M 580,1141 L 1163,571 580,0 -4,571 580,1141 Z"
   id="path3" />
  </g>
  <g
   id="bullet-char-template-57354"
   transform="scale(0.00048828125,-0.00048828125)">
   <path
   d="M 8,1128 L 1137,1128 1137,0 8,0 8,1128 Z"
   id="path4" />
  </g>
  <g
   id="bullet-char-template-10146"
   transform="scale(0.00048828125,-0.00048828125)">
   <path
   d="M 174,0 L 602,739 174,1481 1456,739 174,0 Z M 1358,739 L 309,1346 659,739 1358,739 Z"
   id="path5" />
  </g>
  <g
   id="bullet-char-template-10132"
   transform="scale(0.00048828125,-0.00048828125)">
   <path
   d="M 2015,739 L 1276,0 717,0 1260,543 174,543 174,936 1260,936 717,1481 1274,1481 2015,739 Z"
   id="path6" />
  </g>
  <g
   id="bullet-char-template-10007"
   transform="scale(0.00048828125,-0.00048828125)">
   <path
   d="M 0,-2 C -7,14 -16,27 -25,37 L 356,567 C 262,823 215,952 215,954 215,979 228,992 255,992 264,992 276,990 289,987 310,991 331,999 354,1012 L 381,999 492,748 772,1049 836,1024 860,1049 C 881,1039 901,1025 922,1006 886,937 835,863 770,784 769,783 710,716 594,584 L 774,223 C 774,196 753,168 711,139 L 727,119 C 717,90 699,76 672,76 641,76 570,178 457,381 L 164,-76 C 142,-110 111,-127 72,-127 30,-127 9,-110 8,-76 1,-67 -2,-52 -2,-32 -2,-23 -1,-13 0,-2 Z"
   id="path7" />
  </g>
  <g
   id="bullet-char-template-10004"
   transform="scale(0.00048828125,-0.00048828125)">
   <path
   d="M 285,-33 C 182,-33 111,30 74,156 52,228 41,333 41,471 41,549 55,616 82,672 116,743 169,778 240,778 293,778 328,747 346,684 L 369,508 C 377,444 397,411 428,410 L 1163,1116 C 1174,1127 1196,1133 1229,1133 1271,1133 1292,1118 1292,1087 L 1292,965 C 1292,929 1282,901 1262,881 L 442,47 C 390,-6 338,-33 285,-33 Z"
   id="path8" />
  </g>
  <g
   id="bullet-char-template-9679"
   transform="scale(0.00048828125,-0.00048828125)">
   <path
   d="M 813,0 C 632,0 489,54 383,161 276,268 223,411 223,592 223,773 276,916 383,1023 489,1130 632,1184 813,1184 992,1184 1136,1130 1245,1023 1353,916 1407,772 1407,592 1407,412 1353,268 1245,161 1136,54 992,0 813,0 Z"
   id="path9" />
  </g>
  <g
   id="bullet-char-template-8226"
   transform="scale(0.00048828125,-0.00048828125)">
   <path
   d="M 346,457 C 273,457 209,483 155,535 101,586 74,649 74,723 74,796 101,859 155,911 209,963 273,989 346,989 419,989 480,963 531,910 582,859 608,796 608,723 608,648 583,586 532,535 482,483 420,457 346,457 Z"
   id="path10" />
  </g>
  <g
   id="bullet-char-template-8211"
   transform="scale(0.00048828125,-0.00048828125)">
   <path
   d="M -4,459 L 1135,459 1135,606 -4,606 -4,459 Z"
   id="path11" />
  </g>
  <g
   id="bullet-char-template-61548"
   transform="scale(0.00048828125,-0.00048828125)">
   <path
   d="M 173,740 C 173,903 231,1043 346,1159 462,1274 601,1332 765,1332 928,1332 1067,1274 1183,1159 1299,1043 1357,903 1357,740 1357,577 1299,437 1183,322 1067,206 928,148 765,148 601,148 462,206 346,322 231,437 173,577 173,740 Z"
   id="path12" />
  </g>
 </defs>
 
 <path
   id="path13"
   d="M 4770.9749 3152.9858 C 4757.9019 3152.9128 4744.2455 3153.2693 4729.9955 3154.0193 C 4517.2415 3166.2574 4324.917 3235.1987 4285.5782 3367.5464 C 4110.2205 3698.0858 3632.0829 4656.0862 3351.9918 5296.9893 C 3075.9187 5924.3415 2433.2843 7475.6889 2364.3001 7707.2298 C 2362.6941 7712.3583 2361.3001 7717.569 2360.166 7722.8877 C 2359.3866 7726.2797 2357.202 7732.9511 2357.0137 7734.98 C 2356.8255 7736.9882 2357.1481 7739.1889 2357.2204 7741.2845 C 2336.7297 7890.8178 2360.3706 8131.5396 2460.9867 8243.9929 C 2556.9867 8349.9929 2629.9992 8323.9759 2764.9992 8224.9759 C 2849.6683 8162.5882 2916.0145 8068.2675 2962.4031 7980.8048 C 2965.0656 7976.6934 2967.7546 7972.6136 2969.9996 7967.989 C 2971.5537 7964.7381 2973.7424 7959.1242 2975.4256 7955.38 C 2995.5051 7914.8279 3011.1456 7876.617 3021.9861 7844.9991 C 3029.7628 7822.3378 3036.2772 7801.0449 3041.6748 7780.8687 C 3080.7445 7670.7368 3134.7327 7510.2245 3191.1747 7341.3606 C 3417.1806 7222.8216 4009.9236 6884.3441 4646.0213 6733.0257 C 5129.6704 6618.8902 5502.0932 6572.8469 5782.9028 6549.0576 C 5901.6613 6876.573 5985.932 7144.6078 6055.5476 7361.8762 C 5935.4934 7539.4997 5839.0681 7754.8652 5786.0034 7995.9977 C 5646.0034 8633.9977 6070.0204 9073.0052 6608.0204 9015.0052 C 7147.0204 8957.0052 7301.0248 8807.0106 7425.0248 8673.0106 C 7425.8146 8672.1633 7426.2139 8670.8581 7426.8334 8669.8067 C 7519.6868 8570.9311 7582.1366 8438.7314 7611.9901 8354.012 C 7703.9901 8084.012 7626.9798 7992.9894 7398.9798 8004.9894 C 7248.4888 8013.6078 7108.6129 8050.3855 7025.2559 8117.5923 C 6916.029 8208.5768 6695.7169 8340.723 6552.0031 8203.9953 C 6408.0031 8066.9953 6445.9881 7877.9997 6586.9881 7750.9997 C 6587.6988 7750.3019 6587.9525 7749.2526 6588.4867 7748.4159 C 6694.0089 7647.5148 6763.7305 7502.0161 6794.9857 7409.9869 C 6837.774 7285.7629 6844.3032 7199.7209 6816.7415 7144.0083 C 6761.2938 6937.526 6634.9618 6602.7758 6465.2901 6192.1801 C 6491.3151 6142.6171 6511.0237 6095.1864 6523.9945 6056.9946 C 6616.9945 5786.9946 6538.9842 5696.0236 6310.9842 5708.0236 C 6294.3667 5708.9795 6277.9389 5710.3512 6261.6333 5712.0027 C 6199.9364 5568.7415 6138.3193 5425.6289 6070.9989 5273.0114 C 5701.9989 4443.0114 5116.0018 3480.9963 4966.0018 3234.9963 C 4963.2756 3230.5436 4960.1216 3226.9629 4957.1134 3223.0591 C 4925.3686 3174.7581 4862.7419 3153.4982 4770.9749 3152.9858 z M 4559.4633 4175.3007 C 4790.1547 4509.6466 5140.7833 5022.3786 5442.9752 5701.9775 C 5461.9218 5744.7642 5479.5855 5786.0738 5497.4939 5827.6546 C 5163.4729 5894.4088 4779.3839 5984.2044 4447.9972 6082.9878 C 4053.2271 6199.8075 3752.1133 6320.6017 3505.6258 6423.2255 C 3584.975 6201.5423 3666.6155 5984.2045 3746.0245 5792.9797 C 3956.5089 5275.1213 4294.98 4634.9923 4559.4633 4175.3007 z " />
   
  
</svg>
