<?xml version="1.0" encoding="UTF-8" standalone="no"?>
<svg
   version="1.2"
   width="100mm"
   height="100mm"
   viewBox="0 0 10000 10000"
   preserveAspectRatio="xMidYMid"
   fill-rule="evenodd"
   stroke-width="28.222"
   stroke-linejoin="round"
   xml:space="preserve"
   id="svg23"
   sodipodi:docname="gobo-caps-013D.svg"
   inkscape:version="1.4 (86a8ad7, 2024-10-11)"
   xmlns:inkscape="http://www.inkscape.org/namespaces/inkscape"
   xmlns:sodipodi="http://sodipodi.sourceforge.net/DTD/sodipodi-0.dtd"
   xmlns="http://www.w3.org/2000/svg"
   xmlns:svg="http://www.w3.org/2000/svg"
   xmlns:ooo="http://xml.openoffice.org/svg/export"><sodipodi:namedview
   id="namedview23"
   pagecolor="#ffffff"
   bordercolor="#000000"
   borderopacity="0.25"
   inkscape:showpageshadow="2"
   inkscape:pageopacity="0.0"
   inkscape:pagecheckerboard="0"
   inkscape:deskcolor="#d1d1d1"
   inkscape:document-units="mm"
   showgrid="false"
   inkscape:zoom="3.0876875"
   inkscape:cx="188.81444"
   inkscape:cy="188.97638"
   inkscape:window-width="2560"
   inkscape:window-height="1369"
   inkscape:window-x="-8"
   inkscape:window-y="-8"
   inkscape:window-maximized="1"
   inkscape:current-layer="svg23" />
 <defs
   class="ClipPathGroup"
   id="defs2">
  
  <clipPath
   id="presentation_clip_path_shrink"
   clipPathUnits="userSpaceOnUse">
   <rect
   x="10"
   y="10"
   width="9980"
   height="9980"
   id="rect2" />
  </clipPath>
 
  
 
   
  
    
   
     
    
      
      
      
      
      
      
      
      
     
       
      
       
      
       
      
       
      
       
      
       
      
       
      
       
      
        
        
       
        
        
       
        
        
       
        
        
       
        
        
       
        
        
       
        
        
       
        
        
       </defs>
 <defs
   class="TextShapeIndex"
   id="defs3">
  <g
   ooo:slide="id1"
   ooo:id-list="id3 id4 id5 id6 id7 id8 id9 id10"
   id="g2" />
 </defs>
 <defs
   class="EmbeddedBulletChars"
   id="defs12">
  <g
   id="bullet-char-template-57356"
   transform="scale(0.00048828125,-0.00048828125)">
   <path
   d="M 580,1141 L 1163,571 580,0 -4,571 580,1141 Z"
   id="path3" />
  </g>
  <g
   id="bullet-char-template-57354"
   transform="scale(0.00048828125,-0.00048828125)">
   <path
   d="M 8,1128 L 1137,1128 1137,0 8,0 8,1128 Z"
   id="path4" />
  </g>
  <g
   id="bullet-char-template-10146"
   transform="scale(0.00048828125,-0.00048828125)">
   <path
   d="M 174,0 L 602,739 174,1481 1456,739 174,0 Z M 1358,739 L 309,1346 659,739 1358,739 Z"
   id="path5" />
  </g>
  <g
   id="bullet-char-template-10132"
   transform="scale(0.00048828125,-0.00048828125)">
   <path
   d="M 2015,739 L 1276,0 717,0 1260,543 174,543 174,936 1260,936 717,1481 1274,1481 2015,739 Z"
   id="path6" />
  </g>
  <g
   id="bullet-char-template-10007"
   transform="scale(0.00048828125,-0.00048828125)">
   <path
   d="M 0,-2 C -7,14 -16,27 -25,37 L 356,567 C 262,823 215,952 215,954 215,979 228,992 255,992 264,992 276,990 289,987 310,991 331,999 354,1012 L 381,999 492,748 772,1049 836,1024 860,1049 C 881,1039 901,1025 922,1006 886,937 835,863 770,784 769,783 710,716 594,584 L 774,223 C 774,196 753,168 711,139 L 727,119 C 717,90 699,76 672,76 641,76 570,178 457,381 L 164,-76 C 142,-110 111,-127 72,-127 30,-127 9,-110 8,-76 1,-67 -2,-52 -2,-32 -2,-23 -1,-13 0,-2 Z"
   id="path7" />
  </g>
  <g
   id="bullet-char-template-10004"
   transform="scale(0.00048828125,-0.00048828125)">
   <path
   d="M 285,-33 C 182,-33 111,30 74,156 52,228 41,333 41,471 41,549 55,616 82,672 116,743 169,778 240,778 293,778 328,747 346,684 L 369,508 C 377,444 397,411 428,410 L 1163,1116 C 1174,1127 1196,1133 1229,1133 1271,1133 1292,1118 1292,1087 L 1292,965 C 1292,929 1282,901 1262,881 L 442,47 C 390,-6 338,-33 285,-33 Z"
   id="path8" />
  </g>
  <g
   id="bullet-char-template-9679"
   transform="scale(0.00048828125,-0.00048828125)">
   <path
   d="M 813,0 C 632,0 489,54 383,161 276,268 223,411 223,592 223,773 276,916 383,1023 489,1130 632,1184 813,1184 992,1184 1136,1130 1245,1023 1353,916 1407,772 1407,592 1407,412 1353,268 1245,161 1136,54 992,0 813,0 Z"
   id="path9" />
  </g>
  <g
   id="bullet-char-template-8226"
   transform="scale(0.00048828125,-0.00048828125)">
   <path
   d="M 346,457 C 273,457 209,483 155,535 101,586 74,649 74,723 74,796 101,859 155,911 209,963 273,989 346,989 419,989 480,963 531,910 582,859 608,796 608,723 608,648 583,586 532,535 482,483 420,457 346,457 Z"
   id="path10" />
  </g>
  <g
   id="bullet-char-template-8211"
   transform="scale(0.00048828125,-0.00048828125)">
   <path
   d="M -4,459 L 1135,459 1135,606 -4,606 -4,459 Z"
   id="path11" />
  </g>
  <g
   id="bullet-char-template-61548"
   transform="scale(0.00048828125,-0.00048828125)">
   <path
   d="M 173,740 C 173,903 231,1043 346,1159 462,1274 601,1332 765,1332 928,1332 1067,1274 1183,1159 1299,1043 1357,903 1357,740 1357,577 1299,437 1183,322 1067,206 928,148 765,148 601,148 462,206 346,322 231,437 173,577 173,740 Z"
   id="path12" />
  </g>
 </defs>
 
 <path
   id="path13"
   d="M 5403.8045 2200.7959 C 5390.7864 2200.7847 5377.1676 2201.1719 5362.9801 2201.9844 C 5189.7753 2211.1812 5029.6237 2258.6609 4954.7363 2347.8153 C 4949.6258 2352.3435 4945.3384 2357.6705 4942.0239 2363.9901 C 4941.5703 2364.8727 4940.9058 2365.9229 4940.4219 2366.8323 C 4936.4786 2372.8012 4932.884 2378.9787 4929.6732 2385.2807 C 4832.5883 2541.439 4441.4516 2954.6662 4324.3355 3090.8707 C 4320.6053 3094.9409 4317.0034 3099.2784 4313.3801 3103.5831 C 4309.908 3107.7165 4303.7031 3114.6176 4300.9778 3118.0009 C 4298.8218 3120.6772 4296.9503 3123.7965 4295.0866 3126.9409 C 4281.3738 3145.71 4268.3416 3166.1852 4256.0193 3189.0043 C 4174.0193 3340.0043 4186.9913 3551.007 4248.9913 3653.007 C 4304.5787 3744.4572 4422.8427 3718.4535 4530.3178 3655.9009 C 4700.9752 3570.8886 5389.4953 2937.8614 5481.9909 2745.9822 C 5482.0319 2745.8976 5482.0535 2745.8085 5482.0943 2745.7239 C 5525.6843 2675.2579 5556.7847 2603.6843 5575.0085 2550.0252 C 5662.196 2295.9627 5599.0755 2200.9643 5403.8045 2200.7959 z M 3332.6131 2290.9713 C 3319.65 2290.898 3306.1204 2291.2548 3291.9954 2292.0048 C 3064.9954 2305.0048 2860.9817 2382.9901 2839.9817 2531.9901 C 2839.3064 2536.5638 2838.8142 2541.503 2838.2247 2546.2528 C 2838.1967 2546.4951 2838.0376 2546.7338 2838.018 2546.9763 C 2837.9877 2547.3733 2837.9449 2548.3325 2837.9146 2548.7333 C 2834.0556 2580.8411 2832.1176 2616.5053 2832.4886 2654.1532 C 2808.4701 3144.0251 2786.19 4678.1241 2788.977 5347.0121 C 2791.8598 6036.9469 2840.163 8070.6055 2856.4148 8562.423 C 2851.654 8707.5056 2882.1092 8891.0218 2967.0023 8984.9812 C 3013.944 9036.8126 3055.3905 9057.018 3101.1544 9052.6257 C 3105.0047 9053.2123 3108.9317 9053.0765 3112.9883 9052.0055 C 3888.9883 8835.0055 5827.9977 8578.978 6725.9977 8614.978 C 6726.0148 8614.9791 6726.0322 8614.9769 6726.0493 8614.978 C 6779.2649 8618.4055 6836.4489 8585.5948 6914.9784 8528.0065 C 7048.9784 8431.0065 7136.017 8252.9962 7172.017 8146.9962 C 7265.017 7877.9962 7187.0067 7787.0071 6959.0067 7799.0071 C 6957.3585 7799.1019 6955.7431 7799.2672 6954.0974 7799.3688 C 6051.8169 7848.3826 4359.3654 8061.8904 3556.5787 8186.7354 C 3528.794 7642.94 3442.9308 6455.4696 3422.9952 5729.9861 C 3396.9952 4893.9861 3493.9906 2851.9898 3539.9906 2494.9898 C 3540.1841 2493.1738 3539.6981 2491.5514 3539.5772 2489.8222 C 3553.9089 2348.6548 3482.065 2291.8157 3332.6131 2290.9713 z " />
   
  
</svg>
