<?xml version="1.0" encoding="UTF-8" standalone="no"?>
<svg
   version="1.2"
   width="100mm"
   height="100mm"
   viewBox="0 0 10000 10000"
   preserveAspectRatio="xMidYMid"
   fill-rule="evenodd"
   stroke-width="28.222"
   stroke-linejoin="round"
   xml:space="preserve"
   id="svg21"
   sodipodi:docname="gobo-caps-02DD.svg"
   inkscape:version="1.4 (86a8ad7, 2024-10-11)"
   xmlns:inkscape="http://www.inkscape.org/namespaces/inkscape"
   xmlns:sodipodi="http://sodipodi.sourceforge.net/DTD/sodipodi-0.dtd"
   xmlns="http://www.w3.org/2000/svg"
   xmlns:svg="http://www.w3.org/2000/svg"
   xmlns:ooo="http://xml.openoffice.org/svg/export"><sodipodi:namedview
   id="namedview21"
   pagecolor="#ffffff"
   bordercolor="#000000"
   borderopacity="0.25"
   inkscape:showpageshadow="2"
   inkscape:pageopacity="0.0"
   inkscape:pagecheckerboard="0"
   inkscape:deskcolor="#d1d1d1"
   inkscape:document-units="mm"
   showgrid="false"
   inkscape:zoom="3.0876875"
   inkscape:cx="188.81444"
   inkscape:cy="188.97638"
   inkscape:window-width="2560"
   inkscape:window-height="1369"
   inkscape:window-x="-8"
   inkscape:window-y="-8"
   inkscape:window-maximized="1"
   inkscape:current-layer="svg21" />
 <defs
   class="ClipPathGroup"
   id="defs2">
  
  <clipPath
   id="presentation_clip_path_shrink"
   clipPathUnits="userSpaceOnUse">
   <rect
   x="10"
   y="10"
   width="9980"
   height="9980"
   id="rect2" />
  </clipPath>
 
  
 
   
  
    
   
     
    
      
      
      
      
      
      
     
       
      
       
      
       
      
       
      
       
      
       
      
        
        
       
        
        
       
        
        
       
        
        
       
        
        
       
        
        
       </defs>
 <defs
   class="TextShapeIndex"
   id="defs3">
  <g
   ooo:slide="id1"
   ooo:id-list="id3 id4 id5 id6 id7 id8"
   id="g2" />
 </defs>
 <defs
   class="EmbeddedBulletChars"
   id="defs12">
  <g
   id="bullet-char-template-57356"
   transform="scale(0.00048828125,-0.00048828125)">
   <path
   d="M 580,1141 L 1163,571 580,0 -4,571 580,1141 Z"
   id="path3" />
  </g>
  <g
   id="bullet-char-template-57354"
   transform="scale(0.00048828125,-0.00048828125)">
   <path
   d="M 8,1128 L 1137,1128 1137,0 8,0 8,1128 Z"
   id="path4" />
  </g>
  <g
   id="bullet-char-template-10146"
   transform="scale(0.00048828125,-0.00048828125)">
   <path
   d="M 174,0 L 602,739 174,1481 1456,739 174,0 Z M 1358,739 L 309,1346 659,739 1358,739 Z"
   id="path5" />
  </g>
  <g
   id="bullet-char-template-10132"
   transform="scale(0.00048828125,-0.00048828125)">
   <path
   d="M 2015,739 L 1276,0 717,0 1260,543 174,543 174,936 1260,936 717,1481 1274,1481 2015,739 Z"
   id="path6" />
  </g>
  <g
   id="bullet-char-template-10007"
   transform="scale(0.00048828125,-0.00048828125)">
   <path
   d="M 0,-2 C -7,14 -16,27 -25,37 L 356,567 C 262,823 215,952 215,954 215,979 228,992 255,992 264,992 276,990 289,987 310,991 331,999 354,1012 L 381,999 492,748 772,1049 836,1024 860,1049 C 881,1039 901,1025 922,1006 886,937 835,863 770,784 769,783 710,716 594,584 L 774,223 C 774,196 753,168 711,139 L 727,119 C 717,90 699,76 672,76 641,76 570,178 457,381 L 164,-76 C 142,-110 111,-127 72,-127 30,-127 9,-110 8,-76 1,-67 -2,-52 -2,-32 -2,-23 -1,-13 0,-2 Z"
   id="path7" />
  </g>
  <g
   id="bullet-char-template-10004"
   transform="scale(0.00048828125,-0.00048828125)">
   <path
   d="M 285,-33 C 182,-33 111,30 74,156 52,228 41,333 41,471 41,549 55,616 82,672 116,743 169,778 240,778 293,778 328,747 346,684 L 369,508 C 377,444 397,411 428,410 L 1163,1116 C 1174,1127 1196,1133 1229,1133 1271,1133 1292,1118 1292,1087 L 1292,965 C 1292,929 1282,901 1262,881 L 442,47 C 390,-6 338,-33 285,-33 Z"
   id="path8" />
  </g>
  <g
   id="bullet-char-template-9679"
   transform="scale(0.00048828125,-0.00048828125)">
   <path
   d="M 813,0 C 632,0 489,54 383,161 276,268 223,411 223,592 223,773 276,916 383,1023 489,1130 632,1184 813,1184 992,1184 1136,1130 1245,1023 1353,916 1407,772 1407,592 1407,412 1353,268 1245,161 1136,54 992,0 813,0 Z"
   id="path9" />
  </g>
  <g
   id="bullet-char-template-8226"
   transform="scale(0.00048828125,-0.00048828125)">
   <path
   d="M 346,457 C 273,457 209,483 155,535 101,586 74,649 74,723 74,796 101,859 155,911 209,963 273,989 346,989 419,989 480,963 531,910 582,859 608,796 608,723 608,648 583,586 532,535 482,483 420,457 346,457 Z"
   id="path10" />
  </g>
  <g
   id="bullet-char-template-8211"
   transform="scale(0.00048828125,-0.00048828125)">
   <path
   d="M -4,459 L 1135,459 1135,606 -4,606 -4,459 Z"
   id="path11" />
  </g>
  <g
   id="bullet-char-template-61548"
   transform="scale(0.00048828125,-0.00048828125)">
   <path
   d="M 173,740 C 173,903 231,1043 346,1159 462,1274 601,1332 765,1332 928,1332 1067,1274 1183,1159 1299,1043 1357,903 1357,740 1357,577 1299,437 1183,322 1067,206 928,148 765,148 601,148 462,206 346,322 231,437 173,577 173,740 Z"
   id="path12" />
  </g>
 </defs>
 
 <path
   id="path13"
   d="M 6160.8125 1400.793 C 6147.7945 1400.7818 6134.1757 1401.1691 6119.9882 1401.9816 C 5946.7834 1411.1783 5786.6317 1458.6581 5711.7443 1547.8125 C 5706.6338 1552.3407 5702.2947 1557.6676 5698.9803 1563.9872 C 5698.4554 1565.0085 5697.737 1566.2374 5697.1716 1567.2945 C 5693.3529 1573.1049 5689.8589 1579.0493 5686.7329 1585.1745 C 5589.751 1741.2572 5198.4838 2154.6353 5081.3435 2290.8679 C 5077.1801 2295.4109 5073.1269 2300.2433 5069.0962 2305.0789 C 5066.0529 2308.7143 5060.4276 2314.9668 5057.9858 2317.998 C 5055.9049 2320.5812 5054.1099 2323.6083 5052.3014 2326.628 C 5038.504 2345.4795 5025.3663 2366.0558 5012.9756 2389.0014 C 4930.9756 2540.0014 4943.9993 2751.0041 5005.9993 2853.0041 C 5061.5867 2944.4544 5179.8507 2918.4506 5287.3258 2855.898 C 5457.9833 2770.8858 6146.5034 2137.8585 6238.999 1945.9794 C 6239.04 1945.8948 6239.0616 1945.8057 6239.1023 1945.721 C 6282.6912 1875.2563 6313.793 1803.6805 6332.0166 1750.0224 C 6419.2041 1495.9599 6356.0835 1400.9615 6160.8125 1400.793 z M 4834.7953 1509.7786 C 4821.7772 1509.7674 4808.2101 1510.2064 4794.0226 1511.0189 C 4620.8452 1520.2141 4460.6813 1567.6193 4385.7788 1656.7464 C 4380.6441 1661.2845 4376.3409 1666.6824 4373.0147 1673.0245 C 4372.5611 1673.9071 4371.8966 1674.9573 4371.4127 1675.8667 C 4367.4156 1681.9172 4363.7532 1688.1291 4360.509 1694.5219 C 4263.2002 1850.839 3872.4679 2263.6848 3755.378 2399.8535 C 3751.1718 2404.4413 3747.0979 2409.2815 3743.0273 2414.1679 C 3740.0115 2417.7712 3734.4435 2423.9754 3732.0202 2426.9836 C 3729.7277 2429.8295 3727.6779 2433.118 3725.7157 2436.4921 C 3712.1485 2455.1185 3699.2145 2475.3862 3687.0101 2497.987 C 3605.0101 2648.987 3617.9821 2859.9897 3679.9821 2961.9897 C 3735.5246 3053.3662 3853.6444 3027.4817 3961.0502 2965.0386 C 4131.2681 2880.5398 4820.4393 2246.9931 4912.9817 2055.0167 C 4913.0464 2054.8832 4913.0727 2054.7369 4913.1368 2054.6033 C 4956.6941 1984.1699 4987.7842 1912.6415 5005.9993 1859.008 C 5093.1868 1604.9455 5030.0663 1509.9471 4834.7953 1509.7786 z " />
   
  
</svg>
