<?xml version="1.0" encoding="UTF-8" standalone="no"?>
<svg
   version="1.2"
   width="100mm"
   height="100mm"
   viewBox="0 0 10000 10000"
   preserveAspectRatio="xMidYMid"
   fill-rule="evenodd"
   stroke-width="28.222"
   stroke-linejoin="round"
   xml:space="preserve"
   id="svg21"
   sodipodi:docname="gobo-caps-03B3.svg"
   inkscape:version="1.4 (86a8ad7, 2024-10-11)"
   xmlns:inkscape="http://www.inkscape.org/namespaces/inkscape"
   xmlns:sodipodi="http://sodipodi.sourceforge.net/DTD/sodipodi-0.dtd"
   xmlns="http://www.w3.org/2000/svg"
   xmlns:svg="http://www.w3.org/2000/svg"
   xmlns:ooo="http://xml.openoffice.org/svg/export"><sodipodi:namedview
   id="namedview21"
   pagecolor="#ffffff"
   bordercolor="#000000"
   borderopacity="0.25"
   inkscape:showpageshadow="2"
   inkscape:pageopacity="0.0"
   inkscape:pagecheckerboard="0"
   inkscape:deskcolor="#d1d1d1"
   inkscape:document-units="mm"
   showgrid="false"
   inkscape:zoom="3.0876875"
   inkscape:cx="188.81444"
   inkscape:cy="188.97638"
   inkscape:window-width="2560"
   inkscape:window-height="1369"
   inkscape:window-x="-8"
   inkscape:window-y="-8"
   inkscape:window-maximized="1"
   inkscape:current-layer="svg21" />
 <defs
   class="ClipPathGroup"
   id="defs2">
  
  <clipPath
   id="presentation_clip_path_shrink"
   clipPathUnits="userSpaceOnUse">
   <rect
   x="10"
   y="10"
   width="9980"
   height="9980"
   id="rect2" />
  </clipPath>
 
  
 
   
  
    
   
     
    
      
      
      
      
      
      
     
       
      
       
      
       
      
       
      
       
      
       
      
        
        
       
        
        
       
        
        
       
        
        
       
        
        
       
        
        
       </defs>
 <defs
   class="TextShapeIndex"
   id="defs3">
  <g
   ooo:slide="id1"
   ooo:id-list="id3 id4 id5 id6 id7 id8"
   id="g2" />
 </defs>
 <defs
   class="EmbeddedBulletChars"
   id="defs12">
  <g
   id="bullet-char-template-57356"
   transform="scale(0.00048828125,-0.00048828125)">
   <path
   d="M 580,1141 L 1163,571 580,0 -4,571 580,1141 Z"
   id="path3" />
  </g>
  <g
   id="bullet-char-template-57354"
   transform="scale(0.00048828125,-0.00048828125)">
   <path
   d="M 8,1128 L 1137,1128 1137,0 8,0 8,1128 Z"
   id="path4" />
  </g>
  <g
   id="bullet-char-template-10146"
   transform="scale(0.00048828125,-0.00048828125)">
   <path
   d="M 174,0 L 602,739 174,1481 1456,739 174,0 Z M 1358,739 L 309,1346 659,739 1358,739 Z"
   id="path5" />
  </g>
  <g
   id="bullet-char-template-10132"
   transform="scale(0.00048828125,-0.00048828125)">
   <path
   d="M 2015,739 L 1276,0 717,0 1260,543 174,543 174,936 1260,936 717,1481 1274,1481 2015,739 Z"
   id="path6" />
  </g>
  <g
   id="bullet-char-template-10007"
   transform="scale(0.00048828125,-0.00048828125)">
   <path
   d="M 0,-2 C -7,14 -16,27 -25,37 L 356,567 C 262,823 215,952 215,954 215,979 228,992 255,992 264,992 276,990 289,987 310,991 331,999 354,1012 L 381,999 492,748 772,1049 836,1024 860,1049 C 881,1039 901,1025 922,1006 886,937 835,863 770,784 769,783 710,716 594,584 L 774,223 C 774,196 753,168 711,139 L 727,119 C 717,90 699,76 672,76 641,76 570,178 457,381 L 164,-76 C 142,-110 111,-127 72,-127 30,-127 9,-110 8,-76 1,-67 -2,-52 -2,-32 -2,-23 -1,-13 0,-2 Z"
   id="path7" />
  </g>
  <g
   id="bullet-char-template-10004"
   transform="scale(0.00048828125,-0.00048828125)">
   <path
   d="M 285,-33 C 182,-33 111,30 74,156 52,228 41,333 41,471 41,549 55,616 82,672 116,743 169,778 240,778 293,778 328,747 346,684 L 369,508 C 377,444 397,411 428,410 L 1163,1116 C 1174,1127 1196,1133 1229,1133 1271,1133 1292,1118 1292,1087 L 1292,965 C 1292,929 1282,901 1262,881 L 442,47 C 390,-6 338,-33 285,-33 Z"
   id="path8" />
  </g>
  <g
   id="bullet-char-template-9679"
   transform="scale(0.00048828125,-0.00048828125)">
   <path
   d="M 813,0 C 632,0 489,54 383,161 276,268 223,411 223,592 223,773 276,916 383,1023 489,1130 632,1184 813,1184 992,1184 1136,1130 1245,1023 1353,916 1407,772 1407,592 1407,412 1353,268 1245,161 1136,54 992,0 813,0 Z"
   id="path9" />
  </g>
  <g
   id="bullet-char-template-8226"
   transform="scale(0.00048828125,-0.00048828125)">
   <path
   d="M 346,457 C 273,457 209,483 155,535 101,586 74,649 74,723 74,796 101,859 155,911 209,963 273,989 346,989 419,989 480,963 531,910 582,859 608,796 608,723 608,648 583,586 532,535 482,483 420,457 346,457 Z"
   id="path10" />
  </g>
  <g
   id="bullet-char-template-8211"
   transform="scale(0.00048828125,-0.00048828125)">
   <path
   d="M -4,459 L 1135,459 1135,606 -4,606 -4,459 Z"
   id="path11" />
  </g>
  <g
   id="bullet-char-template-61548"
   transform="scale(0.00048828125,-0.00048828125)">
   <path
   d="M 173,740 C 173,903 231,1043 346,1159 462,1274 601,1332 765,1332 928,1332 1067,1274 1183,1159 1299,1043 1357,903 1357,740 1357,577 1299,437 1183,322 1067,206 928,148 765,148 601,148 462,206 346,322 231,437 173,577 173,740 Z"
   id="path12" />
  </g>
 </defs>
 
 <path
   id="path13"
   d="M 6650.9635 3040.9513 C 6637.8905 3040.8781 6624.2341 3041.2348 6609.9841 3041.9848 C 6591.5102 3043.0475 6573.2867 3044.7129 6555.2071 3046.6357 C 6256.7095 3058.3481 5514.0808 3101.1906 4869.9869 3166.9901 C 4250.5108 3232.2452 3887.5091 3273.7124 3529.6037 3336.0237 C 3489.0492 3340.7545 3449.9615 3347.7361 3413.125 3357.0044 C 3409.406 3357.7011 3405.7385 3358.3175 3402.0145 3359.0197 C 3397.2465 3359.9453 3392.62 3361.6697 3388.0619 3363.774 C 3258.0665 3401.3586 3162.0982 3469.1278 3148.0249 3568.9811 C 3125.0249 3718.9811 3149.016 3964.9939 3251.016 4077.9939 C 3287.9973 4118.8275 3321.5768 4139.9886 3356.591 4145.0183 C 3366.3755 4147.8995 3377.0135 4147.9505 3388.372 4145.38 C 3388.5444 4145.3594 3388.7161 4145.2979 3388.8887 4145.2767 C 3389.6148 4145.1069 3390.2749 4145.2117 3391.0075 4145.0183 C 3391.1201 4144.989 3391.3595 4144.9443 3391.4725 4144.9149 C 3398.8216 4143.8689 3406.3686 4141.993 3414.0035 4139.7473 C 3431.7262 4135.4357 3451.6738 4130.8058 3476.0669 4125.5363 C 3552.0426 4577.1376 3571.1859 5247.4451 3574.9756 5831.9954 C 3578.9354 6442.7999 3404.9126 7525.675 3449.9186 7795.7515 C 3458.602 7919.2599 3491.5878 8050.3621 3559.0075 8124.982 C 3655.0075 8230.982 3727.9865 8205.0168 3861.9865 8106.0168 C 3995.9865 8008.0168 4083.025 7831.0065 4119.025 7725.0065 C 4134.2631 7680.7669 4144.7606 7641.4346 4150.9094 7606.5124 C 4152.3041 7598.5912 4153.4905 7590.9285 4154.4234 7583.4647 C 4154.8869 7579.9429 4155.6735 7576.5422 4156.0254 7572.9744 C 4192.0254 7206.9744 4209.0048 6695.0117 4197.0048 5777.0117 C 4187.5825 4990.6787 4167.2937 4456.6856 4171.6833 4000.2209 C 4440.5865 3957.1458 4731.6804 3915.3266 4977.9907 3889.0132 C 5549.9907 3828.0132 6274.0058 3849.0228 6381.0058 3860.0228 C 6382.8458 3860.1947 6384.9465 3859.5151 6386.9486 3859.1959 C 6437.5382 3858.4543 6492.6265 3826.2321 6566.0074 3772.0178 C 6700.0074 3673.0178 6786.9943 3497.0075 6822.9943 3391.0075 C 6910.1818 3137.8825 6847.0585 3042.0499 6650.9635 3040.9513 z " />
   
  
</svg>
