<?xml version="1.0" encoding="UTF-8" standalone="no"?>
<svg
   version="1.2"
   width="100mm"
   height="100mm"
   viewBox="0 0 10000 10000"
   preserveAspectRatio="xMidYMid"
   fill-rule="evenodd"
   stroke-width="28.222"
   stroke-linejoin="round"
   xml:space="preserve"
   id="svg22"
   sodipodi:docname="gobo-caps-03A9.svg"
   inkscape:version="1.4 (86a8ad7, 2024-10-11)"
   xmlns:inkscape="http://www.inkscape.org/namespaces/inkscape"
   xmlns:sodipodi="http://sodipodi.sourceforge.net/DTD/sodipodi-0.dtd"
   xmlns="http://www.w3.org/2000/svg"
   xmlns:svg="http://www.w3.org/2000/svg"
   xmlns:ooo="http://xml.openoffice.org/svg/export"><sodipodi:namedview
   id="namedview22"
   pagecolor="#ffffff"
   bordercolor="#000000"
   borderopacity="0.25"
   inkscape:showpageshadow="2"
   inkscape:pageopacity="0.0"
   inkscape:pagecheckerboard="0"
   inkscape:deskcolor="#d1d1d1"
   inkscape:document-units="mm"
   showgrid="false"
   inkscape:zoom="3.0876875"
   inkscape:cx="188.81444"
   inkscape:cy="188.97638"
   inkscape:window-width="2560"
   inkscape:window-height="1369"
   inkscape:window-x="-8"
   inkscape:window-y="-8"
   inkscape:window-maximized="1"
   inkscape:current-layer="svg22" />
 <defs
   class="ClipPathGroup"
   id="defs2">
  
  <clipPath
   id="presentation_clip_path_shrink"
   clipPathUnits="userSpaceOnUse">
   <rect
   x="10"
   y="10"
   width="9980"
   height="9980"
   id="rect2" />
  </clipPath>
 
  
 
   
  
    
   
     
    
      
      
      
      
      
      
      
     
       
      
       
      
       
      
       
      
       
      
       
      
       
      
        
        
       
        
        
       
        
        
       
        
        
       
        
        
       
        
        
       
        
        
       </defs>
 <defs
   class="TextShapeIndex"
   id="defs3">
  <g
   ooo:slide="id1"
   ooo:id-list="id3 id4 id5 id6 id7 id8 id9"
   id="g2" />
 </defs>
 <defs
   class="EmbeddedBulletChars"
   id="defs12">
  <g
   id="bullet-char-template-57356"
   transform="scale(0.00048828125,-0.00048828125)">
   <path
   d="M 580,1141 L 1163,571 580,0 -4,571 580,1141 Z"
   id="path3" />
  </g>
  <g
   id="bullet-char-template-57354"
   transform="scale(0.00048828125,-0.00048828125)">
   <path
   d="M 8,1128 L 1137,1128 1137,0 8,0 8,1128 Z"
   id="path4" />
  </g>
  <g
   id="bullet-char-template-10146"
   transform="scale(0.00048828125,-0.00048828125)">
   <path
   d="M 174,0 L 602,739 174,1481 1456,739 174,0 Z M 1358,739 L 309,1346 659,739 1358,739 Z"
   id="path5" />
  </g>
  <g
   id="bullet-char-template-10132"
   transform="scale(0.00048828125,-0.00048828125)">
   <path
   d="M 2015,739 L 1276,0 717,0 1260,543 174,543 174,936 1260,936 717,1481 1274,1481 2015,739 Z"
   id="path6" />
  </g>
  <g
   id="bullet-char-template-10007"
   transform="scale(0.00048828125,-0.00048828125)">
   <path
   d="M 0,-2 C -7,14 -16,27 -25,37 L 356,567 C 262,823 215,952 215,954 215,979 228,992 255,992 264,992 276,990 289,987 310,991 331,999 354,1012 L 381,999 492,748 772,1049 836,1024 860,1049 C 881,1039 901,1025 922,1006 886,937 835,863 770,784 769,783 710,716 594,584 L 774,223 C 774,196 753,168 711,139 L 727,119 C 717,90 699,76 672,76 641,76 570,178 457,381 L 164,-76 C 142,-110 111,-127 72,-127 30,-127 9,-110 8,-76 1,-67 -2,-52 -2,-32 -2,-23 -1,-13 0,-2 Z"
   id="path7" />
  </g>
  <g
   id="bullet-char-template-10004"
   transform="scale(0.00048828125,-0.00048828125)">
   <path
   d="M 285,-33 C 182,-33 111,30 74,156 52,228 41,333 41,471 41,549 55,616 82,672 116,743 169,778 240,778 293,778 328,747 346,684 L 369,508 C 377,444 397,411 428,410 L 1163,1116 C 1174,1127 1196,1133 1229,1133 1271,1133 1292,1118 1292,1087 L 1292,965 C 1292,929 1282,901 1262,881 L 442,47 C 390,-6 338,-33 285,-33 Z"
   id="path8" />
  </g>
  <g
   id="bullet-char-template-9679"
   transform="scale(0.00048828125,-0.00048828125)">
   <path
   d="M 813,0 C 632,0 489,54 383,161 276,268 223,411 223,592 223,773 276,916 383,1023 489,1130 632,1184 813,1184 992,1184 1136,1130 1245,1023 1353,916 1407,772 1407,592 1407,412 1353,268 1245,161 1136,54 992,0 813,0 Z"
   id="path9" />
  </g>
  <g
   id="bullet-char-template-8226"
   transform="scale(0.00048828125,-0.00048828125)">
   <path
   d="M 346,457 C 273,457 209,483 155,535 101,586 74,649 74,723 74,796 101,859 155,911 209,963 273,989 346,989 419,989 480,963 531,910 582,859 608,796 608,723 608,648 583,586 532,535 482,483 420,457 346,457 Z"
   id="path10" />
  </g>
  <g
   id="bullet-char-template-8211"
   transform="scale(0.00048828125,-0.00048828125)">
   <path
   d="M -4,459 L 1135,459 1135,606 -4,606 -4,459 Z"
   id="path11" />
  </g>
  <g
   id="bullet-char-template-61548"
   transform="scale(0.00048828125,-0.00048828125)">
   <path
   d="M 173,740 C 173,903 231,1043 346,1159 462,1274 601,1332 765,1332 928,1332 1067,1274 1183,1159 1299,1043 1357,903 1357,740 1357,577 1299,437 1183,322 1067,206 928,148 765,148 601,148 462,206 346,322 231,437 173,577 173,740 Z"
   id="path12" />
  </g>
 </defs>
 
 <path
   id="path13"
   d="M 5305.3609 2137.1305 C 5206.0464 2138.5409 5105.1896 2144.7424 5003.0021 2155.9924 C 3367.0021 2336.9924 2110.9911 3528.0191 2007.9911 5190.0191 C 1904.9911 6852.0191 2724.0222 7449.0012 3319.0222 7600.0012 C 3770.1133 7714.4797 3719.4148 7942.7915 3652.3869 8179.8624 C 3186.0853 8219.2917 2586.7534 8305.6475 2312.4687 8366.466 C 2297.7844 8369.4173 2283.372 8372.6247 2269.3188 8376.2328 C 2268.3284 8376.474 2266.9896 8376.7679 2266.0115 8377.008 C 2265.8532 8377.0484 2265.7045 8377.1215 2265.5465 8377.163 C 2126.4671 8413.6108 2021.7278 8482.5893 2007.0093 8587.021 C 1985.0093 8737.021 2008.0004 8982.9822 2110.0004 9095.9822 C 2155.7907 9146.4932 2196.0095 9167.0912 2239.9149 9164.4018 C 2242.2693 9164.7073 2244.5751 9165.2715 2246.9946 9165.0219 C 2649.9946 9074.0219 3553.9861 8968.0077 3824.9861 8975.0077 C 3826.7666 8974.9037 3828.6848 8974.1394 3830.5155 8973.7674 C 3880.2763 8971.9165 3934.5433 8940.1306 4006.9905 8887.0027 C 4140.9905 8789.0027 4227.9956 8611.9924 4262.9956 8505.9924 C 4279.7556 8457.3343 4290.8496 8414.5873 4296.6369 8377.1113 C 4296.6868 8376.7176 4296.9528 8376.369 4296.9987 8375.9745 C 4297.099 8375.1008 4297.2082 8374.1105 4297.3087 8373.2356 C 4298.7892 8363.0955 4299.7863 8353.4399 4300.461 8344.0901 C 4360.9069 7815.0439 4429.7903 7083.8484 3752.019 6871.9836 C 3061.019 6655.9836 2590.9769 6324.976 2620.9769 5049.976 C 2650.9769 3774.976 3582.9869 3113.9808 4869.9869 2896.9808 C 6156.9869 2679.9808 7258.0158 3745.0165 7360.0158 4894.0165 C 7462.0158 6043.0165 7028.976 6198.9831 6487.976 6498.9831 C 5946.976 6798.9831 5509.0083 7433.976 5706.0083 8392.976 C 5706.2166 8394.0687 5706.9597 8394.8453 5707.1968 8395.9216 C 5722.2282 8494.7943 5753.7509 8590.0072 5806.984 8648.9811 C 5852.7744 8699.4921 5892.9931 8720.0901 5936.8986 8717.4006 C 5939.2529 8717.7062 5941.5587 8718.2704 5943.9782 8718.0208 C 6346.9782 8627.0208 7251.0214 8521.0065 7522.0214 8528.0065 C 7523.7926 8527.9031 7525.6782 8527.135 7527.4991 8526.7663 C 7577.26 8524.9154 7631.5786 8493.1295 7704.0258 8440.0016 C 7838.0258 8342.0016 7924.9792 8164.9912 7959.9792 8058.9912 C 8052.9792 7788.9912 7974.9843 7698.0203 7748.9843 7710.0203 C 7738.9297 7710.5961 7729.0141 7711.4627 7719.0637 7712.294 C 7385.4773 7716.7337 6796.1734 7785.8982 6369.482 7853.7324 C 6288.0222 7511.6358 6181.4524 7378.523 6688.9973 7115.9997 C 7268.9973 6815.9997 8066.9767 6226.9795 7999.9767 4653.9795 C 7937.1642 3179.292 6795.0777 2115.9745 5305.3609 2137.1305 z " />
   
  
</svg>
