<?xml version="1.0" encoding="UTF-8" standalone="no"?>
<svg
   version="1.2"
   width="100mm"
   height="100mm"
   viewBox="0 0 10000 10000"
   preserveAspectRatio="xMidYMid"
   fill-rule="evenodd"
   stroke-width="28.222"
   stroke-linejoin="round"
   xml:space="preserve"
   id="svg21"
   sodipodi:docname="gobo-caps-03A8.svg"
   inkscape:version="1.4 (86a8ad7, 2024-10-11)"
   xmlns:inkscape="http://www.inkscape.org/namespaces/inkscape"
   xmlns:sodipodi="http://sodipodi.sourceforge.net/DTD/sodipodi-0.dtd"
   xmlns="http://www.w3.org/2000/svg"
   xmlns:svg="http://www.w3.org/2000/svg"
   xmlns:ooo="http://xml.openoffice.org/svg/export"><sodipodi:namedview
   id="namedview21"
   pagecolor="#ffffff"
   bordercolor="#000000"
   borderopacity="0.25"
   inkscape:showpageshadow="2"
   inkscape:pageopacity="0.0"
   inkscape:pagecheckerboard="0"
   inkscape:deskcolor="#d1d1d1"
   inkscape:document-units="mm"
   showgrid="false"
   inkscape:zoom="3.0876875"
   inkscape:cx="188.81444"
   inkscape:cy="188.97638"
   inkscape:window-width="2560"
   inkscape:window-height="1369"
   inkscape:window-x="-8"
   inkscape:window-y="-8"
   inkscape:window-maximized="1"
   inkscape:current-layer="svg21" />
 <defs
   class="ClipPathGroup"
   id="defs2">
  
  <clipPath
   id="presentation_clip_path_shrink"
   clipPathUnits="userSpaceOnUse">
   <rect
   x="10"
   y="10"
   width="9980"
   height="9980"
   id="rect2" />
  </clipPath>
 
  
 
   
  
    
   
     
    
      
      
      
      
      
      
     
       
      
       
      
       
      
       
      
       
      
       
      
        
        
       
        
        
       
        
        
       
        
        
       
        
        
       
        
        
       </defs>
 <defs
   class="TextShapeIndex"
   id="defs3">
  <g
   ooo:slide="id1"
   ooo:id-list="id3 id4 id5 id6 id7 id8"
   id="g2" />
 </defs>
 <defs
   class="EmbeddedBulletChars"
   id="defs12">
  <g
   id="bullet-char-template-57356"
   transform="scale(0.00048828125,-0.00048828125)">
   <path
   d="M 580,1141 L 1163,571 580,0 -4,571 580,1141 Z"
   id="path3" />
  </g>
  <g
   id="bullet-char-template-57354"
   transform="scale(0.00048828125,-0.00048828125)">
   <path
   d="M 8,1128 L 1137,1128 1137,0 8,0 8,1128 Z"
   id="path4" />
  </g>
  <g
   id="bullet-char-template-10146"
   transform="scale(0.00048828125,-0.00048828125)">
   <path
   d="M 174,0 L 602,739 174,1481 1456,739 174,0 Z M 1358,739 L 309,1346 659,739 1358,739 Z"
   id="path5" />
  </g>
  <g
   id="bullet-char-template-10132"
   transform="scale(0.00048828125,-0.00048828125)">
   <path
   d="M 2015,739 L 1276,0 717,0 1260,543 174,543 174,936 1260,936 717,1481 1274,1481 2015,739 Z"
   id="path6" />
  </g>
  <g
   id="bullet-char-template-10007"
   transform="scale(0.00048828125,-0.00048828125)">
   <path
   d="M 0,-2 C -7,14 -16,27 -25,37 L 356,567 C 262,823 215,952 215,954 215,979 228,992 255,992 264,992 276,990 289,987 310,991 331,999 354,1012 L 381,999 492,748 772,1049 836,1024 860,1049 C 881,1039 901,1025 922,1006 886,937 835,863 770,784 769,783 710,716 594,584 L 774,223 C 774,196 753,168 711,139 L 727,119 C 717,90 699,76 672,76 641,76 570,178 457,381 L 164,-76 C 142,-110 111,-127 72,-127 30,-127 9,-110 8,-76 1,-67 -2,-52 -2,-32 -2,-23 -1,-13 0,-2 Z"
   id="path7" />
  </g>
  <g
   id="bullet-char-template-10004"
   transform="scale(0.00048828125,-0.00048828125)">
   <path
   d="M 285,-33 C 182,-33 111,30 74,156 52,228 41,333 41,471 41,549 55,616 82,672 116,743 169,778 240,778 293,778 328,747 346,684 L 369,508 C 377,444 397,411 428,410 L 1163,1116 C 1174,1127 1196,1133 1229,1133 1271,1133 1292,1118 1292,1087 L 1292,965 C 1292,929 1282,901 1262,881 L 442,47 C 390,-6 338,-33 285,-33 Z"
   id="path8" />
  </g>
  <g
   id="bullet-char-template-9679"
   transform="scale(0.00048828125,-0.00048828125)">
   <path
   d="M 813,0 C 632,0 489,54 383,161 276,268 223,411 223,592 223,773 276,916 383,1023 489,1130 632,1184 813,1184 992,1184 1136,1130 1245,1023 1353,916 1407,772 1407,592 1407,412 1353,268 1245,161 1136,54 992,0 813,0 Z"
   id="path9" />
  </g>
  <g
   id="bullet-char-template-8226"
   transform="scale(0.00048828125,-0.00048828125)">
   <path
   d="M 346,457 C 273,457 209,483 155,535 101,586 74,649 74,723 74,796 101,859 155,911 209,963 273,989 346,989 419,989 480,963 531,910 582,859 608,796 608,723 608,648 583,586 532,535 482,483 420,457 346,457 Z"
   id="path10" />
  </g>
  <g
   id="bullet-char-template-8211"
   transform="scale(0.00048828125,-0.00048828125)">
   <path
   d="M -4,459 L 1135,459 1135,606 -4,606 -4,459 Z"
   id="path11" />
  </g>
  <g
   id="bullet-char-template-61548"
   transform="scale(0.00048828125,-0.00048828125)">
   <path
   d="M 173,740 C 173,903 231,1043 346,1159 462,1274 601,1332 765,1332 928,1332 1067,1274 1183,1159 1299,1043 1357,903 1357,740 1357,577 1299,437 1183,322 1067,206 928,148 765,148 601,148 462,206 346,322 231,437 173,577 173,740 Z"
   id="path12" />
  </g>
 </defs>
 
 <path
   id="path13"
   d="M 7352.9878 1982.9797 C 7339.9219 1982.9065 7326.2584 1983.2632 7312.0084 1984.0132 C 7086.0084 1997.0132 6881.9765 2074.0167 6860.9765 2223.0167 C 6853.8607 2271.5339 6851.5834 2330.1103 6855.0337 2390.9652 C 6854.2563 2402.159 6854.2698 2413.49 6856.0156 2425.0199 C 6899.0156 2709.0199 6887.9827 4475.0253 6928.9827 5426.0253 C 6965.5098 6273.2753 6192.2525 6648.137 5330.1656 6712.9752 C 5308.6948 6307.6353 5288.3968 5898.8005 5279.9878 5580.0211 C 5253.9878 4743.0211 5329.0207 2692.9814 5375.0207 2335.9814 C 5375.3511 2332.6224 5374.8709 2329.4779 5374.1422 2326.4213 C 5378.2296 2191.8028 5291.9272 2144.3587 5123.9766 2153.977 C 4902.9579 2165.7125 4703.1033 2239.6632 4674.7534 2383.2137 C 4673.265 2386.1185 4672.2847 2389.0564 4672.0145 2391.9987 C 4671.7658 2395.2701 4671.5874 2402.9428 4671.3427 2406.4681 C 4666.7804 2442.8644 4664.7191 2484.1106 4665.71 2527.546 C 4645.5196 3049.4661 4642.2566 4539.4978 4644.9878 5194.98 C 4646.2945 5508.154 4654.8541 6108.3758 4664.7798 6709.9263 C 3831.7927 6648.9847 3145.572 6368.4581 3157.0166 5407.9903 C 3169.9505 4322.5358 3121.6291 2764.3292 3143.7874 2550.542 C 3164.638 2388.184 3078.9908 2331.3629 2895.9989 2340.994 C 2669.9989 2353.994 2466.0187 2430.9975 2445.0187 2579.9975 C 2435.6731 2643.7174 2434.5352 2724.7525 2444.0368 2805.5652 C 2444.0768 2806.0334 2443.9284 2806.548 2443.9852 2807.0121 C 2460.9852 2946.0121 2527.0209 3928.986 2536.0209 5393.986 C 2544.4692 6769.183 3094.9266 7516.0204 4678.5258 7482.489 C 4686.7029 7911.3194 4694.3928 8270.4354 4699.5581 8427.7542 C 4698.4552 8569.4724 4729.6072 8741.1452 4809.9906 8830.9854 C 4906.9906 8936.9854 4979.0031 8911.0202 5114.0031 8812.0202 C 5248.0031 8714.0202 5334.9899 8536.9917 5370.9899 8431.9917 C 5403.0749 8338.4967 5414.8193 8266.5873 5407.0601 8212.9353 C 5403.3798 8066.5785 5387.2217 7766.407 5368.2511 7423.7329 C 6936.6581 7184.9023 7588.803 6256.8841 7545.9993 4969.9808 C 7500.9996 3617.056 7554.0051 2422.7968 7561.0371 2182.7091 C 7575.5011 2040.8788 7503.9464 1983.8259 7352.9878 1982.9797 z " />
   
  
</svg>
