<?xml version="1.0" encoding="UTF-8" standalone="no"?>
<svg
   version="1.2"
   width="100mm"
   height="100mm"
   viewBox="0 0 10000 10000"
   preserveAspectRatio="xMidYMid"
   fill-rule="evenodd"
   stroke-width="28.222"
   stroke-linejoin="round"
   xml:space="preserve"
   id="svg22"
   sodipodi:docname="gobo-caps-03C3.svg"
   inkscape:version="1.4 (86a8ad7, 2024-10-11)"
   xmlns:inkscape="http://www.inkscape.org/namespaces/inkscape"
   xmlns:sodipodi="http://sodipodi.sourceforge.net/DTD/sodipodi-0.dtd"
   xmlns="http://www.w3.org/2000/svg"
   xmlns:svg="http://www.w3.org/2000/svg"
   xmlns:ooo="http://xml.openoffice.org/svg/export"><sodipodi:namedview
   id="namedview22"
   pagecolor="#ffffff"
   bordercolor="#000000"
   borderopacity="0.25"
   inkscape:showpageshadow="2"
   inkscape:pageopacity="0.0"
   inkscape:pagecheckerboard="0"
   inkscape:deskcolor="#d1d1d1"
   inkscape:document-units="mm"
   showgrid="false"
   inkscape:zoom="3.0876875"
   inkscape:cx="188.81444"
   inkscape:cy="188.97638"
   inkscape:window-width="2560"
   inkscape:window-height="1369"
   inkscape:window-x="-8"
   inkscape:window-y="-8"
   inkscape:window-maximized="1"
   inkscape:current-layer="svg22" />
 <defs
   class="ClipPathGroup"
   id="defs2">
  
  <clipPath
   id="presentation_clip_path_shrink"
   clipPathUnits="userSpaceOnUse">
   <rect
   x="10"
   y="10"
   width="9980"
   height="9980"
   id="rect2" />
  </clipPath>
 
  
 
   
  
    
   
     
    
      
      
      
      
      
      
      
     
       
      
       
      
       
      
       
      
       
      
       
      
       
      
        
        
       
        
        
       
        
        
       
        
        
       
        
        
       
        
        
       
        
        
       </defs>
 <defs
   class="TextShapeIndex"
   id="defs3">
  <g
   ooo:slide="id1"
   ooo:id-list="id3 id4 id5 id6 id7 id8 id9"
   id="g2" />
 </defs>
 <defs
   class="EmbeddedBulletChars"
   id="defs12">
  <g
   id="bullet-char-template-57356"
   transform="scale(0.00048828125,-0.00048828125)">
   <path
   d="M 580,1141 L 1163,571 580,0 -4,571 580,1141 Z"
   id="path3" />
  </g>
  <g
   id="bullet-char-template-57354"
   transform="scale(0.00048828125,-0.00048828125)">
   <path
   d="M 8,1128 L 1137,1128 1137,0 8,0 8,1128 Z"
   id="path4" />
  </g>
  <g
   id="bullet-char-template-10146"
   transform="scale(0.00048828125,-0.00048828125)">
   <path
   d="M 174,0 L 602,739 174,1481 1456,739 174,0 Z M 1358,739 L 309,1346 659,739 1358,739 Z"
   id="path5" />
  </g>
  <g
   id="bullet-char-template-10132"
   transform="scale(0.00048828125,-0.00048828125)">
   <path
   d="M 2015,739 L 1276,0 717,0 1260,543 174,543 174,936 1260,936 717,1481 1274,1481 2015,739 Z"
   id="path6" />
  </g>
  <g
   id="bullet-char-template-10007"
   transform="scale(0.00048828125,-0.00048828125)">
   <path
   d="M 0,-2 C -7,14 -16,27 -25,37 L 356,567 C 262,823 215,952 215,954 215,979 228,992 255,992 264,992 276,990 289,987 310,991 331,999 354,1012 L 381,999 492,748 772,1049 836,1024 860,1049 C 881,1039 901,1025 922,1006 886,937 835,863 770,784 769,783 710,716 594,584 L 774,223 C 774,196 753,168 711,139 L 727,119 C 717,90 699,76 672,76 641,76 570,178 457,381 L 164,-76 C 142,-110 111,-127 72,-127 30,-127 9,-110 8,-76 1,-67 -2,-52 -2,-32 -2,-23 -1,-13 0,-2 Z"
   id="path7" />
  </g>
  <g
   id="bullet-char-template-10004"
   transform="scale(0.00048828125,-0.00048828125)">
   <path
   d="M 285,-33 C 182,-33 111,30 74,156 52,228 41,333 41,471 41,549 55,616 82,672 116,743 169,778 240,778 293,778 328,747 346,684 L 369,508 C 377,444 397,411 428,410 L 1163,1116 C 1174,1127 1196,1133 1229,1133 1271,1133 1292,1118 1292,1087 L 1292,965 C 1292,929 1282,901 1262,881 L 442,47 C 390,-6 338,-33 285,-33 Z"
   id="path8" />
  </g>
  <g
   id="bullet-char-template-9679"
   transform="scale(0.00048828125,-0.00048828125)">
   <path
   d="M 813,0 C 632,0 489,54 383,161 276,268 223,411 223,592 223,773 276,916 383,1023 489,1130 632,1184 813,1184 992,1184 1136,1130 1245,1023 1353,916 1407,772 1407,592 1407,412 1353,268 1245,161 1136,54 992,0 813,0 Z"
   id="path9" />
  </g>
  <g
   id="bullet-char-template-8226"
   transform="scale(0.00048828125,-0.00048828125)">
   <path
   d="M 346,457 C 273,457 209,483 155,535 101,586 74,649 74,723 74,796 101,859 155,911 209,963 273,989 346,989 419,989 480,963 531,910 582,859 608,796 608,723 608,648 583,586 532,535 482,483 420,457 346,457 Z"
   id="path10" />
  </g>
  <g
   id="bullet-char-template-8211"
   transform="scale(0.00048828125,-0.00048828125)">
   <path
   d="M -4,459 L 1135,459 1135,606 -4,606 -4,459 Z"
   id="path11" />
  </g>
  <g
   id="bullet-char-template-61548"
   transform="scale(0.00048828125,-0.00048828125)">
   <path
   d="M 173,740 C 173,903 231,1043 346,1159 462,1274 601,1332 765,1332 928,1332 1067,1274 1183,1159 1299,1043 1357,903 1357,740 1357,577 1299,437 1183,322 1067,206 928,148 765,148 601,148 462,206 346,322 231,437 173,577 173,740 Z"
   id="path12" />
  </g>
 </defs>
 
 <path
   id="path13"
   d="M 6406.0172 3098.9839 C 6179.0172 3100.9839 5576.9887 3107.0184 4755.9887 3211.0184 C 3999.2124 3305.154 3478.6157 3401.0552 2972.6867 3498.5978 C 2773.3094 3521.4008 2605.0043 3597.1233 2585.992 3732.0202 C 2565.6647 3864.5898 2581.3372 4072.0337 2655.6518 4196.488 C 2659.77 4204.4346 2663.8614 4212.3753 2668.9844 4220.0008 C 2885.9844 4543.0008 3139.9742 5114.9989 3258.9742 5435.9989 C 3377.9742 5756.9989 3357.0215 5856.9774 3245.0215 6168.9774 C 3133.0215 6480.9774 2766.9782 7266.0067 2600.9782 7594.0067 C 2592.3378 7611.0793 2586.305 7627.9775 2581.7029 7644.753 C 2576.6116 7657.5404 2572.988 7670.9453 2571.0058 7685.0089 C 2548.0058 7835.0089 2571.0151 8081.0217 2673.0151 8194.0217 C 2726.6603 8252.6443 2772.6738 8270.8126 2826.0807 8258.669 C 2829.0513 8259.6363 2832.0555 8259.8755 2835.0207 8258.979 C 3176.0207 8174.979 3944.0121 7967.9758 4712.0121 7888.9758 C 5469.718 7811.8203 5911.4348 7809.1482 6121.2801 7820.7112 C 6175.6821 7826.0096 6234.0083 7792.9663 6315.015 7733.9982 C 6448.015 7635.9982 6535.0201 7458.9878 6571.0201 7352.9878 C 6664.0201 7083.9878 6586.0098 6991.9987 6358.0098 7004.9987 C 6343.3184 7005.8438 6328.7449 7007.0212 6314.2915 7008.4094 C 6063.6132 7015.535 5514.6108 7065.8861 4740.0207 7164.0071 C 4203.5542 7230.7383 3785.9538 7298.3422 3407.9057 7366.7854 C 3579.5545 6898.5581 3779.4619 6290.2255 3852.9948 6050.0183 C 3957.9948 5707.0183 4015.9935 5350.9965 3872.9935 5008.9965 C 3786.7952 4802.844 3641.2983 4461.4635 3508.7264 4146.0001 C 3864.9844 4065.0719 4295.0589 3980.1012 4727.9801 3935.0053 C 5494.9801 3857.0053 5932.0232 3905.0037 6138.0232 3918.0037 C 6138.5982 3918.0303 6139.2929 3917.7138 6139.8836 3917.6937 C 6194.404 3923.2008 6252.768 3890.0984 6333.9803 3830.9806 C 6466.9803 3732.9806 6553.9853 3556.0219 6589.9853 3450.0219 C 6676.648 3199.3524 6614.7911 3102.3766 6421.4685 3100.8443 C 6416.5833 3099.8676 6411.6376 3098.9839 6406.0172 3098.9839 z " />
   
  
</svg>
