<?xml version="1.0" encoding="UTF-8" standalone="no"?>
<svg
   version="1.2"
   width="100mm"
   height="100mm"
   viewBox="0 0 10000 10000"
   preserveAspectRatio="xMidYMid"
   fill-rule="evenodd"
   stroke-width="28.222"
   stroke-linejoin="round"
   xml:space="preserve"
   id="svg25"
   sodipodi:docname="gobo-caps-038F.svg"
   inkscape:version="1.4 (86a8ad7, 2024-10-11)"
   xmlns:inkscape="http://www.inkscape.org/namespaces/inkscape"
   xmlns:sodipodi="http://sodipodi.sourceforge.net/DTD/sodipodi-0.dtd"
   xmlns="http://www.w3.org/2000/svg"
   xmlns:svg="http://www.w3.org/2000/svg"
   xmlns:ooo="http://xml.openoffice.org/svg/export"><sodipodi:namedview
   id="namedview25"
   pagecolor="#ffffff"
   bordercolor="#000000"
   borderopacity="0.25"
   inkscape:showpageshadow="2"
   inkscape:pageopacity="0.0"
   inkscape:pagecheckerboard="0"
   inkscape:deskcolor="#d1d1d1"
   inkscape:document-units="mm"
   showgrid="false"
   inkscape:zoom="3.0876875"
   inkscape:cx="188.81444"
   inkscape:cy="188.97638"
   inkscape:window-width="2560"
   inkscape:window-height="1369"
   inkscape:window-x="-8"
   inkscape:window-y="-8"
   inkscape:window-maximized="1"
   inkscape:current-layer="svg25" />
 <defs
   class="ClipPathGroup"
   id="defs2">
  
  <clipPath
   id="presentation_clip_path_shrink"
   clipPathUnits="userSpaceOnUse">
   <rect
   x="10"
   y="10"
   width="9980"
   height="9980"
   id="rect2" />
  </clipPath>
 
  
 
   
  
    
   
     
    
      
      
      
      
      
      
      
      
      
      
     
       
      
       
      
       
      
       
      
       
      
       
      
       
      
       
      
       
      
       
      
        
        
       
        
        
       
        
        
       
        
        
       
        
        
       
        
        
       
        
        
       
        
        
       
        
        
       
        
        
       </defs>
 <defs
   class="TextShapeIndex"
   id="defs3">
  <g
   ooo:slide="id1"
   ooo:id-list="id3 id4 id5 id6 id7 id8 id9 id10 id11 id12"
   id="g2" />
 </defs>
 <defs
   class="EmbeddedBulletChars"
   id="defs12">
  <g
   id="bullet-char-template-57356"
   transform="scale(0.00048828125,-0.00048828125)">
   <path
   d="M 580,1141 L 1163,571 580,0 -4,571 580,1141 Z"
   id="path3" />
  </g>
  <g
   id="bullet-char-template-57354"
   transform="scale(0.00048828125,-0.00048828125)">
   <path
   d="M 8,1128 L 1137,1128 1137,0 8,0 8,1128 Z"
   id="path4" />
  </g>
  <g
   id="bullet-char-template-10146"
   transform="scale(0.00048828125,-0.00048828125)">
   <path
   d="M 174,0 L 602,739 174,1481 1456,739 174,0 Z M 1358,739 L 309,1346 659,739 1358,739 Z"
   id="path5" />
  </g>
  <g
   id="bullet-char-template-10132"
   transform="scale(0.00048828125,-0.00048828125)">
   <path
   d="M 2015,739 L 1276,0 717,0 1260,543 174,543 174,936 1260,936 717,1481 1274,1481 2015,739 Z"
   id="path6" />
  </g>
  <g
   id="bullet-char-template-10007"
   transform="scale(0.00048828125,-0.00048828125)">
   <path
   d="M 0,-2 C -7,14 -16,27 -25,37 L 356,567 C 262,823 215,952 215,954 215,979 228,992 255,992 264,992 276,990 289,987 310,991 331,999 354,1012 L 381,999 492,748 772,1049 836,1024 860,1049 C 881,1039 901,1025 922,1006 886,937 835,863 770,784 769,783 710,716 594,584 L 774,223 C 774,196 753,168 711,139 L 727,119 C 717,90 699,76 672,76 641,76 570,178 457,381 L 164,-76 C 142,-110 111,-127 72,-127 30,-127 9,-110 8,-76 1,-67 -2,-52 -2,-32 -2,-23 -1,-13 0,-2 Z"
   id="path7" />
  </g>
  <g
   id="bullet-char-template-10004"
   transform="scale(0.00048828125,-0.00048828125)">
   <path
   d="M 285,-33 C 182,-33 111,30 74,156 52,228 41,333 41,471 41,549 55,616 82,672 116,743 169,778 240,778 293,778 328,747 346,684 L 369,508 C 377,444 397,411 428,410 L 1163,1116 C 1174,1127 1196,1133 1229,1133 1271,1133 1292,1118 1292,1087 L 1292,965 C 1292,929 1282,901 1262,881 L 442,47 C 390,-6 338,-33 285,-33 Z"
   id="path8" />
  </g>
  <g
   id="bullet-char-template-9679"
   transform="scale(0.00048828125,-0.00048828125)">
   <path
   d="M 813,0 C 632,0 489,54 383,161 276,268 223,411 223,592 223,773 276,916 383,1023 489,1130 632,1184 813,1184 992,1184 1136,1130 1245,1023 1353,916 1407,772 1407,592 1407,412 1353,268 1245,161 1136,54 992,0 813,0 Z"
   id="path9" />
  </g>
  <g
   id="bullet-char-template-8226"
   transform="scale(0.00048828125,-0.00048828125)">
   <path
   d="M 346,457 C 273,457 209,483 155,535 101,586 74,649 74,723 74,796 101,859 155,911 209,963 273,989 346,989 419,989 480,963 531,910 582,859 608,796 608,723 608,648 583,586 532,535 482,483 420,457 346,457 Z"
   id="path10" />
  </g>
  <g
   id="bullet-char-template-8211"
   transform="scale(0.00048828125,-0.00048828125)">
   <path
   d="M -4,459 L 1135,459 1135,606 -4,606 -4,459 Z"
   id="path11" />
  </g>
  <g
   id="bullet-char-template-61548"
   transform="scale(0.00048828125,-0.00048828125)">
   <path
   d="M 173,740 C 173,903 231,1043 346,1159 462,1274 601,1332 765,1332 928,1332 1067,1274 1183,1159 1299,1043 1357,903 1357,740 1357,577 1299,437 1183,322 1067,206 928,148 765,148 601,148 462,206 346,322 231,437 173,577 173,740 Z"
   id="path12" />
  </g>
 </defs>
 
 <path
   id="path13"
   d="M 5905.7893 400.80241 C 5892.7713 400.79118 5879.2041 401.17846 5865.0166 401.99096 C 5691.6479 411.19638 5531.3108 458.71056 5456.5144 548.02856 C 5451.5131 552.51138 5447.2699 557.77873 5444.0087 563.99658 C 5443.5552 564.8792 5442.8907 565.92943 5442.4068 566.83878 C 5438.5502 572.67652 5435.0727 578.71755 5431.9165 584.87386 C 5335.2325 740.76928 4943.2714 1154.868 4826.217 1291.0323 C 4822.2985 1295.3128 4818.4938 1299.8767 4814.6932 1304.4165 C 4811.4593 1308.2735 4805.5834 1314.8182 4803.0143 1318.0074 C 4800.7967 1320.7603 4798.8249 1323.9581 4796.9165 1327.2058 C 4783.2731 1345.9069 4770.2702 1366.2958 4758.0041 1389.0108 C 4676.0041 1540.0108 4688.9761 1751.0135 4750.9761 1853.0135 C 4806.5832 1944.4962 4924.9005 1918.4048 5032.406 1855.804 C 5203.2556 1770.5672 5891.5007 1137.8253 5983.9758 945.98876 C 5984.0168 945.90415 5984.0384 945.81504 5984.0791 945.73038 C 6027.6692 875.26445 6058.7695 803.63915 6076.9934 749.98006 C 6164.1809 495.91756 6101.0603 400.97086 5905.7893 400.80241 z M 5304.379 2137.1305 C 5205.0646 2138.5409 5104.2077 2144.7424 5002.0202 2155.9924 C 3366.0202 2336.9924 2110.0093 3528.0191 2007.0093 5190.0191 C 1904.0093 6852.0191 2722.9887 7449.0012 3317.9887 7600.0012 C 3769.0798 7714.4797 3718.433 7942.7915 3651.405 8179.8624 C 3185.2353 8219.2806 2586.0855 8305.5984 2311.6935 8366.4143 C 2297.0473 8369.3535 2282.7182 8372.5889 2268.6987 8376.1812 C 2267.5865 8376.4517 2266.0747 8376.7387 2264.978 8377.008 C 2264.7981 8377.054 2264.6408 8377.1674 2264.4612 8377.2147 C 2125.4307 8413.6692 2020.6908 8482.6138 2005.9757 8587.021 C 1983.9757 8737.021 2007.0185 8982.9822 2109.0185 9095.9822 C 2154.8108 9146.4953 2195.0255 9167.0932 2238.9331 9164.4018 C 2241.2773 9164.7036 2243.604 9165.2704 2246.0128 9165.0219 C 2649.0128 9074.0219 3553.0043 8968.0077 3824.0043 8975.0077 C 3825.7847 8974.9037 3827.7029 8974.1394 3829.5337 8973.7674 C 3879.2828 8971.8998 3933.5824 8940.1153 4006.0087 8887.0027 C 4140.0087 8789.0027 4227.0137 8611.9924 4262.0137 8505.9924 C 4278.7737 8457.3343 4289.8678 8414.5873 4295.6551 8377.1113 C 4295.7049 8376.7176 4295.9709 8376.369 4296.0168 8375.9745 C 4296.1172 8375.1008 4296.2264 8374.1105 4296.3269 8373.2356 C 4297.7691 8363.3572 4298.6983 8353.9417 4299.3758 8344.8136 C 4359.841 7815.7132 4429.0581 7083.9426 3750.9855 6871.9836 C 3059.9855 6655.9836 2589.9951 6324.976 2619.9951 5049.976 C 2649.9951 3774.976 3582.0051 3113.9808 4869.0051 2896.9808 C 6156.0051 2679.9808 7256.9823 3745.0165 7358.9823 4894.0165 C 7460.9823 6043.0165 7027.9942 6198.9831 6486.9942 6498.9831 C 5945.9942 6798.9831 5507.9747 7433.976 5704.9747 8392.976 C 5705.1937 8394.1243 5705.9642 8394.9465 5706.215 8396.0766 C 5721.2558 8494.8941 5752.7968 8590.0378 5806.0022 8648.9811 C 5851.7925 8699.4921 5892.0112 8720.0901 5935.9167 8717.4006 C 5938.2609 8717.7025 5940.5876 8718.2693 5942.9964 8718.0208 C 6345.9964 8627.0208 7249.9879 8521.0065 7520.9879 8528.0065 C 7522.7683 8527.9026 7524.6865 8527.1383 7526.5173 8526.7663 C 7576.2781 8524.9154 7630.5451 8493.1295 7702.9923 8440.0016 C 7836.9923 8342.0016 7923.9973 8164.9912 7958.9973 8058.9912 C 8051.9973 7788.9912 7974.0025 7698.0203 7748.0025 7710.0203 C 7737.9428 7710.5964 7727.9855 7711.4621 7718.0301 7712.294 C 7384.4412 7716.7354 6795.1857 7785.8991 6368.5001 7853.7324 C 6287.0403 7511.6358 6180.4705 7378.523 6688.0155 7115.9997 C 7268.0155 6815.9997 8065.9949 6226.9795 7998.9949 4653.9795 C 7936.1824 3179.292 6794.0958 2115.9745 5304.379 2137.1305 z " />
   
  
</svg>
