<?xml version="1.0" encoding="UTF-8" standalone="no"?>
<svg
   version="1.2"
   width="100mm"
   height="100mm"
   viewBox="0 0 10000 10000"
   preserveAspectRatio="xMidYMid"
   fill-rule="evenodd"
   stroke-width="28.222"
   stroke-linejoin="round"
   xml:space="preserve"
   id="svg25"
   sodipodi:docname="gobo-caps-03CE.svg"
   inkscape:version="1.4 (86a8ad7, 2024-10-11)"
   xmlns:inkscape="http://www.inkscape.org/namespaces/inkscape"
   xmlns:sodipodi="http://sodipodi.sourceforge.net/DTD/sodipodi-0.dtd"
   xmlns="http://www.w3.org/2000/svg"
   xmlns:svg="http://www.w3.org/2000/svg"
   xmlns:ooo="http://xml.openoffice.org/svg/export"><sodipodi:namedview
   id="namedview25"
   pagecolor="#ffffff"
   bordercolor="#000000"
   borderopacity="0.25"
   inkscape:showpageshadow="2"
   inkscape:pageopacity="0.0"
   inkscape:pagecheckerboard="0"
   inkscape:deskcolor="#d1d1d1"
   inkscape:document-units="mm"
   showgrid="false"
   inkscape:zoom="3.0876875"
   inkscape:cx="188.81444"
   inkscape:cy="188.97638"
   inkscape:window-width="2560"
   inkscape:window-height="1369"
   inkscape:window-x="-8"
   inkscape:window-y="-8"
   inkscape:window-maximized="1"
   inkscape:current-layer="svg25" />
 <defs
   class="ClipPathGroup"
   id="defs2">
  
  <clipPath
   id="presentation_clip_path_shrink"
   clipPathUnits="userSpaceOnUse">
   <rect
   x="10"
   y="10"
   width="9980"
   height="9980"
   id="rect2" />
  </clipPath>
 
  
 
   
  
    
   
     
    
      
      
      
      
      
      
      
      
      
      
     
       
      
       
      
       
      
       
      
       
      
       
      
       
      
       
      
       
      
       
      
        
        
       
        
        
       
        
        
       
        
        
       
        
        
       
        
        
       
        
        
       
        
        
       
        
        
       
        
        
       </defs>
 <defs
   class="TextShapeIndex"
   id="defs3">
  <g
   ooo:slide="id1"
   ooo:id-list="id3 id4 id5 id6 id7 id8 id9 id10 id11 id12"
   id="g2" />
 </defs>
 <defs
   class="EmbeddedBulletChars"
   id="defs12">
  <g
   id="bullet-char-template-57356"
   transform="scale(0.00048828125,-0.00048828125)">
   <path
   d="M 580,1141 L 1163,571 580,0 -4,571 580,1141 Z"
   id="path3" />
  </g>
  <g
   id="bullet-char-template-57354"
   transform="scale(0.00048828125,-0.00048828125)">
   <path
   d="M 8,1128 L 1137,1128 1137,0 8,0 8,1128 Z"
   id="path4" />
  </g>
  <g
   id="bullet-char-template-10146"
   transform="scale(0.00048828125,-0.00048828125)">
   <path
   d="M 174,0 L 602,739 174,1481 1456,739 174,0 Z M 1358,739 L 309,1346 659,739 1358,739 Z"
   id="path5" />
  </g>
  <g
   id="bullet-char-template-10132"
   transform="scale(0.00048828125,-0.00048828125)">
   <path
   d="M 2015,739 L 1276,0 717,0 1260,543 174,543 174,936 1260,936 717,1481 1274,1481 2015,739 Z"
   id="path6" />
  </g>
  <g
   id="bullet-char-template-10007"
   transform="scale(0.00048828125,-0.00048828125)">
   <path
   d="M 0,-2 C -7,14 -16,27 -25,37 L 356,567 C 262,823 215,952 215,954 215,979 228,992 255,992 264,992 276,990 289,987 310,991 331,999 354,1012 L 381,999 492,748 772,1049 836,1024 860,1049 C 881,1039 901,1025 922,1006 886,937 835,863 770,784 769,783 710,716 594,584 L 774,223 C 774,196 753,168 711,139 L 727,119 C 717,90 699,76 672,76 641,76 570,178 457,381 L 164,-76 C 142,-110 111,-127 72,-127 30,-127 9,-110 8,-76 1,-67 -2,-52 -2,-32 -2,-23 -1,-13 0,-2 Z"
   id="path7" />
  </g>
  <g
   id="bullet-char-template-10004"
   transform="scale(0.00048828125,-0.00048828125)">
   <path
   d="M 285,-33 C 182,-33 111,30 74,156 52,228 41,333 41,471 41,549 55,616 82,672 116,743 169,778 240,778 293,778 328,747 346,684 L 369,508 C 377,444 397,411 428,410 L 1163,1116 C 1174,1127 1196,1133 1229,1133 1271,1133 1292,1118 1292,1087 L 1292,965 C 1292,929 1282,901 1262,881 L 442,47 C 390,-6 338,-33 285,-33 Z"
   id="path8" />
  </g>
  <g
   id="bullet-char-template-9679"
   transform="scale(0.00048828125,-0.00048828125)">
   <path
   d="M 813,0 C 632,0 489,54 383,161 276,268 223,411 223,592 223,773 276,916 383,1023 489,1130 632,1184 813,1184 992,1184 1136,1130 1245,1023 1353,916 1407,772 1407,592 1407,412 1353,268 1245,161 1136,54 992,0 813,0 Z"
   id="path9" />
  </g>
  <g
   id="bullet-char-template-8226"
   transform="scale(0.00048828125,-0.00048828125)">
   <path
   d="M 346,457 C 273,457 209,483 155,535 101,586 74,649 74,723 74,796 101,859 155,911 209,963 273,989 346,989 419,989 480,963 531,910 582,859 608,796 608,723 608,648 583,586 532,535 482,483 420,457 346,457 Z"
   id="path10" />
  </g>
  <g
   id="bullet-char-template-8211"
   transform="scale(0.00048828125,-0.00048828125)">
   <path
   d="M -4,459 L 1135,459 1135,606 -4,606 -4,459 Z"
   id="path11" />
  </g>
  <g
   id="bullet-char-template-61548"
   transform="scale(0.00048828125,-0.00048828125)">
   <path
   d="M 173,740 C 173,903 231,1043 346,1159 462,1274 601,1332 765,1332 928,1332 1067,1274 1183,1159 1299,1043 1357,903 1357,740 1357,577 1299,437 1183,322 1067,206 928,148 765,148 601,148 462,206 346,322 231,437 173,577 173,740 Z"
   id="path12" />
  </g>
 </defs>
 
 <path
   id="path13"
   d="M 5889.8213 1387.7706 C 5876.8033 1387.7593 5863.1844 1388.1983 5848.9969 1389.0108 C 5675.6119 1398.2171 5515.282 1445.7141 5440.4948 1535.0484 C 5435.4934 1539.5312 5431.2502 1544.7986 5427.9891 1551.0164 C 5427.5097 1551.9493 5426.797 1553.0509 5426.2837 1554.0137 C 5422.4485 1559.8314 5418.9852 1565.8115 5415.8451 1571.9454 C 5319.0907 1727.8983 4927.2071 2141.934 4810.1973 2278.0521 C 4806.6193 2281.9608 4803.1349 2286.1232 4799.6553 2290.2478 C 4796.0916 2294.4872 4789.7792 2301.5188 4786.9946 2304.9756 C 4784.7867 2307.7164 4782.8499 2310.8909 4780.9484 2314.1223 C 4767.2802 2332.8478 4754.2707 2353.2266 4741.9844 2375.979 C 4659.9844 2526.979 4673.0081 2737.9817 4735.0081 2839.9817 C 4790.5717 2931.3928 4908.7412 2905.4217 5016.1796 2842.9272 C 5186.6437 2758.1408 5875.4915 2124.9306 5968.0078 1933.0086 C 5968.0755 1932.8689 5968.1474 1932.735 5968.2145 1932.5952 C 6011.7634 1862.1701 6042.8124 1790.6269 6061.0253 1736.9999 C 6148.2128 1482.9374 6085.0923 1387.939 5889.8213 1387.7706 z M 5254.873 3129.2147 C 5172.1396 3130.2657 5088.1271 3134.8248 5003.0021 3143.0123 C 3639.0021 3274.0123 2592.9787 4137.0176 2506.9787 5341.0176 C 2420.9787 6545.0176 3130.0177 7042.9997 3604.0177 7115.9997 C 3824.0951 7149.8935 3888.6105 7228.7747 3896.713 7318.4163 C 3501.8903 7353.7666 3049.3281 7423.9584 2801.7411 7480.7836 C 2796.1952 7481.9767 2790.7627 7483.2672 2785.308 7484.556 C 2779.0815 7486.0245 2771.9125 7487.5526 2765.981 7489.0002 C 2764.5936 7489.3641 2763.2607 7489.8996 2761.8986 7490.3438 C 2625.1121 7527.1015 2522.5685 7595.7335 2508.0123 7699.0132 C 2486.0123 7849.0132 2509.0034 8094.9744 2611.0034 8207.9744 C 2656.3639 8258.0113 2696.2521 8278.7786 2739.6777 8276.549 C 2742.4131 8277.022 2745.1727 8277.281 2747.9976 8277.0141 C 3150.9976 8187.0141 3820.0164 8105.9931 4091.0164 8112.9931 C 4094.4316 8112.7687 4097.9625 8111.9166 4101.5584 8110.7193 C 4148.0819 8104.6502 4199.351 8073.8588 4265.9928 8024.9881 C 4399.9928 7926.9881 4486.9978 7749.9778 4521.9978 7643.9778 C 4535.0399 7606.1139 4544.6088 7571.9163 4550.9883 7540.8833 C 4553.5707 7531.3113 4555.6082 7521.3714 4556.9828 7511.0143 C 4599.9828 7187.0143 4582.0195 6587.0117 4125.0195 6412.0117 C 3668.0195 6237.0117 3036.019 6076.0083 3117.019 5239.0083 C 3198.019 4402.0083 3882.982 4023.9951 4781.982 3889.9951 C 5680.982 3755.9951 6668.003 4320.9901 6851.003 5071.9901 C 7034.003 5822.9901 6535.9878 6007.0113 6082.9878 6207.0113 C 5629.9878 6407.0113 5362.006 7031.0193 5447.006 7599.0193 C 5452.3582 7634.785 5459.9479 7665.3588 5469.4336 7691.3134 C 5487.2421 7753.9657 5513.1561 7810.2854 5549.0153 7850.0117 C 5594.3758 7900.0486 5634.264 7920.7642 5677.6896 7918.5347 C 5680.425 7919.0076 5683.1845 7919.2667 5686.0095 7918.9998 C 6089.0095 7828.9998 6757.9766 7747.9788 7028.9766 7754.9788 C 7032.3688 7754.7559 7035.8963 7753.9396 7039.4669 7752.7567 C 7086.0148 7746.7164 7137.3187 7715.9285 7204.0047 7667.0255 C 7338.0047 7569.0255 7425.0097 7392.0152 7460.0097 7286.0152 C 7553.0097 7016.0152 7475.0148 6924.9925 7249.0148 6936.9925 C 7243.725 6937.2955 7238.5163 6937.8075 7233.2535 6938.1811 C 6920.7479 6941.0208 6454.6804 6995.8649 6092.0312 7055.59 C 6073.9547 6961.254 6115.5974 6868.3655 6407.9809 6737.0048 C 6890.9809 6520.0048 7556.0073 6092.9793 7500.0073 4952.9793 C 7447.5073 3884.2293 6495.874 3113.4493 5254.873 3129.2147 z " />
   
  
</svg>
