<?xml version="1.0" encoding="UTF-8" standalone="no"?>
<svg
   version="1.2"
   width="100mm"
   height="100mm"
   viewBox="0 0 10000 10000"
   preserveAspectRatio="xMidYMid"
   fill-rule="evenodd"
   stroke-width="28.222"
   stroke-linejoin="round"
   xml:space="preserve"
   id="svg24"
   sodipodi:docname="gobo-caps-03BE.svg"
   inkscape:version="1.4 (86a8ad7, 2024-10-11)"
   xmlns:inkscape="http://www.inkscape.org/namespaces/inkscape"
   xmlns:sodipodi="http://sodipodi.sourceforge.net/DTD/sodipodi-0.dtd"
   xmlns="http://www.w3.org/2000/svg"
   xmlns:svg="http://www.w3.org/2000/svg"
   xmlns:ooo="http://xml.openoffice.org/svg/export"><sodipodi:namedview
   id="namedview24"
   pagecolor="#ffffff"
   bordercolor="#000000"
   borderopacity="0.25"
   inkscape:showpageshadow="2"
   inkscape:pageopacity="0.0"
   inkscape:pagecheckerboard="0"
   inkscape:deskcolor="#d1d1d1"
   inkscape:document-units="mm"
   showgrid="false"
   inkscape:zoom="3.0876875"
   inkscape:cx="188.81444"
   inkscape:cy="188.97638"
   inkscape:window-width="2560"
   inkscape:window-height="1369"
   inkscape:window-x="-8"
   inkscape:window-y="-8"
   inkscape:window-maximized="1"
   inkscape:current-layer="svg24" />
 <defs
   class="ClipPathGroup"
   id="defs2">
  
  <clipPath
   id="presentation_clip_path_shrink"
   clipPathUnits="userSpaceOnUse">
   <rect
   x="10"
   y="10"
   width="9980"
   height="9980"
   id="rect2" />
  </clipPath>
 
  
 
   
  
    
   
     
    
      
      
      
      
      
      
      
      
      
     
       
      
       
      
       
      
       
      
       
      
       
      
       
      
       
      
       
      
        
        
       
        
        
       
        
        
       
        
        
       
        
        
       
        
        
       
        
        
       
        
        
       
        
        
       </defs>
 <defs
   class="TextShapeIndex"
   id="defs3">
  <g
   ooo:slide="id1"
   ooo:id-list="id3 id4 id5 id6 id7 id8 id9 id10 id11"
   id="g2" />
 </defs>
 <defs
   class="EmbeddedBulletChars"
   id="defs12">
  <g
   id="bullet-char-template-57356"
   transform="scale(0.00048828125,-0.00048828125)">
   <path
   d="M 580,1141 L 1163,571 580,0 -4,571 580,1141 Z"
   id="path3" />
  </g>
  <g
   id="bullet-char-template-57354"
   transform="scale(0.00048828125,-0.00048828125)">
   <path
   d="M 8,1128 L 1137,1128 1137,0 8,0 8,1128 Z"
   id="path4" />
  </g>
  <g
   id="bullet-char-template-10146"
   transform="scale(0.00048828125,-0.00048828125)">
   <path
   d="M 174,0 L 602,739 174,1481 1456,739 174,0 Z M 1358,739 L 309,1346 659,739 1358,739 Z"
   id="path5" />
  </g>
  <g
   id="bullet-char-template-10132"
   transform="scale(0.00048828125,-0.00048828125)">
   <path
   d="M 2015,739 L 1276,0 717,0 1260,543 174,543 174,936 1260,936 717,1481 1274,1481 2015,739 Z"
   id="path6" />
  </g>
  <g
   id="bullet-char-template-10007"
   transform="scale(0.00048828125,-0.00048828125)">
   <path
   d="M 0,-2 C -7,14 -16,27 -25,37 L 356,567 C 262,823 215,952 215,954 215,979 228,992 255,992 264,992 276,990 289,987 310,991 331,999 354,1012 L 381,999 492,748 772,1049 836,1024 860,1049 C 881,1039 901,1025 922,1006 886,937 835,863 770,784 769,783 710,716 594,584 L 774,223 C 774,196 753,168 711,139 L 727,119 C 717,90 699,76 672,76 641,76 570,178 457,381 L 164,-76 C 142,-110 111,-127 72,-127 30,-127 9,-110 8,-76 1,-67 -2,-52 -2,-32 -2,-23 -1,-13 0,-2 Z"
   id="path7" />
  </g>
  <g
   id="bullet-char-template-10004"
   transform="scale(0.00048828125,-0.00048828125)">
   <path
   d="M 285,-33 C 182,-33 111,30 74,156 52,228 41,333 41,471 41,549 55,616 82,672 116,743 169,778 240,778 293,778 328,747 346,684 L 369,508 C 377,444 397,411 428,410 L 1163,1116 C 1174,1127 1196,1133 1229,1133 1271,1133 1292,1118 1292,1087 L 1292,965 C 1292,929 1282,901 1262,881 L 442,47 C 390,-6 338,-33 285,-33 Z"
   id="path8" />
  </g>
  <g
   id="bullet-char-template-9679"
   transform="scale(0.00048828125,-0.00048828125)">
   <path
   d="M 813,0 C 632,0 489,54 383,161 276,268 223,411 223,592 223,773 276,916 383,1023 489,1130 632,1184 813,1184 992,1184 1136,1130 1245,1023 1353,916 1407,772 1407,592 1407,412 1353,268 1245,161 1136,54 992,0 813,0 Z"
   id="path9" />
  </g>
  <g
   id="bullet-char-template-8226"
   transform="scale(0.00048828125,-0.00048828125)">
   <path
   d="M 346,457 C 273,457 209,483 155,535 101,586 74,649 74,723 74,796 101,859 155,911 209,963 273,989 346,989 419,989 480,963 531,910 582,859 608,796 608,723 608,648 583,586 532,535 482,483 420,457 346,457 Z"
   id="path10" />
  </g>
  <g
   id="bullet-char-template-8211"
   transform="scale(0.00048828125,-0.00048828125)">
   <path
   d="M -4,459 L 1135,459 1135,606 -4,606 -4,459 Z"
   id="path11" />
  </g>
  <g
   id="bullet-char-template-61548"
   transform="scale(0.00048828125,-0.00048828125)">
   <path
   d="M 173,740 C 173,903 231,1043 346,1159 462,1274 601,1332 765,1332 928,1332 1067,1274 1183,1159 1299,1043 1357,903 1357,740 1357,577 1299,437 1183,322 1067,206 928,148 765,148 601,148 462,206 346,322 231,437 173,577 173,740 Z"
   id="path12" />
  </g>
 </defs>
 
 <path
   id="path13"
   d="M 7227.0007 3062.8104 C 7213.9277 3062.7851 7200.2713 3063.1865 7186.0213 3063.999 C 7180.7118 3064.3044 7175.4903 3064.8114 7170.2083 3065.1876 C 6877.3043 3069.6171 5550.1086 3110.4235 4755.9887 3211.0184 C 3999.2124 3305.154 3478.6157 3401.0552 2972.6867 3498.5978 C 2773.3094 3521.4008 2605.0043 3597.1233 2585.992 3732.0202 C 2562.992 3882.0202 2586.0013 4127.9814 2688.0013 4240.9814 C 2741.8899 4299.87 2788.0732 4317.9493 2841.7903 4305.4736 C 2844.8634 4306.5386 2847.9211 4306.9178 2850.9887 4305.9904 C 3191.9887 4221.9904 3959.9801 4014.9871 4727.9801 3935.9871 C 5493.9801 3856.9871 6743.015 3871.0188 6950.015 3883.0188 C 6953.864 3883.197 6958.156 3882.0811 6962.6757 3880.2282 C 7013.3401 3879.4232 7068.5743 3847.1576 7142.9748 3792.9984 C 7275.9748 3694.9984 7362.9798 3517.9881 7398.9798 3411.9881 C 7486.1673 3159.8006 7423.0956 3063.1913 7227.0007 3062.8104 z M 6577.9964 5049.976 C 6564.9234 5049.9027 6551.267 5050.2595 6537.017 5051.0095 C 6526.8306 5051.5954 6516.7612 5052.4881 6506.6829 5053.3349 C 6246.8655 5063.089 5696.3732 5100.645 5037.0052 5168.0049 C 4417.3841 5233.2753 4054.3504 5274.7028 3696.3635 5337.0385 C 3656.1259 5341.7425 3617.3431 5348.6921 3580.7633 5357.8641 C 3576.8222 5358.6022 3572.9278 5359.2386 3568.9811 5359.9829 C 3564.2725 5360.8969 3559.7391 5362.6215 3555.2352 5364.6854 C 3425.154 5402.26 3329.0708 5470.0994 3314.9914 5569.9959 C 3291.9914 5719.9959 3315.9826 5966.0087 3417.9826 6079.0087 C 3455.0556 6119.9436 3488.7077 6141.1232 3523.8159 6146.0848 C 3533.2363 6148.8186 3543.4812 6148.7989 3554.3567 6146.4982 C 3563.1155 6145.5214 3572.1203 6143.3675 3581.2801 6140.6587 C 3805.815 6086.0706 4590.4388 5949.2834 5145.0089 5891.0099 C 5717.0089 5829.0099 6201.987 5859.9776 6307.987 5869.9776 C 6311.6127 5870.3164 6315.6008 5869.5542 6319.8209 5868.0139 C 6368.8107 5864.9699 6422.4413 5833.1116 6492.9886 5780.9908 C 6626.9886 5681.9908 6713.9755 5505.9804 6749.9755 5399.9804 C 6837.163 5146.8554 6774.0913 5051.0746 6577.9964 5049.976 z M 7207.9838 6965.828 C 7194.9108 6965.8026 7181.2543 6966.204 7167.0043 6967.0165 C 7152.7901 6967.8342 7138.6741 6968.8945 7124.6813 6970.2205 C 6788.4012 6981.4703 5513.4907 7066.028 4740.0207 7164.0071 C 3983.8374 7258.1838 3463.1594 7354.1032 2957.0288 7451.6898 C 2757.9443 7474.586 2589.9969 7550.2628 2571.0058 7685.0089 C 2548.0058 7835.0089 2571.0151 8081.0217 2673.0151 8194.0217 C 2726.8829 8252.8875 2773.0621 8271.0127 2826.7525 8258.5656 C 2829.831 8259.6064 2832.9246 8259.8989 2836.0026 8258.979 C 3176.0026 8174.979 3945.0121 7967.9758 4712.0121 7888.9758 C 5450.1495 7812.8493 6648.6399 7773.4507 6920.7661 7781.3854 C 6977.9395 7791.7972 7038.2581 7758.438 7124.0095 7696.016 C 7257.0095 7598.016 7344.0146 7421.0056 7380.0146 7315.0056 C 7467.2021 7062.8181 7404.0787 6966.2088 7207.9838 6965.828 z " />
   
  
</svg>
