<?xml version="1.0" encoding="UTF-8" standalone="no"?>
<svg
   version="1.2"
   width="100mm"
   height="100mm"
   viewBox="0 0 10000 10000"
   preserveAspectRatio="xMidYMid"
   fill-rule="evenodd"
   stroke-width="28.222"
   stroke-linejoin="round"
   xml:space="preserve"
   id="svg25"
   sodipodi:docname="gobo-caps-03A6.svg"
   inkscape:version="1.4 (86a8ad7, 2024-10-11)"
   xmlns:inkscape="http://www.inkscape.org/namespaces/inkscape"
   xmlns:sodipodi="http://sodipodi.sourceforge.net/DTD/sodipodi-0.dtd"
   xmlns="http://www.w3.org/2000/svg"
   xmlns:svg="http://www.w3.org/2000/svg"
   xmlns:ooo="http://xml.openoffice.org/svg/export"><sodipodi:namedview
   id="namedview25"
   pagecolor="#ffffff"
   bordercolor="#000000"
   borderopacity="0.25"
   inkscape:showpageshadow="2"
   inkscape:pageopacity="0.0"
   inkscape:pagecheckerboard="0"
   inkscape:deskcolor="#d1d1d1"
   inkscape:document-units="mm"
   showgrid="false"
   inkscape:zoom="3.0876875"
   inkscape:cx="188.81444"
   inkscape:cy="188.97638"
   inkscape:window-width="2560"
   inkscape:window-height="1369"
   inkscape:window-x="-8"
   inkscape:window-y="-8"
   inkscape:window-maximized="1"
   inkscape:current-layer="svg25" />
 <defs
   class="ClipPathGroup"
   id="defs2">
  
  <clipPath
   id="presentation_clip_path_shrink"
   clipPathUnits="userSpaceOnUse">
   <rect
   x="10"
   y="10"
   width="9980"
   height="9980"
   id="rect2" />
  </clipPath>
 
  
 
   
  
    
   
     
    
      
      
      
      
      
      
      
      
      
      
     
       
      
       
      
       
      
       
      
       
      
       
      
       
      
       
      
       
      
       
      
        
        
       
        
        
       
        
        
       
        
        
       
        
        
       
        
        
       
        
        
       
        
        
       
        
        
       
        
        
       </defs>
 <defs
   class="TextShapeIndex"
   id="defs3">
  <g
   ooo:slide="id1"
   ooo:id-list="id3 id4 id5 id6 id7 id8 id9 id10 id11 id12"
   id="g2" />
 </defs>
 <defs
   class="EmbeddedBulletChars"
   id="defs12">
  <g
   id="bullet-char-template-57356"
   transform="scale(0.00048828125,-0.00048828125)">
   <path
   d="M 580,1141 L 1163,571 580,0 -4,571 580,1141 Z"
   id="path3" />
  </g>
  <g
   id="bullet-char-template-57354"
   transform="scale(0.00048828125,-0.00048828125)">
   <path
   d="M 8,1128 L 1137,1128 1137,0 8,0 8,1128 Z"
   id="path4" />
  </g>
  <g
   id="bullet-char-template-10146"
   transform="scale(0.00048828125,-0.00048828125)">
   <path
   d="M 174,0 L 602,739 174,1481 1456,739 174,0 Z M 1358,739 L 309,1346 659,739 1358,739 Z"
   id="path5" />
  </g>
  <g
   id="bullet-char-template-10132"
   transform="scale(0.00048828125,-0.00048828125)">
   <path
   d="M 2015,739 L 1276,0 717,0 1260,543 174,543 174,936 1260,936 717,1481 1274,1481 2015,739 Z"
   id="path6" />
  </g>
  <g
   id="bullet-char-template-10007"
   transform="scale(0.00048828125,-0.00048828125)">
   <path
   d="M 0,-2 C -7,14 -16,27 -25,37 L 356,567 C 262,823 215,952 215,954 215,979 228,992 255,992 264,992 276,990 289,987 310,991 331,999 354,1012 L 381,999 492,748 772,1049 836,1024 860,1049 C 881,1039 901,1025 922,1006 886,937 835,863 770,784 769,783 710,716 594,584 L 774,223 C 774,196 753,168 711,139 L 727,119 C 717,90 699,76 672,76 641,76 570,178 457,381 L 164,-76 C 142,-110 111,-127 72,-127 30,-127 9,-110 8,-76 1,-67 -2,-52 -2,-32 -2,-23 -1,-13 0,-2 Z"
   id="path7" />
  </g>
  <g
   id="bullet-char-template-10004"
   transform="scale(0.00048828125,-0.00048828125)">
   <path
   d="M 285,-33 C 182,-33 111,30 74,156 52,228 41,333 41,471 41,549 55,616 82,672 116,743 169,778 240,778 293,778 328,747 346,684 L 369,508 C 377,444 397,411 428,410 L 1163,1116 C 1174,1127 1196,1133 1229,1133 1271,1133 1292,1118 1292,1087 L 1292,965 C 1292,929 1282,901 1262,881 L 442,47 C 390,-6 338,-33 285,-33 Z"
   id="path8" />
  </g>
  <g
   id="bullet-char-template-9679"
   transform="scale(0.00048828125,-0.00048828125)">
   <path
   d="M 813,0 C 632,0 489,54 383,161 276,268 223,411 223,592 223,773 276,916 383,1023 489,1130 632,1184 813,1184 992,1184 1136,1130 1245,1023 1353,916 1407,772 1407,592 1407,412 1353,268 1245,161 1136,54 992,0 813,0 Z"
   id="path9" />
  </g>
  <g
   id="bullet-char-template-8226"
   transform="scale(0.00048828125,-0.00048828125)">
   <path
   d="M 346,457 C 273,457 209,483 155,535 101,586 74,649 74,723 74,796 101,859 155,911 209,963 273,989 346,989 419,989 480,963 531,910 582,859 608,796 608,723 608,648 583,586 532,535 482,483 420,457 346,457 Z"
   id="path10" />
  </g>
  <g
   id="bullet-char-template-8211"
   transform="scale(0.00048828125,-0.00048828125)">
   <path
   d="M -4,459 L 1135,459 1135,606 -4,606 -4,459 Z"
   id="path11" />
  </g>
  <g
   id="bullet-char-template-61548"
   transform="scale(0.00048828125,-0.00048828125)">
   <path
   d="M 173,740 C 173,903 231,1043 346,1159 462,1274 601,1332 765,1332 928,1332 1067,1274 1183,1159 1299,1043 1357,903 1357,740 1357,577 1299,437 1183,322 1067,206 928,148 765,148 601,148 462,206 346,322 231,437 173,577 173,740 Z"
   id="path12" />
  </g>
 </defs>
 
 <path
   id="path13"
   d="M 6324.9886 1999.9813 C 6322.8166 1999.9691 6320.5271 2000.0219 6318.3223 2000.0329 C 5809.8306 1998.106 4304.7056 2133.054 3866.9991 2230.9749 C 3864.0299 2231.7333 3861.236 2233.1597 3858.3691 2234.2822 C 3710.7858 2269.8028 3598.2772 2340.4991 3582.9854 2448.9978 C 3560.9854 2597.9978 3583.9765 2844.0106 3685.9765 2958.0106 C 3730.6513 3006.3699 3770.0729 3027.0794 3812.7388 3025.7584 C 3813.5084 3025.7584 3814.2339 3026.0823 3815.0126 3026.0168 C 3815.7868 3025.8454 3816.9684 3025.6719 3817.7514 3025.5001 C 3828.3703 3024.7486 3839.2696 3022.4389 3850.4626 3019.0922 C 4018.615 2985.565 4335.5705 2945.426 4682.1948 2909.3314 C 4680.086 3043.5655 4678.962 3214.9641 4677.7506 3388.4236 C 3490.8789 3651.4134 2593.2461 4559.9662 2505.9969 5766.0046 C 2414.7073 7042.1364 3083.986 7912.2946 4762.8617 7849.7017 C 4771.557 8028.4236 4777.8613 8144.5879 4784.5141 8260.8911 C 4443.1699 8306.8559 4139.6706 8353.1574 3977.0699 8385.8447 C 3953.6799 8389.9102 3931.0352 8394.8562 3909.1154 8400.5208 C 3908.5409 8400.6603 3907.5633 8400.8472 3906.9966 8400.9859 C 3906.8385 8401.0263 3906.6894 8401.0994 3906.5315 8401.1409 C 3767.4522 8437.5887 3662.7129 8506.5671 3647.9944 8610.9989 C 3625.9944 8760.9989 3648.9855 9007.0117 3750.9855 9120.0117 C 3797.0074 9170.7782 3837.4066 9191.3197 3881.5718 9188.3796 C 3883.7085 9188.6256 3885.7897 9189.2083 3887.9797 9188.9998 C 4290.9797 9097.9998 5858.9952 8911.0086 6130.9952 8918.0086 C 6131.779 8917.9625 6132.6301 8917.5393 6133.424 8917.4401 C 6181.8551 8913.7576 6234.9189 8882.3708 6304.9898 8830.9854 C 6438.9898 8732.9854 6525.9948 8555.9751 6560.9948 8449.9751 C 6653.9948 8179.9751 6576 8089.0042 6350 8101.0042 C 6341.5877 8101.4859 6333.2778 8102.2556 6324.9369 8102.9162 C 6144.4131 8107.1539 5838.3057 8134.5725 5498.6824 8172.4727 C 5493.5906 8107.2732 5481.7426 7976.4859 5462.6639 7772.9622 C 6941.385 7489.4857 7556.2317 6498.4608 7500.9891 5313.009 C 7444.6337 4103.6781 6556.7157 3314.9299 5347.8906 3313.6995 C 5354.2707 3138.4064 5361.1183 2983.4162 5368.4578 2846.6479 C 5698.876 2821.1735 5974.0015 2807.7169 6065.9863 2818.0192 C 6071.2874 2817.8595 6076.7409 2816.8091 6082.2644 2815.0736 C 6127.0189 2806.9222 6176.5281 2776.5462 6239.9808 2730.0142 C 6372.9808 2633.0142 6461.0194 2454.9857 6497.0194 2349.9857 C 6578.3478 2111.3047 6527.5027 2012.5892 6357.1313 2001.1698 C 6355.3808 2000.8532 6353.881 2000.095 6352.0153 1999.9813 C 6344.7752 1999.8593 6335.0519 2000.0872 6327.314 2000.0329 C 6326.5238 2000.0254 6325.7831 1999.9857 6324.9886 1999.9813 z M 5325.2563 4050.6054 C 6096.8799 4128.493 6838.9192 4739.6455 6899.0104 5674.0205 C 6959.0278 6619.7236 6226.236 6995.4864 5398.4301 7077.3974 C 5349.6502 6533.7714 5301.9584 5953.509 5299.9865 5709.9873 C 5298.0039 5465.634 5307.6775 4753.1319 5325.2563 4050.6054 z M 4674.4433 4106.3126 C 4673.6885 4716.7255 4675.7507 5336.7515 4678.9908 5632.9895 C 4682.2145 5927.7236 4704.048 6516.3964 4728.1868 7086.079 C 3838.2019 7030.6662 3017.2973 6714.9669 3115.9855 5697.0166 C 3213.661 4681.0084 3875.9788 4279.0819 4674.4433 4106.3126 z " />
   
  
</svg>
