<?xml version="1.0" encoding="UTF-8" standalone="no"?>
<svg
   version="1.2"
   width="100mm"
   height="100mm"
   viewBox="0 0 10000 10000"
   preserveAspectRatio="xMidYMid"
   fill-rule="evenodd"
   stroke-width="28.222"
   stroke-linejoin="round"
   xml:space="preserve"
   id="svg27"
   sodipodi:docname="gobo-caps-0389.svg"
   inkscape:version="1.4 (86a8ad7, 2024-10-11)"
   xmlns:inkscape="http://www.inkscape.org/namespaces/inkscape"
   xmlns:sodipodi="http://sodipodi.sourceforge.net/DTD/sodipodi-0.dtd"
   xmlns="http://www.w3.org/2000/svg"
   xmlns:svg="http://www.w3.org/2000/svg"
   xmlns:ooo="http://xml.openoffice.org/svg/export"><sodipodi:namedview
   id="namedview27"
   pagecolor="#ffffff"
   bordercolor="#000000"
   borderopacity="0.25"
   inkscape:showpageshadow="2"
   inkscape:pageopacity="0.0"
   inkscape:pagecheckerboard="0"
   inkscape:deskcolor="#d1d1d1"
   inkscape:document-units="mm"
   inkscape:zoom="3.0876875"
   inkscape:cx="188.81444"
   inkscape:cy="188.97638"
   inkscape:window-width="2560"
   inkscape:window-height="1369"
   inkscape:window-x="-8"
   inkscape:window-y="-8"
   inkscape:window-maximized="1"
   inkscape:current-layer="svg27" />
 <defs
   class="ClipPathGroup"
   id="defs2">
  
  <clipPath
   id="presentation_clip_path_shrink"
   clipPathUnits="userSpaceOnUse">
   <rect
   x="10"
   y="10"
   width="9980"
   height="9980"
   id="rect2" />
  </clipPath>
 
  
 
   
  
    
   
     
    
      
      
      
      
      
      
      
      
      
      
      
      
     
       
      
       
      
       
      
       
      
       
      
       
      
       
      
       
      
       
      
       
      
       
      
       
      
        
        
       
        
        
       
        
        
       
        
        
       
        
        
       
        
        
       
        
        
       
        
        
       
        
        
       
        
        
       
        
        
       
        
        
       </defs>
 <defs
   class="TextShapeIndex"
   id="defs3">
  <g
   ooo:slide="id1"
   ooo:id-list="id3 id4 id5 id6 id7 id8 id9 id10 id11 id12 id13 id14"
   id="g2" />
 </defs>
 <defs
   class="EmbeddedBulletChars"
   id="defs12">
  <g
   id="bullet-char-template-57356"
   transform="scale(0.00048828125,-0.00048828125)">
   <path
   d="M 580,1141 L 1163,571 580,0 -4,571 580,1141 Z"
   id="path3" />
  </g>
  <g
   id="bullet-char-template-57354"
   transform="scale(0.00048828125,-0.00048828125)">
   <path
   d="M 8,1128 L 1137,1128 1137,0 8,0 8,1128 Z"
   id="path4" />
  </g>
  <g
   id="bullet-char-template-10146"
   transform="scale(0.00048828125,-0.00048828125)">
   <path
   d="M 174,0 L 602,739 174,1481 1456,739 174,0 Z M 1358,739 L 309,1346 659,739 1358,739 Z"
   id="path5" />
  </g>
  <g
   id="bullet-char-template-10132"
   transform="scale(0.00048828125,-0.00048828125)">
   <path
   d="M 2015,739 L 1276,0 717,0 1260,543 174,543 174,936 1260,936 717,1481 1274,1481 2015,739 Z"
   id="path6" />
  </g>
  <g
   id="bullet-char-template-10007"
   transform="scale(0.00048828125,-0.00048828125)">
   <path
   d="M 0,-2 C -7,14 -16,27 -25,37 L 356,567 C 262,823 215,952 215,954 215,979 228,992 255,992 264,992 276,990 289,987 310,991 331,999 354,1012 L 381,999 492,748 772,1049 836,1024 860,1049 C 881,1039 901,1025 922,1006 886,937 835,863 770,784 769,783 710,716 594,584 L 774,223 C 774,196 753,168 711,139 L 727,119 C 717,90 699,76 672,76 641,76 570,178 457,381 L 164,-76 C 142,-110 111,-127 72,-127 30,-127 9,-110 8,-76 1,-67 -2,-52 -2,-32 -2,-23 -1,-13 0,-2 Z"
   id="path7" />
  </g>
  <g
   id="bullet-char-template-10004"
   transform="scale(0.00048828125,-0.00048828125)">
   <path
   d="M 285,-33 C 182,-33 111,30 74,156 52,228 41,333 41,471 41,549 55,616 82,672 116,743 169,778 240,778 293,778 328,747 346,684 L 369,508 C 377,444 397,411 428,410 L 1163,1116 C 1174,1127 1196,1133 1229,1133 1271,1133 1292,1118 1292,1087 L 1292,965 C 1292,929 1282,901 1262,881 L 442,47 C 390,-6 338,-33 285,-33 Z"
   id="path8" />
  </g>
  <g
   id="bullet-char-template-9679"
   transform="scale(0.00048828125,-0.00048828125)">
   <path
   d="M 813,0 C 632,0 489,54 383,161 276,268 223,411 223,592 223,773 276,916 383,1023 489,1130 632,1184 813,1184 992,1184 1136,1130 1245,1023 1353,916 1407,772 1407,592 1407,412 1353,268 1245,161 1136,54 992,0 813,0 Z"
   id="path9" />
  </g>
  <g
   id="bullet-char-template-8226"
   transform="scale(0.00048828125,-0.00048828125)">
   <path
   d="M 346,457 C 273,457 209,483 155,535 101,586 74,649 74,723 74,796 101,859 155,911 209,963 273,989 346,989 419,989 480,963 531,910 582,859 608,796 608,723 608,648 583,586 532,535 482,483 420,457 346,457 Z"
   id="path10" />
  </g>
  <g
   id="bullet-char-template-8211"
   transform="scale(0.00048828125,-0.00048828125)">
   <path
   d="M -4,459 L 1135,459 1135,606 -4,606 -4,459 Z"
   id="path11" />
  </g>
  <g
   id="bullet-char-template-61548"
   transform="scale(0.00048828125,-0.00048828125)">
   <path
   d="M 173,740 C 173,903 231,1043 346,1159 462,1274 601,1332 765,1332 928,1332 1067,1274 1183,1159 1299,1043 1357,903 1357,740 1357,577 1299,437 1183,322 1067,206 928,148 765,148 601,148 462,206 346,322 231,437 173,577 173,740 Z"
   id="path12" />
  </g>
 </defs>
 
 <path
   id="path13"
   d="M 5887.8059 887.8011 C 5874.7879 887.78987 5861.1691 888.17716 5846.9816 888.98966 C 5673.6776 898.19164 5513.4151 945.67058 5438.5827 1034.9239 C 5433.5331 1039.4269 5429.3101 1044.7323 5426.0253 1050.9953 C 5425.5718 1051.8779 5424.9073 1052.9281 5424.4234 1053.8375 C 5420.4801 1059.8065 5416.8854 1065.9839 5413.6747 1072.286 C 5316.5898 1228.4442 4925.4531 1641.6714 4808.337 1777.876 C 4804.1735 1782.419 4800.1203 1787.2514 4796.0896 1792.087 C 4793.0463 1795.7223 4787.421 1801.9748 4784.9792 1805.0061 C 4782.8983 1807.5893 4781.1033 1810.6163 4779.2948 1813.6361 C 4765.4974 1832.4875 4752.4114 1853.0639 4740.0207 1876.0095 C 4658.0207 2027.0095 4670.9927 2238.0122 4732.9927 2340.0122 C 4788.6289 2431.5426 4907.0273 2405.3711 5014.5776 2342.6994 C 5185.7072 2257.1353 5873.5473 1624.7618 5965.9924 1432.9875 C 5966.0334 1432.9028 5966.055 1432.8137 5966.0957 1432.7291 C 6009.6858 1362.2631 6040.7861 1290.6378 6059.01 1236.9788 C 6146.1975 982.91625 6083.0769 887.96956 5887.8059 887.8011 z M 6760.8276 2041.7875 C 6747.8095 2041.7763 6734.1907 2042.1636 6720.0032 2042.9761 C 6494.0032 2054.9761 6290.023 2131.9796 6269.023 2281.9796 C 6264.3606 2313.5568 6261.8265 2349.6505 6261.5299 2387.7612 C 6261.3398 2391.5056 6260.8372 2395.1527 6261.0131 2398.975 C 6261.0484 2399.8211 6261.4407 2407.0293 6261.4782 2407.915 C 6261.4804 2408.0723 6261.476 2408.2228 6261.4782 2408.3801 C 6261.8175 2432.0585 6263.1019 2456.3701 6265.3023 2480.8821 C 6280.4357 2808.5431 6372.4502 4486.8911 6427.773 5567.4637 C 6017.8933 5643.0221 5354.3873 5801.2729 4846.9909 5946.9755 C 4334.2487 6094.2131 3896.9901 6248.4797 3536.2699 6385.2433 C 3525.2974 6151.3343 3516.0008 5927.5661 3511.0001 5737.996 C 3485.0001 4900.996 3559.9814 2851.008 3605.9814 2494.008 C 3606.3153 2490.6131 3605.9021 2487.4305 3605.1546 2484.3445 C 3609.2179 2349.7662 3522.9178 2302.3865 3354.989 2312.0036 C 3134.1536 2323.7293 2934.4282 2397.5625 2905.8174 2540.8785 C 2904.218 2543.9002 2903.2565 2546.9627 2902.9752 2550.0252 C 2902.7221 2553.3549 2902.5524 2561.1603 2902.3034 2564.753 C 2897.7718 2601.0349 2895.7429 2642.1027 2896.7224 2685.3658 C 2876.5238 3207.0698 2873.2686 4697.4258 2876.0001 5353.0066 C 2878.9221 6053.2988 2915.6562 8130.9793 2930.5188 8584.6439 C 2929.2428 8726.5744 2960.409 8898.9363 3041.003 8989.012 C 3138.003 9095.012 3210.0154 9068.995 3345.0154 8969.995 C 3479.0154 8871.995 3566.0023 8695.0182 3602.0023 8590.0182 C 3634.014 8496.7368 3645.7251 8424.8848 3638.0725 8371.2719 C 3632.8484 8162.9859 3604.6264 7677.205 3575.2339 7140.1326 C 3901.1101 6991.1415 4452.4141 6757.157 4963.9864 6622.0247 C 5628.9778 6445.6574 6144.9747 6367.3754 6446.6349 6344.884 C 6447.4295 7130.8145 6400.302 7819.9091 6401.263 8139.2447 C 6395.3703 8286.3196 6425.0768 8475.7857 6511.0237 8571.0013 C 6608.0237 8678.0013 6679.9845 8650.9844 6814.9845 8551.9844 C 6947.9845 8454.9844 7036.0231 8278.0076 7072.0231 8172.0076 C 7093.4899 8109.007 7105.6271 8055.8719 7108.92 8011.3972 C 7109.8746 8005.6645 7110.7969 7999.901 7110.9871 7993.9823 C 7135.9871 7173.9823 7110.9951 6342.0017 7064.9951 5433.0017 C 7018.5603 4535.9214 7009.116 3157.3208 6970.3238 2207.1521 C 6970.3553 2199.484 6970.0798 2192.0614 6969.497 2184.9829 C 6969.3121 2180.5357 6969.1665 2175.4062 6968.9803 2170.9786 C 6968.8805 2167.7211 6967.8638 2164.7334 6966.2414 2161.8835 C 6949.3431 2077.1592 6879.6038 2041.89 6760.8276 2041.7875 z " />
   
  
</svg>
