<?xml version="1.0" encoding="UTF-8" standalone="no"?>
<svg
   version="1.2"
   width="100mm"
   height="100mm"
   viewBox="0 0 10000 10000"
   preserveAspectRatio="xMidYMid"
   fill-rule="evenodd"
   stroke-width="28.222"
   stroke-linejoin="round"
   xml:space="preserve"
   id="svg22"
   sodipodi:docname="gobo-caps-03A3.svg"
   inkscape:version="1.4 (86a8ad7, 2024-10-11)"
   xmlns:inkscape="http://www.inkscape.org/namespaces/inkscape"
   xmlns:sodipodi="http://sodipodi.sourceforge.net/DTD/sodipodi-0.dtd"
   xmlns="http://www.w3.org/2000/svg"
   xmlns:svg="http://www.w3.org/2000/svg"
   xmlns:ooo="http://xml.openoffice.org/svg/export"><sodipodi:namedview
   id="namedview22"
   pagecolor="#ffffff"
   bordercolor="#000000"
   borderopacity="0.25"
   inkscape:showpageshadow="2"
   inkscape:pageopacity="0.0"
   inkscape:pagecheckerboard="0"
   inkscape:deskcolor="#d1d1d1"
   inkscape:document-units="mm"
   showgrid="false"
   inkscape:zoom="3.0876875"
   inkscape:cx="188.81444"
   inkscape:cy="188.97638"
   inkscape:window-width="2560"
   inkscape:window-height="1369"
   inkscape:window-x="-8"
   inkscape:window-y="-8"
   inkscape:window-maximized="1"
   inkscape:current-layer="svg22" />
 <defs
   class="ClipPathGroup"
   id="defs2">
  
  <clipPath
   id="presentation_clip_path_shrink"
   clipPathUnits="userSpaceOnUse">
   <rect
   x="10"
   y="10"
   width="9980"
   height="9980"
   id="rect2" />
  </clipPath>
 
  
 
   
  
    
   
     
    
      
      
      
      
      
      
      
     
       
      
       
      
       
      
       
      
       
      
       
      
       
      
        
        
       
        
        
       
        
        
       
        
        
       
        
        
       
        
        
       
        
        
       </defs>
 <defs
   class="TextShapeIndex"
   id="defs3">
  <g
   ooo:slide="id1"
   ooo:id-list="id3 id4 id5 id6 id7 id8 id9"
   id="g2" />
 </defs>
 <defs
   class="EmbeddedBulletChars"
   id="defs12">
  <g
   id="bullet-char-template-57356"
   transform="scale(0.00048828125,-0.00048828125)">
   <path
   d="M 580,1141 L 1163,571 580,0 -4,571 580,1141 Z"
   id="path3" />
  </g>
  <g
   id="bullet-char-template-57354"
   transform="scale(0.00048828125,-0.00048828125)">
   <path
   d="M 8,1128 L 1137,1128 1137,0 8,0 8,1128 Z"
   id="path4" />
  </g>
  <g
   id="bullet-char-template-10146"
   transform="scale(0.00048828125,-0.00048828125)">
   <path
   d="M 174,0 L 602,739 174,1481 1456,739 174,0 Z M 1358,739 L 309,1346 659,739 1358,739 Z"
   id="path5" />
  </g>
  <g
   id="bullet-char-template-10132"
   transform="scale(0.00048828125,-0.00048828125)">
   <path
   d="M 2015,739 L 1276,0 717,0 1260,543 174,543 174,936 1260,936 717,1481 1274,1481 2015,739 Z"
   id="path6" />
  </g>
  <g
   id="bullet-char-template-10007"
   transform="scale(0.00048828125,-0.00048828125)">
   <path
   d="M 0,-2 C -7,14 -16,27 -25,37 L 356,567 C 262,823 215,952 215,954 215,979 228,992 255,992 264,992 276,990 289,987 310,991 331,999 354,1012 L 381,999 492,748 772,1049 836,1024 860,1049 C 881,1039 901,1025 922,1006 886,937 835,863 770,784 769,783 710,716 594,584 L 774,223 C 774,196 753,168 711,139 L 727,119 C 717,90 699,76 672,76 641,76 570,178 457,381 L 164,-76 C 142,-110 111,-127 72,-127 30,-127 9,-110 8,-76 1,-67 -2,-52 -2,-32 -2,-23 -1,-13 0,-2 Z"
   id="path7" />
  </g>
  <g
   id="bullet-char-template-10004"
   transform="scale(0.00048828125,-0.00048828125)">
   <path
   d="M 285,-33 C 182,-33 111,30 74,156 52,228 41,333 41,471 41,549 55,616 82,672 116,743 169,778 240,778 293,778 328,747 346,684 L 369,508 C 377,444 397,411 428,410 L 1163,1116 C 1174,1127 1196,1133 1229,1133 1271,1133 1292,1118 1292,1087 L 1292,965 C 1292,929 1282,901 1262,881 L 442,47 C 390,-6 338,-33 285,-33 Z"
   id="path8" />
  </g>
  <g
   id="bullet-char-template-9679"
   transform="scale(0.00048828125,-0.00048828125)">
   <path
   d="M 813,0 C 632,0 489,54 383,161 276,268 223,411 223,592 223,773 276,916 383,1023 489,1130 632,1184 813,1184 992,1184 1136,1130 1245,1023 1353,916 1407,772 1407,592 1407,412 1353,268 1245,161 1136,54 992,0 813,0 Z"
   id="path9" />
  </g>
  <g
   id="bullet-char-template-8226"
   transform="scale(0.00048828125,-0.00048828125)">
   <path
   d="M 346,457 C 273,457 209,483 155,535 101,586 74,649 74,723 74,796 101,859 155,911 209,963 273,989 346,989 419,989 480,963 531,910 582,859 608,796 608,723 608,648 583,586 532,535 482,483 420,457 346,457 Z"
   id="path10" />
  </g>
  <g
   id="bullet-char-template-8211"
   transform="scale(0.00048828125,-0.00048828125)">
   <path
   d="M -4,459 L 1135,459 1135,606 -4,606 -4,459 Z"
   id="path11" />
  </g>
  <g
   id="bullet-char-template-61548"
   transform="scale(0.00048828125,-0.00048828125)">
   <path
   d="M 173,740 C 173,903 231,1043 346,1159 462,1274 601,1332 765,1332 928,1332 1067,1274 1183,1159 1299,1043 1357,903 1357,740 1357,577 1299,437 1183,322 1067,206 928,148 765,148 601,148 462,206 346,322 231,437 173,577 173,740 Z"
   id="path12" />
  </g>
 </defs>
 
 <path
   id="path13"
   d="M 7379.9629 2000.8081 C 7366.8899 2000.7827 7353.2335 2001.1841 7338.9835 2001.9966 C 7337.4906 2002.0825 7336.0302 2002.2669 7334.5393 2002.3584 C 7026.2153 2010.3264 5383.5383 2110.1984 4587.0068 2210.9761 C 3831.1534 2305.1117 3310.6101 2401.0646 2804.6867 2498.6072 C 2605.3093 2521.4102 2437.0042 2597.081 2417.9919 2731.9779 C 2397.9704 2862.5533 2412.8308 3065.8552 2484.2928 3190.8646 C 2484.8059 3191.7622 2485.3242 3192.6624 2485.8431 3193.5518 C 2490.5713 3203.227 2495.8234 3212.8052 2502.0178 3222.0255 C 2719.0178 3545.0255 3381.9749 5105.0253 3500.9749 5426.0253 C 3619.9749 5747.0253 3599.0223 5847.0039 3487.0223 6159.0039 C 3375.0223 6471.0039 2603.9907 8142.0256 2437.9907 8470.0256 C 2413.1013 8519.2046 2405.5061 8568.2427 2410.6022 8615.0296 C 2405.1413 8761.2537 2435.1823 8947.0324 2520.0012 9040.9985 C 2573.8532 9099.847 2620.0166 9117.9678 2673.6869 9105.5423 C 2676.7951 9106.5823 2679.8761 9106.927 2682.9887 9106.0074 C 3022.9887 9022.0074 3791.9982 8815.0042 4558.9982 8736.0042 C 5323.9982 8657.0042 6911.9969 8556.9859 7118.9969 8568.9859 C 7122.6987 8569.1573 7126.7616 8568.1614 7131.0375 8566.4538 C 7176.548 8558.9649 7226.9501 8528.3405 7292.0096 8480.981 C 7425.0096 8382.981 7512.0147 8206.0223 7548.0147 8100.0223 C 7641.0147 7831.0223 7563.0044 7738.9815 7335.0044 7751.9815 C 7327.9419 7752.3878 7320.9848 7753.052 7313.9721 7753.5835 C 6977.0039 7767.6742 5372.6024 7911.4655 4586.0249 8010.9838 C 4052.1634 8077.5534 3639.3676 8145.0754 3261.9197 8213.3487 C 3560.8345 7475.2844 4016.9532 6294.9311 4094.9955 6039.993 C 4199.9955 5696.993 4257.9943 5341.023 4114.9943 4999.023 C 4011.0414 4750.4084 3605.7005 3786.8232 3339.7444 3146.6813 C 3696.3336 3065.7082 4126.7352 2980.562 4559.98 2935.9965 C 5324.98 2856.9965 6902.0234 2807.001 7109.0234 2819.001 C 7110.3677 2819.0633 7111.9364 2818.4171 7113.3642 2818.2259 C 7164.6647 2818.3895 7220.4502 2785.9837 7295.9887 2730.9961 C 7428.9887 2632.9961 7515.9938 2455.9857 7551.9938 2349.9857 C 7639.1813 2097.7982 7576.0579 2001.1889 7379.9629 2000.8081 z " />
   
  
</svg>
