<?xml version="1.0" encoding="UTF-8" standalone="no"?>
<svg
   version="1.2"
   width="100mm"
   height="100mm"
   viewBox="0 0 10000 10000"
   preserveAspectRatio="xMidYMid"
   fill-rule="evenodd"
   stroke-width="28.222"
   stroke-linejoin="round"
   xml:space="preserve"
   id="svg27"
   sodipodi:docname="gobo-caps-0389.svg"
   inkscape:version="1.4 (86a8ad7, 2024-10-11)"
   xmlns:inkscape="http://www.inkscape.org/namespaces/inkscape"
   xmlns:sodipodi="http://sodipodi.sourceforge.net/DTD/sodipodi-0.dtd"
   xmlns="http://www.w3.org/2000/svg"
   xmlns:svg="http://www.w3.org/2000/svg"
   xmlns:ooo="http://xml.openoffice.org/svg/export"><sodipodi:namedview
   id="namedview27"
   pagecolor="#ffffff"
   bordercolor="#000000"
   borderopacity="0.25"
   inkscape:showpageshadow="2"
   inkscape:pageopacity="0.0"
   inkscape:pagecheckerboard="0"
   inkscape:deskcolor="#d1d1d1"
   inkscape:document-units="mm"
   showgrid="false"
   inkscape:zoom="3.0876875"
   inkscape:cx="188.81444"
   inkscape:cy="188.97638"
   inkscape:window-width="2560"
   inkscape:window-height="1369"
   inkscape:window-x="-8"
   inkscape:window-y="-8"
   inkscape:window-maximized="1"
   inkscape:current-layer="svg27" />
 <defs
   class="ClipPathGroup"
   id="defs2">
  
  <clipPath
   id="presentation_clip_path_shrink"
   clipPathUnits="userSpaceOnUse">
   <rect
   x="10"
   y="10"
   width="9980"
   height="9980"
   id="rect2" />
  </clipPath>
 
  
 
   
  
    
   
     
    
      
      
      
      
      
      
      
      
      
      
      
      
     
       
      
       
      
       
      
       
      
       
      
       
      
       
      
       
      
       
      
       
      
       
      
       
      
        
        
       
        
        
       
        
        
       
        
        
       
        
        
       
        
        
       
        
        
       
        
        
       
        
        
       
        
        
       
        
        
       
        
        
       </defs>
 <defs
   class="TextShapeIndex"
   id="defs3">
  <g
   ooo:slide="id1"
   ooo:id-list="id3 id4 id5 id6 id7 id8 id9 id10 id11 id12 id13 id14"
   id="g2" />
 </defs>
 <defs
   class="EmbeddedBulletChars"
   id="defs12">
  <g
   id="bullet-char-template-57356"
   transform="scale(0.00048828125,-0.00048828125)">
   <path
   d="M 580,1141 L 1163,571 580,0 -4,571 580,1141 Z"
   id="path3" />
  </g>
  <g
   id="bullet-char-template-57354"
   transform="scale(0.00048828125,-0.00048828125)">
   <path
   d="M 8,1128 L 1137,1128 1137,0 8,0 8,1128 Z"
   id="path4" />
  </g>
  <g
   id="bullet-char-template-10146"
   transform="scale(0.00048828125,-0.00048828125)">
   <path
   d="M 174,0 L 602,739 174,1481 1456,739 174,0 Z M 1358,739 L 309,1346 659,739 1358,739 Z"
   id="path5" />
  </g>
  <g
   id="bullet-char-template-10132"
   transform="scale(0.00048828125,-0.00048828125)">
   <path
   d="M 2015,739 L 1276,0 717,0 1260,543 174,543 174,936 1260,936 717,1481 1274,1481 2015,739 Z"
   id="path6" />
  </g>
  <g
   id="bullet-char-template-10007"
   transform="scale(0.00048828125,-0.00048828125)">
   <path
   d="M 0,-2 C -7,14 -16,27 -25,37 L 356,567 C 262,823 215,952 215,954 215,979 228,992 255,992 264,992 276,990 289,987 310,991 331,999 354,1012 L 381,999 492,748 772,1049 836,1024 860,1049 C 881,1039 901,1025 922,1006 886,937 835,863 770,784 769,783 710,716 594,584 L 774,223 C 774,196 753,168 711,139 L 727,119 C 717,90 699,76 672,76 641,76 570,178 457,381 L 164,-76 C 142,-110 111,-127 72,-127 30,-127 9,-110 8,-76 1,-67 -2,-52 -2,-32 -2,-23 -1,-13 0,-2 Z"
   id="path7" />
  </g>
  <g
   id="bullet-char-template-10004"
   transform="scale(0.00048828125,-0.00048828125)">
   <path
   d="M 285,-33 C 182,-33 111,30 74,156 52,228 41,333 41,471 41,549 55,616 82,672 116,743 169,778 240,778 293,778 328,747 346,684 L 369,508 C 377,444 397,411 428,410 L 1163,1116 C 1174,1127 1196,1133 1229,1133 1271,1133 1292,1118 1292,1087 L 1292,965 C 1292,929 1282,901 1262,881 L 442,47 C 390,-6 338,-33 285,-33 Z"
   id="path8" />
  </g>
  <g
   id="bullet-char-template-9679"
   transform="scale(0.00048828125,-0.00048828125)">
   <path
   d="M 813,0 C 632,0 489,54 383,161 276,268 223,411 223,592 223,773 276,916 383,1023 489,1130 632,1184 813,1184 992,1184 1136,1130 1245,1023 1353,916 1407,772 1407,592 1407,412 1353,268 1245,161 1136,54 992,0 813,0 Z"
   id="path9" />
  </g>
  <g
   id="bullet-char-template-8226"
   transform="scale(0.00048828125,-0.00048828125)">
   <path
   d="M 346,457 C 273,457 209,483 155,535 101,586 74,649 74,723 74,796 101,859 155,911 209,963 273,989 346,989 419,989 480,963 531,910 582,859 608,796 608,723 608,648 583,586 532,535 482,483 420,457 346,457 Z"
   id="path10" />
  </g>
  <g
   id="bullet-char-template-8211"
   transform="scale(0.00048828125,-0.00048828125)">
   <path
   d="M -4,459 L 1135,459 1135,606 -4,606 -4,459 Z"
   id="path11" />
  </g>
  <g
   id="bullet-char-template-61548"
   transform="scale(0.00048828125,-0.00048828125)">
   <path
   d="M 173,740 C 173,903 231,1043 346,1159 462,1274 601,1332 765,1332 928,1332 1067,1274 1183,1159 1299,1043 1357,903 1357,740 1357,577 1299,437 1183,322 1067,206 928,148 765,148 601,148 462,206 346,322 231,437 173,577 173,740 Z"
   id="path12" />
  </g>
 </defs>
 
 <path
   id="path13"
   d="M 3345.7906 2000.8081 C 3332.7725 2000.7969 3319.2054 2001.1841 3305.0179 2001.9966 C 3131.696 2011.1996 2971.3898 2058.6597 2896.5674 2147.9309 C 2891.5201 2152.4329 2887.2936 2157.7415 2884.01 2164.0023 C 2883.5564 2164.8849 2882.8919 2165.9351 2882.408 2166.8445 C 2878.4978 2172.7634 2874.9527 2178.8398 2871.7627 2185.0862 C 2774.8476 2341.1514 2383.2187 2754.9364 2266.2182 2891.038 C 2262.2998 2895.3185 2258.495 2899.8824 2254.6944 2904.4222 C 2251.4605 2908.2792 2245.5846 2914.8239 2243.0155 2918.0131 C 2240.6955 2920.8931 2238.5895 2924.1524 2236.6076 2927.5732 C 2223.0683 2946.1722 2210.1872 2966.4574 2198.0054 2989.0165 C 2116.0054 3140.0165 2128.9774 3351.0192 2190.9774 3453.0192 C 2246.5845 3544.5018 2364.9017 3518.4105 2472.4072 3455.8097 C 2643.2569 3370.5729 3331.502 2737.831 3423.977 2545.9944 C 3424.0417 2545.8609 3424.0679 2545.7147 3424.1321 2545.581 C 3467.6894 2475.1476 3498.7794 2403.6192 3516.9946 2349.9857 C 3604.1821 2095.9232 3541.0616 2000.9765 3345.7906 2000.8081 z M 7500.8341 2041.7875 C 7487.816 2041.7763 7474.1972 2042.1636 7460.0097 2042.9761 C 7234.0097 2054.9761 7029.9778 2131.9796 7008.9778 2281.9796 C 7004.3154 2313.5568 7001.833 2349.6505 7001.5364 2387.7612 C 7001.3463 2391.5056 7000.8437 2395.1527 7001.0196 2398.975 C 7001.0549 2399.8211 7001.4472 2407.0293 7001.4847 2407.915 C 7001.4869 2408.0723 7001.4825 2408.2228 7001.4847 2408.3801 C 7001.824 2432.0585 7003.1084 2456.3701 7005.3088 2480.8821 C 7020.4422 2808.5431 7112.4567 4486.8911 7167.7795 5567.4637 C 6757.8998 5643.0221 6094.3938 5801.2729 5586.9974 5946.9755 C 5074.2343 6094.2191 4636.9533 6248.4756 4276.2247 6385.2433 C 4265.2522 6151.3344 4256.0073 5927.566 4251.0066 5737.996 C 4225.0066 4900.996 4299.9879 2851.008 4345.9879 2494.008 C 4346.3326 2490.5034 4345.9161 2487.21 4345.1094 2484.0344 C 4349.0297 2349.6952 4262.7943 2302.3939 4094.9955 2312.0036 C 3874.1601 2323.7293 3674.4347 2397.5625 3645.8239 2540.8785 C 3644.2246 2543.9002 3643.263 2546.9627 3642.9817 2550.0252 C 3642.7286 2553.3549 3642.5589 2561.1603 3642.3099 2564.753 C 3637.7783 2601.0349 3635.7494 2642.1027 3636.7289 2685.3658 C 3616.5303 3207.0698 3613.2751 4697.4258 3616.0066 5353.0066 C 3618.9286 6053.2988 3655.6627 8130.9793 3670.5253 8584.6439 C 3669.2493 8726.5744 3700.4155 8898.9363 3781.0095 8989.012 C 3878.0095 9095.012 3950.0219 9068.995 4085.0219 8969.995 C 4219.0219 8871.995 4306.0088 8695.0182 4342.0088 8590.0182 C 4374.0205 8496.7368 4385.7316 8424.8848 4378.079 8371.2719 C 4372.8547 8162.9794 4344.6338 7677.1732 4315.2404 7140.0809 C 4641.1237 6991.0886 5192.4491 6757.1495 5703.9929 6622.0247 C 6368.9843 6445.6574 6884.9812 6367.3754 7186.6414 6344.884 C 7187.436 7130.8145 7140.3085 7819.9091 7141.2695 8139.2447 C 7135.3768 8286.3196 7165.0317 8475.7857 7250.9785 8571.0013 C 7347.9785 8678.0013 7419.991 8650.9844 7554.991 8551.9844 C 7687.991 8454.9844 7775.9779 8278.0076 7811.9779 8172.0076 C 7833.4448 8109.007 7845.6336 8055.8719 7848.9265 8011.3972 C 7849.8811 8005.6645 7850.8034 7999.901 7850.9936 7993.9823 C 7875.9936 7173.9823 7851.0016 6342.0017 7805.0016 5433.0017 C 7758.5668 4535.9214 7749.1225 3157.3208 7710.3303 2207.1521 C 7710.3615 2199.5409 7710.0775 2192.1682 7709.5035 2185.1379 C 7709.3166 2180.6414 7709.175 2175.4552 7708.9868 2170.9786 C 7708.8867 2167.7093 7707.8815 2164.6906 7706.2479 2161.8319 C 7689.3332 2077.1415 7619.5884 2041.8899 7500.8341 2041.7875 z " />
   
  
</svg>
