<?xml version="1.0" encoding="UTF-8" standalone="no"?>
<svg
   version="1.2"
   width="100mm"
   height="100mm"
   viewBox="0 0 10000 10000"
   preserveAspectRatio="xMidYMid"
   fill-rule="evenodd"
   stroke-width="28.222"
   stroke-linejoin="round"
   xml:space="preserve"
   id="svg25"
   sodipodi:docname="gobo-caps-03B0.svg"
   inkscape:version="1.4 (86a8ad7, 2024-10-11)"
   xmlns:inkscape="http://www.inkscape.org/namespaces/inkscape"
   xmlns:sodipodi="http://sodipodi.sourceforge.net/DTD/sodipodi-0.dtd"
   xmlns="http://www.w3.org/2000/svg"
   xmlns:svg="http://www.w3.org/2000/svg"
   xmlns:ooo="http://xml.openoffice.org/svg/export"><sodipodi:namedview
   id="namedview25"
   pagecolor="#ffffff"
   bordercolor="#000000"
   borderopacity="0.25"
   inkscape:showpageshadow="2"
   inkscape:pageopacity="0.0"
   inkscape:pagecheckerboard="0"
   inkscape:deskcolor="#d1d1d1"
   inkscape:document-units="mm"
   showgrid="false"
   inkscape:zoom="3.0876875"
   inkscape:cx="188.81444"
   inkscape:cy="188.97638"
   inkscape:window-width="2560"
   inkscape:window-height="1369"
   inkscape:window-x="-8"
   inkscape:window-y="-8"
   inkscape:window-maximized="1"
   inkscape:current-layer="svg25" />
 <defs
   class="ClipPathGroup"
   id="defs2">
  
  <clipPath
   id="presentation_clip_path_shrink"
   clipPathUnits="userSpaceOnUse">
   <rect
   x="10"
   y="10"
   width="9980"
   height="9980"
   id="rect2" />
  </clipPath>
 
  
 
   
  
    
   
     
    
      
      
      
      
      
      
      
      
      
      
     
       
      
       
      
       
      
       
      
       
      
       
      
       
      
       
      
       
      
       
      
        
        
       
        
        
       
        
        
       
        
        
       
        
        
       
        
        
       
        
        
       
        
        
       
        
        
       
        
        
       </defs>
 <defs
   class="TextShapeIndex"
   id="defs3">
  <g
   ooo:slide="id1"
   ooo:id-list="id3 id4 id5 id6 id7 id8 id9 id10 id11 id12"
   id="g2" />
 </defs>
 <defs
   class="EmbeddedBulletChars"
   id="defs12">
  <g
   id="bullet-char-template-57356"
   transform="scale(0.00048828125,-0.00048828125)">
   <path
   d="M 580,1141 L 1163,571 580,0 -4,571 580,1141 Z"
   id="path3" />
  </g>
  <g
   id="bullet-char-template-57354"
   transform="scale(0.00048828125,-0.00048828125)">
   <path
   d="M 8,1128 L 1137,1128 1137,0 8,0 8,1128 Z"
   id="path4" />
  </g>
  <g
   id="bullet-char-template-10146"
   transform="scale(0.00048828125,-0.00048828125)">
   <path
   d="M 174,0 L 602,739 174,1481 1456,739 174,0 Z M 1358,739 L 309,1346 659,739 1358,739 Z"
   id="path5" />
  </g>
  <g
   id="bullet-char-template-10132"
   transform="scale(0.00048828125,-0.00048828125)">
   <path
   d="M 2015,739 L 1276,0 717,0 1260,543 174,543 174,936 1260,936 717,1481 1274,1481 2015,739 Z"
   id="path6" />
  </g>
  <g
   id="bullet-char-template-10007"
   transform="scale(0.00048828125,-0.00048828125)">
   <path
   d="M 0,-2 C -7,14 -16,27 -25,37 L 356,567 C 262,823 215,952 215,954 215,979 228,992 255,992 264,992 276,990 289,987 310,991 331,999 354,1012 L 381,999 492,748 772,1049 836,1024 860,1049 C 881,1039 901,1025 922,1006 886,937 835,863 770,784 769,783 710,716 594,584 L 774,223 C 774,196 753,168 711,139 L 727,119 C 717,90 699,76 672,76 641,76 570,178 457,381 L 164,-76 C 142,-110 111,-127 72,-127 30,-127 9,-110 8,-76 1,-67 -2,-52 -2,-32 -2,-23 -1,-13 0,-2 Z"
   id="path7" />
  </g>
  <g
   id="bullet-char-template-10004"
   transform="scale(0.00048828125,-0.00048828125)">
   <path
   d="M 285,-33 C 182,-33 111,30 74,156 52,228 41,333 41,471 41,549 55,616 82,672 116,743 169,778 240,778 293,778 328,747 346,684 L 369,508 C 377,444 397,411 428,410 L 1163,1116 C 1174,1127 1196,1133 1229,1133 1271,1133 1292,1118 1292,1087 L 1292,965 C 1292,929 1282,901 1262,881 L 442,47 C 390,-6 338,-33 285,-33 Z"
   id="path8" />
  </g>
  <g
   id="bullet-char-template-9679"
   transform="scale(0.00048828125,-0.00048828125)">
   <path
   d="M 813,0 C 632,0 489,54 383,161 276,268 223,411 223,592 223,773 276,916 383,1023 489,1130 632,1184 813,1184 992,1184 1136,1130 1245,1023 1353,916 1407,772 1407,592 1407,412 1353,268 1245,161 1136,54 992,0 813,0 Z"
   id="path9" />
  </g>
  <g
   id="bullet-char-template-8226"
   transform="scale(0.00048828125,-0.00048828125)">
   <path
   d="M 346,457 C 273,457 209,483 155,535 101,586 74,649 74,723 74,796 101,859 155,911 209,963 273,989 346,989 419,989 480,963 531,910 582,859 608,796 608,723 608,648 583,586 532,535 482,483 420,457 346,457 Z"
   id="path10" />
  </g>
  <g
   id="bullet-char-template-8211"
   transform="scale(0.00048828125,-0.00048828125)">
   <path
   d="M -4,459 L 1135,459 1135,606 -4,606 -4,459 Z"
   id="path11" />
  </g>
  <g
   id="bullet-char-template-61548"
   transform="scale(0.00048828125,-0.00048828125)">
   <path
   d="M 173,740 C 173,903 231,1043 346,1159 462,1274 601,1332 765,1332 928,1332 1067,1274 1183,1159 1299,1043 1357,903 1357,740 1357,577 1299,437 1183,322 1067,206 928,148 765,148 601,148 462,206 346,322 231,437 173,577 173,740 Z"
   id="path12" />
  </g>
 </defs>
 
 <path
   id="path13"
   d="M 5896.7976 901.80541 C 5883.7796 901.79418 5870.2124 902.18147 5856.0249 902.99397 C 5682.7031 912.1969 5522.3969 959.65701 5447.5744 1048.9282 C 5442.5272 1053.4302 5438.3006 1058.7389 5435.017 1064.9996 C 5434.5635 1065.8822 5433.899 1066.9324 5433.4151 1067.8418 C 5429.4179 1073.8923 5425.7556 1080.1042 5422.5114 1086.497 C 5325.2584 1242.7244 4934.9284 1655.2092 4817.587 1791.6219 C 4813.1783 1796.4233 4808.928 1801.5306 4804.6679 1806.6597 C 4801.7783 1810.116 4796.3602 1816.1085 4794.0226 1819.0104 C 4791.7025 1821.8905 4789.5966 1825.1498 4787.6147 1828.5705 C 4774.0754 1847.1696 4761.1943 1867.4548 4749.0124 1890.0138 C 4667.0124 2041.0138 4679.9844 2252.0165 4741.9844 2354.0165 C 4797.5915 2445.4992 4915.9088 2419.4078 5023.4143 2356.807 C 5194.2639 2271.5702 5882.509 1638.8283 5974.9841 1446.9918 C 5975.0251 1446.9072 5975.0467 1446.818 5975.0874 1446.7334 C 6018.6775 1376.2675 6049.7778 1304.6422 6068.0017 1250.9831 C 6155.1892 996.92056 6092.0686 901.97387 5896.7976 901.80541 z M 6077.9752 2086.9527 C 6064.9093 2086.8795 6051.2458 2087.2362 6036.9958 2087.9862 C 5809.9958 2100.9862 5607.0156 2177.9897 5586.0156 2326.9897 C 5563.0156 2476.9897 5587.0067 2723.0026 5689.0067 2836.0026 C 5785.0067 2943.0026 5858.0192 2915.9857 5993.0192 2816.9857 C 6126.0192 2719.9857 6213.0061 2543.0089 6250.0061 2437.0089 C 6336.2561 2183.8839 6273.964 2088.0513 6077.9752 2086.9527 z M 4209.9756 2223.7919 C 4196.9096 2223.7665 4183.2461 2224.168 4168.9961 2224.9805 C 3942.9961 2237.9805 3739.0159 2314.9839 3718.0159 2463.9839 C 3696.0159 2613.9839 3719.0071 2858.9968 3821.0071 2972.9968 C 3918.0071 3078.9968 3990.0195 3052.9799 4125.0195 2953.9799 C 4259.0195 2855.9799 4346.0064 2679.0212 4382.0064 2573.0212 C 4468.2564 2320.8337 4405.9643 2224.1728 4209.9756 2223.7919 z M 6516.9665 3040.9513 C 6503.8935 3040.8781 6490.2371 3041.2348 6475.9871 3041.9848 C 6293.4223 3052.4864 6125.9437 3104.8042 6056.6845 3203.577 C 6052.6642 3207.0619 6049.2126 3211.0061 6047.021 3215.9794 C 5929.991 3483.4765 5488.1288 4314.9533 5186.04 4959.1805 C 4998.2625 4829.0515 4912.8948 4756.5586 4690.9798 4524.9951 C 4367.9798 4187.9951 4030.9819 3607.9752 3978.9819 3369.9752 C 3976.1184 3357.4073 3971.0721 3346.9802 3964.7192 3337.8324 C 3930.6843 3276.9378 3852.765 3255.2206 3733.9839 3262.0231 C 3507.9839 3274.0231 3304.0037 3350.9749 3283.0037 3500.9749 C 3271.1909 3577.5016 3271.6262 3679.5792 3288.6881 3776.2553 C 3288.6876 3793.344 3290.4363 3810.3132 3294.9927 3827.0015 C 3377.9927 4129.0015 3667.0035 4579.0064 4049.0035 5017.0064 C 4345.3569 5358.474 4604.759 5543.8466 4858.3597 5725.1285 C 4592.9995 6390.8997 4287.887 7220.9312 4146.982 7515.9753 C 4144.2649 7521.7114 4143.6132 7528.0754 4144.0364 7534.6822 C 4143.2644 7538.4169 4142.5572 7542.1695 4142.021 7545.9993 C 4120.021 7694.9993 4143.0122 7941.0121 4245.0122 8055.0121 C 4341.0122 8161.0121 4414.0246 8134.9952 4549.0246 8035.9952 C 4654.5556 7958.8159 4730.1484 7832.7526 4775.1607 7730.8459 C 4779.6112 7724.4389 4783.6391 7717.6125 4786.9946 7710.0203 C 4885.9946 7486.0203 5098.0001 6586.0148 5416.0001 5811.0148 C 5735.0001 5037.0148 6433.0219 3902.0088 6625.0219 3539.0088 C 6626.4012 3536.3546 6627.1003 3533.5007 6627.9158 3530.6889 C 6655.1833 3479.4961 6675.6164 3430.407 6688.9973 3391.0075 C 6776.1848 3137.8825 6713.0615 3042.0499 6516.9665 3040.9513 z " />
   
  
</svg>
