<?xml version="1.0" encoding="UTF-8" standalone="no"?>
<svg
   version="1.2"
   width="100mm"
   height="100mm"
   viewBox="0 0 10000 10000"
   preserveAspectRatio="xMidYMid"
   fill-rule="evenodd"
   stroke-width="28.222"
   stroke-linejoin="round"
   xml:space="preserve"
   id="svg21"
   sodipodi:docname="gobo-caps-03C8.svg"
   inkscape:version="1.4 (86a8ad7, 2024-10-11)"
   xmlns:inkscape="http://www.inkscape.org/namespaces/inkscape"
   xmlns:sodipodi="http://sodipodi.sourceforge.net/DTD/sodipodi-0.dtd"
   xmlns="http://www.w3.org/2000/svg"
   xmlns:svg="http://www.w3.org/2000/svg"
   xmlns:ooo="http://xml.openoffice.org/svg/export"><sodipodi:namedview
   id="namedview21"
   pagecolor="#ffffff"
   bordercolor="#000000"
   borderopacity="0.25"
   inkscape:showpageshadow="2"
   inkscape:pageopacity="0.0"
   inkscape:pagecheckerboard="0"
   inkscape:deskcolor="#d1d1d1"
   inkscape:document-units="mm"
   showgrid="false"
   inkscape:zoom="3.0876875"
   inkscape:cx="188.81444"
   inkscape:cy="188.97638"
   inkscape:window-width="2560"
   inkscape:window-height="1369"
   inkscape:window-x="-8"
   inkscape:window-y="-8"
   inkscape:window-maximized="1"
   inkscape:current-layer="svg21" />
 <defs
   class="ClipPathGroup"
   id="defs2">
  
  <clipPath
   id="presentation_clip_path_shrink"
   clipPathUnits="userSpaceOnUse">
   <rect
   x="10"
   y="10"
   width="9980"
   height="9980"
   id="rect2" />
  </clipPath>
 
  
 
   
  
    
   
     
    
      
      
      
      
      
      
     
       
      
       
      
       
      
       
      
       
      
       
      
        
        
       
        
        
       
        
        
       
        
        
       
        
        
       
        
        
       </defs>
 <defs
   class="TextShapeIndex"
   id="defs3">
  <g
   ooo:slide="id1"
   ooo:id-list="id3 id4 id5 id6 id7 id8"
   id="g2" />
 </defs>
 <defs
   class="EmbeddedBulletChars"
   id="defs12">
  <g
   id="bullet-char-template-57356"
   transform="scale(0.00048828125,-0.00048828125)">
   <path
   d="M 580,1141 L 1163,571 580,0 -4,571 580,1141 Z"
   id="path3" />
  </g>
  <g
   id="bullet-char-template-57354"
   transform="scale(0.00048828125,-0.00048828125)">
   <path
   d="M 8,1128 L 1137,1128 1137,0 8,0 8,1128 Z"
   id="path4" />
  </g>
  <g
   id="bullet-char-template-10146"
   transform="scale(0.00048828125,-0.00048828125)">
   <path
   d="M 174,0 L 602,739 174,1481 1456,739 174,0 Z M 1358,739 L 309,1346 659,739 1358,739 Z"
   id="path5" />
  </g>
  <g
   id="bullet-char-template-10132"
   transform="scale(0.00048828125,-0.00048828125)">
   <path
   d="M 2015,739 L 1276,0 717,0 1260,543 174,543 174,936 1260,936 717,1481 1274,1481 2015,739 Z"
   id="path6" />
  </g>
  <g
   id="bullet-char-template-10007"
   transform="scale(0.00048828125,-0.00048828125)">
   <path
   d="M 0,-2 C -7,14 -16,27 -25,37 L 356,567 C 262,823 215,952 215,954 215,979 228,992 255,992 264,992 276,990 289,987 310,991 331,999 354,1012 L 381,999 492,748 772,1049 836,1024 860,1049 C 881,1039 901,1025 922,1006 886,937 835,863 770,784 769,783 710,716 594,584 L 774,223 C 774,196 753,168 711,139 L 727,119 C 717,90 699,76 672,76 641,76 570,178 457,381 L 164,-76 C 142,-110 111,-127 72,-127 30,-127 9,-110 8,-76 1,-67 -2,-52 -2,-32 -2,-23 -1,-13 0,-2 Z"
   id="path7" />
  </g>
  <g
   id="bullet-char-template-10004"
   transform="scale(0.00048828125,-0.00048828125)">
   <path
   d="M 285,-33 C 182,-33 111,30 74,156 52,228 41,333 41,471 41,549 55,616 82,672 116,743 169,778 240,778 293,778 328,747 346,684 L 369,508 C 377,444 397,411 428,410 L 1163,1116 C 1174,1127 1196,1133 1229,1133 1271,1133 1292,1118 1292,1087 L 1292,965 C 1292,929 1282,901 1262,881 L 442,47 C 390,-6 338,-33 285,-33 Z"
   id="path8" />
  </g>
  <g
   id="bullet-char-template-9679"
   transform="scale(0.00048828125,-0.00048828125)">
   <path
   d="M 813,0 C 632,0 489,54 383,161 276,268 223,411 223,592 223,773 276,916 383,1023 489,1130 632,1184 813,1184 992,1184 1136,1130 1245,1023 1353,916 1407,772 1407,592 1407,412 1353,268 1245,161 1136,54 992,0 813,0 Z"
   id="path9" />
  </g>
  <g
   id="bullet-char-template-8226"
   transform="scale(0.00048828125,-0.00048828125)">
   <path
   d="M 346,457 C 273,457 209,483 155,535 101,586 74,649 74,723 74,796 101,859 155,911 209,963 273,989 346,989 419,989 480,963 531,910 582,859 608,796 608,723 608,648 583,586 532,535 482,483 420,457 346,457 Z"
   id="path10" />
  </g>
  <g
   id="bullet-char-template-8211"
   transform="scale(0.00048828125,-0.00048828125)">
   <path
   d="M -4,459 L 1135,459 1135,606 -4,606 -4,459 Z"
   id="path11" />
  </g>
  <g
   id="bullet-char-template-61548"
   transform="scale(0.00048828125,-0.00048828125)">
   <path
   d="M 173,740 C 173,903 231,1043 346,1159 462,1274 601,1332 765,1332 928,1332 1067,1274 1183,1159 1299,1043 1357,903 1357,740 1357,577 1299,437 1183,322 1067,206 928,148 765,148 601,148 462,206 346,322 231,437 173,577 173,740 Z"
   id="path12" />
  </g>
 </defs>
 
 <path
   id="path13"
   d="M 6925.9855 3021.9861 C 6912.9195 3021.9128 6899.2561 3022.2696 6885.0061 3023.0196 C 6659.0061 3036.0196 6455.0258 3113.0231 6434.0258 3262.0231 C 6425.8721 3317.6164 6423.952 3386.3797 6429.8917 3456.6882 C 6444.3589 3732.8668 6453.8507 4624.5669 6447.9785 5248 C 6443.0893 5767.0642 5875.1727 5991.2556 5313.8875 6082.4711 C 5310.6096 6011.1088 5308.4947 5943.5621 5307.9964 5882.0182 C 5303.9964 5389.0182 5321.9789 3730.9973 5382.9789 3345.9973 C 5383.2544 3343.4544 5382.769 3341.1547 5382.4104 3338.8143 C 5390.5923 3197.5629 5303.9929 3147.9636 5131.9865 3157.0166 C 4905.9865 3170.0166 4702.0062 3248.0019 4681.0062 3397.0019 C 4679.5233 3407.0454 4678.2458 3417.6181 4677.1822 3428.4729 C 4676.8437 3429.6437 4676.1367 3430.8185 4675.9936 3431.9869 C 4675.6716 3437.0364 4675.5718 3446.9599 4675.2701 3452.4507 C 4674.2371 3468.0943 4673.726 3484.3501 4673.5648 3501.0266 C 4657.0022 3922.7579 4680.3464 5196.6229 4687.0007 5805.0203 C 4688.0196 5898.1803 4689.434 6018.8886 4690.463 6124.3806 C 4136.739 6077.3366 3649.4817 5739.5078 3591.9771 5242.0056 C 3525.9771 4671.0056 3555.9756 3651.0124 3574.9756 3479.0124 C 3575.7034 3472.4238 3575.0006 3466.6654 3573.5803 3461.3391 C 3568.5472 3342.0075 3483.0256 3299.5928 3323.0013 3308.0151 C 3097.0013 3321.0151 2893.0211 3398.0186 2872.0211 3547.0186 C 2865.1259 3594.0308 2862.6727 3650.4606 2865.6649 3709.2826 C 2865.2316 3712.5581 2864.7059 3715.8391 2864.9931 3718.9978 C 2877.9931 3861.9978 2920.9799 4403.0087 2953.9799 5276.0087 C 2984.7833 6090.898 3365.3616 6915.9105 4698.4212 6858.7027 C 4703.5981 7240.2033 4710.5514 7573.3578 4721.9856 7696.016 C 4722.0479 7696.7213 4722.4033 7697.2451 4722.5024 7697.928 C 4732.0753 7818.7079 4764.8787 7945.241 4829.9894 8018.0118 C 4925.9894 8124.0118 4999.0018 8097.9949 5134.0018 7998.9949 C 5268.0018 7899.9949 5354.0069 7723.9846 5390.0069 7617.9846 C 5423.1 7521.5518 5434.4189 7448.1805 5425.1985 7394.0706 C 5420.3467 7314.9768 5392.8969 7066.2748 5365.4089 6771.5246 C 6639.5953 6505.2415 6988.9821 5800.2977 7044.0144 4983.9852 C 7104.0144 4093.9852 7131.9985 3366.0169 7135.9985 3194.0169 C 7136.0155 3193.2866 7135.801 3192.6684 7135.7918 3191.9498 C 7137.5276 3071.9017 7065.8745 3022.7702 6925.9855 3021.9861 z " />
   
  
</svg>
