<?xml version="1.0" encoding="UTF-8" standalone="no"?>
<svg
   version="1.2"
   width="100mm"
   height="100mm"
   viewBox="0 0 10000 10000"
   preserveAspectRatio="xMidYMid"
   fill-rule="evenodd"
   stroke-width="28.222"
   stroke-linejoin="round"
   xml:space="preserve"
   id="svg29"
   sodipodi:docname="gobo-caps-0390.svg"
   inkscape:version="1.4 (86a8ad7, 2024-10-11)"
   xmlns:inkscape="http://www.inkscape.org/namespaces/inkscape"
   xmlns:sodipodi="http://sodipodi.sourceforge.net/DTD/sodipodi-0.dtd"
   xmlns="http://www.w3.org/2000/svg"
   xmlns:svg="http://www.w3.org/2000/svg"
   xmlns:ooo="http://xml.openoffice.org/svg/export"><sodipodi:namedview
   id="namedview29"
   pagecolor="#ffffff"
   bordercolor="#000000"
   borderopacity="0.25"
   inkscape:showpageshadow="2"
   inkscape:pageopacity="0.0"
   inkscape:pagecheckerboard="0"
   inkscape:deskcolor="#d1d1d1"
   inkscape:document-units="mm"
   showgrid="false"
   inkscape:zoom="3.0876875"
   inkscape:cx="188.81444"
   inkscape:cy="188.97638"
   inkscape:window-width="2560"
   inkscape:window-height="1369"
   inkscape:window-x="-8"
   inkscape:window-y="-8"
   inkscape:window-maximized="1"
   inkscape:current-layer="svg29" />
 <defs
   class="ClipPathGroup"
   id="defs2">
  
  <clipPath
   id="presentation_clip_path_shrink"
   clipPathUnits="userSpaceOnUse">
   <rect
   x="10"
   y="10"
   width="9980"
   height="9980"
   id="rect2" />
  </clipPath>
 
  
 
   
  
    
   
     
    
      
      
      
      
      
      
      
      
      
      
      
      
      
      
     
       
      
       
      
       
      
       
      
       
      
       
      
       
      
       
      
       
      
       
      
       
      
       
      
       
      
       
      
        
        
       
        
        
       
        
        
       
        
        
       
        
        
       
        
        
       
        
        
       
        
        
       
        
        
       
        
        
       
        
        
       
        
        
       
        
        
       
        
        
       </defs>
 <defs
   class="TextShapeIndex"
   id="defs3">
  <g
   ooo:slide="id1"
   ooo:id-list="id3 id4 id5 id6 id7 id8 id9 id10 id11 id12 id13 id14 id15 id16"
   id="g2" />
 </defs>
 <defs
   class="EmbeddedBulletChars"
   id="defs12">
  <g
   id="bullet-char-template-57356"
   transform="scale(0.00048828125,-0.00048828125)">
   <path
   d="M 580,1141 L 1163,571 580,0 -4,571 580,1141 Z"
   id="path3" />
  </g>
  <g
   id="bullet-char-template-57354"
   transform="scale(0.00048828125,-0.00048828125)">
   <path
   d="M 8,1128 L 1137,1128 1137,0 8,0 8,1128 Z"
   id="path4" />
  </g>
  <g
   id="bullet-char-template-10146"
   transform="scale(0.00048828125,-0.00048828125)">
   <path
   d="M 174,0 L 602,739 174,1481 1456,739 174,0 Z M 1358,739 L 309,1346 659,739 1358,739 Z"
   id="path5" />
  </g>
  <g
   id="bullet-char-template-10132"
   transform="scale(0.00048828125,-0.00048828125)">
   <path
   d="M 2015,739 L 1276,0 717,0 1260,543 174,543 174,936 1260,936 717,1481 1274,1481 2015,739 Z"
   id="path6" />
  </g>
  <g
   id="bullet-char-template-10007"
   transform="scale(0.00048828125,-0.00048828125)">
   <path
   d="M 0,-2 C -7,14 -16,27 -25,37 L 356,567 C 262,823 215,952 215,954 215,979 228,992 255,992 264,992 276,990 289,987 310,991 331,999 354,1012 L 381,999 492,748 772,1049 836,1024 860,1049 C 881,1039 901,1025 922,1006 886,937 835,863 770,784 769,783 710,716 594,584 L 774,223 C 774,196 753,168 711,139 L 727,119 C 717,90 699,76 672,76 641,76 570,178 457,381 L 164,-76 C 142,-110 111,-127 72,-127 30,-127 9,-110 8,-76 1,-67 -2,-52 -2,-32 -2,-23 -1,-13 0,-2 Z"
   id="path7" />
  </g>
  <g
   id="bullet-char-template-10004"
   transform="scale(0.00048828125,-0.00048828125)">
   <path
   d="M 285,-33 C 182,-33 111,30 74,156 52,228 41,333 41,471 41,549 55,616 82,672 116,743 169,778 240,778 293,778 328,747 346,684 L 369,508 C 377,444 397,411 428,410 L 1163,1116 C 1174,1127 1196,1133 1229,1133 1271,1133 1292,1118 1292,1087 L 1292,965 C 1292,929 1282,901 1262,881 L 442,47 C 390,-6 338,-33 285,-33 Z"
   id="path8" />
  </g>
  <g
   id="bullet-char-template-9679"
   transform="scale(0.00048828125,-0.00048828125)">
   <path
   d="M 813,0 C 632,0 489,54 383,161 276,268 223,411 223,592 223,773 276,916 383,1023 489,1130 632,1184 813,1184 992,1184 1136,1130 1245,1023 1353,916 1407,772 1407,592 1407,412 1353,268 1245,161 1136,54 992,0 813,0 Z"
   id="path9" />
  </g>
  <g
   id="bullet-char-template-8226"
   transform="scale(0.00048828125,-0.00048828125)">
   <path
   d="M 346,457 C 273,457 209,483 155,535 101,586 74,649 74,723 74,796 101,859 155,911 209,963 273,989 346,989 419,989 480,963 531,910 582,859 608,796 608,723 608,648 583,586 532,535 482,483 420,457 346,457 Z"
   id="path10" />
  </g>
  <g
   id="bullet-char-template-8211"
   transform="scale(0.00048828125,-0.00048828125)">
   <path
   d="M -4,459 L 1135,459 1135,606 -4,606 -4,459 Z"
   id="path11" />
  </g>
  <g
   id="bullet-char-template-61548"
   transform="scale(0.00048828125,-0.00048828125)">
   <path
   d="M 173,740 C 173,903 231,1043 346,1159 462,1274 601,1332 765,1332 928,1332 1067,1274 1183,1159 1299,1043 1357,903 1357,740 1357,577 1299,437 1183,322 1067,206 928,148 765,148 601,148 462,206 346,322 231,437 173,577 173,740 Z"
   id="path12" />
  </g>
 </defs>
 
 <path
   id="path13"
   d="M 5893.8004 701.76595 C 5880.7823 701.75471 5867.1635 702.19368 5852.976 703.00618 C 5679.6542 712.20911 5519.3996 759.66922 5444.5772 848.94042 C 5439.53 853.44246 5435.3034 858.75108 5432.0198 865.01179 C 5431.5662 865.89442 5430.9017 866.94464 5430.4178 867.854 C 5426.4207 873.9045 5422.7583 880.11644 5419.5141 886.50919 C 5322.2611 1042.7366 4931.9311 1455.2215 4814.5898 1591.6341 C 4810.181 1596.4355 4805.9308 1601.5428 4801.6707 1606.6719 C 4798.7811 1610.1282 4793.363 1616.1207 4791.0254 1619.0226 C 4788.7053 1621.9027 4786.5993 1625.162 4784.6175 1628.5828 C 4771.0781 1647.1818 4758.1971 1667.4153 4746.0152 1689.9744 C 4664.0152 1840.9744 4676.9872 2051.977 4738.9872 2153.977 C 4794.5298 2245.3535 4912.6495 2219.469 5020.0553 2157.0259 C 5190.2732 2072.5271 5879.4444 1438.9804 5971.9869 1247.004 C 5972.0516 1246.8705 5972.0778 1246.7242 5972.1419 1246.5906 C 6015.6992 1176.1572 6046.7893 1104.6288 6065.0044 1050.9953 C 6152.1919 796.93277 6089.0714 701.9344 5893.8004 701.76595 z M 6074.978 1886.9649 C 6061.9121 1886.8917 6048.2486 1887.2484 6033.9986 1887.9984 C 5806.9986 1900.9984 5604.0183 1978.0019 5583.0183 2127.0019 C 5560.0183 2277.0019 5584.0095 2523.0148 5686.0095 2636.0148 C 5782.0095 2743.0148 5855.0219 2715.9979 5990.0219 2616.9979 C 6123.0219 2519.9979 6210.0088 2343.0211 6247.0088 2237.0211 C 6333.2588 1983.8961 6270.9668 1888.0635 6074.978 1886.9649 z M 4206.9783 2023.8041 C 4193.9124 2023.7787 4180.2489 2024.1802 4165.9989 2024.9927 C 3939.9989 2037.9927 3736.0187 2114.9962 3715.0187 2263.9962 C 3693.0187 2413.9962 3716.0098 2659.009 3818.0098 2773.009 C 3915.0098 2879.009 3987.0223 2852.9921 4122.0223 2753.9921 C 4256.0223 2655.9921 4343.0092 2478.9818 4379.0092 2372.9818 C 4465.2592 2120.7943 4402.9671 2024.185 4206.9783 2023.8041 z M 6234.9682 3092.9895 C 6232.7962 3092.9773 6230.5068 3093.0302 6228.302 3093.0412 C 5719.8103 3091.1142 4214.6852 3226.0622 3776.9787 3323.9831 C 3774.0481 3324.7317 3771.3348 3326.1871 3768.5038 3327.2904 C 3620.8659 3362.8022 3508.3123 3433.4801 3493.0167 3542.006 C 3471.0167 3691.006 3494.0079 3937.0188 3596.0079 4051.0188 C 3640.6826 4099.3781 3680.0525 4120.0876 3722.7185 4118.7667 C 3723.488 4118.7666 3724.2136 4119.0905 3724.9922 4119.025 C 3725.7664 4118.8536 3726.948 4118.6801 3727.7311 4118.5083 C 3738.2683 4117.7626 3749.0824 4115.4538 3760.1839 4112.1521 C 3928.0559 4078.6577 4244.5947 4038.5209 4590.8825 4002.443 C 4579.4007 4366.3618 4573.6268 4843.2228 4575.0179 5344.0149 C 4581.0919 5967.0348 4613.6487 6760.2156 4630.1049 7220.3861 C 4314.936 7263.4864 4039.7785 7306.1624 3887.2562 7336.8131 C 3863.8887 7340.8694 3841.3072 7345.8375 3819.4051 7351.4892 C 3818.7465 7351.6489 3817.6245 7351.8473 3816.9763 7352.006 C 3816.7963 7352.0519 3816.6391 7352.1654 3816.4595 7352.2127 C 3677.429 7388.6672 3572.7408 7457.6118 3558.0257 7562.019 C 3536.0257 7712.019 3559.0168 7957.9802 3661.0168 8070.9802 C 3706.9336 8121.6307 3747.2459 8142.2258 3791.2931 8139.3998 C 3793.5199 8139.6765 3795.7262 8140.2375 3798.011 8140.0199 C 4201.011 8049.0199 5768.9749 7861.977 6040.9749 7868.977 C 6041.7206 7868.9331 6042.5454 7868.5522 6043.3003 7868.4602 C 6091.7598 7864.8154 6144.8994 7833.4282 6215.0211 7782.0056 C 6349.0211 7684.0056 6435.9745 7506.9952 6470.9745 7400.9952 C 6563.9745 7130.9952 6485.9796 7040.0243 6259.9796 7052.0243 C 6251.401 7052.5156 6242.9558 7053.259 6234.4514 7053.9363 C 6041.7978 7058.4989 5705.1962 7089.9586 5339.3123 7131.7093 C 5319.3226 6800.75 5233.6902 6354.1874 5211.9816 5598.0045 C 5193.6654 5007.6604 5219.8917 4384.9959 5260.1957 3941.0514 C 5598.9494 3914.6357 5882.297 3900.479 5976.0176 3910.9757 C 5981.3188 3910.816 5986.7206 3909.8173 5992.244 3908.0818 C 6036.9991 3899.9309 6086.5584 3869.5552 6150.0122 3823.0224 C 6283.0122 3726.0224 6370.9991 3547.994 6406.9991 3442.994 C 6488.3054 3204.3775 6437.5266 3105.6416 6267.266 3094.178 C 6265.473 3093.8478 6263.9092 3093.1062 6261.995 3092.9895 C 6254.7549 3092.8675 6245.0315 3093.0954 6237.2937 3093.0412 C 6236.5056 3093.0336 6235.7606 3092.9939 6234.9682 3092.9895 z " />
   
  
</svg>
