<?xml version="1.0" encoding="UTF-8" standalone="no"?>
<svg
   version="1.2"
   width="100mm"
   height="100mm"
   viewBox="0 0 10000 10000"
   preserveAspectRatio="xMidYMid"
   fill-rule="evenodd"
   stroke-width="28.222"
   stroke-linejoin="round"
   xml:space="preserve"
   id="svg32"
   sodipodi:docname="gobo-caps-E005.svg"
   inkscape:version="1.4 (86a8ad7, 2024-10-11)"
   xmlns:inkscape="http://www.inkscape.org/namespaces/inkscape"
   xmlns:sodipodi="http://sodipodi.sourceforge.net/DTD/sodipodi-0.dtd"
   xmlns="http://www.w3.org/2000/svg"
   xmlns:svg="http://www.w3.org/2000/svg"
   xmlns:ooo="http://xml.openoffice.org/svg/export"><sodipodi:namedview
   id="namedview32"
   pagecolor="#ffffff"
   bordercolor="#000000"
   borderopacity="0.25"
   inkscape:showpageshadow="2"
   inkscape:pageopacity="0.0"
   inkscape:pagecheckerboard="0"
   inkscape:deskcolor="#d1d1d1"
   inkscape:document-units="mm"
   showgrid="false"
   inkscape:zoom="3.0876875"
   inkscape:cx="188.81444"
   inkscape:cy="188.97638"
   inkscape:window-width="2560"
   inkscape:window-height="1369"
   inkscape:window-x="-8"
   inkscape:window-y="-8"
   inkscape:window-maximized="1"
   inkscape:current-layer="svg32" />
 <defs
   class="ClipPathGroup"
   id="defs2">
  
  <clipPath
   id="presentation_clip_path_shrink"
   clipPathUnits="userSpaceOnUse">
   <rect
   x="10"
   y="10"
   width="9980"
   height="9980"
   id="rect2" />
  </clipPath>
 
  
 
   
  
    
   
     
    
      
      
      
      
      
      
      
      
      
      
      
      
      
      
      
      
      
     
       
      
       
      
       
      
       
      
       
      
       
      
       
      
       
      
       
      
       
      
       
      
       
      
       
      
       
      
       
      
       
      
       
      
        
        
       
        
        
       
        
        
       
        
        
       
        
        
       
        
        
       
        
        
       
        
        
       
        
        
       
        
        
       
        
        
       
        
        
       
        
        
       
        
        
       
        
        
       
        
        
       
        
        
       </defs>
 <defs
   class="TextShapeIndex"
   id="defs3">
  <g
   ooo:slide="id1"
   ooo:id-list="id3 id4 id5 id6 id7 id8 id9 id10 id11 id12 id13 id14 id15 id16 id17 id18 id19"
   id="g2" />
 </defs>
 <defs
   class="EmbeddedBulletChars"
   id="defs12">
  <g
   id="bullet-char-template-57356"
   transform="scale(0.00048828125,-0.00048828125)">
   <path
   d="M 580,1141 L 1163,571 580,0 -4,571 580,1141 Z"
   id="path3" />
  </g>
  <g
   id="bullet-char-template-57354"
   transform="scale(0.00048828125,-0.00048828125)">
   <path
   d="M 8,1128 L 1137,1128 1137,0 8,0 8,1128 Z"
   id="path4" />
  </g>
  <g
   id="bullet-char-template-10146"
   transform="scale(0.00048828125,-0.00048828125)">
   <path
   d="M 174,0 L 602,739 174,1481 1456,739 174,0 Z M 1358,739 L 309,1346 659,739 1358,739 Z"
   id="path5" />
  </g>
  <g
   id="bullet-char-template-10132"
   transform="scale(0.00048828125,-0.00048828125)">
   <path
   d="M 2015,739 L 1276,0 717,0 1260,543 174,543 174,936 1260,936 717,1481 1274,1481 2015,739 Z"
   id="path6" />
  </g>
  <g
   id="bullet-char-template-10007"
   transform="scale(0.00048828125,-0.00048828125)">
   <path
   d="M 0,-2 C -7,14 -16,27 -25,37 L 356,567 C 262,823 215,952 215,954 215,979 228,992 255,992 264,992 276,990 289,987 310,991 331,999 354,1012 L 381,999 492,748 772,1049 836,1024 860,1049 C 881,1039 901,1025 922,1006 886,937 835,863 770,784 769,783 710,716 594,584 L 774,223 C 774,196 753,168 711,139 L 727,119 C 717,90 699,76 672,76 641,76 570,178 457,381 L 164,-76 C 142,-110 111,-127 72,-127 30,-127 9,-110 8,-76 1,-67 -2,-52 -2,-32 -2,-23 -1,-13 0,-2 Z"
   id="path7" />
  </g>
  <g
   id="bullet-char-template-10004"
   transform="scale(0.00048828125,-0.00048828125)">
   <path
   d="M 285,-33 C 182,-33 111,30 74,156 52,228 41,333 41,471 41,549 55,616 82,672 116,743 169,778 240,778 293,778 328,747 346,684 L 369,508 C 377,444 397,411 428,410 L 1163,1116 C 1174,1127 1196,1133 1229,1133 1271,1133 1292,1118 1292,1087 L 1292,965 C 1292,929 1282,901 1262,881 L 442,47 C 390,-6 338,-33 285,-33 Z"
   id="path8" />
  </g>
  <g
   id="bullet-char-template-9679"
   transform="scale(0.00048828125,-0.00048828125)">
   <path
   d="M 813,0 C 632,0 489,54 383,161 276,268 223,411 223,592 223,773 276,916 383,1023 489,1130 632,1184 813,1184 992,1184 1136,1130 1245,1023 1353,916 1407,772 1407,592 1407,412 1353,268 1245,161 1136,54 992,0 813,0 Z"
   id="path9" />
  </g>
  <g
   id="bullet-char-template-8226"
   transform="scale(0.00048828125,-0.00048828125)">
   <path
   d="M 346,457 C 273,457 209,483 155,535 101,586 74,649 74,723 74,796 101,859 155,911 209,963 273,989 346,989 419,989 480,963 531,910 582,859 608,796 608,723 608,648 583,586 532,535 482,483 420,457 346,457 Z"
   id="path10" />
  </g>
  <g
   id="bullet-char-template-8211"
   transform="scale(0.00048828125,-0.00048828125)">
   <path
   d="M -4,459 L 1135,459 1135,606 -4,606 -4,459 Z"
   id="path11" />
  </g>
  <g
   id="bullet-char-template-61548"
   transform="scale(0.00048828125,-0.00048828125)">
   <path
   d="M 173,740 C 173,903 231,1043 346,1159 462,1274 601,1332 765,1332 928,1332 1067,1274 1183,1159 1299,1043 1357,903 1357,740 1357,577 1299,437 1183,322 1067,206 928,148 765,148 601,148 462,206 346,322 231,437 173,577 173,740 Z"
   id="path12" />
  </g>
 </defs>
 
 <path
   id="path13"
   d="M 8471.0074 3040.0211 C 8232.0074 3047.0211 7318.9884 3095.9901 6623.9884 3166.9901 C 6004.5123 3232.2452 5641.5106 3273.7124 5283.6051 3336.0237 C 5243.0506 3340.7545 5203.963 3347.7361 5167.1264 3357.0044 C 5163.4075 3357.7011 5159.74 3358.3175 5156.016 3359.0197 C 5151.5277 3359.8962 5147.1931 3361.5807 5142.8902 3363.5156 C 5012.4683 3401.0501 4916.0782 3468.9131 4901.9747 3568.9811 C 4894.7305 3616.2258 4892.2073 3673.0389 4895.2567 3732.1753 C 4880.5738 4242.714 4876.2473 5297.2505 4880.0122 5877.9874 C 4883.0122 6494.9874 4857.0054 7599.0244 4906.0054 7855.0244 C 4906.1903 7856.1087 4906.5752 7857.0541 4906.7806 7858.1249 C 4916.7652 7977.9301 4949.8254 8102.8797 5014.991 8175.0048 C 5110.991 8281.0048 5184.0216 8254.9879 5318.0216 8155.9879 C 5452.0216 8057.9879 5539.0085 7880.9776 5575.0085 7774.9776 C 5593.6152 7720.9581 5605.2702 7674.2977 5610.3552 7634.0559 C 5610.85 7630.3468 5611.638 7626.7574 5612.0088 7622.9972 C 5612.0017 7621.9771 5611.9137 7620.917 5611.9055 7619.8966 C 5614.3186 7593.1959 5613.5058 7569.6115 5609.6317 7548.8932 C 5598.3485 7174.0111 5526.5642 6756.0386 5506.6923 6020.0459 C 5698.3135 5950.8202 5993.1994 5838.4736 6435.0077 5775.9781 C 6855.0077 5714.9781 7545.9745 5699.0209 7740.9745 5711.0209 C 7741.1231 5711.0293 7741.2906 5710.9618 7741.4396 5710.9692 C 7794.5448 5714.2116 7851.669 5681.4455 7930.0069 5623.9978 C 8064.0069 5526.9978 8150.9938 5348.9874 8186.9938 5242.9874 C 8278.9938 4973.9874 8201.9835 4882.9983 7973.9835 4894.9983 C 7966.6609 4895.4195 7959.447 4896.0961 7952.176 4896.652 C 7950.0139 4896.8632 7948.1784 4896.7621 7945.9749 4897.0137 C 7944.5371 4897.1748 7943.1738 4897.3185 7941.7374 4897.4788 C 7928.96 4898.5736 7916.3084 4899.8892 7903.7552 4901.4062 C 7449.276 4950.4457 7057.4861 4963.8095 6464.98 5053.0249 C 5908.44 5137.0999 5779.2476 5181.2854 5503.4883 5246.243 C 5510.5392 4806.9636 5530.749 4402.2302 5555.9399 4062.5944 C 5896.8877 4001.5358 6364.918 3928.2278 6731.9921 3889.0132 C 7266.2995 3832.0329 8020.5854 3845.6974 8205.9073 3856.7155 C 8217.2897 3859.1369 8228.8086 3859.7686 8240.5822 3858.7825 C 8241.264 3858.848 8243.3614 3858.9243 8243.9929 3858.9892 C 8247.849 3859.353 8252.112 3858.2537 8256.6019 3856.4571 C 8300.6112 3847.5615 8349.3564 3817.5687 8411.0111 3772.0178 C 8545.0111 3673.0178 8631.998 3497.0075 8667.998 3391.0075 C 8756.8858 3132.9462 8689.4371 3038.4333 8484.2366 3041.0547 C 8479.9302 3040.558 8475.783 3039.862 8471.0074 3040.0211 z M 4590.9859 3050.9765 C 4590.3385 3050.9955 4588.9519 3051.0605 4588.2987 3051.0799 C 4578.7893 3051.2006 4569.0981 3051.4785 4558.9982 3052.0101 C 4554.7118 3052.2566 4550.5028 3052.6993 4546.2341 3052.9919 C 4284.7113 3062.3514 3687.6407 3099.1939 3024.0014 3166.9901 C 2404.5297 3232.2447 2041.5212 3273.7132 1683.6182 3336.0237 C 1643.1171 3340.7482 1604.0887 3347.7543 1567.2945 3357.0044 C 1563.5099 3357.7133 1559.7672 3358.305 1555.9774 3359.0197 C 1551.195 3359.9481 1546.5958 3361.66 1542.0247 3363.774 C 1412.0537 3401.3614 1316.0593 3469.14 1301.9877 3568.9811 C 1278.9877 3718.9811 1302.9788 3964.9939 1404.9788 4077.9939 C 1441.978 4118.8472 1475.573 4140.0018 1510.6055 4145.0183 C 1520.3922 4147.9002 1531.0251 4147.9524 1542.3865 4145.38 C 1542.5757 4145.3574 1542.7655 4145.3001 1542.9549 4145.2767 C 1543.6617 4145.1108 1544.309 4145.2065 1545.022 4145.0183 C 1545.1346 4144.989 1545.374 4144.9443 1545.487 4144.9149 C 1552.8361 4143.8689 1560.3831 4141.993 1568.018 4139.7473 C 1585.7407 4135.4357 1605.6883 4130.8058 1630.0814 4125.5363 C 1706.0571 4577.1376 1725.2004 5247.4451 1728.9901 5831.9954 C 1732.9499 6442.7999 1558.9271 7525.675 1603.9331 7795.7515 C 1612.6165 7919.2599 1645.6023 8050.3621 1713.022 8124.982 C 1809.022 8230.982 1882.001 8205.0168 2016.001 8106.0168 C 2150.001 8008.0168 2236.9879 7831.0065 2272.9879 7725.0065 C 2288.2262 7680.766 2298.7751 7641.4351 2304.9239 7606.5124 C 2306.283 7598.793 2307.414 7591.318 2308.3345 7584.0331 C 2308.8294 7580.324 2309.6173 7576.7346 2309.9882 7572.9744 C 2344.239 7224.7576 2361.0177 6740.0626 2352.2595 5903.6189 C 2526.0868 5847.5241 2745.4551 5788.421 3021.0042 5749.9849 C 3441.0042 5687.9849 3988.9823 5676.9886 4183.9823 5689.9886 C 4192.7157 5690.4812 4201.8355 5688.6783 4211.0608 5685.8544 C 4254.3065 5676.2383 4302.2544 5646.5227 4362.9895 5601.9836 C 4496.9895 5504.9836 4583.9764 5327.0249 4619.9764 5221.0249 C 4711.9764 4952.0249 4635.0178 4860.9842 4407.0178 4872.9842 C 4381.5784 4874.4475 4356.4808 4876.8639 4331.8286 4879.9605 C 4330.8336 4880.0368 4329.9911 4879.9239 4328.9864 4880.0122 C 3854.9864 4922.0122 3661.9765 4933.9981 3050.9765 5025.9981 C 2681.0685 5082.4865 2501.2731 5120.4914 2340.994 5158.9099 C 2331.876 4691.0995 2322.5682 4325.6631 2325.6978 4000.2209 C 2594.5871 3957.1487 2885.7104 3915.3249 3132.0052 3889.0132 C 3674.1706 3831.1949 4170.4851 3854.9778 4311.5197 3866.9991 C 4369.0712 3878.3997 4429.6877 3845.0365 4515.0215 3781.9913 C 4649.0215 3682.9913 4736.0084 3506.981 4772.0084 3400.981 C 4860.3495 3144.507 4794.2714 3049.6651 4592.0194 3051.0799 C 4591.6461 3051.0883 4591.3624 3050.964 4590.9859 3050.9765 z " />
   
  
</svg>
