<?xml version="1.0" encoding="UTF-8" standalone="no"?>
<svg
   version="1.2"
   width="100mm"
   height="100mm"
   viewBox="0 0 10000 10000"
   preserveAspectRatio="xMidYMid"
   fill-rule="evenodd"
   stroke-width="28.222"
   stroke-linejoin="round"
   xml:space="preserve"
   id="svg27"
   sodipodi:docname="gobo-caps-E00A.svg"
   inkscape:version="1.4 (86a8ad7, 2024-10-11)"
   xmlns:inkscape="http://www.inkscape.org/namespaces/inkscape"
   xmlns:sodipodi="http://sodipodi.sourceforge.net/DTD/sodipodi-0.dtd"
   xmlns="http://www.w3.org/2000/svg"
   xmlns:svg="http://www.w3.org/2000/svg"
   xmlns:ooo="http://xml.openoffice.org/svg/export"><sodipodi:namedview
   id="namedview27"
   pagecolor="#ffffff"
   bordercolor="#000000"
   borderopacity="0.25"
   inkscape:showpageshadow="2"
   inkscape:pageopacity="0.0"
   inkscape:pagecheckerboard="0"
   inkscape:deskcolor="#d1d1d1"
   inkscape:document-units="mm"
   showgrid="false"
   inkscape:zoom="3.0876875"
   inkscape:cx="188.81444"
   inkscape:cy="188.97638"
   inkscape:window-width="2560"
   inkscape:window-height="1369"
   inkscape:window-x="-8"
   inkscape:window-y="-8"
   inkscape:window-maximized="1"
   inkscape:current-layer="svg27" />
 <defs
   class="ClipPathGroup"
   id="defs2">
  
  <clipPath
   id="presentation_clip_path_shrink"
   clipPathUnits="userSpaceOnUse">
   <rect
   x="10"
   y="10"
   width="9980"
   height="9980"
   id="rect2" />
  </clipPath>
 
  
 
   
  
    
   
     
    
      
      
      
      
      
      
      
      
      
      
      
      
     
       
      
       
      
       
      
       
      
       
      
       
      
       
      
       
      
       
      
       
      
       
      
       
      
        
        
       
        
        
       
        
        
       
        
        
       
        
        
       
        
        
       
        
        
       
        
        
       
        
        
       
        
        
       
        
        
       
        
        
       </defs>
 <defs
   class="TextShapeIndex"
   id="defs3">
  <g
   ooo:slide="id1"
   ooo:id-list="id3 id4 id5 id6 id7 id8 id9 id10 id11 id12 id13 id14"
   id="g2" />
 </defs>
 <defs
   class="EmbeddedBulletChars"
   id="defs12">
  <g
   id="bullet-char-template-57356"
   transform="scale(0.00048828125,-0.00048828125)">
   <path
   d="M 580,1141 L 1163,571 580,0 -4,571 580,1141 Z"
   id="path3" />
  </g>
  <g
   id="bullet-char-template-57354"
   transform="scale(0.00048828125,-0.00048828125)">
   <path
   d="M 8,1128 L 1137,1128 1137,0 8,0 8,1128 Z"
   id="path4" />
  </g>
  <g
   id="bullet-char-template-10146"
   transform="scale(0.00048828125,-0.00048828125)">
   <path
   d="M 174,0 L 602,739 174,1481 1456,739 174,0 Z M 1358,739 L 309,1346 659,739 1358,739 Z"
   id="path5" />
  </g>
  <g
   id="bullet-char-template-10132"
   transform="scale(0.00048828125,-0.00048828125)">
   <path
   d="M 2015,739 L 1276,0 717,0 1260,543 174,543 174,936 1260,936 717,1481 1274,1481 2015,739 Z"
   id="path6" />
  </g>
  <g
   id="bullet-char-template-10007"
   transform="scale(0.00048828125,-0.00048828125)">
   <path
   d="M 0,-2 C -7,14 -16,27 -25,37 L 356,567 C 262,823 215,952 215,954 215,979 228,992 255,992 264,992 276,990 289,987 310,991 331,999 354,1012 L 381,999 492,748 772,1049 836,1024 860,1049 C 881,1039 901,1025 922,1006 886,937 835,863 770,784 769,783 710,716 594,584 L 774,223 C 774,196 753,168 711,139 L 727,119 C 717,90 699,76 672,76 641,76 570,178 457,381 L 164,-76 C 142,-110 111,-127 72,-127 30,-127 9,-110 8,-76 1,-67 -2,-52 -2,-32 -2,-23 -1,-13 0,-2 Z"
   id="path7" />
  </g>
  <g
   id="bullet-char-template-10004"
   transform="scale(0.00048828125,-0.00048828125)">
   <path
   d="M 285,-33 C 182,-33 111,30 74,156 52,228 41,333 41,471 41,549 55,616 82,672 116,743 169,778 240,778 293,778 328,747 346,684 L 369,508 C 377,444 397,411 428,410 L 1163,1116 C 1174,1127 1196,1133 1229,1133 1271,1133 1292,1118 1292,1087 L 1292,965 C 1292,929 1282,901 1262,881 L 442,47 C 390,-6 338,-33 285,-33 Z"
   id="path8" />
  </g>
  <g
   id="bullet-char-template-9679"
   transform="scale(0.00048828125,-0.00048828125)">
   <path
   d="M 813,0 C 632,0 489,54 383,161 276,268 223,411 223,592 223,773 276,916 383,1023 489,1130 632,1184 813,1184 992,1184 1136,1130 1245,1023 1353,916 1407,772 1407,592 1407,412 1353,268 1245,161 1136,54 992,0 813,0 Z"
   id="path9" />
  </g>
  <g
   id="bullet-char-template-8226"
   transform="scale(0.00048828125,-0.00048828125)">
   <path
   d="M 346,457 C 273,457 209,483 155,535 101,586 74,649 74,723 74,796 101,859 155,911 209,963 273,989 346,989 419,989 480,963 531,910 582,859 608,796 608,723 608,648 583,586 532,535 482,483 420,457 346,457 Z"
   id="path10" />
  </g>
  <g
   id="bullet-char-template-8211"
   transform="scale(0.00048828125,-0.00048828125)">
   <path
   d="M -4,459 L 1135,459 1135,606 -4,606 -4,459 Z"
   id="path11" />
  </g>
  <g
   id="bullet-char-template-61548"
   transform="scale(0.00048828125,-0.00048828125)">
   <path
   d="M 173,740 C 173,903 231,1043 346,1159 462,1274 601,1332 765,1332 928,1332 1067,1274 1183,1159 1299,1043 1357,903 1357,740 1357,577 1299,437 1183,322 1067,206 928,148 765,148 601,148 462,206 346,322 231,437 173,577 173,740 Z"
   id="path12" />
  </g>
 </defs>
 
 <path
   id="path13"
   d="M 8349.9812 3036.9722 C 8336.9082 3036.899 8323.2518 3037.2558 8309.0018 3038.0058 C 8149.8337 3047.1614 8002.1839 3088.0998 7921.3769 3163.8895 C 7915.9599 3168.2326 7910.7597 3173.1113 7905.9773 3178.9791 C 7604.9773 3549.9791 7544.9851 3586.0023 6888.9851 4237.0023 C 6232.9851 4888.0023 6053.9778 4994.9856 5738.9778 5356.9856 C 5711.9117 5388.1893 5686.9847 5423.0239 5663.1168 5459.2533 C 5662.7853 4698.6773 5748.1591 3845.2563 5781.9726 3484.2834 C 5807.4221 3315.2104 5721.5958 3256.3642 5536.9746 3266.984 C 5311.2258 3278.9179 5108.3116 3356.1582 5085.426 3503.5587 C 5085.3492 3504.0381 5085.0566 3504.5263 5085.0126 3505.0057 C 5084.9825 3505.4344 5084.9393 3506.2807 5084.9092 3506.711 C 5079.1516 3546.0358 5076.6114 3592.1069 5077.7262 3640.6563 C 5055.6956 4032.4291 5033.1076 4758.8552 5034.0079 5407.9903 C 5040.6349 6087.7263 5090.9754 7303.2459 5106.7167 7753.4802 C 5100.804 7900.0886 5130.6961 8087.4642 5216.0123 8181.9811 C 5313.0123 8287.9811 5385.0248 8262.0159 5520.0248 8163.0159 C 5654.0248 8066.0159 5741.0117 7888.0056 5777.0117 7782.0056 C 5798.9355 7718.5914 5811.2326 7665.1809 5814.4254 7620.5684 C 5814.9131 7619.0576 5815.7224 7617.4743 5815.9757 7616.0209 C 5822.6997 7416.745 5773.8256 7067.6702 5729.7277 6636.2874 C 5760.5008 6657.728 5793.9867 6677.2631 5831.0135 6694.01 C 6738.0135 7106.01 7899.0189 7785.0231 8029.0189 7875.0231 C 8033.9003 7878.4886 8039.5989 7880.4726 8045.7104 7881.7411 C 8110.0475 7907.2952 8174.4042 7873.8375 8271.0196 7802.9862 C 8405.0196 7705.9862 8492.0065 7529.0094 8528.0065 7423.0094 C 8585.8167 7253.349 8576.8658 7154.375 8505.6823 7107.2147 C 8498.6227 7101.2658 8490.7896 7095.8352 8482.0145 7090.9883 C 8204.0145 6936.9883 6544.9895 6180.9773 6267.9895 6000.9773 C 5991.9895 5822.9773 6069.9854 5784.9868 6757.9854 5168.9868 C 7440.9854 4550.9868 7965.9855 4132.0184 8363.9855 3678.0184 C 8367.5782 3672.8184 8370.6477 3667.2776 8373.1839 3661.4302 C 8446.7466 3569.1736 8496.8632 3461.0262 8522.0121 3386.9767 C 8609.1996 3133.8517 8546.0762 3038.0709 8349.9812 3036.9722 z M 4650.0004 3040.9513 C 4636.9274 3040.8781 4623.271 3041.2348 4609.021 3041.9848 C 4456.8069 3050.7405 4315.0697 3088.5847 4232.2998 3158.1535 C 4223.1593 3163.6846 4214.5684 3170.7 4206.9783 3180.0126 C 3905.9783 3550.0126 3925.9982 3593.0023 3288.9982 4237.0023 C 2653.9982 4877.0023 2453.9909 4993.9856 2138.9909 5356.9856 C 2111.918 5388.0979 2086.9447 5422.7942 2063.0782 5458.8916 C 2062.7745 4698.3474 2148.1829 3845.0477 2181.9857 3484.1801 C 2207.3864 3315.1837 2121.5725 3256.3663 1936.9877 3266.984 C 1711.2389 3278.9179 1508.3246 3356.1582 1485.439 3503.5587 C 1485.3622 3504.0381 1485.0696 3504.5263 1485.0256 3505.0057 C 1484.9955 3505.4344 1484.9524 3506.2807 1484.9223 3506.711 C 1479.1647 3546.0358 1476.6245 3592.1069 1477.7392 3640.6563 C 1455.7087 4032.4291 1433.1207 4758.8552 1434.021 5407.9903 C 1440.6468 6087.6081 1490.9268 7302.6792 1506.678 7753.1184 C 1500.7012 7899.78 1530.6389 8087.3863 1616.0254 8181.9811 C 1713.0254 8287.9811 1784.9862 8262.0159 1919.9862 8163.0159 C 2053.9862 8066.0159 2141.0247 7888.0056 2177.0247 7782.0056 C 2198.9486 7718.5914 2211.2456 7665.1809 2214.4385 7620.5684 C 2214.9261 7619.0576 2215.7354 7617.4743 2215.9888 7616.0209 C 2222.7139 7416.7115 2173.7411 7067.564 2129.6374 6636.0807 C 2160.4361 6657.5904 2193.9231 6677.1811 2230.9749 6694.01 C 3137.9749 7106.01 4201.9836 7790.9995 4331.9836 7881.9995 C 4338.837 7886.8125 4347.2144 7888.8754 4356.3749 7889.3892 C 4417.2471 7907.4235 4479.7167 7873.9486 4570.9871 7807.0169 C 4704.9871 7710.0169 4792.0257 7532.9885 4828.0257 7426.9885 C 4890.2193 7244.4636 4875.0498 7143.8251 4788.3382 7101.4269 C 4783.398 7097.8399 4778.6375 7094.1075 4772.9903 7090.9883 C 4494.9903 6936.9883 2945.0025 6180.9773 2668.0025 6000.9773 C 2392.0025 5822.9773 2469.9984 5784.9868 3157.9984 5168.9868 C 3840.9984 4549.9868 4266.9865 4133.0002 4664.9865 3679.0002 C 4667.4053 3675.4994 4669.2517 3671.6371 4671.1877 3667.8381 C 4745.8038 3575.0623 4796.6117 3465.7016 4821.9795 3391.0075 C 4909.167 3137.8825 4846.0953 3042.0499 4650.0004 3040.9513 z " />
   
  
</svg>
