<?xml version="1.0" encoding="UTF-8" standalone="no"?>
<svg
   version="1.2"
   width="100mm"
   height="100mm"
   viewBox="0 0 10000 10000"
   preserveAspectRatio="xMidYMid"
   fill-rule="evenodd"
   stroke-width="28.222"
   stroke-linejoin="round"
   xml:space="preserve"
   id="svg24"
   sodipodi:docname="gobo-caps-E009.svg"
   inkscape:version="1.4 (86a8ad7, 2024-10-11)"
   xmlns:inkscape="http://www.inkscape.org/namespaces/inkscape"
   xmlns:sodipodi="http://sodipodi.sourceforge.net/DTD/sodipodi-0.dtd"
   xmlns="http://www.w3.org/2000/svg"
   xmlns:svg="http://www.w3.org/2000/svg"
   xmlns:ooo="http://xml.openoffice.org/svg/export"><sodipodi:namedview
   id="namedview24"
   pagecolor="#ffffff"
   bordercolor="#000000"
   borderopacity="0.25"
   inkscape:showpageshadow="2"
   inkscape:pageopacity="0.0"
   inkscape:pagecheckerboard="0"
   inkscape:deskcolor="#d1d1d1"
   inkscape:document-units="mm"
   showgrid="false"
   inkscape:zoom="3.0876875"
   inkscape:cx="188.81444"
   inkscape:cy="188.97638"
   inkscape:window-width="2560"
   inkscape:window-height="1369"
   inkscape:window-x="-8"
   inkscape:window-y="-8"
   inkscape:window-maximized="1"
   inkscape:current-layer="svg24" />
 <defs
   class="ClipPathGroup"
   id="defs2">
  
  <clipPath
   id="presentation_clip_path_shrink"
   clipPathUnits="userSpaceOnUse">
   <rect
   x="10"
   y="10"
   width="9980"
   height="9980"
   id="rect2" />
  </clipPath>
 
  
 
   
  
    
   
     
    
      
      
      
      
      
      
      
      
      
     
       
      
       
      
       
      
       
      
       
      
       
      
       
      
       
      
       
      
        
        
       
        
        
       
        
        
       
        
        
       
        
        
       
        
        
       
        
        
       
        
        
       
        
        
       </defs>
 <defs
   class="TextShapeIndex"
   id="defs3">
  <g
   ooo:slide="id1"
   ooo:id-list="id3 id4 id5 id6 id7 id8 id9 id10 id11"
   id="g2" />
 </defs>
 <defs
   class="EmbeddedBulletChars"
   id="defs12">
  <g
   id="bullet-char-template-57356"
   transform="scale(0.00048828125,-0.00048828125)">
   <path
   d="M 580,1141 L 1163,571 580,0 -4,571 580,1141 Z"
   id="path3" />
  </g>
  <g
   id="bullet-char-template-57354"
   transform="scale(0.00048828125,-0.00048828125)">
   <path
   d="M 8,1128 L 1137,1128 1137,0 8,0 8,1128 Z"
   id="path4" />
  </g>
  <g
   id="bullet-char-template-10146"
   transform="scale(0.00048828125,-0.00048828125)">
   <path
   d="M 174,0 L 602,739 174,1481 1456,739 174,0 Z M 1358,739 L 309,1346 659,739 1358,739 Z"
   id="path5" />
  </g>
  <g
   id="bullet-char-template-10132"
   transform="scale(0.00048828125,-0.00048828125)">
   <path
   d="M 2015,739 L 1276,0 717,0 1260,543 174,543 174,936 1260,936 717,1481 1274,1481 2015,739 Z"
   id="path6" />
  </g>
  <g
   id="bullet-char-template-10007"
   transform="scale(0.00048828125,-0.00048828125)">
   <path
   d="M 0,-2 C -7,14 -16,27 -25,37 L 356,567 C 262,823 215,952 215,954 215,979 228,992 255,992 264,992 276,990 289,987 310,991 331,999 354,1012 L 381,999 492,748 772,1049 836,1024 860,1049 C 881,1039 901,1025 922,1006 886,937 835,863 770,784 769,783 710,716 594,584 L 774,223 C 774,196 753,168 711,139 L 727,119 C 717,90 699,76 672,76 641,76 570,178 457,381 L 164,-76 C 142,-110 111,-127 72,-127 30,-127 9,-110 8,-76 1,-67 -2,-52 -2,-32 -2,-23 -1,-13 0,-2 Z"
   id="path7" />
  </g>
  <g
   id="bullet-char-template-10004"
   transform="scale(0.00048828125,-0.00048828125)">
   <path
   d="M 285,-33 C 182,-33 111,30 74,156 52,228 41,333 41,471 41,549 55,616 82,672 116,743 169,778 240,778 293,778 328,747 346,684 L 369,508 C 377,444 397,411 428,410 L 1163,1116 C 1174,1127 1196,1133 1229,1133 1271,1133 1292,1118 1292,1087 L 1292,965 C 1292,929 1282,901 1262,881 L 442,47 C 390,-6 338,-33 285,-33 Z"
   id="path8" />
  </g>
  <g
   id="bullet-char-template-9679"
   transform="scale(0.00048828125,-0.00048828125)">
   <path
   d="M 813,0 C 632,0 489,54 383,161 276,268 223,411 223,592 223,773 276,916 383,1023 489,1130 632,1184 813,1184 992,1184 1136,1130 1245,1023 1353,916 1407,772 1407,592 1407,412 1353,268 1245,161 1136,54 992,0 813,0 Z"
   id="path9" />
  </g>
  <g
   id="bullet-char-template-8226"
   transform="scale(0.00048828125,-0.00048828125)">
   <path
   d="M 346,457 C 273,457 209,483 155,535 101,586 74,649 74,723 74,796 101,859 155,911 209,963 273,989 346,989 419,989 480,963 531,910 582,859 608,796 608,723 608,648 583,586 532,535 482,483 420,457 346,457 Z"
   id="path10" />
  </g>
  <g
   id="bullet-char-template-8211"
   transform="scale(0.00048828125,-0.00048828125)">
   <path
   d="M -4,459 L 1135,459 1135,606 -4,606 -4,459 Z"
   id="path11" />
  </g>
  <g
   id="bullet-char-template-61548"
   transform="scale(0.00048828125,-0.00048828125)">
   <path
   d="M 173,740 C 173,903 231,1043 346,1159 462,1274 601,1332 765,1332 928,1332 1067,1274 1183,1159 1299,1043 1357,903 1357,740 1357,577 1299,437 1183,322 1067,206 928,148 765,148 601,148 462,206 346,322 231,437 173,577 173,740 Z"
   id="path12" />
  </g>
 </defs>
 
 <path
   id="path13"
   d="M 6369.6887 3078.7268 C 5934.1027 3077.719 5486.7558 3083.3743 5111.0058 3100.9993 C 4109.0058 3147.9993 2905.0157 3226.9883 2579.0157 3280.9883 C 2574.9152 3281.8481 2570.969 3283.5438 2567.0268 3285.1225 C 2395.0352 3315.3251 2258.1759 3389.3737 2241.982 3510.0183 C 2219.982 3659.0183 2243.0248 3904.9795 2345.0248 4018.9795 C 2392.9548 4071.9021 2435.132 4091.9076 2482.1741 4086.3655 C 2486.5824 4087.6043 2491.1726 4088.1021 2496.0233 4086.9856 C 2635.8077 4056.1509 3439.2071 3960.4229 4178.6596 3896.2479 C 4219.6986 4149.1629 4268.0289 4552.1405 4351.9824 5492.998 C 4438.9824 6467.998 4515.0055 7093.0176 3804.0055 7246.0176 C 3094.0055 7397.0176 2297.9969 7190.9901 2505.9969 6341.9901 C 2506.8083 6338.5706 2506.9353 6335.3854 2507.4438 6332.0682 C 2542.9342 6147.9187 2457.5479 6083.808 2263.9962 6093.9949 C 2040.8357 6106.8316 1840.2069 6182.1263 1814.9796 6327.469 C 1814.3893 6329.007 1813.5453 6330.4571 1813.0159 6332.0166 C 1479.0159 7320.0166 2459.9952 8123.9838 3422.9952 8010.9838 C 4385.9952 7896.9838 4877.9987 7268.0241 4931.9987 6716.0241 C 4986.9987 6164.0241 4997.9919 5943.9775 4957.9919 5066.9775 C 4929.7464 4449.108 4908.2571 4162.4854 4883.5262 3846.2251 C 4953.3589 3842.7516 5026.6421 3838.5504 5086.9763 3836.9751 C 5585.7642 3825.2542 6453.9963 3863.4155 7072.0231 3894.9043 C 7140.9606 4157.7726 7240.4721 4544.4454 7409.9869 5506.0205 C 7580.9869 6476.0205 7715.0169 7093.0176 7004.0169 7246.0176 C 6294.0169 7397.0176 5834.0065 7149.9753 5820.0065 6880.9753 C 5819.9132 6880.0926 5819.4819 6879.535 5819.3347 6878.7015 C 5818.2828 6752.9818 5731.8992 6708.3787 5567.9805 6717.006 C 5341.9805 6730.006 5138.9821 6807.0095 5117.9821 6956.0095 C 5099.3623 7077.443 5110.9395 7261.7411 5170.1237 7387.5077 C 5171.347 7392.168 5172.7103 7396.7631 5174.9812 7400.9952 C 5177.3308 7404.6234 5180.0373 7407.9398 5182.4226 7411.5372 C 5193.5256 7431.4494 5206.0012 7449.5234 5219.9914 7465.0223 C 5220.2937 7465.3527 5220.5681 7465.6247 5220.8699 7465.9525 C 5514.1862 7858.8567 6032.835 8049.8858 6623.0065 8010.9838 C 7586.0065 7896.9838 8079.01 7268.0241 8132.01 6716.0241 C 8187.01 6164.0241 8164.9964 5967.9818 8015.9964 5080.9818 C 7914.6957 4473.8621 7875.7585 4217.4647 7827.2224 3918.9339 C 7865.3102 3905.6479 7907.6464 3878.6632 7958.9973 3841.0058 C 8091.9973 3743.0058 8179.0024 3565.9955 8215.0024 3459.9955 C 8308.0024 3189.9955 8230.0257 3099.0064 8003.0257 3112.0064 C 8001.9516 3112.0634 8000.8947 3112.1531 7999.8217 3112.2131 C 7695.2216 3098.1257 7051.7346 3080.3048 6369.6887 3078.7268 z " />
   
  
</svg>
