<?xml version="1.0" encoding="UTF-8" standalone="no"?>
<svg
   version="1.2"
   width="100mm"
   height="100mm"
   viewBox="0 0 10000 10000"
   preserveAspectRatio="xMidYMid"
   fill-rule="evenodd"
   stroke-width="28.222"
   stroke-linejoin="round"
   xml:space="preserve"
   id="svg21"
   sodipodi:docname="gobo-caps-E012.svg"
   inkscape:version="1.4 (86a8ad7, 2024-10-11)"
   xmlns:inkscape="http://www.inkscape.org/namespaces/inkscape"
   xmlns:sodipodi="http://sodipodi.sourceforge.net/DTD/sodipodi-0.dtd"
   xmlns="http://www.w3.org/2000/svg"
   xmlns:svg="http://www.w3.org/2000/svg"
   xmlns:ooo="http://xml.openoffice.org/svg/export"><sodipodi:namedview
   id="namedview21"
   pagecolor="#ffffff"
   bordercolor="#000000"
   borderopacity="0.25"
   inkscape:showpageshadow="2"
   inkscape:pageopacity="0.0"
   inkscape:pagecheckerboard="0"
   inkscape:deskcolor="#d1d1d1"
   inkscape:document-units="mm"
   showgrid="false"
   inkscape:zoom="3.0876875"
   inkscape:cx="188.81444"
   inkscape:cy="188.97638"
   inkscape:window-width="2560"
   inkscape:window-height="1369"
   inkscape:window-x="-8"
   inkscape:window-y="-8"
   inkscape:window-maximized="1"
   inkscape:current-layer="svg21" />
 <defs
   class="ClipPathGroup"
   id="defs2">
  
  <clipPath
   id="presentation_clip_path_shrink"
   clipPathUnits="userSpaceOnUse">
   <rect
   x="10"
   y="10"
   width="9980"
   height="9980"
   id="rect2" />
  </clipPath>
 
  
 
   
  
    
   
     
    
      
      
      
      
      
      
     
       
      
       
      
       
      
       
      
       
      
       
      
        
        
       
        
        
       
        
        
       
        
        
       
        
        
       
        
        
       </defs>
 <defs
   class="TextShapeIndex"
   id="defs3">
  <g
   ooo:slide="id1"
   ooo:id-list="id3 id4 id5 id6 id7 id8"
   id="g2" />
 </defs>
 <defs
   class="EmbeddedBulletChars"
   id="defs12">
  <g
   id="bullet-char-template-57356"
   transform="scale(0.00048828125,-0.00048828125)">
   <path
   d="M 580,1141 L 1163,571 580,0 -4,571 580,1141 Z"
   id="path3" />
  </g>
  <g
   id="bullet-char-template-57354"
   transform="scale(0.00048828125,-0.00048828125)">
   <path
   d="M 8,1128 L 1137,1128 1137,0 8,0 8,1128 Z"
   id="path4" />
  </g>
  <g
   id="bullet-char-template-10146"
   transform="scale(0.00048828125,-0.00048828125)">
   <path
   d="M 174,0 L 602,739 174,1481 1456,739 174,0 Z M 1358,739 L 309,1346 659,739 1358,739 Z"
   id="path5" />
  </g>
  <g
   id="bullet-char-template-10132"
   transform="scale(0.00048828125,-0.00048828125)">
   <path
   d="M 2015,739 L 1276,0 717,0 1260,543 174,543 174,936 1260,936 717,1481 1274,1481 2015,739 Z"
   id="path6" />
  </g>
  <g
   id="bullet-char-template-10007"
   transform="scale(0.00048828125,-0.00048828125)">
   <path
   d="M 0,-2 C -7,14 -16,27 -25,37 L 356,567 C 262,823 215,952 215,954 215,979 228,992 255,992 264,992 276,990 289,987 310,991 331,999 354,1012 L 381,999 492,748 772,1049 836,1024 860,1049 C 881,1039 901,1025 922,1006 886,937 835,863 770,784 769,783 710,716 594,584 L 774,223 C 774,196 753,168 711,139 L 727,119 C 717,90 699,76 672,76 641,76 570,178 457,381 L 164,-76 C 142,-110 111,-127 72,-127 30,-127 9,-110 8,-76 1,-67 -2,-52 -2,-32 -2,-23 -1,-13 0,-2 Z"
   id="path7" />
  </g>
  <g
   id="bullet-char-template-10004"
   transform="scale(0.00048828125,-0.00048828125)">
   <path
   d="M 285,-33 C 182,-33 111,30 74,156 52,228 41,333 41,471 41,549 55,616 82,672 116,743 169,778 240,778 293,778 328,747 346,684 L 369,508 C 377,444 397,411 428,410 L 1163,1116 C 1174,1127 1196,1133 1229,1133 1271,1133 1292,1118 1292,1087 L 1292,965 C 1292,929 1282,901 1262,881 L 442,47 C 390,-6 338,-33 285,-33 Z"
   id="path8" />
  </g>
  <g
   id="bullet-char-template-9679"
   transform="scale(0.00048828125,-0.00048828125)">
   <path
   d="M 813,0 C 632,0 489,54 383,161 276,268 223,411 223,592 223,773 276,916 383,1023 489,1130 632,1184 813,1184 992,1184 1136,1130 1245,1023 1353,916 1407,772 1407,592 1407,412 1353,268 1245,161 1136,54 992,0 813,0 Z"
   id="path9" />
  </g>
  <g
   id="bullet-char-template-8226"
   transform="scale(0.00048828125,-0.00048828125)">
   <path
   d="M 346,457 C 273,457 209,483 155,535 101,586 74,649 74,723 74,796 101,859 155,911 209,963 273,989 346,989 419,989 480,963 531,910 582,859 608,796 608,723 608,648 583,586 532,535 482,483 420,457 346,457 Z"
   id="path10" />
  </g>
  <g
   id="bullet-char-template-8211"
   transform="scale(0.00048828125,-0.00048828125)">
   <path
   d="M -4,459 L 1135,459 1135,606 -4,606 -4,459 Z"
   id="path11" />
  </g>
  <g
   id="bullet-char-template-61548"
   transform="scale(0.00048828125,-0.00048828125)">
   <path
   d="M 173,740 C 173,903 231,1043 346,1159 462,1274 601,1332 765,1332 928,1332 1067,1274 1183,1159 1299,1043 1357,903 1357,740 1357,577 1299,437 1183,322 1067,206 928,148 765,148 601,148 462,206 346,322 231,437 173,577 173,740 Z"
   id="path12" />
  </g>
 </defs>
 
 <path
   id="path13"
   d="M 3709.4893 3140.3768 C 3663.9666 3138.8865 3616.8117 3139.0594 3567.9992 3140.9969 C 2785.9992 3170.9969 1885.0168 3641.0087 1588.0168 4641.0087 C 1290.0168 5642.0087 1979.0181 6161.0057 2539.0181 6213.0057 C 3099.0181 6265.0057 3868.9968 5991.0185 4242.9968 6554.0185 C 4616.9968 7118.0185 3691.0197 7282.0041 3359.0197 7298.0041 C 3028.0197 7314.0041 2529.0063 7317.0144 2309.0063 6876.0144 C 2308.0769 6874.1776 2306.7535 6872.995 2305.699 6871.3635 C 2271.5797 6810.2623 2193.3623 6788.1789 2073.9819 6794.9857 C 1847.9819 6807.9857 1644.9835 6884.9892 1623.9835 7033.9892 C 1600.9835 7183.9892 1623.9928 7429.0021 1725.9928 7543.0021 C 1738.521 7556.6927 1750.6443 7568.1598 1762.5281 7577.5736 C 2200.7574 8037.7312 2880.8847 8129.2955 3534.978 7990.985 C 4215.978 7845.985 4959.0085 7454.996 4940.0085 6540.996 C 4921.0085 5626.996 4123.989 5335.0004 3354.989 5453.0004 C 2585.989 5571.0004 1775.0051 5136.9965 2329.0051 4373.9965 C 2865.1567 3636.9088 3996.4452 3848.9927 4126.7765 4374.5133 C 4141.1982 4476.7261 4173.0904 4576.1349 4228.0106 4636.9779 C 4325.0106 4742.9779 4397.0231 4717.0127 4532.0231 4618.0127 C 4665.0231 4521.0127 4753.01 4342.9842 4789.01 4237.9842 C 4824.9646 4132.4653 4834.9723 4054.4092 4820.3776 3999.0324 C 4820.748 3992.2787 4820.468 3985.8494 4818.9823 3980.0154 C 4710.2323 3559.0779 4392.3299 3162.7303 3709.4893 3140.3768 z M 7309.4763 3140.3768 C 7263.9536 3138.8865 7216.7987 3139.0594 7167.9862 3140.9969 C 6385.9862 3170.9969 5468.984 3528.9742 5171.984 4528.9742 C 4873.984 5529.9742 5568.9799 6121.0082 6128.9799 6173.0082 C 6688.9799 6225.0082 7414 5983.0087 7788 6546.0087 C 8162 7110.0087 7291.0067 7282.0041 6959.0067 7298.0041 C 6634.319 7313.699 6044.2812 7310.7264 5795.3568 6782.9968 C 5790.4535 6766.789 5783.226 6752.6985 5773.8594 6740.4671 C 5773.2003 6739.635 5772.6502 6738.6486 5771.9474 6737.8832 C 5733.2619 6690.0463 5659.2537 6672.9092 5552.0125 6679.0238 C 5326.0125 6692.0238 5123.0141 6768.9756 5102.0141 6917.9756 C 5082.3969 7045.914 5096.2909 7242.9223 5164.0775 7368.8525 C 5164.4619 7369.5186 5164.5889 7370.3823 5165.0077 7371.0229 C 5165.323 7371.4691 5165.6739 7371.8691 5165.9895 7372.3148 C 5177.2151 7392.6498 5189.8255 7411.1203 5204.0234 7426.9885 C 5208.6676 7432.0636 5213.1784 7436.5681 5217.7177 7441.0445 C 5694.4609 8042.6561 6478.7607 8129.7528 7135.0166 7990.985 C 7816.0166 7845.985 8504.0117 7446.9862 8485.0117 6532.9862 C 8466.0117 5618.9862 7714.0024 5295.0029 6945.0024 5413.0029 C 6176.0024 5531.0029 5359.024 5025.0137 5913.024 4262.0137 C 6449.2405 3524.8369 7595.6475 3841.5701 7726.7635 4374.3066 C 7741.1712 4476.5917 7773.0406 4576.0942 7827.9976 4636.9779 C 7924.9976 4742.9779 7997.01 4717.0127 8132.01 4618.0127 C 8265.01 4521.0127 8352.9969 4342.9842 8388.9969 4237.9842 C 8424.9738 4132.3999 8434.999 4054.3119 8420.3645 3998.929 C 8420.7245 3992.2121 8420.4994 3985.8211 8419.0209 3980.0154 C 8310.2709 3559.0779 7992.3168 3162.7303 7309.4763 3140.3768 z " />
   
  
</svg>
