<?xml version="1.0" encoding="UTF-8" standalone="no"?>
<svg
   version="1.2"
   width="100mm"
   height="100mm"
   viewBox="0 0 10000 10000"
   preserveAspectRatio="xMidYMid"
   fill-rule="evenodd"
   stroke-width="28.222"
   stroke-linejoin="round"
   xml:space="preserve"
   id="svg23"
   sodipodi:docname="gobo-caps-E010.svg"
   inkscape:version="1.4 (86a8ad7, 2024-10-11)"
   xmlns:inkscape="http://www.inkscape.org/namespaces/inkscape"
   xmlns:sodipodi="http://sodipodi.sourceforge.net/DTD/sodipodi-0.dtd"
   xmlns="http://www.w3.org/2000/svg"
   xmlns:svg="http://www.w3.org/2000/svg"
   xmlns:ooo="http://xml.openoffice.org/svg/export"><sodipodi:namedview
   id="namedview23"
   pagecolor="#ffffff"
   bordercolor="#000000"
   borderopacity="0.25"
   inkscape:showpageshadow="2"
   inkscape:pageopacity="0.0"
   inkscape:pagecheckerboard="0"
   inkscape:deskcolor="#d1d1d1"
   inkscape:document-units="mm"
   showgrid="false"
   inkscape:zoom="3.0876875"
   inkscape:cx="188.81444"
   inkscape:cy="188.97638"
   inkscape:window-width="2560"
   inkscape:window-height="1369"
   inkscape:window-x="-8"
   inkscape:window-y="-8"
   inkscape:window-maximized="1"
   inkscape:current-layer="svg23" />
 <defs
   class="ClipPathGroup"
   id="defs2">
  
  <clipPath
   id="presentation_clip_path_shrink"
   clipPathUnits="userSpaceOnUse">
   <rect
   x="10"
   y="10"
   width="9980"
   height="9980"
   id="rect2" />
  </clipPath>
 
  
 
   
  
    
   
     
    
      
      
      
      
      
      
      
      
     
       
      
       
      
       
      
       
      
       
      
       
      
       
      
       
      
        
        
       
        
        
       
        
        
       
        
        
       
        
        
       
        
        
       <clipPath
   clipPathUnits="userSpaceOnUse"
   id="clipPath25"><rect
     x="0"
     y="0"
     width="10000"
     height="10000"
     id="rect26"
     style="stroke-width:28.222" /></clipPath>
        
        
       
        
        
       </defs>
 <defs
   class="TextShapeIndex"
   id="defs3">
  <g
   ooo:slide="id1"
   ooo:id-list="id3 id4 id5 id6 id7 id8 id9 id10"
   id="g2" />
 </defs>
 <defs
   class="EmbeddedBulletChars"
   id="defs12">
  <g
   id="bullet-char-template-57356"
   transform="scale(0.00048828125,-0.00048828125)">
   <path
   d="M 580,1141 L 1163,571 580,0 -4,571 580,1141 Z"
   id="path3" />
  </g>
  <g
   id="bullet-char-template-57354"
   transform="scale(0.00048828125,-0.00048828125)">
   <path
   d="M 8,1128 L 1137,1128 1137,0 8,0 8,1128 Z"
   id="path4" />
  </g>
  <g
   id="bullet-char-template-10146"
   transform="scale(0.00048828125,-0.00048828125)">
   <path
   d="M 174,0 L 602,739 174,1481 1456,739 174,0 Z M 1358,739 L 309,1346 659,739 1358,739 Z"
   id="path5" />
  </g>
  <g
   id="bullet-char-template-10132"
   transform="scale(0.00048828125,-0.00048828125)">
   <path
   d="M 2015,739 L 1276,0 717,0 1260,543 174,543 174,936 1260,936 717,1481 1274,1481 2015,739 Z"
   id="path6" />
  </g>
  <g
   id="bullet-char-template-10007"
   transform="scale(0.00048828125,-0.00048828125)">
   <path
   d="M 0,-2 C -7,14 -16,27 -25,37 L 356,567 C 262,823 215,952 215,954 215,979 228,992 255,992 264,992 276,990 289,987 310,991 331,999 354,1012 L 381,999 492,748 772,1049 836,1024 860,1049 C 881,1039 901,1025 922,1006 886,937 835,863 770,784 769,783 710,716 594,584 L 774,223 C 774,196 753,168 711,139 L 727,119 C 717,90 699,76 672,76 641,76 570,178 457,381 L 164,-76 C 142,-110 111,-127 72,-127 30,-127 9,-110 8,-76 1,-67 -2,-52 -2,-32 -2,-23 -1,-13 0,-2 Z"
   id="path7" />
  </g>
  <g
   id="bullet-char-template-10004"
   transform="scale(0.00048828125,-0.00048828125)">
   <path
   d="M 285,-33 C 182,-33 111,30 74,156 52,228 41,333 41,471 41,549 55,616 82,672 116,743 169,778 240,778 293,778 328,747 346,684 L 369,508 C 377,444 397,411 428,410 L 1163,1116 C 1174,1127 1196,1133 1229,1133 1271,1133 1292,1118 1292,1087 L 1292,965 C 1292,929 1282,901 1262,881 L 442,47 C 390,-6 338,-33 285,-33 Z"
   id="path8" />
  </g>
  <g
   id="bullet-char-template-9679"
   transform="scale(0.00048828125,-0.00048828125)">
   <path
   d="M 813,0 C 632,0 489,54 383,161 276,268 223,411 223,592 223,773 276,916 383,1023 489,1130 632,1184 813,1184 992,1184 1136,1130 1245,1023 1353,916 1407,772 1407,592 1407,412 1353,268 1245,161 1136,54 992,0 813,0 Z"
   id="path9" />
  </g>
  <g
   id="bullet-char-template-8226"
   transform="scale(0.00048828125,-0.00048828125)">
   <path
   d="M 346,457 C 273,457 209,483 155,535 101,586 74,649 74,723 74,796 101,859 155,911 209,963 273,989 346,989 419,989 480,963 531,910 582,859 608,796 608,723 608,648 583,586 532,535 482,483 420,457 346,457 Z"
   id="path10" />
  </g>
  <g
   id="bullet-char-template-8211"
   transform="scale(0.00048828125,-0.00048828125)">
   <path
   d="M -4,459 L 1135,459 1135,606 -4,606 -4,459 Z"
   id="path11" />
  </g>
  <g
   id="bullet-char-template-61548"
   transform="scale(0.00048828125,-0.00048828125)">
   <path
   d="M 173,740 C 173,903 231,1043 346,1159 462,1274 601,1332 765,1332 928,1332 1067,1274 1183,1159 1299,1043 1357,903 1357,740 1357,577 1299,437 1183,322 1067,206 928,148 765,148 601,148 462,206 346,322 231,437 173,577 173,740 Z"
   id="path12" />
  </g>
 </defs>
 
 <path
   id="path13"
   d="M 7930.782 3131.9018 C 7849.4097 3131.8166 7766.1031 3136.101 7680.9781 3144.976 C 6316.9781 3287.976 5098.0202 4470.9923 5002.0202 5797.9923 C 4907.0202 7125.9923 5533.9921 8194.9995 7366.9921 8049.9995 C 8014.6716 7999.1457 8539.9507 7809.6737 8946.5339 7528.7394 C 9084.1361 7680.7523 9201.322 7825.1738 9301.8094 7962.1496 C 9313.3218 7983.3624 9326.2885 8002.5736 9340.9802 8018.9937 C 9437.9802 8124.9937 9509.9926 8098.9767 9644.9926 7999.9767 C 9778.9926 7901.9767 9866.9795 7724.9999 9901.9795 7619.9999 C 9941.6911 7504.2811 9950.1215 7421.4636 9929.1096 7365.3902 C 9924.0329 7348.489 9915.9111 7332.8651 9903.9949 7318.9847 C 9830.4285 7233.9747 9698.0503 7099.0556 9543.4484 6944.3823 C 9874.1679 6481.1265 10023.74 5918.5492 9997.0125 5344.9967 C 9939.825 4117.8092 9151.3667 3133.1799 7930.782 3131.9018 z M 2937.5984 3132.5219 C 2856.9952 3132.0339 2774.1081 3136.101 2688.9831 3144.976 C 1324.9831 3287.976 106.02523 4470.9923 10.025228 5797.9923 C -84.974772 7125.9923 541.99713 8194.9995 2374.9971 8049.9995 C 3037.7383 7997.9631 3558.4835 7807.9187 3951.335 7525.277 C 4090.2888 7678.556 4208.566 7824.1364 4309.8144 7962.1496 C 4321.3268 7983.3624 4334.2935 8002.5736 4348.9852 8018.9937 C 4445.9852 8124.9937 4517.9976 8098.9767 4652.9976 7999.9767 C 4786.9976 7901.9767 4874.9845 7724.9999 4909.9845 7619.9999 C 4949.7068 7504.25 4958.148 7421.4125 4937.1146 7365.3385 C 4932.0367 7348.4554 4923.9051 7332.8523 4911.9999 7318.9847 C 4834.399 7229.3126 4692.3058 7084.9502 4526.442 6919.3192 C 4807.27 6478.9023 4925.618 5949.4817 4900.0109 5399.9804 C 4842.8234 4172.7929 4146.6475 3139.8425 2937.5984 3132.5219 z M 7712.139 3862.5032 C 8549.9418 3842.5411 9328.4195 4671.0083 9394.982 5706.0083 C 9416.6644 6047.6607 9325.071 6332.1802 9159.3892 6562.08 C 8936.2629 6340.0747 8712.0775 6114.5025 8551.2609 5937.622 C 8513.2854 5887.3335 8438.5079 5869.2266 8329.0006 5874.9902 C 8104.0006 5887.9902 7899.0022 5965.9755 7879.0022 6114.9755 C 7856.0022 6263.9755 7879.0115 6509.9884 7981.0115 6623.9884 C 7992.3152 6636.3408 8003.2171 6646.7536 8013.9811 6655.6144 C 8015.7394 6657.345 8017.1225 6659.3427 8018.9937 6660.9887 C 8196.3943 6805.411 8356.0399 6944.7477 8500.8247 7079.3094 C 8157.5848 7236.8673 7757.1589 7311.8672 7375.9838 7307.9776 C 6395.9838 7296.9776 5504.0088 6843.0043 5612.0088 5729.0043 C 5719.0088 4616.0043 6644.9839 4023.0062 7543.9839 3878.0062 C 7600.1714 3868.9437 7656.2855 3863.834 7712.139 3862.5032 z M 2718.9555 3863.1233 C 3545.2226 3849.2037 4231.418 4725.992 4297.9805 5760.992 C 4317.271 6064.9553 4254.6615 6319.3851 4133.8045 6528.6454 C 3922.0366 6317.6644 3712.1718 6105.8132 3559.4726 5937.8804 C 3521.56 5887.3909 3446.7042 5869.2166 3337.0056 5874.9902 C 3112.0056 5887.9902 2907.0072 5965.9755 2887.0072 6114.9755 C 2864.0072 6263.9755 2887.0165 6509.9884 2989.0165 6623.9884 C 3000.3011 6636.3201 3011.1879 6646.7111 3021.9344 6655.5627 C 3023.7068 6657.309 3025.1114 6659.3286 3026.9987 6660.9887 C 3205.0927 6805.9755 3365.3052 6945.8107 3510.535 7080.8597 C 3179.276 7240.3208 2779.7174 7312.0157 2383.9888 7307.9776 C 1403.9888 7296.9776 512.01383 6843.0043 620.01383 5729.0043 C 727.01383 4616.0043 1652.9889 4023.0062 2551.9889 3878.0062 C 2608.1764 3868.9437 2663.871 3864.0513 2718.9555 3863.1233 z " />
   
  
</svg>
