<?xml version="1.0" encoding="UTF-8" standalone="no"?>
<svg
   version="1.2"
   width="100mm"
   height="100mm"
   viewBox="0 0 10000 10000"
   preserveAspectRatio="xMidYMid"
   fill-rule="evenodd"
   stroke-width="28.222"
   stroke-linejoin="round"
   xml:space="preserve"
   id="svg21"
   sodipodi:docname="gobo-caps-E00B.svg"
   inkscape:version="1.4 (86a8ad7, 2024-10-11)"
   xmlns:inkscape="http://www.inkscape.org/namespaces/inkscape"
   xmlns:sodipodi="http://sodipodi.sourceforge.net/DTD/sodipodi-0.dtd"
   xmlns="http://www.w3.org/2000/svg"
   xmlns:svg="http://www.w3.org/2000/svg"
   xmlns:ooo="http://xml.openoffice.org/svg/export"><sodipodi:namedview
   id="namedview21"
   pagecolor="#ffffff"
   bordercolor="#000000"
   borderopacity="0.25"
   inkscape:showpageshadow="2"
   inkscape:pageopacity="0.0"
   inkscape:pagecheckerboard="0"
   inkscape:deskcolor="#d1d1d1"
   inkscape:document-units="mm"
   showgrid="false"
   inkscape:zoom="3.0876875"
   inkscape:cx="188.81444"
   inkscape:cy="188.97638"
   inkscape:window-width="2560"
   inkscape:window-height="1369"
   inkscape:window-x="-8"
   inkscape:window-y="-8"
   inkscape:window-maximized="1"
   inkscape:current-layer="svg21" />
 <defs
   class="ClipPathGroup"
   id="defs2">
  
  <clipPath
   id="presentation_clip_path_shrink"
   clipPathUnits="userSpaceOnUse">
   <rect
   x="10"
   y="10"
   width="9980"
   height="9980"
   id="rect2" />
  </clipPath>
 
  
 
   
  
    
   
     
    
      
      
      
      
      
      
     
       
      
       
      
       
      
       
      
       
      
       
      
        
        
       
        
        
       
        
        
       
        
        
       
        
        
       
        
        
       </defs>
 <defs
   class="TextShapeIndex"
   id="defs3">
  <g
   ooo:slide="id1"
   ooo:id-list="id3 id4 id5 id6 id7 id8"
   id="g2" />
 </defs>
 <defs
   class="EmbeddedBulletChars"
   id="defs12">
  <g
   id="bullet-char-template-57356"
   transform="scale(0.00048828125,-0.00048828125)">
   <path
   d="M 580,1141 L 1163,571 580,0 -4,571 580,1141 Z"
   id="path3" />
  </g>
  <g
   id="bullet-char-template-57354"
   transform="scale(0.00048828125,-0.00048828125)">
   <path
   d="M 8,1128 L 1137,1128 1137,0 8,0 8,1128 Z"
   id="path4" />
  </g>
  <g
   id="bullet-char-template-10146"
   transform="scale(0.00048828125,-0.00048828125)">
   <path
   d="M 174,0 L 602,739 174,1481 1456,739 174,0 Z M 1358,739 L 309,1346 659,739 1358,739 Z"
   id="path5" />
  </g>
  <g
   id="bullet-char-template-10132"
   transform="scale(0.00048828125,-0.00048828125)">
   <path
   d="M 2015,739 L 1276,0 717,0 1260,543 174,543 174,936 1260,936 717,1481 1274,1481 2015,739 Z"
   id="path6" />
  </g>
  <g
   id="bullet-char-template-10007"
   transform="scale(0.00048828125,-0.00048828125)">
   <path
   d="M 0,-2 C -7,14 -16,27 -25,37 L 356,567 C 262,823 215,952 215,954 215,979 228,992 255,992 264,992 276,990 289,987 310,991 331,999 354,1012 L 381,999 492,748 772,1049 836,1024 860,1049 C 881,1039 901,1025 922,1006 886,937 835,863 770,784 769,783 710,716 594,584 L 774,223 C 774,196 753,168 711,139 L 727,119 C 717,90 699,76 672,76 641,76 570,178 457,381 L 164,-76 C 142,-110 111,-127 72,-127 30,-127 9,-110 8,-76 1,-67 -2,-52 -2,-32 -2,-23 -1,-13 0,-2 Z"
   id="path7" />
  </g>
  <g
   id="bullet-char-template-10004"
   transform="scale(0.00048828125,-0.00048828125)">
   <path
   d="M 285,-33 C 182,-33 111,30 74,156 52,228 41,333 41,471 41,549 55,616 82,672 116,743 169,778 240,778 293,778 328,747 346,684 L 369,508 C 377,444 397,411 428,410 L 1163,1116 C 1174,1127 1196,1133 1229,1133 1271,1133 1292,1118 1292,1087 L 1292,965 C 1292,929 1282,901 1262,881 L 442,47 C 390,-6 338,-33 285,-33 Z"
   id="path8" />
  </g>
  <g
   id="bullet-char-template-9679"
   transform="scale(0.00048828125,-0.00048828125)">
   <path
   d="M 813,0 C 632,0 489,54 383,161 276,268 223,411 223,592 223,773 276,916 383,1023 489,1130 632,1184 813,1184 992,1184 1136,1130 1245,1023 1353,916 1407,772 1407,592 1407,412 1353,268 1245,161 1136,54 992,0 813,0 Z"
   id="path9" />
  </g>
  <g
   id="bullet-char-template-8226"
   transform="scale(0.00048828125,-0.00048828125)">
   <path
   d="M 346,457 C 273,457 209,483 155,535 101,586 74,649 74,723 74,796 101,859 155,911 209,963 273,989 346,989 419,989 480,963 531,910 582,859 608,796 608,723 608,648 583,586 532,535 482,483 420,457 346,457 Z"
   id="path10" />
  </g>
  <g
   id="bullet-char-template-8211"
   transform="scale(0.00048828125,-0.00048828125)">
   <path
   d="M -4,459 L 1135,459 1135,606 -4,606 -4,459 Z"
   id="path11" />
  </g>
  <g
   id="bullet-char-template-61548"
   transform="scale(0.00048828125,-0.00048828125)">
   <path
   d="M 173,740 C 173,903 231,1043 346,1159 462,1274 601,1332 765,1332 928,1332 1067,1274 1183,1159 1299,1043 1357,903 1357,740 1357,577 1299,437 1183,322 1067,206 928,148 765,148 601,148 462,206 346,322 231,437 173,577 173,740 Z"
   id="path12" />
  </g>
 </defs>
 
 <path
   id="path13"
   d="M 2141.9881 3257.9923 C 2128.9222 3257.9191 2115.2587 3258.2242 2101.0087 3258.9742 C 1875.0087 3271.9742 1670.9768 3348.9777 1649.9768 3497.9777 C 1645.2093 3530.4834 1642.7304 3567.6682 1642.5354 3606.8599 C 1612.8335 4049.9005 1551.0622 4824.0552 1538.9758 5578.9876 C 1525.9758 6387.9876 1562.9918 6730.9823 1614.9918 7358.9823 C 1666.9918 7986.9823 1839.0212 8156.0109 2573.0212 8075.0109 C 3306.0212 7994.0109 3888.9756 7936.0133 4209.9756 7867.0133 C 4215.9268 7865.5717 4222.0347 7862.733 4228.1657 7859.2618 C 4263.6919 7844.8561 4303.071 7819.4311 4350.0187 7785.0028 C 4483.0187 7688.0028 4570.0056 7510.9743 4607.0056 7404.9743 C 4699.0056 7134.9743 4621.9953 7044.0034 4393.9953 7056.0034 C 4353.6265 7058.3152 4314.0835 7062.7242 4276.1214 7069.1292 C 4272.6857 7069.5043 4269.5526 7069.4489 4265.9928 7070.0077 C 3921.9928 7122.0077 3006.9908 7360.0158 2605.9908 7360.0158 C 2204.9908 7361.0158 2240.0121 7223.9799 2172.0121 6296.9799 C 2101.0121 5368.9799 2278.983 3969.0121 2352.983 3442.0121 C 2353.4611 3436.1723 2352.9438 3430.6693 2351.7944 3425.3723 C 2352.4761 3307.1866 2280.8786 3258.7709 2141.9881 3257.9923 z M 5341.9995 3257.9923 C 5328.9336 3257.9191 5315.2701 3258.2242 5301.0201 3258.9742 C 5075.0201 3271.9742 4870.9882 3348.9777 4849.9882 3497.9777 C 4845.1286 3531.1113 4842.5969 3569.1 4842.4951 3609.1337 C 4813.2293 4049.2443 4752.1153 4817.5589 4738.9872 5578.9876 C 4725.9872 6387.9876 4763.0032 6730.9823 4815.0032 7358.9823 C 4868.0032 7986.9823 5067.9797 8211.9995 5792.9797 8049.9995 C 6515.9797 7887.9995 7604.9875 7799.0043 7950.9875 7802.0043 C 7962.2216 7802.0691 7973.3381 7801.1842 7984.3705 7799.5755 C 8036.6304 7801.1776 8093.2963 7768.2276 8169.9922 7711.984 C 8302.9922 7614.984 8389.9791 7438.0072 8426.9791 7332.0072 C 8518.9791 7062.0072 8442.0205 6970.9846 8214.0205 6982.9846 C 8192.156 6984.2367 8170.5997 6986.2738 8149.3216 6988.7206 C 7688.2884 7022.8418 6057.3539 7301.6968 5746.9877 7349.0087 C 5419.9877 7400.0087 5441.0235 7223.9799 5372.0235 6296.9799 C 5302.0235 5368.9799 5478.9943 3969.0121 5552.9943 3442.0121 C 5553.4691 3436.2132 5552.934 3430.7394 5551.8058 3425.4756 C 5552.5294 3307.2158 5480.9299 3258.7711 5341.9995 3257.9923 z " />
   
  
</svg>
