<?xml version="1.0" encoding="UTF-8" standalone="no"?>
<svg
   version="1.2"
   width="100mm"
   height="100mm"
   viewBox="0 0 10000 10000"
   preserveAspectRatio="xMidYMid"
   fill-rule="evenodd"
   stroke-width="28.222"
   stroke-linejoin="round"
   xml:space="preserve"
   id="svg31"
   sodipodi:docname="gobo-caps-E000.svg"
   inkscape:version="1.4 (86a8ad7, 2024-10-11)"
   xmlns:inkscape="http://www.inkscape.org/namespaces/inkscape"
   xmlns:sodipodi="http://sodipodi.sourceforge.net/DTD/sodipodi-0.dtd"
   xmlns="http://www.w3.org/2000/svg"
   xmlns:svg="http://www.w3.org/2000/svg"
   xmlns:ooo="http://xml.openoffice.org/svg/export"><sodipodi:namedview
   id="namedview31"
   pagecolor="#ffffff"
   bordercolor="#000000"
   borderopacity="0.25"
   inkscape:showpageshadow="2"
   inkscape:pageopacity="0.0"
   inkscape:pagecheckerboard="0"
   inkscape:deskcolor="#d1d1d1"
   inkscape:document-units="mm"
   inkscape:zoom="3.0876875"
   inkscape:cx="188.81444"
   inkscape:cy="188.97638"
   inkscape:window-width="2560"
   inkscape:window-height="1369"
   inkscape:window-x="-8"
   inkscape:window-y="-8"
   inkscape:window-maximized="1"
   inkscape:current-layer="svg31" />
 <defs
   class="ClipPathGroup"
   id="defs2">
  
  <clipPath
   id="presentation_clip_path_shrink"
   clipPathUnits="userSpaceOnUse">
   <rect
   x="10"
   y="10"
   width="9980"
   height="9980"
   id="rect2" />
  </clipPath>
 
  
 
   
  
    
   
     
    
      
      
      
      
      
      
      
      
      
      
      
      
      
      
      
      
     
       
      
       
      
       
      
       
      
       
      
       
      
       
      
       
      
       
      
       
      
       
      
       
      
       
      
       
      
       
      
       
      
        
        
       
        
        
       
        
        
       
        
        
       
        
        
       
        
        
       
        
        
       
        
        
       
        
        
       
        
        
       
        
        
       
        
        
       
        
        
       
        
        
       
        
        
       
        
        
       </defs>
 <defs
   class="TextShapeIndex"
   id="defs3">
  <g
   ooo:slide="id1"
   ooo:id-list="id3 id4 id5 id6 id7 id8 id9 id10 id11 id12 id13 id14 id15 id16 id17 id18"
   id="g2" />
 </defs>
 <defs
   class="EmbeddedBulletChars"
   id="defs12">
  <g
   id="bullet-char-template-57356"
   transform="scale(0.00048828125,-0.00048828125)">
   <path
   d="M 580,1141 L 1163,571 580,0 -4,571 580,1141 Z"
   id="path3" />
  </g>
  <g
   id="bullet-char-template-57354"
   transform="scale(0.00048828125,-0.00048828125)">
   <path
   d="M 8,1128 L 1137,1128 1137,0 8,0 8,1128 Z"
   id="path4" />
  </g>
  <g
   id="bullet-char-template-10146"
   transform="scale(0.00048828125,-0.00048828125)">
   <path
   d="M 174,0 L 602,739 174,1481 1456,739 174,0 Z M 1358,739 L 309,1346 659,739 1358,739 Z"
   id="path5" />
  </g>
  <g
   id="bullet-char-template-10132"
   transform="scale(0.00048828125,-0.00048828125)">
   <path
   d="M 2015,739 L 1276,0 717,0 1260,543 174,543 174,936 1260,936 717,1481 1274,1481 2015,739 Z"
   id="path6" />
  </g>
  <g
   id="bullet-char-template-10007"
   transform="scale(0.00048828125,-0.00048828125)">
   <path
   d="M 0,-2 C -7,14 -16,27 -25,37 L 356,567 C 262,823 215,952 215,954 215,979 228,992 255,992 264,992 276,990 289,987 310,991 331,999 354,1012 L 381,999 492,748 772,1049 836,1024 860,1049 C 881,1039 901,1025 922,1006 886,937 835,863 770,784 769,783 710,716 594,584 L 774,223 C 774,196 753,168 711,139 L 727,119 C 717,90 699,76 672,76 641,76 570,178 457,381 L 164,-76 C 142,-110 111,-127 72,-127 30,-127 9,-110 8,-76 1,-67 -2,-52 -2,-32 -2,-23 -1,-13 0,-2 Z"
   id="path7" />
  </g>
  <g
   id="bullet-char-template-10004"
   transform="scale(0.00048828125,-0.00048828125)">
   <path
   d="M 285,-33 C 182,-33 111,30 74,156 52,228 41,333 41,471 41,549 55,616 82,672 116,743 169,778 240,778 293,778 328,747 346,684 L 369,508 C 377,444 397,411 428,410 L 1163,1116 C 1174,1127 1196,1133 1229,1133 1271,1133 1292,1118 1292,1087 L 1292,965 C 1292,929 1282,901 1262,881 L 442,47 C 390,-6 338,-33 285,-33 Z"
   id="path8" />
  </g>
  <g
   id="bullet-char-template-9679"
   transform="scale(0.00048828125,-0.00048828125)">
   <path
   d="M 813,0 C 632,0 489,54 383,161 276,268 223,411 223,592 223,773 276,916 383,1023 489,1130 632,1184 813,1184 992,1184 1136,1130 1245,1023 1353,916 1407,772 1407,592 1407,412 1353,268 1245,161 1136,54 992,0 813,0 Z"
   id="path9" />
  </g>
  <g
   id="bullet-char-template-8226"
   transform="scale(0.00048828125,-0.00048828125)">
   <path
   d="M 346,457 C 273,457 209,483 155,535 101,586 74,649 74,723 74,796 101,859 155,911 209,963 273,989 346,989 419,989 480,963 531,910 582,859 608,796 608,723 608,648 583,586 532,535 482,483 420,457 346,457 Z"
   id="path10" />
  </g>
  <g
   id="bullet-char-template-8211"
   transform="scale(0.00048828125,-0.00048828125)">
   <path
   d="M -4,459 L 1135,459 1135,606 -4,606 -4,459 Z"
   id="path11" />
  </g>
  <g
   id="bullet-char-template-61548"
   transform="scale(0.00048828125,-0.00048828125)">
   <path
   d="M 173,740 C 173,903 231,1043 346,1159 462,1274 601,1332 765,1332 928,1332 1067,1274 1183,1159 1299,1043 1357,903 1357,740 1357,577 1299,437 1183,322 1067,206 928,148 765,148 601,148 462,206 346,322 231,437 173,577 173,740 Z"
   id="path12" />
  </g>
 </defs>
 
 <path
   id="path13"
   d="M 7477.7864 3147.1464 C 7464.7683 3147.0255 7451.2012 3147.3374 7437.0137 3148.0249 C 7255.9792 3158.4384 7089.1546 3210.5849 7019.1064 3307.4983 C 7018.077 3308.666 7016.7905 3309.6584 7016.0058 3311.0123 C 7015.4027 3312.0838 7013.9826 3314.7808 7013.3703 3315.8699 C 7008.1721 3323.8896 7003.6441 3332.2248 6999.7794 3340.8296 C 6818.2819 3665.7344 6306.3585 4632.4074 6008.0053 5278.024 C 5711.204 5913.0631 5014.286 7499.3169 4954.0128 7700.0467 C 4952.8706 7703.5323 4951.8881 7707.0662 4950.9639 7710.6404 C 4950.3029 7713.374 4948.2158 7719.2526 4948.0184 7720.9757 C 4947.942 7721.8714 4948.1466 7722.855 4948.1217 7723.7662 C 4947.7515 7725.8473 4947.2821 7727.9096 4946.9848 7730.0191 C 4923.9848 7879.0191 4946.976 8124.9802 5049.976 8238.9802 C 5145.976 8344.9802 5219.0066 8319.015 5353.0066 8220.015 C 5480.5163 8126.7616 5565.3605 7962.1 5604.309 7855.0244 C 5647.2502 7748.8001 5716.0647 7553.3745 5790.9126 7339.5003 C 5795.9875 7336.9102 5801.1604 7334.1146 5806.4156 7331.1287 C 6030.4242 7222.7407 6658.3998 6888.2026 7349.9906 6733.0257 C 7876.9578 6615.759 8288.415 6566.4619 8593.6356 6541.2544 C 8787.1343 7067.7024 8882.5678 7448.4678 8982.2424 7688.1095 C 8999.1044 7734.0346 9020.9955 7774.9789 9049.0083 7805.9834 C 9145.0083 7911.9834 9217.9872 7886.0182 9351.9872 7787.0182 C 9485.9872 7689.0182 9573.0258 7512.0078 9609.0258 7406.0078 C 9649.2409 7289.2542 9657.3883 7206.1903 9635.4325 7150.3645 C 9576.7958 6942.367 9446.82 6598.6467 9268.013 6177.1423 C 9291.1897 6131.5993 9308.9844 6088.34 9320.9814 6053.0155 C 9413.9814 5783.0155 9336.0047 5692.9929 9109.0047 5703.9929 C 9093.3958 5704.8907 9077.9451 5706.1936 9062.5992 5707.7136 C 8998.552 5564.9683 8932.0575 5418.7683 8861.0095 5267.017 C 8470.0095 4438.017 7854.9824 3466.992 7694.9824 3220.992 C 7669.1084 3181.2106 7632.191 3163.896 7589.0458 3163.2694 C 7558.7321 3152.7369 7521.6321 3147.5534 7477.7864 3147.1464 z M 2773.009 3152.9858 C 2759.936 3152.9128 2746.2279 3153.2693 2731.9779 3154.0193 C 2519.2555 3166.2556 2326.9907 3235.1855 2287.6123 3367.4947 C 2112.2751 3697.9901 1634.0784 4656.0564 1353.9742 5296.9893 C 1077.8948 5924.3559 435.19021 7475.7444 366.23087 7707.2298 C 364.68388 7712.1717 363.41252 7717.2008 362.30346 7722.3193 C 361.45864 7725.9373 359.1933 7732.8554 358.99617 7734.98 C 358.8079 7736.9882 359.1305 7739.1889 359.20288 7741.2845 C 338.71209 7890.8178 362.40476 8131.5396 463.02083 8243.9929 C 559.02083 8349.9929 631.9816 8323.9759 766.9816 8224.9759 C 851.88359 8162.4166 918.39335 8067.746 964.79898 7980.0813 C 967.29102 7976.1732 969.86262 7972.355 971.98201 7967.989 C 973.42626 7964.9679 975.43882 7959.706 976.99462 7956.2585 C 997.29057 7915.3699 1013.0994 7876.8515 1024.0202 7844.9991 C 1031.7969 7822.3378 1038.2596 7801.0449 1043.6572 7780.8687 C 1082.7269 7670.7368 1136.7151 7510.2245 1193.1571 7341.3606 C 1419.163 7222.8216 2011.906 6884.3441 2648.0037 6733.0257 C 3131.6325 6618.895 3504.0796 6572.8478 3784.8852 6549.0576 C 3966.8247 7050.8154 4070.2251 7422.3039 4161.348 7666.4571 C 4167.9492 7687.4385 4175.5054 7707.6399 4184.1373 7726.5567 C 4187.0625 7733.8098 4190.107 7743.0331 4193.0257 7750.0178 C 4194.8382 7754.7305 4197.8662 7757.8604 4201.4489 7760.3531 C 4212.0576 7778.7175 4223.8624 7795.4709 4237.0023 7810.0142 C 4333.0023 7916.0142 4405.9812 7889.9973 4539.9812 7790.9973 C 4673.9812 7692.9973 4761.0198 7515.9869 4797.0198 7409.9869 C 4839.8251 7285.7135 4846.272 7199.6672 4818.6722 7143.9567 C 4763.2148 6937.4627 4636.9893 6602.7062 4467.3242 6192.1285 C 4493.3342 6142.5861 4513.0111 6095.1717 4525.9769 6056.9946 C 4618.9769 5786.9946 4541.0184 5696.0236 4313.0184 5708.0236 C 4296.3834 5708.9805 4279.938 5710.3488 4263.6157 5712.0027 C 4201.9206 5568.7456 4140.2997 5425.6241 4072.9813 5273.0114 C 3703.9813 4443.0114 3117.9842 3480.9963 2967.9842 3234.9963 C 2965.3394 3230.6765 2962.2646 3227.2237 2959.3542 3223.4208 C 2927.6815 3174.8753 2864.9949 3153.4995 2773.009 3152.9858 z M 7267.9284 4112.8755 C 7508.6807 4441.8901 7899.2539 4968.2505 8235.983 5683.0122 C 8257.6301 5729.1475 8277.7527 5773.7179 8297.9947 5818.4045 C 7931.8501 5886.7805 7504.1436 5980.7466 7141.0111 6082.9878 C 6702.6522 6205.5592 6379.2403 6328.4272 6116.3708 6430.9252 C 6203.1084 6199.0601 6292.862 5970.6404 6381.0058 5769.9837 C 6610.2135 5237.2308 6984.0153 4574.5751 7267.9284 4112.8755 z M 2561.4974 4175.3007 C 2792.1889 4509.6468 3142.8199 5022.3841 3445.0093 5701.9775 C 3463.9579 5744.7685 3481.6179 5786.0698 3499.528 5827.6546 C 3165.4959 5894.4097 2781.3823 5984.1996 2449.9796 6082.9878 C 2055.2369 6199.7995 1754.1389 6320.5543 1507.6599 6423.1738 C 1587.0039 6201.5068 1668.6035 5984.1911 1748.007 5792.9797 C 1958.4937 5275.1157 2297.0129 4634.9933 2561.4974 4175.3007 z " />
   
  
</svg>
