<?xml version="1.0" encoding="UTF-8" standalone="no"?>
<svg
   version="1.2"
   width="100mm"
   height="100mm"
   viewBox="0 0 10000 10000"
   preserveAspectRatio="xMidYMid"
   fill-rule="evenodd"
   stroke-width="28.222"
   stroke-linejoin="round"
   xml:space="preserve"
   id="svg25"
   sodipodi:docname="gobo-caps-E018.svg"
   inkscape:version="1.4 (86a8ad7, 2024-10-11)"
   xmlns:inkscape="http://www.inkscape.org/namespaces/inkscape"
   xmlns:sodipodi="http://sodipodi.sourceforge.net/DTD/sodipodi-0.dtd"
   xmlns="http://www.w3.org/2000/svg"
   xmlns:svg="http://www.w3.org/2000/svg"
   xmlns:ooo="http://xml.openoffice.org/svg/export"><sodipodi:namedview
   id="namedview25"
   pagecolor="#ffffff"
   bordercolor="#000000"
   borderopacity="0.25"
   inkscape:showpageshadow="2"
   inkscape:pageopacity="0.0"
   inkscape:pagecheckerboard="0"
   inkscape:deskcolor="#d1d1d1"
   inkscape:document-units="mm"
   showgrid="false"
   inkscape:zoom="3.0876875"
   inkscape:cx="188.81444"
   inkscape:cy="188.97638"
   inkscape:window-width="2560"
   inkscape:window-height="1369"
   inkscape:window-x="-8"
   inkscape:window-y="-8"
   inkscape:window-maximized="1"
   inkscape:current-layer="svg25" />
 <defs
   class="ClipPathGroup"
   id="defs2">
  
  <clipPath
   id="presentation_clip_path_shrink"
   clipPathUnits="userSpaceOnUse">
   <rect
   x="10"
   y="10"
   width="9980"
   height="9980"
   id="rect2" />
  </clipPath>
 
  
 
   
  
    
   
     
    
      
      
      
      
      
      
      
      
      
      
     
       
      
       
      
       
      
       
      
       
      
       
      
       
      
       
      
       
      
       
      
        
        
       
        
        
       
        
        
       
        
        
       
        
        
       
        
        
       
        
        
       
        
        
       
        
        
       
        
        
       </defs>
 <defs
   class="TextShapeIndex"
   id="defs3">
  <g
   ooo:slide="id1"
   ooo:id-list="id3 id4 id5 id6 id7 id8 id9 id10 id11 id12"
   id="g2" />
 </defs>
 <defs
   class="EmbeddedBulletChars"
   id="defs12">
  <g
   id="bullet-char-template-57356"
   transform="scale(0.00048828125,-0.00048828125)">
   <path
   d="M 580,1141 L 1163,571 580,0 -4,571 580,1141 Z"
   id="path3" />
  </g>
  <g
   id="bullet-char-template-57354"
   transform="scale(0.00048828125,-0.00048828125)">
   <path
   d="M 8,1128 L 1137,1128 1137,0 8,0 8,1128 Z"
   id="path4" />
  </g>
  <g
   id="bullet-char-template-10146"
   transform="scale(0.00048828125,-0.00048828125)">
   <path
   d="M 174,0 L 602,739 174,1481 1456,739 174,0 Z M 1358,739 L 309,1346 659,739 1358,739 Z"
   id="path5" />
  </g>
  <g
   id="bullet-char-template-10132"
   transform="scale(0.00048828125,-0.00048828125)">
   <path
   d="M 2015,739 L 1276,0 717,0 1260,543 174,543 174,936 1260,936 717,1481 1274,1481 2015,739 Z"
   id="path6" />
  </g>
  <g
   id="bullet-char-template-10007"
   transform="scale(0.00048828125,-0.00048828125)">
   <path
   d="M 0,-2 C -7,14 -16,27 -25,37 L 356,567 C 262,823 215,952 215,954 215,979 228,992 255,992 264,992 276,990 289,987 310,991 331,999 354,1012 L 381,999 492,748 772,1049 836,1024 860,1049 C 881,1039 901,1025 922,1006 886,937 835,863 770,784 769,783 710,716 594,584 L 774,223 C 774,196 753,168 711,139 L 727,119 C 717,90 699,76 672,76 641,76 570,178 457,381 L 164,-76 C 142,-110 111,-127 72,-127 30,-127 9,-110 8,-76 1,-67 -2,-52 -2,-32 -2,-23 -1,-13 0,-2 Z"
   id="path7" />
  </g>
  <g
   id="bullet-char-template-10004"
   transform="scale(0.00048828125,-0.00048828125)">
   <path
   d="M 285,-33 C 182,-33 111,30 74,156 52,228 41,333 41,471 41,549 55,616 82,672 116,743 169,778 240,778 293,778 328,747 346,684 L 369,508 C 377,444 397,411 428,410 L 1163,1116 C 1174,1127 1196,1133 1229,1133 1271,1133 1292,1118 1292,1087 L 1292,965 C 1292,929 1282,901 1262,881 L 442,47 C 390,-6 338,-33 285,-33 Z"
   id="path8" />
  </g>
  <g
   id="bullet-char-template-9679"
   transform="scale(0.00048828125,-0.00048828125)">
   <path
   d="M 813,0 C 632,0 489,54 383,161 276,268 223,411 223,592 223,773 276,916 383,1023 489,1130 632,1184 813,1184 992,1184 1136,1130 1245,1023 1353,916 1407,772 1407,592 1407,412 1353,268 1245,161 1136,54 992,0 813,0 Z"
   id="path9" />
  </g>
  <g
   id="bullet-char-template-8226"
   transform="scale(0.00048828125,-0.00048828125)">
   <path
   d="M 346,457 C 273,457 209,483 155,535 101,586 74,649 74,723 74,796 101,859 155,911 209,963 273,989 346,989 419,989 480,963 531,910 582,859 608,796 608,723 608,648 583,586 532,535 482,483 420,457 346,457 Z"
   id="path10" />
  </g>
  <g
   id="bullet-char-template-8211"
   transform="scale(0.00048828125,-0.00048828125)">
   <path
   d="M -4,459 L 1135,459 1135,606 -4,606 -4,459 Z"
   id="path11" />
  </g>
  <g
   id="bullet-char-template-61548"
   transform="scale(0.00048828125,-0.00048828125)">
   <path
   d="M 173,740 C 173,903 231,1043 346,1159 462,1274 601,1332 765,1332 928,1332 1067,1274 1183,1159 1299,1043 1357,903 1357,740 1357,577 1299,437 1183,322 1067,206 928,148 765,148 601,148 462,206 346,322 231,437 173,577 173,740 Z"
   id="path12" />
  </g>
 </defs>
 
 <path
   id="path13"
   d="M 8202.9618 3040.9513 C 8189.8888 3040.8781 8176.2324 3041.2348 8161.9824 3041.9848 C 7979.4176 3052.4864 7811.939 3104.8042 7742.6798 3203.577 C 7738.6595 3207.0619 7735.2079 3211.0061 7733.0163 3215.9794 C 7615.9863 3483.4765 7174.124 4314.9533 6872.0353 4959.1805 C 6684.2578 4829.0515 6598.8901 4756.5586 6376.975 4524.9951 C 6053.975 4187.9951 5780.9917 3736.0254 5723.9917 3521.0254 C 5723.8307 3520.5518 5723.4926 3520.247 5723.3199 3519.7851 C 5701.2475 3432.2544 5618.189 3401.0193 5478.9937 3408.9909 C 5252.9937 3420.9909 5049.0135 3497.9944 5028.0135 3647.9944 C 5014.4189 3736.0633 5017.0705 3857.9188 5042.6379 3966.4762 C 5042.7909 3970.4424 5043.0067 3974.3933 5043.9815 3978.0001 C 5108.9815 4216.0001 5352.9987 4579.0064 5734.9987 5017.0064 C 6031.3522 5358.474 6290.7542 5543.8466 6544.355 5725.1285 C 6278.9947 6390.8997 5973.8822 7220.9312 5832.9773 7515.9753 C 5830.2601 7521.7114 5829.6084 7528.0754 5830.0317 7534.6822 C 5829.2596 7538.4169 5828.5525 7542.1695 5828.0163 7545.9993 C 5806.0163 7694.9993 5829.0074 7941.0121 5931.0074 8055.0121 C 6027.0074 8161.0121 6100.0199 8134.9952 6235.0199 8035.9952 C 6340.5508 7958.8159 6416.1436 7832.7526 6461.156 7730.8459 C 6465.6064 7724.4389 6469.6344 7717.6125 6472.9899 7710.0203 C 6571.9899 7486.0203 6783.9954 6586.0148 7101.9954 5811.0148 C 7420.9954 5037.0148 8119.0172 3902.0088 8311.0172 3539.0088 C 8312.3965 3536.3546 8313.0956 3533.5007 8313.9111 3530.6889 C 8341.1786 3479.4961 8361.6116 3430.407 8374.9926 3391.0075 C 8462.1801 3137.8825 8399.0567 3042.0499 8202.9618 3040.9513 z M 4685.9672 3062.9655 C 4672.8942 3062.8922 4659.2378 3063.249 4644.9878 3063.999 C 4470.2596 3074.0497 4309.3579 3122.3655 4235.142 3213.0855 C 4228.8911 3217.119 4223.9466 3222.276 4220.9826 3229.0018 C 4219.6798 3231.9798 4218.1282 3236.1165 4216.7968 3239.2338 C 4208.1927 3253.961 4201.8119 3269.7111 4197.6249 3286.3627 C 4071.0337 3610.1287 3842.4571 4416.4263 3598.3333 5028.1685 C 3338.7928 4851.7551 3258.6429 4791.7312 3003.0208 4524.9951 C 2680.0208 4187.9951 2343.0229 3607.9752 2291.0229 3369.9752 C 2288.1594 3357.4073 2283.0614 3346.9802 2276.7086 3337.8324 C 2242.6736 3276.9378 2164.806 3255.2206 2046.025 3262.0231 C 1820.025 3274.0231 1615.9931 3350.9749 1594.9931 3500.9749 C 1583.1802 3577.5016 1583.6156 3679.5792 1600.6775 3776.2553 C 1600.677 3793.344 1602.4256 3810.3132 1606.982 3827.0015 C 1689.982 4129.0015 1978.9928 4579.0064 2360.9928 5017.0064 C 2693.1355 5399.7114 2978.9227 5586.3607 3262.0748 5790.9126 C 2964.8323 6442.9364 2596.1731 7228.7936 2459.023 7515.9753 C 2456.3059 7521.7114 2455.6025 7528.0754 2456.0258 7534.6822 C 2455.2537 7538.4169 2454.5466 7542.1695 2454.0104 7545.9993 C 2432.0104 7694.9993 2455.0015 7941.0121 2557.0015 8055.0121 C 2653.0015 8161.0121 2726.014 8134.9952 2861.014 8035.9952 C 2966.5449 7958.8159 3042.1377 7832.7526 3087.15 7730.8459 C 3091.6005 7724.4389 3095.6285 7717.6125 3098.9839 7710.0203 C 3197.9839 7486.0203 3543.0046 6601.0009 3861.0046 5826.0009 C 4180.0046 5052.0009 4606.9835 3914.9795 4798.9835 3551.9795 C 4800.6685 3548.7373 4801.6504 3545.3267 4802.4975 3541.851 C 4826.9203 3494.616 4845.5689 3449.6183 4857.998 3413.0216 C 4945.1855 3159.8966 4882.0621 3064.0641 4685.9672 3062.9655 z " />
   
  
</svg>
