<?xml version="1.0" encoding="UTF-8" standalone="no"?>
<svg
   version="1.2"
   width="100mm"
   height="100mm"
   viewBox="0 0 10000 10000"
   preserveAspectRatio="xMidYMid"
   fill-rule="evenodd"
   stroke-width="28.222"
   stroke-linejoin="round"
   xml:space="preserve"
   id="svg26"
   sodipodi:docname="gobo-caps-E006.svg"
   inkscape:version="1.4 (86a8ad7, 2024-10-11)"
   xmlns:inkscape="http://www.inkscape.org/namespaces/inkscape"
   xmlns:sodipodi="http://sodipodi.sourceforge.net/DTD/sodipodi-0.dtd"
   xmlns="http://www.w3.org/2000/svg"
   xmlns:svg="http://www.w3.org/2000/svg"
   xmlns:ooo="http://xml.openoffice.org/svg/export"><sodipodi:namedview
   id="namedview26"
   pagecolor="#ffffff"
   bordercolor="#000000"
   borderopacity="0.25"
   inkscape:showpageshadow="2"
   inkscape:pageopacity="0.0"
   inkscape:pagecheckerboard="0"
   inkscape:deskcolor="#d1d1d1"
   inkscape:document-units="mm"
   showgrid="false"
   inkscape:zoom="3.0876875"
   inkscape:cx="188.81444"
   inkscape:cy="188.97638"
   inkscape:window-width="2560"
   inkscape:window-height="1369"
   inkscape:window-x="-8"
   inkscape:window-y="-8"
   inkscape:window-maximized="1"
   inkscape:current-layer="svg26" />
 <defs
   class="ClipPathGroup"
   id="defs2">
  
  <clipPath
   id="presentation_clip_path_shrink"
   clipPathUnits="userSpaceOnUse">
   <rect
   x="10"
   y="10"
   width="9980"
   height="9980"
   id="rect2" />
  </clipPath>
 
  
 
   
  
    
   
     
    
      
      
      
      
      
      
      
      
      
      
      
     
       
      
       
      
       
      
       
      
       
      
       
      
       
      
       
      
       
      
       
      
       
      
        
        
       
        
        
       
        
        
       
        
        
       
        
        
       
        
        
       
        
        
       
        
        
       
        
        
       
        
        
       
        
        
       </defs>
 <defs
   class="TextShapeIndex"
   id="defs3">
  <g
   ooo:slide="id1"
   ooo:id-list="id3 id4 id5 id6 id7 id8 id9 id10 id11 id12 id13"
   id="g2" />
 </defs>
 <defs
   class="EmbeddedBulletChars"
   id="defs12">
  <g
   id="bullet-char-template-57356"
   transform="scale(0.00048828125,-0.00048828125)">
   <path
   d="M 580,1141 L 1163,571 580,0 -4,571 580,1141 Z"
   id="path3" />
  </g>
  <g
   id="bullet-char-template-57354"
   transform="scale(0.00048828125,-0.00048828125)">
   <path
   d="M 8,1128 L 1137,1128 1137,0 8,0 8,1128 Z"
   id="path4" />
  </g>
  <g
   id="bullet-char-template-10146"
   transform="scale(0.00048828125,-0.00048828125)">
   <path
   d="M 174,0 L 602,739 174,1481 1456,739 174,0 Z M 1358,739 L 309,1346 659,739 1358,739 Z"
   id="path5" />
  </g>
  <g
   id="bullet-char-template-10132"
   transform="scale(0.00048828125,-0.00048828125)">
   <path
   d="M 2015,739 L 1276,0 717,0 1260,543 174,543 174,936 1260,936 717,1481 1274,1481 2015,739 Z"
   id="path6" />
  </g>
  <g
   id="bullet-char-template-10007"
   transform="scale(0.00048828125,-0.00048828125)">
   <path
   d="M 0,-2 C -7,14 -16,27 -25,37 L 356,567 C 262,823 215,952 215,954 215,979 228,992 255,992 264,992 276,990 289,987 310,991 331,999 354,1012 L 381,999 492,748 772,1049 836,1024 860,1049 C 881,1039 901,1025 922,1006 886,937 835,863 770,784 769,783 710,716 594,584 L 774,223 C 774,196 753,168 711,139 L 727,119 C 717,90 699,76 672,76 641,76 570,178 457,381 L 164,-76 C 142,-110 111,-127 72,-127 30,-127 9,-110 8,-76 1,-67 -2,-52 -2,-32 -2,-23 -1,-13 0,-2 Z"
   id="path7" />
  </g>
  <g
   id="bullet-char-template-10004"
   transform="scale(0.00048828125,-0.00048828125)">
   <path
   d="M 285,-33 C 182,-33 111,30 74,156 52,228 41,333 41,471 41,549 55,616 82,672 116,743 169,778 240,778 293,778 328,747 346,684 L 369,508 C 377,444 397,411 428,410 L 1163,1116 C 1174,1127 1196,1133 1229,1133 1271,1133 1292,1118 1292,1087 L 1292,965 C 1292,929 1282,901 1262,881 L 442,47 C 390,-6 338,-33 285,-33 Z"
   id="path8" />
  </g>
  <g
   id="bullet-char-template-9679"
   transform="scale(0.00048828125,-0.00048828125)">
   <path
   d="M 813,0 C 632,0 489,54 383,161 276,268 223,411 223,592 223,773 276,916 383,1023 489,1130 632,1184 813,1184 992,1184 1136,1130 1245,1023 1353,916 1407,772 1407,592 1407,412 1353,268 1245,161 1136,54 992,0 813,0 Z"
   id="path9" />
  </g>
  <g
   id="bullet-char-template-8226"
   transform="scale(0.00048828125,-0.00048828125)">
   <path
   d="M 346,457 C 273,457 209,483 155,535 101,586 74,649 74,723 74,796 101,859 155,911 209,963 273,989 346,989 419,989 480,963 531,910 582,859 608,796 608,723 608,648 583,586 532,535 482,483 420,457 346,457 Z"
   id="path10" />
  </g>
  <g
   id="bullet-char-template-8211"
   transform="scale(0.00048828125,-0.00048828125)">
   <path
   d="M -4,459 L 1135,459 1135,606 -4,606 -4,459 Z"
   id="path11" />
  </g>
  <g
   id="bullet-char-template-61548"
   transform="scale(0.00048828125,-0.00048828125)">
   <path
   d="M 173,740 C 173,903 231,1043 346,1159 462,1274 601,1332 765,1332 928,1332 1067,1274 1183,1159 1299,1043 1357,903 1357,740 1357,577 1299,437 1183,322 1067,206 928,148 765,148 601,148 462,206 346,322 231,437 173,577 173,740 Z"
   id="path12" />
  </g>
 </defs>
 
 <path
   id="path13"
   d="M 3246.8302 3142.9089 C 3116.6056 3139.3933 2976.4774 3143.9984 2825.9774 3157.9984 C 1620.9774 3269.9984 728.0061 4449.9938 535.0061 5646.9938 C 341.0061 6844.9938 1131.9794 8198.0244 2580.9794 8023.0244 C 4030.9794 7848.0244 4792.0158 6397.9965 4820.0158 5643.9965 C 4820.3982 5635.5528 4819.9476 5627.594 4818.879 5620.0187 C 4812.4614 5503.1928 4726.5384 5461.6573 4567.9899 5470.002 C 4559.4 5470.4961 4550.9248 5471.2862 4542.41 5471.9657 C 4115.8322 5467.8014 3441.2516 5554.1488 2974.237 5629.7338 C 2949.4519 5632.7988 2925.2929 5636.7898 2901.7867 5641.5161 C 2892.9364 5642.9946 2882.6443 5644.5473 2873.9848 5646.0119 C 2872.0685 5646.7784 2870.3729 5648.0236 2868.5071 5648.9058 C 2722.7431 5684.38 2612.1836 5754.2819 2596.9991 5862.0194 C 2573.9991 6012.0194 2597.9902 6257.9806 2699.9902 6370.9806 C 2747.9902 6424.4806 2790.2728 6444.4784 2837.3978 6438.7284 C 2842.2153 6440.5205 2847.1044 6440.9941 2852.0223 6438.9868 C 3006.2959 6372.3158 3612.7863 6284.9852 4031.7952 6273.6222 C 3796.5146 6991.7227 3087.9353 7308.2713 2540 7304.9804 C 1875 7300.9804 1091.9766 6613.9892 1145.9766 5763.9892 C 1200.9766 4913.9892 1572.984 4445.9848 1996.984 4143.9848 C 2420.984 3841.9848 3714.0161 3583.0006 4054.0161 4519.0006 C 4055.9096 4524.2117 4058.25 4528.4407 4060.3723 4533.16 C 4076.9375 4576.6492 4098.2255 4615.3323 4125.0195 4644.9878 C 4221.0195 4750.9878 4293.9803 4725.0225 4428.9803 4626.0225 C 4561.9803 4528.0225 4648.9853 4351.0122 4684.9853 4245.0122 C 4720.0196 4143.2997 4730.7436 4067.0238 4718.42 4012.1065 C 4718.0462 4004.1678 4717.1213 3996.6212 4715.0093 3989.989 C 4586.3843 3590.989 4158.4025 3167.5183 3246.8302 3142.9089 z M 7746.8139 3142.9089 C 7616.5893 3139.3933 7476.5127 3143.9984 7326.0127 3157.9984 C 6121.0127 3269.9984 5227.9898 4449.9938 5034.9898 5646.9938 C 4840.9898 6844.9938 5632.0148 8198.0244 7081.0148 8023.0244 C 8531.0148 7848.0244 8880.9946 7001.0245 9231.9946 6286.0245 C 9232.8843 6284.1879 9233.3233 6282.3354 9234.1133 6280.4952 C 9248.151 6249.7673 9259.5545 6220.9099 9268.013 6196.0042 C 9280.1099 6160.8842 9289.2515 6128.8578 9295.6082 6099.6276 C 9375.5206 6004.4803 9429.5644 5888.888 9456.0119 5811.0148 C 9544.261 5554.8078 9478.425 5459.7975 9277.5215 5461.0103 C 9268.419 5460.6241 9259.0192 5460.5384 9248.9961 5461.0103 C 8801.9961 5483.0103 8632.0008 5480.0165 8198.0008 5529.0165 C 7797.5538 5573.4078 7820.2854 5570.3055 7454.4287 5632.421 C 7438.7642 5634.6653 7423.4064 5637.2992 7408.2816 5640.2242 C 7394.2337 5642.605 7389.1718 5643.4493 7374.0201 5646.0119 C 7372.1155 5646.7738 7370.3972 5647.9778 7368.5424 5648.8541 C 7222.7483 5684.3236 7112.1694 5754.2669 7096.9828 5862.0194 C 7073.9828 6012.0194 7098.0256 6257.9806 7200.0256 6370.9806 C 7247.919 6424.3618 7290.0727 6444.4031 7337.0715 6438.7801 C 7341.9972 6440.658 7346.9742 6441.0919 7352.006 6438.9868 C 7551.006 6352.9868 7932.0126 6271.9934 8260.0126 6244.9934 C 8361.6154 6236.964 8453.5382 6236.2618 8539.0653 6238.8439 C 8171.8675 7116.3041 7614.7652 7297.7714 6990.9944 7294.025 C 6325.9944 7290.025 5592.0119 6613.9892 5646.0119 5763.9892 C 5701.0119 4913.9892 6073.0194 4445.9848 6497.0194 4143.9848 C 6921.0194 3841.9848 8213.9998 3583.0006 8553.9998 4519.0006 C 8555.9016 4524.2346 8558.275 4528.4738 8560.4076 4533.2116 C 8576.9697 4576.677 8598.2213 4615.3456 8625.0032 4644.9878 C 8721.0032 4750.9878 8794.0156 4725.0225 8929.0156 4626.0225 C 9062.0156 4528.0225 9149.0207 4351.0122 9185.0207 4245.0122 C 9220.0893 4143.2 9230.7847 4066.8806 9218.4037 4011.9515 C 9218.0218 4004.0701 9217.0917 3996.5797 9214.993 3989.989 C 9086.368 3590.989 8658.3862 3167.5183 7746.8139 3142.9089 z " />
   
  
</svg>
