<?xml version="1.0" encoding="UTF-8" standalone="no"?>
<svg
   version="1.2"
   width="100mm"
   height="100mm"
   viewBox="0 0 10000 10000"
   preserveAspectRatio="xMidYMid"
   fill-rule="evenodd"
   stroke-width="28.222"
   stroke-linejoin="round"
   xml:space="preserve"
   id="svg24"
   sodipodi:docname="gobo-caps-E013.svg"
   inkscape:version="1.4 (86a8ad7, 2024-10-11)"
   xmlns:inkscape="http://www.inkscape.org/namespaces/inkscape"
   xmlns:sodipodi="http://sodipodi.sourceforge.net/DTD/sodipodi-0.dtd"
   xmlns="http://www.w3.org/2000/svg"
   xmlns:svg="http://www.w3.org/2000/svg"
   xmlns:ooo="http://xml.openoffice.org/svg/export"><sodipodi:namedview
   id="namedview24"
   pagecolor="#ffffff"
   bordercolor="#000000"
   borderopacity="0.25"
   inkscape:showpageshadow="2"
   inkscape:pageopacity="0.0"
   inkscape:pagecheckerboard="0"
   inkscape:deskcolor="#d1d1d1"
   inkscape:document-units="mm"
   showgrid="false"
   inkscape:zoom="3.0876875"
   inkscape:cx="188.81444"
   inkscape:cy="188.97638"
   inkscape:window-width="2560"
   inkscape:window-height="1369"
   inkscape:window-x="-8"
   inkscape:window-y="-8"
   inkscape:window-maximized="1"
   inkscape:current-layer="svg24" />
 <defs
   class="ClipPathGroup"
   id="defs2">
  
  <clipPath
   id="presentation_clip_path_shrink"
   clipPathUnits="userSpaceOnUse">
   <rect
   x="10"
   y="10"
   width="9980"
   height="9980"
   id="rect2" />
  </clipPath>
 
  
 
   
  
    
   
     
    
      
      
      
      
      
      
      
      
      
     
       
      
       
      
       
      
       
      
       
      
       
      
       
      
       
      
       
      
        
        
       
        
        
       
        
        
       
        
        
       
        
        
       
        
        
       
        
        
       
        
        
       
        
        
       </defs>
 <defs
   class="TextShapeIndex"
   id="defs3">
  <g
   ooo:slide="id1"
   ooo:id-list="id3 id4 id5 id6 id7 id8 id9 id10 id11"
   id="g2" />
 </defs>
 <defs
   class="EmbeddedBulletChars"
   id="defs12">
  <g
   id="bullet-char-template-57356"
   transform="scale(0.00048828125,-0.00048828125)">
   <path
   d="M 580,1141 L 1163,571 580,0 -4,571 580,1141 Z"
   id="path3" />
  </g>
  <g
   id="bullet-char-template-57354"
   transform="scale(0.00048828125,-0.00048828125)">
   <path
   d="M 8,1128 L 1137,1128 1137,0 8,0 8,1128 Z"
   id="path4" />
  </g>
  <g
   id="bullet-char-template-10146"
   transform="scale(0.00048828125,-0.00048828125)">
   <path
   d="M 174,0 L 602,739 174,1481 1456,739 174,0 Z M 1358,739 L 309,1346 659,739 1358,739 Z"
   id="path5" />
  </g>
  <g
   id="bullet-char-template-10132"
   transform="scale(0.00048828125,-0.00048828125)">
   <path
   d="M 2015,739 L 1276,0 717,0 1260,543 174,543 174,936 1260,936 717,1481 1274,1481 2015,739 Z"
   id="path6" />
  </g>
  <g
   id="bullet-char-template-10007"
   transform="scale(0.00048828125,-0.00048828125)">
   <path
   d="M 0,-2 C -7,14 -16,27 -25,37 L 356,567 C 262,823 215,952 215,954 215,979 228,992 255,992 264,992 276,990 289,987 310,991 331,999 354,1012 L 381,999 492,748 772,1049 836,1024 860,1049 C 881,1039 901,1025 922,1006 886,937 835,863 770,784 769,783 710,716 594,584 L 774,223 C 774,196 753,168 711,139 L 727,119 C 717,90 699,76 672,76 641,76 570,178 457,381 L 164,-76 C 142,-110 111,-127 72,-127 30,-127 9,-110 8,-76 1,-67 -2,-52 -2,-32 -2,-23 -1,-13 0,-2 Z"
   id="path7" />
  </g>
  <g
   id="bullet-char-template-10004"
   transform="scale(0.00048828125,-0.00048828125)">
   <path
   d="M 285,-33 C 182,-33 111,30 74,156 52,228 41,333 41,471 41,549 55,616 82,672 116,743 169,778 240,778 293,778 328,747 346,684 L 369,508 C 377,444 397,411 428,410 L 1163,1116 C 1174,1127 1196,1133 1229,1133 1271,1133 1292,1118 1292,1087 L 1292,965 C 1292,929 1282,901 1262,881 L 442,47 C 390,-6 338,-33 285,-33 Z"
   id="path8" />
  </g>
  <g
   id="bullet-char-template-9679"
   transform="scale(0.00048828125,-0.00048828125)">
   <path
   d="M 813,0 C 632,0 489,54 383,161 276,268 223,411 223,592 223,773 276,916 383,1023 489,1130 632,1184 813,1184 992,1184 1136,1130 1245,1023 1353,916 1407,772 1407,592 1407,412 1353,268 1245,161 1136,54 992,0 813,0 Z"
   id="path9" />
  </g>
  <g
   id="bullet-char-template-8226"
   transform="scale(0.00048828125,-0.00048828125)">
   <path
   d="M 346,457 C 273,457 209,483 155,535 101,586 74,649 74,723 74,796 101,859 155,911 209,963 273,989 346,989 419,989 480,963 531,910 582,859 608,796 608,723 608,648 583,586 532,535 482,483 420,457 346,457 Z"
   id="path10" />
  </g>
  <g
   id="bullet-char-template-8211"
   transform="scale(0.00048828125,-0.00048828125)">
   <path
   d="M -4,459 L 1135,459 1135,606 -4,606 -4,459 Z"
   id="path11" />
  </g>
  <g
   id="bullet-char-template-61548"
   transform="scale(0.00048828125,-0.00048828125)">
   <path
   d="M 173,740 C 173,903 231,1043 346,1159 462,1274 601,1332 765,1332 928,1332 1067,1274 1183,1159 1299,1043 1357,903 1357,740 1357,577 1299,437 1183,322 1067,206 928,148 765,148 601,148 462,206 346,322 231,437 173,577 173,740 Z"
   id="path12" />
  </g>
 </defs>
 
 <path
   id="path13"
   d="M 7947.9903 2941.9909 C 7947.858 2941.9954 7947.0901 2942.0381 7946.9567 2942.0426 C 7935.091 2942.0527 7922.8257 2942.3499 7910.0081 2943.0245 C 7904.9755 2943.314 7900.0299 2943.8083 7895.0219 2944.1614 C 7566.2493 2956.1064 5653.3597 3037.035 4980.0061 3106.9938 C 4353.3176 3171.9169 2853.8464 3344.1132 2267.8202 3433.2271 C 2212.7776 3437.6641 2159.6861 3446.1295 2110.6722 3458.6002 C 2108.5261 3458.9981 2104.0641 3459.6045 2101.9905 3459.9955 C 2097.7183 3460.8248 2093.5887 3462.5073 2089.4848 3464.2846 C 1958.4325 3501.7709 1861.4603 3569.7362 1848.0009 3670.0085 C 1826.0009 3819.0085 1848.992 4065.0214 1950.992 4179.0214 C 1990.6206 4222.778 2026.3425 4243.952 2064.1117 4246.8725 C 2072.8745 4248.4156 2082.078 4248.5541 2092.017 4245.994 C 2092.5749 4245.846 2094.6384 4245.474 2095.2209 4245.3222 C 2099.2059 4244.6472 2103.1949 4243.8148 2107.2615 4242.7901 C 2238.6875 4210.5308 2827.4228 4110.3529 3509.4498 4013.3467 C 3506.2966 4034.8661 3505.6173 4057.7402 3508.0029 4082.0247 C 3595.0029 4533.0247 3651.9861 5214.9954 3656.9861 5831.9954 C 3659.9708 6445.8643 3449.3792 7566.8322 3495.4972 7830.323 C 3504.4016 7952.483 3537.4309 8081.308 3604.0177 8155.006 C 3700.0177 8261.006 3772.9966 8234.9891 3906.9966 8135.9891 C 4040.9966 8037.9891 4127.9835 7860.9788 4163.9835 7754.9788 C 4182.7978 7700.3568 4194.4941 7653.256 4199.4852 7612.7136 C 4199.9158 7609.4481 4200.6488 7606.3034 4200.9839 7602.9984 C 4236.9839 7236.9984 4291.0153 6695.0117 4279.0153 5777.0117 C 4267.8927 4926.1338 4214.5615 4396.3668 4218.6572 3918.8305 C 4525.4529 3881.3349 4825.916 3849.178 5088.0098 3829.0169 C 5237.4585 3817.4995 5393.782 3807.942 5552.0125 3799.5613 C 5550.937 3821.3333 5550.6826 3844.0528 5551.289 3867.3608 C 5550.5139 3881.74 5550.4877 3896.4874 5552.0125 3912.0092 C 5552.994 3917.0859 5553.7967 3922.6282 5554.7513 3927.7706 C 5558.3076 3967.4032 5564.5351 4007.3312 5573.5099 4045.6962 C 5635.3857 4494.8824 5620.3725 5129.8084 5623.9978 5689.0067 C 5627.9828 6303.6923 5487.2042 7402.1967 5534.5975 7663.5632 C 5543.6359 7785.353 5576.654 7913.5582 5643.0147 7987.006 C 5739.0147 8093.006 5811.9936 8066.989 5945.9936 7967.989 C 6079.9936 7869.989 6166.9805 7692.9787 6202.9805 7586.9787 C 6218.2189 7542.7382 6228.7678 7503.459 6234.9165 7468.5363 C 6236.324 7460.5423 6237.4934 7452.8101 6238.4305 7445.2819 C 6238.8828 7441.8288 6239.6359 7438.4956 6239.9808 7434.9983 C 6275.9808 7067.9983 6257.9753 6552.023 6245.9753 5634.023 C 6234.9836 4793.1609 6242.7855 4247.4258 6256.4139 3771.346 C 6987.2866 3750.0948 7621.6032 3753.8088 7691.0034 3761.0107 C 7695.4823 3761.4293 7700.6375 3759.8673 7706.0412 3757.445 C 7751.3817 3749.913 7801.4705 3719.3307 7865.9798 3672.0239 C 7999.9798 3575.0239 8087.0183 3397.9954 8123.0183 3291.9954 C 8210.5954 3037.7395 8146.4647 2942.2974 7948.3003 2942.0426 C 7948.1873 2942.0455 7948.1035 2941.9876 7947.9903 2941.9909 z " />
   
  
</svg>
