<?xml version="1.0" encoding="UTF-8" standalone="no"?>
<svg
   version="1.2"
   width="100mm"
   height="100mm"
   viewBox="0 0 10000 10000"
   preserveAspectRatio="xMidYMid"
   fill-rule="evenodd"
   stroke-width="28.222"
   stroke-linejoin="round"
   xml:space="preserve"
   id="svg24"
   sodipodi:docname="gobo-caps-E040.svg"
   inkscape:version="1.4 (86a8ad7, 2024-10-11)"
   xmlns:inkscape="http://www.inkscape.org/namespaces/inkscape"
   xmlns:sodipodi="http://sodipodi.sourceforge.net/DTD/sodipodi-0.dtd"
   xmlns="http://www.w3.org/2000/svg"
   xmlns:svg="http://www.w3.org/2000/svg"
   xmlns:ooo="http://xml.openoffice.org/svg/export"><sodipodi:namedview
   id="namedview24"
   pagecolor="#ffffff"
   bordercolor="#000000"
   borderopacity="0.25"
   inkscape:showpageshadow="2"
   inkscape:pageopacity="0.0"
   inkscape:pagecheckerboard="0"
   inkscape:deskcolor="#d1d1d1"
   inkscape:document-units="mm"
   showgrid="false"
   inkscape:zoom="3.0876875"
   inkscape:cx="188.81444"
   inkscape:cy="188.97638"
   inkscape:window-width="2560"
   inkscape:window-height="1369"
   inkscape:window-x="-8"
   inkscape:window-y="-8"
   inkscape:window-maximized="1"
   inkscape:current-layer="svg24" />
 <defs
   class="ClipPathGroup"
   id="defs2">
  
  <clipPath
   id="presentation_clip_path_shrink"
   clipPathUnits="userSpaceOnUse">
   <rect
   x="10"
   y="10"
   width="9980"
   height="9980"
   id="rect2" />
  </clipPath>
 
  
 
   
  
    
   
     
    
      
      
      
      
      
      
      
      
      
     
       
      
       
      
       
      
       
      
       
      
       
      
       
      
       
      
       
      
        
        
       
        
        
       
        
        
       
        
        
       
        
        
       
        
        
       
        
        
       
        
        
       
        
        
       </defs>
 <defs
   class="TextShapeIndex"
   id="defs3">
  <g
   ooo:slide="id1"
   ooo:id-list="id3 id4 id5 id6 id7 id8 id9 id10 id11"
   id="g2" />
 </defs>
 <defs
   class="EmbeddedBulletChars"
   id="defs12">
  <g
   id="bullet-char-template-57356"
   transform="scale(0.00048828125,-0.00048828125)">
   <path
   d="M 580,1141 L 1163,571 580,0 -4,571 580,1141 Z"
   id="path3" />
  </g>
  <g
   id="bullet-char-template-57354"
   transform="scale(0.00048828125,-0.00048828125)">
   <path
   d="M 8,1128 L 1137,1128 1137,0 8,0 8,1128 Z"
   id="path4" />
  </g>
  <g
   id="bullet-char-template-10146"
   transform="scale(0.00048828125,-0.00048828125)">
   <path
   d="M 174,0 L 602,739 174,1481 1456,739 174,0 Z M 1358,739 L 309,1346 659,739 1358,739 Z"
   id="path5" />
  </g>
  <g
   id="bullet-char-template-10132"
   transform="scale(0.00048828125,-0.00048828125)">
   <path
   d="M 2015,739 L 1276,0 717,0 1260,543 174,543 174,936 1260,936 717,1481 1274,1481 2015,739 Z"
   id="path6" />
  </g>
  <g
   id="bullet-char-template-10007"
   transform="scale(0.00048828125,-0.00048828125)">
   <path
   d="M 0,-2 C -7,14 -16,27 -25,37 L 356,567 C 262,823 215,952 215,954 215,979 228,992 255,992 264,992 276,990 289,987 310,991 331,999 354,1012 L 381,999 492,748 772,1049 836,1024 860,1049 C 881,1039 901,1025 922,1006 886,937 835,863 770,784 769,783 710,716 594,584 L 774,223 C 774,196 753,168 711,139 L 727,119 C 717,90 699,76 672,76 641,76 570,178 457,381 L 164,-76 C 142,-110 111,-127 72,-127 30,-127 9,-110 8,-76 1,-67 -2,-52 -2,-32 -2,-23 -1,-13 0,-2 Z"
   id="path7" />
  </g>
  <g
   id="bullet-char-template-10004"
   transform="scale(0.00048828125,-0.00048828125)">
   <path
   d="M 285,-33 C 182,-33 111,30 74,156 52,228 41,333 41,471 41,549 55,616 82,672 116,743 169,778 240,778 293,778 328,747 346,684 L 369,508 C 377,444 397,411 428,410 L 1163,1116 C 1174,1127 1196,1133 1229,1133 1271,1133 1292,1118 1292,1087 L 1292,965 C 1292,929 1282,901 1262,881 L 442,47 C 390,-6 338,-33 285,-33 Z"
   id="path8" />
  </g>
  <g
   id="bullet-char-template-9679"
   transform="scale(0.00048828125,-0.00048828125)">
   <path
   d="M 813,0 C 632,0 489,54 383,161 276,268 223,411 223,592 223,773 276,916 383,1023 489,1130 632,1184 813,1184 992,1184 1136,1130 1245,1023 1353,916 1407,772 1407,592 1407,412 1353,268 1245,161 1136,54 992,0 813,0 Z"
   id="path9" />
  </g>
  <g
   id="bullet-char-template-8226"
   transform="scale(0.00048828125,-0.00048828125)">
   <path
   d="M 346,457 C 273,457 209,483 155,535 101,586 74,649 74,723 74,796 101,859 155,911 209,963 273,989 346,989 419,989 480,963 531,910 582,859 608,796 608,723 608,648 583,586 532,535 482,483 420,457 346,457 Z"
   id="path10" />
  </g>
  <g
   id="bullet-char-template-8211"
   transform="scale(0.00048828125,-0.00048828125)">
   <path
   d="M -4,459 L 1135,459 1135,606 -4,606 -4,459 Z"
   id="path11" />
  </g>
  <g
   id="bullet-char-template-61548"
   transform="scale(0.00048828125,-0.00048828125)">
   <path
   d="M 173,740 C 173,903 231,1043 346,1159 462,1274 601,1332 765,1332 928,1332 1067,1274 1183,1159 1299,1043 1357,903 1357,740 1357,577 1299,437 1183,322 1067,206 928,148 765,148 601,148 462,206 346,322 231,437 173,577 173,740 Z"
   id="path12" />
  </g>
 </defs>
 
 <path
   id="path13"
   d="M 4527.0105 2756.9893 C 4513.9375 2756.9163 4500.2294 2757.2728 4485.9794 2758.0228 C 4259.9794 2771.0228 4056.981 2847.9747 4035.981 2996.9747 C 4012.981 3146.9747 4035.9903 3392.9875 4137.9903 3505.9875 C 4184.0122 3556.2795 4224.408 3576.8282 4268.68 3573.9937 C 4466.2848 3581.4422 4812.1463 3610.7566 5154.0006 3682.9793 C 5508.0006 3758.9793 5788.9976 3858.9757 5922.9976 3910.9757 C 5925.8084 3912.1504 5928.9009 3912.8386 5932.0926 3913.3012 C 5994.9857 3935.667 6058.5876 3902.2386 6153.0094 3832.996 C 6287.0094 3735.996 6373.9963 3559.0192 6409.9963 3453.0192 C 6476.1994 3260.8167 6455.6781 3159.3562 6356.1494 3121.1531 C 6347.7115 3116.731 6338.3747 3112.9401 6327.9858 3109.991 C 6016.9858 3021.991 5749.0229 2961.0088 5466.0229 2904.0088 C 5191.8795 2848.7926 4877.6777 2795.6458 4596.4636 2762.3637 C 4575.5449 2758.9036 4552.4398 2757.1313 4527.0105 2756.9893 z M 6089.9641 5094.9861 C 6076.8911 5094.9129 6063.2347 5095.2697 6048.9847 5096.0197 C 6031.8726 5097.004 6014.9662 5098.4317 5998.1868 5100.1538 C 5992.2422 5099.9483 5986.4637 5099.5152 5979.9967 5099.9987 C 5658.9967 5124.9987 5240.9989 5166.0222 4800.9989 5224.0222 C 4373.3035 5280.4002 4111.9114 5350.8337 3838.6287 5417.1887 C 3683.6229 5451.0265 3563.8618 5522.4648 3548.0005 5635.0048 C 3525.0005 5785.0048 3548.0097 6031.0177 3650.0097 6144.0177 C 3702.927 6201.8448 3748.4183 6220.2934 3800.9049 6209.13 C 3801.6015 6208.9861 3802.3355 6209.2019 3803.0237 6208.975 C 3803.676 6208.7611 3804.8974 6208.3641 3805.5558 6208.1481 C 3805.6205 6208.1269 3805.7494 6208.1177 3805.8142 6208.0965 C 3813.5436 6206.1981 3821.4929 6203.4158 3829.5853 6200.2933 C 4022.6791 6136.7292 4423.365 6003.1156 4767.9777 5954.9853 C 5120.9939 5903.7092 5661.0827 5907.9265 5814.2187 5911.8872 C 5867.9501 5916.1911 5925.585 5883.2627 6005.0081 5825.0191 C 6139.0081 5728.0191 6225.995 5550.9906 6261.995 5444.9906 C 6349.1825 5191.8656 6286.0591 5096.0848 6089.9641 5094.9861 z M 6250.0061 7034.9711 C 6236.9331 7034.8978 6223.225 7035.2546 6208.975 7036.0046 C 6110.365 7041.6768 6016.1786 7059.5278 5939.5341 7090.3165 C 5930.3433 7093.1613 5920.9006 7096.8765 5911.0087 7101.9954 C 5625.0087 7249.9954 5425.9868 7387.9811 5168.9868 7546.9811 C 4911.9868 7706.9811 4627.9772 7894.9829 4394.9772 8067.9829 C 4382.0685 8077.5675 4371.6772 8088.4195 4362.8861 8100.0223 C 4329.2298 8131.6054 4307.1583 8169.1348 4300.9778 8212.987 C 4277.9778 8362.987 4300.987 8608.9999 4402.987 8721.9999 C 4498.1424 8825.9841 4569.379 8802.7301 4700.4366 8708.3573 C 4702.7893 8707.4852 4705.1043 8706.5736 4706.9995 8704.9983 C 4711.6457 8700.8683 4717.3269 8696.1335 4722.1923 8691.8725 C 4734.3175 8682.2676 4746.1742 8672.1827 4757.4873 8661.3834 C 4905.869 8535.5528 5134.2253 8364.8619 5410.9875 8197.019 C 5720.9875 8011.019 5916.0001 7892.0228 6051.0001 7838.0228 C 6055.9888 7836.1521 6060.7249 7832.9193 6065.3662 7829.0311 C 6095.0148 7814.0619 6127.5226 7792.4862 6164.9983 7765.004 C 6298.9983 7668.004 6385.9852 7490.9755 6421.9852 7384.9755 C 6509.1727 7131.8505 6446.101 7036.0697 6250.0061 7034.9711 z " />
   
  
</svg>
