<?xml version="1.0" encoding="UTF-8" standalone="no"?>
<svg
   version="1.2"
   width="100mm"
   height="100mm"
   viewBox="0 0 10000 10000"
   preserveAspectRatio="xMidYMid"
   fill-rule="evenodd"
   stroke-width="28.222"
   stroke-linejoin="round"
   xml:space="preserve"
   id="svg29"
   sodipodi:docname="gobo-caps-E00D.svg"
   inkscape:version="1.4 (86a8ad7, 2024-10-11)"
   xmlns:inkscape="http://www.inkscape.org/namespaces/inkscape"
   xmlns:sodipodi="http://sodipodi.sourceforge.net/DTD/sodipodi-0.dtd"
   xmlns="http://www.w3.org/2000/svg"
   xmlns:svg="http://www.w3.org/2000/svg"
   xmlns:ooo="http://xml.openoffice.org/svg/export"><sodipodi:namedview
   id="namedview29"
   pagecolor="#ffffff"
   bordercolor="#000000"
   borderopacity="0.25"
   inkscape:showpageshadow="2"
   inkscape:pageopacity="0.0"
   inkscape:pagecheckerboard="0"
   inkscape:deskcolor="#d1d1d1"
   inkscape:document-units="mm"
   showgrid="false"
   inkscape:zoom="3.0876875"
   inkscape:cx="188.81444"
   inkscape:cy="188.97638"
   inkscape:window-width="2560"
   inkscape:window-height="1369"
   inkscape:window-x="-8"
   inkscape:window-y="-8"
   inkscape:window-maximized="1"
   inkscape:current-layer="svg29" />
 <defs
   class="ClipPathGroup"
   id="defs2">
  
  <clipPath
   id="presentation_clip_path_shrink"
   clipPathUnits="userSpaceOnUse">
   <rect
   x="10"
   y="10"
   width="9980"
   height="9980"
   id="rect2" />
  </clipPath>
 
  
 
   
  
    
   
     
    
      
      
      
      
      
      
      
      
      
      
      
      
      
      
     
       
      
       
      
       
      
       
      
       
      
       
      
       
      
       
      
       
      
       
      
       
      
       
      
       
      
       
      
        
        
       
        
        
       
        
        
       
        
        
       
        
        
       
        
        
       
        
        
       
        
        
       
        
        
       
        
        
       
        
        
       
        
        
       
        
        
       
        
        
       </defs>
 <defs
   class="TextShapeIndex"
   id="defs3">
  <g
   ooo:slide="id1"
   ooo:id-list="id3 id4 id5 id6 id7 id8 id9 id10 id11 id12 id13 id14 id15 id16"
   id="g2" />
 </defs>
 <defs
   class="EmbeddedBulletChars"
   id="defs12">
  <g
   id="bullet-char-template-57356"
   transform="scale(0.00048828125,-0.00048828125)">
   <path
   d="M 580,1141 L 1163,571 580,0 -4,571 580,1141 Z"
   id="path3" />
  </g>
  <g
   id="bullet-char-template-57354"
   transform="scale(0.00048828125,-0.00048828125)">
   <path
   d="M 8,1128 L 1137,1128 1137,0 8,0 8,1128 Z"
   id="path4" />
  </g>
  <g
   id="bullet-char-template-10146"
   transform="scale(0.00048828125,-0.00048828125)">
   <path
   d="M 174,0 L 602,739 174,1481 1456,739 174,0 Z M 1358,739 L 309,1346 659,739 1358,739 Z"
   id="path5" />
  </g>
  <g
   id="bullet-char-template-10132"
   transform="scale(0.00048828125,-0.00048828125)">
   <path
   d="M 2015,739 L 1276,0 717,0 1260,543 174,543 174,936 1260,936 717,1481 1274,1481 2015,739 Z"
   id="path6" />
  </g>
  <g
   id="bullet-char-template-10007"
   transform="scale(0.00048828125,-0.00048828125)">
   <path
   d="M 0,-2 C -7,14 -16,27 -25,37 L 356,567 C 262,823 215,952 215,954 215,979 228,992 255,992 264,992 276,990 289,987 310,991 331,999 354,1012 L 381,999 492,748 772,1049 836,1024 860,1049 C 881,1039 901,1025 922,1006 886,937 835,863 770,784 769,783 710,716 594,584 L 774,223 C 774,196 753,168 711,139 L 727,119 C 717,90 699,76 672,76 641,76 570,178 457,381 L 164,-76 C 142,-110 111,-127 72,-127 30,-127 9,-110 8,-76 1,-67 -2,-52 -2,-32 -2,-23 -1,-13 0,-2 Z"
   id="path7" />
  </g>
  <g
   id="bullet-char-template-10004"
   transform="scale(0.00048828125,-0.00048828125)">
   <path
   d="M 285,-33 C 182,-33 111,30 74,156 52,228 41,333 41,471 41,549 55,616 82,672 116,743 169,778 240,778 293,778 328,747 346,684 L 369,508 C 377,444 397,411 428,410 L 1163,1116 C 1174,1127 1196,1133 1229,1133 1271,1133 1292,1118 1292,1087 L 1292,965 C 1292,929 1282,901 1262,881 L 442,47 C 390,-6 338,-33 285,-33 Z"
   id="path8" />
  </g>
  <g
   id="bullet-char-template-9679"
   transform="scale(0.00048828125,-0.00048828125)">
   <path
   d="M 813,0 C 632,0 489,54 383,161 276,268 223,411 223,592 223,773 276,916 383,1023 489,1130 632,1184 813,1184 992,1184 1136,1130 1245,1023 1353,916 1407,772 1407,592 1407,412 1353,268 1245,161 1136,54 992,0 813,0 Z"
   id="path9" />
  </g>
  <g
   id="bullet-char-template-8226"
   transform="scale(0.00048828125,-0.00048828125)">
   <path
   d="M 346,457 C 273,457 209,483 155,535 101,586 74,649 74,723 74,796 101,859 155,911 209,963 273,989 346,989 419,989 480,963 531,910 582,859 608,796 608,723 608,648 583,586 532,535 482,483 420,457 346,457 Z"
   id="path10" />
  </g>
  <g
   id="bullet-char-template-8211"
   transform="scale(0.00048828125,-0.00048828125)">
   <path
   d="M -4,459 L 1135,459 1135,606 -4,606 -4,459 Z"
   id="path11" />
  </g>
  <g
   id="bullet-char-template-61548"
   transform="scale(0.00048828125,-0.00048828125)">
   <path
   d="M 173,740 C 173,903 231,1043 346,1159 462,1274 601,1332 765,1332 928,1332 1067,1274 1183,1159 1299,1043 1357,903 1357,740 1357,577 1299,437 1183,322 1067,206 928,148 765,148 601,148 462,206 346,322 231,437 173,577 173,740 Z"
   id="path12" />
  </g>
 </defs>
 
 <path
   id="path13"
   d="M 4675.9936 3038.9876 C 4662.9277 3038.9144 4649.2642 3039.2711 4635.0142 3040.0211 C 4408.0142 3052.0211 4204.9823 3130.0246 4183.9823 3279.0246 C 4176.5472 3327.5145 4174.1392 3386.0516 4177.5744 3446.8697 C 4176.952 3453.2931 4176.6045 3459.6735 4177.006 3465.99 C 4194.006 3700.99 4245.0162 4353.002 4222.0162 5470.002 C 4214.5296 5834.2401 4193.7457 6125.5279 4168.6344 6366.9498 C 3901.5282 5999.067 3580.6751 5561.8922 3295.9745 5160.9769 C 2741.4182 4382.4273 2197.6061 3684.1971 1940.0883 3342.845 C 1907.3883 3278.6928 1828.5868 3256.0404 1706.9759 3263.0049 C 1480.9759 3275.0049 1276.9957 3352.0084 1255.9957 3502.0084 C 1250.1688 3539.7565 1247.3034 3583.7417 1247.9342 3630.2177 C 1225.1768 3999.3193 1205.219 4824.9815 1210.0037 5513.9786 C 1213.8593 6207.9899 1256.6124 7342.463 1270.5168 7760.6115 C 1265.4374 7905.977 1295.75 8090.6229 1381.001 8184.9784 C 1477.001 8290.9784 1549.9799 8265.0131 1683.9799 8166.0131 C 1817.9799 8068.0131 1905.0185 7891.0028 1941.0185 7785.0028 C 1968.9616 7703.8776 1981.3631 7639.0902 1979.0006 7588.3223 C 1983.8203 7250.29 1861.7881 6683.0885 1836.9938 5852.976 C 1825.5878 5471.5592 1835.3385 5021.0473 1855.0806 4607.8324 C 2206.9053 5044.7648 2647.1873 5608.0543 2884.9918 5962.9952 C 3289.9918 6565.9952 3960.9887 7476.0225 4120.9887 7801.0225 C 4124.1554 7807.4504 4128.8479 7811.479 4134.2179 7814.4067 C 4137.4056 7818.4036 4140.6294 7822.265 4143.9848 7825.9822 C 4239.9848 7932.9822 4312.9972 7906.0169 4447.9972 7807.0169 C 4580.9972 7710.0169 4667.9841 7532.9885 4704.9841 7426.9885 C 4714.1489 7400.0916 4721.5832 7375.0635 4727.4117 7351.6442 C 4728.6937 7347.7931 4730.147 7344.0337 4730.9773 7340.017 C 4731.8758 7335.472 4732.6243 7329.384 4733.5095 7324.7208 C 4736.4489 7310.3595 4738.6802 7296.71 4740.2274 7283.7414 C 4801.467 6925.2857 4829.8657 6267.0963 4846.9909 5368.9746 C 4862.9909 4424.9746 4892.9885 3500.024 4886.9885 3205.024 C 4886.8736 3199.3743 4886.0143 3194.3628 4885.3865 3189.1593 C 4879.1687 3083.4609 4807.9422 3039.7273 4675.9936 3038.9876 z M 8518.9632 3038.9876 C 8505.8972 3038.9144 8492.2337 3039.2711 8477.9837 3040.0211 C 8250.9837 3052.0211 8048.0035 3130.0246 8027.0035 3279.0246 C 8019.5349 3327.7332 8017.0909 3386.5835 8020.5956 3447.6965 C 8019.8212 3454.8655 8019.5285 3461.9836 8019.9755 3468.9872 C 8036.9755 3703.9872 8186.0159 4354.002 8163.0159 5470.002 C 8155.5293 5834.2401 8134.7454 6125.5279 8109.6341 6366.9498 C 7842.528 5999.067 7521.6748 5561.8922 7236.9742 5160.9769 C 6682.4179 4382.4273 6138.6058 3684.1971 5881.088 3342.845 C 5848.388 3278.6928 5769.5865 3256.0404 5647.9756 3263.0049 C 5421.9756 3275.0049 5217.9954 3352.0084 5196.9954 3502.0084 C 5191.1685 3539.7565 5188.3031 3583.7417 5188.9339 3630.2177 C 5166.1765 3999.3193 5146.2187 4824.9815 5151.0034 5513.9786 C 5154.8182 6200.6522 5122.7396 7358.9238 5130.1261 7789.912 C 5129.6575 7811.2826 5129.8981 7833.3593 5131.0046 7855.8512 C 5131.0059 7855.8918 5131.0033 7855.9656 5131.0046 7856.0062 C 5131.0046 7856.0245 5131.0046 7856.0396 5131.0046 7856.0579 C 5137.3532 7984.5495 5170.3805 8124.8258 5241.0237 8203.0134 C 5337.0237 8309.0134 5410.0026 8282.9965 5544.0026 8183.9965 C 5678.0026 8085.9965 5764.9895 7908.9862 5800.9895 7802.9862 C 5831.26 7715.1042 5843.3311 7646.4217 5838.0932 7593.955 C 5842.8884 7253.4829 5802.4503 6671.7888 5777.9935 5852.976 C 5766.5875 5471.5592 5776.3382 5021.0473 5796.0803 4607.8324 C 6147.905 5044.7648 6588.1871 5608.0543 6825.9916 5962.9952 C 7230.9916 6565.9952 7901.9885 7476.0225 8061.9885 7801.0225 C 8065.1551 7807.4504 8069.8476 7811.479 8075.2176 7814.4067 C 8078.4053 7818.4036 8081.6291 7822.265 8084.9845 7825.9822 C 8180.9845 7932.9822 8253.9969 7906.0169 8388.9969 7807.0169 C 8521.9969 7710.0169 8608.9838 7532.9885 8645.9838 7426.9885 C 8655.1487 7400.0916 8662.583 7375.0635 8668.4114 7351.6442 C 8669.6934 7347.7923 8671.1467 7344.0337 8671.9771 7340.017 C 8672.8755 7335.472 8673.624 7329.384 8674.5092 7324.7208 C 8677.4486 7310.3595 8679.6799 7296.71 8681.2271 7283.7414 C 8742.4667 6925.2857 8770.8655 6267.0963 8787.9907 5368.9746 C 8803.9907 4425.9746 8761.0097 3463.9944 8730.0097 3180.9944 C 8728.6118 3168.5005 8725.4965 3157.6256 8721.6898 3147.4564 C 8700.4354 3071.8357 8631.9785 3039.6211 8518.9632 3038.9876 z " />
   
  
</svg>
