<?xml version="1.0" encoding="UTF-8" standalone="no"?>
<svg
   version="1.2"
   width="100mm"
   height="100mm"
   viewBox="0 0 10000 10000"
   preserveAspectRatio="xMidYMid"
   fill-rule="evenodd"
   stroke-width="28.222"
   stroke-linejoin="round"
   xml:space="preserve"
   id="svg33"
   sodipodi:docname="gobo-caps-E00C.svg"
   inkscape:version="1.4 (86a8ad7, 2024-10-11)"
   xmlns:inkscape="http://www.inkscape.org/namespaces/inkscape"
   xmlns:sodipodi="http://sodipodi.sourceforge.net/DTD/sodipodi-0.dtd"
   xmlns="http://www.w3.org/2000/svg"
   xmlns:svg="http://www.w3.org/2000/svg"
   xmlns:ooo="http://xml.openoffice.org/svg/export"><sodipodi:namedview
   id="namedview33"
   pagecolor="#ffffff"
   bordercolor="#000000"
   borderopacity="0.25"
   inkscape:showpageshadow="2"
   inkscape:pageopacity="0.0"
   inkscape:pagecheckerboard="0"
   inkscape:deskcolor="#d1d1d1"
   inkscape:document-units="mm"
   showgrid="false"
   inkscape:zoom="3.0876875"
   inkscape:cx="188.81444"
   inkscape:cy="188.97638"
   inkscape:window-width="2560"
   inkscape:window-height="1369"
   inkscape:window-x="-8"
   inkscape:window-y="-8"
   inkscape:window-maximized="1"
   inkscape:current-layer="svg33" />
 <defs
   class="ClipPathGroup"
   id="defs2">
  
  <clipPath
   id="presentation_clip_path_shrink"
   clipPathUnits="userSpaceOnUse">
   <rect
   x="10"
   y="10"
   width="9980"
   height="9980"
   id="rect2" />
  </clipPath>
 
  
 
   
  
    
   
     
    
      
      
      
      
      
      
      
      
      
      
      
      
      
      
      
      
      
      
     
       
      
       
      
       
      
       
      
       
      
       
      
       
      
       
      
       
      
       
      
       
      
       
      
       
      
       
      
       
      
       
      
       
      
       
      
        
        
       
        
        
       
        
        
       
        
        
       
        
        
       
        
        
       
        
        
       
        
        
       
        
        
       
        
        
       
        
        
       
        
        
       
        
        
       
        
        
       
        
        
       
        
        
       
        
        
       
        
        
       </defs>
 <defs
   class="TextShapeIndex"
   id="defs3">
  <g
   ooo:slide="id1"
   ooo:id-list="id3 id4 id5 id6 id7 id8 id9 id10 id11 id12 id13 id14 id15 id16 id17 id18 id19 id20"
   id="g2" />
 </defs>
 <defs
   class="EmbeddedBulletChars"
   id="defs12">
  <g
   id="bullet-char-template-57356"
   transform="scale(0.00048828125,-0.00048828125)">
   <path
   d="M 580,1141 L 1163,571 580,0 -4,571 580,1141 Z"
   id="path3" />
  </g>
  <g
   id="bullet-char-template-57354"
   transform="scale(0.00048828125,-0.00048828125)">
   <path
   d="M 8,1128 L 1137,1128 1137,0 8,0 8,1128 Z"
   id="path4" />
  </g>
  <g
   id="bullet-char-template-10146"
   transform="scale(0.00048828125,-0.00048828125)">
   <path
   d="M 174,0 L 602,739 174,1481 1456,739 174,0 Z M 1358,739 L 309,1346 659,739 1358,739 Z"
   id="path5" />
  </g>
  <g
   id="bullet-char-template-10132"
   transform="scale(0.00048828125,-0.00048828125)">
   <path
   d="M 2015,739 L 1276,0 717,0 1260,543 174,543 174,936 1260,936 717,1481 1274,1481 2015,739 Z"
   id="path6" />
  </g>
  <g
   id="bullet-char-template-10007"
   transform="scale(0.00048828125,-0.00048828125)">
   <path
   d="M 0,-2 C -7,14 -16,27 -25,37 L 356,567 C 262,823 215,952 215,954 215,979 228,992 255,992 264,992 276,990 289,987 310,991 331,999 354,1012 L 381,999 492,748 772,1049 836,1024 860,1049 C 881,1039 901,1025 922,1006 886,937 835,863 770,784 769,783 710,716 594,584 L 774,223 C 774,196 753,168 711,139 L 727,119 C 717,90 699,76 672,76 641,76 570,178 457,381 L 164,-76 C 142,-110 111,-127 72,-127 30,-127 9,-110 8,-76 1,-67 -2,-52 -2,-32 -2,-23 -1,-13 0,-2 Z"
   id="path7" />
  </g>
  <g
   id="bullet-char-template-10004"
   transform="scale(0.00048828125,-0.00048828125)">
   <path
   d="M 285,-33 C 182,-33 111,30 74,156 52,228 41,333 41,471 41,549 55,616 82,672 116,743 169,778 240,778 293,778 328,747 346,684 L 369,508 C 377,444 397,411 428,410 L 1163,1116 C 1174,1127 1196,1133 1229,1133 1271,1133 1292,1118 1292,1087 L 1292,965 C 1292,929 1282,901 1262,881 L 442,47 C 390,-6 338,-33 285,-33 Z"
   id="path8" />
  </g>
  <g
   id="bullet-char-template-9679"
   transform="scale(0.00048828125,-0.00048828125)">
   <path
   d="M 813,0 C 632,0 489,54 383,161 276,268 223,411 223,592 223,773 276,916 383,1023 489,1130 632,1184 813,1184 992,1184 1136,1130 1245,1023 1353,916 1407,772 1407,592 1407,412 1353,268 1245,161 1136,54 992,0 813,0 Z"
   id="path9" />
  </g>
  <g
   id="bullet-char-template-8226"
   transform="scale(0.00048828125,-0.00048828125)">
   <path
   d="M 346,457 C 273,457 209,483 155,535 101,586 74,649 74,723 74,796 101,859 155,911 209,963 273,989 346,989 419,989 480,963 531,910 582,859 608,796 608,723 608,648 583,586 532,535 482,483 420,457 346,457 Z"
   id="path10" />
  </g>
  <g
   id="bullet-char-template-8211"
   transform="scale(0.00048828125,-0.00048828125)">
   <path
   d="M -4,459 L 1135,459 1135,606 -4,606 -4,459 Z"
   id="path11" />
  </g>
  <g
   id="bullet-char-template-61548"
   transform="scale(0.00048828125,-0.00048828125)">
   <path
   d="M 173,740 C 173,903 231,1043 346,1159 462,1274 601,1332 765,1332 928,1332 1067,1274 1183,1159 1299,1043 1357,903 1357,740 1357,577 1299,437 1183,322 1067,206 928,148 765,148 601,148 462,206 346,322 231,437 173,577 173,740 Z"
   id="path12" />
  </g>
 </defs>
 
 <path
   id="path13"
   d="M 4242.9968 3038.9876 C 4229.9238 3038.9141 4216.2674 3039.2711 4202.0174 3040.0211 C 3986.6783 3052.4079 3791.4067 3123.8377 3756.1531 3259.4393 C 3587.5324 3604.7938 3228.554 4461.7576 2959.9743 5090.0252 C 2867.7285 5306.5738 2777.9381 5530.6742 2693.5307 5749.4165 C 2644.3864 5562.415 2598.8304 5388.2787 2537.0027 5156.016 C 2347.0027 4447.016 2088.0022 3653.0016 1996.0022 3360.0016 C 1992.5133 3348.9347 1988.0096 3339.3583 1982.9797 3330.4944 C 1955.0116 3255.1649 1873.7018 3228.117 1742.9944 3234.9963 C 1554.7535 3245.8243 1381.8617 3301.8194 1317.1806 3406.3037 C 1314.8918 3408.5869 1313.1692 3411.1597 1312.0129 3414.0035 C 1311.5176 3415.2185 1310.7068 3417.3666 1310.2043 3418.6027 C 1304.5871 3429.4266 1300.1065 3440.7528 1296.8201 3452.5541 C 1158.1493 3799.3368 806.86086 4764.5879 623.99292 5378.0179 C 437.0451 6006.4808 137.13565 7325.7584 38.395589 7719.1153 C 34.552535 7729.9752 31.68029 7741.2634 30.024007 7753.0151 C 7.0240069 7903.0151 31.015136 8148.9763 133.01514 8261.9763 C 229.01514 8367.9763 301.97591 8342.011 436.97591 8243.011 C 569.97591 8146.011 657.01448 7967.9825 694.01448 7862.9825 C 713.75227 7805.0564 725.62318 7755.4228 729.98128 7713.2242 C 787.99883 7417.9508 906.68044 6444.5895 1142.9793 5652.9882 C 1262.2985 5246.9996 1416.8174 4842.2017 1563.7805 4487.1163 C 1672.6869 4804.2905 1804.2451 5211.7252 1955.0228 5715.9818 C 2237.9948 6663.609 2199.2959 6870.6762 2283.3748 7192.0157 C 2298.886 7287.967 2330.2471 7379.6517 2382.0251 7437.0137 C 2479.0251 7543.0137 2550.9859 7516.9968 2685.9859 7417.9968 C 2818.9859 7320.9968 2907.0245 7143.02 2943.0245 7038.02 C 2945.4926 7030.7765 2947.7756 7023.7165 2950.0008 7016.7293 C 2951.6721 7012.8207 2953.5861 7009.1425 2955.0134 7004.9987 C 3045.0134 6734.9987 3121.9869 6206.9891 3431.9869 5427.9891 C 3597.8928 5012.154 3791.1757 4604.2145 3965.7011 4257.9313 C 4048.3454 4554.2645 4140.7789 4921.3371 4219.0189 5356.0038 C 4383.9022 6270.0936 4351.9955 6889.1529 4355.7548 7301.7765 C 4349.5522 7448.4176 4379.3657 7636.2752 4464.9987 7731.9828 C 4561.9987 7837.9828 4634.0112 7812.0175 4769.0112 7713.0175 C 4903.0112 7615.0175 4989.9981 7438.0072 5025.9981 7332.0072 C 5048.9872 7265.5119 5061.5202 7209.8554 5063.9286 7163.9038 C 5065.3388 7154.557 5066.0948 7144.968 5065.9956 7135.0166 C 5060.9956 6667.0166 4963.0257 5809.0227 4828.0257 4962.0227 C 4693.0257 4116.0227 4600.0126 3700.0193 4450.0126 3154.0193 C 4446.5446 3141.3634 4441.4921 3130.5693 4435.7499 3120.688 C 4406.6221 3064.0798 4341.6576 3039.5422 4242.9968 3038.9876 z M 8978.9867 3038.9876 C 8965.9137 3038.9141 8952.2573 3039.2711 8938.0073 3040.0211 C 8722.6683 3052.4079 8527.3967 3123.8377 8492.1431 3259.4393 C 8323.5224 3604.7938 7964.5956 4461.7576 7696.016 5090.0252 C 7603.7702 5306.5738 7513.9281 5530.6742 7429.5206 5749.4165 C 7380.3764 5562.415 7334.8204 5388.2787 7272.9927 5156.016 C 7082.9927 4447.016 6823.9921 3653.0016 6731.9921 3360.0016 C 6728.5167 3348.9774 6724.0262 3339.4357 6719.0214 3330.5977 C 6691.0869 3255.1949 6609.7475 3228.114 6478.9843 3234.9963 C 6290.7434 3245.8243 6117.8517 3301.8194 6053.1705 3406.3037 C 6050.8818 3408.5869 6049.1591 3411.1597 6048.0029 3414.0035 C 6047.529 3415.1698 6046.778 3417.2616 6046.2976 3418.4476 C 6040.3951 3429.7934 6035.7319 3441.6837 6032.3966 3454.1044 C 5893.6843 3804.0009 5548.101 4786.4143 5435.017 5404.993 C 5321.7855 6024.3796 5141.3825 7288.0252 5091.7305 7730.9492 C 5091.5077 7732.3023 5091.1994 7733.6149 5091.007 7734.98 C 5068.007 7884.98 5091.9982 8130.9929 5193.9982 8243.9929 C 5289.9982 8349.9929 5363.0106 8323.9759 5498.0106 8224.9759 C 5631.0106 8127.9759 5717.9975 7949.9991 5754.9975 7844.9991 C 5781.5146 7767.1772 5793.9046 7704.3169 5792.773 7654.4164 C 5819.0957 7264.9516 5827.5245 6476.5575 5970.0231 5675.0024 C 6041.166 5269.1876 6171.0485 4862.1833 6305.7132 4504.7896 C 6413.503 4819.5454 6542.8496 5220.4693 6691.0127 5715.9818 C 6973.8812 6663.2622 6935.3547 6870.5156 7019.3131 7191.654 C 7034.8038 7287.7362 7066.1722 7379.5799 7118.0151 7437.0137 C 7215.0151 7543.0137 7286.9759 7516.9968 7421.9759 7417.9968 C 7554.9759 7320.9968 7643.0144 7143.02 7679.0144 7038.02 C 7681.4826 7030.7765 7683.7655 7023.7165 7685.9907 7016.7293 C 7687.662 7012.8207 7689.576 7009.1425 7691.0034 7004.9987 C 7781.0034 6734.9987 7857.9768 6206.9891 8167.9768 5427.9891 C 8330.9035 5019.6212 8520.3786 4618.5224 8692.4409 4276.2247 C 8764.8194 4549.7909 8852.597 4898.5573 8955.0089 5355.0219 C 9175.6044 6341.373 9213.3837 7020.7141 9273.2324 7415.2062 C 9283.2474 7533.85 9316.1153 7656.6078 9379.9959 7728.0037 C 9476.9959 7834.0037 9549.0083 7807.9868 9684.0083 7708.9868 C 9818.0083 7610.9868 9904.9952 7433.9764 9940.9952 7327.9764 C 9973.7587 7233.2089 9985.2099 7160.5229 9976.4452 7106.5429 C 9976.2193 7104.6821 9976.2479 7102.8829 9975.9801 7101.0135 C 9924.9801 6744.0135 9772.0046 5841.9793 9576.0046 4952.9793 C 9380.0046 4067.9793 9336.0025 3700.0193 9186.0025 3154.0193 C 9182.5142 3141.289 9177.4252 3130.4564 9171.6365 3120.533 C 9142.4678 3064.0408 9077.5527 3039.5417 8978.9867 3038.9876 z " />
   
  
</svg>
