<?xml version="1.0" encoding="UTF-8" standalone="no"?>
<svg
   version="1.2"
   width="100mm"
   height="100mm"
   viewBox="0 0 10000 10000"
   preserveAspectRatio="xMidYMid"
   fill-rule="evenodd"
   stroke-width="28.222"
   stroke-linejoin="round"
   xml:space="preserve"
   id="svg32"
   sodipodi:docname="gobo-caps-E004.svg"
   inkscape:version="1.4 (86a8ad7, 2024-10-11)"
   xmlns:inkscape="http://www.inkscape.org/namespaces/inkscape"
   xmlns:sodipodi="http://sodipodi.sourceforge.net/DTD/sodipodi-0.dtd"
   xmlns="http://www.w3.org/2000/svg"
   xmlns:svg="http://www.w3.org/2000/svg"
   xmlns:ooo="http://xml.openoffice.org/svg/export"><sodipodi:namedview
   id="namedview32"
   pagecolor="#ffffff"
   bordercolor="#000000"
   borderopacity="0.25"
   inkscape:showpageshadow="2"
   inkscape:pageopacity="0.0"
   inkscape:pagecheckerboard="0"
   inkscape:deskcolor="#d1d1d1"
   inkscape:document-units="mm"
   showgrid="false"
   inkscape:zoom="3.0876875"
   inkscape:cx="188.81444"
   inkscape:cy="188.97638"
   inkscape:window-width="2560"
   inkscape:window-height="1369"
   inkscape:window-x="-8"
   inkscape:window-y="-8"
   inkscape:window-maximized="1"
   inkscape:current-layer="svg32" />
 <defs
   class="ClipPathGroup"
   id="defs2">
  
  <clipPath
   id="presentation_clip_path_shrink"
   clipPathUnits="userSpaceOnUse">
   <rect
   x="10"
   y="10"
   width="9980"
   height="9980"
   id="rect2" />
  </clipPath>
 
  
 
   
  
    
   
     
    
      
      
      
      
      
      
      
      
      
      
      
      
      
      
      
      
      
     
       
      
       
      
       
      
       
      
       
      
       
      
       
      
       
      
       
      
       
      
       
      
       
      
       
      
       
      
       
      
       
      
       
      
        
        
       
        
        
       
        
        
       
        
        
       
        
        
       
        
        
       
        
        
       
        
        
       
        
        
       
        
        
       
        
        
       
        
        
       
        
        
       
        
        
       
        
        
       
        
        
       
        
        
       </defs>
 <defs
   class="TextShapeIndex"
   id="defs3">
  <g
   ooo:slide="id1"
   ooo:id-list="id3 id4 id5 id6 id7 id8 id9 id10 id11 id12 id13 id14 id15 id16 id17 id18 id19"
   id="g2" />
 </defs>
 <defs
   class="EmbeddedBulletChars"
   id="defs12">
  <g
   id="bullet-char-template-57356"
   transform="scale(0.00048828125,-0.00048828125)">
   <path
   d="M 580,1141 L 1163,571 580,0 -4,571 580,1141 Z"
   id="path3" />
  </g>
  <g
   id="bullet-char-template-57354"
   transform="scale(0.00048828125,-0.00048828125)">
   <path
   d="M 8,1128 L 1137,1128 1137,0 8,0 8,1128 Z"
   id="path4" />
  </g>
  <g
   id="bullet-char-template-10146"
   transform="scale(0.00048828125,-0.00048828125)">
   <path
   d="M 174,0 L 602,739 174,1481 1456,739 174,0 Z M 1358,739 L 309,1346 659,739 1358,739 Z"
   id="path5" />
  </g>
  <g
   id="bullet-char-template-10132"
   transform="scale(0.00048828125,-0.00048828125)">
   <path
   d="M 2015,739 L 1276,0 717,0 1260,543 174,543 174,936 1260,936 717,1481 1274,1481 2015,739 Z"
   id="path6" />
  </g>
  <g
   id="bullet-char-template-10007"
   transform="scale(0.00048828125,-0.00048828125)">
   <path
   d="M 0,-2 C -7,14 -16,27 -25,37 L 356,567 C 262,823 215,952 215,954 215,979 228,992 255,992 264,992 276,990 289,987 310,991 331,999 354,1012 L 381,999 492,748 772,1049 836,1024 860,1049 C 881,1039 901,1025 922,1006 886,937 835,863 770,784 769,783 710,716 594,584 L 774,223 C 774,196 753,168 711,139 L 727,119 C 717,90 699,76 672,76 641,76 570,178 457,381 L 164,-76 C 142,-110 111,-127 72,-127 30,-127 9,-110 8,-76 1,-67 -2,-52 -2,-32 -2,-23 -1,-13 0,-2 Z"
   id="path7" />
  </g>
  <g
   id="bullet-char-template-10004"
   transform="scale(0.00048828125,-0.00048828125)">
   <path
   d="M 285,-33 C 182,-33 111,30 74,156 52,228 41,333 41,471 41,549 55,616 82,672 116,743 169,778 240,778 293,778 328,747 346,684 L 369,508 C 377,444 397,411 428,410 L 1163,1116 C 1174,1127 1196,1133 1229,1133 1271,1133 1292,1118 1292,1087 L 1292,965 C 1292,929 1282,901 1262,881 L 442,47 C 390,-6 338,-33 285,-33 Z"
   id="path8" />
  </g>
  <g
   id="bullet-char-template-9679"
   transform="scale(0.00048828125,-0.00048828125)">
   <path
   d="M 813,0 C 632,0 489,54 383,161 276,268 223,411 223,592 223,773 276,916 383,1023 489,1130 632,1184 813,1184 992,1184 1136,1130 1245,1023 1353,916 1407,772 1407,592 1407,412 1353,268 1245,161 1136,54 992,0 813,0 Z"
   id="path9" />
  </g>
  <g
   id="bullet-char-template-8226"
   transform="scale(0.00048828125,-0.00048828125)">
   <path
   d="M 346,457 C 273,457 209,483 155,535 101,586 74,649 74,723 74,796 101,859 155,911 209,963 273,989 346,989 419,989 480,963 531,910 582,859 608,796 608,723 608,648 583,586 532,535 482,483 420,457 346,457 Z"
   id="path10" />
  </g>
  <g
   id="bullet-char-template-8211"
   transform="scale(0.00048828125,-0.00048828125)">
   <path
   d="M -4,459 L 1135,459 1135,606 -4,606 -4,459 Z"
   id="path11" />
  </g>
  <g
   id="bullet-char-template-61548"
   transform="scale(0.00048828125,-0.00048828125)">
   <path
   d="M 173,740 C 173,903 231,1043 346,1159 462,1274 601,1332 765,1332 928,1332 1067,1274 1183,1159 1299,1043 1357,903 1357,740 1357,577 1299,437 1183,322 1067,206 928,148 765,148 601,148 462,206 346,322 231,437 173,577 173,740 Z"
   id="path12" />
  </g>
 </defs>
 
 <path
   id="path13"
   d="M 8940.0227 2998.99 C 8713.0227 2998.99 7330.025 3093.9972 6659.025 3177.9972 C 5990.025 3259.9972 5899.9912 3276.0114 5350.9912 3368.0114 C 5348.2767 3368.4691 5345.7571 3369.6584 5343.1364 3370.4919 C 5182.2911 3403.0711 5056.2552 3475.6779 5040.0024 3590.9953 C 5039.299 3595.791 5038.7523 3600.9452 5038.1421 3605.9297 C 5037.8407 3607.9671 5037.2044 3609.9144 5037.0052 3611.9759 C 4922.0052 4777.9759 4944.0245 6601.0216 5016.0245 7223.0216 C 5088.0245 7845.0216 5308.9882 8267.0066 6287.9882 8061.0066 C 7264.9882 7857.0066 8522.0204 7793.0028 8681.0204 7785.0028 C 8688.1069 7784.7354 8695.6026 7782.305 8703.293 7778.905 C 8744.7259 7767.678 8790.7363 7738.9816 8847.987 7696.9978 C 8980.987 7599.9978 9068.0256 7422.021 9105.0256 7317.021 C 9197.0256 7047.021 9120.0153 6955.9984 8892.0153 6967.9984 C 8863.4222 6969.6359 8835.1952 6972.3239 8807.6794 6976.0082 C 8465.125 7006.8353 7675.5547 7122.4134 7246.9995 7190.9822 C 6796.9995 7261.9822 6271.985 7429.0084 5917.985 7312.0084 C 5656.985 7226.0084 5607.0144 7135.0104 5606.0144 6264.0104 C 5605.9183 6180.4789 5604.4966 6095.7554 5603.6889 6011.8811 C 5857.5363 5922.3547 6302.3411 5790.2428 6686.0001 5734.0169 C 7149.0001 5667.0169 8150.0025 5624.991 8383.0025 5649.991 C 8387.5062 5650.2193 8392.0499 5649.5513 8396.5934 5649.0608 C 8449.3709 5651.7583 8506.2563 5619.0155 8584.0238 5561.986 C 8718.0238 5464.986 8805.0107 5286.9757 8841.0107 5180.9757 C 8934.0107 4911.9757 8856.0004 4820.9866 8628.0004 4832.9866 C 8627.1325 4833.0365 8626.2838 4833.1415 8625.4166 4833.1933 C 8624.2255 4833.2161 8623.222 4832.9226 8622.006 4832.9866 C 8164.006 4858.9866 6940.02 4938.9858 6403.02 5057.9858 C 5968.3797 5154.3027 5847.0639 5176.1404 5598.6763 5242.9874 C 5599.9055 4863.6836 5612.2458 4476.6112 5659.2411 4075.6685 C 5940.0439 4010.2094 6268.8566 3942.9312 6629.9829 3903.9994 C 7167.9829 3845.9994 8273.0189 3793.0098 8664.0189 3818.0098 C 8665.4435 3818.0758 8667.0953 3817.4021 8668.6181 3817.183 C 8719.1649 3816.209 8774.3348 3784.0164 8847.987 3730.0049 C 8980.987 3632.0049 9067.992 3454.9945 9103.992 3348.9945 C 9188.6503 3103.2123 9131.574 3005.7738 8949.4278 3000.0753 C 8946.277 2999.722 8943.4529 2998.975 8940.0227 2998.99 z M 4613.8269 3040.7963 C 4600.8088 3040.778 4587.19 3041.1723 4573.0025 3041.9848 C 4567.6238 3042.2704 4562.3344 3042.7624 4556.9828 3043.1217 C 4260.3071 3048.9146 3358.9747 3098.1917 2728.9807 3177.9972 C 2126.3701 3251.8598 1741.5368 3314.9464 1272.9455 3403.2031 C 1064.2383 3423.0298 883.66576 3500.297 863.97826 3639.9845 C 841.97826 3788.9845 865.02107 4034.9974 967.02107 4148.9974 C 1018.3827 4205.7091 1063.1389 4224.6022 1114.3506 4214.7815 C 1115.7633 4215.3902 1117.1738 4215.9167 1118.588 4216.125 C 1119.4697 4220.7529 1120.2125 4225.4335 1121.1719 4230.026 C 1160.4783 4615.7686 1234.8724 4706.4942 1221.9926 5509.9996 C 1210.9926 6319.9996 1060.0085 6571.0142 962.00846 7175.0142 C 864.00846 7781.0142 1102.0099 8310.0014 2081.0099 8104.0014 C 3051.2735 7900.4149 4163.1252 7832.326 4334.2057 7824.5353 C 4389.043 7830.6502 4447.7712 7797.5261 4528.9742 7737.9772 C 4661.9742 7640.9772 4749.0127 7463.0004 4786.0127 7358.0004 C 4878.0127 7088.0004 4801.0025 6996.9778 4573.0025 7008.9778 C 4530.0079 7011.4401 4487.8862 7016.2871 4447.6871 7023.3955 C 4118.2458 7052.8904 3591.4473 7117.6778 3188.0224 7178.0114 C 2744.0224 7243.0114 2065.0067 7472.0032 1711.0067 7355.0032 C 1450.0067 7268.0032 1574.979 7185.0147 1740.979 6278.0147 C 1759.1843 6177.8305 1774.2809 6075.7816 1787.3844 5973.1237 C 2048.0762 5887.5993 2425.1118 5782.5102 2756.0075 5734.0169 C 3219.0075 5667.0169 3830.0078 5665.9886 4063.0078 5689.9886 C 4066.6883 5690.3644 4070.4164 5689.8812 4074.1182 5689.8335 C 4127.8771 5694.1848 4185.5402 5661.2956 4265.011 5603.0171 C 4399.011 5506.0171 4485.9978 5328.0068 4521.9978 5222.0068 C 4614.9978 4953.0068 4536.9876 4862.0177 4308.9876 4874.0177 C 4291.2218 4875.0396 4273.682 4876.5417 4256.2776 4878.3585 C 3784.6023 4904.444 2983.4878 4944.6445 2472.9756 5057.9858 C 2147.794 5129.441 2002.638 5158.5133 1846.1405 5196.6337 C 1859.6774 4762.6915 1844.7467 4357.7679 1826.6068 4052.6725 C 2113.871 3991.3674 2427.2199 3932.931 2699.9902 3903.0175 C 3237.9902 3846.0175 4139.0215 3849.0228 4347.0215 3860.0228 C 4350.6195 3860.1893 4354.5655 3859.3098 4358.752 3857.6973 C 4406.8399 3853.2858 4459.7366 3821.7585 4528.9742 3770.9843 C 4661.9742 3672.9843 4748.9792 3496.0256 4784.9792 3390.0256 C 4872.1667 3136.9006 4809.0979 3041.0709 4613.8269 3040.7963 z " />
   
  
</svg>
