<?xml version="1.0" encoding="UTF-8" standalone="no"?>
<svg
   version="1.2"
   width="100mm"
   height="100mm"
   viewBox="0 0 10000 10000"
   preserveAspectRatio="xMidYMid"
   fill-rule="evenodd"
   stroke-width="28.222"
   stroke-linejoin="round"
   xml:space="preserve"
   id="svg27"
   sodipodi:docname="gobo-caps-E014.svg"
   inkscape:version="1.4 (86a8ad7, 2024-10-11)"
   xmlns:inkscape="http://www.inkscape.org/namespaces/inkscape"
   xmlns:sodipodi="http://sodipodi.sourceforge.net/DTD/sodipodi-0.dtd"
   xmlns="http://www.w3.org/2000/svg"
   xmlns:svg="http://www.w3.org/2000/svg"
   xmlns:ooo="http://xml.openoffice.org/svg/export"><sodipodi:namedview
   id="namedview27"
   pagecolor="#ffffff"
   bordercolor="#000000"
   borderopacity="0.25"
   inkscape:showpageshadow="2"
   inkscape:pageopacity="0.0"
   inkscape:pagecheckerboard="0"
   inkscape:deskcolor="#d1d1d1"
   inkscape:document-units="mm"
   showgrid="false"
   inkscape:zoom="3.0876875"
   inkscape:cx="188.81444"
   inkscape:cy="188.97638"
   inkscape:window-width="2560"
   inkscape:window-height="1369"
   inkscape:window-x="-8"
   inkscape:window-y="-8"
   inkscape:window-maximized="1"
   inkscape:current-layer="svg27" />
 <defs
   class="ClipPathGroup"
   id="defs2">
  
  <clipPath
   id="presentation_clip_path_shrink"
   clipPathUnits="userSpaceOnUse">
   <rect
   x="10"
   y="10"
   width="9980"
   height="9980"
   id="rect2" />
  </clipPath>
 
  
 
   
  
    
   
     
    
      
      
      
      
      
      
      
      
      
      
      
      
     
       
      
       
      
       
      
       
      
       
      
       
      
       
      
       
      
       
      
       
      
       
      
       
      
        
        
       
        
        
       
        
        
       
        
        
       
        
        
       
        
        
       
        
        
       
        
        
       
        
        
       
        
        
       
        
        
       
        
        
       </defs>
 <defs
   class="TextShapeIndex"
   id="defs3">
  <g
   ooo:slide="id1"
   ooo:id-list="id3 id4 id5 id6 id7 id8 id9 id10 id11 id12 id13 id14"
   id="g2" />
 </defs>
 <defs
   class="EmbeddedBulletChars"
   id="defs12">
  <g
   id="bullet-char-template-57356"
   transform="scale(0.00048828125,-0.00048828125)">
   <path
   d="M 580,1141 L 1163,571 580,0 -4,571 580,1141 Z"
   id="path3" />
  </g>
  <g
   id="bullet-char-template-57354"
   transform="scale(0.00048828125,-0.00048828125)">
   <path
   d="M 8,1128 L 1137,1128 1137,0 8,0 8,1128 Z"
   id="path4" />
  </g>
  <g
   id="bullet-char-template-10146"
   transform="scale(0.00048828125,-0.00048828125)">
   <path
   d="M 174,0 L 602,739 174,1481 1456,739 174,0 Z M 1358,739 L 309,1346 659,739 1358,739 Z"
   id="path5" />
  </g>
  <g
   id="bullet-char-template-10132"
   transform="scale(0.00048828125,-0.00048828125)">
   <path
   d="M 2015,739 L 1276,0 717,0 1260,543 174,543 174,936 1260,936 717,1481 1274,1481 2015,739 Z"
   id="path6" />
  </g>
  <g
   id="bullet-char-template-10007"
   transform="scale(0.00048828125,-0.00048828125)">
   <path
   d="M 0,-2 C -7,14 -16,27 -25,37 L 356,567 C 262,823 215,952 215,954 215,979 228,992 255,992 264,992 276,990 289,987 310,991 331,999 354,1012 L 381,999 492,748 772,1049 836,1024 860,1049 C 881,1039 901,1025 922,1006 886,937 835,863 770,784 769,783 710,716 594,584 L 774,223 C 774,196 753,168 711,139 L 727,119 C 717,90 699,76 672,76 641,76 570,178 457,381 L 164,-76 C 142,-110 111,-127 72,-127 30,-127 9,-110 8,-76 1,-67 -2,-52 -2,-32 -2,-23 -1,-13 0,-2 Z"
   id="path7" />
  </g>
  <g
   id="bullet-char-template-10004"
   transform="scale(0.00048828125,-0.00048828125)">
   <path
   d="M 285,-33 C 182,-33 111,30 74,156 52,228 41,333 41,471 41,549 55,616 82,672 116,743 169,778 240,778 293,778 328,747 346,684 L 369,508 C 377,444 397,411 428,410 L 1163,1116 C 1174,1127 1196,1133 1229,1133 1271,1133 1292,1118 1292,1087 L 1292,965 C 1292,929 1282,901 1262,881 L 442,47 C 390,-6 338,-33 285,-33 Z"
   id="path8" />
  </g>
  <g
   id="bullet-char-template-9679"
   transform="scale(0.00048828125,-0.00048828125)">
   <path
   d="M 813,0 C 632,0 489,54 383,161 276,268 223,411 223,592 223,773 276,916 383,1023 489,1130 632,1184 813,1184 992,1184 1136,1130 1245,1023 1353,916 1407,772 1407,592 1407,412 1353,268 1245,161 1136,54 992,0 813,0 Z"
   id="path9" />
  </g>
  <g
   id="bullet-char-template-8226"
   transform="scale(0.00048828125,-0.00048828125)">
   <path
   d="M 346,457 C 273,457 209,483 155,535 101,586 74,649 74,723 74,796 101,859 155,911 209,963 273,989 346,989 419,989 480,963 531,910 582,859 608,796 608,723 608,648 583,586 532,535 482,483 420,457 346,457 Z"
   id="path10" />
  </g>
  <g
   id="bullet-char-template-8211"
   transform="scale(0.00048828125,-0.00048828125)">
   <path
   d="M -4,459 L 1135,459 1135,606 -4,606 -4,459 Z"
   id="path11" />
  </g>
  <g
   id="bullet-char-template-61548"
   transform="scale(0.00048828125,-0.00048828125)">
   <path
   d="M 173,740 C 173,903 231,1043 346,1159 462,1274 601,1332 765,1332 928,1332 1067,1274 1183,1159 1299,1043 1357,903 1357,740 1357,577 1299,437 1183,322 1067,206 928,148 765,148 601,148 462,206 346,322 231,437 173,577 173,740 Z"
   id="path12" />
  </g>
 </defs>
 
 <path
   id="path13"
   d="M 8437.9862 3016.9734 C 8424.9132 3016.9002 8411.2568 3017.257 8397.0068 3018.007 C 8171.0068 3031.007 7967.9749 3107.9923 7945.9749 3257.9923 C 7934.3035 3337.0391 7935.5134 3443.3262 7954.3981 3542.7811 C 7983.0421 3921.2732 8062.4199 4644.4882 8044.0051 5538.0082 C 8031.7611 6085.5581 8017.5677 6462.5742 8017.8051 6766.357 C 7998.3051 6773.4325 7979.8131 6781.3298 7962.5113 6789.9731 C 7962.3369 6790.0033 7962.1691 6789.994 7961.9946 6790.0248 C 7961.0571 6790.5908 7960.1921 6791.0618 7959.2557 6791.6267 C 7944.7267 6799.0341 7931.1044 6807.0046 7918.4313 6815.5529 C 7516.1837 7054.7991 7200.0233 7189.7102 6597.0133 7264.001 C 5970.0133 7340.001 5750.9975 6569.0144 5754.9975 5606.0144 C 5761.9009 4656.3119 5881.7634 3770.4889 5908.1148 3467.902 C 5933.0152 3299.2804 5846.8818 3241.2327 5660.9981 3251.016 C 5434.9981 3263.016 5231.0179 3341.0195 5210.0179 3490.0195 C 5203.9286 3531.2604 5201.4116 3580.0038 5202.9382 3631.2512 C 5186.1718 4056.248 5168.336 4754.6263 5134.9837 5959.0161 C 5096.9837 7260.0161 5528.0087 8170.9925 6546.0087 8038.9925 C 7369.48 7932.2162 7836.1842 7677.0828 8077.078 7538.1962 C 8079.7315 7552.8045 8082.1134 7567.2604 8084.9845 7582.0178 C 8085.3326 7582.6587 8086.0566 7583.0341 8086.4831 7583.6197 C 8103.9288 7661.7931 8132.8186 7733.7589 8175.9867 7782.0056 C 8271.9867 7888.0056 8344.9991 7861.9886 8479.9991 7762.9886 C 8613.9991 7663.9886 8700.0042 7487.9783 8736.0042 7381.9783 C 8771.5129 7278.5065 8781.9947 7201.529 8768.8704 7146.4888 C 8768.7204 7142.9479 8768.7333 7139.3761 8767.9919 7135.9985 C 8704.9919 6853.9985 8643.0007 6376.9866 8665.0007 5467.9866 C 8682.7134 4572.513 8677.0764 3487.4456 8648.3093 3182.2864 C 8648.2392 3065.5794 8576.1522 3017.7475 8437.9862 3016.9734 z M 4445.9818 3040.9513 C 4432.9088 3040.8781 4419.2524 3041.2348 4405.0024 3041.9848 C 4179.0024 3054.9848 3976.0222 3132.0219 3954.0222 3282.0219 C 3946.9223 3330.1071 3944.5779 3388.2919 3948.0277 3448.8851 C 3952.9996 3779.0863 4000.5158 4567.2719 3980.0154 5561.986 C 3966.9939 6144.3112 3951.9783 6533.3875 3954.2806 6846.8172 C 3918.8676 6860.1405 3886.9473 6876.1164 3859.661 6894.7729 C 3581.5992 7034.2733 3252.36 7194.7203 2690.0167 7264.001 C 2063.0167 7340.001 1844.0009 6569.0144 1848.0009 5606.0144 C 1854.9042 4656.3119 1974.7668 3770.4889 2001.1181 3467.902 C 2026.0185 3299.2804 1939.8852 3241.2327 1754.0015 3251.016 C 1537.9377 3262.4884 1342.1118 3334.3061 1306.9486 3470.7959 C 1301.1207 3484.5615 1297.6644 3499.2514 1296.9751 3514.9792 C 1278.9751 3925.9792 1263.9871 4659.0161 1227.9871 5959.0161 C 1189.9871 7260.0161 1621.012 8170.9925 2639.012 8038.9925 C 3641.8182 7908.9626 3852.4711 7696.0962 4022.9585 7609.4579 C 4040.4483 7686.909 4069.1724 7758.1206 4111.997 7805.9834 C 4207.997 7911.9834 4281.0095 7886.0182 4416.0095 7787.0182 C 4550.0095 7688.0182 4636.0145 7512.0078 4672.0145 7406.0078 C 4707.5339 7302.5052 4718.0231 7225.4584 4704.8807 7170.415 C 4704.7273 7166.904 4704.7377 7163.3267 4704.0022 7159.9763 C 4641.0022 6877.9763 4579.0111 6401.0162 4601.0111 5492.0162 C 4618.7157 4596.9495 4650.6192 3598.4802 4655.4781 3227.9166 C 4664.5055 3095.508 4592.3617 3041.7714 4445.9818 3040.9513 z " />
   
  
</svg>
