<?xml version="1.0" encoding="UTF-8" standalone="no"?>
<svg
   version="1.2"
   width="100mm"
   height="100mm"
   viewBox="0 0 10000 10000"
   preserveAspectRatio="xMidYMid"
   fill-rule="evenodd"
   stroke-width="28.222"
   stroke-linejoin="round"
   xml:space="preserve"
   id="svg29"
   sodipodi:docname="gobo-caps-E001.svg"
   inkscape:version="1.4 (86a8ad7, 2024-10-11)"
   xmlns:inkscape="http://www.inkscape.org/namespaces/inkscape"
   xmlns:sodipodi="http://sodipodi.sourceforge.net/DTD/sodipodi-0.dtd"
   xmlns="http://www.w3.org/2000/svg"
   xmlns:svg="http://www.w3.org/2000/svg"
   xmlns:ooo="http://xml.openoffice.org/svg/export"><sodipodi:namedview
   id="namedview29"
   pagecolor="#ffffff"
   bordercolor="#000000"
   borderopacity="0.25"
   inkscape:showpageshadow="2"
   inkscape:pageopacity="0.0"
   inkscape:pagecheckerboard="0"
   inkscape:deskcolor="#d1d1d1"
   inkscape:document-units="mm"
   showgrid="false"
   inkscape:zoom="3.0876875"
   inkscape:cx="188.81444"
   inkscape:cy="188.97638"
   inkscape:window-width="2560"
   inkscape:window-height="1369"
   inkscape:window-x="-8"
   inkscape:window-y="-8"
   inkscape:window-maximized="1"
   inkscape:current-layer="svg29" />
 <defs
   class="ClipPathGroup"
   id="defs2">
  
  <clipPath
   id="presentation_clip_path_shrink"
   clipPathUnits="userSpaceOnUse">
   <rect
   x="10"
   y="10"
   width="9980"
   height="9980"
   id="rect2" />
  </clipPath>
 
  
 
   
  
    
   
     
    
      
      
      
      
      
      
      
      
      
      
      
      
      
      
     
       
      
       
      
       
      
       
      
       
      
       
      
       
      
       
      
       
      
       
      
       
      
       
      
       
      
       
      
        
        
       
        
        
       
        
        
       
        
        
       
        
        
       
        
        
       
        
        
       
        
        
       
        
        
       
        
        
       
        
        
       
        
        
       
        
        
       
        
        
       </defs>
 <defs
   class="TextShapeIndex"
   id="defs3">
  <g
   ooo:slide="id1"
   ooo:id-list="id3 id4 id5 id6 id7 id8 id9 id10 id11 id12 id13 id14 id15 id16"
   id="g2" />
 </defs>
 <defs
   class="EmbeddedBulletChars"
   id="defs12">
  <g
   id="bullet-char-template-57356"
   transform="scale(0.00048828125,-0.00048828125)">
   <path
   d="M 580,1141 L 1163,571 580,0 -4,571 580,1141 Z"
   id="path3" />
  </g>
  <g
   id="bullet-char-template-57354"
   transform="scale(0.00048828125,-0.00048828125)">
   <path
   d="M 8,1128 L 1137,1128 1137,0 8,0 8,1128 Z"
   id="path4" />
  </g>
  <g
   id="bullet-char-template-10146"
   transform="scale(0.00048828125,-0.00048828125)">
   <path
   d="M 174,0 L 602,739 174,1481 1456,739 174,0 Z M 1358,739 L 309,1346 659,739 1358,739 Z"
   id="path5" />
  </g>
  <g
   id="bullet-char-template-10132"
   transform="scale(0.00048828125,-0.00048828125)">
   <path
   d="M 2015,739 L 1276,0 717,0 1260,543 174,543 174,936 1260,936 717,1481 1274,1481 2015,739 Z"
   id="path6" />
  </g>
  <g
   id="bullet-char-template-10007"
   transform="scale(0.00048828125,-0.00048828125)">
   <path
   d="M 0,-2 C -7,14 -16,27 -25,37 L 356,567 C 262,823 215,952 215,954 215,979 228,992 255,992 264,992 276,990 289,987 310,991 331,999 354,1012 L 381,999 492,748 772,1049 836,1024 860,1049 C 881,1039 901,1025 922,1006 886,937 835,863 770,784 769,783 710,716 594,584 L 774,223 C 774,196 753,168 711,139 L 727,119 C 717,90 699,76 672,76 641,76 570,178 457,381 L 164,-76 C 142,-110 111,-127 72,-127 30,-127 9,-110 8,-76 1,-67 -2,-52 -2,-32 -2,-23 -1,-13 0,-2 Z"
   id="path7" />
  </g>
  <g
   id="bullet-char-template-10004"
   transform="scale(0.00048828125,-0.00048828125)">
   <path
   d="M 285,-33 C 182,-33 111,30 74,156 52,228 41,333 41,471 41,549 55,616 82,672 116,743 169,778 240,778 293,778 328,747 346,684 L 369,508 C 377,444 397,411 428,410 L 1163,1116 C 1174,1127 1196,1133 1229,1133 1271,1133 1292,1118 1292,1087 L 1292,965 C 1292,929 1282,901 1262,881 L 442,47 C 390,-6 338,-33 285,-33 Z"
   id="path8" />
  </g>
  <g
   id="bullet-char-template-9679"
   transform="scale(0.00048828125,-0.00048828125)">
   <path
   d="M 813,0 C 632,0 489,54 383,161 276,268 223,411 223,592 223,773 276,916 383,1023 489,1130 632,1184 813,1184 992,1184 1136,1130 1245,1023 1353,916 1407,772 1407,592 1407,412 1353,268 1245,161 1136,54 992,0 813,0 Z"
   id="path9" />
  </g>
  <g
   id="bullet-char-template-8226"
   transform="scale(0.00048828125,-0.00048828125)">
   <path
   d="M 346,457 C 273,457 209,483 155,535 101,586 74,649 74,723 74,796 101,859 155,911 209,963 273,989 346,989 419,989 480,963 531,910 582,859 608,796 608,723 608,648 583,586 532,535 482,483 420,457 346,457 Z"
   id="path10" />
  </g>
  <g
   id="bullet-char-template-8211"
   transform="scale(0.00048828125,-0.00048828125)">
   <path
   d="M -4,459 L 1135,459 1135,606 -4,606 -4,459 Z"
   id="path11" />
  </g>
  <g
   id="bullet-char-template-61548"
   transform="scale(0.00048828125,-0.00048828125)">
   <path
   d="M 173,740 C 173,903 231,1043 346,1159 462,1274 601,1332 765,1332 928,1332 1067,1274 1183,1159 1299,1043 1357,903 1357,740 1357,577 1299,437 1183,322 1067,206 928,148 765,148 601,148 462,206 346,322 231,437 173,577 173,740 Z"
   id="path12" />
  </g>
 </defs>
 
 <path
   id="path13"
   d="M 3132.2636 3125.494 C 2700.5782 3130.2991 2162.7512 3219.6004 1564.5557 3325.6885 C 1357.711 3346.0613 1179.5303 3422.366 1159.9809 3562.0048 C 1136.9809 3711.0048 1160.0237 3957.0176 1263.0237 4071.0176 C 1276.0572 4085.4088 1288.61 4097.2601 1301.0058 4106.9327 C 1315.9339 4519.0842 1308.831 4843.1296 1307.9822 5455.9977 C 1313.757 6147.0519 1226.3255 7145.0797 1195.5859 7614.9357 C 1194.4282 7627.0344 1193.5579 7639.5763 1192.9504 7652.4527 C 1192.4873 7659.8006 1191.4157 7672.9576 1190.9867 7679.9963 C 1190.8294 7682.8513 1191.4271 7685.3945 1191.9686 7687.9544 C 1191.0368 7828.8137 1222.3977 7997.8448 1301.9877 8086.018 C 1338.1227 8125.5057 1370.8198 8146.6244 1404.6171 8152.5256 C 1414.9142 8157.9662 1426.0395 8160.6549 1438.0001 8160.0187 C 3745.0001 8110.0187 4770.0155 7582.0205 4783.0155 6141.0205 C 4789.8998 5378.4579 4488.4272 4990.9377 3924.5149 4842.9602 C 4119.7016 4623.7219 4222.0162 4345.4866 4222.0162 3972.0056 C 4223.7974 3315.3181 3805.7048 3117.9979 3132.2636 3125.494 z M 7032.8523 3125.494 C 6553.3373 3130.3467 5954.8685 3221.3127 5289.0828 3328.789 C 5259.6694 3332.2177 5230.9874 3336.8037 5203.2999 3342.5866 C 5194.0769 3344.0807 5185.2627 3345.48 5176.0148 3346.9791 C 5155.9437 3349.734 5137.1626 3355.9328 5119.5324 3364.7558 C 5001.7286 3403.8001 4916.2068 3469.3394 4903.0082 3562.9866 C 4880.8126 3706.7751 4901.472 3940.8923 4995.509 4059.5455 C 5010.7208 4083.5272 5028.8272 4103.0432 5049.8726 4116.9063 C 5063.8738 4506.1957 5056.618 4828.7706 5054.9886 5416.982 C 5061.9886 6134.982 4960.0014 7214.0184 4929.0014 7656.0184 C 4928.7415 7660.7339 4929.7269 7664.9508 4931.3269 7668.9375 C 4926.8286 7813.7803 4957.4209 7996.3656 5042.0178 8089.9971 C 5078.3461 8130.1096 5111.3877 8151.2585 5145.6807 8156.763 C 5153.4577 8158.9673 5161.476 8160.4314 5170.0203 8160.0187 C 7708.0203 8110.0187 8834.0205 7582.0205 8849.0205 6141.0205 C 8856.4354 5378.3462 8524.5144 4990.8375 7904.0136 4842.9085 C 8118.8432 4623.6126 8231.3599 4345.3515 8231.0221 3972.0056 C 8233.3971 3315.3181 7773.5636 3117.9979 7032.8523 3125.494 z M 2820.1379 3826.8982 C 3215.0129 3820.7732 3505.5134 3921.01 3590.0134 4154.01 C 3753.9836 4610.5738 2705.6704 4763.3552 1942.4654 4903.1632 C 1941.0228 4903.4019 1939.6198 4903.5957 1938.1763 4903.835 C 1940.4035 4539.4712 1953.8291 4224.3953 1976.5202 3958.208 C 2282.144 3876.77 2571.8001 3830.7502 2820.1379 3826.8982 z M 6762.0678 3865.6555 C 7154.261 3870.001 7448.992 3955.9273 7576.0233 4142.021 C 7795.0074 4462.8207 6996.6489 4705.1245 6215.6929 4836.5006 C 6048.1021 4856.5209 5873.8364 4880.2721 5692.1073 4907.9174 C 5694.1822 4560.1021 5699.2608 4250.6203 5718.1522 3992.0044 C 6102.2872 3907.7047 6461.0878 3862.3206 6762.0678 3865.6555 z M 7043.9111 5519.353 C 7729.3115 5528.396 8143.7259 5762.1431 8224.9759 6349.0181 C 8347.0131 7223.7733 6914.9241 7343.3326 5644.72 7341.8774 C 5665.6392 6889.0705 5682.7623 6427.1141 5688.0249 5692.9858 C 5688.0436 5690.3787 5688.0581 5688.1996 5688.0765 5685.5961 C 6213.3725 5577.5629 6669.877 5514.4181 7043.9111 5519.353 z M 3055.8341 5527.2078 C 3742.1274 5522.4904 4151.8921 5765.3824 4165.0171 6398.0074 C 4184.3292 7286.3648 3036.194 7351.035 1911.9246 7342.6009 C 1936.2079 6889.0879 1970.0544 6428.8472 1948.9766 5692.0039 C 1948.8113 5686.8614 1948.7765 5682.1458 1948.6149 5677.0178 C 2367.6056 5584.578 2741.3906 5529.3692 3055.8341 5527.2078 z " />
   
  
</svg>
