<?xml version="1.0" encoding="UTF-8" standalone="no"?>
<svg
   version="1.2"
   width="100mm"
   height="100mm"
   viewBox="0 0 10000 10000"
   preserveAspectRatio="xMidYMid"
   fill-rule="evenodd"
   stroke-width="28.222"
   stroke-linejoin="round"
   xml:space="preserve"
   id="svg25"
   sodipodi:docname="gobo-caps-E003.svg"
   inkscape:version="1.4 (86a8ad7, 2024-10-11)"
   xmlns:inkscape="http://www.inkscape.org/namespaces/inkscape"
   xmlns:sodipodi="http://sodipodi.sourceforge.net/DTD/sodipodi-0.dtd"
   xmlns="http://www.w3.org/2000/svg"
   xmlns:svg="http://www.w3.org/2000/svg"
   xmlns:ooo="http://xml.openoffice.org/svg/export"><sodipodi:namedview
   id="namedview25"
   pagecolor="#ffffff"
   bordercolor="#000000"
   borderopacity="0.25"
   inkscape:showpageshadow="2"
   inkscape:pageopacity="0.0"
   inkscape:pagecheckerboard="0"
   inkscape:deskcolor="#d1d1d1"
   inkscape:document-units="mm"
   showgrid="false"
   inkscape:zoom="3.0876875"
   inkscape:cx="188.81444"
   inkscape:cy="188.97638"
   inkscape:window-width="2560"
   inkscape:window-height="1369"
   inkscape:window-x="-8"
   inkscape:window-y="-8"
   inkscape:window-maximized="1"
   inkscape:current-layer="svg25" />
 <defs
   class="ClipPathGroup"
   id="defs2">
  
  <clipPath
   id="presentation_clip_path_shrink"
   clipPathUnits="userSpaceOnUse">
   <rect
   x="10"
   y="10"
   width="9980"
   height="9980"
   id="rect2" />
  </clipPath>
 
  
 
   
  
    
   
     
    
      
      
      
      
      
      
      
      
      
      
     
       
      
       
      
       
      
       
      
       
      
       
      
       
      
       
      
       
      
       
      
        
        
       
        
        
       
        
        
       
        
        
       
        
        
       
        
        
       
        
        
       
        
        
       
        
        
       
        
        
       </defs>
 <defs
   class="TextShapeIndex"
   id="defs3">
  <g
   ooo:slide="id1"
   ooo:id-list="id3 id4 id5 id6 id7 id8 id9 id10 id11 id12"
   id="g2" />
 </defs>
 <defs
   class="EmbeddedBulletChars"
   id="defs12">
  <g
   id="bullet-char-template-57356"
   transform="scale(0.00048828125,-0.00048828125)">
   <path
   d="M 580,1141 L 1163,571 580,0 -4,571 580,1141 Z"
   id="path3" />
  </g>
  <g
   id="bullet-char-template-57354"
   transform="scale(0.00048828125,-0.00048828125)">
   <path
   d="M 8,1128 L 1137,1128 1137,0 8,0 8,1128 Z"
   id="path4" />
  </g>
  <g
   id="bullet-char-template-10146"
   transform="scale(0.00048828125,-0.00048828125)">
   <path
   d="M 174,0 L 602,739 174,1481 1456,739 174,0 Z M 1358,739 L 309,1346 659,739 1358,739 Z"
   id="path5" />
  </g>
  <g
   id="bullet-char-template-10132"
   transform="scale(0.00048828125,-0.00048828125)">
   <path
   d="M 2015,739 L 1276,0 717,0 1260,543 174,543 174,936 1260,936 717,1481 1274,1481 2015,739 Z"
   id="path6" />
  </g>
  <g
   id="bullet-char-template-10007"
   transform="scale(0.00048828125,-0.00048828125)">
   <path
   d="M 0,-2 C -7,14 -16,27 -25,37 L 356,567 C 262,823 215,952 215,954 215,979 228,992 255,992 264,992 276,990 289,987 310,991 331,999 354,1012 L 381,999 492,748 772,1049 836,1024 860,1049 C 881,1039 901,1025 922,1006 886,937 835,863 770,784 769,783 710,716 594,584 L 774,223 C 774,196 753,168 711,139 L 727,119 C 717,90 699,76 672,76 641,76 570,178 457,381 L 164,-76 C 142,-110 111,-127 72,-127 30,-127 9,-110 8,-76 1,-67 -2,-52 -2,-32 -2,-23 -1,-13 0,-2 Z"
   id="path7" />
  </g>
  <g
   id="bullet-char-template-10004"
   transform="scale(0.00048828125,-0.00048828125)">
   <path
   d="M 285,-33 C 182,-33 111,30 74,156 52,228 41,333 41,471 41,549 55,616 82,672 116,743 169,778 240,778 293,778 328,747 346,684 L 369,508 C 377,444 397,411 428,410 L 1163,1116 C 1174,1127 1196,1133 1229,1133 1271,1133 1292,1118 1292,1087 L 1292,965 C 1292,929 1282,901 1262,881 L 442,47 C 390,-6 338,-33 285,-33 Z"
   id="path8" />
  </g>
  <g
   id="bullet-char-template-9679"
   transform="scale(0.00048828125,-0.00048828125)">
   <path
   d="M 813,0 C 632,0 489,54 383,161 276,268 223,411 223,592 223,773 276,916 383,1023 489,1130 632,1184 813,1184 992,1184 1136,1130 1245,1023 1353,916 1407,772 1407,592 1407,412 1353,268 1245,161 1136,54 992,0 813,0 Z"
   id="path9" />
  </g>
  <g
   id="bullet-char-template-8226"
   transform="scale(0.00048828125,-0.00048828125)">
   <path
   d="M 346,457 C 273,457 209,483 155,535 101,586 74,649 74,723 74,796 101,859 155,911 209,963 273,989 346,989 419,989 480,963 531,910 582,859 608,796 608,723 608,648 583,586 532,535 482,483 420,457 346,457 Z"
   id="path10" />
  </g>
  <g
   id="bullet-char-template-8211"
   transform="scale(0.00048828125,-0.00048828125)">
   <path
   d="M -4,459 L 1135,459 1135,606 -4,606 -4,459 Z"
   id="path11" />
  </g>
  <g
   id="bullet-char-template-61548"
   transform="scale(0.00048828125,-0.00048828125)">
   <path
   d="M 173,740 C 173,903 231,1043 346,1159 462,1274 601,1332 765,1332 928,1332 1067,1274 1183,1159 1299,1043 1357,903 1357,740 1357,577 1299,437 1183,322 1067,206 928,148 765,148 601,148 462,206 346,322 231,437 173,577 173,740 Z"
   id="path12" />
  </g>
 </defs>
 
 <path
   id="path13"
   d="M 6911.8261 3175.31 C 6431.5504 3170.3941 5878.3495 3235.498 5256.785 3371.112 C 5067.7775 3396.4515 4911.2336 3471.6403 4892.983 3602.0023 C 4870.983 3751.0023 4894.0258 3997.0152 4996.0258 4111.0152 C 5008.7722 4125.0894 5021.0466 4136.752 5033.1811 4146.3102 C 5014.0522 4499.5294 4995.3108 4969.52 4996.0258 5484.9882 C 5002.3749 6137.1312 5054.5805 7195.5714 5072.0418 7671.6764 C 5069.8544 7719.5695 5071.528 7771.9031 5077.8296 7824.2769 C 5077.8582 7825.3299 5077.9568 7827.94 5077.9846 7828.9794 C 5077.9846 7831.9311 5078.7095 7834.4363 5079.4315 7836.9376 C 5093.5005 7941.4462 5125.9126 8043.8705 5182.0092 8106.0168 C 5237.1647 8167.4922 5284.7711 8184.5514 5340.8626 8169.3204 C 7813.9983 8120.9219 9200.0376 6978.7667 9214.993 5219.0096 C 9225.493 3895.2596 8427.6699 3190.8257 6911.8261 3175.31 z M 2603.0452 3183.8883 C 2157.2778 3180.1629 1651.5526 3246.1018 1094.8169 3381.6024 C 1075.1031 3385.5978 1055.921 3390.1406 1037.4044 3395.3483 C 1029.5252 3397.3221 1021.8944 3398.9793 1013.9949 3400.981 C 999.69347 3404.5685 986.49018 3410.1121 973.84236 3416.5873 C 874.68831 3456.1862 804.8017 3517.5248 792.97485 3602.0023 C 770.97485 3751.0023 794.01765 3997.0152 896.01765 4111.0152 C 908.74679 4125.0703 921.05446 4136.7074 933.17301 4146.2585 C 914.04317 4499.4827 895.30269 4969.4968 896.01765 5484.9882 C 902.36675 6137.1312 954.57238 7195.5714 972.03368 7671.6764 C 969.84625 7719.5695 971.51985 7771.9031 977.82144 7824.2769 C 977.85008 7825.3299 977.94868 7827.94 977.97647 7828.9794 C 977.97647 7831.9311 978.70142 7834.4363 979.42341 7836.9376 C 993.49241 7941.4462 1025.9045 8043.8705 1082.0011 8106.0168 C 1120.5831 8149.0196 1155.4538 8170.3345 1192.1236 8174.0746 C 1199.8175 8176.6723 1207.6988 8178.3552 1215.9981 8178.0021 C 3429.9981 8063.0021 4794.9906 6976.9816 4809.9906 5211.9816 C 4820.4906 3888.2316 4005.264 3195.6071 2603.0452 3183.8883 z M 6585.8512 3907.6168 C 7622.7167 3899.4607 8583.9321 4331.0405 8596.9946 5439.978 C 8616.6016 6946.9186 7157.7719 7281.219 5779.9056 7349.8872 C 5770.3111 6985.7539 5703.421 6525.9311 5684.9759 5825.0191 C 5662.7971 5160.445 5679.3422 4455.213 5720.7877 4011.8998 C 6002.4932 3946.5154 6297.0283 3909.8886 6585.8512 3907.6168 z M 2303.8904 3941.9299 C 3258.8386 3931.2629 4178.9297 4325.046 4191.9922 5433.9835 C 4211.13 6903.9493 2850.5748 7237.7997 1679.5874 7340.8439 C 1669.1413 6978.0965 1603.3145 6520.2302 1585.0195 5825.0191 C 1562.9128 5162.6084 1579.2202 4459.6813 1620.3662 4016.0856 C 1842.1908 3970.9443 2073.9293 3944.4986 2303.8904 3941.9299 z " />
   
  
</svg>
