<?xml version="1.0" encoding="UTF-8" standalone="no"?>
<svg
   version="1.2"
   width="100mm"
   height="100mm"
   viewBox="0 0 10000 10000"
   preserveAspectRatio="xMidYMid"
   fill-rule="evenodd"
   stroke-width="28.222"
   stroke-linejoin="round"
   xml:space="preserve"
   id="svg21"
   sodipodi:docname="gobo-caps-liga-ii.svg"
   inkscape:version="1.4 (86a8ad7, 2024-10-11)"
   xmlns:inkscape="http://www.inkscape.org/namespaces/inkscape"
   xmlns:sodipodi="http://sodipodi.sourceforge.net/DTD/sodipodi-0.dtd"
   xmlns="http://www.w3.org/2000/svg"
   xmlns:svg="http://www.w3.org/2000/svg"
   xmlns:ooo="http://xml.openoffice.org/svg/export"><sodipodi:namedview
   id="namedview21"
   pagecolor="#ffffff"
   bordercolor="#000000"
   borderopacity="0.25"
   inkscape:showpageshadow="2"
   inkscape:pageopacity="0.0"
   inkscape:pagecheckerboard="0"
   inkscape:deskcolor="#d1d1d1"
   inkscape:document-units="mm"
   showgrid="false"
   inkscape:zoom="3.0876875"
   inkscape:cx="188.81444"
   inkscape:cy="188.97638"
   inkscape:window-width="2560"
   inkscape:window-height="1369"
   inkscape:window-x="-8"
   inkscape:window-y="-8"
   inkscape:window-maximized="1"
   inkscape:current-layer="svg21" />
 <defs
   class="ClipPathGroup"
   id="defs2">
  
  <clipPath
   id="presentation_clip_path_shrink"
   clipPathUnits="userSpaceOnUse">
   <rect
   x="10"
   y="10"
   width="9980"
   height="9980"
   id="rect2" />
  </clipPath>
 
  
 
   
  
    
   
     
    
      
      
      
      
      
      
     
       
      
       
      
       
      
       
      
       
      
       
      
        
        
       
        
        
       
        
        
       
        
        
       
        
        
       
        
        
       </defs>
 <defs
   class="TextShapeIndex"
   id="defs3">
  <g
   ooo:slide="id1"
   ooo:id-list="id3 id4 id5 id6 id7 id8"
   id="g2" />
 </defs>
 <defs
   class="EmbeddedBulletChars"
   id="defs12">
  <g
   id="bullet-char-template-57356"
   transform="scale(0.00048828125,-0.00048828125)">
   <path
   d="M 580,1141 L 1163,571 580,0 -4,571 580,1141 Z"
   id="path3" />
  </g>
  <g
   id="bullet-char-template-57354"
   transform="scale(0.00048828125,-0.00048828125)">
   <path
   d="M 8,1128 L 1137,1128 1137,0 8,0 8,1128 Z"
   id="path4" />
  </g>
  <g
   id="bullet-char-template-10146"
   transform="scale(0.00048828125,-0.00048828125)">
   <path
   d="M 174,0 L 602,739 174,1481 1456,739 174,0 Z M 1358,739 L 309,1346 659,739 1358,739 Z"
   id="path5" />
  </g>
  <g
   id="bullet-char-template-10132"
   transform="scale(0.00048828125,-0.00048828125)">
   <path
   d="M 2015,739 L 1276,0 717,0 1260,543 174,543 174,936 1260,936 717,1481 1274,1481 2015,739 Z"
   id="path6" />
  </g>
  <g
   id="bullet-char-template-10007"
   transform="scale(0.00048828125,-0.00048828125)">
   <path
   d="M 0,-2 C -7,14 -16,27 -25,37 L 356,567 C 262,823 215,952 215,954 215,979 228,992 255,992 264,992 276,990 289,987 310,991 331,999 354,1012 L 381,999 492,748 772,1049 836,1024 860,1049 C 881,1039 901,1025 922,1006 886,937 835,863 770,784 769,783 710,716 594,584 L 774,223 C 774,196 753,168 711,139 L 727,119 C 717,90 699,76 672,76 641,76 570,178 457,381 L 164,-76 C 142,-110 111,-127 72,-127 30,-127 9,-110 8,-76 1,-67 -2,-52 -2,-32 -2,-23 -1,-13 0,-2 Z"
   id="path7" />
  </g>
  <g
   id="bullet-char-template-10004"
   transform="scale(0.00048828125,-0.00048828125)">
   <path
   d="M 285,-33 C 182,-33 111,30 74,156 52,228 41,333 41,471 41,549 55,616 82,672 116,743 169,778 240,778 293,778 328,747 346,684 L 369,508 C 377,444 397,411 428,410 L 1163,1116 C 1174,1127 1196,1133 1229,1133 1271,1133 1292,1118 1292,1087 L 1292,965 C 1292,929 1282,901 1262,881 L 442,47 C 390,-6 338,-33 285,-33 Z"
   id="path8" />
  </g>
  <g
   id="bullet-char-template-9679"
   transform="scale(0.00048828125,-0.00048828125)">
   <path
   d="M 813,0 C 632,0 489,54 383,161 276,268 223,411 223,592 223,773 276,916 383,1023 489,1130 632,1184 813,1184 992,1184 1136,1130 1245,1023 1353,916 1407,772 1407,592 1407,412 1353,268 1245,161 1136,54 992,0 813,0 Z"
   id="path9" />
  </g>
  <g
   id="bullet-char-template-8226"
   transform="scale(0.00048828125,-0.00048828125)">
   <path
   d="M 346,457 C 273,457 209,483 155,535 101,586 74,649 74,723 74,796 101,859 155,911 209,963 273,989 346,989 419,989 480,963 531,910 582,859 608,796 608,723 608,648 583,586 532,535 482,483 420,457 346,457 Z"
   id="path10" />
  </g>
  <g
   id="bullet-char-template-8211"
   transform="scale(0.00048828125,-0.00048828125)">
   <path
   d="M -4,459 L 1135,459 1135,606 -4,606 -4,459 Z"
   id="path11" />
  </g>
  <g
   id="bullet-char-template-61548"
   transform="scale(0.00048828125,-0.00048828125)">
   <path
   d="M 173,740 C 173,903 231,1043 346,1159 462,1274 601,1332 765,1332 928,1332 1067,1274 1183,1159 1299,1043 1357,903 1357,740 1357,577 1299,437 1183,322 1067,206 928,148 765,148 601,148 462,206 346,322 231,437 173,577 173,740 Z"
   id="path12" />
  </g>
 </defs>
 
 <path
   id="path13"
   d="M 5844.9662 3105.8052 C 5831.8932 3105.7798 5818.2368 3106.1813 5803.9868 3106.9938 C 5582.7138 3119.7219 5383.6406 3193.8609 5355.6937 3336.7989 C 5354.3159 3339.5224 5353.2906 3342.2603 5353.0066 3345.0154 C 5352.6966 3349.4453 5352.3866 3356.1683 5352.0764 3360.7767 C 5347.9839 3392.5646 5345.8215 3427.8249 5345.9269 3465.0081 C 5324.3621 3863.9036 5304.3095 4641.7878 5307.0145 5290.9948 C 5312.6948 5971.6781 5366.3931 7148.8662 5382.5138 7593.955 C 5382.6054 7615.3784 5383.4799 7637.3722 5385.0976 7659.6358 C 5385.423 7669.1413 5386.7353 7700.4589 5387.0096 7708.9868 C 5387.0096 7715.0285 5389.0543 7719.8611 5392.0223 7724.128 C 5406.5348 7825.8264 5438.3198 7924.9132 5492.998 7986.0241 C 5589.998 8092.0241 5662.0105 8066.0072 5797.0105 7967.0072 C 5931.0105 7869.0072 6017.9973 7691.9787 6053.9973 7586.9787 C 6084.7378 7497.4017 6096.6585 7427.7255 6090.791 7374.8469 C 6092.9855 7018.0341 5966.5527 6332.668 5942.9964 5544.0026 C 5917.9964 4708.0026 5989.9764 3644.9982 6057.9764 3288.9982 C 6058.5443 3283.7126 6057.303 3278.9593 6055.2376 3274.4254 C 6056.6633 3155.228 5984.5514 3106.0763 5844.9662 3105.8052 z M 4448.9791 3203.8354 C 4435.9061 3203.81 4422.2496 3204.2115 4407.9996 3205.024 C 4186.7765 3217.7492 3987.6727 3291.7993 3959.6549 3434.674 C 3958.2496 3437.4278 3957.3067 3440.2078 3957.0194 3442.994 C 3956.7095 3447.4238 3956.3995 3454.1468 3956.0892 3458.7553 C 3951.9982 3490.5316 3949.836 3525.8181 3949.9397 3562.9866 C 3928.375 3961.8821 3908.2707 4739.8179 3910.9757 5389.025 C 3916.6551 6069.6052 3970.3964 7246.4176 3986.5267 7691.6752 C 3986.6123 7713.1685 3987.4883 7735.2213 3989.1105 7757.5626 C 3989.4366 7767.09 3990.7476 7798.4712 3991.0225 7807.0169 C 3991.0225 7813.0951 3993.0322 7817.9276 3996.0351 7822.2098 C 4010.5547 7923.8717 4042.3514 8022.9126 4097.0109 8084.0026 C 4194.0109 8190.0026 4266.0233 8163.9857 4401.0233 8064.9857 C 4535.0233 7966.9857 4622.0102 7790.0089 4658.0102 7685.0089 C 4688.8149 7595.2447 4700.707 7525.4336 4694.7522 7472.5154 C 4696.8675 7115.6108 4570.5584 6430.4057 4547.0092 5641.9812 C 4522.0092 4805.9812 4593.9893 3742.9767 4661.9893 3386.9767 C 4662.5589 3381.6748 4661.33 3376.8978 4659.2505 3372.3523 C 4660.6547 3253.1923 4588.5441 3204.1065 4448.9791 3203.8354 z " />
   
  
</svg>
