<?xml version="1.0" encoding="UTF-8" standalone="no"?>
<svg
   version="1.2"
   width="100mm"
   height="100mm"
   viewBox="0 0 10000 10000"
   preserveAspectRatio="xMidYMid"
   fill-rule="evenodd"
   stroke-width="28.222"
   stroke-linejoin="round"
   xml:space="preserve"
   id="svg24"
   sodipodi:docname="gobo-caps-E030.svg"
   inkscape:version="1.4 (86a8ad7, 2024-10-11)"
   xmlns:inkscape="http://www.inkscape.org/namespaces/inkscape"
   xmlns:sodipodi="http://sodipodi.sourceforge.net/DTD/sodipodi-0.dtd"
   xmlns="http://www.w3.org/2000/svg"
   xmlns:svg="http://www.w3.org/2000/svg"
   xmlns:ooo="http://xml.openoffice.org/svg/export"><sodipodi:namedview
   id="namedview24"
   pagecolor="#ffffff"
   bordercolor="#000000"
   borderopacity="0.25"
   inkscape:showpageshadow="2"
   inkscape:pageopacity="0.0"
   inkscape:pagecheckerboard="0"
   inkscape:deskcolor="#d1d1d1"
   inkscape:document-units="mm"
   showgrid="false"
   inkscape:zoom="3.0876875"
   inkscape:cx="188.81444"
   inkscape:cy="188.97638"
   inkscape:window-width="2560"
   inkscape:window-height="1369"
   inkscape:window-x="-8"
   inkscape:window-y="-8"
   inkscape:window-maximized="1"
   inkscape:current-layer="svg24" />
 <defs
   class="ClipPathGroup"
   id="defs2">
  
  <clipPath
   id="presentation_clip_path_shrink"
   clipPathUnits="userSpaceOnUse">
   <rect
   x="10"
   y="10"
   width="9980"
   height="9980"
   id="rect2" />
  </clipPath>
 
  
 
   
  
    
   
     
    
      
      
      
      
      
      
      
      
      
     
       
      
       
      
       
      
       
      
       
      
       
      
       
      
       
      
       
      
        
        
       
        
        
       
        
        
       
        
        
       
        
        
       
        
        
       
        
        
       
        
        
       
        
        
       </defs>
 <defs
   class="TextShapeIndex"
   id="defs3">
  <g
   ooo:slide="id1"
   ooo:id-list="id3 id4 id5 id6 id7 id8 id9 id10 id11"
   id="g2" />
 </defs>
 <defs
   class="EmbeddedBulletChars"
   id="defs12">
  <g
   id="bullet-char-template-57356"
   transform="scale(0.00048828125,-0.00048828125)">
   <path
   d="M 580,1141 L 1163,571 580,0 -4,571 580,1141 Z"
   id="path3" />
  </g>
  <g
   id="bullet-char-template-57354"
   transform="scale(0.00048828125,-0.00048828125)">
   <path
   d="M 8,1128 L 1137,1128 1137,0 8,0 8,1128 Z"
   id="path4" />
  </g>
  <g
   id="bullet-char-template-10146"
   transform="scale(0.00048828125,-0.00048828125)">
   <path
   d="M 174,0 L 602,739 174,1481 1456,739 174,0 Z M 1358,739 L 309,1346 659,739 1358,739 Z"
   id="path5" />
  </g>
  <g
   id="bullet-char-template-10132"
   transform="scale(0.00048828125,-0.00048828125)">
   <path
   d="M 2015,739 L 1276,0 717,0 1260,543 174,543 174,936 1260,936 717,1481 1274,1481 2015,739 Z"
   id="path6" />
  </g>
  <g
   id="bullet-char-template-10007"
   transform="scale(0.00048828125,-0.00048828125)">
   <path
   d="M 0,-2 C -7,14 -16,27 -25,37 L 356,567 C 262,823 215,952 215,954 215,979 228,992 255,992 264,992 276,990 289,987 310,991 331,999 354,1012 L 381,999 492,748 772,1049 836,1024 860,1049 C 881,1039 901,1025 922,1006 886,937 835,863 770,784 769,783 710,716 594,584 L 774,223 C 774,196 753,168 711,139 L 727,119 C 717,90 699,76 672,76 641,76 570,178 457,381 L 164,-76 C 142,-110 111,-127 72,-127 30,-127 9,-110 8,-76 1,-67 -2,-52 -2,-32 -2,-23 -1,-13 0,-2 Z"
   id="path7" />
  </g>
  <g
   id="bullet-char-template-10004"
   transform="scale(0.00048828125,-0.00048828125)">
   <path
   d="M 285,-33 C 182,-33 111,30 74,156 52,228 41,333 41,471 41,549 55,616 82,672 116,743 169,778 240,778 293,778 328,747 346,684 L 369,508 C 377,444 397,411 428,410 L 1163,1116 C 1174,1127 1196,1133 1229,1133 1271,1133 1292,1118 1292,1087 L 1292,965 C 1292,929 1282,901 1262,881 L 442,47 C 390,-6 338,-33 285,-33 Z"
   id="path8" />
  </g>
  <g
   id="bullet-char-template-9679"
   transform="scale(0.00048828125,-0.00048828125)">
   <path
   d="M 813,0 C 632,0 489,54 383,161 276,268 223,411 223,592 223,773 276,916 383,1023 489,1130 632,1184 813,1184 992,1184 1136,1130 1245,1023 1353,916 1407,772 1407,592 1407,412 1353,268 1245,161 1136,54 992,0 813,0 Z"
   id="path9" />
  </g>
  <g
   id="bullet-char-template-8226"
   transform="scale(0.00048828125,-0.00048828125)">
   <path
   d="M 346,457 C 273,457 209,483 155,535 101,586 74,649 74,723 74,796 101,859 155,911 209,963 273,989 346,989 419,989 480,963 531,910 582,859 608,796 608,723 608,648 583,586 532,535 482,483 420,457 346,457 Z"
   id="path10" />
  </g>
  <g
   id="bullet-char-template-8211"
   transform="scale(0.00048828125,-0.00048828125)">
   <path
   d="M -4,459 L 1135,459 1135,606 -4,606 -4,459 Z"
   id="path11" />
  </g>
  <g
   id="bullet-char-template-61548"
   transform="scale(0.00048828125,-0.00048828125)">
   <path
   d="M 173,740 C 173,903 231,1043 346,1159 462,1274 601,1332 765,1332 928,1332 1067,1274 1183,1159 1299,1043 1357,903 1357,740 1357,577 1299,437 1183,322 1067,206 928,148 765,148 601,148 462,206 346,322 231,437 173,577 173,740 Z"
   id="path12" />
  </g>
 </defs>
 
 <path
   id="path13"
   d="M 6236.9836 3092.9895 C 6234.8116 3092.9773 6232.5221 3093.0302 6230.3173 3093.0412 C 5721.8257 3091.1142 4216.7006 3226.0622 3778.9941 3323.9831 C 3776.0714 3324.7297 3773.3428 3326.191 3770.5192 3327.2904 C 3622.8655 3362.7997 3510.2771 3433.4723 3494.9804 3542.006 C 3472.9804 3691.006 3496.0232 3937.0188 3598.0232 4051.0188 C 3642.698 4099.3781 3682.0679 4120.0876 3724.7339 4118.7667 C 3725.5034 4118.7666 3726.2289 4119.0905 3727.0076 4119.025 C 3727.7818 4118.8536 3728.9634 4118.6801 3729.7465 4118.5083 C 3740.2836 4117.7626 3751.0978 4115.4538 3762.1993 4112.1521 C 3930.0784 4078.6563 4246.5929 4038.5221 4592.8979 4002.443 C 4581.4161 4366.3618 4575.5905 4843.2228 4576.9816 5344.0149 C 4583.0556 5967.0348 4615.6641 6760.2156 4632.1203 7220.3861 C 4316.869 7263.4977 4041.614 7306.1607 3889.1166 7336.8131 C 3865.7065 7340.8807 3843.0481 7345.8717 3821.1104 7351.5409 C 3820.5359 7351.6804 3819.5583 7351.8673 3818.9917 7352.006 C 3818.8333 7352.0464 3818.6846 7352.1195 3818.5266 7352.161 C 3679.4472 7388.6088 3574.708 7457.5873 3559.9894 7562.019 C 3537.9894 7712.019 3560.9805 7957.9802 3662.9805 8070.9802 C 3708.8947 8121.6278 3749.2125 8142.223 3793.2568 8139.3998 C 3795.4933 8139.6799 3797.6797 8140.2384 3799.9747 8140.0199 C 4202.9747 8049.0199 5770.9903 7861.977 6042.9903 7868.977 C 6043.7229 7868.9339 6044.5225 7868.5497 6045.264 7868.4602 C 6093.7373 7864.8338 6146.8383 7833.4463 6216.9848 7782.0056 C 6350.9848 7684.0056 6437.9899 7506.9952 6472.9899 7400.9952 C 6565.9899 7130.9952 6487.995 7040.0243 6261.995 7052.0243 C 6253.4268 7052.515 6244.9609 7053.2601 6236.4668 7053.9363 C 6043.8132 7058.4989 5707.2116 7089.9586 5341.3277 7131.7093 C 5321.3381 6800.7499 5235.7056 6354.1879 5213.9969 5598.0045 C 5195.6808 5007.6604 5221.8554 4384.9959 5262.1594 3941.0514 C 5600.9366 3914.6331 5884.2558 3900.4785 5977.9813 3910.9757 C 5983.2825 3910.816 5988.736 3909.8173 5994.2594 3908.0818 C 6039.0139 3899.9304 6088.5231 3869.5544 6151.9759 3823.0224 C 6284.9759 3726.0224 6373.0144 3547.994 6409.0144 3442.994 C 6490.3266 3204.3604 6439.5196 3105.6299 6269.2297 3094.178 C 6267.4465 3093.851 6265.9133 3093.1055 6264.0104 3092.9895 C 6256.7703 3092.8675 6247.0469 3093.0954 6239.309 3093.0412 C 6238.5189 3093.0336 6237.7782 3092.9939 6236.9836 3092.9895 z " />
   
  
</svg>
