<?xml version="1.0" encoding="UTF-8" standalone="no"?>
<svg
   version="1.2"
   width="100mm"
   height="100mm"
   viewBox="0 0 10000 10000"
   preserveAspectRatio="xMidYMid"
   fill-rule="evenodd"
   stroke-width="28.222"
   stroke-linejoin="round"
   xml:space="preserve"
   id="svg30"
   sodipodi:docname="gobo-caps-E011.svg"
   inkscape:version="1.4 (86a8ad7, 2024-10-11)"
   xmlns:inkscape="http://www.inkscape.org/namespaces/inkscape"
   xmlns:sodipodi="http://sodipodi.sourceforge.net/DTD/sodipodi-0.dtd"
   xmlns="http://www.w3.org/2000/svg"
   xmlns:svg="http://www.w3.org/2000/svg"
   xmlns:ooo="http://xml.openoffice.org/svg/export"><sodipodi:namedview
   id="namedview30"
   pagecolor="#ffffff"
   bordercolor="#000000"
   borderopacity="0.25"
   inkscape:showpageshadow="2"
   inkscape:pageopacity="0.0"
   inkscape:pagecheckerboard="0"
   inkscape:deskcolor="#d1d1d1"
   inkscape:document-units="mm"
   showgrid="false"
   inkscape:zoom="3.0876875"
   inkscape:cx="188.81444"
   inkscape:cy="188.97638"
   inkscape:window-width="2560"
   inkscape:window-height="1369"
   inkscape:window-x="-8"
   inkscape:window-y="-8"
   inkscape:window-maximized="1"
   inkscape:current-layer="svg30" />
 <defs
   class="ClipPathGroup"
   id="defs2">
  
  <clipPath
   id="presentation_clip_path_shrink"
   clipPathUnits="userSpaceOnUse">
   <rect
   x="10"
   y="10"
   width="9980"
   height="9980"
   id="rect2" />
  </clipPath>
 
  
 
   
  
    
   
     
    
      
      
      
      
      
      
      
      
      
      
      
      
      
      
      
     
       
      
       
      
       
      
       
      
       
      
       
      
       
      
       
      
       
      
       
      
       
      
       
      
       
      
       
      
       
      
        
        
       
        
        
       
        
        
       
        
        
       
        
        
       
        
        
       
        
        
       
        
        
       
        
        
       
        
        
       
        
        
       
        
        
       
        
        
       
        
        
       
        
        
       </defs>
 <defs
   class="TextShapeIndex"
   id="defs3">
  <g
   ooo:slide="id1"
   ooo:id-list="id3 id4 id5 id6 id7 id8 id9 id10 id11 id12 id13 id14 id15 id16 id17"
   id="g2" />
 </defs>
 <defs
   class="EmbeddedBulletChars"
   id="defs12">
  <g
   id="bullet-char-template-57356"
   transform="scale(0.00048828125,-0.00048828125)">
   <path
   d="M 580,1141 L 1163,571 580,0 -4,571 580,1141 Z"
   id="path3" />
  </g>
  <g
   id="bullet-char-template-57354"
   transform="scale(0.00048828125,-0.00048828125)">
   <path
   d="M 8,1128 L 1137,1128 1137,0 8,0 8,1128 Z"
   id="path4" />
  </g>
  <g
   id="bullet-char-template-10146"
   transform="scale(0.00048828125,-0.00048828125)">
   <path
   d="M 174,0 L 602,739 174,1481 1456,739 174,0 Z M 1358,739 L 309,1346 659,739 1358,739 Z"
   id="path5" />
  </g>
  <g
   id="bullet-char-template-10132"
   transform="scale(0.00048828125,-0.00048828125)">
   <path
   d="M 2015,739 L 1276,0 717,0 1260,543 174,543 174,936 1260,936 717,1481 1274,1481 2015,739 Z"
   id="path6" />
  </g>
  <g
   id="bullet-char-template-10007"
   transform="scale(0.00048828125,-0.00048828125)">
   <path
   d="M 0,-2 C -7,14 -16,27 -25,37 L 356,567 C 262,823 215,952 215,954 215,979 228,992 255,992 264,992 276,990 289,987 310,991 331,999 354,1012 L 381,999 492,748 772,1049 836,1024 860,1049 C 881,1039 901,1025 922,1006 886,937 835,863 770,784 769,783 710,716 594,584 L 774,223 C 774,196 753,168 711,139 L 727,119 C 717,90 699,76 672,76 641,76 570,178 457,381 L 164,-76 C 142,-110 111,-127 72,-127 30,-127 9,-110 8,-76 1,-67 -2,-52 -2,-32 -2,-23 -1,-13 0,-2 Z"
   id="path7" />
  </g>
  <g
   id="bullet-char-template-10004"
   transform="scale(0.00048828125,-0.00048828125)">
   <path
   d="M 285,-33 C 182,-33 111,30 74,156 52,228 41,333 41,471 41,549 55,616 82,672 116,743 169,778 240,778 293,778 328,747 346,684 L 369,508 C 377,444 397,411 428,410 L 1163,1116 C 1174,1127 1196,1133 1229,1133 1271,1133 1292,1118 1292,1087 L 1292,965 C 1292,929 1282,901 1262,881 L 442,47 C 390,-6 338,-33 285,-33 Z"
   id="path8" />
  </g>
  <g
   id="bullet-char-template-9679"
   transform="scale(0.00048828125,-0.00048828125)">
   <path
   d="M 813,0 C 632,0 489,54 383,161 276,268 223,411 223,592 223,773 276,916 383,1023 489,1130 632,1184 813,1184 992,1184 1136,1130 1245,1023 1353,916 1407,772 1407,592 1407,412 1353,268 1245,161 1136,54 992,0 813,0 Z"
   id="path9" />
  </g>
  <g
   id="bullet-char-template-8226"
   transform="scale(0.00048828125,-0.00048828125)">
   <path
   d="M 346,457 C 273,457 209,483 155,535 101,586 74,649 74,723 74,796 101,859 155,911 209,963 273,989 346,989 419,989 480,963 531,910 582,859 608,796 608,723 608,648 583,586 532,535 482,483 420,457 346,457 Z"
   id="path10" />
  </g>
  <g
   id="bullet-char-template-8211"
   transform="scale(0.00048828125,-0.00048828125)">
   <path
   d="M -4,459 L 1135,459 1135,606 -4,606 -4,459 Z"
   id="path11" />
  </g>
  <g
   id="bullet-char-template-61548"
   transform="scale(0.00048828125,-0.00048828125)">
   <path
   d="M 173,740 C 173,903 231,1043 346,1159 462,1274 601,1332 765,1332 928,1332 1067,1274 1183,1159 1299,1043 1357,903 1357,740 1357,577 1299,437 1183,322 1067,206 928,148 765,148 601,148 462,206 346,322 231,437 173,577 173,740 Z"
   id="path12" />
  </g>
 </defs>
 
 <path
   id="path13"
   d="M 3000.9021 3144.5109 C 2499.183 3150.3462 1915.2577 3228.8052 1275.3743 3361.0351 C 1254.7722 3364.4977 1234.7386 3368.5913 1215.223 3373.2824 C 1212.4591 3373.865 1209.7723 3374.4032 1207.0064 3374.9878 C 1195.5354 3376.6795 1184.7388 3380.1724 1174.2436 3384.3929 C 1047.9744 3422.3822 954.78368 3489.0484 940.97615 3587.0162 C 918.97615 3737.0162 942.01895 3982.9773 1044.019 4095.9773 C 1086.7089 4143.0683 1124.5383 4164.2399 1165.0452 4164.707 C 1179.7341 4166.4775 1195.3678 4165.4226 1212.019 4160.9863 C 1231.1653 4155.8647 1250.4141 4151.563 1269.5866 4146.5686 C 1345.9977 4597.3965 1364.1952 5267.4298 1367.9785 5851.0123 C 1371.9558 6464.5118 1197.2015 7553.7492 1243.3866 7817.7656 C 1252.1041 7940.194 1284.8595 8069.1211 1350.977 8143.0171 C 1447.977 8249.0171 1520.0229 8223.0002 1656.0229 8124.0002 C 1789.0229 8026.0002 1875.9763 7848.9898 1911.9763 7742.9898 C 1927.2073 7698.9347 1937.7622 7659.734 1943.9123 7624.8575 C 1944.0749 7624.0586 1944.1689 7623.2302 1944.3258 7622.4287 C 1945.5711 7615.1589 1946.6268 7608.0734 1947.478 7601.1897 C 1947.9161 7597.7658 1948.6442 7594.4766 1948.9766 7591.0095 C 1975.2516 7324.6101 1991.2467 6977.2992 1993.7801 6453.3011 C 2238.1636 6451.5934 2407.4901 6548.6091 2622.0105 6682.021 C 3432.1433 7185.1259 3936.4784 7593.4936 4353.3777 7828.5143 C 4371.8815 7843.4118 4389.834 7853.3658 4407.8963 7858.7967 C 4408.5952 7859.1715 4409.3165 7859.6116 4410.015 7859.9853 C 4419.9969 7865.2948 4432.1152 7866.1385 4445.6201 7863.7577 C 4495.6207 7862.2513 4550.1513 7830.4338 4623.0253 7776.9929 C 4757.0253 7678.9929 4843.9786 7501.9826 4878.9786 7395.9826 C 4932.4123 7240.8526 4929.3274 7144.9361 4874.2244 7093.5721 C 4864.9302 7082.1894 4853.3952 7072.4365 4838.9811 7064.9951 C 4356.9811 6816.9951 3923.9934 6520.9812 3536.9934 6276.9812 C 3481.2102 6242.2239 3419.4859 6202.0045 3354.5756 6159.8824 C 4398.4377 5861.0727 4847.243 5416.2304 4855.0008 4442.9846 C 4862.5633 3492.8596 4144.1098 3131.2147 3000.9021 3144.5109 z M 7150.933 3144.5109 C 6649.1964 3150.3464 6065.2115 3228.7968 5425.3019 3361.0351 C 5404.7896 3364.4846 5384.8442 3368.6149 5365.4089 3373.2824 C 5362.5791 3373.8789 5359.8176 3374.3893 5356.9856 3374.9878 C 5345.5255 3376.6779 5334.7607 3380.1787 5324.2745 3384.3929 C 5197.9811 3422.3797 5104.8163 3489.0362 5091.007 3587.0162 C 5078.2343 3674.103 5080.7939 3793.4437 5105.0114 3900.4337 C 5177.5103 4386.1701 5174.2215 5332.4805 5177.9785 5911.9905 C 5181.9606 6526.23 5078.0611 7628.4525 5125.4752 7890.8878 C 5134.3101 8012.991 5167.0925 8141.3255 5233.0139 8215.0024 C 5330.0139 8321.0024 5402.0082 8294.9855 5538.0082 8195.9855 C 5671.0082 8097.9855 5758.0132 7920.9751 5794.0132 7814.9751 C 5809.2899 7770.7879 5819.8594 7731.4872 5826.0009 7696.5327 C 5827.3958 7688.5938 5828.5337 7680.9162 5829.4633 7673.4334 C 5829.9143 7669.929 5830.6732 7666.5444 5831.0135 7662.9947 C 5857.9248 7390.1444 5834.5098 7027.8572 5815.9757 6479.1394 C 5828.4878 6483.1344 5841.0523 6484.8302 5853.9062 6484.5654 C 5863.4688 6488.3515 5873.2134 6489.3455 5883 6486.9942 C 5901.75 6482.6098 5919.6537 6479.1237 5937.5703 6475.6254 C 5969.4902 6470.6222 5999.5353 6465.5872 6030.898 6460.5875 C 6339.5027 6423.7579 6525.9666 6529.0172 6771.9897 6682.021 C 7582.1446 7185.1397 8086.5027 7593.5483 8503.4085 7828.566 C 8521.8822 7843.435 8539.7909 7853.3642 8557.8238 7858.7967 C 8558.5361 7859.1787 8559.2824 7859.6044 8559.9942 7859.9853 C 8569.9761 7865.2948 8582.0944 7866.1385 8595.5993 7863.7577 C 8645.6038 7862.2569 8700.1236 7830.4389 8773.0045 7776.9929 C 8907.0045 7678.9929 8994.0095 7501.9826 9029.0095 7395.9826 C 9082.426 7240.9025 9079.307 7145 9024.2553 7093.6238 C 9014.9543 7082.2178 9003.4484 7072.448 8989.012 7064.9951 C 8507.012 6816.9951 8074.0243 6520.9812 7687.0243 6276.9812 C 7631.2512 6242.2302 7569.5034 6201.996 7504.6065 6159.8824 C 8548.4686 5861.0727 8997.2222 5416.2304 9004.98 4442.9846 C 9012.5425 3492.8596 8294.1407 3131.2147 7150.933 3144.5109 z M 2907.6778 3908.4953 C 3651.9115 3911.6994 4201.68 4128.67 4228.9925 4687.9825 C 4270.5331 5578.2738 3069.7539 5522.2847 1988.6641 5657.9492 C 1977.7642 4938.9327 1959.8519 4428.8734 1964.7896 3996.0351 C 2295.6289 3939.603 2616.6883 3907.2424 2907.6778 3908.4953 z M 7057.657 3908.4953 C 7801.8907 3911.6994 8351.7109 4128.67 8379.0234 4687.9825 C 8421.7033 5602.692 7153.2595 5518.9052 6050.3283 5669.9898 C 5958.2462 5677.4235 5870.9536 5695.6608 5799.646 5725.3869 C 5792.2812 5114.4133 5789.6049 4525.0303 5793.9099 4058.0985 C 6236.851 3963.3991 6673.271 3906.8403 7057.657 3908.4953 z " />
   
  
</svg>
