<?xml version="1.0" encoding="UTF-8" standalone="no"?>
<svg
   version="1.2"
   width="100mm"
   height="100mm"
   viewBox="0 0 10000 10000"
   preserveAspectRatio="xMidYMid"
   fill-rule="evenodd"
   stroke-width="28.222"
   stroke-linejoin="round"
   xml:space="preserve"
   id="svg27"
   sodipodi:docname="gobo-caps-E017.svg"
   inkscape:version="1.4 (86a8ad7, 2024-10-11)"
   xmlns:inkscape="http://www.inkscape.org/namespaces/inkscape"
   xmlns:sodipodi="http://sodipodi.sourceforge.net/DTD/sodipodi-0.dtd"
   xmlns="http://www.w3.org/2000/svg"
   xmlns:svg="http://www.w3.org/2000/svg"
   xmlns:ooo="http://xml.openoffice.org/svg/export"><sodipodi:namedview
   id="namedview27"
   pagecolor="#ffffff"
   bordercolor="#000000"
   borderopacity="0.25"
   inkscape:showpageshadow="2"
   inkscape:pageopacity="0.0"
   inkscape:pagecheckerboard="0"
   inkscape:deskcolor="#d1d1d1"
   inkscape:document-units="mm"
   showgrid="false"
   inkscape:zoom="3.0876875"
   inkscape:cx="188.81444"
   inkscape:cy="188.97638"
   inkscape:window-width="2560"
   inkscape:window-height="1369"
   inkscape:window-x="-8"
   inkscape:window-y="-8"
   inkscape:window-maximized="1"
   inkscape:current-layer="svg27" />
 <defs
   class="ClipPathGroup"
   id="defs2">
  
  <clipPath
   id="presentation_clip_path_shrink"
   clipPathUnits="userSpaceOnUse">
   <rect
   x="10"
   y="10"
   width="9980"
   height="9980"
   id="rect2" />
  </clipPath>
 
  
 
   
  
    
   
     
    
      
      
      
      
      
      
      
      
      
      
      
      
     
       
      
       
      
       
      
       
      
       
      
       
      
       
      
       
      
       
      
       
      
       
      
       
      
        
        
       
        
        
       
        
        
       
        
        
       
        
        
       
        
        
       
        
        
       
        
        
       
        
        
       
        
        
       
        
        
       
        
        
       </defs>
 <defs
   class="TextShapeIndex"
   id="defs3">
  <g
   ooo:slide="id1"
   ooo:id-list="id3 id4 id5 id6 id7 id8 id9 id10 id11 id12 id13 id14"
   id="g2" />
 </defs>
 <defs
   class="EmbeddedBulletChars"
   id="defs12">
  <g
   id="bullet-char-template-57356"
   transform="scale(0.00048828125,-0.00048828125)">
   <path
   d="M 580,1141 L 1163,571 580,0 -4,571 580,1141 Z"
   id="path3" />
  </g>
  <g
   id="bullet-char-template-57354"
   transform="scale(0.00048828125,-0.00048828125)">
   <path
   d="M 8,1128 L 1137,1128 1137,0 8,0 8,1128 Z"
   id="path4" />
  </g>
  <g
   id="bullet-char-template-10146"
   transform="scale(0.00048828125,-0.00048828125)">
   <path
   d="M 174,0 L 602,739 174,1481 1456,739 174,0 Z M 1358,739 L 309,1346 659,739 1358,739 Z"
   id="path5" />
  </g>
  <g
   id="bullet-char-template-10132"
   transform="scale(0.00048828125,-0.00048828125)">
   <path
   d="M 2015,739 L 1276,0 717,0 1260,543 174,543 174,936 1260,936 717,1481 1274,1481 2015,739 Z"
   id="path6" />
  </g>
  <g
   id="bullet-char-template-10007"
   transform="scale(0.00048828125,-0.00048828125)">
   <path
   d="M 0,-2 C -7,14 -16,27 -25,37 L 356,567 C 262,823 215,952 215,954 215,979 228,992 255,992 264,992 276,990 289,987 310,991 331,999 354,1012 L 381,999 492,748 772,1049 836,1024 860,1049 C 881,1039 901,1025 922,1006 886,937 835,863 770,784 769,783 710,716 594,584 L 774,223 C 774,196 753,168 711,139 L 727,119 C 717,90 699,76 672,76 641,76 570,178 457,381 L 164,-76 C 142,-110 111,-127 72,-127 30,-127 9,-110 8,-76 1,-67 -2,-52 -2,-32 -2,-23 -1,-13 0,-2 Z"
   id="path7" />
  </g>
  <g
   id="bullet-char-template-10004"
   transform="scale(0.00048828125,-0.00048828125)">
   <path
   d="M 285,-33 C 182,-33 111,30 74,156 52,228 41,333 41,471 41,549 55,616 82,672 116,743 169,778 240,778 293,778 328,747 346,684 L 369,508 C 377,444 397,411 428,410 L 1163,1116 C 1174,1127 1196,1133 1229,1133 1271,1133 1292,1118 1292,1087 L 1292,965 C 1292,929 1282,901 1262,881 L 442,47 C 390,-6 338,-33 285,-33 Z"
   id="path8" />
  </g>
  <g
   id="bullet-char-template-9679"
   transform="scale(0.00048828125,-0.00048828125)">
   <path
   d="M 813,0 C 632,0 489,54 383,161 276,268 223,411 223,592 223,773 276,916 383,1023 489,1130 632,1184 813,1184 992,1184 1136,1130 1245,1023 1353,916 1407,772 1407,592 1407,412 1353,268 1245,161 1136,54 992,0 813,0 Z"
   id="path9" />
  </g>
  <g
   id="bullet-char-template-8226"
   transform="scale(0.00048828125,-0.00048828125)">
   <path
   d="M 346,457 C 273,457 209,483 155,535 101,586 74,649 74,723 74,796 101,859 155,911 209,963 273,989 346,989 419,989 480,963 531,910 582,859 608,796 608,723 608,648 583,586 532,535 482,483 420,457 346,457 Z"
   id="path10" />
  </g>
  <g
   id="bullet-char-template-8211"
   transform="scale(0.00048828125,-0.00048828125)">
   <path
   d="M -4,459 L 1135,459 1135,606 -4,606 -4,459 Z"
   id="path11" />
  </g>
  <g
   id="bullet-char-template-61548"
   transform="scale(0.00048828125,-0.00048828125)">
   <path
   d="M 173,740 C 173,903 231,1043 346,1159 462,1274 601,1332 765,1332 928,1332 1067,1274 1183,1159 1299,1043 1357,903 1357,740 1357,577 1299,437 1183,322 1067,206 928,148 765,148 601,148 462,206 346,322 231,437 173,577 173,740 Z"
   id="path12" />
  </g>
 </defs>
 
 <path
   id="path13"
   d="M 8323.8329 3023.7947 C 8310.8149 3023.7835 8297.1961 3024.1708 8283.0086 3024.9833 C 8091.0081 3035.178 7914.9453 3092.3238 7853.4224 3201.2516 C 7685.3435 3432.3747 7153.9995 4201.6858 6749.3037 4822.2379 C 6276.3691 4207.3253 5854.7372 3685.4065 5660.9981 3400.981 C 5659.1094 3398.189 5656.8065 3396.3053 5654.6936 3394.0047 C 5616.4076 3345.7042 5542.7477 3328.3403 5435.9989 3334.0084 C 5208.9989 3347.0084 5004.9852 3424.9937 4983.9852 3573.9937 C 4964.1235 3708.5115 4980.9728 3922.0807 5059.4844 4046.2129 C 5060.0927 4049.7876 5061.2114 4052.7641 5062.9984 4054.9979 C 5165.3272 4181.1241 5820.6085 4940.0055 6294.7062 5550.0488 C 5892.8348 6215.6888 5260.3614 7265.5718 5076.2793 7569.4087 C 5072.1468 7575.4191 5068.4431 7581.612 5065.0655 7587.9606 C 5064.1951 7589.3965 5059.8659 7596.5893 5059.0193 7597.9858 C 5056.3908 7602.4464 5054.9734 7607.5854 5054.1101 7613.0236 C 5050.4193 7623.6181 5047.6075 7634.5657 5045.9969 7645.9932 C 5023.9969 7795.9932 5046.988 8042.006 5148.988 8155.006 C 5245.988 8261.006 5318.0004 8234.9891 5453.0004 8135.9891 C 5506.2939 8096.7203 5552.2223 8044.7192 5590.6148 7989.7965 C 5596.7237 7984.2131 5602.393 7977.9273 5606.9962 7970.0044 C 5612.4809 7960.5904 5623.8806 7939.3965 5631.0774 7926.5445 C 5638.3823 7914.0069 5645.2412 7901.537 5651.748 7889.1825 C 5817.0064 7588.4051 6268.2697 6718.3237 6658.1982 6042.3185 C 7076.989 6644.8956 7759.7424 7532.4924 7913.9872 7807.9988 C 7917.8228 7814.8024 7923.0041 7819.2798 7928.7666 7822.6749 C 7930.8257 7825.1454 7932.892 7827.6561 7935.0195 7830.013 C 8032.0195 7936.013 8103.9802 7909.996 8238.9802 7810.996 C 8371.9802 7712.996 8460.0188 7536.0192 8496.0188 7431.0192 C 8547.6224 7279.5738 8546.0296 7184.4499 8494.4685 7132.2261 C 8307.693 6829.6611 7691.8941 6066.4005 7118.1701 5306.4978 C 7576.3083 4630.2353 8175.5004 3860.6925 8360.0064 3633.99 C 8362.7069 3630.5972 8364.5682 3626.7349 8365.8976 3622.5696 C 8428.829 3536.2753 8472.0668 3440.5062 8494.9853 3373.0241 C 8582.1728 3118.9616 8519.1039 3023.9632 8323.8329 3023.7947 z M 4752.8365 3041.7781 C 4739.8184 3041.7669 4726.1996 3042.2059 4712.0121 3043.0184 C 4519.9714 3053.2152 4343.862 3110.366 4282.3742 3219.3384 C 4122.3344 3439.4111 3631.9508 4148.4471 3235.5648 4752.1647 C 2767.1523 4140.8055 2345.3758 3609.0035 2153.977 3328.0139 C 2149.0574 3320.7413 2143.1089 3315.7522 2136.7171 3311.7358 L 2136.6654 3311.6841 C 2096.3641 3271.1795 2025.8472 3256.7753 1927.0141 3262.0231 C 1700.0141 3275.0231 1496.0004 3353.0084 1475.0004 3502.0084 C 1453.0004 3651.0084 1475.9915 3897.0213 1577.9915 4011.0213 C 1583.0378 4016.4838 1588.0027 4021.3441 1592.926 4026.1108 C 1738.4424 4201.8952 2327.0427 4893.6556 2779.0552 5476.3582 C 2384.7648 6129.1871 1697.996 7269.3048 1505.4378 7587.1337 C 1501.1367 7593.3695 1497.2978 7599.8087 1493.8106 7606.409 C 1492.9775 7607.7836 1488.8342 7614.6825 1488.0229 7616.0209 C 1485.3943 7620.4815 1483.9769 7625.6204 1483.1136 7631.0587 C 1479.4273 7641.6455 1476.6097 7652.5582 1475.0004 7663.9766 C 1453.0004 7813.9766 1475.9915 8059.9894 1577.9915 8172.9894 C 1674.9915 8278.9894 1747.004 8253.0242 1882.004 8154.0242 C 1935.2974 8114.7553 1981.2259 8062.7026 2019.6183 8007.7799 C 2025.7272 8002.1965 2031.3965 7995.9107 2035.9997 7987.9878 C 2041.4944 7978.5566 2052.868 7957.306 2060.081 7944.4246 C 2067.4868 7931.7107 2074.4765 7919.1209 2081.0616 7906.5974 C 2254.4931 7590.8736 2740.8622 6652.8481 3141.5653 5967.491 C 3556.0805 6571.9732 4184.3582 7543.2413 4340.9753 7822.985 C 4344.5434 7829.3141 4349.4308 7833.6627 4354.7212 7837.0926 C 4357.7409 7840.8563 4360.8516 7844.483 4364.023 7847.9964 C 4461.023 7953.9964 4532.9838 7927.9794 4667.9838 7828.9794 C 4800.9838 7730.9794 4889.0223 7554.0026 4925.0223 7449.0026 C 4971.9106 7311.3958 4974.7599 7220.3904 4936.2361 7165.7124 C 4936.1124 7165.5 4936.1053 7165.1982 4935.9777 7164.989 C 4748.0228 6860.1708 4179.6661 6009.6163 3605.1546 5239.3701 C 4054.6714 4584.8842 4612.2237 3869.2423 4789.01 3652.0251 C 4791.6788 3648.6719 4793.4686 3644.8161 4794.7977 3640.708 C 4857.7778 3554.3819 4901.0595 3458.5216 4923.9888 3391.0075 C 5011.1763 3136.945 4948.1075 3041.9466 4752.8365 3041.7781 z " />
   
  
</svg>
