<?xml version="1.0" encoding="UTF-8" standalone="no"?>
<svg
   version="1.2"
   width="100mm"
   height="100mm"
   viewBox="0 0 10000 10000"
   preserveAspectRatio="xMidYMid"
   fill-rule="evenodd"
   stroke-width="28.222"
   stroke-linejoin="round"
   xml:space="preserve"
   id="svg26"
   sodipodi:docname="gobo-caps-E00F.svg"
   inkscape:version="1.4 (86a8ad7, 2024-10-11)"
   xmlns:inkscape="http://www.inkscape.org/namespaces/inkscape"
   xmlns:sodipodi="http://sodipodi.sourceforge.net/DTD/sodipodi-0.dtd"
   xmlns="http://www.w3.org/2000/svg"
   xmlns:svg="http://www.w3.org/2000/svg"
   xmlns:ooo="http://xml.openoffice.org/svg/export"><sodipodi:namedview
   id="namedview26"
   pagecolor="#ffffff"
   bordercolor="#000000"
   borderopacity="0.25"
   inkscape:showpageshadow="2"
   inkscape:pageopacity="0.0"
   inkscape:pagecheckerboard="0"
   inkscape:deskcolor="#d1d1d1"
   inkscape:document-units="mm"
   showgrid="false"
   inkscape:zoom="3.0876875"
   inkscape:cx="188.81444"
   inkscape:cy="188.97638"
   inkscape:window-width="2560"
   inkscape:window-height="1369"
   inkscape:window-x="-8"
   inkscape:window-y="-8"
   inkscape:window-maximized="1"
   inkscape:current-layer="svg26" />
 <defs
   class="ClipPathGroup"
   id="defs2">
  
  <clipPath
   id="presentation_clip_path_shrink"
   clipPathUnits="userSpaceOnUse">
   <rect
   x="10"
   y="10"
   width="9980"
   height="9980"
   id="rect2" />
  </clipPath>
 
  
 
   
  
    
   
     
    
      
      
      
      
      
      
      
      
      
      
      
     
       
      
       
      
       
      
       
      
       
      
       
      
       
      
       
      
       
      
       
      
       
      
        
        
       
        
        
       
        
        
       
        
        
       
        
        
       
        
        
       
        
        
       
        
        
       
        
        
       
        
        
       
        
        
       </defs>
 <defs
   class="TextShapeIndex"
   id="defs3">
  <g
   ooo:slide="id1"
   ooo:id-list="id3 id4 id5 id6 id7 id8 id9 id10 id11 id12 id13"
   id="g2" />
 </defs>
 <defs
   class="EmbeddedBulletChars"
   id="defs12">
  <g
   id="bullet-char-template-57356"
   transform="scale(0.00048828125,-0.00048828125)">
   <path
   d="M 580,1141 L 1163,571 580,0 -4,571 580,1141 Z"
   id="path3" />
  </g>
  <g
   id="bullet-char-template-57354"
   transform="scale(0.00048828125,-0.00048828125)">
   <path
   d="M 8,1128 L 1137,1128 1137,0 8,0 8,1128 Z"
   id="path4" />
  </g>
  <g
   id="bullet-char-template-10146"
   transform="scale(0.00048828125,-0.00048828125)">
   <path
   d="M 174,0 L 602,739 174,1481 1456,739 174,0 Z M 1358,739 L 309,1346 659,739 1358,739 Z"
   id="path5" />
  </g>
  <g
   id="bullet-char-template-10132"
   transform="scale(0.00048828125,-0.00048828125)">
   <path
   d="M 2015,739 L 1276,0 717,0 1260,543 174,543 174,936 1260,936 717,1481 1274,1481 2015,739 Z"
   id="path6" />
  </g>
  <g
   id="bullet-char-template-10007"
   transform="scale(0.00048828125,-0.00048828125)">
   <path
   d="M 0,-2 C -7,14 -16,27 -25,37 L 356,567 C 262,823 215,952 215,954 215,979 228,992 255,992 264,992 276,990 289,987 310,991 331,999 354,1012 L 381,999 492,748 772,1049 836,1024 860,1049 C 881,1039 901,1025 922,1006 886,937 835,863 770,784 769,783 710,716 594,584 L 774,223 C 774,196 753,168 711,139 L 727,119 C 717,90 699,76 672,76 641,76 570,178 457,381 L 164,-76 C 142,-110 111,-127 72,-127 30,-127 9,-110 8,-76 1,-67 -2,-52 -2,-32 -2,-23 -1,-13 0,-2 Z"
   id="path7" />
  </g>
  <g
   id="bullet-char-template-10004"
   transform="scale(0.00048828125,-0.00048828125)">
   <path
   d="M 285,-33 C 182,-33 111,30 74,156 52,228 41,333 41,471 41,549 55,616 82,672 116,743 169,778 240,778 293,778 328,747 346,684 L 369,508 C 377,444 397,411 428,410 L 1163,1116 C 1174,1127 1196,1133 1229,1133 1271,1133 1292,1118 1292,1087 L 1292,965 C 1292,929 1282,901 1262,881 L 442,47 C 390,-6 338,-33 285,-33 Z"
   id="path8" />
  </g>
  <g
   id="bullet-char-template-9679"
   transform="scale(0.00048828125,-0.00048828125)">
   <path
   d="M 813,0 C 632,0 489,54 383,161 276,268 223,411 223,592 223,773 276,916 383,1023 489,1130 632,1184 813,1184 992,1184 1136,1130 1245,1023 1353,916 1407,772 1407,592 1407,412 1353,268 1245,161 1136,54 992,0 813,0 Z"
   id="path9" />
  </g>
  <g
   id="bullet-char-template-8226"
   transform="scale(0.00048828125,-0.00048828125)">
   <path
   d="M 346,457 C 273,457 209,483 155,535 101,586 74,649 74,723 74,796 101,859 155,911 209,963 273,989 346,989 419,989 480,963 531,910 582,859 608,796 608,723 608,648 583,586 532,535 482,483 420,457 346,457 Z"
   id="path10" />
  </g>
  <g
   id="bullet-char-template-8211"
   transform="scale(0.00048828125,-0.00048828125)">
   <path
   d="M -4,459 L 1135,459 1135,606 -4,606 -4,459 Z"
   id="path11" />
  </g>
  <g
   id="bullet-char-template-61548"
   transform="scale(0.00048828125,-0.00048828125)">
   <path
   d="M 173,740 C 173,903 231,1043 346,1159 462,1274 601,1332 765,1332 928,1332 1067,1274 1183,1159 1299,1043 1357,903 1357,740 1357,577 1299,437 1183,322 1067,206 928,148 765,148 601,148 462,206 346,322 231,437 173,577 173,740 Z"
   id="path12" />
  </g>
 </defs>
 
 <path
   id="path13"
   d="M 7391.5384 3162.4426 C 6896.3049 3158.9503 6296.0881 3235.0815 5610.4585 3360.26 C 5402.7305 3380.1817 5221.7211 3457.4419 5202.9899 3596.9897 C 5194.8083 3649.9922 5192.6186 3715.3168 5197.5638 3782.5598 C 5197.7902 3786.406 5197.6029 3790.0692 5197.9773 3793.9803 C 5254.9773 4273.9803 5225.0166 5208.0191 5230.0166 5825.0191 C 5233.0166 6442.0191 5261.0087 7480.0003 5276.0087 7825.0003 C 5276.0226 7825.3301 5276.0959 7825.6025 5276.112 7825.9305 C 5280.8368 7958.4226 5313.2461 8106.6891 5385.9761 8187.9756 C 5482.9761 8292.9756 5554.9886 8268.0104 5689.9886 8169.0104 C 5823.9886 8071.0104 5910.9936 7894 5945.9936 7788 C 5969.8123 7718.8489 5982.3075 7661.5188 5984.0791 7614.5739 C 5986.0748 7605.0079 5987.3979 7595.4527 5987.0247 7585.9968 C 5975.9853 7313.4619 5922.0163 6985.7919 5885.4288 6509.2667 C 7941.1819 6264.3287 9051.2486 5754.882 9015.0052 4407.9996 C 8989.4115 3504.9996 8405.6677 3169.5941 7391.5384 3162.4426 z M 3248.3805 3166.8351 C 2733.5235 3165.959 2106.7377 3247.0948 1386.582 3379.742 C 1338.5531 3384.9309 1292.1487 3393.1867 1249.0194 3404.65 C 1248.3305 3404.7811 1247.693 3404.8806 1247.004 3405.0118 C 1233.7887 3406.9469 1222.5648 3410.7539 1212.3291 3415.4504 C 1092.4033 3454.3204 1004.7001 3520.2659 991.98079 3615.0248 C 968.98079 3764.0248 991.99006 4009.986 1093.9901 4123.986 C 1169.571 4206.5795 1230.1197 4208.8001 1316.9739 4159.0226 C 1395.5523 4610.6836 1414.2014 5287.9184 1418.9831 5877.9874 C 1421.9495 6488.063 1249.3196 7568.9651 1293.7711 7840.6583 C 1302.256 7964.4908 1335.0159 8096.1818 1401.9816 8171.0257 C 1498.9816 8276.0257 1570.994 8251.0088 1705.994 8152.0088 C 1839.994 8054.0088 1926.9991 7876.9985 1961.9991 7770.9985 C 1975.1893 7732.7043 1984.8201 7698.1283 1991.1963 7666.8188 C 1995.1248 7651.3174 1998.3544 7635.513 1999.9813 7619.0181 C 2026.3261 7351.1791 2042.3474 7003.2328 2044.423 6477.124 C 3935.5611 6219.3204 4949.7027 5697.6906 4914.9971 4407.0178 C 4889.4034 3504.0178 4295.3345 3168.6167 3248.3805 3166.8351 z M 3105.8569 3918.7272 C 3798.0932 3926.276 4261.7696 4148.2393 4293.0196 4661.9893 C 4341.2955 5439.1377 3116.5496 5639.0325 2038.997 5703.9929 C 2028.3373 4983.4653 2011.1309 4472.5418 2015.6909 4039.9084 C 2414.3063 3959.0412 2785.106 3915.2294 3105.8569 3918.7272 z M 7205.9167 3918.9856 C 7898.2409 3926.2903 8362.1345 4148.2393 8394.0095 4661.9893 C 8442.2568 5454.2097 7168.8645 5646.3893 6076.7867 5708.3337 C 6053.7179 5706.6525 6028.4681 5706.5768 6000.9773 5708.0236 C 5949.301 5710.9831 5899.0606 5717.4049 5851.7358 5727.0922 C 5844.9223 5126.2398 5860.2823 4559.102 5876.0237 4093.2902 C 6366.1841 3978.2942 6821.6685 3914.9314 7205.9167 3918.9856 z " />
   
  
</svg>
