<?xml version="1.0" encoding="UTF-8" standalone="no"?>
<svg
   version="1.2"
   width="100mm"
   height="100mm"
   viewBox="0 0 10000 10000"
   preserveAspectRatio="xMidYMid"
   fill-rule="evenodd"
   stroke-width="28.222"
   stroke-linejoin="round"
   xml:space="preserve"
   id="svg21"
   sodipodi:docname="gobo-caps-E002.svg"
   inkscape:version="1.4 (86a8ad7, 2024-10-11)"
   xmlns:inkscape="http://www.inkscape.org/namespaces/inkscape"
   xmlns:sodipodi="http://sodipodi.sourceforge.net/DTD/sodipodi-0.dtd"
   xmlns="http://www.w3.org/2000/svg"
   xmlns:svg="http://www.w3.org/2000/svg"
   xmlns:ooo="http://xml.openoffice.org/svg/export"><sodipodi:namedview
   id="namedview21"
   pagecolor="#ffffff"
   bordercolor="#000000"
   borderopacity="0.25"
   inkscape:showpageshadow="2"
   inkscape:pageopacity="0.0"
   inkscape:pagecheckerboard="0"
   inkscape:deskcolor="#d1d1d1"
   inkscape:document-units="mm"
   showgrid="false"
   inkscape:zoom="3.0876875"
   inkscape:cx="188.81444"
   inkscape:cy="188.97638"
   inkscape:window-width="2560"
   inkscape:window-height="1369"
   inkscape:window-x="-8"
   inkscape:window-y="-8"
   inkscape:window-maximized="1"
   inkscape:current-layer="svg21" />
 <defs
   class="ClipPathGroup"
   id="defs2">
  
  <clipPath
   id="presentation_clip_path_shrink"
   clipPathUnits="userSpaceOnUse">
   <rect
   x="10"
   y="10"
   width="9980"
   height="9980"
   id="rect2" />
  </clipPath>
 
  
 
   
  
    
   
     
    
      
      
      
      
      
      
     
       
      
       
      
       
      
       
      
       
      
       
      
        
        
       
        
        
       
        
        
       
        
        
       
        
        
       
        
        
       </defs>
 <defs
   class="TextShapeIndex"
   id="defs3">
  <g
   ooo:slide="id1"
   ooo:id-list="id3 id4 id5 id6 id7 id8"
   id="g2" />
 </defs>
 <defs
   class="EmbeddedBulletChars"
   id="defs12">
  <g
   id="bullet-char-template-57356"
   transform="scale(0.00048828125,-0.00048828125)">
   <path
   d="M 580,1141 L 1163,571 580,0 -4,571 580,1141 Z"
   id="path3" />
  </g>
  <g
   id="bullet-char-template-57354"
   transform="scale(0.00048828125,-0.00048828125)">
   <path
   d="M 8,1128 L 1137,1128 1137,0 8,0 8,1128 Z"
   id="path4" />
  </g>
  <g
   id="bullet-char-template-10146"
   transform="scale(0.00048828125,-0.00048828125)">
   <path
   d="M 174,0 L 602,739 174,1481 1456,739 174,0 Z M 1358,739 L 309,1346 659,739 1358,739 Z"
   id="path5" />
  </g>
  <g
   id="bullet-char-template-10132"
   transform="scale(0.00048828125,-0.00048828125)">
   <path
   d="M 2015,739 L 1276,0 717,0 1260,543 174,543 174,936 1260,936 717,1481 1274,1481 2015,739 Z"
   id="path6" />
  </g>
  <g
   id="bullet-char-template-10007"
   transform="scale(0.00048828125,-0.00048828125)">
   <path
   d="M 0,-2 C -7,14 -16,27 -25,37 L 356,567 C 262,823 215,952 215,954 215,979 228,992 255,992 264,992 276,990 289,987 310,991 331,999 354,1012 L 381,999 492,748 772,1049 836,1024 860,1049 C 881,1039 901,1025 922,1006 886,937 835,863 770,784 769,783 710,716 594,584 L 774,223 C 774,196 753,168 711,139 L 727,119 C 717,90 699,76 672,76 641,76 570,178 457,381 L 164,-76 C 142,-110 111,-127 72,-127 30,-127 9,-110 8,-76 1,-67 -2,-52 -2,-32 -2,-23 -1,-13 0,-2 Z"
   id="path7" />
  </g>
  <g
   id="bullet-char-template-10004"
   transform="scale(0.00048828125,-0.00048828125)">
   <path
   d="M 285,-33 C 182,-33 111,30 74,156 52,228 41,333 41,471 41,549 55,616 82,672 116,743 169,778 240,778 293,778 328,747 346,684 L 369,508 C 377,444 397,411 428,410 L 1163,1116 C 1174,1127 1196,1133 1229,1133 1271,1133 1292,1118 1292,1087 L 1292,965 C 1292,929 1282,901 1262,881 L 442,47 C 390,-6 338,-33 285,-33 Z"
   id="path8" />
  </g>
  <g
   id="bullet-char-template-9679"
   transform="scale(0.00048828125,-0.00048828125)">
   <path
   d="M 813,0 C 632,0 489,54 383,161 276,268 223,411 223,592 223,773 276,916 383,1023 489,1130 632,1184 813,1184 992,1184 1136,1130 1245,1023 1353,916 1407,772 1407,592 1407,412 1353,268 1245,161 1136,54 992,0 813,0 Z"
   id="path9" />
  </g>
  <g
   id="bullet-char-template-8226"
   transform="scale(0.00048828125,-0.00048828125)">
   <path
   d="M 346,457 C 273,457 209,483 155,535 101,586 74,649 74,723 74,796 101,859 155,911 209,963 273,989 346,989 419,989 480,963 531,910 582,859 608,796 608,723 608,648 583,586 532,535 482,483 420,457 346,457 Z"
   id="path10" />
  </g>
  <g
   id="bullet-char-template-8211"
   transform="scale(0.00048828125,-0.00048828125)">
   <path
   d="M -4,459 L 1135,459 1135,606 -4,606 -4,459 Z"
   id="path11" />
  </g>
  <g
   id="bullet-char-template-61548"
   transform="scale(0.00048828125,-0.00048828125)">
   <path
   d="M 173,740 C 173,903 231,1043 346,1159 462,1274 601,1332 765,1332 928,1332 1067,1274 1183,1159 1299,1043 1357,903 1357,740 1357,577 1299,437 1183,322 1067,206 928,148 765,148 601,148 462,206 346,322 231,437 173,577 173,740 Z"
   id="path12" />
  </g>
 </defs>
 
 <path
   id="path13"
   d="M 3790.4663 3100.2242 C 3691.4819 3098.4312 3587.8693 3105.23 3479.9943 3121.98 C 2616.9943 3255.98 1611.0114 4290.0224 1295.0114 5728.0224 C 979.01138 7166.0224 1851.0241 8118.0082 2906.0241 8078.0082 C 3894.8394 8040.5175 4283.6145 7789.5133 4477.8662 7666.5604 C 4487.4295 7660.9112 4497.2768 7654.7805 4507.5284 7647.9569 C 4510.3656 7646.1942 4514.2391 7643.6982 4516.9852 7642.0141 C 4517.6216 7641.6257 4518.0483 7640.835 4518.6389 7640.3605 C 4529.6956 7632.7699 4541.031 7624.8009 4553.0037 7616.0209 C 4686.0037 7519.0209 4772.9906 7340.9924 4809.9906 7235.9924 C 4901.9906 6965.9924 4824.9804 6875.0214 4596.9804 6887.0214 C 4444.7579 6895.739 4303.4071 6933.2605 4220.4142 7001.9498 C 3979.9234 7166.7533 3598.553 7356.0349 2984.9857 7323.9973 C 2352.9857 7290.9973 1831.0206 6711.0195 1864.0206 6030.0195 C 1897.0206 5350.0195 2151.9896 4792.0153 2625.9896 4279.0153 C 3098.9896 3765.0153 4052.015 3498.0043 4410.015 4459.0043 C 4414.5382 4470.5753 4419.789 4480.6129 4425.4146 4489.8034 C 4441.6675 4531.0303 4462.3437 4567.6081 4487.9948 4595.9985 C 4583.9948 4701.9985 4657.0072 4675.9816 4792.0072 4576.9816 C 4925.0072 4477.9816 5012.0122 4302.0229 5048.0122 4196.0229 C 5081.9758 4097.054 5093.0064 4022.3078 5082.4288 3967.8198 C 5082.046 3959.9968 5081.1148 3952.5965 5079.0181 3946.0123 C 4950.3931 3547.0123 4483.3569 3112.775 3790.4663 3100.2242 z M 7390.4532 3100.2242 C 7291.4689 3098.4312 7187.8562 3105.23 7079.9812 3121.98 C 6216.9812 3255.98 5210.9983 4290.0224 4894.9983 5728.0224 C 4578.9983 7166.0224 5536.0118 8155.0063 6748.0118 8024.0063 C 7874.2742 7902.3737 8251.7409 7602.4996 8524.2858 7318.468 C 8537.8403 7305.6754 8550.7541 7292.0728 8563.1465 7277.9536 C 8570.887 7269.6796 8579.3946 7261.2195 8587.021 7252.9939 C 8592.7995 7246.7456 8597.017 7239.3741 8600.5086 7231.4965 C 8665.1471 7144.2026 8710.0677 7045.9078 8733.9888 6978.0236 C 8825.9888 6708.0236 8748.9785 6617.001 8520.9785 6629.001 C 8360.6738 6638.1815 8212.4747 6679.3115 8131.7516 6755.1432 C 8124.2486 6759.922 8116.9182 6765.3265 8109.9959 6771.9897 C 7771.9959 7038.9897 7327.025 7256.9804 6659.025 7304.9804 C 5992.025 7353.9804 5431.0075 6711.0195 5464.0075 6030.0195 C 5497.0075 5350.0195 5751.9765 4792.0153 6225.9765 4279.0153 C 6698.9765 3765.0153 7652.002 3498.0043 8010.002 4459.0043 C 8014.5313 4470.591 8019.7669 4480.6552 8025.4016 4489.8551 C 8041.6518 4531.0639 8062.3399 4567.6182 8087.9817 4595.9985 C 8183.9817 4701.9985 8256.9942 4675.9816 8391.9942 4576.9816 C 8524.9942 4477.9816 8611.9992 4302.0229 8647.9992 4196.0229 C 8681.9627 4097.054 8692.9933 4022.3078 8682.4157 3967.8198 C 8682.033 3959.9968 8681.1017 3952.5966 8679.0051 3946.0123 C 8550.3801 3547.0123 8083.3439 3112.775 7390.4532 3100.2242 z " />
   
  
</svg>
