<?xml version="1.0" encoding="UTF-8" standalone="no"?>
<svg
   version="1.2"
   width="100mm"
   height="100mm"
   viewBox="0 0 10000 10000"
   preserveAspectRatio="xMidYMid"
   fill-rule="evenodd"
   stroke-width="28.222"
   stroke-linejoin="round"
   xml:space="preserve"
   id="svg33"
   sodipodi:docname="gobo-caps-E007.svg"
   inkscape:version="1.4 (86a8ad7, 2024-10-11)"
   xmlns:inkscape="http://www.inkscape.org/namespaces/inkscape"
   xmlns:sodipodi="http://sodipodi.sourceforge.net/DTD/sodipodi-0.dtd"
   xmlns="http://www.w3.org/2000/svg"
   xmlns:svg="http://www.w3.org/2000/svg"
   xmlns:ooo="http://xml.openoffice.org/svg/export"><sodipodi:namedview
   id="namedview33"
   pagecolor="#ffffff"
   bordercolor="#000000"
   borderopacity="0.25"
   inkscape:showpageshadow="2"
   inkscape:pageopacity="0.0"
   inkscape:pagecheckerboard="0"
   inkscape:deskcolor="#d1d1d1"
   inkscape:document-units="mm"
   showgrid="false"
   inkscape:zoom="3.0876875"
   inkscape:cx="188.81444"
   inkscape:cy="188.97638"
   inkscape:window-width="2560"
   inkscape:window-height="1369"
   inkscape:window-x="-8"
   inkscape:window-y="-8"
   inkscape:window-maximized="1"
   inkscape:current-layer="svg33" />
 <defs
   class="ClipPathGroup"
   id="defs2">
  
  <clipPath
   id="presentation_clip_path_shrink"
   clipPathUnits="userSpaceOnUse">
   <rect
   x="10"
   y="10"
   width="9980"
   height="9980"
   id="rect2" />
  </clipPath>
 
  
 
   
  
    
   
     
    
      
      
      
      
      
      
      
      
      
      
      
      
      
      
      
      
      
      
     
       
      
       
      
       
      
       
      
       
      
       
      
       
      
       
      
       
      
       
      
       
      
       
      
       
      
       
      
       
      
       
      
       
      
       
      
        
        
       
        
        
       
        
        
       
        
        
       
        
        
       
        
        
       
        
        
       
        
        
       
        
        
       
        
        
       
        
        
       
        
        
       
        
        
       
        
        
       
        
        
       
        
        
       
        
        
       
        
        
       </defs>
 <defs
   class="TextShapeIndex"
   id="defs3">
  <g
   ooo:slide="id1"
   ooo:id-list="id3 id4 id5 id6 id7 id8 id9 id10 id11 id12 id13 id14 id15 id16 id17 id18 id19 id20"
   id="g2" />
 </defs>
 <defs
   class="EmbeddedBulletChars"
   id="defs12">
  <g
   id="bullet-char-template-57356"
   transform="scale(0.00048828125,-0.00048828125)">
   <path
   d="M 580,1141 L 1163,571 580,0 -4,571 580,1141 Z"
   id="path3" />
  </g>
  <g
   id="bullet-char-template-57354"
   transform="scale(0.00048828125,-0.00048828125)">
   <path
   d="M 8,1128 L 1137,1128 1137,0 8,0 8,1128 Z"
   id="path4" />
  </g>
  <g
   id="bullet-char-template-10146"
   transform="scale(0.00048828125,-0.00048828125)">
   <path
   d="M 174,0 L 602,739 174,1481 1456,739 174,0 Z M 1358,739 L 309,1346 659,739 1358,739 Z"
   id="path5" />
  </g>
  <g
   id="bullet-char-template-10132"
   transform="scale(0.00048828125,-0.00048828125)">
   <path
   d="M 2015,739 L 1276,0 717,0 1260,543 174,543 174,936 1260,936 717,1481 1274,1481 2015,739 Z"
   id="path6" />
  </g>
  <g
   id="bullet-char-template-10007"
   transform="scale(0.00048828125,-0.00048828125)">
   <path
   d="M 0,-2 C -7,14 -16,27 -25,37 L 356,567 C 262,823 215,952 215,954 215,979 228,992 255,992 264,992 276,990 289,987 310,991 331,999 354,1012 L 381,999 492,748 772,1049 836,1024 860,1049 C 881,1039 901,1025 922,1006 886,937 835,863 770,784 769,783 710,716 594,584 L 774,223 C 774,196 753,168 711,139 L 727,119 C 717,90 699,76 672,76 641,76 570,178 457,381 L 164,-76 C 142,-110 111,-127 72,-127 30,-127 9,-110 8,-76 1,-67 -2,-52 -2,-32 -2,-23 -1,-13 0,-2 Z"
   id="path7" />
  </g>
  <g
   id="bullet-char-template-10004"
   transform="scale(0.00048828125,-0.00048828125)">
   <path
   d="M 285,-33 C 182,-33 111,30 74,156 52,228 41,333 41,471 41,549 55,616 82,672 116,743 169,778 240,778 293,778 328,747 346,684 L 369,508 C 377,444 397,411 428,410 L 1163,1116 C 1174,1127 1196,1133 1229,1133 1271,1133 1292,1118 1292,1087 L 1292,965 C 1292,929 1282,901 1262,881 L 442,47 C 390,-6 338,-33 285,-33 Z"
   id="path8" />
  </g>
  <g
   id="bullet-char-template-9679"
   transform="scale(0.00048828125,-0.00048828125)">
   <path
   d="M 813,0 C 632,0 489,54 383,161 276,268 223,411 223,592 223,773 276,916 383,1023 489,1130 632,1184 813,1184 992,1184 1136,1130 1245,1023 1353,916 1407,772 1407,592 1407,412 1353,268 1245,161 1136,54 992,0 813,0 Z"
   id="path9" />
  </g>
  <g
   id="bullet-char-template-8226"
   transform="scale(0.00048828125,-0.00048828125)">
   <path
   d="M 346,457 C 273,457 209,483 155,535 101,586 74,649 74,723 74,796 101,859 155,911 209,963 273,989 346,989 419,989 480,963 531,910 582,859 608,796 608,723 608,648 583,586 532,535 482,483 420,457 346,457 Z"
   id="path10" />
  </g>
  <g
   id="bullet-char-template-8211"
   transform="scale(0.00048828125,-0.00048828125)">
   <path
   d="M -4,459 L 1135,459 1135,606 -4,606 -4,459 Z"
   id="path11" />
  </g>
  <g
   id="bullet-char-template-61548"
   transform="scale(0.00048828125,-0.00048828125)">
   <path
   d="M 173,740 C 173,903 231,1043 346,1159 462,1274 601,1332 765,1332 928,1332 1067,1274 1183,1159 1299,1043 1357,903 1357,740 1357,577 1299,437 1183,322 1067,206 928,148 765,148 601,148 462,206 346,322 231,437 173,577 173,740 Z"
   id="path12" />
  </g>
 </defs>
 
 <path
   id="path13"
   d="M 4464.792 3047.9793 C 4451.774 3047.9131 4438.2068 3048.2628 4424.0193 3049.0128 C 4197.0193 3061.0128 3992.9874 3139.0163 3972.9874 3288.0163 C 3964.5479 3345.1751 3962.8008 3416.6192 3969.5251 3489.3994 C 3978.7201 3729.3331 4057.0354 4434.3069 4065.695 5502.2998 C 3718.4549 5563.421 3221.1556 5677.0587 2753.9921 5811.0148 C 2318.5576 5936.6813 2019.0236 6036.642 1754.0015 6134.3025 C 1746.3273 6008.8743 1739.7172 5880.4616 1736.0181 5746.0058 C 1710.4792 4954.3018 1790.9557 3931.6164 1837.8723 3519.4234 C 1877.2238 3328.7489 1792.1872 3262.6515 1595.9749 3272.9785 C 1369.9749 3285.9785 1166.9766 3363.0155 1145.9766 3513.0155 C 1144.9463 3519.6895 1144.132 3526.7469 1143.2894 3533.7894 C 1141.4684 3537.1978 1140.2523 3540.6442 1139.9821 3544.0214 C 1115.9821 3885.0214 1097.9845 4641.9801 1099.9845 5362.9801 C 1103.7922 6046.4616 1156.4855 7329.9625 1172.0732 7779.0083 C 1171.6434 7809.6795 1172.6409 7841.7158 1175.4838 7874.1446 C 1175.5607 7876.5082 1175.9272 7885.709 1176.0006 7887.9939 C 1176.0006 7892.0493 1176.7411 7895.6948 1178.1193 7898.9493 C 1190.7388 8008.924 1223.4317 8119.0235 1283.0225 8184.9784 C 1379.0225 8290.9784 1451.9832 8265.0131 1586.9832 8166.0131 C 1719.9832 8068.0131 1806.9883 7891.0028 1842.9883 7785.0028 C 1862.6293 7727.9805 1874.5677 7679.0209 1879.1618 7637.2599 C 1881.4702 7631.9424 1883.0696 7626.7921 1882.9858 7622.0153 C 1879.0201 7440.0861 1848.4698 7182.1823 1815.9098 6867.281 C 2082.9484 6747.2762 2451.9441 6598.4059 2872.0211 6486.9942 C 3476.0817 6326.7868 3786.8234 6298.3296 4054.1711 6280.8052 C 4029.1536 6860.6472 3976.2601 7116.2053 3977.6383 7386.1124 C 3970.121 7534.3734 3999.2587 7729.828 4086.9856 7827.0157 C 4183.9856 7933.0157 4255.9981 7906.9988 4390.9981 7807.9988 C 4523.9981 7710.9988 4611.985 7533.022 4647.985 7428.022 C 4649.9316 7422.309 4651.7189 7416.7806 4653.5144 7411.2272 C 4666.6285 7387.31 4675.8787 7360.1027 4680.0244 7329.01 C 4724.0244 6982.01 4700.9869 6361.006 4701.9869 5447.006 C 4700.9869 4533.006 4728.9755 3466.0071 4676.9755 3186.0071 C 4674.7248 3173.3131 4670.8196 3162.3065 4666.1751 3152.0556 C 4666.1538 3151.9868 4666.1448 3151.9177 4666.1234 3151.8489 C 4643.5828 3079.229 4575.3409 3048.5412 4464.792 3047.9793 z M 8415.817 3061.9836 C 8402.7989 3061.9175 8389.1801 3062.2671 8374.9926 3063.0171 C 8147.9926 3075.0171 7944.0124 3153.0206 7924.0124 3302.0206 C 7912.5615 3379.5747 7913.4694 3483.3048 7931.1954 3581.1251 C 7977.3221 3878.4727 8171.1862 4550.4443 8232.624 5491.9128 C 7844.2445 5561.416 7253.6302 5698.0084 6765.0134 5839.0234 C 6347.1198 5959.4538 6051.4359 6046.0829 5791.326 6131.8221 C 5785.2534 6003.851 5779.7443 5872.872 5775.9781 5735.9806 C 5750.3206 4940.5964 5795.1364 3920.7939 5839.1267 3513.3773 C 5875.4527 3327.3329 5790.1223 3262.761 5595.9891 3272.9785 C 5369.9891 3285.9785 5166.9908 3363.0155 5145.9908 3513.0155 C 5144.9504 3519.7554 5144.101 3526.8806 5143.2519 3533.9961 C 5141.4604 3537.3448 5140.2641 3540.7078 5139.9963 3544.0214 C 5115.9963 3885.0214 5137.9963 4632.0066 5139.9963 5353.0066 C 5143.6968 6017.2426 5160.1136 7267.5484 5172.8625 7752.3433 C 5171.1111 7791.4825 5171.9107 7833.585 5175.7564 7876.315 C 5175.8407 7878.8145 5175.931 7885.5829 5176.0148 7887.9939 C 5176.0148 7892.0493 5176.7572 7895.6948 5178.1335 7898.9493 C 5190.7531 8008.924 5223.3942 8119.0235 5282.985 8184.9784 C 5378.985 8290.9784 5451.9974 8265.0131 5586.9974 8166.0131 C 5719.9974 8068.0131 5807.0025 7891.0028 5843.0025 7785.0028 C 5863.0513 7726.7966 5875.111 7676.9442 5879.486 7634.6244 C 5881.0948 7630.2522 5882.0882 7626.0054 5882.0182 7622.0153 C 5881.9064 7616.1562 5881.4411 7608.6045 5881.2947 7602.585 C 5881.3585 7594.231 5881.0776 7586.2182 5880.4162 7578.5554 C 5875.0526 7401.1545 5856.7413 7160.7336 5836.0778 6869.9682 C 6105.0654 6759.2638 6471.1695 6624.2249 6882.9907 6515.0028 C 7523.7587 6345.06 7953.1891 6290.2241 8249.3155 6267.9895 C 8233.6117 6844.7196 8153.8162 7111.447 8151.8538 7381.3582 C 8143.1029 7530.3721 8171.9462 7730.328 8260.9944 7828.9794 C 8357.9944 7934.9794 8430.0069 7909.0142 8565.0069 7810.0142 C 8698.0069 7713.0142 8785.9937 7534.9857 8821.9937 7429.9857 C 8823.9435 7424.2636 8825.6733 7418.7529 8827.4714 7413.1909 C 8840.5744 7389.2828 8849.838 7362.1016 8853.9815 7331.0253 C 8897.9815 6984.0253 8922.0138 6357.0214 8875.0138 5449.0214 C 8830.0138 4541.0214 8680.9823 3475.9806 8628.9823 3195.9806 C 8625.3428 3175.4541 8618.0705 3158.5996 8608.3634 3144.3559 C 8579.6302 3087.1598 8514.731 3062.4863 8415.817 3061.9836 z " />
   
  
</svg>
