<?xml version="1.0" encoding="UTF-8" standalone="no"?>
<svg
   version="1.2"
   width="100mm"
   height="100mm"
   viewBox="0 0 10000 10000"
   preserveAspectRatio="xMidYMid"
   fill-rule="evenodd"
   stroke-width="28.222"
   stroke-linejoin="round"
   xml:space="preserve"
   id="svg24"
   sodipodi:docname="gobo-caps-E041.svg"
   inkscape:version="1.4 (86a8ad7, 2024-10-11)"
   xmlns:inkscape="http://www.inkscape.org/namespaces/inkscape"
   xmlns:sodipodi="http://sodipodi.sourceforge.net/DTD/sodipodi-0.dtd"
   xmlns="http://www.w3.org/2000/svg"
   xmlns:svg="http://www.w3.org/2000/svg"
   xmlns:ooo="http://xml.openoffice.org/svg/export"><sodipodi:namedview
   id="namedview24"
   pagecolor="#ffffff"
   bordercolor="#000000"
   borderopacity="0.25"
   inkscape:showpageshadow="2"
   inkscape:pageopacity="0.0"
   inkscape:pagecheckerboard="0"
   inkscape:deskcolor="#d1d1d1"
   inkscape:document-units="mm"
   showgrid="false"
   inkscape:zoom="3.0876875"
   inkscape:cx="188.81444"
   inkscape:cy="188.97638"
   inkscape:window-width="2560"
   inkscape:window-height="1369"
   inkscape:window-x="-8"
   inkscape:window-y="-8"
   inkscape:window-maximized="1"
   inkscape:current-layer="svg24" />
 <defs
   class="ClipPathGroup"
   id="defs2">
  
  <clipPath
   id="presentation_clip_path_shrink"
   clipPathUnits="userSpaceOnUse">
   <rect
   x="10"
   y="10"
   width="9980"
   height="9980"
   id="rect2" />
  </clipPath>
 
  
 
   
  
    
   
     
    
      
      
      
      
      
      
      
      
      
     
       
      
       
      
       
      
       
      
       
      
       
      
       
      
       
      
       
      
        
        
       
        
        
       
        
        
       
        
        
       
        
        
       
        
        
       
        
        
       
        
        
       
        
        
       </defs>
 <defs
   class="TextShapeIndex"
   id="defs3">
  <g
   ooo:slide="id1"
   ooo:id-list="id3 id4 id5 id6 id7 id8 id9 id10 id11"
   id="g2" />
 </defs>
 <defs
   class="EmbeddedBulletChars"
   id="defs12">
  <g
   id="bullet-char-template-57356"
   transform="scale(0.00048828125,-0.00048828125)">
   <path
   d="M 580,1141 L 1163,571 580,0 -4,571 580,1141 Z"
   id="path3" />
  </g>
  <g
   id="bullet-char-template-57354"
   transform="scale(0.00048828125,-0.00048828125)">
   <path
   d="M 8,1128 L 1137,1128 1137,0 8,0 8,1128 Z"
   id="path4" />
  </g>
  <g
   id="bullet-char-template-10146"
   transform="scale(0.00048828125,-0.00048828125)">
   <path
   d="M 174,0 L 602,739 174,1481 1456,739 174,0 Z M 1358,739 L 309,1346 659,739 1358,739 Z"
   id="path5" />
  </g>
  <g
   id="bullet-char-template-10132"
   transform="scale(0.00048828125,-0.00048828125)">
   <path
   d="M 2015,739 L 1276,0 717,0 1260,543 174,543 174,936 1260,936 717,1481 1274,1481 2015,739 Z"
   id="path6" />
  </g>
  <g
   id="bullet-char-template-10007"
   transform="scale(0.00048828125,-0.00048828125)">
   <path
   d="M 0,-2 C -7,14 -16,27 -25,37 L 356,567 C 262,823 215,952 215,954 215,979 228,992 255,992 264,992 276,990 289,987 310,991 331,999 354,1012 L 381,999 492,748 772,1049 836,1024 860,1049 C 881,1039 901,1025 922,1006 886,937 835,863 770,784 769,783 710,716 594,584 L 774,223 C 774,196 753,168 711,139 L 727,119 C 717,90 699,76 672,76 641,76 570,178 457,381 L 164,-76 C 142,-110 111,-127 72,-127 30,-127 9,-110 8,-76 1,-67 -2,-52 -2,-32 -2,-23 -1,-13 0,-2 Z"
   id="path7" />
  </g>
  <g
   id="bullet-char-template-10004"
   transform="scale(0.00048828125,-0.00048828125)">
   <path
   d="M 285,-33 C 182,-33 111,30 74,156 52,228 41,333 41,471 41,549 55,616 82,672 116,743 169,778 240,778 293,778 328,747 346,684 L 369,508 C 377,444 397,411 428,410 L 1163,1116 C 1174,1127 1196,1133 1229,1133 1271,1133 1292,1118 1292,1087 L 1292,965 C 1292,929 1282,901 1262,881 L 442,47 C 390,-6 338,-33 285,-33 Z"
   id="path8" />
  </g>
  <g
   id="bullet-char-template-9679"
   transform="scale(0.00048828125,-0.00048828125)">
   <path
   d="M 813,0 C 632,0 489,54 383,161 276,268 223,411 223,592 223,773 276,916 383,1023 489,1130 632,1184 813,1184 992,1184 1136,1130 1245,1023 1353,916 1407,772 1407,592 1407,412 1353,268 1245,161 1136,54 992,0 813,0 Z"
   id="path9" />
  </g>
  <g
   id="bullet-char-template-8226"
   transform="scale(0.00048828125,-0.00048828125)">
   <path
   d="M 346,457 C 273,457 209,483 155,535 101,586 74,649 74,723 74,796 101,859 155,911 209,963 273,989 346,989 419,989 480,963 531,910 582,859 608,796 608,723 608,648 583,586 532,535 482,483 420,457 346,457 Z"
   id="path10" />
  </g>
  <g
   id="bullet-char-template-8211"
   transform="scale(0.00048828125,-0.00048828125)">
   <path
   d="M -4,459 L 1135,459 1135,606 -4,606 -4,459 Z"
   id="path11" />
  </g>
  <g
   id="bullet-char-template-61548"
   transform="scale(0.00048828125,-0.00048828125)">
   <path
   d="M 173,740 C 173,903 231,1043 346,1159 462,1274 601,1332 765,1332 928,1332 1067,1274 1183,1159 1299,1043 1357,903 1357,740 1357,577 1299,437 1183,322 1067,206 928,148 765,148 601,148 462,206 346,322 231,437 173,577 173,740 Z"
   id="path12" />
  </g>
 </defs>
 
 <path
   id="path13"
   d="M 5287.9976 2589.9711 C 5274.9317 2589.8978 5261.2682 2590.2546 5247.0182 2591.0046 C 5113.9489 2598.659 4988.5266 2628.5009 4903.5766 2682.3686 C 4750.7196 2765.9981 4531.2815 2907.1153 4276.9999 3072.9907 C 3997.9999 3252.9907 3707.0131 3468.9842 3553.0131 3602.9842 C 3552.9056 3603.0791 3552.8101 3603.1988 3552.703 3603.2942 C 3507.2778 3638.218 3477.3999 3681.6269 3470.0207 3733.9839 C 3447.0207 3883.9839 3470.0119 4129.9968 3573.0119 4242.9968 C 3648.7101 4326.5803 3710.2222 4327.8619 3798.9929 4276.2247 C 3807.9414 4272.2762 3816.9541 4267.5121 3826.0197 4260.9802 C 3832.4146 4256.3445 3839.0131 4251.1486 3845.45 4246.4074 C 3855.6264 4239.3715 3866.0779 4232.0072 3877.0243 4223.9799 C 3886.3114 4217.2065 3895.3176 4209.9936 3904.1544 4202.4825 C 4112.162 4043.0532 4335.2313 3843.6201 4519.0006 3721.995 C 4725.6792 3586.2062 4907.4068 3481.3524 5083.1522 3393.4363 C 5118.3315 3379.0366 5157.3773 3353.9597 5204.0234 3320.004 C 5337.0234 3223.004 5423.9768 3045.9756 5459.9768 2939.9756 C 5546.2268 2686.8506 5483.9864 2591.0697 5287.9976 2589.9711 z M 6328.9676 5058.9677 C 6315.9017 5058.8944 6302.2382 5059.2512 6287.9882 5060.0012 C 6263.1808 5061.4282 6238.7237 5063.7897 6214.6594 5066.7708 C 5946.4757 5079.7883 5345.1922 5165.1009 5023.0009 5210.9997 C 4697.4028 5257.3838 4236.5443 5333.2198 4021.3566 5384.9943 C 3840.0668 5413.0179 3692.7358 5487.3011 3675.0211 5612.9907 C 3652.0211 5762.9907 3675.0123 6009.0035 3778.0123 6122.0035 C 3803.4858 6150.1306 3827.3116 6168.8784 3851.1344 6179.5194 C 3877.9119 6194.0253 3911.4646 6197.1349 3952.9887 6184.9971 C 4277.9887 6090.9971 4549.9796 5998.981 4989.9796 5940.981 C 5429.9796 5882.981 5755.993 5866.021 6039.993 5879.021 C 6052.4639 5879.5938 6064.648 5877.9912 6076.6833 5875.4553 C 6124.1244 5870.2202 6176.4185 5838.9191 6244.9934 5789.0006 C 6377.9934 5692.0006 6464.9985 5515.0238 6500.9985 5409.0238 C 6587.2485 5155.8988 6524.9564 5060.0663 6328.9676 5058.9677 z M 4043.009 7369.8343 C 4029.936 7369.8089 4016.2279 7370.2104 4001.9779 7371.0229 C 3775.9779 7384.0229 3572.9795 7460.9747 3551.9795 7609.9747 C 3528.9795 7759.9747 3552.0224 8005.9876 3655.0224 8118.9876 C 3691.9067 8159.7141 3725.3724 8180.8589 3760.2872 8185.9602 C 3764.353 8186.8358 3768.5737 8187.5364 3772.9996 8187.9756 C 4032.9996 8213.9756 4273.9828 8222.9778 4556.9828 8278.9778 C 4839.9828 8335.9778 5242.017 8446.0219 5435.017 8530.0219 C 5444.0876 8533.9697 5453.7188 8535.2877 5463.6458 8535.3446 C 5520.8487 8545.8132 5581.1914 8512.4333 5666.9926 8449.9751 C 5799.9926 8352.9751 5886.9976 8175.9983 5922.9976 8069.9983 C 5998.252 7849.1431 5960.3829 7748.1277 5819.3347 7725.2132 C 5618.7835 7676.6359 5214.8143 7574.2488 4869.0051 7500.0073 C 4527.2507 7426.6363 4296.8042 7388.8966 4103.9872 7373.7617 C 4085.3127 7371.1968 4065.0765 7369.8772 4043.009 7369.8343 z " />
   
  
</svg>
