<?xml version="1.0" encoding="UTF-8" standalone="no"?>
<svg
   version="1.2"
   width="100mm"
   height="100mm"
   viewBox="0 0 10000 10000"
   preserveAspectRatio="xMidYMid"
   fill-rule="evenodd"
   stroke-width="28.222"
   stroke-linejoin="round"
   xml:space="preserve"
   id="svg33"
   sodipodi:docname="gobo-caps-E016.svg"
   inkscape:version="1.4 (86a8ad7, 2024-10-11)"
   xmlns:inkscape="http://www.inkscape.org/namespaces/inkscape"
   xmlns:sodipodi="http://sodipodi.sourceforge.net/DTD/sodipodi-0.dtd"
   xmlns="http://www.w3.org/2000/svg"
   xmlns:svg="http://www.w3.org/2000/svg"
   xmlns:ooo="http://xml.openoffice.org/svg/export"><sodipodi:namedview
   id="namedview33"
   pagecolor="#ffffff"
   bordercolor="#000000"
   borderopacity="0.25"
   inkscape:showpageshadow="2"
   inkscape:pageopacity="0.0"
   inkscape:pagecheckerboard="0"
   inkscape:deskcolor="#d1d1d1"
   inkscape:document-units="mm"
   showgrid="false"
   inkscape:zoom="3.0876875"
   inkscape:cx="188.81444"
   inkscape:cy="188.97638"
   inkscape:window-width="2560"
   inkscape:window-height="1369"
   inkscape:window-x="-8"
   inkscape:window-y="-8"
   inkscape:window-maximized="1"
   inkscape:current-layer="svg33" />
 <defs
   class="ClipPathGroup"
   id="defs2">
  
  <clipPath
   id="presentation_clip_path_shrink"
   clipPathUnits="userSpaceOnUse">
   <rect
   x="10"
   y="10"
   width="9980"
   height="9980"
   id="rect2" />
  </clipPath>
 
  
 
   
  
    
   
     
    
      
      
      
      
      
      
      
      
      
      
      
      
      
      
      
      
      
      
     
       
      
       
      
       
      
       
      
       
      
       
      
       
      
       
      
       
      
       
      
       
      
       
      
       
      
       
      
       
      
       
      
       
      
       
      
        
        
       
        
        
       
        
        
       
        
        
       
        
        
       
        
        
       
        
        
       
        
        
       
        
        
       
        
        
       
        
        
       
        
        
       
        
        
       
        
        
       
        
        
       
        
        
       <clipPath
   clipPathUnits="userSpaceOnUse"
   id="clipPath35"><rect
     x="0"
     y="0"
     width="10000"
     height="10000"
     id="rect36"
     style="stroke-width:28.222" /></clipPath>
        
        
       
        
        
       </defs>
 <defs
   class="TextShapeIndex"
   id="defs3">
  <g
   ooo:slide="id1"
   ooo:id-list="id3 id4 id5 id6 id7 id8 id9 id10 id11 id12 id13 id14 id15 id16 id17 id18 id19 id20"
   id="g2" />
 </defs>
 <defs
   class="EmbeddedBulletChars"
   id="defs12">
  <g
   id="bullet-char-template-57356"
   transform="scale(0.00048828125,-0.00048828125)">
   <path
   d="M 580,1141 L 1163,571 580,0 -4,571 580,1141 Z"
   id="path3" />
  </g>
  <g
   id="bullet-char-template-57354"
   transform="scale(0.00048828125,-0.00048828125)">
   <path
   d="M 8,1128 L 1137,1128 1137,0 8,0 8,1128 Z"
   id="path4" />
  </g>
  <g
   id="bullet-char-template-10146"
   transform="scale(0.00048828125,-0.00048828125)">
   <path
   d="M 174,0 L 602,739 174,1481 1456,739 174,0 Z M 1358,739 L 309,1346 659,739 1358,739 Z"
   id="path5" />
  </g>
  <g
   id="bullet-char-template-10132"
   transform="scale(0.00048828125,-0.00048828125)">
   <path
   d="M 2015,739 L 1276,0 717,0 1260,543 174,543 174,936 1260,936 717,1481 1274,1481 2015,739 Z"
   id="path6" />
  </g>
  <g
   id="bullet-char-template-10007"
   transform="scale(0.00048828125,-0.00048828125)">
   <path
   d="M 0,-2 C -7,14 -16,27 -25,37 L 356,567 C 262,823 215,952 215,954 215,979 228,992 255,992 264,992 276,990 289,987 310,991 331,999 354,1012 L 381,999 492,748 772,1049 836,1024 860,1049 C 881,1039 901,1025 922,1006 886,937 835,863 770,784 769,783 710,716 594,584 L 774,223 C 774,196 753,168 711,139 L 727,119 C 717,90 699,76 672,76 641,76 570,178 457,381 L 164,-76 C 142,-110 111,-127 72,-127 30,-127 9,-110 8,-76 1,-67 -2,-52 -2,-32 -2,-23 -1,-13 0,-2 Z"
   id="path7" />
  </g>
  <g
   id="bullet-char-template-10004"
   transform="scale(0.00048828125,-0.00048828125)">
   <path
   d="M 285,-33 C 182,-33 111,30 74,156 52,228 41,333 41,471 41,549 55,616 82,672 116,743 169,778 240,778 293,778 328,747 346,684 L 369,508 C 377,444 397,411 428,410 L 1163,1116 C 1174,1127 1196,1133 1229,1133 1271,1133 1292,1118 1292,1087 L 1292,965 C 1292,929 1282,901 1262,881 L 442,47 C 390,-6 338,-33 285,-33 Z"
   id="path8" />
  </g>
  <g
   id="bullet-char-template-9679"
   transform="scale(0.00048828125,-0.00048828125)">
   <path
   d="M 813,0 C 632,0 489,54 383,161 276,268 223,411 223,592 223,773 276,916 383,1023 489,1130 632,1184 813,1184 992,1184 1136,1130 1245,1023 1353,916 1407,772 1407,592 1407,412 1353,268 1245,161 1136,54 992,0 813,0 Z"
   id="path9" />
  </g>
  <g
   id="bullet-char-template-8226"
   transform="scale(0.00048828125,-0.00048828125)">
   <path
   d="M 346,457 C 273,457 209,483 155,535 101,586 74,649 74,723 74,796 101,859 155,911 209,963 273,989 346,989 419,989 480,963 531,910 582,859 608,796 608,723 608,648 583,586 532,535 482,483 420,457 346,457 Z"
   id="path10" />
  </g>
  <g
   id="bullet-char-template-8211"
   transform="scale(0.00048828125,-0.00048828125)">
   <path
   d="M -4,459 L 1135,459 1135,606 -4,606 -4,459 Z"
   id="path11" />
  </g>
  <g
   id="bullet-char-template-61548"
   transform="scale(0.00048828125,-0.00048828125)">
   <path
   d="M 173,740 C 173,903 231,1043 346,1159 462,1274 601,1332 765,1332 928,1332 1067,1274 1183,1159 1299,1043 1357,903 1357,740 1357,577 1299,437 1183,322 1067,206 928,148 765,148 601,148 462,206 346,322 231,437 173,577 173,740 Z"
   id="path12" />
  </g>
 </defs>
 
 <path
   id="path13"
   d="M 9788.6531 2970.9814 C 9775.6899 2970.9082 9762.1087 2971.265 9747.9837 2972.015 C 9534.2404 2984.2558 9340.9885 3054.1178 9301.6027 3186.6272 C 9299.2065 3190.6868 9297.4247 3194.766 9297.0035 3198.9778 C 9296.4832 3204.7898 9295.6716 3213.1191 9295.1432 3219.0283 C 9292.6328 3237.5094 9290.7668 3257.3078 9289.6655 3278.1461 C 9248.166 3741.2913 9181.7951 4454.6793 9026.0123 5131.0046 C 8928.4065 5555.3516 8792.5685 6019.8855 8628.7239 6459.2956 C 8494.7308 6146.6742 8339.9131 5775.2957 8172.0076 5338.0204 C 7848.0076 4489.0204 7807.0126 4269.998 7625.0126 3587.998 C 7622.0692 3576.8552 7617.6804 3567.6174 7612.6619 3559.2142 C 7579.9896 3494.7587 7501.1901 3471.5468 7378.9811 3477.9789 C 7151.9811 3490.9789 6949.0008 3567.9824 6928.0008 3716.9824 C 6923.4473 3746.6794 6920.8262 3780.2387 6920.1977 3815.6844 C 6871.58 4258.1688 6840.9756 4844.6899 6700.0044 5479.9755 C 6607.8197 5892.1305 6462.7409 6334.6394 6296.3598 6756.5901 C 6168.0776 6441.8203 6033.8611 6072.6249 5939.9991 5683.9941 C 5769.879 4979.6204 5729.8285 4176.8768 5695.1562 3767.4703 C 5704.1563 3624.3361 5618.2213 3573.868 5444.9906 3582.9854 C 5218.9906 3595.9854 5015.0104 3672.9889 4994.0104 3821.9889 C 4988.1718 3861.7977 4985.5881 3908.4332 4986.724 3957.4845 C 4985.358 3962.7781 4984.6669 3967.9566 4985.0187 3972.9874 C 5020.0187 4296.9874 5062.9782 5033.9955 5308.9782 5999.9955 C 5554.9782 6965.9955 5837.977 7666.0008 5963.977 8030.0008 C 5964.7623 8032.2801 5966.2564 8034.0618 5967.5427 8035.9952 C 5982.9227 8072.6305 6001.9391 8105.1949 6025.0069 8130.9765 C 6121.0069 8236.9765 6194.0193 8211.0112 6329.0193 8112.0112 C 6425.0462 8041.066 6496.2455 7930.6482 6542.2363 7834.7155 C 6542.2494 7834.6968 6542.2748 7834.6825 6542.288 7834.6638 C 6546.2924 7828.962 6549.839 7822.7677 6552.985 7816.0086 C 6855.985 7110.0086 7016.9782 6606.9978 7213.9782 5791.9978 C 7260.6209 5600.4802 7303.6776 5403.4662 7343.5827 5209.2427 C 7421.24 5424.5668 7511.2785 5667.8945 7617.9846 5945.0118 C 7991.1454 6918.0285 8153.4315 7341.7194 8276.9107 7682.2184 C 8294.8201 7744.7372 8320.9126 7801.0684 8357.0092 7841.02 C 8453.0092 7947.02 8525.9881 7921.0031 8659.9881 7822.0031 C 8778.1418 7734.7104 8859.7114 7587.6023 8902.0405 7481.3521 C 9216.816 6785.0975 9314.7776 6428.1273 9507.0165 5598.0045 C 9705.0165 4743.0045 9946.0097 3547.0055 10000.01 3169.0055 C 10001.026 3161.8426 9999.6901 3155.3021 9997.1158 3149.1618 C 10002.519 3023.077 9930.5933 2971.7834 9788.6531 2970.9814 z M 4787.6147 3003.951 C 4774.6516 3003.8777 4761.122 3004.2345 4746.997 3004.9845 C 4519.997 3017.9845 4315.9833 3096.0215 4294.9833 3245.0215 C 4283.6599 3321.7118 4284.3912 3424.011 4301.5462 3520.8703 C 4355.6626 3956.9412 4323.1672 4497.4196 4226.9771 5185.9883 C 4169.4088 5598.0863 4080.8671 6023.1239 3953.6088 6428.8065 C 3823.0004 6123.2945 3671.6156 5758.8674 3510.0183 5338.0204 C 3186.0183 4489.0204 3145.0233 4269.998 2963.0233 3587.998 C 2960.1105 3576.9711 2955.722 3567.8158 2950.7759 3559.4726 C 2918.1795 3494.8303 2839.356 3471.5387 2716.9918 3477.9789 C 2489.9918 3490.9789 2287.0115 3567.9824 2266.0115 3716.9824 C 2261.4558 3746.6937 2258.7836 3780.2714 2258.1567 3815.7361 C 2209.5424 4258.2144 2178.9806 4844.7156 2038.0151 5479.9755 C 1947.6205 5884.1268 1806.1859 6317.3522 1643.879 6731.8888 C 1536.2226 6445.776 1414.3528 6098.485 1281.0071 5675.0024 C 1007.0071 4808.0024 772.00618 3729.9758 703.00618 3443.9758 C 701.36349 3436.8301 698.18468 3431.0629 694.37622 3425.8374 C 662.18895 3360.195 583.21395 3336.5164 460.0236 3343.0001 C 234.0236 3356.0001 29.991699 3433.0036 8.9916992 3582.0036 C -3.1124271 3664.5317 -1.4749987 3776.0657 19.326986 3878.5746 C 19.545956 3889.6721 20.669039 3900.5507 23.977864 3910.9757 C 90.977864 4136.9757 317.98461 4939.9872 632.98461 6008.9872 C 949.98461 7077.9872 1175.9877 7666.0008 1301.9877 8030.0008 C 1302.773 8032.2801 1304.2671 8034.0618 1305.5534 8035.9952 C 1320.9334 8072.6305 1339.9498 8105.1949 1363.0176 8130.9765 C 1459.0176 8236.9765 1531.9783 8211.0112 1666.9783 8112.0112 C 1763.1934 8040.927 1834.5241 7930.2104 1880.5054 7834.1471 C 1884.381 7828.571 1887.934 7822.5867 1890.9957 7816.0086 C 2193.9957 7110.0086 2354.9889 6606.9978 2551.9889 5791.9978 C 2598.6316 5600.4802 2641.6366 5403.4662 2681.5417 5209.2427 C 2759.199 5424.5668 2849.2892 5667.8945 2955.9953 5945.0118 C 3329.2299 6918.221 3491.4855 7341.8934 3614.9731 7682.4251 C 3632.8811 7744.8593 3658.9638 7801.1133 3695.0199 7841.02 C 3791.0199 7947.02 3863.9988 7921.0031 3997.9988 7822.0031 C 4119.8356 7731.9894 4202.6515 7578.4684 4243.7719 7471.6369 C 4244.7832 7469.6988 4246.0488 7468.0251 4246.9759 7466.0042 C 4437.9759 6918.0042 4606.9789 6451.0183 4747.9789 5583.0183 C 4888.9789 4715.0183 5029.0258 3685.0249 4996.0258 3148.0249 C 4995.929 3146.247 4995.2844 3144.8542 4994.9922 3143.219 C 4984.6933 3045.4684 4913.8954 3004.6645 4787.6147 3003.951 z " />
   
  
</svg>
