<?xml version="1.0" encoding="UTF-8" standalone="no"?>
<svg
   version="1.2"
   width="100mm"
   height="100mm"
   viewBox="0 0 10000 10000"
   preserveAspectRatio="xMidYMid"
   fill-rule="evenodd"
   stroke-width="28.222"
   stroke-linejoin="round"
   xml:space="preserve"
   id="svg29"
   sodipodi:docname="gobo-caps-E019.svg"
   inkscape:version="1.4 (86a8ad7, 2024-10-11)"
   xmlns:inkscape="http://www.inkscape.org/namespaces/inkscape"
   xmlns:sodipodi="http://sodipodi.sourceforge.net/DTD/sodipodi-0.dtd"
   xmlns="http://www.w3.org/2000/svg"
   xmlns:svg="http://www.w3.org/2000/svg"
   xmlns:ooo="http://xml.openoffice.org/svg/export"><sodipodi:namedview
   id="namedview29"
   pagecolor="#ffffff"
   bordercolor="#000000"
   borderopacity="0.25"
   inkscape:showpageshadow="2"
   inkscape:pageopacity="0.0"
   inkscape:pagecheckerboard="0"
   inkscape:deskcolor="#d1d1d1"
   inkscape:document-units="mm"
   showgrid="false"
   inkscape:zoom="3.0876875"
   inkscape:cx="188.81444"
   inkscape:cy="188.97638"
   inkscape:window-width="2560"
   inkscape:window-height="1369"
   inkscape:window-x="-8"
   inkscape:window-y="-8"
   inkscape:window-maximized="1"
   inkscape:current-layer="svg29" />
 <defs
   class="ClipPathGroup"
   id="defs2">
  
  <clipPath
   id="presentation_clip_path_shrink"
   clipPathUnits="userSpaceOnUse">
   <rect
   x="10"
   y="10"
   width="9980"
   height="9980"
   id="rect2" />
  </clipPath>
 
  
 
   
  
    
   
     
    
      
      
      
      
      
      
      
      
      
      
      
      
      
      
     
       
      
       
      
       
      
       
      
       
      
       
      
       
      
       
      
       
      
       
      
       
      
       
      
       
      
       
      
        
        
       
        
        
       
        
        
       
        
        
       
        
        
       
        
        
       
        
        
       
        
        
       
        
        
       
        
        
       
        
        
       
        
        
       
        
        
       
        
        
       </defs>
 <defs
   class="TextShapeIndex"
   id="defs3">
  <g
   ooo:slide="id1"
   ooo:id-list="id3 id4 id5 id6 id7 id8 id9 id10 id11 id12 id13 id14 id15 id16"
   id="g2" />
 </defs>
 <defs
   class="EmbeddedBulletChars"
   id="defs12">
  <g
   id="bullet-char-template-57356"
   transform="scale(0.00048828125,-0.00048828125)">
   <path
   d="M 580,1141 L 1163,571 580,0 -4,571 580,1141 Z"
   id="path3" />
  </g>
  <g
   id="bullet-char-template-57354"
   transform="scale(0.00048828125,-0.00048828125)">
   <path
   d="M 8,1128 L 1137,1128 1137,0 8,0 8,1128 Z"
   id="path4" />
  </g>
  <g
   id="bullet-char-template-10146"
   transform="scale(0.00048828125,-0.00048828125)">
   <path
   d="M 174,0 L 602,739 174,1481 1456,739 174,0 Z M 1358,739 L 309,1346 659,739 1358,739 Z"
   id="path5" />
  </g>
  <g
   id="bullet-char-template-10132"
   transform="scale(0.00048828125,-0.00048828125)">
   <path
   d="M 2015,739 L 1276,0 717,0 1260,543 174,543 174,936 1260,936 717,1481 1274,1481 2015,739 Z"
   id="path6" />
  </g>
  <g
   id="bullet-char-template-10007"
   transform="scale(0.00048828125,-0.00048828125)">
   <path
   d="M 0,-2 C -7,14 -16,27 -25,37 L 356,567 C 262,823 215,952 215,954 215,979 228,992 255,992 264,992 276,990 289,987 310,991 331,999 354,1012 L 381,999 492,748 772,1049 836,1024 860,1049 C 881,1039 901,1025 922,1006 886,937 835,863 770,784 769,783 710,716 594,584 L 774,223 C 774,196 753,168 711,139 L 727,119 C 717,90 699,76 672,76 641,76 570,178 457,381 L 164,-76 C 142,-110 111,-127 72,-127 30,-127 9,-110 8,-76 1,-67 -2,-52 -2,-32 -2,-23 -1,-13 0,-2 Z"
   id="path7" />
  </g>
  <g
   id="bullet-char-template-10004"
   transform="scale(0.00048828125,-0.00048828125)">
   <path
   d="M 285,-33 C 182,-33 111,30 74,156 52,228 41,333 41,471 41,549 55,616 82,672 116,743 169,778 240,778 293,778 328,747 346,684 L 369,508 C 377,444 397,411 428,410 L 1163,1116 C 1174,1127 1196,1133 1229,1133 1271,1133 1292,1118 1292,1087 L 1292,965 C 1292,929 1282,901 1262,881 L 442,47 C 390,-6 338,-33 285,-33 Z"
   id="path8" />
  </g>
  <g
   id="bullet-char-template-9679"
   transform="scale(0.00048828125,-0.00048828125)">
   <path
   d="M 813,0 C 632,0 489,54 383,161 276,268 223,411 223,592 223,773 276,916 383,1023 489,1130 632,1184 813,1184 992,1184 1136,1130 1245,1023 1353,916 1407,772 1407,592 1407,412 1353,268 1245,161 1136,54 992,0 813,0 Z"
   id="path9" />
  </g>
  <g
   id="bullet-char-template-8226"
   transform="scale(0.00048828125,-0.00048828125)">
   <path
   d="M 346,457 C 273,457 209,483 155,535 101,586 74,649 74,723 74,796 101,859 155,911 209,963 273,989 346,989 419,989 480,963 531,910 582,859 608,796 608,723 608,648 583,586 532,535 482,483 420,457 346,457 Z"
   id="path10" />
  </g>
  <g
   id="bullet-char-template-8211"
   transform="scale(0.00048828125,-0.00048828125)">
   <path
   d="M -4,459 L 1135,459 1135,606 -4,606 -4,459 Z"
   id="path11" />
  </g>
  <g
   id="bullet-char-template-61548"
   transform="scale(0.00048828125,-0.00048828125)">
   <path
   d="M 173,740 C 173,903 231,1043 346,1159 462,1274 601,1332 765,1332 928,1332 1067,1274 1183,1159 1299,1043 1357,903 1357,740 1357,577 1299,437 1183,322 1067,206 928,148 765,148 601,148 462,206 346,322 231,437 173,577 173,740 Z"
   id="path12" />
  </g>
 </defs>
 
 <path
   id="path13"
   d="M 4684.0035 3053.9738 C 4670.9305 3053.9003 4657.2741 3054.2573 4643.0241 3055.0073 C 4624.7103 3056.0654 4606.5685 3057.6839 4588.6088 3059.6065 C 4289.6584 3071.3517 3546.7349 3114.3028 2902.9752 3180.9944 C 2283.3834 3245.3676 1920.4074 3287.5291 1562.4369 3349.3046 C 1524.2006 3353.8798 1487.2403 3360.4194 1452.2628 3368.9416 C 1446.494 3370.0048 1440.7834 3370.9148 1435.0028 3371.9905 C 1429.3168 3373.0943 1423.8016 3375.2149 1418.4147 3377.985 C 1289.7705 3415.7234 1194.9905 3482.8309 1181.0132 3582.0036 C 1159.0132 3732.0036 1182.0043 3978.0164 1284.0043 4091.0164 C 1324.6162 4135.8151 1360.8337 4157.0654 1399.1394 4159.436 C 1403.4797 4159.9625 1407.9538 4159.9889 1412.5753 4159.5394 C 1425.3687 4158.8932 1438.5237 4156.0015 1452.1594 4151.5295 C 1682.2808 4096.2584 2459.8772 3960.9267 3010.979 3903.0175 C 3256.7083 3876.8121 3528.4144 3866.201 3769.2789 3862.9683 C 3416.3186 4365.3249 2990.8376 4970.9444 2653.9982 5444.9906 C 2136.9982 6172.9906 1345.9923 7259.9787 1184.9923 7586.9787 C 1182.2977 7591.213 1180.798 7596.0751 1179.7729 7601.1897 C 1174.7003 7613.8561 1171.0761 7627.0838 1169.0242 7640.9806 C 1147.0242 7789.9806 1169.9972 8035.9934 1272.9972 8149.9934 C 1309.4331 8190.2247 1342.5681 8211.3835 1376.9702 8216.8111 C 1386.4468 8219.6795 1396.7518 8219.7995 1407.7177 8217.5862 C 1418.3977 8216.5145 1429.4083 8213.9632 1440.6872 8210.2998 C 1672.2021 8153.432 2464.1411 8008.8568 3015.9916 7950.0056 C 3587.9916 7889.0056 4180.0209 7843.9837 4441.0209 7842.9837 C 4442.6176 7843.0872 4444.3602 7842.4173 4446.0335 7842.1569 C 4496.2011 7840.6217 4551.0327 7808.4933 4624.0071 7754.9788 C 4757.0071 7656.9788 4845.0122 7480.002 4880.0122 7375.002 C 4973.0122 7104.002 4894.9838 7013.9794 4667.9838 7025.9794 C 4632.5062 7027.8548 4597.7502 7031.5576 4564.0108 7036.6764 C 4240.6978 7070.7681 3557.1 7171.8607 2964.0051 7232.9951 C 2642.7417 7266.6042 2361.8545 7296.7917 2110.5688 7328.0281 C 2420.0043 6825.1793 2861.6411 6131.2683 3208.0212 5632.9895 C 3752.0212 4849.9895 4486.0066 3948.9931 4718.0066 3667.9931 C 4720.592 3664.884 4722.4569 3661.358 4723.846 3657.5028 C 4788.6617 3570.3762 4833.4032 3472.7499 4855.9826 3405.0118 C 4943.1701 3150.9493 4880.0984 3055.0761 4684.0035 3053.9738 z M 8603.9709 3053.9738 C 8590.8979 3053.9003 8577.2415 3054.2573 8562.9915 3055.0073 C 8559.9575 3055.1826 8556.9744 3055.4801 8553.9481 3055.6791 C 8301.8966 3063.8262 7406.6362 3121.8502 6720.0032 3192.9834 C 6089.9401 3258.4445 5731.1723 3325.627 5368.3028 3393.643 C 5172.2048 3417.6889 5008.7032 3493.1321 4989.9796 3625.9802 C 4967.9796 3775.9802 4991.0224 4021.9931 5093.0224 4134.9931 C 5145.5272 4192.9107 5190.711 4211.5484 5242.5223 4200.7771 C 5244.377 4200.4338 5246.1018 4200.5031 5248 4200.002 C 5444 4149.002 6257.0069 3975.0065 6828.0069 3915.0065 C 7086.2168 3887.4701 7390.7475 3873.828 7659.1707 3867.6709 C 7318.4681 4320.7616 6894.4594 4885.2281 6581.9755 5324.9979 C 6074.0626 6040.2021 5147.1723 7260.0249 4962.0227 7612.8169 C 4947.0248 7635.2359 4936.9774 7659.9543 4932.9805 7687.0243 C 4910.9805 7836.0243 4934.0052 8081.9855 5037.0052 8195.9855 C 5092.9593 8257.7682 5141.1726 8274.4767 5198.1323 8258.2556 C 5198.7761 8258.1035 5199.3428 8258.1678 5199.9926 8257.9972 C 5395.9926 8205.9972 6244.018 8011.0056 6816.018 7950.0056 C 7375.7002 7890.3192 8074.1905 7844.3359 8348.6376 7841.4335 C 8403.6388 7847.8445 8462.4885 7814.7352 8543.9745 7754.9788 C 8676.9745 7656.9788 8764.9796 7480.002 8799.9796 7375.002 C 8892.9796 7104.002 8815.0029 7013.9794 8588.0029 7025.9794 C 8556.1133 7027.6651 8524.7972 7030.8214 8494.2618 7035.1261 C 8179.299 7064.648 7379.9628 7168.5538 6763.9798 7232.9951 C 6435.1654 7267.3942 6155.4881 7306.6758 5906.8229 7347.045 C 6263.0427 6798.3243 6776.9294 6029.5292 7135.9985 5512.9968 C 7676.1566 4735.5265 8370.9106 3987.8958 8607.8466 3702.2546 C 8609.8262 3699.9911 8611.7883 3697.7229 8613.7377 3695.4333 C 8614.0251 3695.0855 8614.692 3694.3327 8614.978 3693.9864 C 8615.0272 3693.9271 8615.0325 3693.8392 8615.0813 3693.7797 C 8695.5678 3598.6586 8750.2227 3482.3488 8776.0017 3405.0118 C 8863.1892 3150.9493 8800.0659 3055.0761 8603.9709 3053.9738 z " />
   
  
</svg>
