<?xml version="1.0" encoding="UTF-8" standalone="no"?>
<svg
   version="1.2"
   width="100mm"
   height="100mm"
   viewBox="0 0 10000 10000"
   preserveAspectRatio="xMidYMid"
   fill-rule="evenodd"
   stroke-width="28.222"
   stroke-linejoin="round"
   xml:space="preserve"
   id="svg25"
   sodipodi:docname="gobo-caps-E015.svg"
   inkscape:version="1.4 (86a8ad7, 2024-10-11)"
   xmlns:inkscape="http://www.inkscape.org/namespaces/inkscape"
   xmlns:sodipodi="http://sodipodi.sourceforge.net/DTD/sodipodi-0.dtd"
   xmlns="http://www.w3.org/2000/svg"
   xmlns:svg="http://www.w3.org/2000/svg"
   xmlns:ooo="http://xml.openoffice.org/svg/export"><sodipodi:namedview
   id="namedview25"
   pagecolor="#ffffff"
   bordercolor="#000000"
   borderopacity="0.25"
   inkscape:showpageshadow="2"
   inkscape:pageopacity="0.0"
   inkscape:pagecheckerboard="0"
   inkscape:deskcolor="#d1d1d1"
   inkscape:document-units="mm"
   showgrid="false"
   inkscape:zoom="3.0876875"
   inkscape:cx="188.81444"
   inkscape:cy="188.97638"
   inkscape:window-width="2560"
   inkscape:window-height="1369"
   inkscape:window-x="-8"
   inkscape:window-y="-8"
   inkscape:window-maximized="1"
   inkscape:current-layer="svg25" />
 <defs
   class="ClipPathGroup"
   id="defs2">
  
  <clipPath
   id="presentation_clip_path_shrink"
   clipPathUnits="userSpaceOnUse">
   <rect
   x="10"
   y="10"
   width="9980"
   height="9980"
   id="rect2" />
  </clipPath>
 
  
 
   
  
    
   
     
    
      
      
      
      
      
      
      
      
      
      
     
       
      
       
      
       
      
       
      
       
      
       
      
       
      
       
      
       
      
       
      
        
        
       
        
        
       
        
        
       
        
        
       
        
        
       
        
        
       
        
        
       
        
        
       
        
        
       
        
        
       </defs>
 <defs
   class="TextShapeIndex"
   id="defs3">
  <g
   ooo:slide="id1"
   ooo:id-list="id3 id4 id5 id6 id7 id8 id9 id10 id11 id12"
   id="g2" />
 </defs>
 <defs
   class="EmbeddedBulletChars"
   id="defs12">
  <g
   id="bullet-char-template-57356"
   transform="scale(0.00048828125,-0.00048828125)">
   <path
   d="M 580,1141 L 1163,571 580,0 -4,571 580,1141 Z"
   id="path3" />
  </g>
  <g
   id="bullet-char-template-57354"
   transform="scale(0.00048828125,-0.00048828125)">
   <path
   d="M 8,1128 L 1137,1128 1137,0 8,0 8,1128 Z"
   id="path4" />
  </g>
  <g
   id="bullet-char-template-10146"
   transform="scale(0.00048828125,-0.00048828125)">
   <path
   d="M 174,0 L 602,739 174,1481 1456,739 174,0 Z M 1358,739 L 309,1346 659,739 1358,739 Z"
   id="path5" />
  </g>
  <g
   id="bullet-char-template-10132"
   transform="scale(0.00048828125,-0.00048828125)">
   <path
   d="M 2015,739 L 1276,0 717,0 1260,543 174,543 174,936 1260,936 717,1481 1274,1481 2015,739 Z"
   id="path6" />
  </g>
  <g
   id="bullet-char-template-10007"
   transform="scale(0.00048828125,-0.00048828125)">
   <path
   d="M 0,-2 C -7,14 -16,27 -25,37 L 356,567 C 262,823 215,952 215,954 215,979 228,992 255,992 264,992 276,990 289,987 310,991 331,999 354,1012 L 381,999 492,748 772,1049 836,1024 860,1049 C 881,1039 901,1025 922,1006 886,937 835,863 770,784 769,783 710,716 594,584 L 774,223 C 774,196 753,168 711,139 L 727,119 C 717,90 699,76 672,76 641,76 570,178 457,381 L 164,-76 C 142,-110 111,-127 72,-127 30,-127 9,-110 8,-76 1,-67 -2,-52 -2,-32 -2,-23 -1,-13 0,-2 Z"
   id="path7" />
  </g>
  <g
   id="bullet-char-template-10004"
   transform="scale(0.00048828125,-0.00048828125)">
   <path
   d="M 285,-33 C 182,-33 111,30 74,156 52,228 41,333 41,471 41,549 55,616 82,672 116,743 169,778 240,778 293,778 328,747 346,684 L 369,508 C 377,444 397,411 428,410 L 1163,1116 C 1174,1127 1196,1133 1229,1133 1271,1133 1292,1118 1292,1087 L 1292,965 C 1292,929 1282,901 1262,881 L 442,47 C 390,-6 338,-33 285,-33 Z"
   id="path8" />
  </g>
  <g
   id="bullet-char-template-9679"
   transform="scale(0.00048828125,-0.00048828125)">
   <path
   d="M 813,0 C 632,0 489,54 383,161 276,268 223,411 223,592 223,773 276,916 383,1023 489,1130 632,1184 813,1184 992,1184 1136,1130 1245,1023 1353,916 1407,772 1407,592 1407,412 1353,268 1245,161 1136,54 992,0 813,0 Z"
   id="path9" />
  </g>
  <g
   id="bullet-char-template-8226"
   transform="scale(0.00048828125,-0.00048828125)">
   <path
   d="M 346,457 C 273,457 209,483 155,535 101,586 74,649 74,723 74,796 101,859 155,911 209,963 273,989 346,989 419,989 480,963 531,910 582,859 608,796 608,723 608,648 583,586 532,535 482,483 420,457 346,457 Z"
   id="path10" />
  </g>
  <g
   id="bullet-char-template-8211"
   transform="scale(0.00048828125,-0.00048828125)">
   <path
   d="M -4,459 L 1135,459 1135,606 -4,606 -4,459 Z"
   id="path11" />
  </g>
  <g
   id="bullet-char-template-61548"
   transform="scale(0.00048828125,-0.00048828125)">
   <path
   d="M 173,740 C 173,903 231,1043 346,1159 462,1274 601,1332 765,1332 928,1332 1067,1274 1183,1159 1299,1043 1357,903 1357,740 1357,577 1299,437 1183,322 1067,206 928,148 765,148 601,148 462,206 346,322 231,437 173,577 173,740 Z"
   id="path12" />
  </g>
 </defs>
 
 <path
   id="path13"
   d="M 9073.968 3007.9817 C 9060.9021 3007.9085 9047.2386 3008.2653 9032.9886 3009.0153 C 8825.3121 3020.9086 8637.8231 3086.3805 8591.3102 3211.5352 C 8591.2371 3211.7028 8591.0689 3211.831 8591.0001 3212.0003 C 8590.8971 3212.4218 8590.6899 3213.1798 8590.5867 3213.6023 C 8586.9652 3223.7347 8584.2447 3234.2661 8582.5252 3245.1766 C 8471.8824 3695.0661 8222.1292 4638.1274 7933.0041 5333.0078 C 7738.7678 5799.1749 7439.0701 6341.2839 7152.0182 6811.3671 C 6976.7744 6443.6704 6756.3211 5979.0675 6532.0043 5470.9838 C 6163.0043 4640.9838 5803.0178 3786.9808 5677.0178 3531.9808 C 5675.5051 3528.9555 5673.6045 3526.6066 5671.9535 3523.8159 C 5640.1297 3457.456 5560.8907 3433.4751 5436.9808 3439.9967 C 5210.9808 3452.9967 5007.0005 3530.0002 4986.0005 3679.0002 C 4970.701 3783.3153 4977.2407 3933.9676 5016.903 4054.1194 C 5018.551 4062.0996 5020.8111 4069.7769 5023.9827 4077.0121 C 5025.5466 4080.5797 5028.3935 4086.1717 5030.0805 4089.9312 C 5035.8456 4103.9336 5042.1021 4117.3549 5048.9424 4130.0321 C 5167.1404 4379.7537 5479.3854 4944.2311 5903.9807 5897.0043 C 6343.4024 6892.251 6608.9384 7533.1321 6752.4043 7888.6657 C 6769.6413 7939.6803 6792.764 7985.2068 6822.9943 8018.9937 C 6919.9943 8124.9937 6992.0068 8098.9767 7127.0068 7999.9767 C 7177.6551 7962.9355 7221.5201 7914.5975 7258.5233 7863.1376 C 7264.7638 7857.2879 7270.736 7850.8254 7275.9899 7842.9837 C 7703.9899 7202.9837 8117.0043 6359.9974 8437.0043 5586.9974 C 8747.1037 4834.5934 9080.1199 3792.9575 9220.7291 3421.8583 C 9230.78 3398.7846 9239.2504 3377.1374 9245.9989 3357.9862 C 9332.2489 3104.8612 9269.9568 3009.0804 9073.968 3007.9817 z M 4724.001 3025.9651 C 4710.9351 3025.8919 4697.2716 3026.2487 4683.0216 3026.9987 C 4456.0216 3039.9987 4252.9897 3117.0022 4231.9897 3266.0022 C 4229.9816 3279.0988 4228.5064 3293.1421 4227.2355 3307.55 C 4163.9731 3836.0976 3994.2127 4624.7616 3707.0088 5315.0244 C 3513.3877 5779.7152 3226.0973 6327.6259 2947.572 6802.0137 C 2772.958 6435.598 2554.389 5974.6956 2332.0023 5470.9838 C 1963.0023 4640.9838 1550.9776 3655.981 1424.9776 3400.981 C 1419.0213 3389.0684 1411.665 3379.5739 1403.6352 3371.2154 C 1368.3345 3313.6933 1291.3987 3292.8981 1175.0187 3299.0234 C 949.01871 3312.0234 744.98681 3388.9752 723.98681 3537.9752 C 707.55603 3650.0033 716.25672 3815.5692 764.19107 3939.2944 C 765.17297 3942.1644 765.77294 3945.2188 766.9816 3947.976 C 769.44349 3953.5922 774.21891 3963.2158 777.05851 3969.4734 C 777.42574 3970.2538 777.82449 3971.0231 778.19539 3971.7989 C 887.31767 4211.5094 1261.919 4905.0419 1703.9787 5897.0043 C 2143.4004 6892.251 2408.9364 7533.1321 2552.4023 7888.6657 C 2569.6393 7939.6803 2592.762 7985.2068 2622.9923 8018.9937 C 2719.9923 8124.9937 2792.0048 8098.9767 2927.0048 7999.9767 C 2977.6417 7962.9437 3021.5233 7914.6362 3058.5213 7863.1892 C 3064.7742 7857.3329 3070.725 7850.8389 3075.9879 7842.9837 C 3503.9879 7202.9837 3891.0091 6343.014 4211.0091 5569.014 C 4516.6311 4829.7908 4824.1818 3742.6228 4913.2918 3319.9007 C 4971.6279 3108.6525 4904.7579 3026.9784 4724.001 3025.9651 z " />
   
  
</svg>
