<?xml version="1.0" encoding="UTF-8" standalone="no"?>
<svg
   version="1.2"
   width="100mm"
   height="100mm"
   viewBox="0 0 10000 10000"
   preserveAspectRatio="xMidYMid"
   fill-rule="evenodd"
   stroke-width="28.222"
   stroke-linejoin="round"
   xml:space="preserve"
   id="svg24"
   sodipodi:docname="gobo-caps-20AC.svg"
   inkscape:version="1.4 (86a8ad7, 2024-10-11)"
   xmlns:inkscape="http://www.inkscape.org/namespaces/inkscape"
   xmlns:sodipodi="http://sodipodi.sourceforge.net/DTD/sodipodi-0.dtd"
   xmlns="http://www.w3.org/2000/svg"
   xmlns:svg="http://www.w3.org/2000/svg"
   xmlns:ooo="http://xml.openoffice.org/svg/export"><sodipodi:namedview
   id="namedview24"
   pagecolor="#ffffff"
   bordercolor="#000000"
   borderopacity="0.25"
   inkscape:showpageshadow="2"
   inkscape:pageopacity="0.0"
   inkscape:pagecheckerboard="0"
   inkscape:deskcolor="#d1d1d1"
   inkscape:document-units="mm"
   showgrid="false"
   inkscape:zoom="3.0876875"
   inkscape:cx="188.81444"
   inkscape:cy="188.97638"
   inkscape:window-width="2560"
   inkscape:window-height="1369"
   inkscape:window-x="-8"
   inkscape:window-y="-8"
   inkscape:window-maximized="1"
   inkscape:current-layer="svg24" />
 <defs
   class="ClipPathGroup"
   id="defs2">
  
  <clipPath
   id="presentation_clip_path_shrink"
   clipPathUnits="userSpaceOnUse">
   <rect
   x="10"
   y="10"
   width="9980"
   height="9980"
   id="rect2" />
  </clipPath>
 
  
 
   
  
    
   
     
    
      
      
      
      
      
      
      
      
      
     
       
      
       
      
       
      
       
      
       
      
       
      
       
      
       
      
       
      
        
        
       
        
        
       
        
        
       
        
        
       
        
        
       
        
        
       
        
        
       
        
        
       
        
        
       </defs>
 <defs
   class="TextShapeIndex"
   id="defs3">
  <g
   ooo:slide="id1"
   ooo:id-list="id3 id4 id5 id6 id7 id8 id9 id10 id11"
   id="g2" />
 </defs>
 <defs
   class="EmbeddedBulletChars"
   id="defs12">
  <g
   id="bullet-char-template-57356"
   transform="scale(0.00048828125,-0.00048828125)">
   <path
   d="M 580,1141 L 1163,571 580,0 -4,571 580,1141 Z"
   id="path3" />
  </g>
  <g
   id="bullet-char-template-57354"
   transform="scale(0.00048828125,-0.00048828125)">
   <path
   d="M 8,1128 L 1137,1128 1137,0 8,0 8,1128 Z"
   id="path4" />
  </g>
  <g
   id="bullet-char-template-10146"
   transform="scale(0.00048828125,-0.00048828125)">
   <path
   d="M 174,0 L 602,739 174,1481 1456,739 174,0 Z M 1358,739 L 309,1346 659,739 1358,739 Z"
   id="path5" />
  </g>
  <g
   id="bullet-char-template-10132"
   transform="scale(0.00048828125,-0.00048828125)">
   <path
   d="M 2015,739 L 1276,0 717,0 1260,543 174,543 174,936 1260,936 717,1481 1274,1481 2015,739 Z"
   id="path6" />
  </g>
  <g
   id="bullet-char-template-10007"
   transform="scale(0.00048828125,-0.00048828125)">
   <path
   d="M 0,-2 C -7,14 -16,27 -25,37 L 356,567 C 262,823 215,952 215,954 215,979 228,992 255,992 264,992 276,990 289,987 310,991 331,999 354,1012 L 381,999 492,748 772,1049 836,1024 860,1049 C 881,1039 901,1025 922,1006 886,937 835,863 770,784 769,783 710,716 594,584 L 774,223 C 774,196 753,168 711,139 L 727,119 C 717,90 699,76 672,76 641,76 570,178 457,381 L 164,-76 C 142,-110 111,-127 72,-127 30,-127 9,-110 8,-76 1,-67 -2,-52 -2,-32 -2,-23 -1,-13 0,-2 Z"
   id="path7" />
  </g>
  <g
   id="bullet-char-template-10004"
   transform="scale(0.00048828125,-0.00048828125)">
   <path
   d="M 285,-33 C 182,-33 111,30 74,156 52,228 41,333 41,471 41,549 55,616 82,672 116,743 169,778 240,778 293,778 328,747 346,684 L 369,508 C 377,444 397,411 428,410 L 1163,1116 C 1174,1127 1196,1133 1229,1133 1271,1133 1292,1118 1292,1087 L 1292,965 C 1292,929 1282,901 1262,881 L 442,47 C 390,-6 338,-33 285,-33 Z"
   id="path8" />
  </g>
  <g
   id="bullet-char-template-9679"
   transform="scale(0.00048828125,-0.00048828125)">
   <path
   d="M 813,0 C 632,0 489,54 383,161 276,268 223,411 223,592 223,773 276,916 383,1023 489,1130 632,1184 813,1184 992,1184 1136,1130 1245,1023 1353,916 1407,772 1407,592 1407,412 1353,268 1245,161 1136,54 992,0 813,0 Z"
   id="path9" />
  </g>
  <g
   id="bullet-char-template-8226"
   transform="scale(0.00048828125,-0.00048828125)">
   <path
   d="M 346,457 C 273,457 209,483 155,535 101,586 74,649 74,723 74,796 101,859 155,911 209,963 273,989 346,989 419,989 480,963 531,910 582,859 608,796 608,723 608,648 583,586 532,535 482,483 420,457 346,457 Z"
   id="path10" />
  </g>
  <g
   id="bullet-char-template-8211"
   transform="scale(0.00048828125,-0.00048828125)">
   <path
   d="M -4,459 L 1135,459 1135,606 -4,606 -4,459 Z"
   id="path11" />
  </g>
  <g
   id="bullet-char-template-61548"
   transform="scale(0.00048828125,-0.00048828125)">
   <path
   d="M 173,740 C 173,903 231,1043 346,1159 462,1274 601,1332 765,1332 928,1332 1067,1274 1183,1159 1299,1043 1357,903 1357,740 1357,577 1299,437 1183,322 1067,206 928,148 765,148 601,148 462,206 346,322 231,437 173,577 173,740 Z"
   id="path12" />
  </g>
 </defs>
 
 <path
   id="path13"
   d="M 5921.3439 2125.6067 C 5826.832 2123.498 5727.4534 2128.5819 5623.0159 2141.9881 C 4689.2529 2261.9595 3756.404 3381.5908 3237.9935 4832.0564 C 3179.4424 4837.889 3127.2872 4843.2971 3056.4026 4853.0887 C 2841.7339 4870.6016 2654.1384 4947.1344 2633.9994 5090.0252 C 2610.9994 5240.0252 2634.0087 5484.9864 2736.0087 5598.9864 C 2787.0471 5654.7603 2831.1623 5673.9564 2881.3228 5665.2356 C 2884.5871 5665.9952 2887.794 5666.0299 2890.9863 5664.9772 C 2926.8821 5653.1413 2964.7191 5641.7756 3004.0027 5630.6123 C 2998.7158 5653.4258 2993.0562 5676.0765 2987.983 5698.9803 C 2951.59 5863.3698 2927.5015 6024.8685 2913.879 6182.8267 C 2907.6121 6183.6641 2901.9196 6184.3431 2895.3271 6185.2555 C 2681.4406 6203.0921 2494.0836 6279.6299 2474.0092 6423.0187 C 2451.0092 6572.0187 2474.0003 6817.9799 2577.0003 6931.9799 C 2629.018 6989.4161 2674.3148 7008.0392 2726.1902 6997.3506 C 2728.128 6997.3715 2730.0671 6997.6124 2731.9779 6996.9889 C 2793.763 6976.7315 2860.6013 6957.4525 2934.8596 6938.7495 C 3116.9124 8167.8254 4023.0532 9007.8285 5194.98 8855.9968 C 6730.98 8656.9968 7136.993 8030.9782 7309.993 7848.9782 C 7310.8485 7848.0602 7311.1478 7846.6325 7311.9567 7845.6709 C 7404.9321 7746.5741 7466.9996 7615.3005 7495.9765 7529.9796 C 7588.9765 7259.9796 7511.0179 7170.0087 7283.0179 7181.0087 C 7125.0732 7190.094 6978.437 7230.9726 6896.8916 7305.6005 C 6893.9276 7308.0673 6890.8848 7310.1554 6888.0033 7312.9903 C 6564.0033 7628.9903 5842.9848 8224.0088 4946.9848 8152.0088 C 4287.1131 8098.9834 3774.6929 7565.1148 3598.1266 6820.6172 C 3946.0312 6777.9451 4403.8348 6750.5115 4542.8751 6754.0063 C 4595.9878 6757.2865 4653.1809 6724.4596 4730.9773 6666.9832 C 4864.9773 6568.9832 4952.0159 6392.0245 4988.0159 6286.0245 C 5081.0159 6016.0245 5003.0057 5926.0019 4775.0057 5937.0019 C 4760.8807 5937.8144 4746.8475 5938.8841 4732.941 5940.2058 C 4724.136 5940.6302 4715.596 5940.84 4706.0176 5942.0145 C 4236.5573 5999.5805 3990.1815 6048.3087 3534.823 6109.6529 C 3537.2477 6057.8471 3540.5726 6005.7478 3545.9851 5953.0216 C 3561.5803 5801.0986 3585.326 5652.2962 3615.5416 5506.8473 C 3628.6036 5504.8965 3640.5429 5502.9609 3653.9888 5501.0079 C 4006.9952 5451.7053 4550.7196 5418.1096 4702.9687 5421.0127 C 4755.9216 5424.0009 4812.9463 5391.2431 4891.0192 5333.9896 C 5025.0192 5236.9896 5112.0061 5058.9793 5148.0061 4952.9793 C 5241.0061 4683.9793 5162.9959 4592.9902 4934.9959 4604.9902 C 4928.09 4605.3874 4921.2871 4606.0235 4914.4287 4606.5405 C 4899.5028 4606.1946 4883.4764 4606.9159 4866.0079 4609.021 C 4451.6449 4660.7068 4203.9544 4704.4819 3840.179 4756.7639 C 4092.5628 4115.8283 4464.9241 3581.0119 4843.0118 3214.9975 C 5439.0118 2638.9975 6465.9881 2828.0052 6754.9881 3767.0052 C 6762.0848 3790.2244 6771.8723 3808.2026 6783.5135 3822.3506 C 6798.0078 3853.9421 6815.3828 3882.1436 6836.0168 3904.9813 C 6932.0168 4010.9813 7004.9957 3985.016 7138.9957 3886.016 C 7272.9957 3788.016 7359.9826 3611.0057 7395.9826 3505.0057 C 7436.6701 3386.8807 7444.629 3303.1812 7421.6141 3247.347 C 7421.5843 3247.2745 7421.5407 3247.2126 7421.5108 3247.1403 C 7286.4624 2834.0177 6830.0937 2145.8817 5921.3439 2125.6067 z " />
   
  
</svg>
