<?xml version="1.0" encoding="UTF-8" standalone="no"?>
<svg
   version="1.2"
   width="100mm"
   height="100mm"
   viewBox="0 0 10000 10000"
   preserveAspectRatio="xMidYMid"
   fill-rule="evenodd"
   stroke-width="28.222"
   stroke-linejoin="round"
   xml:space="preserve"
   id="svg25"
   sodipodi:docname="gobo-caps-0439.svg"
   inkscape:version="1.4 (86a8ad7, 2024-10-11)"
   xmlns:inkscape="http://www.inkscape.org/namespaces/inkscape"
   xmlns:sodipodi="http://sodipodi.sourceforge.net/DTD/sodipodi-0.dtd"
   xmlns="http://www.w3.org/2000/svg"
   xmlns:svg="http://www.w3.org/2000/svg"
   xmlns:ooo="http://xml.openoffice.org/svg/export"><sodipodi:namedview
   id="namedview25"
   pagecolor="#ffffff"
   bordercolor="#000000"
   borderopacity="0.25"
   inkscape:showpageshadow="2"
   inkscape:pageopacity="0.0"
   inkscape:pagecheckerboard="0"
   inkscape:deskcolor="#d1d1d1"
   inkscape:document-units="mm"
   showgrid="false"
   inkscape:zoom="3.0876875"
   inkscape:cx="188.81444"
   inkscape:cy="188.97638"
   inkscape:window-width="2560"
   inkscape:window-height="1369"
   inkscape:window-x="-8"
   inkscape:window-y="-8"
   inkscape:window-maximized="1"
   inkscape:current-layer="svg25" />
 <defs
   class="ClipPathGroup"
   id="defs2">
  
  <clipPath
   id="presentation_clip_path_shrink"
   clipPathUnits="userSpaceOnUse">
   <rect
   x="10"
   y="10"
   width="9980"
   height="9980"
   id="rect2" />
  </clipPath>
 
  
 
   
  
    
   
     
    
      
      
      
      
      
      
      
      
      
      
     
       
      
       
      
       
      
       
      
       
      
       
      
       
      
       
      
       
      
       
      
        
        
       
        
        
       
        
        
       
        
        
       
        
        
       
        
        
       
        
        
       
        
        
       
        
        
       
        
        
       </defs>
 <defs
   class="TextShapeIndex"
   id="defs3">
  <g
   ooo:slide="id1"
   ooo:id-list="id3 id4 id5 id6 id7 id8 id9 id10 id11 id12"
   id="g2" />
 </defs>
 <defs
   class="EmbeddedBulletChars"
   id="defs12">
  <g
   id="bullet-char-template-57356"
   transform="scale(0.00048828125,-0.00048828125)">
   <path
   d="M 580,1141 L 1163,571 580,0 -4,571 580,1141 Z"
   id="path3" />
  </g>
  <g
   id="bullet-char-template-57354"
   transform="scale(0.00048828125,-0.00048828125)">
   <path
   d="M 8,1128 L 1137,1128 1137,0 8,0 8,1128 Z"
   id="path4" />
  </g>
  <g
   id="bullet-char-template-10146"
   transform="scale(0.00048828125,-0.00048828125)">
   <path
   d="M 174,0 L 602,739 174,1481 1456,739 174,0 Z M 1358,739 L 309,1346 659,739 1358,739 Z"
   id="path5" />
  </g>
  <g
   id="bullet-char-template-10132"
   transform="scale(0.00048828125,-0.00048828125)">
   <path
   d="M 2015,739 L 1276,0 717,0 1260,543 174,543 174,936 1260,936 717,1481 1274,1481 2015,739 Z"
   id="path6" />
  </g>
  <g
   id="bullet-char-template-10007"
   transform="scale(0.00048828125,-0.00048828125)">
   <path
   d="M 0,-2 C -7,14 -16,27 -25,37 L 356,567 C 262,823 215,952 215,954 215,979 228,992 255,992 264,992 276,990 289,987 310,991 331,999 354,1012 L 381,999 492,748 772,1049 836,1024 860,1049 C 881,1039 901,1025 922,1006 886,937 835,863 770,784 769,783 710,716 594,584 L 774,223 C 774,196 753,168 711,139 L 727,119 C 717,90 699,76 672,76 641,76 570,178 457,381 L 164,-76 C 142,-110 111,-127 72,-127 30,-127 9,-110 8,-76 1,-67 -2,-52 -2,-32 -2,-23 -1,-13 0,-2 Z"
   id="path7" />
  </g>
  <g
   id="bullet-char-template-10004"
   transform="scale(0.00048828125,-0.00048828125)">
   <path
   d="M 285,-33 C 182,-33 111,30 74,156 52,228 41,333 41,471 41,549 55,616 82,672 116,743 169,778 240,778 293,778 328,747 346,684 L 369,508 C 377,444 397,411 428,410 L 1163,1116 C 1174,1127 1196,1133 1229,1133 1271,1133 1292,1118 1292,1087 L 1292,965 C 1292,929 1282,901 1262,881 L 442,47 C 390,-6 338,-33 285,-33 Z"
   id="path8" />
  </g>
  <g
   id="bullet-char-template-9679"
   transform="scale(0.00048828125,-0.00048828125)">
   <path
   d="M 813,0 C 632,0 489,54 383,161 276,268 223,411 223,592 223,773 276,916 383,1023 489,1130 632,1184 813,1184 992,1184 1136,1130 1245,1023 1353,916 1407,772 1407,592 1407,412 1353,268 1245,161 1136,54 992,0 813,0 Z"
   id="path9" />
  </g>
  <g
   id="bullet-char-template-8226"
   transform="scale(0.00048828125,-0.00048828125)">
   <path
   d="M 346,457 C 273,457 209,483 155,535 101,586 74,649 74,723 74,796 101,859 155,911 209,963 273,989 346,989 419,989 480,963 531,910 582,859 608,796 608,723 608,648 583,586 532,535 482,483 420,457 346,457 Z"
   id="path10" />
  </g>
  <g
   id="bullet-char-template-8211"
   transform="scale(0.00048828125,-0.00048828125)">
   <path
   d="M -4,459 L 1135,459 1135,606 -4,606 -4,459 Z"
   id="path11" />
  </g>
  <g
   id="bullet-char-template-61548"
   transform="scale(0.00048828125,-0.00048828125)">
   <path
   d="M 173,740 C 173,903 231,1043 346,1159 462,1274 601,1332 765,1332 928,1332 1067,1274 1183,1159 1299,1043 1357,903 1357,740 1357,577 1299,437 1183,322 1067,206 928,148 765,148 601,148 462,206 346,322 231,437 173,577 173,740 Z"
   id="path12" />
  </g>
 </defs>
 
 <path
   id="path13"
   d="M 6366.7948 1352.1655 C 6353.7767 1352.0447 6340.2096 1352.3048 6326.0221 1352.9923 C 6112.4199 1365.2792 5918.5243 1435.674 5880.1578 1569.1549 C 5780.8137 1815.5635 5665.8643 2203.6414 5105.9932 2271.0242 C 4540.9932 2339.0242 4355.9894 1911.9811 4194.9894 1663.9811 C 4194.0242 1662.4943 4192.838 1661.3357 4191.8371 1659.8987 C 4158.9669 1596.089 4080.2449 1573.1489 3958.9831 1579.0251 C 3732.9831 1592.0251 3529.0029 1670.0104 3508.0029 1819.0104 C 3488.6827 1944.1715 3501.8372 2137.7307 3567.5858 2264.0478 C 3567.7365 2264.3598 3567.8475 2264.6661 3567.9992 2264.978 C 3763.9992 2667.978 4381.0138 3058.0137 5065.0138 2992.0137 C 5748.0138 2926.0137 6326.9847 2241.0113 6515.9847 1762.0113 C 6517.9947 1756.9171 6519.2948 1752.2106 6521.1006 1747.2318 C 6527.5914 1731.1739 6533.2636 1715.9575 6537.9988 1702.015 C 6625.1863 1448.89 6562.0658 1353.9783 6366.7948 1352.1655 z M 6548.9542 3038.9876 C 6535.8883 3038.9144 6522.2248 3039.2711 6507.9748 3040.0211 C 6307.771 3050.6046 6126.3529 3112.5195 6071.8774 3229.2086 C 5825.4768 3602.9043 5194.9717 4491.9842 4704.0022 5296.0074 C 4457.0397 5701.2417 4138.2968 6202.9953 3861.7281 6641.1966 C 3838.2747 6410.3446 3816.8327 6149.211 3807.9846 5852.976 C 3782.9846 5016.976 3856.9982 3840.0097 3923.9982 3482.0097 C 3924.0643 3481.4429 3923.8608 3480.9639 3923.8948 3480.4077 C 3949.5384 3310.6844 3863.6216 3252.3757 3678.0184 3263.0049 C 3452.0184 3275.0049 3247.9865 3352.0084 3226.9865 3502.0084 C 3221.1681 3539.7013 3218.357 3583.6104 3218.9766 3630.011 C 3196.2142 3999.0135 3176.2089 4824.8586 3180.9944 5513.9786 C 3184.85 6207.9718 3227.602 7342.3833 3241.5075 7760.5598 C 3236.419 7905.9333 3266.7306 8090.6116 3351.9918 8184.9784 C 3447.9918 8290.9784 3521.0224 8265.0131 3655.0224 8166.0131 C 3752.3556 8094.8291 3824.7732 7982.0572 3870.9782 7884.9967 C 3871.0835 7884.7373 3871.234 7884.3783 3871.3399 7884.1182 C 3878.4365 7869.175 3884.8783 7854.6841 3890.7186 7840.71 C 4058.4379 7472.052 4661.2848 6553.1055 5008.0147 5948.009 C 5233.9709 5551.9579 5757.337 4797.5981 6147.2216 4250.7483 C 6178.6446 4568.3041 6203.3153 4969.8252 6193.007 5470.002 C 6171.7535 6504.0284 6043.9767 6957.1858 6012.0361 7316.7626 C 6012.0236 7316.85 6011.9967 7316.9336 6011.9844 7317.021 C 5988.9844 7467.021 6012.9755 7712.9822 6114.9755 7825.9822 C 6210.9755 7932.9822 6283.988 7906.0169 6418.988 7807.0169 C 6551.988 7710.0169 6638.9749 7532.9885 6675.9749 7426.9885 C 6685.1059 7400.191 6692.5317 7375.2479 6698.3508 7351.9026 C 6699.671 7347.9696 6701.1712 7344.1221 6702.0198 7340.017 C 6702.9941 7335.0885 6703.7999 7328.4964 6704.7587 7323.4289 C 6707.4806 7309.9773 6709.5699 7297.1524 6711.0632 7284.93 C 6772.4409 6926.7435 6800.838 6268.0668 6817.9817 5368.9746 C 6833.9817 4425.9746 6791.0008 3463.9944 6760.0008 3180.9944 C 6758.6028 3168.5005 6755.4875 3157.6256 6751.6809 3147.4564 C 6730.4265 3071.8357 6661.9695 3039.6211 6548.9542 3038.9876 z " />
   
  
</svg>
