<?xml version="1.0" encoding="UTF-8" standalone="no"?>
<svg
   version="1.2"
   width="100mm"
   height="100mm"
   viewBox="0 0 10000 10000"
   preserveAspectRatio="xMidYMid"
   fill-rule="evenodd"
   stroke-width="28.222"
   stroke-linejoin="round"
   xml:space="preserve"
   id="svg21"
   sodipodi:docname="gobo-caps-042D.svg"
   inkscape:version="1.4 (86a8ad7, 2024-10-11)"
   xmlns:inkscape="http://www.inkscape.org/namespaces/inkscape"
   xmlns:sodipodi="http://sodipodi.sourceforge.net/DTD/sodipodi-0.dtd"
   xmlns="http://www.w3.org/2000/svg"
   xmlns:svg="http://www.w3.org/2000/svg"
   xmlns:ooo="http://xml.openoffice.org/svg/export"><sodipodi:namedview
   id="namedview21"
   pagecolor="#ffffff"
   bordercolor="#000000"
   borderopacity="0.25"
   inkscape:showpageshadow="2"
   inkscape:pageopacity="0.0"
   inkscape:pagecheckerboard="0"
   inkscape:deskcolor="#d1d1d1"
   inkscape:document-units="mm"
   showgrid="false"
   inkscape:zoom="3.0876875"
   inkscape:cx="188.81444"
   inkscape:cy="188.97638"
   inkscape:window-width="2560"
   inkscape:window-height="1369"
   inkscape:window-x="-8"
   inkscape:window-y="-8"
   inkscape:window-maximized="1"
   inkscape:current-layer="svg21" />
 <defs
   class="ClipPathGroup"
   id="defs2">
  
  <clipPath
   id="presentation_clip_path_shrink"
   clipPathUnits="userSpaceOnUse">
   <rect
   x="10"
   y="10"
   width="9980"
   height="9980"
   id="rect2" />
  </clipPath>
 
  
 
   
  
    
   
     
    
      
      
      
      
      
      
     
       
      
       
      
       
      
       
      
       
      
       
      
        
        
       
        
        
       
        
        
       
        
        
       
        
        
       
        
        
       </defs>
 <defs
   class="TextShapeIndex"
   id="defs3">
  <g
   ooo:slide="id1"
   ooo:id-list="id3 id4 id5 id6 id7 id8"
   id="g2" />
 </defs>
 <defs
   class="EmbeddedBulletChars"
   id="defs12">
  <g
   id="bullet-char-template-57356"
   transform="scale(0.00048828125,-0.00048828125)">
   <path
   d="M 580,1141 L 1163,571 580,0 -4,571 580,1141 Z"
   id="path3" />
  </g>
  <g
   id="bullet-char-template-57354"
   transform="scale(0.00048828125,-0.00048828125)">
   <path
   d="M 8,1128 L 1137,1128 1137,0 8,0 8,1128 Z"
   id="path4" />
  </g>
  <g
   id="bullet-char-template-10146"
   transform="scale(0.00048828125,-0.00048828125)">
   <path
   d="M 174,0 L 602,739 174,1481 1456,739 174,0 Z M 1358,739 L 309,1346 659,739 1358,739 Z"
   id="path5" />
  </g>
  <g
   id="bullet-char-template-10132"
   transform="scale(0.00048828125,-0.00048828125)">
   <path
   d="M 2015,739 L 1276,0 717,0 1260,543 174,543 174,936 1260,936 717,1481 1274,1481 2015,739 Z"
   id="path6" />
  </g>
  <g
   id="bullet-char-template-10007"
   transform="scale(0.00048828125,-0.00048828125)">
   <path
   d="M 0,-2 C -7,14 -16,27 -25,37 L 356,567 C 262,823 215,952 215,954 215,979 228,992 255,992 264,992 276,990 289,987 310,991 331,999 354,1012 L 381,999 492,748 772,1049 836,1024 860,1049 C 881,1039 901,1025 922,1006 886,937 835,863 770,784 769,783 710,716 594,584 L 774,223 C 774,196 753,168 711,139 L 727,119 C 717,90 699,76 672,76 641,76 570,178 457,381 L 164,-76 C 142,-110 111,-127 72,-127 30,-127 9,-110 8,-76 1,-67 -2,-52 -2,-32 -2,-23 -1,-13 0,-2 Z"
   id="path7" />
  </g>
  <g
   id="bullet-char-template-10004"
   transform="scale(0.00048828125,-0.00048828125)">
   <path
   d="M 285,-33 C 182,-33 111,30 74,156 52,228 41,333 41,471 41,549 55,616 82,672 116,743 169,778 240,778 293,778 328,747 346,684 L 369,508 C 377,444 397,411 428,410 L 1163,1116 C 1174,1127 1196,1133 1229,1133 1271,1133 1292,1118 1292,1087 L 1292,965 C 1292,929 1282,901 1262,881 L 442,47 C 390,-6 338,-33 285,-33 Z"
   id="path8" />
  </g>
  <g
   id="bullet-char-template-9679"
   transform="scale(0.00048828125,-0.00048828125)">
   <path
   d="M 813,0 C 632,0 489,54 383,161 276,268 223,411 223,592 223,773 276,916 383,1023 489,1130 632,1184 813,1184 992,1184 1136,1130 1245,1023 1353,916 1407,772 1407,592 1407,412 1353,268 1245,161 1136,54 992,0 813,0 Z"
   id="path9" />
  </g>
  <g
   id="bullet-char-template-8226"
   transform="scale(0.00048828125,-0.00048828125)">
   <path
   d="M 346,457 C 273,457 209,483 155,535 101,586 74,649 74,723 74,796 101,859 155,911 209,963 273,989 346,989 419,989 480,963 531,910 582,859 608,796 608,723 608,648 583,586 532,535 482,483 420,457 346,457 Z"
   id="path10" />
  </g>
  <g
   id="bullet-char-template-8211"
   transform="scale(0.00048828125,-0.00048828125)">
   <path
   d="M -4,459 L 1135,459 1135,606 -4,606 -4,459 Z"
   id="path11" />
  </g>
  <g
   id="bullet-char-template-61548"
   transform="scale(0.00048828125,-0.00048828125)">
   <path
   d="M 173,740 C 173,903 231,1043 346,1159 462,1274 601,1332 765,1332 928,1332 1067,1274 1183,1159 1299,1043 1357,903 1357,740 1357,577 1299,437 1183,322 1067,206 928,148 765,148 601,148 462,206 346,322 231,437 173,577 173,740 Z"
   id="path12" />
  </g>
 </defs>
 
 <path
   id="path13"
   d="M 4920.5782 2160.0749 C 4882.0306 2160.6241 4843.478 2162.2654 4804.978 2164.9841 C 3572.978 2251.9841 3185.025 2814.9991 2849.025 3231.9991 C 2837.6407 3246.1526 2830.3879 3263.1582 2824.9955 3281.2984 C 2818.1922 3296.3178 2813.3618 3312.1754 2810.9912 3328.9957 C 2787.9912 3477.9957 2810.9823 3724.0086 2913.9823 3838.0086 C 3009.9823 3944.0086 3083.0129 3917.9917 3217.0129 3818.9917 C 3242.1379 3800.6167 3265.6023 3779.4558 3287.3962 3756.5149 C 3287.4297 3756.4796 3287.4661 3756.4468 3287.4996 3756.4115 C 3295.4912 3749.7856 3303.3633 3742.4489 3311.0123 3733.9839 C 3928.0123 2910.9839 4984.0035 2541.9817 5954.0035 3474.9817 C 6335.8755 3842.2875 6555.4965 4371.7577 6645.7958 4936.8046 C 6271.0856 4974.6095 5867.2057 5039.5224 5426.0253 5102.996 C 4906.0262 5177.8093 4561.2737 5211.6944 4183.1555 5310.0634 C 4151.468 5316.5568 4121.0021 5324.4538 4092.6184 5334.0413 C 4091.3938 5334.3895 4090.2266 5334.6734 4089.001 5335.0232 C 4087.1392 5335.5434 4085.5299 5336.5078 4083.73 5337.1419 C 3973.0933 5376.3725 3893.6805 5440.051 3881.0034 5529.9983 C 3859.0034 5679.9983 3881.9945 5926.0112 3983.9945 6039.0112 C 4040.9244 6101.8101 4089.3296 6118.1596 4146.827 6101.1779 C 4149.587 6101.2287 4152.3231 6101.0302 4154.9918 6099.9894 C 4348.9918 6019.9894 4926.025 5891.0037 5389.025 5823.0037 C 5852.025 5756.0037 6446.0238 5704.0224 6679.0238 5728.0224 C 6682.7986 5728.4079 6686.5954 5727.9272 6690.3926 5727.8674 C 6690.6164 5727.885 6690.8405 5727.9027 6691.0644 5727.9191 C 6666.585 6344.5158 6508.2862 6935.1759 6255.0187 7340.9989 C 5659.0187 8295.9989 3987.9948 8625.9834 3385.9948 7170.9834 C 3385.017 7168.6118 3383.6396 7166.9756 3382.5325 7164.8339 C 3352.1777 7095.0334 3272.1365 7069.8903 3146.0095 7076.0021 C 2920.0095 7089.0021 2715.9776 7166.9875 2694.9776 7315.9875 C 2675.7788 7440.3625 2688.6923 7632.2894 2753.372 7758.6478 C 2754.0968 7761.2332 2754.704 7763.9255 2756.0075 7765.9859 C 3048.0075 8309.9859 3729.0166 9037.9953 5062.0166 8838.9953 C 6395.0166 8639.9953 7314.0238 7223.9923 7314.0238 5162.9923 C 7314.0238 3167.3673 6115.5521 2143.0489 4920.5782 2160.0749 z " />
   
  
</svg>
