<?xml version="1.0" encoding="UTF-8" standalone="no"?>
<svg
   version="1.2"
   width="100mm"
   height="100mm"
   viewBox="0 0 10000 10000"
   preserveAspectRatio="xMidYMid"
   fill-rule="evenodd"
   stroke-width="28.222"
   stroke-linejoin="round"
   xml:space="preserve"
   id="svg29"
   sodipodi:docname="gobo-caps-0414.svg"
   inkscape:version="1.4 (86a8ad7, 2024-10-11)"
   xmlns:inkscape="http://www.inkscape.org/namespaces/inkscape"
   xmlns:sodipodi="http://sodipodi.sourceforge.net/DTD/sodipodi-0.dtd"
   xmlns="http://www.w3.org/2000/svg"
   xmlns:svg="http://www.w3.org/2000/svg"
   xmlns:ooo="http://xml.openoffice.org/svg/export"><sodipodi:namedview
   id="namedview29"
   pagecolor="#ffffff"
   bordercolor="#000000"
   borderopacity="0.25"
   inkscape:showpageshadow="2"
   inkscape:pageopacity="0.0"
   inkscape:pagecheckerboard="0"
   inkscape:deskcolor="#d1d1d1"
   inkscape:document-units="mm"
   showgrid="false"
   inkscape:zoom="3.0876875"
   inkscape:cx="188.81444"
   inkscape:cy="188.97638"
   inkscape:window-width="2560"
   inkscape:window-height="1369"
   inkscape:window-x="-8"
   inkscape:window-y="-8"
   inkscape:window-maximized="1"
   inkscape:current-layer="svg29" />
 <defs
   class="ClipPathGroup"
   id="defs2">
  
  <clipPath
   id="presentation_clip_path_shrink"
   clipPathUnits="userSpaceOnUse">
   <rect
   x="10"
   y="10"
   width="9980"
   height="9980"
   id="rect2" />
  </clipPath>
 
  
 
   
  
    
   
     
    
      
      
      
      
      
      
      
      
      
      
      
      
      
      
     
       
      
       
      
       
      
       
      
       
      
       
      
       
      
       
      
       
      
       
      
       
      
       
      
       
      
       
      
        
        
       
        
        
       
        
        
       
        
        
       
        
        
       
        
        
       
        
        
       
        
        
       
        
        
       
        
        
       
        
        
       
        
        
       
        
        
       
        
        
       </defs>
 <defs
   class="TextShapeIndex"
   id="defs3">
  <g
   ooo:slide="id1"
   ooo:id-list="id3 id4 id5 id6 id7 id8 id9 id10 id11 id12 id13 id14 id15 id16"
   id="g2" />
 </defs>
 <defs
   class="EmbeddedBulletChars"
   id="defs12">
  <g
   id="bullet-char-template-57356"
   transform="scale(0.00048828125,-0.00048828125)">
   <path
   d="M 580,1141 L 1163,571 580,0 -4,571 580,1141 Z"
   id="path3" />
  </g>
  <g
   id="bullet-char-template-57354"
   transform="scale(0.00048828125,-0.00048828125)">
   <path
   d="M 8,1128 L 1137,1128 1137,0 8,0 8,1128 Z"
   id="path4" />
  </g>
  <g
   id="bullet-char-template-10146"
   transform="scale(0.00048828125,-0.00048828125)">
   <path
   d="M 174,0 L 602,739 174,1481 1456,739 174,0 Z M 1358,739 L 309,1346 659,739 1358,739 Z"
   id="path5" />
  </g>
  <g
   id="bullet-char-template-10132"
   transform="scale(0.00048828125,-0.00048828125)">
   <path
   d="M 2015,739 L 1276,0 717,0 1260,543 174,543 174,936 1260,936 717,1481 1274,1481 2015,739 Z"
   id="path6" />
  </g>
  <g
   id="bullet-char-template-10007"
   transform="scale(0.00048828125,-0.00048828125)">
   <path
   d="M 0,-2 C -7,14 -16,27 -25,37 L 356,567 C 262,823 215,952 215,954 215,979 228,992 255,992 264,992 276,990 289,987 310,991 331,999 354,1012 L 381,999 492,748 772,1049 836,1024 860,1049 C 881,1039 901,1025 922,1006 886,937 835,863 770,784 769,783 710,716 594,584 L 774,223 C 774,196 753,168 711,139 L 727,119 C 717,90 699,76 672,76 641,76 570,178 457,381 L 164,-76 C 142,-110 111,-127 72,-127 30,-127 9,-110 8,-76 1,-67 -2,-52 -2,-32 -2,-23 -1,-13 0,-2 Z"
   id="path7" />
  </g>
  <g
   id="bullet-char-template-10004"
   transform="scale(0.00048828125,-0.00048828125)">
   <path
   d="M 285,-33 C 182,-33 111,30 74,156 52,228 41,333 41,471 41,549 55,616 82,672 116,743 169,778 240,778 293,778 328,747 346,684 L 369,508 C 377,444 397,411 428,410 L 1163,1116 C 1174,1127 1196,1133 1229,1133 1271,1133 1292,1118 1292,1087 L 1292,965 C 1292,929 1282,901 1262,881 L 442,47 C 390,-6 338,-33 285,-33 Z"
   id="path8" />
  </g>
  <g
   id="bullet-char-template-9679"
   transform="scale(0.00048828125,-0.00048828125)">
   <path
   d="M 813,0 C 632,0 489,54 383,161 276,268 223,411 223,592 223,773 276,916 383,1023 489,1130 632,1184 813,1184 992,1184 1136,1130 1245,1023 1353,916 1407,772 1407,592 1407,412 1353,268 1245,161 1136,54 992,0 813,0 Z"
   id="path9" />
  </g>
  <g
   id="bullet-char-template-8226"
   transform="scale(0.00048828125,-0.00048828125)">
   <path
   d="M 346,457 C 273,457 209,483 155,535 101,586 74,649 74,723 74,796 101,859 155,911 209,963 273,989 346,989 419,989 480,963 531,910 582,859 608,796 608,723 608,648 583,586 532,535 482,483 420,457 346,457 Z"
   id="path10" />
  </g>
  <g
   id="bullet-char-template-8211"
   transform="scale(0.00048828125,-0.00048828125)">
   <path
   d="M -4,459 L 1135,459 1135,606 -4,606 -4,459 Z"
   id="path11" />
  </g>
  <g
   id="bullet-char-template-61548"
   transform="scale(0.00048828125,-0.00048828125)">
   <path
   d="M 173,740 C 173,903 231,1043 346,1159 462,1274 601,1332 765,1332 928,1332 1067,1274 1183,1159 1299,1043 1357,903 1357,740 1357,577 1299,437 1183,322 1067,206 928,148 765,148 601,148 462,206 346,322 231,437 173,577 173,740 Z"
   id="path12" />
  </g>
 </defs>
 
 <path
   id="path13"
   d="M 7321.0001 2008.973 C 7307.9271 2008.8997 7294.2707 2009.2565 7280.0207 2010.0065 C 7260.5274 2011.1278 7241.2955 2012.9398 7222.2464 2015.0191 C 6848.7434 2033.8592 5582.3049 2126.1891 4937.9931 2192.0109 C 4320.7703 2257.0286 3910.1659 2313.7989 3542.4194 2379.0279 C 3498.7025 2383.7557 3456.57 2391.0935 3417.0524 2401.0421 C 3413.4739 2401.7137 3409.5668 2402.3319 3405.9936 2403.0058 C 3401.1564 2403.9448 3396.4539 2405.7118 3391.8343 2407.8633 C 3261.9701 2445.4632 3166.0679 2513.2315 3152.004 2613.0188 C 3129.004 2763.0188 3152.9951 3008.98 3254.9951 3121.98 C 3292.0868 3162.9354 3325.8044 3184.16 3360.9318 3189.1076 C 3371.3859 3192.1552 3382.7365 3192.2543 3394.9865 3189.0043 C 3395.0845 3188.9788 3395.3016 3188.9265 3395.4 3188.9009 C 3402.9663 3187.8277 3410.7323 3185.9227 3418.6027 3183.5783 C 3466.2168 3171.9556 3538.7016 3156.3676 3632.3881 3137.7929 C 3632.6296 3143.2183 3632.4607 3148.4464 3633.0082 3154.0193 C 3720.0082 3605.0193 3764.9913 4506.9891 3781.9913 5595.9891 C 3797.3907 6582.4563 3414.8311 7701.025 2881.0644 8275.3088 C 2762.3189 8290.1908 2622.8805 8307.4831 2576.0185 8314.0144 C 2565.7505 8315.4146 2556.0758 8317.9728 2546.7696 8321.1974 C 2389.2961 8354.6164 2267.0602 8426.443 2251.0254 8540.9773 C 2241.4886 8602.7593 2240.015 8681.2423 2248.6483 8759.982 C 2248.4727 8763.3661 2248.4849 8766.7256 2249.01 8770.0073 C 2270.7319 8905.7694 2276.8385 9197.568 2277.0703 9376.5335 C 2276.9404 9385.6884 2276.8706 9394.9074 2277.0186 9404.2838 C 2276.9992 9412.6476 2277.0643 9422.3459 2277.0186 9430.0186 C 2276.9938 9434.1799 2277.5161 9437.9853 2278.3622 9441.6458 C 2285.3484 9568.7468 2318.0989 9705.6706 2386.9861 9781.9868 C 2483.9861 9887.9868 2555.9804 9862.0216 2691.9804 9763.0216 C 2824.9804 9666.0216 2911.9854 9488.0112 2947.9854 9382.0112 C 2978.3304 9294.2391 2990.3741 9225.5076 2985.0374 9173.0317 C 2985.0085 9172.6881 2985.0201 9172.3414 2984.9857 9171.9982 C 2981.3496 9135.6372 2978.0305 9086.1466 2974.9088 9032.3168 C 3682.6139 8921.713 4894.2671 8748.9939 5159.0132 8718.0208 C 5519.0132 8677.0208 6737.0223 8588.0029 6830.0223 8588.0029 C 6923.0223 8588.0029 7016.9861 8594.0029 6999.9861 8756.0029 C 6999.6599 8759.1501 7000.1056 8762.066 7000.2962 8765.0463 C 6996.0612 8910.1372 7026.556 9091.5385 7110.0052 9183.9872 C 7207.0052 9289.9872 7278.9995 9264.0219 7414.9995 9165.0219 C 7547.9995 9068.0219 7635.0046 8890.0116 7671.0046 8784.0116 C 7695.3778 8713.5127 7707.8807 8655.3472 7709.1418 8607.95 C 7792.1588 7888.2742 7820.5287 7805.0394 7340.9989 7813.9933 C 7329.6688 7814.2048 7313.4031 7815.2116 7301.3114 7815.5436 C 7315.4228 7444.0825 7345.9539 6249.7341 7334.0226 5336.9869 C 7322.2092 4502.7838 7272.9767 3301.5951 7275.9899 2706.7598 C 7387.3482 2605.1289 7460.7074 2454.0002 7492.9793 2358.9774 C 7580.1668 2105.8524 7517.0951 2010.0716 7321.0001 2008.973 z M 6569.6765 2833.057 C 6656.2551 3287.385 6707.0066 4776.6591 6711.9934 5392.0223 C 6714.8362 5976.7072 6642.5872 7325.1104 6599.2354 7859.8303 C 6086.9989 7901.9392 5501.5596 7962.3542 5207.0206 7995.9977 C 4953.5719 8024.4627 4286.3407 8103.8958 3677.1399 8177.5886 C 4077.275 7435.2312 4411.7193 6424.956 4404.0206 5541.0054 C 4394.8197 4378.9375 4340.6417 3535.0857 4344.386 3011.289 C 4587.5327 2972.2506 4837.574 2936.2482 5045.9969 2913.9823 C 5417.8497 2874.3267 6103.1702 2845.5373 6569.6765 2833.057 z " />
   
  
</svg>
