<?xml version="1.0" encoding="UTF-8" standalone="no"?>
<svg
   version="1.2"
   width="100mm"
   height="100mm"
   viewBox="0 0 10000 10000"
   preserveAspectRatio="xMidYMid"
   fill-rule="evenodd"
   stroke-width="28.222"
   stroke-linejoin="round"
   xml:space="preserve"
   id="svg24"
   sodipodi:docname="gobo-caps-0436.svg"
   inkscape:version="1.4 (86a8ad7, 2024-10-11)"
   xmlns:inkscape="http://www.inkscape.org/namespaces/inkscape"
   xmlns:sodipodi="http://sodipodi.sourceforge.net/DTD/sodipodi-0.dtd"
   xmlns="http://www.w3.org/2000/svg"
   xmlns:svg="http://www.w3.org/2000/svg"
   xmlns:ooo="http://xml.openoffice.org/svg/export"><sodipodi:namedview
   id="namedview24"
   pagecolor="#ffffff"
   bordercolor="#000000"
   borderopacity="0.25"
   inkscape:showpageshadow="2"
   inkscape:pageopacity="0.0"
   inkscape:pagecheckerboard="0"
   inkscape:deskcolor="#d1d1d1"
   inkscape:document-units="mm"
   showgrid="false"
   inkscape:zoom="3.0876875"
   inkscape:cx="188.81444"
   inkscape:cy="188.97638"
   inkscape:window-width="2560"
   inkscape:window-height="1369"
   inkscape:window-x="-8"
   inkscape:window-y="-8"
   inkscape:window-maximized="1"
   inkscape:current-layer="svg24" />
 <defs
   class="ClipPathGroup"
   id="defs2">
  
  <clipPath
   id="presentation_clip_path_shrink"
   clipPathUnits="userSpaceOnUse">
   <rect
   x="10"
   y="10"
   width="9980"
   height="9980"
   id="rect2" />
  </clipPath>
 
  
 
   
  
    
   
     
    
      
      
      
      
      
      
      
      
      
     
       
      
       
      
       
      
       
      
       
      
       
      
       
      
       
      
       
      
        
        
       
        
        
       
        
        
       
        
        
       
        
        
       
        
        
       
        
        
       
        
        
       
        
        
       </defs>
 <defs
   class="TextShapeIndex"
   id="defs3">
  <g
   ooo:slide="id1"
   ooo:id-list="id3 id4 id5 id6 id7 id8 id9 id10 id11"
   id="g2" />
 </defs>
 <defs
   class="EmbeddedBulletChars"
   id="defs12">
  <g
   id="bullet-char-template-57356"
   transform="scale(0.00048828125,-0.00048828125)">
   <path
   d="M 580,1141 L 1163,571 580,0 -4,571 580,1141 Z"
   id="path3" />
  </g>
  <g
   id="bullet-char-template-57354"
   transform="scale(0.00048828125,-0.00048828125)">
   <path
   d="M 8,1128 L 1137,1128 1137,0 8,0 8,1128 Z"
   id="path4" />
  </g>
  <g
   id="bullet-char-template-10146"
   transform="scale(0.00048828125,-0.00048828125)">
   <path
   d="M 174,0 L 602,739 174,1481 1456,739 174,0 Z M 1358,739 L 309,1346 659,739 1358,739 Z"
   id="path5" />
  </g>
  <g
   id="bullet-char-template-10132"
   transform="scale(0.00048828125,-0.00048828125)">
   <path
   d="M 2015,739 L 1276,0 717,0 1260,543 174,543 174,936 1260,936 717,1481 1274,1481 2015,739 Z"
   id="path6" />
  </g>
  <g
   id="bullet-char-template-10007"
   transform="scale(0.00048828125,-0.00048828125)">
   <path
   d="M 0,-2 C -7,14 -16,27 -25,37 L 356,567 C 262,823 215,952 215,954 215,979 228,992 255,992 264,992 276,990 289,987 310,991 331,999 354,1012 L 381,999 492,748 772,1049 836,1024 860,1049 C 881,1039 901,1025 922,1006 886,937 835,863 770,784 769,783 710,716 594,584 L 774,223 C 774,196 753,168 711,139 L 727,119 C 717,90 699,76 672,76 641,76 570,178 457,381 L 164,-76 C 142,-110 111,-127 72,-127 30,-127 9,-110 8,-76 1,-67 -2,-52 -2,-32 -2,-23 -1,-13 0,-2 Z"
   id="path7" />
  </g>
  <g
   id="bullet-char-template-10004"
   transform="scale(0.00048828125,-0.00048828125)">
   <path
   d="M 285,-33 C 182,-33 111,30 74,156 52,228 41,333 41,471 41,549 55,616 82,672 116,743 169,778 240,778 293,778 328,747 346,684 L 369,508 C 377,444 397,411 428,410 L 1163,1116 C 1174,1127 1196,1133 1229,1133 1271,1133 1292,1118 1292,1087 L 1292,965 C 1292,929 1282,901 1262,881 L 442,47 C 390,-6 338,-33 285,-33 Z"
   id="path8" />
  </g>
  <g
   id="bullet-char-template-9679"
   transform="scale(0.00048828125,-0.00048828125)">
   <path
   d="M 813,0 C 632,0 489,54 383,161 276,268 223,411 223,592 223,773 276,916 383,1023 489,1130 632,1184 813,1184 992,1184 1136,1130 1245,1023 1353,916 1407,772 1407,592 1407,412 1353,268 1245,161 1136,54 992,0 813,0 Z"
   id="path9" />
  </g>
  <g
   id="bullet-char-template-8226"
   transform="scale(0.00048828125,-0.00048828125)">
   <path
   d="M 346,457 C 273,457 209,483 155,535 101,586 74,649 74,723 74,796 101,859 155,911 209,963 273,989 346,989 419,989 480,963 531,910 582,859 608,796 608,723 608,648 583,586 532,535 482,483 420,457 346,457 Z"
   id="path10" />
  </g>
  <g
   id="bullet-char-template-8211"
   transform="scale(0.00048828125,-0.00048828125)">
   <path
   d="M -4,459 L 1135,459 1135,606 -4,606 -4,459 Z"
   id="path11" />
  </g>
  <g
   id="bullet-char-template-61548"
   transform="scale(0.00048828125,-0.00048828125)">
   <path
   d="M 173,740 C 173,903 231,1043 346,1159 462,1274 601,1332 765,1332 928,1332 1067,1274 1183,1159 1299,1043 1357,903 1357,740 1357,577 1299,437 1183,322 1067,206 928,148 765,148 601,148 462,206 346,322 231,437 173,577 173,740 Z"
   id="path12" />
  </g>
 </defs>
 
 <path
   id="path13"
   d="M 7836.9893 2933.9811 C 7823.9163 2933.9079 7810.2599 2934.2646 7796.0099 2935.0146 C 7643.7358 2943.7738 7501.993 2981.6136 7419.237 3051.2349 C 7410.1226 3056.7614 7401.5903 3063.701 7394.0189 3072.9907 C 7093.0189 3442.9907 7112.9871 3485.9804 6475.9871 4129.9804 C 5840.9871 4769.9804 5640.9798 4887.0154 5325.9798 5250.0154 C 5298.9013 5281.1342 5273.9378 5315.8155 5250.0671 5351.9213 C 5249.7634 4591.3802 5335.1715 3738.0801 5368.9746 3377.2099 C 5394.3785 3208.2083 5308.5639 3149.396 5123.9766 3160.0138 C 4898.2793 3171.9449 4695.4423 3249.1503 4672.4796 3396.4852 C 4672.3975 3396.9876 4672.0607 3397.4813 4672.0145 3397.9838 C 4671.9826 3398.4384 4671.9431 3399.3361 4671.9112 3399.7925 C 4666.1603 3439.0956 4663.6162 3485.1201 4664.7282 3533.6344 C 4645.7909 3870.3987 4626.484 4449.46 4621.9917 5023.1042 C 4032.0425 4607.8142 2929.4421 3778.9001 2628.9868 3448.0066 L 2628.9351 3447.9549 C 2591.5859 3396.3332 2516.5012 3377.6431 2406.003 3382.9976 C 2180.003 3395.9976 1976.0228 3473.983 1955.0228 3622.983 C 1932.0228 3771.983 1955.0139 4017.9958 2058.0139 4131.9958 C 2066.4406 4141.3003 2074.6379 4149.2319 2082.7669 4156.5421 C 2083.9189 4157.9602 2084.7239 4159.7091 2086.0225 4160.9863 C 2605.0225 4571.9863 3030.9993 4812.0136 3735.9993 5364.0136 C 4440.9993 5916.0136 4544.99 6003.018 4268.99 6181.018 C 4000.2053 6356.3124 2420.2361 7477.0982 2095.686 7716.4282 C 2032.4376 7754.6381 1989.9902 7805.3033 1981.016 7868.977 C 1958.016 8017.977 1981.0071 8263.9898 2084.0071 8377.9898 C 2180.0071 8483.9898 2252.9861 8458.0246 2386.9861 8359.0246 C 2406.0846 8345.057 2424.1206 8329.3103 2441.298 8312.5675 C 2762.79 8050.0693 3841.028 7133.4807 4590.9859 6677.9903 C 4613.6878 6664.2272 4635.4627 6648.6089 4656.7183 6632.1016 C 4672.1082 7071.4774 4686.122 7429.1855 4693.7186 7646.4583 C 4687.8003 7793.0714 4717.6919 7980.4871 4803.0143 8075.0109 C 4900.0143 8181.0109 4971.9751 8154.994 5106.9751 8055.994 C 5240.9751 7958.994 5328.0136 7780.9837 5364.0136 7674.9837 C 5385.9329 7611.5827 5398.2314 7558.2052 5401.4274 7513.5982 C 5401.9192 7512.0783 5402.7228 7510.4608 5402.9777 7508.999 C 5409.7026 7309.697 5360.7804 6960.5717 5316.678 6529.1105 C 5347.4725 6550.6158 5380.97 6570.1621 5418.0155 6586.9881 C 6325.0155 6998.9881 7389.0242 7683.9776 7519.0242 7774.9776 C 7525.9177 7779.8188 7534.2923 7781.9263 7543.5188 7782.419 C 7604.3509 7800.3691 7666.769 7766.8802 7757.976 7699.9951 C 7891.976 7602.9951 7979.0146 7426.0183 8015.0146 7320.0183 C 8077.2414 7137.3961 8062.0579 7036.712 7975.2237 6994.3534 C 7970.3121 6990.7935 7965.5885 6987.1164 7959.9792 6984.0181 C 7681.9792 6830.0181 6131.9914 6074.0071 5854.9914 5894.0071 C 5578.9914 5716.0071 5656.9873 5678.0166 6344.9873 5062.0166 C 7027.9873 4443.0166 7453.9754 4025.9783 7851.9754 3571.9783 C 7854.3638 3568.5216 7856.2074 3564.7188 7858.1249 3560.9712 C 7932.8015 3468.1662 7983.6398 3358.7165 8009.0201 3283.9856 C 8096.2076 3030.8606 8033.0843 2935.0797 7836.9893 2933.9811 z " />
   
  
</svg>
