<?xml version="1.0" encoding="UTF-8" standalone="no"?>
<svg
   version="1.2"
   width="100mm"
   height="100mm"
   viewBox="0 0 10000 10000"
   preserveAspectRatio="xMidYMid"
   fill-rule="evenodd"
   stroke-width="28.222"
   stroke-linejoin="round"
   xml:space="preserve"
   id="svg25"
   sodipodi:docname="gobo-caps-0419.svg"
   inkscape:version="1.4 (86a8ad7, 2024-10-11)"
   xmlns:inkscape="http://www.inkscape.org/namespaces/inkscape"
   xmlns:sodipodi="http://sodipodi.sourceforge.net/DTD/sodipodi-0.dtd"
   xmlns="http://www.w3.org/2000/svg"
   xmlns:svg="http://www.w3.org/2000/svg"
   xmlns:ooo="http://xml.openoffice.org/svg/export"><sodipodi:namedview
   id="namedview25"
   pagecolor="#ffffff"
   bordercolor="#000000"
   borderopacity="0.25"
   inkscape:showpageshadow="2"
   inkscape:pageopacity="0.0"
   inkscape:pagecheckerboard="0"
   inkscape:deskcolor="#d1d1d1"
   inkscape:document-units="mm"
   showgrid="false"
   inkscape:zoom="3.0876875"
   inkscape:cx="188.81444"
   inkscape:cy="188.97638"
   inkscape:window-width="2560"
   inkscape:window-height="1369"
   inkscape:window-x="-8"
   inkscape:window-y="-8"
   inkscape:window-maximized="1"
   inkscape:current-layer="svg25" />
 <defs
   class="ClipPathGroup"
   id="defs2">
  
  <clipPath
   id="presentation_clip_path_shrink"
   clipPathUnits="userSpaceOnUse">
   <rect
   x="10"
   y="10"
   width="9980"
   height="9980"
   id="rect2" />
  </clipPath>
 
  
 
   
  
    
   
     
    
      
      
      
      
      
      
      
      
      
      
     
       
      
       
      
       
      
       
      
       
      
       
      
       
      
       
      
       
      
       
      
        
        
       
        
        
       
        
        
       
        
        
       
        
        
       
        
        
       
        
        
       
        
        
       
        
        
       
        
        
       </defs>
 <defs
   class="TextShapeIndex"
   id="defs3">
  <g
   ooo:slide="id1"
   ooo:id-list="id3 id4 id5 id6 id7 id8 id9 id10 id11 id12"
   id="g2" />
 </defs>
 <defs
   class="EmbeddedBulletChars"
   id="defs12">
  <g
   id="bullet-char-template-57356"
   transform="scale(0.00048828125,-0.00048828125)">
   <path
   d="M 580,1141 L 1163,571 580,0 -4,571 580,1141 Z"
   id="path3" />
  </g>
  <g
   id="bullet-char-template-57354"
   transform="scale(0.00048828125,-0.00048828125)">
   <path
   d="M 8,1128 L 1137,1128 1137,0 8,0 8,1128 Z"
   id="path4" />
  </g>
  <g
   id="bullet-char-template-10146"
   transform="scale(0.00048828125,-0.00048828125)">
   <path
   d="M 174,0 L 602,739 174,1481 1456,739 174,0 Z M 1358,739 L 309,1346 659,739 1358,739 Z"
   id="path5" />
  </g>
  <g
   id="bullet-char-template-10132"
   transform="scale(0.00048828125,-0.00048828125)">
   <path
   d="M 2015,739 L 1276,0 717,0 1260,543 174,543 174,936 1260,936 717,1481 1274,1481 2015,739 Z"
   id="path6" />
  </g>
  <g
   id="bullet-char-template-10007"
   transform="scale(0.00048828125,-0.00048828125)">
   <path
   d="M 0,-2 C -7,14 -16,27 -25,37 L 356,567 C 262,823 215,952 215,954 215,979 228,992 255,992 264,992 276,990 289,987 310,991 331,999 354,1012 L 381,999 492,748 772,1049 836,1024 860,1049 C 881,1039 901,1025 922,1006 886,937 835,863 770,784 769,783 710,716 594,584 L 774,223 C 774,196 753,168 711,139 L 727,119 C 717,90 699,76 672,76 641,76 570,178 457,381 L 164,-76 C 142,-110 111,-127 72,-127 30,-127 9,-110 8,-76 1,-67 -2,-52 -2,-32 -2,-23 -1,-13 0,-2 Z"
   id="path7" />
  </g>
  <g
   id="bullet-char-template-10004"
   transform="scale(0.00048828125,-0.00048828125)">
   <path
   d="M 285,-33 C 182,-33 111,30 74,156 52,228 41,333 41,471 41,549 55,616 82,672 116,743 169,778 240,778 293,778 328,747 346,684 L 369,508 C 377,444 397,411 428,410 L 1163,1116 C 1174,1127 1196,1133 1229,1133 1271,1133 1292,1118 1292,1087 L 1292,965 C 1292,929 1282,901 1262,881 L 442,47 C 390,-6 338,-33 285,-33 Z"
   id="path8" />
  </g>
  <g
   id="bullet-char-template-9679"
   transform="scale(0.00048828125,-0.00048828125)">
   <path
   d="M 813,0 C 632,0 489,54 383,161 276,268 223,411 223,592 223,773 276,916 383,1023 489,1130 632,1184 813,1184 992,1184 1136,1130 1245,1023 1353,916 1407,772 1407,592 1407,412 1353,268 1245,161 1136,54 992,0 813,0 Z"
   id="path9" />
  </g>
  <g
   id="bullet-char-template-8226"
   transform="scale(0.00048828125,-0.00048828125)">
   <path
   d="M 346,457 C 273,457 209,483 155,535 101,586 74,649 74,723 74,796 101,859 155,911 209,963 273,989 346,989 419,989 480,963 531,910 582,859 608,796 608,723 608,648 583,586 532,535 482,483 420,457 346,457 Z"
   id="path10" />
  </g>
  <g
   id="bullet-char-template-8211"
   transform="scale(0.00048828125,-0.00048828125)">
   <path
   d="M -4,459 L 1135,459 1135,606 -4,606 -4,459 Z"
   id="path11" />
  </g>
  <g
   id="bullet-char-template-61548"
   transform="scale(0.00048828125,-0.00048828125)">
   <path
   d="M 173,740 C 173,903 231,1043 346,1159 462,1274 601,1332 765,1332 928,1332 1067,1274 1183,1159 1299,1043 1357,903 1357,740 1357,577 1299,437 1183,322 1067,206 928,148 765,148 601,148 462,206 346,322 231,437 173,577 173,740 Z"
   id="path12" />
  </g>
 </defs>
 
 <path
   id="path13"
   d="M 6328.8126 452.1171 C 6315.7945 451.99625 6302.1757 452.3081 6287.9882 452.9956 C 6074.4456 465.27903 5880.6698 535.64629 5842.2273 669.05476 C 5742.8774 915.46013 5627.9302 1303.5872 5068.011 1370.9757 C 4503.011 1438.9757 4318.0072 1011.9844 4157.0072 763.98437 C 4156.0508 762.5111 4154.8465 761.37805 4153.8549 759.95361 C 4120.9974 696.11266 4042.2888 673.09925 3921.0009 678.97664 C 3695.0009 691.97664 3491.0207 770.01366 3470.0207 919.01366 C 3450.6716 1044.3623 3463.8569 1238.3154 3529.862 1364.6195 C 3529.9205 1364.7402 3529.9584 1364.8606 3530.0171 1364.9813 C 3530.1519 1365.2386 3530.2952 1365.4996 3530.4305 1365.7564 C 3726.8472 1768.4792 4343.4217 2157.9744 5026.9799 2092.017 C 5709.9799 2026.017 6289.0025 1341.0146 6478.0025 862.01456 C 6480.1175 856.65426 6481.4878 851.69244 6483.3768 846.45995 C 6489.7387 830.68179 6495.3558 815.74174 6500.0166 802.01822 C 6587.2041 548.89322 6524.0836 453.92985 6328.8126 452.1171 z M 6984.9999 2001.9966 C 6971.9269 2001.9234 6958.2705 2002.2285 6944.0205 2002.9785 C 6736.4385 2014.9191 6548.3726 2080.9219 6502.8072 2207.8239 C 6255.3229 2597.5507 5278.963 4327.1913 4783.0155 5140.9782 C 4483.9281 5633.6978 3924.128 6585.3265 3479.2191 7352.7811 C 3437.3048 6864.3458 3390.7805 6309.5878 3377.0031 5883 C 3355.0657 5117.93 3411.6607 3200.7999 3473.483 2603.562 C 3533.789 2380.4084 3452.0507 2303.9468 3242.0243 2315.0008 C 3015.0243 2327.0008 2811.9924 2405.0043 2790.9924 2554.0043 C 2790.9729 2554.1371 2790.9601 2554.2848 2790.9407 2554.4177 C 2789.2947 2557.6172 2788.281 2560.8025 2787.9952 2563.9778 C 2787.5089 2570.3374 2787.0785 2585.8832 2786.5999 2593.3301 C 2784.7907 2614.1075 2783.7628 2636.0269 2783.551 2658.8041 C 2760.3985 3148.1219 2747.2366 4867.3727 2750.9949 5541.9873 C 2754.9949 6261.9873 2834.0097 8305.0051 2847.0097 8679.0051 C 2846.8979 8683.7381 2848.0673 8687.6762 2849.8519 8691.2524 C 2861.4003 8804.7981 2894.0114 8919.7997 2955.0134 8987.9784 C 3052.0134 9093.9784 3124.0077 9068.0132 3260.0077 8969.0132 C 3345.289 8906.1743 3411.5331 8810.8756 3457.6701 8722.62 C 3461.6459 8719.2352 3466.3456 8716.414 3468.9872 8711.9746 C 3603.9872 8376.9746 4837.9954 6227.9891 5196.9954 5595.9891 C 5428.3623 5188.8351 6076.9626 4128.2931 6554.4836 3361.9653 C 6594.5888 3996.6301 6634.4406 4807.6222 6622.0247 5438.0143 C 6600.7218 6473.5177 6462.4449 7600.3609 6430.8219 8061.11 C 6426.4778 8092.6575 6424.1662 8127.9546 6424.104 8165.238 C 6424.0864 8165.7008 6424.0177 8166.5348 6424.0006 8166.995 C 6423.9751 8167.3626 6424.1183 8167.6651 6424.104 8168.0285 C 6424.2981 8308.2122 6456.4542 8473.9579 6535.0016 8560.9761 C 6631.0016 8667.9761 6704.014 8641.0108 6839.014 8542.0108 C 6972.014 8445.0108 7059.0009 8267.9824 7096.0009 8161.9824 C 7108.4661 8125.3997 7117.7045 8092.2397 7124.0095 8062.0401 C 7124.6801 8060.35 7125.6897 8058.6519 7126.0249 8056.9758 C 7194.0249 7711.9758 7229.0176 6280.9869 7246.0176 5336.9869 C 7262.0176 4393.9869 7227.9767 2429.0189 7196.9767 2146.0189 C 7195.534 2133.5159 7192.4117 2122.4805 7188.5534 2112.1191 C 7167.7727 2035.3232 7098.8901 2002.6347 6984.9999 2001.9966 z " />
   
  
</svg>
