<?xml version="1.0" encoding="UTF-8" standalone="no"?>
<svg
   version="1.2"
   width="100mm"
   height="100mm"
   viewBox="0 0 10000 10000"
   preserveAspectRatio="xMidYMid"
   fill-rule="evenodd"
   stroke-width="28.222"
   stroke-linejoin="round"
   xml:space="preserve"
   id="svg24"
   sodipodi:docname="gobo-caps-0448.svg"
   inkscape:version="1.4 (86a8ad7, 2024-10-11)"
   xmlns:inkscape="http://www.inkscape.org/namespaces/inkscape"
   xmlns:sodipodi="http://sodipodi.sourceforge.net/DTD/sodipodi-0.dtd"
   xmlns="http://www.w3.org/2000/svg"
   xmlns:svg="http://www.w3.org/2000/svg"
   xmlns:ooo="http://xml.openoffice.org/svg/export"><sodipodi:namedview
   id="namedview24"
   pagecolor="#ffffff"
   bordercolor="#000000"
   borderopacity="0.25"
   inkscape:showpageshadow="2"
   inkscape:pageopacity="0.0"
   inkscape:pagecheckerboard="0"
   inkscape:deskcolor="#d1d1d1"
   inkscape:document-units="mm"
   showgrid="false"
   inkscape:zoom="3.0876875"
   inkscape:cx="188.81444"
   inkscape:cy="188.97638"
   inkscape:window-width="2560"
   inkscape:window-height="1369"
   inkscape:window-x="-8"
   inkscape:window-y="-8"
   inkscape:window-maximized="1"
   inkscape:current-layer="svg24" />
 <defs
   class="ClipPathGroup"
   id="defs2">
  
  <clipPath
   id="presentation_clip_path_shrink"
   clipPathUnits="userSpaceOnUse">
   <rect
   x="10"
   y="10"
   width="9980"
   height="9980"
   id="rect2" />
  </clipPath>
 
  
 
   
  
    
   
     
    
      
      
      
      
      
      
      
      
      
     
       
      
       
      
       
      
       
      
       
      
       
      
       
      
       
      
       
      
        
        
       
        
        
       
        
        
       
        
        
       
        
        
       
        
        
       
        
        
       
        
        
       
        
        
       </defs>
 <defs
   class="TextShapeIndex"
   id="defs3">
  <g
   ooo:slide="id1"
   ooo:id-list="id3 id4 id5 id6 id7 id8 id9 id10 id11"
   id="g2" />
 </defs>
 <defs
   class="EmbeddedBulletChars"
   id="defs12">
  <g
   id="bullet-char-template-57356"
   transform="scale(0.00048828125,-0.00048828125)">
   <path
   d="M 580,1141 L 1163,571 580,0 -4,571 580,1141 Z"
   id="path3" />
  </g>
  <g
   id="bullet-char-template-57354"
   transform="scale(0.00048828125,-0.00048828125)">
   <path
   d="M 8,1128 L 1137,1128 1137,0 8,0 8,1128 Z"
   id="path4" />
  </g>
  <g
   id="bullet-char-template-10146"
   transform="scale(0.00048828125,-0.00048828125)">
   <path
   d="M 174,0 L 602,739 174,1481 1456,739 174,0 Z M 1358,739 L 309,1346 659,739 1358,739 Z"
   id="path5" />
  </g>
  <g
   id="bullet-char-template-10132"
   transform="scale(0.00048828125,-0.00048828125)">
   <path
   d="M 2015,739 L 1276,0 717,0 1260,543 174,543 174,936 1260,936 717,1481 1274,1481 2015,739 Z"
   id="path6" />
  </g>
  <g
   id="bullet-char-template-10007"
   transform="scale(0.00048828125,-0.00048828125)">
   <path
   d="M 0,-2 C -7,14 -16,27 -25,37 L 356,567 C 262,823 215,952 215,954 215,979 228,992 255,992 264,992 276,990 289,987 310,991 331,999 354,1012 L 381,999 492,748 772,1049 836,1024 860,1049 C 881,1039 901,1025 922,1006 886,937 835,863 770,784 769,783 710,716 594,584 L 774,223 C 774,196 753,168 711,139 L 727,119 C 717,90 699,76 672,76 641,76 570,178 457,381 L 164,-76 C 142,-110 111,-127 72,-127 30,-127 9,-110 8,-76 1,-67 -2,-52 -2,-32 -2,-23 -1,-13 0,-2 Z"
   id="path7" />
  </g>
  <g
   id="bullet-char-template-10004"
   transform="scale(0.00048828125,-0.00048828125)">
   <path
   d="M 285,-33 C 182,-33 111,30 74,156 52,228 41,333 41,471 41,549 55,616 82,672 116,743 169,778 240,778 293,778 328,747 346,684 L 369,508 C 377,444 397,411 428,410 L 1163,1116 C 1174,1127 1196,1133 1229,1133 1271,1133 1292,1118 1292,1087 L 1292,965 C 1292,929 1282,901 1262,881 L 442,47 C 390,-6 338,-33 285,-33 Z"
   id="path8" />
  </g>
  <g
   id="bullet-char-template-9679"
   transform="scale(0.00048828125,-0.00048828125)">
   <path
   d="M 813,0 C 632,0 489,54 383,161 276,268 223,411 223,592 223,773 276,916 383,1023 489,1130 632,1184 813,1184 992,1184 1136,1130 1245,1023 1353,916 1407,772 1407,592 1407,412 1353,268 1245,161 1136,54 992,0 813,0 Z"
   id="path9" />
  </g>
  <g
   id="bullet-char-template-8226"
   transform="scale(0.00048828125,-0.00048828125)">
   <path
   d="M 346,457 C 273,457 209,483 155,535 101,586 74,649 74,723 74,796 101,859 155,911 209,963 273,989 346,989 419,989 480,963 531,910 582,859 608,796 608,723 608,648 583,586 532,535 482,483 420,457 346,457 Z"
   id="path10" />
  </g>
  <g
   id="bullet-char-template-8211"
   transform="scale(0.00048828125,-0.00048828125)">
   <path
   d="M -4,459 L 1135,459 1135,606 -4,606 -4,459 Z"
   id="path11" />
  </g>
  <g
   id="bullet-char-template-61548"
   transform="scale(0.00048828125,-0.00048828125)">
   <path
   d="M 173,740 C 173,903 231,1043 346,1159 462,1274 601,1332 765,1332 928,1332 1067,1274 1183,1159 1299,1043 1357,903 1357,740 1357,577 1299,437 1183,322 1067,206 928,148 765,148 601,148 462,206 346,322 231,437 173,577 173,740 Z"
   id="path12" />
  </g>
 </defs>
 
 <path
   id="path13"
   d="M 6994.9735 2999.9719 C 6981.9005 2999.8984 6968.2441 3000.2554 6953.9941 3001.0054 C 6727.9941 3014.0054 6523.9957 3091.9908 6503.9957 3240.9908 C 6502.5054 3250.6455 6501.2151 3260.7629 6500.12 3271.1698 C 6498.3294 3279.5207 6497.1591 3288.1003 6497.0194 3297.008 C 6496.896 3304.2754 6496.7318 3315.9868 6496.606 3323.363 C 6496.0631 3337.731 6495.7133 3352.3101 6495.8825 3367.3397 C 6485.7338 3959.2701 6469.1216 4857.2982 6472.9899 5453.9823 C 6476.3091 5965.9751 6455.9616 6658.9572 6461.3627 7034.816 C 6079.6021 7080.2791 5645.7251 7146.4156 5319.0035 7191.0339 C 5318.9569 7190.3567 5319.0596 7189.6967 5319.0035 7189.0185 C 5318.0359 7177.3638 5316.3604 7159.3336 5315.2828 7146.9022 C 5315.2455 7132.3058 5314.0653 7118.856 5311.7688 7106.3879 C 5287.4129 6831.7171 5243.9785 6384.8121 5233.0139 5546.018 C 5221.1556 4639.8475 5334.8393 3845.1663 5342.3612 3336.2821 C 5353.102 3190.1195 5266.5719 3138.8363 5091.9889 3148.0249 C 4865.9889 3161.0249 4661.9905 3239.0102 4641.9905 3388.0102 C 4640.4954 3397.6958 4639.2121 3407.7985 4638.1148 3418.2409 C 4636.331 3426.5761 4635.1537 3435.0861 4635.0142 3443.9758 C 4634.8908 3451.2428 4634.7266 3462.9549 4634.6008 3470.3308 C 4634.0585 3484.682 4633.7092 3499.3476 4633.8773 3514.3591 C 4623.7285 4106.2905 4607.1165 5004.3316 4610.9847 5601.0017 C 4614.641 6164.994 4589.5619 6948.989 4601.9413 7285.1883 C 4175.848 7346.9061 3698.3838 7426.2176 3545.9851 7458.9762 C 3331.9851 7504.9762 3351.9862 7376 3357.9862 7153 C 3363.9862 6930 3347.9862 6631.011 3357.9862 5703.011 C 3367.8825 4784.6407 3460.7623 3999.464 3467.5403 3490.898 C 3477.163 3346.5673 3390.6408 3295.8796 3217.0129 3305.0179 C 2991.0129 3318.0179 2787.0145 3396.0032 2767.0145 3545.0032 C 2765.5314 3554.6111 2764.2305 3564.6224 2763.1388 3574.9756 C 2761.3201 3583.3911 2760.1274 3592.0389 2759.9866 3601.0205 C 2759.8607 3608.4303 2759.7014 3620.3692 2759.5731 3627.8922 C 2759.1067 3640.438 2758.8786 3653.1767 2758.953 3666.2361 C 2748.8119 4258.054 2732.1308 5159.8328 2736.0087 5757.9947 C 2740.0087 6374.9947 2736.9767 7271.9923 2751.9767 7702.9923 C 2766.9767 8133.9923 2942.0108 8249.9855 3294.0108 8195.9855 C 3646.0108 8141.9855 4661.9855 7987.993 5020.9855 7944.993 C 5376.5012 7904.5037 6658.1238 7805.3156 6779.7928 7802.8312 C 6833.7683 7807.3845 6891.7139 7774.4419 6971.9775 7716.0148 C 7104.9775 7619.0148 7191.9825 7441.0044 7227.9825 7335.0044 C 7293.4867 7145.5355 7274.0613 7044.4239 7177.2363 7005.3605 C 7190.9259 6736.7464 7106.2458 6257.8403 7095.0191 5398.9986 C 7083.1623 4492.944 7196.8182 3698.3619 7204.3664 3189.4694 C 7214.2972 3055.1242 7142.1199 3000.799 6994.9735 2999.9719 z " />
   
  
</svg>
