<?xml version="1.0" encoding="UTF-8" standalone="no"?>
<svg
   version="1.2"
   width="100mm"
   height="100mm"
   viewBox="0 0 10000 10000"
   preserveAspectRatio="xMidYMid"
   fill-rule="evenodd"
   stroke-width="28.222"
   stroke-linejoin="round"
   xml:space="preserve"
   id="svg24"
   sodipodi:docname="gobo-caps-0428.svg"
   inkscape:version="1.4 (86a8ad7, 2024-10-11)"
   xmlns:inkscape="http://www.inkscape.org/namespaces/inkscape"
   xmlns:sodipodi="http://sodipodi.sourceforge.net/DTD/sodipodi-0.dtd"
   xmlns="http://www.w3.org/2000/svg"
   xmlns:svg="http://www.w3.org/2000/svg"
   xmlns:ooo="http://xml.openoffice.org/svg/export"><sodipodi:namedview
   id="namedview24"
   pagecolor="#ffffff"
   bordercolor="#000000"
   borderopacity="0.25"
   inkscape:showpageshadow="2"
   inkscape:pageopacity="0.0"
   inkscape:pagecheckerboard="0"
   inkscape:deskcolor="#d1d1d1"
   inkscape:document-units="mm"
   showgrid="false"
   inkscape:zoom="3.0876875"
   inkscape:cx="188.81444"
   inkscape:cy="188.97638"
   inkscape:window-width="2560"
   inkscape:window-height="1369"
   inkscape:window-x="-8"
   inkscape:window-y="-8"
   inkscape:window-maximized="1"
   inkscape:current-layer="svg24" />
 <defs
   class="ClipPathGroup"
   id="defs2">
  
  <clipPath
   id="presentation_clip_path_shrink"
   clipPathUnits="userSpaceOnUse">
   <rect
   x="10"
   y="10"
   width="9980"
   height="9980"
   id="rect2" />
  </clipPath>
 
  
 
   
  
    
   
     
    
      
      
      
      
      
      
      
      
      
     
       
      
       
      
       
      
       
      
       
      
       
      
       
      
       
      
       
      
        
        
       
        
        
       
        
        
       
        
        
       
        
        
       
        
        
       
        
        
       
        
        
       
        
        
       </defs>
 <defs
   class="TextShapeIndex"
   id="defs3">
  <g
   ooo:slide="id1"
   ooo:id-list="id3 id4 id5 id6 id7 id8 id9 id10 id11"
   id="g2" />
 </defs>
 <defs
   class="EmbeddedBulletChars"
   id="defs12">
  <g
   id="bullet-char-template-57356"
   transform="scale(0.00048828125,-0.00048828125)">
   <path
   d="M 580,1141 L 1163,571 580,0 -4,571 580,1141 Z"
   id="path3" />
  </g>
  <g
   id="bullet-char-template-57354"
   transform="scale(0.00048828125,-0.00048828125)">
   <path
   d="M 8,1128 L 1137,1128 1137,0 8,0 8,1128 Z"
   id="path4" />
  </g>
  <g
   id="bullet-char-template-10146"
   transform="scale(0.00048828125,-0.00048828125)">
   <path
   d="M 174,0 L 602,739 174,1481 1456,739 174,0 Z M 1358,739 L 309,1346 659,739 1358,739 Z"
   id="path5" />
  </g>
  <g
   id="bullet-char-template-10132"
   transform="scale(0.00048828125,-0.00048828125)">
   <path
   d="M 2015,739 L 1276,0 717,0 1260,543 174,543 174,936 1260,936 717,1481 1274,1481 2015,739 Z"
   id="path6" />
  </g>
  <g
   id="bullet-char-template-10007"
   transform="scale(0.00048828125,-0.00048828125)">
   <path
   d="M 0,-2 C -7,14 -16,27 -25,37 L 356,567 C 262,823 215,952 215,954 215,979 228,992 255,992 264,992 276,990 289,987 310,991 331,999 354,1012 L 381,999 492,748 772,1049 836,1024 860,1049 C 881,1039 901,1025 922,1006 886,937 835,863 770,784 769,783 710,716 594,584 L 774,223 C 774,196 753,168 711,139 L 727,119 C 717,90 699,76 672,76 641,76 570,178 457,381 L 164,-76 C 142,-110 111,-127 72,-127 30,-127 9,-110 8,-76 1,-67 -2,-52 -2,-32 -2,-23 -1,-13 0,-2 Z"
   id="path7" />
  </g>
  <g
   id="bullet-char-template-10004"
   transform="scale(0.00048828125,-0.00048828125)">
   <path
   d="M 285,-33 C 182,-33 111,30 74,156 52,228 41,333 41,471 41,549 55,616 82,672 116,743 169,778 240,778 293,778 328,747 346,684 L 369,508 C 377,444 397,411 428,410 L 1163,1116 C 1174,1127 1196,1133 1229,1133 1271,1133 1292,1118 1292,1087 L 1292,965 C 1292,929 1282,901 1262,881 L 442,47 C 390,-6 338,-33 285,-33 Z"
   id="path8" />
  </g>
  <g
   id="bullet-char-template-9679"
   transform="scale(0.00048828125,-0.00048828125)">
   <path
   d="M 813,0 C 632,0 489,54 383,161 276,268 223,411 223,592 223,773 276,916 383,1023 489,1130 632,1184 813,1184 992,1184 1136,1130 1245,1023 1353,916 1407,772 1407,592 1407,412 1353,268 1245,161 1136,54 992,0 813,0 Z"
   id="path9" />
  </g>
  <g
   id="bullet-char-template-8226"
   transform="scale(0.00048828125,-0.00048828125)">
   <path
   d="M 346,457 C 273,457 209,483 155,535 101,586 74,649 74,723 74,796 101,859 155,911 209,963 273,989 346,989 419,989 480,963 531,910 582,859 608,796 608,723 608,648 583,586 532,535 482,483 420,457 346,457 Z"
   id="path10" />
  </g>
  <g
   id="bullet-char-template-8211"
   transform="scale(0.00048828125,-0.00048828125)">
   <path
   d="M -4,459 L 1135,459 1135,606 -4,606 -4,459 Z"
   id="path11" />
  </g>
  <g
   id="bullet-char-template-61548"
   transform="scale(0.00048828125,-0.00048828125)">
   <path
   d="M 173,740 C 173,903 231,1043 346,1159 462,1274 601,1332 765,1332 928,1332 1067,1274 1183,1159 1299,1043 1357,903 1357,740 1357,577 1299,437 1183,322 1067,206 928,148 765,148 601,148 462,206 346,322 231,437 173,577 173,740 Z"
   id="path12" />
  </g>
 </defs>
 
 <path
   id="path13"
   d="M 7429.0038 1974.9699 C 7415.9309 1974.8964 7402.2744 1975.2534 7388.0244 1976.0034 C 7162.0244 1989.0034 6957.9744 2066.9888 6937.9744 2215.9888 C 6931.6712 2256.8227 6929.0406 2305.0309 6930.3263 2355.7218 C 6928.5836 2373.6817 6928.078 2392.2674 6930.0162 2411.9975 C 7017.0162 2861.9975 7060.9951 4728.9786 7064.9951 5345.9786 C 7068.7331 5922.5659 6997.738 7241.4763 6954.0974 7790.9973 C 6457.2373 7839.7928 5874.5383 7914.7582 5560.0223 7950.0056 C 5492.9434 7957.5393 5396.3725 7970.817 5287.3775 7986.5409 C 5287.9164 7981.0294 5288.7454 7975.6831 5288.9795 7970.0044 C 5303.9795 7606.0044 5270.0253 6374.0158 5258.0253 5455.0158 C 5246.2535 4554.4764 5257.6272 2900.5086 5273.1665 2357.8406 C 5274.305 2343.7119 5274.5885 2330.457 5273.9416 2318.0497 C 5273.9696 2317.1537 5273.9653 2314.9076 5273.9933 2314.0189 C 5273.9726 2313.2851 5273.6399 2312.6246 5273.5799 2311.9002 C 5264.8138 2198.8948 5179.0699 2158.7853 5023.0009 2166.9995 C 4797.0009 2179.9995 4593.0025 2257.9848 4573.0025 2406.9848 C 4566.6929 2447.8603 4564.0073 2496.1253 4565.3027 2546.8729 C 4563.5751 2564.7862 4563.06 2583.3202 4564.9926 2602.9936 C 4651.9926 3052.9936 4631.9961 4892.9996 4635.9961 5509.9996 C 4639.9678 6122.645 4622.1729 7609.3857 4580.8056 8083.6409 C 4580.427 8087.8112 4580.0875 8092.0829 4579.7721 8096.3533 C 3982.5956 8192.1232 3340.9909 8299.9804 3180.0126 8325.0215 C 2910.0126 8367.0215 2874.0029 8286.9767 2873.0029 7999.9767 C 2872.0029 7712.9767 2888.982 6593.9843 2876.982 5675.9843 C 2865.2231 4776.4268 2891.8057 3097.3608 2907.9362 2551.6789 C 2909.2623 2536.6826 2909.5707 2522.7006 2908.918 2509.6142 C 2908.9498 2508.5987 2908.9897 2506.0209 2909.0214 2505.015 C 2909.0125 2504.6992 2908.7275 2504.4506 2908.7113 2504.1365 C 2900.4918 2390.1587 2814.631 2349.7507 2657.9773 2357.9956 C 2431.9773 2370.9956 2227.9789 2448.9809 2207.9789 2597.9809 C 2201.6706 2638.8479 2198.9857 2687.1329 2200.2791 2737.869 C 2198.5515 2755.7823 2198.0881 2774.3163 2200.0207 2793.9896 C 2287.0207 3243.9896 2251.0045 5114.0197 2255.0045 5731.0197 C 2259.0045 6348.0197 2260.9875 7814.9864 2235.9875 8306.9864 C 2210.9875 8798.9864 2402.9974 9145.9779 2878.9974 9081.9779 C 3354.9974 9017.9779 5153.0149 8714.9771 5512.0149 8671.9771 C 5872.0149 8630.9771 7228.0001 8565.0069 7321.0001 8565.0069 C 7321.4607 8565.0069 7322.3735 8564.3238 7322.8605 8564.2834 C 7374.5726 8565.0897 7430.7112 8532.5237 7506.9836 8477.0019 C 7639.9836 8380.0019 7726.9886 8201.9916 7762.9886 8095.9916 C 7839.8544 7873.6593 7799.7877 7773.0021 7654.8815 7751.5165 C 7670.1072 7366.3338 7698.8247 6193.7254 7687.0243 5290.9948 C 7675.2638 4392.2988 7625.4895 2707.4126 7638.5518 2162.0386 C 7639.3495 2150.1351 7639.4708 2138.8386 7638.9652 2128.1905 C 7639.0065 2126.8302 7638.9746 2124.3659 7639.0169 2123.0229 C 7638.9926 2122.1622 7638.5784 2121.39 7638.5001 2120.5424 C 7630.4085 2018.0907 7558.9716 1975.7005 7429.0038 1974.9699 z " />
   
  
</svg>
