<?xml version="1.0" encoding="UTF-8" standalone="no"?>
<svg
   version="1.2"
   width="100mm"
   height="100mm"
   viewBox="0 0 10000 10000"
   preserveAspectRatio="xMidYMid"
   fill-rule="evenodd"
   stroke-width="28.222"
   stroke-linejoin="round"
   xml:space="preserve"
   id="svg24"
   sodipodi:docname="gobo-caps-042B.svg"
   inkscape:version="1.4 (86a8ad7, 2024-10-11)"
   xmlns:inkscape="http://www.inkscape.org/namespaces/inkscape"
   xmlns:sodipodi="http://sodipodi.sourceforge.net/DTD/sodipodi-0.dtd"
   xmlns="http://www.w3.org/2000/svg"
   xmlns:svg="http://www.w3.org/2000/svg"
   xmlns:ooo="http://xml.openoffice.org/svg/export"><sodipodi:namedview
   id="namedview24"
   pagecolor="#ffffff"
   bordercolor="#000000"
   borderopacity="0.25"
   inkscape:showpageshadow="2"
   inkscape:pageopacity="0.0"
   inkscape:pagecheckerboard="0"
   inkscape:deskcolor="#d1d1d1"
   inkscape:document-units="mm"
   showgrid="false"
   inkscape:zoom="3.0876875"
   inkscape:cx="188.81444"
   inkscape:cy="188.97638"
   inkscape:window-width="2560"
   inkscape:window-height="1369"
   inkscape:window-x="-8"
   inkscape:window-y="-8"
   inkscape:window-maximized="1"
   inkscape:current-layer="svg24" />
 <defs
   class="ClipPathGroup"
   id="defs2">
  
  <clipPath
   id="presentation_clip_path_shrink"
   clipPathUnits="userSpaceOnUse">
   <rect
   x="10"
   y="10"
   width="9980"
   height="9980"
   id="rect2" />
  </clipPath>
 
  
 
   
  
    
   
     
    
      
      
      
      
      
      
      
      
      
     
       
      
       
      
       
      
       
      
       
      
       
      
       
      
       
      
       
      
        
        
       
        
        
       
        
        
       
        
        
       
        
        
       
        
        
       
        
        
       
        
        
       
        
        
       </defs>
 <defs
   class="TextShapeIndex"
   id="defs3">
  <g
   ooo:slide="id1"
   ooo:id-list="id3 id4 id5 id6 id7 id8 id9 id10 id11"
   id="g2" />
 </defs>
 <defs
   class="EmbeddedBulletChars"
   id="defs12">
  <g
   id="bullet-char-template-57356"
   transform="scale(0.00048828125,-0.00048828125)">
   <path
   d="M 580,1141 L 1163,571 580,0 -4,571 580,1141 Z"
   id="path3" />
  </g>
  <g
   id="bullet-char-template-57354"
   transform="scale(0.00048828125,-0.00048828125)">
   <path
   d="M 8,1128 L 1137,1128 1137,0 8,0 8,1128 Z"
   id="path4" />
  </g>
  <g
   id="bullet-char-template-10146"
   transform="scale(0.00048828125,-0.00048828125)">
   <path
   d="M 174,0 L 602,739 174,1481 1456,739 174,0 Z M 1358,739 L 309,1346 659,739 1358,739 Z"
   id="path5" />
  </g>
  <g
   id="bullet-char-template-10132"
   transform="scale(0.00048828125,-0.00048828125)">
   <path
   d="M 2015,739 L 1276,0 717,0 1260,543 174,543 174,936 1260,936 717,1481 1274,1481 2015,739 Z"
   id="path6" />
  </g>
  <g
   id="bullet-char-template-10007"
   transform="scale(0.00048828125,-0.00048828125)">
   <path
   d="M 0,-2 C -7,14 -16,27 -25,37 L 356,567 C 262,823 215,952 215,954 215,979 228,992 255,992 264,992 276,990 289,987 310,991 331,999 354,1012 L 381,999 492,748 772,1049 836,1024 860,1049 C 881,1039 901,1025 922,1006 886,937 835,863 770,784 769,783 710,716 594,584 L 774,223 C 774,196 753,168 711,139 L 727,119 C 717,90 699,76 672,76 641,76 570,178 457,381 L 164,-76 C 142,-110 111,-127 72,-127 30,-127 9,-110 8,-76 1,-67 -2,-52 -2,-32 -2,-23 -1,-13 0,-2 Z"
   id="path7" />
  </g>
  <g
   id="bullet-char-template-10004"
   transform="scale(0.00048828125,-0.00048828125)">
   <path
   d="M 285,-33 C 182,-33 111,30 74,156 52,228 41,333 41,471 41,549 55,616 82,672 116,743 169,778 240,778 293,778 328,747 346,684 L 369,508 C 377,444 397,411 428,410 L 1163,1116 C 1174,1127 1196,1133 1229,1133 1271,1133 1292,1118 1292,1087 L 1292,965 C 1292,929 1282,901 1262,881 L 442,47 C 390,-6 338,-33 285,-33 Z"
   id="path8" />
  </g>
  <g
   id="bullet-char-template-9679"
   transform="scale(0.00048828125,-0.00048828125)">
   <path
   d="M 813,0 C 632,0 489,54 383,161 276,268 223,411 223,592 223,773 276,916 383,1023 489,1130 632,1184 813,1184 992,1184 1136,1130 1245,1023 1353,916 1407,772 1407,592 1407,412 1353,268 1245,161 1136,54 992,0 813,0 Z"
   id="path9" />
  </g>
  <g
   id="bullet-char-template-8226"
   transform="scale(0.00048828125,-0.00048828125)">
   <path
   d="M 346,457 C 273,457 209,483 155,535 101,586 74,649 74,723 74,796 101,859 155,911 209,963 273,989 346,989 419,989 480,963 531,910 582,859 608,796 608,723 608,648 583,586 532,535 482,483 420,457 346,457 Z"
   id="path10" />
  </g>
  <g
   id="bullet-char-template-8211"
   transform="scale(0.00048828125,-0.00048828125)">
   <path
   d="M -4,459 L 1135,459 1135,606 -4,606 -4,459 Z"
   id="path11" />
  </g>
  <g
   id="bullet-char-template-61548"
   transform="scale(0.00048828125,-0.00048828125)">
   <path
   d="M 173,740 C 173,903 231,1043 346,1159 462,1274 601,1332 765,1332 928,1332 1067,1274 1183,1159 1299,1043 1357,903 1357,740 1357,577 1299,437 1183,322 1067,206 928,148 765,148 601,148 462,206 346,322 231,437 173,577 173,740 Z"
   id="path12" />
  </g>
 </defs>
 
 <path
   id="path13"
   d="M 7543.8289 1978.7939 C 7530.8108 1978.7756 7517.192 1979.17 7503.0045 1979.9825 C 7282.1691 1991.7083 7082.4437 2065.5414 7053.833 2208.8574 C 7052.2336 2211.8791 7051.272 2214.9416 7050.9908 2218.0041 C 7050.7027 2221.7937 7050.6303 2228.2161 7050.3706 2232.3702 C 7044.4246 2279.7416 7042.8024 2335.4092 7046.4949 2393.1872 C 7044.8809 2970.1384 7116.3416 4483.6933 7118.9969 5120.9794 C 7121.7971 5791.1506 7058.4149 7591.5363 7061.2227 8134.0254 C 7051.5126 8282.8636 7079.9428 8486.3671 7170.0016 8587.021 C 7267.0016 8693.021 7339.014 8667.0041 7474.014 8568.0041 C 7608.014 8470.0041 7695.0009 8292.9756 7731.0009 8187.9756 C 7755.5752 8116.3666 7768.1074 8057.5343 7769.1898 8009.7436 C 7769.4281 8008.1701 7770.03 8006.513 7770.0166 8004.9894 C 7763.0166 7637.9894 7775.9815 6338.9869 7751.9815 5504.9869 C 7727.9815 4668.9869 7707.9969 2518.9869 7753.9969 2161.9869 C 7754.3416 2158.4823 7753.9251 2155.1889 7753.1184 2152.0133 C 7756.6854 2029.0706 7684.7586 1978.9922 7543.8289 1978.7939 z M 3189.0043 2332.9842 C 3175.9313 2332.918 3162.2749 2333.2677 3148.0249 2334.0177 C 2922.0249 2346.0177 2717.993 2424.0212 2696.993 2573.0212 C 2695.4595 2583.407 2694.2019 2594.3266 2693.1172 2605.5774 C 2693.1007 2605.7131 2693.0278 2605.855 2693.0139 2605.9908 C 2692.9719 2606.6118 2692.9009 2608.1505 2692.8589 2608.7813 C 2690.7727 2631.4545 2689.6912 2655.6681 2689.5516 2680.8183 C 2667.1055 3134.5182 2639.8806 4783.2364 2637.9785 5467.9866 C 2643.571 6137.2248 2686.8502 7750.5331 2700.3003 8280.0113 C 2695.9042 8279.9611 2691.412 8280.0653 2687.0194 8280.0113 C 2676.1466 8281.1991 2665.5383 8283.1087 2655.2384 8285.6441 C 2443.4624 8304.2584 2258.901 8380.7018 2238.9848 8522.0121 C 2216.9848 8672.0121 2239.9759 8918.0249 2341.9759 9031.0249 C 2392.9971 9086.78 2437.141 9105.9215 2487.135 9097.2224 C 5259.0941 8987.6952 6859.9474 8180.577 6831.0042 6429.0132 C 6804.3973 4700.5501 5869.5522 4309.8498 3277.7327 4676.8204 C 3297.5949 3815.993 3346.2703 2853.275 3391.3692 2572.7628 C 3424.4272 2400.9536 3353.6197 2333.8173 3189.0043 2332.9842 z M 4610.778 5272.8564 C 5428.6491 5269.6533 6074.3847 5548.868 6190.0097 6506.993 C 6348.3985 7828.3342 4905.2898 8203.3212 3409.8177 8268.9526 C 3409.8316 8266.499 3409.8666 8264.0597 3409.8177 8261.6662 C 3410.328 8259.4265 3411.0258 8257.1521 3411.0062 8254.9999 C 3407.0062 7838.9999 3295.012 6638.9895 3274.012 5800.9895 C 3270.5052 5699.533 3268.7557 5578.7445 3268.2759 5446.6959 C 3728.9137 5350.3039 4192.3407 5274.4952 4610.778 5272.8564 z " />
   
  
</svg>
