<?xml version="1.0" encoding="UTF-8" standalone="no"?>
<svg
   version="1.2"
   width="100mm"
   height="100mm"
   viewBox="0 0 10000 10000"
   preserveAspectRatio="xMidYMid"
   fill-rule="evenodd"
   stroke-width="28.222"
   stroke-linejoin="round"
   xml:space="preserve"
   id="svg24"
   sodipodi:docname="gobo-caps-041B.svg"
   inkscape:version="1.4 (86a8ad7, 2024-10-11)"
   xmlns:inkscape="http://www.inkscape.org/namespaces/inkscape"
   xmlns:sodipodi="http://sodipodi.sourceforge.net/DTD/sodipodi-0.dtd"
   xmlns="http://www.w3.org/2000/svg"
   xmlns:svg="http://www.w3.org/2000/svg"
   xmlns:ooo="http://xml.openoffice.org/svg/export"><sodipodi:namedview
   id="namedview24"
   pagecolor="#ffffff"
   bordercolor="#000000"
   borderopacity="0.25"
   inkscape:showpageshadow="2"
   inkscape:pageopacity="0.0"
   inkscape:pagecheckerboard="0"
   inkscape:deskcolor="#d1d1d1"
   inkscape:document-units="mm"
   showgrid="false"
   inkscape:zoom="3.0876875"
   inkscape:cx="188.81444"
   inkscape:cy="188.97638"
   inkscape:window-width="2560"
   inkscape:window-height="1369"
   inkscape:window-x="-8"
   inkscape:window-y="-8"
   inkscape:window-maximized="1"
   inkscape:current-layer="svg24" />
 <defs
   class="ClipPathGroup"
   id="defs2">
  
  <clipPath
   id="presentation_clip_path_shrink"
   clipPathUnits="userSpaceOnUse">
   <rect
   x="10"
   y="10"
   width="9980"
   height="9980"
   id="rect2" />
  </clipPath>
 
  
 
   
  
    
   
     
    
      
      
      
      
      
      
      
      
      
     
       
      
       
      
       
      
       
      
       
      
       
      
       
      
       
      
       
      
        
        
       
        
        
       
        
        
       
        
        
       
        
        
       
        
        
       
        
        
       
        
        
       
        
        
       </defs>
 <defs
   class="TextShapeIndex"
   id="defs3">
  <g
   ooo:slide="id1"
   ooo:id-list="id3 id4 id5 id6 id7 id8 id9 id10 id11"
   id="g2" />
 </defs>
 <defs
   class="EmbeddedBulletChars"
   id="defs12">
  <g
   id="bullet-char-template-57356"
   transform="scale(0.00048828125,-0.00048828125)">
   <path
   d="M 580,1141 L 1163,571 580,0 -4,571 580,1141 Z"
   id="path3" />
  </g>
  <g
   id="bullet-char-template-57354"
   transform="scale(0.00048828125,-0.00048828125)">
   <path
   d="M 8,1128 L 1137,1128 1137,0 8,0 8,1128 Z"
   id="path4" />
  </g>
  <g
   id="bullet-char-template-10146"
   transform="scale(0.00048828125,-0.00048828125)">
   <path
   d="M 174,0 L 602,739 174,1481 1456,739 174,0 Z M 1358,739 L 309,1346 659,739 1358,739 Z"
   id="path5" />
  </g>
  <g
   id="bullet-char-template-10132"
   transform="scale(0.00048828125,-0.00048828125)">
   <path
   d="M 2015,739 L 1276,0 717,0 1260,543 174,543 174,936 1260,936 717,1481 1274,1481 2015,739 Z"
   id="path6" />
  </g>
  <g
   id="bullet-char-template-10007"
   transform="scale(0.00048828125,-0.00048828125)">
   <path
   d="M 0,-2 C -7,14 -16,27 -25,37 L 356,567 C 262,823 215,952 215,954 215,979 228,992 255,992 264,992 276,990 289,987 310,991 331,999 354,1012 L 381,999 492,748 772,1049 836,1024 860,1049 C 881,1039 901,1025 922,1006 886,937 835,863 770,784 769,783 710,716 594,584 L 774,223 C 774,196 753,168 711,139 L 727,119 C 717,90 699,76 672,76 641,76 570,178 457,381 L 164,-76 C 142,-110 111,-127 72,-127 30,-127 9,-110 8,-76 1,-67 -2,-52 -2,-32 -2,-23 -1,-13 0,-2 Z"
   id="path7" />
  </g>
  <g
   id="bullet-char-template-10004"
   transform="scale(0.00048828125,-0.00048828125)">
   <path
   d="M 285,-33 C 182,-33 111,30 74,156 52,228 41,333 41,471 41,549 55,616 82,672 116,743 169,778 240,778 293,778 328,747 346,684 L 369,508 C 377,444 397,411 428,410 L 1163,1116 C 1174,1127 1196,1133 1229,1133 1271,1133 1292,1118 1292,1087 L 1292,965 C 1292,929 1282,901 1262,881 L 442,47 C 390,-6 338,-33 285,-33 Z"
   id="path8" />
  </g>
  <g
   id="bullet-char-template-9679"
   transform="scale(0.00048828125,-0.00048828125)">
   <path
   d="M 813,0 C 632,0 489,54 383,161 276,268 223,411 223,592 223,773 276,916 383,1023 489,1130 632,1184 813,1184 992,1184 1136,1130 1245,1023 1353,916 1407,772 1407,592 1407,412 1353,268 1245,161 1136,54 992,0 813,0 Z"
   id="path9" />
  </g>
  <g
   id="bullet-char-template-8226"
   transform="scale(0.00048828125,-0.00048828125)">
   <path
   d="M 346,457 C 273,457 209,483 155,535 101,586 74,649 74,723 74,796 101,859 155,911 209,963 273,989 346,989 419,989 480,963 531,910 582,859 608,796 608,723 608,648 583,586 532,535 482,483 420,457 346,457 Z"
   id="path10" />
  </g>
  <g
   id="bullet-char-template-8211"
   transform="scale(0.00048828125,-0.00048828125)">
   <path
   d="M -4,459 L 1135,459 1135,606 -4,606 -4,459 Z"
   id="path11" />
  </g>
  <g
   id="bullet-char-template-61548"
   transform="scale(0.00048828125,-0.00048828125)">
   <path
   d="M 173,740 C 173,903 231,1043 346,1159 462,1274 601,1332 765,1332 928,1332 1067,1274 1183,1159 1299,1043 1357,903 1357,740 1357,577 1299,437 1183,322 1067,206 928,148 765,148 601,148 462,206 346,322 231,437 173,577 173,740 Z"
   id="path12" />
  </g>
 </defs>
 
 <path
   id="path13"
   d="M 7235.9924 2008.973 C 7222.9194 2008.8997 7209.263 2009.2565 7195.013 2010.0065 C 7175.513 2011.1282 7156.2941 2012.9387 7137.2387 2015.0191 C 6763.7063 2033.8618 5497.284 2126.1905 4852.9854 2192.0109 C 4235.7783 2257.0269 3825.2028 2313.801 3457.4634 2379.0279 C 3413.7283 2383.7555 3371.5777 2391.0896 3332.0447 2401.0421 C 3328.4667 2401.7136 3324.5585 2402.332 3320.9859 2403.0058 C 3316.1486 2403.9448 3311.4461 2405.7118 3306.8266 2407.8633 C 3176.9623 2445.4632 3081.0602 2513.2315 3066.9962 2613.0188 C 3043.9962 2763.0188 3067.9874 3008.98 3169.9874 3121.98 C 3207.1149 3162.9749 3240.8116 3184.1867 3275.9757 3189.1076 C 3285.6654 3191.9324 3296.164 3191.9265 3307.395 3189.366 C 3308.2498 3189.264 3309.1208 3189.1231 3309.9788 3189.0043 C 3310.0652 3188.9818 3310.2539 3188.9235 3310.3406 3188.9009 C 3317.9338 3187.8286 3325.6955 3185.9313 3333.5949 3183.5783 C 3381.2091 3171.9556 3453.6939 3156.3676 3547.3803 3137.7929 C 3547.6219 3143.2183 3547.453 3148.4464 3548.0005 3154.0193 C 3635.0005 3605.0193 3641.0196 4847.9838 3658.0196 5937.9838 C 3675.0196 7025.9838 3246.0077 7935.0225 2625.0077 8436.0225 C 2620.9413 8439.7931 2617.5403 8443.9539 2614.2073 8448.1664 C 2613.223 8449.2421 2612.2723 8450.3339 2611.3135 8451.4221 C 2586.6245 8479.4415 2570.3876 8511.5933 2565.0114 8548.0053 C 2543.0114 8697.0053 2565.9844 8943.0182 2668.9844 9057.0182 C 2764.9844 9163.0182 2838.015 9137.0012 2972.015 9038.0012 C 3002.9717 9015.3612 3031.2871 8988.3661 3057.1777 8959.143 C 3059.0967 8957.3621 3061.182 8955.9544 3063.0171 8953.9754 C 3643.0171 8326.9754 4289.9971 7145.0182 4279.9971 5882.0182 C 4270.7445 4713.4064 4249.0762 3578.1013 4258.4997 3011.3924 C 4501.9202 2972.2997 4752.3172 2936.2748 4960.9891 2913.9823 C 5332.842 2874.3267 6018.1625 2845.5373 6484.6687 2833.057 C 6571.2474 3287.3846 6621.9989 4776.659 6626.9856 5392.0223 C 6629.9856 6009.0223 6540.0013 7680.999 6498.0013 8143.999 C 6498.3181 8145.9452 6499.0108 8147.7171 6499.3965 8149.6317 C 6492.9515 8296.5576 6522.5565 8488.2411 6609.9841 8585.0056 C 6705.9841 8691.0056 6779.0147 8664.9887 6913.0147 8565.9887 C 7047.0147 8467.9887 7134.0016 8290.9784 7170.0016 8184.9784 C 7197.9165 8103.935 7210.3139 8039.2497 7207.9838 7988.5046 C 7223.4991 7597.1062 7260.8152 6239.7134 7249.0148 5336.9869 C 7237.2015 4502.7838 7187.969 3301.5951 7190.9822 2706.7598 C 7302.3404 2605.1289 7375.7513 2454.0002 7408.0232 2358.9774 C 7495.2107 2105.8524 7432.0873 2010.0716 7235.9924 2008.973 z " />
   
  
</svg>
