<?xml version="1.0" encoding="UTF-8" standalone="no"?>
<svg
   version="1.2"
   width="100mm"
   height="100mm"
   viewBox="0 0 10000 10000"
   preserveAspectRatio="xMidYMid"
   fill-rule="evenodd"
   stroke-width="28.222"
   stroke-linejoin="round"
   xml:space="preserve"
   id="svg21"
   sodipodi:docname="gobo-caps-0426.svg"
   inkscape:version="1.4 (86a8ad7, 2024-10-11)"
   xmlns:inkscape="http://www.inkscape.org/namespaces/inkscape"
   xmlns:sodipodi="http://sodipodi.sourceforge.net/DTD/sodipodi-0.dtd"
   xmlns="http://www.w3.org/2000/svg"
   xmlns:svg="http://www.w3.org/2000/svg"
   xmlns:ooo="http://xml.openoffice.org/svg/export"><sodipodi:namedview
   id="namedview21"
   pagecolor="#ffffff"
   bordercolor="#000000"
   borderopacity="0.25"
   inkscape:showpageshadow="2"
   inkscape:pageopacity="0.0"
   inkscape:pagecheckerboard="0"
   inkscape:deskcolor="#d1d1d1"
   inkscape:document-units="mm"
   showgrid="false"
   inkscape:zoom="3.0876875"
   inkscape:cx="188.81444"
   inkscape:cy="188.97638"
   inkscape:window-width="2560"
   inkscape:window-height="1369"
   inkscape:window-x="-8"
   inkscape:window-y="-8"
   inkscape:window-maximized="1"
   inkscape:current-layer="svg21" />
 <defs
   class="ClipPathGroup"
   id="defs2">
  
  <clipPath
   id="presentation_clip_path_shrink"
   clipPathUnits="userSpaceOnUse">
   <rect
   x="10"
   y="10"
   width="9980"
   height="9980"
   id="rect2" />
  </clipPath>
 
  
 
   
  
    
   
     
    
      
      
      
      
      
      
     
       
      
       
      
       
      
       
      
       
      
       
      
        
        
       
        
        
       
        
        
       
        
        
       
        
        
       
        
        
       </defs>
 <defs
   class="TextShapeIndex"
   id="defs3">
  <g
   ooo:slide="id1"
   ooo:id-list="id3 id4 id5 id6 id7 id8"
   id="g2" />
 </defs>
 <defs
   class="EmbeddedBulletChars"
   id="defs12">
  <g
   id="bullet-char-template-57356"
   transform="scale(0.00048828125,-0.00048828125)">
   <path
   d="M 580,1141 L 1163,571 580,0 -4,571 580,1141 Z"
   id="path3" />
  </g>
  <g
   id="bullet-char-template-57354"
   transform="scale(0.00048828125,-0.00048828125)">
   <path
   d="M 8,1128 L 1137,1128 1137,0 8,0 8,1128 Z"
   id="path4" />
  </g>
  <g
   id="bullet-char-template-10146"
   transform="scale(0.00048828125,-0.00048828125)">
   <path
   d="M 174,0 L 602,739 174,1481 1456,739 174,0 Z M 1358,739 L 309,1346 659,739 1358,739 Z"
   id="path5" />
  </g>
  <g
   id="bullet-char-template-10132"
   transform="scale(0.00048828125,-0.00048828125)">
   <path
   d="M 2015,739 L 1276,0 717,0 1260,543 174,543 174,936 1260,936 717,1481 1274,1481 2015,739 Z"
   id="path6" />
  </g>
  <g
   id="bullet-char-template-10007"
   transform="scale(0.00048828125,-0.00048828125)">
   <path
   d="M 0,-2 C -7,14 -16,27 -25,37 L 356,567 C 262,823 215,952 215,954 215,979 228,992 255,992 264,992 276,990 289,987 310,991 331,999 354,1012 L 381,999 492,748 772,1049 836,1024 860,1049 C 881,1039 901,1025 922,1006 886,937 835,863 770,784 769,783 710,716 594,584 L 774,223 C 774,196 753,168 711,139 L 727,119 C 717,90 699,76 672,76 641,76 570,178 457,381 L 164,-76 C 142,-110 111,-127 72,-127 30,-127 9,-110 8,-76 1,-67 -2,-52 -2,-32 -2,-23 -1,-13 0,-2 Z"
   id="path7" />
  </g>
  <g
   id="bullet-char-template-10004"
   transform="scale(0.00048828125,-0.00048828125)">
   <path
   d="M 285,-33 C 182,-33 111,30 74,156 52,228 41,333 41,471 41,549 55,616 82,672 116,743 169,778 240,778 293,778 328,747 346,684 L 369,508 C 377,444 397,411 428,410 L 1163,1116 C 1174,1127 1196,1133 1229,1133 1271,1133 1292,1118 1292,1087 L 1292,965 C 1292,929 1282,901 1262,881 L 442,47 C 390,-6 338,-33 285,-33 Z"
   id="path8" />
  </g>
  <g
   id="bullet-char-template-9679"
   transform="scale(0.00048828125,-0.00048828125)">
   <path
   d="M 813,0 C 632,0 489,54 383,161 276,268 223,411 223,592 223,773 276,916 383,1023 489,1130 632,1184 813,1184 992,1184 1136,1130 1245,1023 1353,916 1407,772 1407,592 1407,412 1353,268 1245,161 1136,54 992,0 813,0 Z"
   id="path9" />
  </g>
  <g
   id="bullet-char-template-8226"
   transform="scale(0.00048828125,-0.00048828125)">
   <path
   d="M 346,457 C 273,457 209,483 155,535 101,586 74,649 74,723 74,796 101,859 155,911 209,963 273,989 346,989 419,989 480,963 531,910 582,859 608,796 608,723 608,648 583,586 532,535 482,483 420,457 346,457 Z"
   id="path10" />
  </g>
  <g
   id="bullet-char-template-8211"
   transform="scale(0.00048828125,-0.00048828125)">
   <path
   d="M -4,459 L 1135,459 1135,606 -4,606 -4,459 Z"
   id="path11" />
  </g>
  <g
   id="bullet-char-template-61548"
   transform="scale(0.00048828125,-0.00048828125)">
   <path
   d="M 173,740 C 173,903 231,1043 346,1159 462,1274 601,1332 765,1332 928,1332 1067,1274 1183,1159 1299,1043 1357,903 1357,740 1357,577 1299,437 1183,322 1067,206 928,148 765,148 601,148 462,206 346,322 231,437 173,577 173,740 Z"
   id="path12" />
  </g>
 </defs>
 
 <path
   id="path13"
   d="M 6626.0038 2016.9828 C 6612.9308 2016.9093 6599.2744 2017.2663 6585.0244 2018.0163 C 6359.0244 2031.0163 6154.9743 2109.0017 6134.9743 2258.0017 C 6128.6711 2298.8357 6126.0405 2347.0438 6127.3262 2397.7348 C 6125.5835 2415.6947 6125.0779 2434.2803 6127.0161 2454.0104 C 6214.0161 2904.0104 6194.0196 4744.0164 6198.0196 5361.0164 C 6201.9157 5962.0008 6184.7487 7399.1297 6145.0512 7901.5848 C 5752.5947 7945.0353 5340.5959 8000.9492 5063.9803 8032.0161 C 4600.9803 8084.0161 3974.9935 8232.0169 3704.9935 8274.0169 C 3434.9935 8316.0169 3398.9838 8236.0238 3397.9838 7949.0238 C 3396.9838 7662.0238 3414.0145 6542.9796 3402.0145 5624.9796 C 3390.2599 4725.7488 3416.7848 3047.8179 3432.917 2501.501 C 3434.3342 2485.8742 3434.6201 2471.3458 3433.8989 2457.7828 C 3433.925 2456.9511 3433.9763 2454.8355 3434.0023 2454.0104 C 3433.9816 2453.2766 3433.6488 2452.6161 3433.5888 2451.8917 C 3424.8228 2338.8863 3339.0788 2298.7768 3183.0098 2306.9909 C 2957.0098 2319.9909 2753.0115 2397.9763 2733.0115 2546.9763 C 2726.701 2587.8571 2724.015 2636.1611 2725.3117 2686.9161 C 2723.5869 2704.8204 2723.07 2723.3226 2725.0016 2742.985 C 2812.0016 3192.985 2775.9853 5063.015 2779.9853 5680.015 C 2783.9853 6297.015 2786.0201 7763.9818 2761.0201 8255.9818 C 2736.0201 8747.9818 2927.9782 9095.0249 3403.9782 9031.0249 C 3879.9782 8967.0249 4657.0245 8796.9876 5016.0245 8753.9876 C 5376.0245 8712.9876 6257 8617.9752 6350 8617.9752 C 6434.898 8617.9752 6519.6369 8624.4627 6520.9973 8749.3367 C 6505.6226 8900.3077 6532.0064 9120.7781 6626.9856 9226.0001 C 6723.9856 9332.0001 6795.9799 9305.9832 6931.9799 9206.9832 C 7064.9799 9109.9832 7151.985 8932.0245 7187.985 8826.0245 C 7211.5649 8757.8203 7224.1342 8701.1029 7226.0705 8654.5621 C 7226.4517 8652.3022 7227.7236 8650.2916 7227.9825 8647.9992 C 7311.9825 7917.9992 7342.9765 7835.0173 6860.9765 7844.0173 C 6857.2072 7844.0877 6852.4918 7844.4493 6848.6775 7844.534 C 6849.625 7836.7857 6850.6697 7829.1085 6851.003 7821.0213 C 6866.003 7457.0213 6831.9971 6224.981 6819.9971 5305.981 C 6808.2256 4405.4606 6819.6512 2751.5615 6835.19 2208.8574 C 6836.3126 2194.9345 6836.5245 2181.8343 6835.9134 2169.5833 C 6835.9453 2168.5597 6835.9849 2165.9982 6836.0168 2164.9841 C 6835.992 2164.1028 6835.5815 2163.3196 6835.5 2162.452 C 6827.368 2060.0762 6755.9272 2017.7131 6626.0038 2016.9828 z " />
   
  
</svg>
