<?xml version="1.0" encoding="UTF-8" standalone="no"?>
<svg
   version="1.2"
   width="100mm"
   height="100mm"
   viewBox="0 0 10000 10000"
   preserveAspectRatio="xMidYMid"
   fill-rule="evenodd"
   stroke-width="28.222"
   stroke-linejoin="round"
   xml:space="preserve"
   id="svg22"
   sodipodi:docname="gobo-caps-042F.svg"
   inkscape:version="1.4 (86a8ad7, 2024-10-11)"
   xmlns:inkscape="http://www.inkscape.org/namespaces/inkscape"
   xmlns:sodipodi="http://sodipodi.sourceforge.net/DTD/sodipodi-0.dtd"
   xmlns="http://www.w3.org/2000/svg"
   xmlns:svg="http://www.w3.org/2000/svg"
   xmlns:ooo="http://xml.openoffice.org/svg/export"><sodipodi:namedview
   id="namedview22"
   pagecolor="#ffffff"
   bordercolor="#000000"
   borderopacity="0.25"
   inkscape:showpageshadow="2"
   inkscape:pageopacity="0.0"
   inkscape:pagecheckerboard="0"
   inkscape:deskcolor="#d1d1d1"
   inkscape:document-units="mm"
   showgrid="false"
   inkscape:zoom="3.0876875"
   inkscape:cx="188.81444"
   inkscape:cy="188.97638"
   inkscape:window-width="2560"
   inkscape:window-height="1369"
   inkscape:window-x="-8"
   inkscape:window-y="-8"
   inkscape:window-maximized="1"
   inkscape:current-layer="svg22" />
 <defs
   class="ClipPathGroup"
   id="defs2">
  
  <clipPath
   id="presentation_clip_path_shrink"
   clipPathUnits="userSpaceOnUse">
   <rect
   x="10"
   y="10"
   width="9980"
   height="9980"
   id="rect2" />
  </clipPath>
 
  
 
   
  
    
   
     
    
      
      
      
      
      
      
      
     
       
      
       
      
       
      
       
      
       
      
       
      
       
      
        
        
       
        
        
       
        
        
       
        
        
       
        
        
       
        
        
       
        
        
       </defs>
 <defs
   class="TextShapeIndex"
   id="defs3">
  <g
   ooo:slide="id1"
   ooo:id-list="id3 id4 id5 id6 id7 id8 id9"
   id="g2" />
 </defs>
 <defs
   class="EmbeddedBulletChars"
   id="defs12">
  <g
   id="bullet-char-template-57356"
   transform="scale(0.00048828125,-0.00048828125)">
   <path
   d="M 580,1141 L 1163,571 580,0 -4,571 580,1141 Z"
   id="path3" />
  </g>
  <g
   id="bullet-char-template-57354"
   transform="scale(0.00048828125,-0.00048828125)">
   <path
   d="M 8,1128 L 1137,1128 1137,0 8,0 8,1128 Z"
   id="path4" />
  </g>
  <g
   id="bullet-char-template-10146"
   transform="scale(0.00048828125,-0.00048828125)">
   <path
   d="M 174,0 L 602,739 174,1481 1456,739 174,0 Z M 1358,739 L 309,1346 659,739 1358,739 Z"
   id="path5" />
  </g>
  <g
   id="bullet-char-template-10132"
   transform="scale(0.00048828125,-0.00048828125)">
   <path
   d="M 2015,739 L 1276,0 717,0 1260,543 174,543 174,936 1260,936 717,1481 1274,1481 2015,739 Z"
   id="path6" />
  </g>
  <g
   id="bullet-char-template-10007"
   transform="scale(0.00048828125,-0.00048828125)">
   <path
   d="M 0,-2 C -7,14 -16,27 -25,37 L 356,567 C 262,823 215,952 215,954 215,979 228,992 255,992 264,992 276,990 289,987 310,991 331,999 354,1012 L 381,999 492,748 772,1049 836,1024 860,1049 C 881,1039 901,1025 922,1006 886,937 835,863 770,784 769,783 710,716 594,584 L 774,223 C 774,196 753,168 711,139 L 727,119 C 717,90 699,76 672,76 641,76 570,178 457,381 L 164,-76 C 142,-110 111,-127 72,-127 30,-127 9,-110 8,-76 1,-67 -2,-52 -2,-32 -2,-23 -1,-13 0,-2 Z"
   id="path7" />
  </g>
  <g
   id="bullet-char-template-10004"
   transform="scale(0.00048828125,-0.00048828125)">
   <path
   d="M 285,-33 C 182,-33 111,30 74,156 52,228 41,333 41,471 41,549 55,616 82,672 116,743 169,778 240,778 293,778 328,747 346,684 L 369,508 C 377,444 397,411 428,410 L 1163,1116 C 1174,1127 1196,1133 1229,1133 1271,1133 1292,1118 1292,1087 L 1292,965 C 1292,929 1282,901 1262,881 L 442,47 C 390,-6 338,-33 285,-33 Z"
   id="path8" />
  </g>
  <g
   id="bullet-char-template-9679"
   transform="scale(0.00048828125,-0.00048828125)">
   <path
   d="M 813,0 C 632,0 489,54 383,161 276,268 223,411 223,592 223,773 276,916 383,1023 489,1130 632,1184 813,1184 992,1184 1136,1130 1245,1023 1353,916 1407,772 1407,592 1407,412 1353,268 1245,161 1136,54 992,0 813,0 Z"
   id="path9" />
  </g>
  <g
   id="bullet-char-template-8226"
   transform="scale(0.00048828125,-0.00048828125)">
   <path
   d="M 346,457 C 273,457 209,483 155,535 101,586 74,649 74,723 74,796 101,859 155,911 209,963 273,989 346,989 419,989 480,963 531,910 582,859 608,796 608,723 608,648 583,586 532,535 482,483 420,457 346,457 Z"
   id="path10" />
  </g>
  <g
   id="bullet-char-template-8211"
   transform="scale(0.00048828125,-0.00048828125)">
   <path
   d="M -4,459 L 1135,459 1135,606 -4,606 -4,459 Z"
   id="path11" />
  </g>
  <g
   id="bullet-char-template-61548"
   transform="scale(0.00048828125,-0.00048828125)">
   <path
   d="M 173,740 C 173,903 231,1043 346,1159 462,1274 601,1332 765,1332 928,1332 1067,1274 1183,1159 1299,1043 1357,903 1357,740 1357,577 1299,437 1183,322 1067,206 928,148 765,148 601,148 462,206 346,322 231,437 173,577 173,740 Z"
   id="path12" />
  </g>
 </defs>
 
 <path
   id="path13"
   d="M 6800.8251 2000.1363 C 6787.8071 2000.0154 6774.1883 2000.3273 6760.0008 2001.0148 C 6723.9567 2003.0881 6688.5942 2006.9792 6654.3225 2012.3836 C 4434.4592 2211.3271 3011.7476 2768.0475 2989.9983 4592.0194 C 2975.7999 5771.9862 3878.6622 6282.7585 5055.712 6377.1818 C 4998.4514 6437.4317 4943.5406 6494.4386 4892.983 6541.9779 C 4559.983 6857.9779 3662.9935 7985.0089 3237.9935 8320.0089 C 3234.7256 8322.6142 3232.0785 8325.5636 3229.1052 8328.3288 C 3187.9876 8362.2822 3160.9609 8403.7717 3154.0193 8453.024 C 3131.0193 8602.024 3154.0105 8847.9852 3257.0105 8961.9852 C 3353.0105 9067.9852 3425.9894 9042.02 3559.9894 8943.02 C 3581.3393 8927.4058 3601.3483 8909.5867 3620.2958 8890.5684 C 4012.395 8541.1694 4853.782 7361.7167 5561.986 6702.0198 C 5771.8275 6505.0785 5923.6872 6379.3894 6223.3927 6358.1648 C 6227.0187 6358.0986 6230.6704 6357.9313 6234.3481 6357.5447 C 6237.9349 7188.9812 6252.5722 8085.5744 6265.9741 8266.1104 C 6266.3238 8270.821 6266.6604 8283.2776 6267.0076 8286.9876 C 6267.0904 8287.788 6267.3691 8288.4253 6267.4727 8289.2097 C 6276.3658 8411.4007 6309.3874 8540.2771 6375.9932 8613.9961 C 6471.9932 8719.9961 6545.0238 8693.9792 6679.0238 8594.9792 C 6813.0238 8496.9792 6900.0107 8320.0205 6936.0107 8214.0205 C 6965.7027 8127.818 6977.8774 8060.0127 6973.4244 8007.9349 C 6973.5605 8005.632 6974.0823 8003.2705 6973.9929 8001.0103 C 6962.9929 7737.0103 6813.9805 6572.0076 6837.9805 5632.0076 C 6861.6433 4705.2161 6963.7833 2698.569 7006.9108 2212.7848 C 7027.3777 2061.6974 6955.715 2001.5742 6800.8251 2000.1363 z M 6299.6671 2837.7079 C 6287.174 3571.4204 6243.6977 4735.7133 6236.0017 5442.9752 C 6235.561 5479.7943 6235.9223 5532.5052 6235.5883 5571.7529 C 6215.7896 5575.4965 6196.144 5579.5568 6176.7806 5584.1552 C 5103.3217 5731.4759 3684.5533 5503.4812 3610.994 4401.0233 C 3516.6263 3003.0856 5146.0503 2934.391 6299.6671 2837.7079 z " />
   
  
</svg>
