<?xml version="1.0" encoding="UTF-8" standalone="no"?>
<svg
   version="1.2"
   width="100mm"
   height="100mm"
   viewBox="0 0 10000 10000"
   preserveAspectRatio="xMidYMid"
   fill-rule="evenodd"
   stroke-width="28.222"
   stroke-linejoin="round"
   xml:space="preserve"
   id="svg24"
   sodipodi:docname="gobo-caps-0429.svg"
   inkscape:version="1.4 (86a8ad7, 2024-10-11)"
   xmlns:inkscape="http://www.inkscape.org/namespaces/inkscape"
   xmlns:sodipodi="http://sodipodi.sourceforge.net/DTD/sodipodi-0.dtd"
   xmlns="http://www.w3.org/2000/svg"
   xmlns:svg="http://www.w3.org/2000/svg"
   xmlns:ooo="http://xml.openoffice.org/svg/export"><sodipodi:namedview
   id="namedview24"
   pagecolor="#ffffff"
   bordercolor="#000000"
   borderopacity="0.25"
   inkscape:showpageshadow="2"
   inkscape:pageopacity="0.0"
   inkscape:pagecheckerboard="0"
   inkscape:deskcolor="#d1d1d1"
   inkscape:document-units="mm"
   showgrid="false"
   inkscape:zoom="3.0876875"
   inkscape:cx="188.81444"
   inkscape:cy="188.97638"
   inkscape:window-width="2560"
   inkscape:window-height="1369"
   inkscape:window-x="-8"
   inkscape:window-y="-8"
   inkscape:window-maximized="1"
   inkscape:current-layer="svg24" />
 <defs
   class="ClipPathGroup"
   id="defs2">
  
  <clipPath
   id="presentation_clip_path_shrink"
   clipPathUnits="userSpaceOnUse">
   <rect
   x="10"
   y="10"
   width="9980"
   height="9980"
   id="rect2" />
  </clipPath>
 
  
 
   
  
    
   
     
    
      
      
      
      
      
      
      
      
      
     
       
      
       
      
       
      
       
      
       
      
       
      
       
      
       
      
       
      
        
        
       
        
        
       
        
        
       
        
        
       
        
        
       
        
        
       
        
        
       
        
        
       
        
        
       </defs>
 <defs
   class="TextShapeIndex"
   id="defs3">
  <g
   ooo:slide="id1"
   ooo:id-list="id3 id4 id5 id6 id7 id8 id9 id10 id11"
   id="g2" />
 </defs>
 <defs
   class="EmbeddedBulletChars"
   id="defs12">
  <g
   id="bullet-char-template-57356"
   transform="scale(0.00048828125,-0.00048828125)">
   <path
   d="M 580,1141 L 1163,571 580,0 -4,571 580,1141 Z"
   id="path3" />
  </g>
  <g
   id="bullet-char-template-57354"
   transform="scale(0.00048828125,-0.00048828125)">
   <path
   d="M 8,1128 L 1137,1128 1137,0 8,0 8,1128 Z"
   id="path4" />
  </g>
  <g
   id="bullet-char-template-10146"
   transform="scale(0.00048828125,-0.00048828125)">
   <path
   d="M 174,0 L 602,739 174,1481 1456,739 174,0 Z M 1358,739 L 309,1346 659,739 1358,739 Z"
   id="path5" />
  </g>
  <g
   id="bullet-char-template-10132"
   transform="scale(0.00048828125,-0.00048828125)">
   <path
   d="M 2015,739 L 1276,0 717,0 1260,543 174,543 174,936 1260,936 717,1481 1274,1481 2015,739 Z"
   id="path6" />
  </g>
  <g
   id="bullet-char-template-10007"
   transform="scale(0.00048828125,-0.00048828125)">
   <path
   d="M 0,-2 C -7,14 -16,27 -25,37 L 356,567 C 262,823 215,952 215,954 215,979 228,992 255,992 264,992 276,990 289,987 310,991 331,999 354,1012 L 381,999 492,748 772,1049 836,1024 860,1049 C 881,1039 901,1025 922,1006 886,937 835,863 770,784 769,783 710,716 594,584 L 774,223 C 774,196 753,168 711,139 L 727,119 C 717,90 699,76 672,76 641,76 570,178 457,381 L 164,-76 C 142,-110 111,-127 72,-127 30,-127 9,-110 8,-76 1,-67 -2,-52 -2,-32 -2,-23 -1,-13 0,-2 Z"
   id="path7" />
  </g>
  <g
   id="bullet-char-template-10004"
   transform="scale(0.00048828125,-0.00048828125)">
   <path
   d="M 285,-33 C 182,-33 111,30 74,156 52,228 41,333 41,471 41,549 55,616 82,672 116,743 169,778 240,778 293,778 328,747 346,684 L 369,508 C 377,444 397,411 428,410 L 1163,1116 C 1174,1127 1196,1133 1229,1133 1271,1133 1292,1118 1292,1087 L 1292,965 C 1292,929 1282,901 1262,881 L 442,47 C 390,-6 338,-33 285,-33 Z"
   id="path8" />
  </g>
  <g
   id="bullet-char-template-9679"
   transform="scale(0.00048828125,-0.00048828125)">
   <path
   d="M 813,0 C 632,0 489,54 383,161 276,268 223,411 223,592 223,773 276,916 383,1023 489,1130 632,1184 813,1184 992,1184 1136,1130 1245,1023 1353,916 1407,772 1407,592 1407,412 1353,268 1245,161 1136,54 992,0 813,0 Z"
   id="path9" />
  </g>
  <g
   id="bullet-char-template-8226"
   transform="scale(0.00048828125,-0.00048828125)">
   <path
   d="M 346,457 C 273,457 209,483 155,535 101,586 74,649 74,723 74,796 101,859 155,911 209,963 273,989 346,989 419,989 480,963 531,910 582,859 608,796 608,723 608,648 583,586 532,535 482,483 420,457 346,457 Z"
   id="path10" />
  </g>
  <g
   id="bullet-char-template-8211"
   transform="scale(0.00048828125,-0.00048828125)">
   <path
   d="M -4,459 L 1135,459 1135,606 -4,606 -4,459 Z"
   id="path11" />
  </g>
  <g
   id="bullet-char-template-61548"
   transform="scale(0.00048828125,-0.00048828125)">
   <path
   d="M 173,740 C 173,903 231,1043 346,1159 462,1274 601,1332 765,1332 928,1332 1067,1274 1183,1159 1299,1043 1357,903 1357,740 1357,577 1299,437 1183,322 1067,206 928,148 765,148 601,148 462,206 346,322 231,437 173,577 173,740 Z"
   id="path12" />
  </g>
 </defs>
 
 <path
   id="path13"
   d="M 7275.0081 1999.9813 C 7261.9351 1999.9078 7248.227 2000.2648 7233.977 2001.0148 C 7007.977 2014.0148 6803.9786 2092.0001 6783.9786 2241.0001 C 6777.669 2281.8756 6774.9834 2330.1406 6776.2788 2380.8882 C 6774.5512 2398.8015 6774.0878 2417.3355 6776.0205 2437.0089 C 6863.0205 2887.0089 6906.9993 4753.9899 6910.9993 5370.9899 C 6914.7933 5956.2138 6841.5658 7306.6574 6798.138 7840.3482 C 6284.1956 7882.6901 5701.9029 7941.8527 5405.9749 7975.017 C 5338.9055 7982.5497 5242.3565 7995.7799 5133.3817 8011.5006 C 5133.918 8006.0056 5134.7504 8000.6769 5134.9837 7995.0158 C 5149.9837 7631.0158 5115.9778 6398.9755 5103.9778 5479.9755 C 5092.2063 4579.4551 5103.6319 2925.556 5119.1707 2382.852 C 5120.3105 2368.7164 5120.593 2355.4221 5119.9458 2343.0094 C 5119.9738 2342.1135 5119.9695 2339.8672 5119.9975 2338.9787 C 5119.9768 2338.242 5119.6445 2337.5871 5119.5841 2336.8599 C 5110.8159 2223.8583 5025.0718 2183.7969 4869.0051 2192.0109 C 4643.0051 2205.0109 4439.0067 2282.9962 4419.0067 2431.9962 C 4412.6971 2472.8717 4410.0115 2521.1367 4411.3069 2571.8843 C 4409.5793 2589.7976 4409.0642 2608.3316 4410.9969 2628.0049 C 4497.9969 3078.0049 4478.0003 4918.0109 4482.0003 5535.0109 C 4485.9721 6147.6564 4468.1772 7634.3971 4426.8099 8108.6523 C 4426.4307 8112.8296 4426.0921 8117.0869 4425.7763 8121.3647 C 3828.5998 8217.1346 3186.9951 8324.9402 3026.0168 8349.9812 C 2756.0168 8391.9812 2720.0071 8311.9881 2719.0071 8024.9881 C 2718.0071 7737.9881 2734.9862 6618.9956 2722.9862 5700.9956 C 2711.2281 4801.4994 2737.8096 3122.5946 2753.9404 2576.7936 C 2755.275 2561.7542 2755.5766 2547.6936 2754.9223 2534.574 C 2754.954 2533.5584 2754.9939 2530.9806 2755.0256 2529.9748 C 2755.0167 2529.6584 2754.7318 2529.4109 2754.7156 2529.0963 C 2746.4957 2415.1189 2660.6349 2374.7621 2503.9815 2383.007 C 2277.9815 2396.007 2073.9831 2473.9923 2053.9831 2622.9923 C 2046.9259 2668.7107 2044.2425 2723.5995 2046.8001 2780.9672 C 2046.3851 2793.5804 2044.7049 2805.5633 2046.025 2819.001 C 2133.025 3269.001 2097.0087 5138.9794 2101.0087 5755.9794 C 2105.0087 6372.9794 2106.9918 7839.9978 2081.9918 8331.9978 C 2056.9918 8823.9978 2249.0016 9170.9893 2725.0016 9106.9893 C 3201.0016 9042.9893 4999.0192 8739.9885 5358.0192 8696.9885 C 5718.0192 8655.9885 6935.9766 8567.0222 7028.9766 8567.0222 C 7121.9766 8567.0222 7215.9921 8573.0042 7198.9921 8736.0042 C 7198.8799 8737.0798 7199.5591 8737.8938 7199.5088 8738.9497 C 7194.3843 8884.8761 7224.565 9069.4535 7309.0112 9163.0065 C 7406.0112 9269.0065 7478.0055 9242.9896 7614.0055 9143.9896 C 7747.0055 9046.9896 7834.0105 8868.9793 7870.0105 8762.9793 C 7894.3126 8692.6863 7906.8241 8634.6532 7908.1477 8587.3311 C 7991.2001 7867.2892 8019.6226 7784.0571 7540.0048 7793.0126 C 7528.6748 7793.2242 7512.409 7794.23 7500.3173 7794.5629 C 7515.4003 7423.103 7544.9082 6228.7543 7532.9768 5316.0062 C 7521.2147 4417.1852 7471.4743 2731.8707 7484.556 2186.7399 C 7485.3296 2175.0596 7485.453 2163.9815 7484.9694 2153.5119 C 7485.0136 2152.0555 7484.9759 2149.4193 7485.0211 2147.9826 C 7484.9963 2147.1013 7484.5858 2146.3181 7484.5043 2145.4504 C 7476.3723 2043.0747 7404.9315 2000.7116 7275.0081 1999.9813 z " />
   
  
</svg>
