<?xml version="1.0" encoding="UTF-8" standalone="no"?>
<svg
   version="1.2"
   width="100mm"
   height="100mm"
   viewBox="0 0 10000 10000"
   preserveAspectRatio="xMidYMid"
   fill-rule="evenodd"
   stroke-width="28.222"
   stroke-linejoin="round"
   xml:space="preserve"
   id="svg29"
   sodipodi:docname="gobo-caps-0434.svg"
   inkscape:version="1.4 (86a8ad7, 2024-10-11)"
   xmlns:inkscape="http://www.inkscape.org/namespaces/inkscape"
   xmlns:sodipodi="http://sodipodi.sourceforge.net/DTD/sodipodi-0.dtd"
   xmlns="http://www.w3.org/2000/svg"
   xmlns:svg="http://www.w3.org/2000/svg"
   xmlns:ooo="http://xml.openoffice.org/svg/export"><sodipodi:namedview
   id="namedview29"
   pagecolor="#ffffff"
   bordercolor="#000000"
   borderopacity="0.25"
   inkscape:showpageshadow="2"
   inkscape:pageopacity="0.0"
   inkscape:pagecheckerboard="0"
   inkscape:deskcolor="#d1d1d1"
   inkscape:document-units="mm"
   showgrid="false"
   inkscape:zoom="3.0876875"
   inkscape:cx="188.81444"
   inkscape:cy="188.97638"
   inkscape:window-width="2560"
   inkscape:window-height="1369"
   inkscape:window-x="-8"
   inkscape:window-y="-8"
   inkscape:window-maximized="1"
   inkscape:current-layer="svg29" />
 <defs
   class="ClipPathGroup"
   id="defs2">
  
  <clipPath
   id="presentation_clip_path_shrink"
   clipPathUnits="userSpaceOnUse">
   <rect
   x="10"
   y="10"
   width="9980"
   height="9980"
   id="rect2" />
  </clipPath>
 
  
 
   
  
    
   
     
    
      
      
      
      
      
      
      
      
      
      
      
      
      
      
     
       
      
       
      
       
      
       
      
       
      
       
      
       
      
       
      
       
      
       
      
       
      
       
      
       
      
       
      
        
        
       
        
        
       
        
        
       
        
        
       
        
        
       
        
        
       
        
        
       
        
        
       
        
        
       
        
        
       
        
        
       
        
        
       
        
        
       
        
        
       </defs>
 <defs
   class="TextShapeIndex"
   id="defs3">
  <g
   ooo:slide="id1"
   ooo:id-list="id3 id4 id5 id6 id7 id8 id9 id10 id11 id12 id13 id14 id15 id16"
   id="g2" />
 </defs>
 <defs
   class="EmbeddedBulletChars"
   id="defs12">
  <g
   id="bullet-char-template-57356"
   transform="scale(0.00048828125,-0.00048828125)">
   <path
   d="M 580,1141 L 1163,571 580,0 -4,571 580,1141 Z"
   id="path3" />
  </g>
  <g
   id="bullet-char-template-57354"
   transform="scale(0.00048828125,-0.00048828125)">
   <path
   d="M 8,1128 L 1137,1128 1137,0 8,0 8,1128 Z"
   id="path4" />
  </g>
  <g
   id="bullet-char-template-10146"
   transform="scale(0.00048828125,-0.00048828125)">
   <path
   d="M 174,0 L 602,739 174,1481 1456,739 174,0 Z M 1358,739 L 309,1346 659,739 1358,739 Z"
   id="path5" />
  </g>
  <g
   id="bullet-char-template-10132"
   transform="scale(0.00048828125,-0.00048828125)">
   <path
   d="M 2015,739 L 1276,0 717,0 1260,543 174,543 174,936 1260,936 717,1481 1274,1481 2015,739 Z"
   id="path6" />
  </g>
  <g
   id="bullet-char-template-10007"
   transform="scale(0.00048828125,-0.00048828125)">
   <path
   d="M 0,-2 C -7,14 -16,27 -25,37 L 356,567 C 262,823 215,952 215,954 215,979 228,992 255,992 264,992 276,990 289,987 310,991 331,999 354,1012 L 381,999 492,748 772,1049 836,1024 860,1049 C 881,1039 901,1025 922,1006 886,937 835,863 770,784 769,783 710,716 594,584 L 774,223 C 774,196 753,168 711,139 L 727,119 C 717,90 699,76 672,76 641,76 570,178 457,381 L 164,-76 C 142,-110 111,-127 72,-127 30,-127 9,-110 8,-76 1,-67 -2,-52 -2,-32 -2,-23 -1,-13 0,-2 Z"
   id="path7" />
  </g>
  <g
   id="bullet-char-template-10004"
   transform="scale(0.00048828125,-0.00048828125)">
   <path
   d="M 285,-33 C 182,-33 111,30 74,156 52,228 41,333 41,471 41,549 55,616 82,672 116,743 169,778 240,778 293,778 328,747 346,684 L 369,508 C 377,444 397,411 428,410 L 1163,1116 C 1174,1127 1196,1133 1229,1133 1271,1133 1292,1118 1292,1087 L 1292,965 C 1292,929 1282,901 1262,881 L 442,47 C 390,-6 338,-33 285,-33 Z"
   id="path8" />
  </g>
  <g
   id="bullet-char-template-9679"
   transform="scale(0.00048828125,-0.00048828125)">
   <path
   d="M 813,0 C 632,0 489,54 383,161 276,268 223,411 223,592 223,773 276,916 383,1023 489,1130 632,1184 813,1184 992,1184 1136,1130 1245,1023 1353,916 1407,772 1407,592 1407,412 1353,268 1245,161 1136,54 992,0 813,0 Z"
   id="path9" />
  </g>
  <g
   id="bullet-char-template-8226"
   transform="scale(0.00048828125,-0.00048828125)">
   <path
   d="M 346,457 C 273,457 209,483 155,535 101,586 74,649 74,723 74,796 101,859 155,911 209,963 273,989 346,989 419,989 480,963 531,910 582,859 608,796 608,723 608,648 583,586 532,535 482,483 420,457 346,457 Z"
   id="path10" />
  </g>
  <g
   id="bullet-char-template-8211"
   transform="scale(0.00048828125,-0.00048828125)">
   <path
   d="M -4,459 L 1135,459 1135,606 -4,606 -4,459 Z"
   id="path11" />
  </g>
  <g
   id="bullet-char-template-61548"
   transform="scale(0.00048828125,-0.00048828125)">
   <path
   d="M 173,740 C 173,903 231,1043 346,1159 462,1274 601,1332 765,1332 928,1332 1067,1274 1183,1159 1299,1043 1357,903 1357,740 1357,577 1299,437 1183,322 1067,206 928,148 765,148 601,148 462,206 346,322 231,437 173,577 173,740 Z"
   id="path12" />
  </g>
 </defs>
 
 <path
   id="path13"
   d="M 6872.9654 3020.9525 C 6859.8924 3020.8793 6846.236 3021.2361 6831.986 3021.9861 C 6813.582 3023.0447 6795.4288 3024.7246 6777.4157 3026.6369 C 6479.0433 3038.3387 5736.2107 3081.1788 5091.9889 3146.9913 C 4472.5128 3212.2464 4109.5111 3253.7137 3751.6056 3316.025 C 3711.0511 3320.7557 3671.9635 3327.7373 3635.1269 3337.0056 C 3631.408 3337.7023 3627.7405 3338.3187 3624.0165 3339.021 C 3619.2484 3339.9465 3614.622 3341.671 3610.0639 3343.7752 C 3480.0685 3381.3598 3384.0484 3449.129 3369.9752 3548.9823 C 3346.9752 3698.9823 3371.018 3944.9952 3473.018 4057.9952 C 3509.9993 4098.8287 3543.5787 4119.9898 3578.5929 4125.0195 C 3588.3775 4127.9008 3599.0155 4127.9518 3610.3739 4125.3812 C 3610.5464 4125.3606 3610.7181 4125.2992 3610.8907 4125.2779 C 3611.6168 4125.1081 3612.2768 4125.2129 3613.0094 4125.0195 C 3613.122 4124.9902 3613.3615 4124.9455 3613.4745 4124.9161 C 3620.7414 4123.8818 3628.2011 4122.0078 3635.747 4119.8002 C 3653.5137 4115.4751 3673.5748 4110.8288 3698.0688 4105.5375 C 3774.0626 4557.8965 3793.1875 5227.3906 3796.9775 5811.9966 C 3800.8625 6411.2507 3590.9438 7028.6733 3173.0363 7417.3767 C 2959.7703 7435.4134 2774.0262 7511.884 2753.9921 7654.9849 C 2744.4679 7716.6852 2743.0202 7795.0447 2751.615 7873.6795 C 2751.4125 7877.1698 2751.4356 7880.6331 2751.9767 7884.0148 C 2773.6744 8019.6256 2779.8439 8310.9012 2780.0887 8489.921 C 2779.9479 8499.402 2779.8794 8508.9339 2780.037 8518.6531 C 2780.0175 8526.8722 2780.0303 8536.425 2779.9853 8543.9745 C 2779.9606 8548.1358 2780.5345 8551.9929 2781.3806 8555.6534 C 2788.3667 8682.7544 2821.1173 8819.6782 2890.0045 8895.9944 C 2987.0045 9001.9944 3058.9988 8975.9775 3194.9988 8876.9775 C 3327.9988 8779.9775 3415.0038 8602.0188 3451.0038 8496.0188 C 3481.2889 8408.42 3493.313 8339.786 3488.0558 8287.3494 C 3488.0203 8286.9027 3488.0487 8286.4517 3488.0041 8286.0058 C 3484.4801 8250.7654 3481.2272 8202.9869 3478.1856 8151.182 C 3904.4535 8088.5408 4467.0808 8015.3837 4704.0022 7987.006 C 5065.0022 7946.006 6237.0012 7825.0003 6330.0012 7825.0003 C 6423.0012 7825.0003 6517.0166 7831.0004 6500.0166 7993.0004 C 6499.7128 7995.9315 6500.13 7998.6374 6500.275 8001.4237 C 6495.9332 8146.6186 6526.4142 8328.4024 6609.9841 8420.9846 C 6706.9841 8526.9846 6778.9784 8501.0194 6914.9784 8402.0194 C 7047.9784 8305.0194 7134.9834 8127.0091 7170.9834 8021.0091 C 7195.3835 7950.4325 7207.9349 7892.2178 7209.1723 7844.7924 C 7290.9409 7135.9737 7318.5573 7044.8387 6860.8732 7050.8874 C 6874.6776 6782.9554 6789.2608 6303.6763 6777.9842 5441.0115 C 6767.8321 4664.3824 6826.0877 4143.4197 6854.0519 3693.5213 C 6950.856 3593.3404 7015.3098 3458.4189 7044.9963 3371.0087 C 7132.1838 3117.8837 7069.0604 3022.0512 6872.9654 3020.9525 z M 6075.8565 3827.5183 C 6108.8245 3827.3943 6137.6183 3827.7492 6168.6157 3827.88 C 6227.8751 4278.0805 6152.2876 4922.3285 6156.0066 5495.9952 C 6159.4032 6019.9094 6137.8355 6734.2207 6144.6378 7103.5974 C 5637.9992 7155.3732 5052.9834 7230.9198 4752.0096 7264.001 C 4553.6383 7286.2803 4272.7499 7312.211 3995.0533 7337.7433 C 4239.5561 6893.4844 4426.84 6356.2576 4419.0067 5757.0129 C 4408.7279 4970.6799 4389.1028 4436.6868 4393.6853 3980.2221 C 4662.5884 3937.1471 4953.6824 3895.3278 5199.9926 3869.0145 C 5485.9926 3838.5145 5809.9815 3828.5183 6075.8565 3827.5183 z " />
   
  
</svg>
