<?xml version="1.0" encoding="UTF-8" standalone="no"?>
<svg
   version="1.2"
   width="100mm"
   height="100mm"
   viewBox="0 0 10000 10000"
   preserveAspectRatio="xMidYMid"
   fill-rule="evenodd"
   stroke-width="28.222"
   stroke-linejoin="round"
   xml:space="preserve"
   id="svg20"
   sodipodi:docname="gobo-caps-0417.svg"
   inkscape:version="1.4 (86a8ad7, 2024-10-11)"
   xmlns:inkscape="http://www.inkscape.org/namespaces/inkscape"
   xmlns:sodipodi="http://sodipodi.sourceforge.net/DTD/sodipodi-0.dtd"
   xmlns="http://www.w3.org/2000/svg"
   xmlns:svg="http://www.w3.org/2000/svg"
   xmlns:ooo="http://xml.openoffice.org/svg/export"><sodipodi:namedview
   id="namedview20"
   pagecolor="#ffffff"
   bordercolor="#000000"
   borderopacity="0.25"
   inkscape:showpageshadow="2"
   inkscape:pageopacity="0.0"
   inkscape:pagecheckerboard="0"
   inkscape:deskcolor="#d1d1d1"
   inkscape:document-units="mm"
   showgrid="false"
   inkscape:zoom="3.0876875"
   inkscape:cx="188.81444"
   inkscape:cy="188.97638"
   inkscape:window-width="2560"
   inkscape:window-height="1369"
   inkscape:window-x="-8"
   inkscape:window-y="-8"
   inkscape:window-maximized="1"
   inkscape:current-layer="svg20" />
 <defs
   class="ClipPathGroup"
   id="defs2">
  
  <clipPath
   id="presentation_clip_path_shrink"
   clipPathUnits="userSpaceOnUse">
   <rect
   x="10"
   y="10"
   width="9980"
   height="9980"
   id="rect2" />
  </clipPath>
 
  
 
   
  
    
   
     
    
      
      
      
      
      
     
       
      
       
      
       
      
       
      
       
      
        
        
       
        
        
       
        
        
       
        
        
       
        
        
       </defs>
 <defs
   class="TextShapeIndex"
   id="defs3">
  <g
   ooo:slide="id1"
   ooo:id-list="id3 id4 id5 id6 id7"
   id="g2" />
 </defs>
 <defs
   class="EmbeddedBulletChars"
   id="defs12">
  <g
   id="bullet-char-template-57356"
   transform="scale(0.00048828125,-0.00048828125)">
   <path
   d="M 580,1141 L 1163,571 580,0 -4,571 580,1141 Z"
   id="path3" />
  </g>
  <g
   id="bullet-char-template-57354"
   transform="scale(0.00048828125,-0.00048828125)">
   <path
   d="M 8,1128 L 1137,1128 1137,0 8,0 8,1128 Z"
   id="path4" />
  </g>
  <g
   id="bullet-char-template-10146"
   transform="scale(0.00048828125,-0.00048828125)">
   <path
   d="M 174,0 L 602,739 174,1481 1456,739 174,0 Z M 1358,739 L 309,1346 659,739 1358,739 Z"
   id="path5" />
  </g>
  <g
   id="bullet-char-template-10132"
   transform="scale(0.00048828125,-0.00048828125)">
   <path
   d="M 2015,739 L 1276,0 717,0 1260,543 174,543 174,936 1260,936 717,1481 1274,1481 2015,739 Z"
   id="path6" />
  </g>
  <g
   id="bullet-char-template-10007"
   transform="scale(0.00048828125,-0.00048828125)">
   <path
   d="M 0,-2 C -7,14 -16,27 -25,37 L 356,567 C 262,823 215,952 215,954 215,979 228,992 255,992 264,992 276,990 289,987 310,991 331,999 354,1012 L 381,999 492,748 772,1049 836,1024 860,1049 C 881,1039 901,1025 922,1006 886,937 835,863 770,784 769,783 710,716 594,584 L 774,223 C 774,196 753,168 711,139 L 727,119 C 717,90 699,76 672,76 641,76 570,178 457,381 L 164,-76 C 142,-110 111,-127 72,-127 30,-127 9,-110 8,-76 1,-67 -2,-52 -2,-32 -2,-23 -1,-13 0,-2 Z"
   id="path7" />
  </g>
  <g
   id="bullet-char-template-10004"
   transform="scale(0.00048828125,-0.00048828125)">
   <path
   d="M 285,-33 C 182,-33 111,30 74,156 52,228 41,333 41,471 41,549 55,616 82,672 116,743 169,778 240,778 293,778 328,747 346,684 L 369,508 C 377,444 397,411 428,410 L 1163,1116 C 1174,1127 1196,1133 1229,1133 1271,1133 1292,1118 1292,1087 L 1292,965 C 1292,929 1282,901 1262,881 L 442,47 C 390,-6 338,-33 285,-33 Z"
   id="path8" />
  </g>
  <g
   id="bullet-char-template-9679"
   transform="scale(0.00048828125,-0.00048828125)">
   <path
   d="M 813,0 C 632,0 489,54 383,161 276,268 223,411 223,592 223,773 276,916 383,1023 489,1130 632,1184 813,1184 992,1184 1136,1130 1245,1023 1353,916 1407,772 1407,592 1407,412 1353,268 1245,161 1136,54 992,0 813,0 Z"
   id="path9" />
  </g>
  <g
   id="bullet-char-template-8226"
   transform="scale(0.00048828125,-0.00048828125)">
   <path
   d="M 346,457 C 273,457 209,483 155,535 101,586 74,649 74,723 74,796 101,859 155,911 209,963 273,989 346,989 419,989 480,963 531,910 582,859 608,796 608,723 608,648 583,586 532,535 482,483 420,457 346,457 Z"
   id="path10" />
  </g>
  <g
   id="bullet-char-template-8211"
   transform="scale(0.00048828125,-0.00048828125)">
   <path
   d="M -4,459 L 1135,459 1135,606 -4,606 -4,459 Z"
   id="path11" />
  </g>
  <g
   id="bullet-char-template-61548"
   transform="scale(0.00048828125,-0.00048828125)">
   <path
   d="M 173,740 C 173,903 231,1043 346,1159 462,1274 601,1332 765,1332 928,1332 1067,1274 1183,1159 1299,1043 1357,903 1357,740 1357,577 1299,437 1183,322 1067,206 928,148 765,148 601,148 462,206 346,322 231,437 173,577 173,740 Z"
   id="path12" />
  </g>
 </defs>
 
 <path
   id="path13"
   d="M 4978.0424 2175.061 C 4462.5279 2186.6974 3870.2248 2406.8805 3351.63 2708.9302 C 3263.8521 2748.8687 3202.9625 2807.2211 3192.0015 2884.9918 C 3169.0015 3033.9918 3191.9927 3280.0047 3294.9927 3394.0047 C 3372.4565 3479.5377 3435.0125 3479.0293 3526.6581 3423.667 C 3529.4702 3422.8782 3532.3169 3422.2718 3534.978 3420.9798 C 3545.131 3413.1862 3555.1908 3406.004 3565.3121 3398.3972 C 3575.8543 3391.0846 3586.6541 3383.3874 3598.0232 3374.9878 C 3605.885 3369.2381 3613.5336 3363.1642 3621.0709 3356.901 C 4492.2522 2727.8352 5236.9172 2794.4718 5569.9959 3388.0102 C 5837.0436 3861.1324 5276.4622 4375.1242 4514.8665 4662.8678 C 4256.7014 4701.7799 4003.0868 4769.7028 3767.0569 4864.4059 C 3765.6779 4864.9621 3764.3349 4865.541 3762.9744 4866.1112 C 3762.8376 4866.1663 3762.6978 4866.2111 3762.561 4866.2662 C 3729.7328 4876.8621 3699.1982 4889.3543 3672.0756 4904.0417 C 3669.7465 4905.0684 3667.321 4905.9553 3664.9959 4906.9873 C 3659.4245 4909.3589 3654.4856 4912.9112 3649.8547 4917.0125 C 3589.816 4954.7914 3549.7215 5004.2862 3541.0241 5065.9956 C 3518.0241 5214.9956 3541.0153 5461.0085 3644.0153 5575.0085 C 3699.9168 5636.7331 3748.0462 5653.4221 3804.9357 5637.2786 C 3805.9452 5637.1034 3806.9933 5637.3406 3807.9846 5637.0202 C 3809.9945 5636.1391 3811.9195 5635.416 3813.9274 5634.5398 C 3822.9614 5631.4831 3832.2647 5627.6131 3841.8327 5623.0159 C 5451.7567 4935.0933 6378.4438 5804.2048 6441.0021 6825.9916 C 6502.0021 7852.9916 5538.0046 8055.9762 5131.0046 8093.9762 C 4724.0046 8132.9762 3975.9897 8002.9802 3596.9897 7603.9802 C 3590.2387 7600.2461 3583.238 7597.3716 3576.2158 7594.5751 C 3534.6064 7573.7248 3476.3758 7566.3737 3402.0145 7569.9772 C 3176.0145 7582.9772 2971.9826 7661.0142 2950.9826 7810.0142 C 2927.9826 7959.0142 2951.0254 8204.9754 3054.0254 8318.9754 C 3057.6271 8322.9522 3061.1294 8326.3741 3064.6708 8329.9824 C 3066.2064 8331.6088 3067.4153 8333.3987 3069.0116 8334.9951 C 3069.6914 8335.5629 3070.4998 8336.132 3071.182 8336.7004 C 3083.8092 8348.8865 3096.1052 8358.7136 3108.2857 8366.3626 C 3463.6077 8648.8553 4112.7761 8973.1672 5184.0246 8815.9993 C 6296.0246 8649.9993 7178.9754 7820.9805 7048.9754 6202.9805 C 6978.5779 5333.4915 6384.4115 4856.9782 5646.7871 4691.8583 C 6089.8529 4320.116 6362.1457 3837.3564 6227.01 3178.9791 C 6073.4788 2429.9166 5577.8973 2161.5209 4978.0424 2175.061 z " />
   
  
</svg>
