<?xml version="1.0" encoding="UTF-8" standalone="no"?>
<svg
   version="1.2"
   width="100mm"
   height="100mm"
   viewBox="0 0 10000 10000"
   preserveAspectRatio="xMidYMid"
   fill-rule="evenodd"
   stroke-width="28.222"
   stroke-linejoin="round"
   xml:space="preserve"
   id="svg23"
   sodipodi:docname="gobo-caps-044F.svg"
   inkscape:version="1.4 (86a8ad7, 2024-10-11)"
   xmlns:inkscape="http://www.inkscape.org/namespaces/inkscape"
   xmlns:sodipodi="http://sodipodi.sourceforge.net/DTD/sodipodi-0.dtd"
   xmlns="http://www.w3.org/2000/svg"
   xmlns:svg="http://www.w3.org/2000/svg"
   xmlns:ooo="http://xml.openoffice.org/svg/export"><sodipodi:namedview
   id="namedview23"
   pagecolor="#ffffff"
   bordercolor="#000000"
   borderopacity="0.25"
   inkscape:showpageshadow="2"
   inkscape:pageopacity="0.0"
   inkscape:pagecheckerboard="0"
   inkscape:deskcolor="#d1d1d1"
   inkscape:document-units="mm"
   showgrid="false"
   inkscape:zoom="3.0876875"
   inkscape:cx="188.81444"
   inkscape:cy="188.97638"
   inkscape:window-width="2560"
   inkscape:window-height="1369"
   inkscape:window-x="-8"
   inkscape:window-y="-8"
   inkscape:window-maximized="1"
   inkscape:current-layer="svg23" />
 <defs
   class="ClipPathGroup"
   id="defs2">
  
  <clipPath
   id="presentation_clip_path_shrink"
   clipPathUnits="userSpaceOnUse">
   <rect
   x="10"
   y="10"
   width="9980"
   height="9980"
   id="rect2" />
  </clipPath>
 
  
 
   
  
    
   
     
    
      
      
      
      
      
      
      
      
     
       
      
       
      
       
      
       
      
       
      
       
      
       
      
       
      
        
        
       
        
        
       
        
        
       
        
        
       
        
        
       
        
        
       
        
        
       
        
        
       </defs>
 <defs
   class="TextShapeIndex"
   id="defs3">
  <g
   ooo:slide="id1"
   ooo:id-list="id3 id4 id5 id6 id7 id8 id9 id10"
   id="g2" />
 </defs>
 <defs
   class="EmbeddedBulletChars"
   id="defs12">
  <g
   id="bullet-char-template-57356"
   transform="scale(0.00048828125,-0.00048828125)">
   <path
   d="M 580,1141 L 1163,571 580,0 -4,571 580,1141 Z"
   id="path3" />
  </g>
  <g
   id="bullet-char-template-57354"
   transform="scale(0.00048828125,-0.00048828125)">
   <path
   d="M 8,1128 L 1137,1128 1137,0 8,0 8,1128 Z"
   id="path4" />
  </g>
  <g
   id="bullet-char-template-10146"
   transform="scale(0.00048828125,-0.00048828125)">
   <path
   d="M 174,0 L 602,739 174,1481 1456,739 174,0 Z M 1358,739 L 309,1346 659,739 1358,739 Z"
   id="path5" />
  </g>
  <g
   id="bullet-char-template-10132"
   transform="scale(0.00048828125,-0.00048828125)">
   <path
   d="M 2015,739 L 1276,0 717,0 1260,543 174,543 174,936 1260,936 717,1481 1274,1481 2015,739 Z"
   id="path6" />
  </g>
  <g
   id="bullet-char-template-10007"
   transform="scale(0.00048828125,-0.00048828125)">
   <path
   d="M 0,-2 C -7,14 -16,27 -25,37 L 356,567 C 262,823 215,952 215,954 215,979 228,992 255,992 264,992 276,990 289,987 310,991 331,999 354,1012 L 381,999 492,748 772,1049 836,1024 860,1049 C 881,1039 901,1025 922,1006 886,937 835,863 770,784 769,783 710,716 594,584 L 774,223 C 774,196 753,168 711,139 L 727,119 C 717,90 699,76 672,76 641,76 570,178 457,381 L 164,-76 C 142,-110 111,-127 72,-127 30,-127 9,-110 8,-76 1,-67 -2,-52 -2,-32 -2,-23 -1,-13 0,-2 Z"
   id="path7" />
  </g>
  <g
   id="bullet-char-template-10004"
   transform="scale(0.00048828125,-0.00048828125)">
   <path
   d="M 285,-33 C 182,-33 111,30 74,156 52,228 41,333 41,471 41,549 55,616 82,672 116,743 169,778 240,778 293,778 328,747 346,684 L 369,508 C 377,444 397,411 428,410 L 1163,1116 C 1174,1127 1196,1133 1229,1133 1271,1133 1292,1118 1292,1087 L 1292,965 C 1292,929 1282,901 1262,881 L 442,47 C 390,-6 338,-33 285,-33 Z"
   id="path8" />
  </g>
  <g
   id="bullet-char-template-9679"
   transform="scale(0.00048828125,-0.00048828125)">
   <path
   d="M 813,0 C 632,0 489,54 383,161 276,268 223,411 223,592 223,773 276,916 383,1023 489,1130 632,1184 813,1184 992,1184 1136,1130 1245,1023 1353,916 1407,772 1407,592 1407,412 1353,268 1245,161 1136,54 992,0 813,0 Z"
   id="path9" />
  </g>
  <g
   id="bullet-char-template-8226"
   transform="scale(0.00048828125,-0.00048828125)">
   <path
   d="M 346,457 C 273,457 209,483 155,535 101,586 74,649 74,723 74,796 101,859 155,911 209,963 273,989 346,989 419,989 480,963 531,910 582,859 608,796 608,723 608,648 583,586 532,535 482,483 420,457 346,457 Z"
   id="path10" />
  </g>
  <g
   id="bullet-char-template-8211"
   transform="scale(0.00048828125,-0.00048828125)">
   <path
   d="M -4,459 L 1135,459 1135,606 -4,606 -4,459 Z"
   id="path11" />
  </g>
  <g
   id="bullet-char-template-61548"
   transform="scale(0.00048828125,-0.00048828125)">
   <path
   d="M 173,740 C 173,903 231,1043 346,1159 462,1274 601,1332 765,1332 928,1332 1067,1274 1183,1159 1299,1043 1357,903 1357,740 1357,577 1299,437 1183,322 1067,206 928,148 765,148 601,148 462,206 346,322 231,437 173,577 173,740 Z"
   id="path12" />
  </g>
 </defs>
 
 <path
   id="path13"
   d="M 6691.7879 3042.1399 C 6678.7698 3042.019 6665.2027 3042.3309 6651.0152 3043.0184 C 6623.702 3044.5895 6596.7345 3047.1343 6570.3483 3050.6148 C 4269.4355 3182.2399 3344.9671 3727.1933 3334.0084 5102.0141 C 3327.6191 5904.731 3893.0818 6286.528 4612.1215 6404.1052 C 4554.5504 6453.0121 4502.7193 6499.0091 4458.0224 6540.0142 C 4127.0402 6847.2842 3622.7882 7266.1333 3197.9443 7597.314 C 3147.3288 7633.4894 3113.865 7679.2609 3106.0119 7734.98 C 3083.0119 7883.98 3106.0031 8129.9929 3209.0031 8243.9929 C 3305.0031 8349.9929 3377.982 8323.9759 3511.982 8224.9759 C 3523.3693 8216.6479 3534.2972 8207.5845 3545.0032 8198.2075 C 3545.6355 8197.7412 3546.4027 8197.5157 3547.0186 8197.019 C 3925.0186 7893.019 4427.9762 7356.0202 4918.9762 6907.0202 C 5321.4469 6538.9767 5766.3986 6423.0291 6064.4877 6352.6871 C 6074.7009 6873.9198 6097.5467 7309.9108 6119.7814 7559.0734 C 6125.2594 7689.4454 6158.0758 7833.3918 6230.0073 7913.0053 C 6326.0073 8019.0053 6398.9862 7992.9884 6532.9862 7893.9884 C 6666.9862 7795.9884 6754.0248 7618.9781 6790.0248 7512.9781 C 6807.2945 7462.8401 6818.6172 7418.968 6824.2346 7380.7381 C 6825.797 7376.1424 6826.8285 7371.8925 6827.0251 7368.0257 C 6827.2366 7364.1736 6827.0473 7358.6638 6827.1801 7354.4864 C 6828.5573 7337.5225 6828.6527 7321.7825 6827.4385 7307.3059 C 6820.1502 6984.0961 6680.2512 6095.819 6683.9847 5518.9913 C 6688.9847 4901.9913 6708.0192 3994.9851 6796.0192 3545.9851 C 6796.1171 3545.0116 6796.034 3544.2102 6796.1226 3543.2462 C 6796.1861 3542.8519 6796.267 3542.4508 6796.3293 3542.0577 C 6826.3429 3487.1149 6848.7325 3433.9752 6862.9919 3391.9893 C 6950.1794 3138.8643 6887.0589 3043.9526 6691.7879 3042.1399 z M 6096.062 3879.3497 C 6100.263 4297.1556 6072.3495 4664.3507 6061.0253 5464.0075 C 6060.5843 5497.7442 6060.6595 5530.5182 6060.3536 5564.0531 C 5136.5017 5751.7936 4001.5528 5707.6042 3960.0167 4857.0162 C 3920.1108 4001.7619 5064.7668 3940.0846 6096.062 3879.3497 z " />
   
  
</svg>
