<?xml version="1.0" encoding="UTF-8" standalone="no"?>
<svg
   version="1.2"
   width="100mm"
   height="100mm"
   viewBox="0 0 10000 10000"
   preserveAspectRatio="xMidYMid"
   fill-rule="evenodd"
   stroke-width="28.222"
   stroke-linejoin="round"
   xml:space="preserve"
   id="svg24"
   sodipodi:docname="gobo-caps-0449.svg"
   inkscape:version="1.4 (86a8ad7, 2024-10-11)"
   xmlns:inkscape="http://www.inkscape.org/namespaces/inkscape"
   xmlns:sodipodi="http://sodipodi.sourceforge.net/DTD/sodipodi-0.dtd"
   xmlns="http://www.w3.org/2000/svg"
   xmlns:svg="http://www.w3.org/2000/svg"
   xmlns:ooo="http://xml.openoffice.org/svg/export"><sodipodi:namedview
   id="namedview24"
   pagecolor="#ffffff"
   bordercolor="#000000"
   borderopacity="0.25"
   inkscape:showpageshadow="2"
   inkscape:pageopacity="0.0"
   inkscape:pagecheckerboard="0"
   inkscape:deskcolor="#d1d1d1"
   inkscape:document-units="mm"
   showgrid="false"
   inkscape:zoom="3.0876875"
   inkscape:cx="188.81444"
   inkscape:cy="188.97638"
   inkscape:window-width="2560"
   inkscape:window-height="1369"
   inkscape:window-x="-8"
   inkscape:window-y="-8"
   inkscape:window-maximized="1"
   inkscape:current-layer="svg24" />
 <defs
   class="ClipPathGroup"
   id="defs2">
  
  <clipPath
   id="presentation_clip_path_shrink"
   clipPathUnits="userSpaceOnUse">
   <rect
   x="10"
   y="10"
   width="9980"
   height="9980"
   id="rect2" />
  </clipPath>
 
  
 
   
  
    
   
     
    
      
      
      
      
      
      
      
      
      
     
       
      
       
      
       
      
       
      
       
      
       
      
       
      
       
      
       
      
        
        
       
        
        
       
        
        
       
        
        
       
        
        
       
        
        
       
        
        
       
        
        
       
        
        
       </defs>
 <defs
   class="TextShapeIndex"
   id="defs3">
  <g
   ooo:slide="id1"
   ooo:id-list="id3 id4 id5 id6 id7 id8 id9 id10 id11"
   id="g2" />
 </defs>
 <defs
   class="EmbeddedBulletChars"
   id="defs12">
  <g
   id="bullet-char-template-57356"
   transform="scale(0.00048828125,-0.00048828125)">
   <path
   d="M 580,1141 L 1163,571 580,0 -4,571 580,1141 Z"
   id="path3" />
  </g>
  <g
   id="bullet-char-template-57354"
   transform="scale(0.00048828125,-0.00048828125)">
   <path
   d="M 8,1128 L 1137,1128 1137,0 8,0 8,1128 Z"
   id="path4" />
  </g>
  <g
   id="bullet-char-template-10146"
   transform="scale(0.00048828125,-0.00048828125)">
   <path
   d="M 174,0 L 602,739 174,1481 1456,739 174,0 Z M 1358,739 L 309,1346 659,739 1358,739 Z"
   id="path5" />
  </g>
  <g
   id="bullet-char-template-10132"
   transform="scale(0.00048828125,-0.00048828125)">
   <path
   d="M 2015,739 L 1276,0 717,0 1260,543 174,543 174,936 1260,936 717,1481 1274,1481 2015,739 Z"
   id="path6" />
  </g>
  <g
   id="bullet-char-template-10007"
   transform="scale(0.00048828125,-0.00048828125)">
   <path
   d="M 0,-2 C -7,14 -16,27 -25,37 L 356,567 C 262,823 215,952 215,954 215,979 228,992 255,992 264,992 276,990 289,987 310,991 331,999 354,1012 L 381,999 492,748 772,1049 836,1024 860,1049 C 881,1039 901,1025 922,1006 886,937 835,863 770,784 769,783 710,716 594,584 L 774,223 C 774,196 753,168 711,139 L 727,119 C 717,90 699,76 672,76 641,76 570,178 457,381 L 164,-76 C 142,-110 111,-127 72,-127 30,-127 9,-110 8,-76 1,-67 -2,-52 -2,-32 -2,-23 -1,-13 0,-2 Z"
   id="path7" />
  </g>
  <g
   id="bullet-char-template-10004"
   transform="scale(0.00048828125,-0.00048828125)">
   <path
   d="M 285,-33 C 182,-33 111,30 74,156 52,228 41,333 41,471 41,549 55,616 82,672 116,743 169,778 240,778 293,778 328,747 346,684 L 369,508 C 377,444 397,411 428,410 L 1163,1116 C 1174,1127 1196,1133 1229,1133 1271,1133 1292,1118 1292,1087 L 1292,965 C 1292,929 1282,901 1262,881 L 442,47 C 390,-6 338,-33 285,-33 Z"
   id="path8" />
  </g>
  <g
   id="bullet-char-template-9679"
   transform="scale(0.00048828125,-0.00048828125)">
   <path
   d="M 813,0 C 632,0 489,54 383,161 276,268 223,411 223,592 223,773 276,916 383,1023 489,1130 632,1184 813,1184 992,1184 1136,1130 1245,1023 1353,916 1407,772 1407,592 1407,412 1353,268 1245,161 1136,54 992,0 813,0 Z"
   id="path9" />
  </g>
  <g
   id="bullet-char-template-8226"
   transform="scale(0.00048828125,-0.00048828125)">
   <path
   d="M 346,457 C 273,457 209,483 155,535 101,586 74,649 74,723 74,796 101,859 155,911 209,963 273,989 346,989 419,989 480,963 531,910 582,859 608,796 608,723 608,648 583,586 532,535 482,483 420,457 346,457 Z"
   id="path10" />
  </g>
  <g
   id="bullet-char-template-8211"
   transform="scale(0.00048828125,-0.00048828125)">
   <path
   d="M -4,459 L 1135,459 1135,606 -4,606 -4,459 Z"
   id="path11" />
  </g>
  <g
   id="bullet-char-template-61548"
   transform="scale(0.00048828125,-0.00048828125)">
   <path
   d="M 173,740 C 173,903 231,1043 346,1159 462,1274 601,1332 765,1332 928,1332 1067,1274 1183,1159 1299,1043 1357,903 1357,740 1357,577 1299,437 1183,322 1067,206 928,148 765,148 601,148 462,206 346,322 231,437 173,577 173,740 Z"
   id="path12" />
  </g>
 </defs>
 
 <path
   id="path13"
   d="M 6843.975 3015.9916 C 6830.902 3015.9181 6817.2456 3016.2751 6802.9956 3017.0251 C 6576.9956 3030.0251 6372.9972 3108.0105 6352.9972 3257.0105 C 6351.5021 3266.696 6350.2187 3276.7988 6349.1215 3287.2412 C 6347.3375 3295.5769 6346.1603 3304.0857 6346.0209 3312.976 C 6345.8975 3320.243 6345.7332 3331.9552 6345.6075 3339.331 C 6345.0652 3353.6823 6344.7158 3368.2962 6344.884 3383.3077 C 6344.8842 3383.3252 6344.8838 3383.3419 6344.884 3383.3593 C 6334.7352 3975.2908 6318.1231 4873.3318 6321.9913 5470.002 C 6325.387 5993.7885 6303.8875 6708.5935 6310.6742 7077.6558 C 5898.1179 7119.8819 5489.2213 7170.8865 5168.0049 7209.3273 C 5167.9282 7207.8714 5168.1257 7206.4473 5168.0049 7204.9865 C 5167.0374 7193.3318 5165.3619 7175.3016 5164.2842 7162.8702 C 5164.2444 7148.3039 5163.0608 7134.8537 5160.7702 7122.4076 C 5136.4153 6847.742 5092.9806 6400.8293 5082.0153 5561.986 C 5070.1578 4655.8735 5183.8276 3861.2419 5191.3627 3352.3535 C 5202.1276 3206.1515 5115.5938 3154.8032 4940.9904 3163.9929 C 4714.9904 3176.9929 4510.992 3254.9782 4490.992 3403.9782 C 4489.4993 3413.6484 4488.2124 3423.7843 4487.1163 3434.209 C 4485.3318 3442.5459 4484.1552 3451.1037 4484.0157 3459.9955 C 4483.8923 3467.2628 4483.728 3478.9742 4483.6023 3486.3505 C 4483.06 3500.7017 4482.7106 3515.3673 4482.8788 3530.3788 C 4472.73 4122.3103 4456.1179 5020.3523 4459.9861 5617.0214 C 4463.6426 6181.035 4438.5601 6965.0304 4450.9428 7301.208 C 4024.8495 7362.9258 3547.3852 7442.2373 3394.9865 7474.9959 C 3180.9865 7520.9959 3200.9877 7392.0197 3206.9877 7169.0197 C 3212.9877 6946.0197 3196.9877 6646.979 3206.9877 5718.979 C 3216.8842 4800.5793 3309.7691 4015.4305 3316.5417 3506.866 C 3326.1494 3362.56 3239.6294 3311.8483 3066.0144 3320.9859 C 2840.0144 3333.9859 2636.016 3412.0229 2616.016 3561.0229 C 2614.5328 3570.6313 2613.232 3580.6415 2612.1403 3590.9953 C 2610.3216 3599.4108 2609.1289 3608.0069 2608.988 3616.9885 C 2608.8622 3624.3983 2608.7029 3636.3373 2608.5746 3643.8602 C 2608.1093 3656.3751 2607.8817 3669.1262 2607.9545 3682.1525 C 2597.8134 4273.9691 2581.1322 5175.8375 2585.0102 5774.0144 C 2589.0102 6391.0144 2585.9782 7288.012 2600.9782 7719.012 C 2615.9782 8150.012 2791.0123 8266.0051 3143.0123 8212.0051 C 3495.0123 8158.0051 4510.9869 8004.0127 4869.9869 7961.0127 C 5229.9869 7920.0127 6402.9859 7799.0071 6495.9859 7799.0071 C 6588.9859 7799.0071 6683.0013 7804.989 6666.0013 7967.989 C 6665.6954 7970.9228 6666.1105 7973.6247 6666.2597 7976.4123 C 6662.0873 8121.4416 6692.642 8302.6211 6776.0205 8394.9914 C 6873.0205 8500.9914 6945.0148 8474.9745 7081.0148 8375.9745 C 7214.0148 8278.9745 7301.0198 8101.0158 7337.0198 7995.0158 C 7361.3397 7924.6712 7373.849 7866.6052 7375.157 7819.2643 C 7456.9387 7110.2472 7483.2891 7019.2961 7026.1344 7025.2559 C 7026.1542 7024.5771 7026.1709 7023.9148 7026.1861 7023.2405 C 7026.1872 7023.1887 7026.1849 7023.1373 7026.1861 7023.0855 C 7040.3145 6754.7884 6955.2705 6275.6433 6944.0205 5415.0183 C 6932.1634 4508.9347 7045.8263 3714.3278 7053.3679 3205.4374 C 7063.2987 3071.0922 6991.1213 3016.8187 6843.975 3015.9916 z " />
   
  
</svg>
