<?xml version="1.0" encoding="UTF-8" standalone="no"?>
<svg
   version="1.2"
   width="100mm"
   height="100mm"
   viewBox="0 0 10000 10000"
   preserveAspectRatio="xMidYMid"
   fill-rule="evenodd"
   stroke-width="28.222"
   stroke-linejoin="round"
   xml:space="preserve"
   id="svg23"
   sodipodi:docname="gobo-caps-0431.svg"
   inkscape:version="1.4 (86a8ad7, 2024-10-11)"
   xmlns:inkscape="http://www.inkscape.org/namespaces/inkscape"
   xmlns:sodipodi="http://sodipodi.sourceforge.net/DTD/sodipodi-0.dtd"
   xmlns="http://www.w3.org/2000/svg"
   xmlns:svg="http://www.w3.org/2000/svg"
   xmlns:ooo="http://xml.openoffice.org/svg/export"><sodipodi:namedview
   id="namedview23"
   pagecolor="#ffffff"
   bordercolor="#000000"
   borderopacity="0.25"
   inkscape:showpageshadow="2"
   inkscape:pageopacity="0.0"
   inkscape:pagecheckerboard="0"
   inkscape:deskcolor="#d1d1d1"
   inkscape:document-units="mm"
   showgrid="false"
   inkscape:zoom="3.0876875"
   inkscape:cx="188.81444"
   inkscape:cy="188.97638"
   inkscape:window-width="2560"
   inkscape:window-height="1369"
   inkscape:window-x="-8"
   inkscape:window-y="-8"
   inkscape:window-maximized="1"
   inkscape:current-layer="svg23" />
 <defs
   class="ClipPathGroup"
   id="defs2">
  
  <clipPath
   id="presentation_clip_path_shrink"
   clipPathUnits="userSpaceOnUse">
   <rect
   x="10"
   y="10"
   width="9980"
   height="9980"
   id="rect2" />
  </clipPath>
 
  
 
   
  
    
   
     
    
      
      
      
      
      
      
      
      
     
       
      
       
      
       
      
       
      
       
      
       
      
       
      
       
      
        
        
       
        
        
       
        
        
       
        
        
       
        
        
       
        
        
       
        
        
       
        
        
       </defs>
 <defs
   class="TextShapeIndex"
   id="defs3">
  <g
   ooo:slide="id1"
   ooo:id-list="id3 id4 id5 id6 id7 id8 id9 id10"
   id="g2" />
 </defs>
 <defs
   class="EmbeddedBulletChars"
   id="defs12">
  <g
   id="bullet-char-template-57356"
   transform="scale(0.00048828125,-0.00048828125)">
   <path
   d="M 580,1141 L 1163,571 580,0 -4,571 580,1141 Z"
   id="path3" />
  </g>
  <g
   id="bullet-char-template-57354"
   transform="scale(0.00048828125,-0.00048828125)">
   <path
   d="M 8,1128 L 1137,1128 1137,0 8,0 8,1128 Z"
   id="path4" />
  </g>
  <g
   id="bullet-char-template-10146"
   transform="scale(0.00048828125,-0.00048828125)">
   <path
   d="M 174,0 L 602,739 174,1481 1456,739 174,0 Z M 1358,739 L 309,1346 659,739 1358,739 Z"
   id="path5" />
  </g>
  <g
   id="bullet-char-template-10132"
   transform="scale(0.00048828125,-0.00048828125)">
   <path
   d="M 2015,739 L 1276,0 717,0 1260,543 174,543 174,936 1260,936 717,1481 1274,1481 2015,739 Z"
   id="path6" />
  </g>
  <g
   id="bullet-char-template-10007"
   transform="scale(0.00048828125,-0.00048828125)">
   <path
   d="M 0,-2 C -7,14 -16,27 -25,37 L 356,567 C 262,823 215,952 215,954 215,979 228,992 255,992 264,992 276,990 289,987 310,991 331,999 354,1012 L 381,999 492,748 772,1049 836,1024 860,1049 C 881,1039 901,1025 922,1006 886,937 835,863 770,784 769,783 710,716 594,584 L 774,223 C 774,196 753,168 711,139 L 727,119 C 717,90 699,76 672,76 641,76 570,178 457,381 L 164,-76 C 142,-110 111,-127 72,-127 30,-127 9,-110 8,-76 1,-67 -2,-52 -2,-32 -2,-23 -1,-13 0,-2 Z"
   id="path7" />
  </g>
  <g
   id="bullet-char-template-10004"
   transform="scale(0.00048828125,-0.00048828125)">
   <path
   d="M 285,-33 C 182,-33 111,30 74,156 52,228 41,333 41,471 41,549 55,616 82,672 116,743 169,778 240,778 293,778 328,747 346,684 L 369,508 C 377,444 397,411 428,410 L 1163,1116 C 1174,1127 1196,1133 1229,1133 1271,1133 1292,1118 1292,1087 L 1292,965 C 1292,929 1282,901 1262,881 L 442,47 C 390,-6 338,-33 285,-33 Z"
   id="path8" />
  </g>
  <g
   id="bullet-char-template-9679"
   transform="scale(0.00048828125,-0.00048828125)">
   <path
   d="M 813,0 C 632,0 489,54 383,161 276,268 223,411 223,592 223,773 276,916 383,1023 489,1130 632,1184 813,1184 992,1184 1136,1130 1245,1023 1353,916 1407,772 1407,592 1407,412 1353,268 1245,161 1136,54 992,0 813,0 Z"
   id="path9" />
  </g>
  <g
   id="bullet-char-template-8226"
   transform="scale(0.00048828125,-0.00048828125)">
   <path
   d="M 346,457 C 273,457 209,483 155,535 101,586 74,649 74,723 74,796 101,859 155,911 209,963 273,989 346,989 419,989 480,963 531,910 582,859 608,796 608,723 608,648 583,586 532,535 482,483 420,457 346,457 Z"
   id="path10" />
  </g>
  <g
   id="bullet-char-template-8211"
   transform="scale(0.00048828125,-0.00048828125)">
   <path
   d="M -4,459 L 1135,459 1135,606 -4,606 -4,459 Z"
   id="path11" />
  </g>
  <g
   id="bullet-char-template-61548"
   transform="scale(0.00048828125,-0.00048828125)">
   <path
   d="M 173,740 C 173,903 231,1043 346,1159 462,1274 601,1332 765,1332 928,1332 1067,1274 1183,1159 1299,1043 1357,903 1357,740 1357,577 1299,437 1183,322 1067,206 928,148 765,148 601,148 462,206 346,322 231,437 173,577 173,740 Z"
   id="path12" />
  </g>
 </defs>
 
 <path
   id="path13"
   d="M 6651.997 3040.9513 C 6638.924 3040.8781 6625.2676 3041.2348 6611.0176 3041.9848 C 6592.5438 3043.0475 6574.3202 3044.7129 6556.2406 3046.6357 C 6257.7652 3058.3462 5515.137 3101.1883 4871.0205 3166.9901 C 4251.5487 3232.2447 3888.5402 3273.7132 3530.6372 3336.0237 C 3490.1111 3340.7512 3451.0242 3347.7458 3414.2102 3357.0044 C 3410.459 3357.7071 3406.7527 3358.3114 3402.9964 3359.0197 C 3398.1808 3359.9545 3393.4901 3361.6373 3388.8887 3363.774 C 3258.9732 3401.3679 3163.0744 3469.168 3149.0067 3568.9811 C 3126.0067 3718.9811 3149.9979 3964.9939 3251.9979 4077.9939 C 3281.3692 4110.4248 3308.5756 4130.4421 3336.0754 4139.8506 C 3349.4493 4536.4507 3342.8441 4859.6975 3342.0182 5455.9977 C 3347.7859 6146.1968 3260.5699 7142.2587 3229.7253 7612.8686 C 3228.4455 7625.8519 3227.5246 7639.3896 3226.8831 7653.2796 C 3226.4349 7660.3971 3225.4388 7673.1697 3225.0228 7679.9963 C 3224.8633 7682.8895 3225.4467 7685.4676 3226.0046 7688.0578 C 3225.0889 7828.8964 3256.4532 7997.8663 3336.0237 8086.018 C 3372.1573 8125.5042 3404.8056 8146.6235 3438.6015 8152.5256 C 3448.8986 8157.9662 3460.0239 8160.6549 3471.9844 8160.0187 C 5778.9844 8110.0187 6803.9999 7582.0205 6816.9999 6141.0205 C 6829.7481 4728.9042 5783.6562 4603.6028 3972.2123 4903.835 C 3974.2515 4570.2264 3985.8251 4278.759 4005.1819 4027.5577 C 4315.1655 3975.4217 4680.3596 3920.9196 4979.0242 3889.0132 C 5551.0242 3828.0132 6274.9877 3849.0228 6381.9877 3860.0228 C 6383.8346 3860.1954 6385.9718 3859.5182 6387.9821 3859.1959 C 6438.5649 3858.4441 6493.6203 3826.2232 6566.9893 3772.0178 C 6700.9893 3673.0178 6787.9762 3497.0075 6823.9762 3391.0075 C 6911.1637 3137.8825 6848.092 3042.0499 6651.997 3040.9513 z M 5089.8185 5527.2078 C 5776.1118 5522.4904 6185.8764 5765.3824 6199.0014 6398.0074 C 6218.3138 7286.3785 5070.1949 7351.0374 3945.909 7342.6009 C 3970.1923 6889.0879 4004.0904 6428.8472 3983.0127 5692.0039 C 3982.8474 5686.8614 3982.8126 5682.1458 3982.6509 5677.0178 C 4401.6218 5584.5846 4775.3871 5529.3691 5089.8185 5527.2078 z " />
   
  
</svg>
