<?xml version="1.0" encoding="UTF-8" standalone="no"?>
<svg
   version="1.2"
   width="100mm"
   height="100mm"
   viewBox="0 0 10000 10000"
   preserveAspectRatio="xMidYMid"
   fill-rule="evenodd"
   stroke-width="28.222"
   stroke-linejoin="round"
   xml:space="preserve"
   id="svg24"
   sodipodi:docname="gobo-caps-043B.svg"
   inkscape:version="1.4 (86a8ad7, 2024-10-11)"
   xmlns:inkscape="http://www.inkscape.org/namespaces/inkscape"
   xmlns:sodipodi="http://sodipodi.sourceforge.net/DTD/sodipodi-0.dtd"
   xmlns="http://www.w3.org/2000/svg"
   xmlns:svg="http://www.w3.org/2000/svg"
   xmlns:ooo="http://xml.openoffice.org/svg/export"><sodipodi:namedview
   id="namedview24"
   pagecolor="#ffffff"
   bordercolor="#000000"
   borderopacity="0.25"
   inkscape:showpageshadow="2"
   inkscape:pageopacity="0.0"
   inkscape:pagecheckerboard="0"
   inkscape:deskcolor="#d1d1d1"
   inkscape:document-units="mm"
   inkscape:zoom="3.0876875"
   inkscape:cx="188.81444"
   inkscape:cy="188.97638"
   inkscape:window-width="2560"
   inkscape:window-height="1369"
   inkscape:window-x="-8"
   inkscape:window-y="-8"
   inkscape:window-maximized="1"
   inkscape:current-layer="svg24" />
 <defs
   class="ClipPathGroup"
   id="defs2">
  
  <clipPath
   id="presentation_clip_path_shrink"
   clipPathUnits="userSpaceOnUse">
   <rect
   x="10"
   y="10"
   width="9980"
   height="9980"
   id="rect2" />
  </clipPath>
 
  
 
   
  
    
   
     
    
      
      
      
      
      
      
      
      
      
     
       
      
       
      
       
      
       
      
       
      
       
      
       
      
       
      
       
      
        
        
       
        
        
       
        
        
       
        
        
       
        
        
       
        
        
       
        
        
       
        
        
       
        
        
       </defs>
 <defs
   class="TextShapeIndex"
   id="defs3">
  <g
   ooo:slide="id1"
   ooo:id-list="id3 id4 id5 id6 id7 id8 id9 id10 id11"
   id="g2" />
 </defs>
 <defs
   class="EmbeddedBulletChars"
   id="defs12">
  <g
   id="bullet-char-template-57356"
   transform="scale(0.00048828125,-0.00048828125)">
   <path
   d="M 580,1141 L 1163,571 580,0 -4,571 580,1141 Z"
   id="path3" />
  </g>
  <g
   id="bullet-char-template-57354"
   transform="scale(0.00048828125,-0.00048828125)">
   <path
   d="M 8,1128 L 1137,1128 1137,0 8,0 8,1128 Z"
   id="path4" />
  </g>
  <g
   id="bullet-char-template-10146"
   transform="scale(0.00048828125,-0.00048828125)">
   <path
   d="M 174,0 L 602,739 174,1481 1456,739 174,0 Z M 1358,739 L 309,1346 659,739 1358,739 Z"
   id="path5" />
  </g>
  <g
   id="bullet-char-template-10132"
   transform="scale(0.00048828125,-0.00048828125)">
   <path
   d="M 2015,739 L 1276,0 717,0 1260,543 174,543 174,936 1260,936 717,1481 1274,1481 2015,739 Z"
   id="path6" />
  </g>
  <g
   id="bullet-char-template-10007"
   transform="scale(0.00048828125,-0.00048828125)">
   <path
   d="M 0,-2 C -7,14 -16,27 -25,37 L 356,567 C 262,823 215,952 215,954 215,979 228,992 255,992 264,992 276,990 289,987 310,991 331,999 354,1012 L 381,999 492,748 772,1049 836,1024 860,1049 C 881,1039 901,1025 922,1006 886,937 835,863 770,784 769,783 710,716 594,584 L 774,223 C 774,196 753,168 711,139 L 727,119 C 717,90 699,76 672,76 641,76 570,178 457,381 L 164,-76 C 142,-110 111,-127 72,-127 30,-127 9,-110 8,-76 1,-67 -2,-52 -2,-32 -2,-23 -1,-13 0,-2 Z"
   id="path7" />
  </g>
  <g
   id="bullet-char-template-10004"
   transform="scale(0.00048828125,-0.00048828125)">
   <path
   d="M 285,-33 C 182,-33 111,30 74,156 52,228 41,333 41,471 41,549 55,616 82,672 116,743 169,778 240,778 293,778 328,747 346,684 L 369,508 C 377,444 397,411 428,410 L 1163,1116 C 1174,1127 1196,1133 1229,1133 1271,1133 1292,1118 1292,1087 L 1292,965 C 1292,929 1282,901 1262,881 L 442,47 C 390,-6 338,-33 285,-33 Z"
   id="path8" />
  </g>
  <g
   id="bullet-char-template-9679"
   transform="scale(0.00048828125,-0.00048828125)">
   <path
   d="M 813,0 C 632,0 489,54 383,161 276,268 223,411 223,592 223,773 276,916 383,1023 489,1130 632,1184 813,1184 992,1184 1136,1130 1245,1023 1353,916 1407,772 1407,592 1407,412 1353,268 1245,161 1136,54 992,0 813,0 Z"
   id="path9" />
  </g>
  <g
   id="bullet-char-template-8226"
   transform="scale(0.00048828125,-0.00048828125)">
   <path
   d="M 346,457 C 273,457 209,483 155,535 101,586 74,649 74,723 74,796 101,859 155,911 209,963 273,989 346,989 419,989 480,963 531,910 582,859 608,796 608,723 608,648 583,586 532,535 482,483 420,457 346,457 Z"
   id="path10" />
  </g>
  <g
   id="bullet-char-template-8211"
   transform="scale(0.00048828125,-0.00048828125)">
   <path
   d="M -4,459 L 1135,459 1135,606 -4,606 -4,459 Z"
   id="path11" />
  </g>
  <g
   id="bullet-char-template-61548"
   transform="scale(0.00048828125,-0.00048828125)">
   <path
   d="M 173,740 C 173,903 231,1043 346,1159 462,1274 601,1332 765,1332 928,1332 1067,1274 1183,1159 1299,1043 1357,903 1357,740 1357,577 1299,437 1183,322 1067,206 928,148 765,148 601,148 462,206 346,322 231,437 173,577 173,740 Z"
   id="path12" />
  </g>
 </defs>
 
 <path
   id="path13"
   d="M 6876.9962 3020.9525 C 6863.9232 3020.8793 6850.2668 3021.2361 6836.0168 3021.9861 C 6817.6322 3023.0436 6799.4928 3024.6759 6781.4982 3026.5853 C 6483.1808 3038.2824 5740.2977 3081.173 5096.0197 3146.9913 C 4476.5479 3212.2459 4113.5394 3253.7144 3755.6364 3316.025 C 3715.1103 3320.7524 3676.0234 3327.747 3639.2094 3337.0056 C 3635.4582 3337.7083 3631.7518 3338.3126 3627.9956 3339.021 C 3623.18 3339.9558 3618.4893 3341.6385 3613.8879 3343.7752 C 3483.9724 3381.3691 3388.0735 3449.1692 3374.0059 3548.9823 C 3351.0059 3698.9823 3374.997 3944.9952 3476.997 4057.9952 C 3513.9784 4098.8287 3547.5578 4119.9898 3582.572 4125.0195 C 3592.3566 4127.9008 3602.9946 4127.9518 3614.353 4125.3812 C 3614.5411 4125.3588 3614.7331 4125.3012 3614.9214 4125.2779 C 3615.6303 4125.1116 3616.2735 4125.2082 3616.9885 4125.0195 C 3617.0892 4124.9933 3617.3009 4124.9424 3617.4019 4124.9161 C 3624.6755 4123.8845 3632.1214 4122.0077 3639.6745 4119.8002 C 3657.4396 4115.4748 3677.5507 4110.8299 3702.0479 4105.5375 C 3778.0419 4557.8965 3797.2183 5227.39 3801.0083 5811.9966 C 3804.9587 6421.3517 3604.2645 7078.207 3001.1088 7577.0052 C 2997.2773 7580.123 2993.5866 7583.3187 2989.9983 7586.5653 C 2986.2019 7589.6661 2982.8193 7592.9338 2978.9913 7596.0221 C 2972.9301 7601.6425 2967.935 7607.8833 2963.4883 7614.4706 C 2942.6127 7640.5501 2928.8749 7670.0271 2924.0075 7702.9923 C 2902.0075 7851.9923 2924.9805 8098.0051 3027.9805 8212.0051 C 3123.9805 8318.0051 3197.0111 8291.9882 3331.0111 8192.9882 C 3360.9676 8171.0798 3388.4278 8145.1011 3413.6417 8116.9722 C 3414.7256 8115.8926 3415.9448 8115.1206 3417.0007 8113.975 C 3997.0007 7486.975 4434.9858 6675.0129 4422.9858 5757.0129 C 4412.7069 4970.6799 4393.0819 4436.6868 4397.6644 3980.2221 C 4666.5675 3937.1471 4957.7132 3895.3278 5204.0234 3869.0145 C 5526.1191 3834.6651 5893.1172 3826.654 6174.3001 3827.88 C 6246.7928 4278.9762 6265.304 4935.3582 6269.023 5509.0177 C 6272.9853 6120.2018 6098.659 7204.1108 6143.966 7473.3422 C 6152.714 7596.6767 6185.6918 7727.5043 6253.0033 7802.0043 C 6349.0033 7908.0043 6421.9822 7881.9874 6555.9822 7782.9874 C 6689.9822 7684.9874 6777.0208 7507.9771 6813.0208 7401.9771 C 6828.2601 7357.7339 6838.8082 7318.459 6844.9568 7283.5347 C 6845.0433 7283.113 6845.0787 7282.6652 6845.1635 7282.2428 C 6846.4221 7274.9843 6847.4991 7267.9274 6848.3675 7261.0554 C 6848.8623 7257.3463 6849.6502 7253.7569 6850.0211 7249.9967 C 6886.0211 6883.9967 6903.0005 6371.9823 6891.0005 5453.9823 C 6881.6343 4672.3316 6861.6081 4140.19 6865.6791 3685.5114 C 6958.2419 3586.2449 7020.0757 3456.1021 7048.9754 3371.0087 C 7136.1629 3117.8837 7073.0912 3022.0512 6876.9962 3020.9525 z " />
   
  
</svg>
