<?xml version="1.0" encoding="UTF-8" standalone="no"?>
<svg
   version="1.2"
   width="100mm"
   height="100mm"
   viewBox="0 0 10000 10000"
   preserveAspectRatio="xMidYMid"
   fill-rule="evenodd"
   stroke-width="28.222"
   stroke-linejoin="round"
   xml:space="preserve"
   id="svg24"
   sodipodi:docname="gobo-caps-0416.svg"
   inkscape:version="1.4 (86a8ad7, 2024-10-11)"
   xmlns:inkscape="http://www.inkscape.org/namespaces/inkscape"
   xmlns:sodipodi="http://sodipodi.sourceforge.net/DTD/sodipodi-0.dtd"
   xmlns="http://www.w3.org/2000/svg"
   xmlns:svg="http://www.w3.org/2000/svg"
   xmlns:ooo="http://xml.openoffice.org/svg/export"><sodipodi:namedview
   id="namedview24"
   pagecolor="#ffffff"
   bordercolor="#000000"
   borderopacity="0.25"
   inkscape:showpageshadow="2"
   inkscape:pageopacity="0.0"
   inkscape:pagecheckerboard="0"
   inkscape:deskcolor="#d1d1d1"
   inkscape:document-units="mm"
   showgrid="false"
   inkscape:zoom="3.0876875"
   inkscape:cx="188.81444"
   inkscape:cy="188.97638"
   inkscape:window-width="2560"
   inkscape:window-height="1369"
   inkscape:window-x="-8"
   inkscape:window-y="-8"
   inkscape:window-maximized="1"
   inkscape:current-layer="svg24" />
 <defs
   class="ClipPathGroup"
   id="defs2">
  
  <clipPath
   id="presentation_clip_path_shrink"
   clipPathUnits="userSpaceOnUse">
   <rect
   x="10"
   y="10"
   width="9980"
   height="9980"
   id="rect2" />
  </clipPath>
 
  
 
   
  
    
   
     
    
      
      
      
      
      
      
      
      
      
     
       
      
       
      
       
      
       
      
       
      
       
      
       
      
       
      
       
      
        
        
       
        
        
       
        
        
       
        
        
       
        
        
       
        
        
       
        
        
       
        
        
       
        
        
       </defs>
 <defs
   class="TextShapeIndex"
   id="defs3">
  <g
   ooo:slide="id1"
   ooo:id-list="id3 id4 id5 id6 id7 id8 id9 id10 id11"
   id="g2" />
 </defs>
 <defs
   class="EmbeddedBulletChars"
   id="defs12">
  <g
   id="bullet-char-template-57356"
   transform="scale(0.00048828125,-0.00048828125)">
   <path
   d="M 580,1141 L 1163,571 580,0 -4,571 580,1141 Z"
   id="path3" />
  </g>
  <g
   id="bullet-char-template-57354"
   transform="scale(0.00048828125,-0.00048828125)">
   <path
   d="M 8,1128 L 1137,1128 1137,0 8,0 8,1128 Z"
   id="path4" />
  </g>
  <g
   id="bullet-char-template-10146"
   transform="scale(0.00048828125,-0.00048828125)">
   <path
   d="M 174,0 L 602,739 174,1481 1456,739 174,0 Z M 1358,739 L 309,1346 659,739 1358,739 Z"
   id="path5" />
  </g>
  <g
   id="bullet-char-template-10132"
   transform="scale(0.00048828125,-0.00048828125)">
   <path
   d="M 2015,739 L 1276,0 717,0 1260,543 174,543 174,936 1260,936 717,1481 1274,1481 2015,739 Z"
   id="path6" />
  </g>
  <g
   id="bullet-char-template-10007"
   transform="scale(0.00048828125,-0.00048828125)">
   <path
   d="M 0,-2 C -7,14 -16,27 -25,37 L 356,567 C 262,823 215,952 215,954 215,979 228,992 255,992 264,992 276,990 289,987 310,991 331,999 354,1012 L 381,999 492,748 772,1049 836,1024 860,1049 C 881,1039 901,1025 922,1006 886,937 835,863 770,784 769,783 710,716 594,584 L 774,223 C 774,196 753,168 711,139 L 727,119 C 717,90 699,76 672,76 641,76 570,178 457,381 L 164,-76 C 142,-110 111,-127 72,-127 30,-127 9,-110 8,-76 1,-67 -2,-52 -2,-32 -2,-23 -1,-13 0,-2 Z"
   id="path7" />
  </g>
  <g
   id="bullet-char-template-10004"
   transform="scale(0.00048828125,-0.00048828125)">
   <path
   d="M 285,-33 C 182,-33 111,30 74,156 52,228 41,333 41,471 41,549 55,616 82,672 116,743 169,778 240,778 293,778 328,747 346,684 L 369,508 C 377,444 397,411 428,410 L 1163,1116 C 1174,1127 1196,1133 1229,1133 1271,1133 1292,1118 1292,1087 L 1292,965 C 1292,929 1282,901 1262,881 L 442,47 C 390,-6 338,-33 285,-33 Z"
   id="path8" />
  </g>
  <g
   id="bullet-char-template-9679"
   transform="scale(0.00048828125,-0.00048828125)">
   <path
   d="M 813,0 C 632,0 489,54 383,161 276,268 223,411 223,592 223,773 276,916 383,1023 489,1130 632,1184 813,1184 992,1184 1136,1130 1245,1023 1353,916 1407,772 1407,592 1407,412 1353,268 1245,161 1136,54 992,0 813,0 Z"
   id="path9" />
  </g>
  <g
   id="bullet-char-template-8226"
   transform="scale(0.00048828125,-0.00048828125)">
   <path
   d="M 346,457 C 273,457 209,483 155,535 101,586 74,649 74,723 74,796 101,859 155,911 209,963 273,989 346,989 419,989 480,963 531,910 582,859 608,796 608,723 608,648 583,586 532,535 482,483 420,457 346,457 Z"
   id="path10" />
  </g>
  <g
   id="bullet-char-template-8211"
   transform="scale(0.00048828125,-0.00048828125)">
   <path
   d="M -4,459 L 1135,459 1135,606 -4,606 -4,459 Z"
   id="path11" />
  </g>
  <g
   id="bullet-char-template-61548"
   transform="scale(0.00048828125,-0.00048828125)">
   <path
   d="M 173,740 C 173,903 231,1043 346,1159 462,1274 601,1332 765,1332 928,1332 1067,1274 1183,1159 1299,1043 1357,903 1357,740 1357,577 1299,437 1183,322 1067,206 928,148 765,148 601,148 462,206 346,322 231,437 173,577 173,740 Z"
   id="path12" />
  </g>
 </defs>
 
 <path
   id="path13"
   d="M 8951.96 1846.9674 C 8938.8941 1846.8941 8925.2306 1847.2509 8910.9806 1848.0009 C 8744.6115 1857.5708 8590.2847 1901.8501 8511.9868 1984.375 C 8506.3318 1988.8609 8500.9597 1993.9191 8496.0188 1999.9813 C 8178.0188 2428.9813 7235.996 3336.9878 6540.996 4009.9878 C 5856.2477 4670.1755 5595.1249 4886.2452 5309.2883 5260.5574 C 5305.4792 4322.3182 5373.5017 2719.0149 5413.6747 2378.8212 C 5441.4387 2205.5102 5356.2592 2145.1024 5168.0049 2155.0106 C 4941.0049 2167.0106 4738.0247 2245.0141 4717.0247 2394.0141 C 4715.339 2405.5072 4713.9809 2417.7219 4712.8389 2430.2392 C 4712.6393 2431.1569 4712.0948 2432.0589 4712.0121 2432.9781 C 4711.7257 2437.0479 4711.4686 2446.4035 4711.1853 2450.8581 C 4710.5046 2461.4386 4710.0286 2472.2485 4709.7383 2483.3109 C 4709.7057 2484.5551 4709.6109 2485.7305 4709.5833 2486.98 C 4687.219 2907.5993 4675.1171 4505.9622 4678.009 5200.9745 C 4678.052 5211.2729 4678.4657 5233.9494 4678.5258 5244.8478 C 4647.9979 5219.9573 4617.1324 5195.0617 4582.976 5170.0203 C 3890.8613 4664.5879 1972.617 2988.6206 1516.8583 2528.4245 C 1478.993 2478.3065 1404.4615 2460.2388 1295.0114 2465.9993 C 1069.0114 2478.9993 864.97949 2555.9847 843.97949 2705.9847 C 821.97949 2854.9847 845.02229 3101.0157 947.02229 3214.0157 C 957.8373 3225.8341 968.28117 3235.7313 978.59659 3244.3497 C 979.47979 3245.8388 980.0546 3247.587 981.02538 3249.0006 C 1499.0254 3616.0006 2285.9839 4365.0135 3098.9839 5028.0135 C 3910.9839 5690.0135 4435.9832 6026.9947 4126.9832 6224.9947 C 3817.9832 6422.9947 1219.9761 8443.9878 940.97615 8622.9878 C 939.61988 8624.0591 938.97524 8626.1153 937.72053 8627.3286 C 887.19453 8663.4583 853.85097 8709.2538 845.99487 8764.9946 C 823.99487 8914.9946 846.986 9161.0075 948.986 9274.0075 C 1039.05 9372.4279 1107.6424 9356.9369 1225.0415 9274.9893 C 1225.6788 9274.5826 1226.3746 9274.4489 1227.0052 9274.0075 C 1227.2197 9273.8557 1230.0843 9271.4836 1230.3125 9271.3203 C 1237.6898 9266.1119 1245.2196 9260.695 1252.9984 9254.9906 C 1270.3362 9242.2154 1286.8666 9228.0516 1302.6595 9212.926 C 1592.089 8986.5443 3832.836 7133.0112 4696.6642 6518.1034 C 4711.6391 7357.9161 4731.0145 8263.2326 4738.9872 8491.9881 C 4738.9872 8496.8964 4740.3872 8501.0403 4742.3978 8504.8038 C 4751.8532 8625.9275 4784.6721 8753.0242 4849.9882 8826.0245 C 4945.9882 8932.0245 5019.0006 8906.0076 5154.0006 8807.0076 C 5288.0006 8708.0076 5374.0057 8531.9973 5410.0057 8425.9973 C 5439.8442 8339.0484 5452.0084 8270.8284 5447.3677 8218.5681 C 5440.84 7965.4614 5395.943 7276.4902 5358.9493 6595.9798 C 6221.2101 7160.692 8500.9678 8353.785 8628.0004 8442.9988 C 8634.2906 8447.4019 8641.9775 8449.3728 8650.3246 8450.1301 C 8712.4948 8470.9279 8775.714 8437.422 8869.0193 8368.9981 C 9002.0193 8270.9981 9090.0062 8094.0213 9126.0062 7989.0213 C 9187.5192 7808.494 9173.3713 7708.0547 9089.1609 7664.8551 C 9086.6728 7663.2968 9084.6244 7661.454 9081.9779 7659.9975 C 8802.9779 7506.9975 6100.0006 6096.0074 5789.0006 5931.0074 C 5480.0006 5766.0074 5901.9798 5422.0069 6595.9798 4755.0069 C 7261.6792 4116.2044 8443.8049 3033.4822 8908.8102 2542.6872 C 8928.0731 2525.1674 8946.1723 2506.1866 8963.1221 2486.1531 C 8965.0107 2484.1023 8968.1392 2481.0456 8969.995 2479.0218 C 8970.5054 2478.2786 8970.5923 2477.2973 8971.0803 2476.5413 C 9046.8563 2383.64 9098.3836 2272.4226 9123.9908 2197.0235 C 9210.2408 1943.8985 9147.9487 1848.066 8951.96 1846.9674 z " />
   
  
</svg>
