<?xml version="1.0" encoding="UTF-8" standalone="no"?>
<svg
   version="1.2"
   width="100mm"
   height="100mm"
   viewBox="0 0 10000 10000"
   preserveAspectRatio="xMidYMid"
   fill-rule="evenodd"
   stroke-width="28.222"
   stroke-linejoin="round"
   xml:space="preserve"
   id="svg23"
   sodipodi:docname="gobo-caps-044B.svg"
   inkscape:version="1.4 (86a8ad7, 2024-10-11)"
   xmlns:inkscape="http://www.inkscape.org/namespaces/inkscape"
   xmlns:sodipodi="http://sodipodi.sourceforge.net/DTD/sodipodi-0.dtd"
   xmlns="http://www.w3.org/2000/svg"
   xmlns:svg="http://www.w3.org/2000/svg"
   xmlns:ooo="http://xml.openoffice.org/svg/export"><sodipodi:namedview
   id="namedview23"
   pagecolor="#ffffff"
   bordercolor="#000000"
   borderopacity="0.25"
   inkscape:showpageshadow="2"
   inkscape:pageopacity="0.0"
   inkscape:pagecheckerboard="0"
   inkscape:deskcolor="#d1d1d1"
   inkscape:document-units="mm"
   showgrid="false"
   inkscape:zoom="3.0876875"
   inkscape:cx="188.81444"
   inkscape:cy="188.97638"
   inkscape:window-width="2560"
   inkscape:window-height="1369"
   inkscape:window-x="-8"
   inkscape:window-y="-8"
   inkscape:window-maximized="1"
   inkscape:current-layer="svg23" />
 <defs
   class="ClipPathGroup"
   id="defs2">
  
  <clipPath
   id="presentation_clip_path_shrink"
   clipPathUnits="userSpaceOnUse">
   <rect
   x="10"
   y="10"
   width="9980"
   height="9980"
   id="rect2" />
  </clipPath>
 
  
 
   
  
    
   
     
    
      
      
      
      
      
      
      
      
     
       
      
       
      
       
      
       
      
       
      
       
      
       
      
       
      
        
        
       
        
        
       
        
        
       
        
        
       
        
        
       
        
        
       
        
        
       
        
        
       </defs>
 <defs
   class="TextShapeIndex"
   id="defs3">
  <g
   ooo:slide="id1"
   ooo:id-list="id3 id4 id5 id6 id7 id8 id9 id10"
   id="g2" />
 </defs>
 <defs
   class="EmbeddedBulletChars"
   id="defs12">
  <g
   id="bullet-char-template-57356"
   transform="scale(0.00048828125,-0.00048828125)">
   <path
   d="M 580,1141 L 1163,571 580,0 -4,571 580,1141 Z"
   id="path3" />
  </g>
  <g
   id="bullet-char-template-57354"
   transform="scale(0.00048828125,-0.00048828125)">
   <path
   d="M 8,1128 L 1137,1128 1137,0 8,0 8,1128 Z"
   id="path4" />
  </g>
  <g
   id="bullet-char-template-10146"
   transform="scale(0.00048828125,-0.00048828125)">
   <path
   d="M 174,0 L 602,739 174,1481 1456,739 174,0 Z M 1358,739 L 309,1346 659,739 1358,739 Z"
   id="path5" />
  </g>
  <g
   id="bullet-char-template-10132"
   transform="scale(0.00048828125,-0.00048828125)">
   <path
   d="M 2015,739 L 1276,0 717,0 1260,543 174,543 174,936 1260,936 717,1481 1274,1481 2015,739 Z"
   id="path6" />
  </g>
  <g
   id="bullet-char-template-10007"
   transform="scale(0.00048828125,-0.00048828125)">
   <path
   d="M 0,-2 C -7,14 -16,27 -25,37 L 356,567 C 262,823 215,952 215,954 215,979 228,992 255,992 264,992 276,990 289,987 310,991 331,999 354,1012 L 381,999 492,748 772,1049 836,1024 860,1049 C 881,1039 901,1025 922,1006 886,937 835,863 770,784 769,783 710,716 594,584 L 774,223 C 774,196 753,168 711,139 L 727,119 C 717,90 699,76 672,76 641,76 570,178 457,381 L 164,-76 C 142,-110 111,-127 72,-127 30,-127 9,-110 8,-76 1,-67 -2,-52 -2,-32 -2,-23 -1,-13 0,-2 Z"
   id="path7" />
  </g>
  <g
   id="bullet-char-template-10004"
   transform="scale(0.00048828125,-0.00048828125)">
   <path
   d="M 285,-33 C 182,-33 111,30 74,156 52,228 41,333 41,471 41,549 55,616 82,672 116,743 169,778 240,778 293,778 328,747 346,684 L 369,508 C 377,444 397,411 428,410 L 1163,1116 C 1174,1127 1196,1133 1229,1133 1271,1133 1292,1118 1292,1087 L 1292,965 C 1292,929 1282,901 1262,881 L 442,47 C 390,-6 338,-33 285,-33 Z"
   id="path8" />
  </g>
  <g
   id="bullet-char-template-9679"
   transform="scale(0.00048828125,-0.00048828125)">
   <path
   d="M 813,0 C 632,0 489,54 383,161 276,268 223,411 223,592 223,773 276,916 383,1023 489,1130 632,1184 813,1184 992,1184 1136,1130 1245,1023 1353,916 1407,772 1407,592 1407,412 1353,268 1245,161 1136,54 992,0 813,0 Z"
   id="path9" />
  </g>
  <g
   id="bullet-char-template-8226"
   transform="scale(0.00048828125,-0.00048828125)">
   <path
   d="M 346,457 C 273,457 209,483 155,535 101,586 74,649 74,723 74,796 101,859 155,911 209,963 273,989 346,989 419,989 480,963 531,910 582,859 608,796 608,723 608,648 583,586 532,535 482,483 420,457 346,457 Z"
   id="path10" />
  </g>
  <g
   id="bullet-char-template-8211"
   transform="scale(0.00048828125,-0.00048828125)">
   <path
   d="M -4,459 L 1135,459 1135,606 -4,606 -4,459 Z"
   id="path11" />
  </g>
  <g
   id="bullet-char-template-61548"
   transform="scale(0.00048828125,-0.00048828125)">
   <path
   d="M 173,740 C 173,903 231,1043 346,1159 462,1274 601,1332 765,1332 928,1332 1067,1274 1183,1159 1299,1043 1357,903 1357,740 1357,577 1299,437 1183,322 1067,206 928,148 765,148 601,148 462,206 346,322 231,437 173,577 173,740 Z"
   id="path12" />
  </g>
 </defs>
 
 <path
   id="path13"
   d="M 6965.983 2999.9719 C 6952.9171 2999.8987 6939.2536 3000.2554 6925.0036 3001.0054 C 6698.0036 3013.0054 6495.0234 3091.0089 6474.0234 3240.0089 C 6466.5693 3288.6223 6464.1411 3347.3344 6467.6155 3408.3191 C 6466.8025 3415.6305 6466.5397 3422.8833 6466.9954 3430.0232 C 6483.9954 3665.0232 6674.997 4317.9835 6651.997 5433.9835 C 6628.997 6552.9835 6577.9767 6976.006 6561.9767 7352.006 C 6561.6896 7356.6704 6562.5798 7360.8823 6564.0954 7364.8217 C 6563.9481 7505.4725 6596.0284 7672.511 6674.993 7759.9914 C 6770.993 7866.9914 6844.0055 7839.9745 6979.0055 7740.9745 C 7112.0055 7643.9745 7198.9924 7466.9977 7235.9924 7360.9977 C 7260.2761 7289.7303 7272.702 7231.0568 7273.7678 7183.3341 C 7273.788 7182.8878 7273.9683 7182.4366 7273.9746 7181.9905 C 7286.9746 6837.9905 7259.0235 6277.0078 7277.0235 5333.0078 C 7293.0235 4390.0078 7207.9779 3424.9787 7176.9779 3141.9787 C 7175.5766 3129.4551 7172.5309 3118.5771 7168.7097 3108.3891 C 7147.4411 3032.7999 7078.9764 3000.6053 6965.983 2999.9719 z M 3321.9677 3299.9536 C 3308.8948 3299.8803 3295.2383 3300.2371 3280.9883 3300.9871 C 3054.9883 3313.9871 2851.99 3391.0241 2830.99 3541.0241 C 2825.8158 3574.5434 2823.1226 3613.0634 2822.9801 3653.7821 C 2822.6846 3655.1841 2822.026 3656.6624 2821.9983 3658.0196 C 2849.9983 4195.0196 2839.018 4768.9826 2838.018 5490.9826 C 2843.7856 6181.1818 2756.5696 7177.2436 2725.7251 7647.8535 C 2724.4453 7660.8368 2723.5244 7674.3745 2722.8829 7688.2645 C 2722.4347 7695.3821 2721.4386 7708.1546 2721.0225 7714.9812 C 2720.8631 7717.8744 2721.4474 7720.4525 2722.0044 7723.0427 C 2721.0887 7863.8814 2752.453 8032.8513 2832.0235 8121.0029 C 2868.1571 8160.4891 2900.8053 8181.6084 2934.6012 8187.5105 C 2944.8983 8192.9512 2956.0237 8195.6398 2967.9842 8195.0036 C 5274.9842 8145.0036 6299.9996 7617.0054 6312.9996 6176.0054 C 6325.7372 4765.0695 5281.3558 4638.8285 3472.7079 4938.0965 C 3479.0872 4371.3798 3505.5772 3838.9411 3529.1902 3510.225 C 3548.5184 3360.7398 3476.6642 3300.8203 3321.9677 3299.9536 z M 4585.8182 5562.1927 C 5272.1115 5557.4753 5681.8762 5800.3673 5695.0012 6432.9923 C 5714.3133 7321.3498 4566.2298 7386.02 3441.9604 7377.5858 C 3466.2416 6923.6315 3500.0789 6463.4378 3479.0124 5726.9889 C 3478.8531 5722.0395 3478.8566 5716.908 3478.7024 5711.951 C 3897.6489 5619.5259 4271.4019 5564.354 4585.8182 5562.1927 z " />
   
  
</svg>
