<?xml version="1.0" encoding="UTF-8" standalone="no"?>
<svg
   version="1.2"
   width="100mm"
   height="100mm"
   viewBox="0 0 10000 10000"
   preserveAspectRatio="xMidYMid"
   fill-rule="evenodd"
   stroke-width="28.222"
   stroke-linejoin="round"
   xml:space="preserve"
   id="svg21"
   sodipodi:docname="gobo-caps-0446.svg"
   inkscape:version="1.4 (86a8ad7, 2024-10-11)"
   xmlns:inkscape="http://www.inkscape.org/namespaces/inkscape"
   xmlns:sodipodi="http://sodipodi.sourceforge.net/DTD/sodipodi-0.dtd"
   xmlns="http://www.w3.org/2000/svg"
   xmlns:svg="http://www.w3.org/2000/svg"
   xmlns:ooo="http://xml.openoffice.org/svg/export"><sodipodi:namedview
   id="namedview21"
   pagecolor="#ffffff"
   bordercolor="#000000"
   borderopacity="0.25"
   inkscape:showpageshadow="2"
   inkscape:pageopacity="0.0"
   inkscape:pagecheckerboard="0"
   inkscape:deskcolor="#d1d1d1"
   inkscape:document-units="mm"
   showgrid="false"
   inkscape:zoom="3.0876875"
   inkscape:cx="188.81444"
   inkscape:cy="188.97638"
   inkscape:window-width="2560"
   inkscape:window-height="1369"
   inkscape:window-x="-8"
   inkscape:window-y="-8"
   inkscape:window-maximized="1"
   inkscape:current-layer="svg21" />
 <defs
   class="ClipPathGroup"
   id="defs2">
  
  <clipPath
   id="presentation_clip_path_shrink"
   clipPathUnits="userSpaceOnUse">
   <rect
   x="10"
   y="10"
   width="9980"
   height="9980"
   id="rect2" />
  </clipPath>
 
  
 
   
  
    
   
     
    
      
      
      
      
      
      
     
       
      
       
      
       
      
       
      
       
      
       
      
        
        
       
        
        
       
        
        
       
        
        
       
        
        
       
        
        
       </defs>
 <defs
   class="TextShapeIndex"
   id="defs3">
  <g
   ooo:slide="id1"
   ooo:id-list="id3 id4 id5 id6 id7 id8"
   id="g2" />
 </defs>
 <defs
   class="EmbeddedBulletChars"
   id="defs12">
  <g
   id="bullet-char-template-57356"
   transform="scale(0.00048828125,-0.00048828125)">
   <path
   d="M 580,1141 L 1163,571 580,0 -4,571 580,1141 Z"
   id="path3" />
  </g>
  <g
   id="bullet-char-template-57354"
   transform="scale(0.00048828125,-0.00048828125)">
   <path
   d="M 8,1128 L 1137,1128 1137,0 8,0 8,1128 Z"
   id="path4" />
  </g>
  <g
   id="bullet-char-template-10146"
   transform="scale(0.00048828125,-0.00048828125)">
   <path
   d="M 174,0 L 602,739 174,1481 1456,739 174,0 Z M 1358,739 L 309,1346 659,739 1358,739 Z"
   id="path5" />
  </g>
  <g
   id="bullet-char-template-10132"
   transform="scale(0.00048828125,-0.00048828125)">
   <path
   d="M 2015,739 L 1276,0 717,0 1260,543 174,543 174,936 1260,936 717,1481 1274,1481 2015,739 Z"
   id="path6" />
  </g>
  <g
   id="bullet-char-template-10007"
   transform="scale(0.00048828125,-0.00048828125)">
   <path
   d="M 0,-2 C -7,14 -16,27 -25,37 L 356,567 C 262,823 215,952 215,954 215,979 228,992 255,992 264,992 276,990 289,987 310,991 331,999 354,1012 L 381,999 492,748 772,1049 836,1024 860,1049 C 881,1039 901,1025 922,1006 886,937 835,863 770,784 769,783 710,716 594,584 L 774,223 C 774,196 753,168 711,139 L 727,119 C 717,90 699,76 672,76 641,76 570,178 457,381 L 164,-76 C 142,-110 111,-127 72,-127 30,-127 9,-110 8,-76 1,-67 -2,-52 -2,-32 -2,-23 -1,-13 0,-2 Z"
   id="path7" />
  </g>
  <g
   id="bullet-char-template-10004"
   transform="scale(0.00048828125,-0.00048828125)">
   <path
   d="M 285,-33 C 182,-33 111,30 74,156 52,228 41,333 41,471 41,549 55,616 82,672 116,743 169,778 240,778 293,778 328,747 346,684 L 369,508 C 377,444 397,411 428,410 L 1163,1116 C 1174,1127 1196,1133 1229,1133 1271,1133 1292,1118 1292,1087 L 1292,965 C 1292,929 1282,901 1262,881 L 442,47 C 390,-6 338,-33 285,-33 Z"
   id="path8" />
  </g>
  <g
   id="bullet-char-template-9679"
   transform="scale(0.00048828125,-0.00048828125)">
   <path
   d="M 813,0 C 632,0 489,54 383,161 276,268 223,411 223,592 223,773 276,916 383,1023 489,1130 632,1184 813,1184 992,1184 1136,1130 1245,1023 1353,916 1407,772 1407,592 1407,412 1353,268 1245,161 1136,54 992,0 813,0 Z"
   id="path9" />
  </g>
  <g
   id="bullet-char-template-8226"
   transform="scale(0.00048828125,-0.00048828125)">
   <path
   d="M 346,457 C 273,457 209,483 155,535 101,586 74,649 74,723 74,796 101,859 155,911 209,963 273,989 346,989 419,989 480,963 531,910 582,859 608,796 608,723 608,648 583,586 532,535 482,483 420,457 346,457 Z"
   id="path10" />
  </g>
  <g
   id="bullet-char-template-8211"
   transform="scale(0.00048828125,-0.00048828125)">
   <path
   d="M -4,459 L 1135,459 1135,606 -4,606 -4,459 Z"
   id="path11" />
  </g>
  <g
   id="bullet-char-template-61548"
   transform="scale(0.00048828125,-0.00048828125)">
   <path
   d="M 173,740 C 173,903 231,1043 346,1159 462,1274 601,1332 765,1332 928,1332 1067,1274 1183,1159 1299,1043 1357,903 1357,740 1357,577 1299,437 1183,322 1067,206 928,148 765,148 601,148 462,206 346,322 231,437 173,577 173,740 Z"
   id="path12" />
  </g>
 </defs>
 
 <path
   id="path13"
   d="M 6356.9763 3059.9682 C 6343.9033 3059.8948 6330.2469 3060.2518 6315.9969 3061.0018 C 6089.9969 3074.0018 5885.9985 3151.9871 5865.9985 3300.9871 C 5864.5082 3310.6418 5863.2178 3320.7592 5862.1228 3331.1662 C 5860.3322 3339.5171 5859.1619 3348.0967 5859.0222 3357.0044 C 5858.8988 3364.2717 5858.7345 3375.9831 5858.6088 3383.3593 C 5858.0659 3397.7273 5857.7161 3412.3064 5857.8853 3427.336 C 5847.7365 4019.2664 5831.1243 4917.2945 5834.9926 5513.9786 C 5838.4073 6040.6966 5816.5787 6761.1198 5823.7272 7128.2987 C 5514.5237 7168.4524 5202.013 7219.3164 4937.0113 7249.0148 C 4485.0113 7300.0148 4117.0175 7371.0149 3903.0175 7417.0149 C 3689.0175 7463.0149 3709.0187 7333.9871 3715.0187 7110.9871 C 3721.0187 6887.9871 3705.0187 6588.9981 3715.0187 5660.9981 C 3724.9105 4743.038 3817.6174 3958.1952 3824.4694 3449.6085 C 3834.4143 3304.7493 3747.8979 3253.8521 3573.9937 3263.0049 C 3347.9937 3276.0049 3143.9953 3353.9903 3123.9953 3502.9903 C 3122.505 3512.645 3121.2147 3522.7624 3120.1196 3533.1693 C 3118.329 3541.5203 3117.1587 3550.0998 3117.019 3559.0075 C 3116.8956 3566.2749 3116.7314 3577.9863 3116.6056 3585.3625 C 3116.0627 3599.7305 3115.7129 3614.3096 3115.8821 3629.3392 C 3105.7334 4221.2696 3089.1212 5119.2977 3092.9895 5715.9818 C 3096.9895 6332.9818 3094.0092 7229.9794 3109.0092 7660.9794 C 3124.0092 8091.9794 3298.9916 8208.0242 3650.9916 8154.0242 C 4002.9916 8100.0242 4530.0039 8013.9863 4889.0039 7970.9863 C 5249.0039 7929.9863 5889.0121 7844.0173 5982.0121 7844.0173 C 6069.0106 7844.0173 6155.637 7850.9797 6152.6993 7985.0939 C 6142.8519 8134.3366 6171.5195 8335.8441 6261.0131 8434.9889 C 6358.0131 8540.9889 6430.0074 8515.0237 6566.0074 8416.0237 C 6699.0074 8319.0237 6786.0125 8141.0134 6822.0125 8035.0134 C 6843.091 7974.0442 6855.2585 7922.2983 6859.0128 7878.7438 C 6859.2574 7877.1383 6859.8114 7875.6113 6859.9947 7873.9896 C 6941.063 7169.467 6971.3296 7067.9134 6540.1692 7069.7493 C 6539.9224 7066.8794 6539.5433 7062.7926 6539.2907 7059.8791 C 6539.2534 7045.3942 6538.0391 7032.0635 6535.7767 7019.6748 C 6511.4264 6745.0353 6467.9903 6298.0839 6457.0218 5458.9949 C 6445.1651 4552.9403 6558.821 3758.3582 6566.3692 3249.4657 C 6576.3 3115.1205 6504.1226 3060.7954 6356.9763 3059.9682 z " />
   
  
</svg>
