<?xml version="1.0" encoding="UTF-8" standalone="no"?>
<svg
   version="1.2"
   width="100mm"
   height="100mm"
   viewBox="0 0 10000 10000"
   preserveAspectRatio="xMidYMid"
   fill-rule="evenodd"
   stroke-width="28.222"
   stroke-linejoin="round"
   xml:space="preserve"
   id="svg24"
   sodipodi:docname="gobo-caps-0411.svg"
   inkscape:version="1.4 (86a8ad7, 2024-10-11)"
   xmlns:inkscape="http://www.inkscape.org/namespaces/inkscape"
   xmlns:sodipodi="http://sodipodi.sourceforge.net/DTD/sodipodi-0.dtd"
   xmlns="http://www.w3.org/2000/svg"
   xmlns:svg="http://www.w3.org/2000/svg"
   xmlns:ooo="http://xml.openoffice.org/svg/export"><sodipodi:namedview
   id="namedview24"
   pagecolor="#ffffff"
   bordercolor="#000000"
   borderopacity="0.25"
   inkscape:showpageshadow="2"
   inkscape:pageopacity="0.0"
   inkscape:pagecheckerboard="0"
   inkscape:deskcolor="#d1d1d1"
   inkscape:document-units="mm"
   showgrid="false"
   inkscape:zoom="3.0876875"
   inkscape:cx="188.81444"
   inkscape:cy="188.97638"
   inkscape:window-width="2560"
   inkscape:window-height="1369"
   inkscape:window-x="-8"
   inkscape:window-y="-8"
   inkscape:window-maximized="1"
   inkscape:current-layer="svg24" />
 <defs
   class="ClipPathGroup"
   id="defs2">
  
  <clipPath
   id="presentation_clip_path_shrink"
   clipPathUnits="userSpaceOnUse">
   <rect
   x="10"
   y="10"
   width="9980"
   height="9980"
   id="rect2" />
  </clipPath>
 
  
 
   
  
    
   
     
    
      
      
      
      
      
      
      
      
      
     
       
      
       
      
       
      
       
      
       
      
       
      
       
      
       
      
       
      
        
        
       
        
        
       
        
        
       
        
        
       
        
        
       
        
        
       
        
        
       
        
        
       
        
        
       </defs>
 <defs
   class="TextShapeIndex"
   id="defs3">
  <g
   ooo:slide="id1"
   ooo:id-list="id3 id4 id5 id6 id7 id8 id9 id10 id11"
   id="g2" />
 </defs>
 <defs
   class="EmbeddedBulletChars"
   id="defs12">
  <g
   id="bullet-char-template-57356"
   transform="scale(0.00048828125,-0.00048828125)">
   <path
   d="M 580,1141 L 1163,571 580,0 -4,571 580,1141 Z"
   id="path3" />
  </g>
  <g
   id="bullet-char-template-57354"
   transform="scale(0.00048828125,-0.00048828125)">
   <path
   d="M 8,1128 L 1137,1128 1137,0 8,0 8,1128 Z"
   id="path4" />
  </g>
  <g
   id="bullet-char-template-10146"
   transform="scale(0.00048828125,-0.00048828125)">
   <path
   d="M 174,0 L 602,739 174,1481 1456,739 174,0 Z M 1358,739 L 309,1346 659,739 1358,739 Z"
   id="path5" />
  </g>
  <g
   id="bullet-char-template-10132"
   transform="scale(0.00048828125,-0.00048828125)">
   <path
   d="M 2015,739 L 1276,0 717,0 1260,543 174,543 174,936 1260,936 717,1481 1274,1481 2015,739 Z"
   id="path6" />
  </g>
  <g
   id="bullet-char-template-10007"
   transform="scale(0.00048828125,-0.00048828125)">
   <path
   d="M 0,-2 C -7,14 -16,27 -25,37 L 356,567 C 262,823 215,952 215,954 215,979 228,992 255,992 264,992 276,990 289,987 310,991 331,999 354,1012 L 381,999 492,748 772,1049 836,1024 860,1049 C 881,1039 901,1025 922,1006 886,937 835,863 770,784 769,783 710,716 594,584 L 774,223 C 774,196 753,168 711,139 L 727,119 C 717,90 699,76 672,76 641,76 570,178 457,381 L 164,-76 C 142,-110 111,-127 72,-127 30,-127 9,-110 8,-76 1,-67 -2,-52 -2,-32 -2,-23 -1,-13 0,-2 Z"
   id="path7" />
  </g>
  <g
   id="bullet-char-template-10004"
   transform="scale(0.00048828125,-0.00048828125)">
   <path
   d="M 285,-33 C 182,-33 111,30 74,156 52,228 41,333 41,471 41,549 55,616 82,672 116,743 169,778 240,778 293,778 328,747 346,684 L 369,508 C 377,444 397,411 428,410 L 1163,1116 C 1174,1127 1196,1133 1229,1133 1271,1133 1292,1118 1292,1087 L 1292,965 C 1292,929 1282,901 1262,881 L 442,47 C 390,-6 338,-33 285,-33 Z"
   id="path8" />
  </g>
  <g
   id="bullet-char-template-9679"
   transform="scale(0.00048828125,-0.00048828125)">
   <path
   d="M 813,0 C 632,0 489,54 383,161 276,268 223,411 223,592 223,773 276,916 383,1023 489,1130 632,1184 813,1184 992,1184 1136,1130 1245,1023 1353,916 1407,772 1407,592 1407,412 1353,268 1245,161 1136,54 992,0 813,0 Z"
   id="path9" />
  </g>
  <g
   id="bullet-char-template-8226"
   transform="scale(0.00048828125,-0.00048828125)">
   <path
   d="M 346,457 C 273,457 209,483 155,535 101,586 74,649 74,723 74,796 101,859 155,911 209,963 273,989 346,989 419,989 480,963 531,910 582,859 608,796 608,723 608,648 583,586 532,535 482,483 420,457 346,457 Z"
   id="path10" />
  </g>
  <g
   id="bullet-char-template-8211"
   transform="scale(0.00048828125,-0.00048828125)">
   <path
   d="M -4,459 L 1135,459 1135,606 -4,606 -4,459 Z"
   id="path11" />
  </g>
  <g
   id="bullet-char-template-61548"
   transform="scale(0.00048828125,-0.00048828125)">
   <path
   d="M 173,740 C 173,903 231,1043 346,1159 462,1274 601,1332 765,1332 928,1332 1067,1274 1183,1159 1299,1043 1357,903 1357,740 1357,577 1299,437 1183,322 1067,206 928,148 765,148 601,148 462,206 346,322 231,437 173,577 173,740 Z"
   id="path12" />
  </g>
 </defs>
 
 <path
   id="path13"
   d="M 7218.9908 2053.8281 C 7205.9178 2053.8027 7192.2614 2054.2042 7178.0114 2055.0167 C 7172.6152 2055.3271 7167.3079 2055.8217 7161.94 2056.2052 C 6868.7033 2060.6476 5541.9534 2101.4079 4747.9789 2201.9844 C 3991.2196 2296.1179 3470.6468 2392.0752 2964.7286 2489.6155 C 2765.3289 2512.4114 2596.9961 2588.0778 2577.9822 2722.9862 C 2554.9822 2872.9862 2577.9914 3118.9991 2679.9914 3231.9991 C 2733.8801 3290.8877 2780.0634 3308.9669 2833.7805 3296.4913 C 2836.8535 3297.5562 2839.9113 3297.9354 2842.9789 3297.008 C 2934.4183 3274.4834 3058.344 3242.8264 3202.9569 3207.4528 C 3186.0143 3734.9635 3175.704 4807.0591 3174.0181 5413.9847 C 3179.6106 6083.2212 3222.9584 7696.5265 3237.2184 8226.0095 C 3232.5142 8225.956 3227.7076 8226.0672 3223.0074 8226.0095 C 3212.1349 8227.1972 3201.5776 8229.1069 3191.2781 8231.6422 C 2979.4983 8250.2552 2794.9409 8326.698 2775.0244 8468.0102 C 2753.0244 8618.0102 2776.0155 8864.023 2878.0155 8977.023 C 2929.0367 9032.7781 2973.129 9051.9196 3023.1229 9043.2206 C 5795.0821 8933.6934 7395.9354 8126.5752 7366.9921 6375.0113 C 7340.3682 4645.4448 6404.3527 4255.317 3808.7597 4623.4904 C 3822.4782 3972.5181 3856.1507 3321.341 3895.4728 3053.5087 C 4156.3485 3002.4072 4438.0025 2956.0146 4720.0219 2927.0048 C 5486.0219 2848.0048 6735.0052 2861.9848 6942.0052 2873.9848 C 6945.8431 2874.1624 6950.1092 2873.0362 6954.6142 2871.1942 C 7005.3067 2870.4314 7060.5657 2838.212 7135.0166 2784.0161 C 7268.0166 2686.0161 7355.0217 2509.0058 7391.0217 2403.0058 C 7478.2092 2150.8183 7415.0858 2054.209 7218.9908 2053.8281 z M 5146.8176 5218.8545 C 5964.6887 5215.6514 6610.3727 5494.8661 6725.9977 6452.9911 C 6884.3865 7774.3323 5441.2778 8149.3193 3945.8056 8214.9507 C 3945.8195 8212.4971 3945.8545 8210.0578 3945.8056 8207.6643 C 3946.316 8205.4247 3947.0138 8203.1502 3946.9942 8200.9981 C 3942.9942 7784.9981 3832 6584.9877 3810 5746.9877 C 3806.2844 5639.4922 3804.0274 5519.8436 3802.9203 5392.9524 C 4264.0133 5296.4223 4727.9615 5220.4949 5146.8176 5218.8545 z " />
   
  
</svg>
