<?xml version="1.0" encoding="UTF-8" standalone="no"?>
<svg
   version="1.2"
   width="100mm"
   height="100mm"
   viewBox="0 0 10000 10000"
   preserveAspectRatio="xMidYMid"
   fill-rule="evenodd"
   stroke-width="28.222"
   stroke-linejoin="round"
   xml:space="preserve"
   id="svg22"
   sodipodi:docname="gobo-caps-044E.svg"
   inkscape:version="1.4 (86a8ad7, 2024-10-11)"
   xmlns:inkscape="http://www.inkscape.org/namespaces/inkscape"
   xmlns:sodipodi="http://sodipodi.sourceforge.net/DTD/sodipodi-0.dtd"
   xmlns="http://www.w3.org/2000/svg"
   xmlns:svg="http://www.w3.org/2000/svg"
   xmlns:ooo="http://xml.openoffice.org/svg/export"><sodipodi:namedview
   id="namedview22"
   pagecolor="#ffffff"
   bordercolor="#000000"
   borderopacity="0.25"
   inkscape:showpageshadow="2"
   inkscape:pageopacity="0.0"
   inkscape:pagecheckerboard="0"
   inkscape:deskcolor="#d1d1d1"
   inkscape:document-units="mm"
   showgrid="false"
   inkscape:zoom="3.0876875"
   inkscape:cx="188.81444"
   inkscape:cy="188.97638"
   inkscape:window-width="2560"
   inkscape:window-height="1369"
   inkscape:window-x="-8"
   inkscape:window-y="-8"
   inkscape:window-maximized="1"
   inkscape:current-layer="svg22" />
 <defs
   class="ClipPathGroup"
   id="defs2">
  
  <clipPath
   id="presentation_clip_path_shrink"
   clipPathUnits="userSpaceOnUse">
   <rect
   x="10"
   y="10"
   width="9980"
   height="9980"
   id="rect2" />
  </clipPath>
 
  
 
   
  
    
   
     
    
      
      
      
      
      
      
      
     
       
      
       
      
       
      
       
      
       
      
       
      
       
      
        
        
       
        
        
       
        
        
       
        
        
       
        
        
       
        
        
       
        
        
       </defs>
 <defs
   class="TextShapeIndex"
   id="defs3">
  <g
   ooo:slide="id1"
   ooo:id-list="id3 id4 id5 id6 id7 id8 id9"
   id="g2" />
 </defs>
 <defs
   class="EmbeddedBulletChars"
   id="defs12">
  <g
   id="bullet-char-template-57356"
   transform="scale(0.00048828125,-0.00048828125)">
   <path
   d="M 580,1141 L 1163,571 580,0 -4,571 580,1141 Z"
   id="path3" />
  </g>
  <g
   id="bullet-char-template-57354"
   transform="scale(0.00048828125,-0.00048828125)">
   <path
   d="M 8,1128 L 1137,1128 1137,0 8,0 8,1128 Z"
   id="path4" />
  </g>
  <g
   id="bullet-char-template-10146"
   transform="scale(0.00048828125,-0.00048828125)">
   <path
   d="M 174,0 L 602,739 174,1481 1456,739 174,0 Z M 1358,739 L 309,1346 659,739 1358,739 Z"
   id="path5" />
  </g>
  <g
   id="bullet-char-template-10132"
   transform="scale(0.00048828125,-0.00048828125)">
   <path
   d="M 2015,739 L 1276,0 717,0 1260,543 174,543 174,936 1260,936 717,1481 1274,1481 2015,739 Z"
   id="path6" />
  </g>
  <g
   id="bullet-char-template-10007"
   transform="scale(0.00048828125,-0.00048828125)">
   <path
   d="M 0,-2 C -7,14 -16,27 -25,37 L 356,567 C 262,823 215,952 215,954 215,979 228,992 255,992 264,992 276,990 289,987 310,991 331,999 354,1012 L 381,999 492,748 772,1049 836,1024 860,1049 C 881,1039 901,1025 922,1006 886,937 835,863 770,784 769,783 710,716 594,584 L 774,223 C 774,196 753,168 711,139 L 727,119 C 717,90 699,76 672,76 641,76 570,178 457,381 L 164,-76 C 142,-110 111,-127 72,-127 30,-127 9,-110 8,-76 1,-67 -2,-52 -2,-32 -2,-23 -1,-13 0,-2 Z"
   id="path7" />
  </g>
  <g
   id="bullet-char-template-10004"
   transform="scale(0.00048828125,-0.00048828125)">
   <path
   d="M 285,-33 C 182,-33 111,30 74,156 52,228 41,333 41,471 41,549 55,616 82,672 116,743 169,778 240,778 293,778 328,747 346,684 L 369,508 C 377,444 397,411 428,410 L 1163,1116 C 1174,1127 1196,1133 1229,1133 1271,1133 1292,1118 1292,1087 L 1292,965 C 1292,929 1282,901 1262,881 L 442,47 C 390,-6 338,-33 285,-33 Z"
   id="path8" />
  </g>
  <g
   id="bullet-char-template-9679"
   transform="scale(0.00048828125,-0.00048828125)">
   <path
   d="M 813,0 C 632,0 489,54 383,161 276,268 223,411 223,592 223,773 276,916 383,1023 489,1130 632,1184 813,1184 992,1184 1136,1130 1245,1023 1353,916 1407,772 1407,592 1407,412 1353,268 1245,161 1136,54 992,0 813,0 Z"
   id="path9" />
  </g>
  <g
   id="bullet-char-template-8226"
   transform="scale(0.00048828125,-0.00048828125)">
   <path
   d="M 346,457 C 273,457 209,483 155,535 101,586 74,649 74,723 74,796 101,859 155,911 209,963 273,989 346,989 419,989 480,963 531,910 582,859 608,796 608,723 608,648 583,586 532,535 482,483 420,457 346,457 Z"
   id="path10" />
  </g>
  <g
   id="bullet-char-template-8211"
   transform="scale(0.00048828125,-0.00048828125)">
   <path
   d="M -4,459 L 1135,459 1135,606 -4,606 -4,459 Z"
   id="path11" />
  </g>
  <g
   id="bullet-char-template-61548"
   transform="scale(0.00048828125,-0.00048828125)">
   <path
   d="M 173,740 C 173,903 231,1043 346,1159 462,1274 601,1332 765,1332 928,1332 1067,1274 1183,1159 1299,1043 1357,903 1357,740 1357,577 1299,437 1183,322 1067,206 928,148 765,148 601,148 462,206 346,322 231,437 173,577 173,740 Z"
   id="path12" />
  </g>
 </defs>
 
 <path
   id="path13"
   d="M 5995.8097 3051.9067 C 5914.4374 3051.8215 5831.1308 3056.1059 5746.0058 3064.9809 C 4477.8408 3197.9336 3335.5834 4230.0175 3104.0999 5440.8565 C 2914.0057 5459.7871 2730.1539 5488.6811 2559.0686 5521.6267 C 2563.327 4757.3241 2623.1996 3892.2009 2679.0096 3593.9925 C 2679.076 3593.423 2678.8722 3592.9494 2678.9062 3592.3905 C 2704.5498 3422.6673 2618.5814 3364.3585 2432.9781 3374.9878 C 2206.9781 3386.9878 2002.9979 3463.9913 1981.9979 3613.9913 C 1976.171 3651.7394 1973.3056 3695.7246 1973.9363 3742.2005 C 1951.1785 4111.2936 1931.2211 4937.0055 1936.0058 5626.0131 C 1939.8616 6320.0411 1982.6157 7454.5235 1996.5189 7872.646 C 1991.4396 8018.0115 2021.7522 8202.6574 2107.0032 8297.0129 C 2203.0032 8403.0129 2275.9821 8376.9959 2409.9821 8277.9959 C 2543.9821 8179.9959 2631.0207 8002.9856 2667.0207 7896.9856 C 2694.9696 7815.8436 2707.372 7751.0777 2705.0028 7700.3051 C 2709.1174 7411.6227 2621.1628 6954.2945 2579.7908 6310.2608 C 2763.7447 6280.3092 2929.8765 6261.1175 3070.5619 6248.3524 C 3167.7624 7316.7538 3851.0518 8095.0674 5432.0198 7970.0044 C 7266.0198 7826.0044 8122.9885 6574.0016 8061.9885 5265.0016 C 8004.801 4037.8141 7216.3944 3053.1848 5995.8097 3051.9067 z M 5777.1667 3782.5081 C 6614.9694 3762.546 7393.4472 4591.0131 7460.0097 5626.0131 C 7530.0097 6729.0131 6421.0115 7237.9825 5441.0115 7227.9825 C 4461.0115 7216.9825 3568.9848 6763.0092 3676.9848 5649.0092 C 3783.9848 4536.0092 4710.0116 3943.011 5609.0116 3798.011 C 5665.1991 3788.9485 5721.3132 3783.8389 5777.1667 3782.5081 z " />
   
  
</svg>
