<?xml version="1.0" encoding="UTF-8" standalone="no"?>
<svg
   version="1.2"
   width="100mm"
   height="100mm"
   viewBox="0 0 10000 10000"
   preserveAspectRatio="xMidYMid"
   fill-rule="evenodd"
   stroke-width="28.222"
   stroke-linejoin="round"
   xml:space="preserve"
   id="svg21"
   sodipodi:docname="gobo-caps-00D7.svg"
   inkscape:version="1.4 (86a8ad7, 2024-10-11)"
   xmlns:inkscape="http://www.inkscape.org/namespaces/inkscape"
   xmlns:sodipodi="http://sodipodi.sourceforge.net/DTD/sodipodi-0.dtd"
   xmlns="http://www.w3.org/2000/svg"
   xmlns:svg="http://www.w3.org/2000/svg"
   xmlns:ooo="http://xml.openoffice.org/svg/export"><sodipodi:namedview
   id="namedview21"
   pagecolor="#ffffff"
   bordercolor="#000000"
   borderopacity="0.25"
   inkscape:showpageshadow="2"
   inkscape:pageopacity="0.0"
   inkscape:pagecheckerboard="0"
   inkscape:deskcolor="#d1d1d1"
   inkscape:document-units="mm"
   showgrid="false"
   inkscape:zoom="3.0876875"
   inkscape:cx="188.81444"
   inkscape:cy="188.97638"
   inkscape:window-width="2560"
   inkscape:window-height="1369"
   inkscape:window-x="-8"
   inkscape:window-y="-8"
   inkscape:window-maximized="1"
   inkscape:current-layer="svg21" />
 <defs
   class="ClipPathGroup"
   id="defs2">
  
  <clipPath
   id="presentation_clip_path_shrink"
   clipPathUnits="userSpaceOnUse">
   <rect
   x="10"
   y="10"
   width="9980"
   height="9980"
   id="rect2" />
  </clipPath>
 
  
 
   
  
    
   
     
    
      
      
      
      
      
      
     
       
      
       
      
       
      
       
      
       
      
       
      
        
        
       
        
        
       
        
        
       
        
        
       
        
        
       
        
        
       </defs>
 <defs
   class="TextShapeIndex"
   id="defs3">
  <g
   ooo:slide="id1"
   ooo:id-list="id3 id4 id5 id6 id7 id8"
   id="g2" />
 </defs>
 <defs
   class="EmbeddedBulletChars"
   id="defs12">
  <g
   id="bullet-char-template-57356"
   transform="scale(0.00048828125,-0.00048828125)">
   <path
   d="M 580,1141 L 1163,571 580,0 -4,571 580,1141 Z"
   id="path3" />
  </g>
  <g
   id="bullet-char-template-57354"
   transform="scale(0.00048828125,-0.00048828125)">
   <path
   d="M 8,1128 L 1137,1128 1137,0 8,0 8,1128 Z"
   id="path4" />
  </g>
  <g
   id="bullet-char-template-10146"
   transform="scale(0.00048828125,-0.00048828125)">
   <path
   d="M 174,0 L 602,739 174,1481 1456,739 174,0 Z M 1358,739 L 309,1346 659,739 1358,739 Z"
   id="path5" />
  </g>
  <g
   id="bullet-char-template-10132"
   transform="scale(0.00048828125,-0.00048828125)">
   <path
   d="M 2015,739 L 1276,0 717,0 1260,543 174,543 174,936 1260,936 717,1481 1274,1481 2015,739 Z"
   id="path6" />
  </g>
  <g
   id="bullet-char-template-10007"
   transform="scale(0.00048828125,-0.00048828125)">
   <path
   d="M 0,-2 C -7,14 -16,27 -25,37 L 356,567 C 262,823 215,952 215,954 215,979 228,992 255,992 264,992 276,990 289,987 310,991 331,999 354,1012 L 381,999 492,748 772,1049 836,1024 860,1049 C 881,1039 901,1025 922,1006 886,937 835,863 770,784 769,783 710,716 594,584 L 774,223 C 774,196 753,168 711,139 L 727,119 C 717,90 699,76 672,76 641,76 570,178 457,381 L 164,-76 C 142,-110 111,-127 72,-127 30,-127 9,-110 8,-76 1,-67 -2,-52 -2,-32 -2,-23 -1,-13 0,-2 Z"
   id="path7" />
  </g>
  <g
   id="bullet-char-template-10004"
   transform="scale(0.00048828125,-0.00048828125)">
   <path
   d="M 285,-33 C 182,-33 111,30 74,156 52,228 41,333 41,471 41,549 55,616 82,672 116,743 169,778 240,778 293,778 328,747 346,684 L 369,508 C 377,444 397,411 428,410 L 1163,1116 C 1174,1127 1196,1133 1229,1133 1271,1133 1292,1118 1292,1087 L 1292,965 C 1292,929 1282,901 1262,881 L 442,47 C 390,-6 338,-33 285,-33 Z"
   id="path8" />
  </g>
  <g
   id="bullet-char-template-9679"
   transform="scale(0.00048828125,-0.00048828125)">
   <path
   d="M 813,0 C 632,0 489,54 383,161 276,268 223,411 223,592 223,773 276,916 383,1023 489,1130 632,1184 813,1184 992,1184 1136,1130 1245,1023 1353,916 1407,772 1407,592 1407,412 1353,268 1245,161 1136,54 992,0 813,0 Z"
   id="path9" />
  </g>
  <g
   id="bullet-char-template-8226"
   transform="scale(0.00048828125,-0.00048828125)">
   <path
   d="M 346,457 C 273,457 209,483 155,535 101,586 74,649 74,723 74,796 101,859 155,911 209,963 273,989 346,989 419,989 480,963 531,910 582,859 608,796 608,723 608,648 583,586 532,535 482,483 420,457 346,457 Z"
   id="path10" />
  </g>
  <g
   id="bullet-char-template-8211"
   transform="scale(0.00048828125,-0.00048828125)">
   <path
   d="M -4,459 L 1135,459 1135,606 -4,606 -4,459 Z"
   id="path11" />
  </g>
  <g
   id="bullet-char-template-61548"
   transform="scale(0.00048828125,-0.00048828125)">
   <path
   d="M 173,740 C 173,903 231,1043 346,1159 462,1274 601,1332 765,1332 928,1332 1067,1274 1183,1159 1299,1043 1357,903 1357,740 1357,577 1299,437 1183,322 1067,206 928,148 765,148 601,148 462,206 346,322 231,437 173,577 173,740 Z"
   id="path12" />
  </g>
 </defs>
 
 <path
   id="path13"
   d="M 6157.9703 4008.9542 C 6144.8973 4008.881 6131.2409 4009.2378 6116.9909 4009.9878 C 5917.9351 4021.4379 5736.8223 4082.587 5681.4103 4199.4852 C 5593.8637 4350.0012 5278.1934 4762.0821 5001.6585 5124.8551 C 4727.3644 4816.9144 4425.9834 4473.5503 4208.9937 4250.0248 C 4202.8574 4243.8885 4196.4423 4238.8399 4189.7701 4234.7286 C 4147.8866 4201.8806 4080.9 4190.2046 3989.989 4194.9894 C 3764.989 4207.9894 3559.9906 4285.9747 3539.9906 4434.9747 C 3517.0106 4583.845 3539.9678 4829.5473 3641.7415 4943.6775 C 3643.8134 4948.6618 3646.3911 4952.9987 3650.0097 4955.9765 C 3726.3667 5013.5791 4179.0467 5406.9578 4546.0274 5741.1482 C 4322.8951 6059.695 3922.9177 6640.4099 3812.5321 6765.8919 C 3809.7081 6768.9191 3807.0359 6772.0121 3804.4189 6775.142 C 3803.439 6776.1881 3801.9199 6778.0784 3801.0083 6779.0177 C 3800.8199 6779.2293 3800.7273 6779.5744 3800.5432 6779.7928 C 3780.0452 6805.7446 3766.5964 6835.1201 3761.9926 6868.0045 C 3739.9926 7017.0045 3762.9837 7263.0174 3864.9837 7377.0174 C 3960.9837 7483.0174 4033.9961 7457.0004 4168.9961 7358.0004 C 4235.1018 7309.6545 4289.4816 7242.0982 4331.9836 7173.3089 C 4542.0693 6878.1533 4785.2954 6508.5081 5005.2758 6183.0334 C 5261.8576 6464.8248 5733.4368 7049.5028 5859.0222 7223.0216 C 5859.1136 7223.1206 5859.2896 7223.1321 5859.3839 7223.2283 C 5862.8327 7227.6347 5866.328 7231.9135 5869.9776 7235.9924 C 5966.9776 7340.9924 6038.99 7315.9754 6173.99 7216.9754 C 6307.99 7118.9754 6394.9951 6942.0168 6429.9951 6836.0168 C 6485.2138 6675.7043 6480.1434 6578.4996 6419.6081 6528.6971 C 6419.5792 6528.6732 6419.5337 6528.6692 6419.5048 6528.6454 C 6417.5744 6526.1297 6416.126 6523.4294 6413.9754 6520.9973 C 6224.8506 6314.4148 5750.1796 5925.8137 5428.8159 5592.3718 C 5686.135 5259.8952 6011.6365 4863.0601 6173.835 4642.4039 C 6251.385 4548.2657 6304.031 4435.478 6330.0012 4359.0104 C 6417.1887 4105.8854 6354.0653 4010.0529 6157.9703 4008.9542 z " />
   
  
</svg>
