<?xml version="1.0" encoding="UTF-8" standalone="no"?>
<svg
   version="1.2"
   width="100mm"
   height="100mm"
   viewBox="0 0 10000 10000"
   preserveAspectRatio="xMidYMid"
   fill-rule="evenodd"
   stroke-width="28.222"
   stroke-linejoin="round"
   xml:space="preserve"
   id="svg27"
   sodipodi:docname="gobo-caps-00C8.svg"
   inkscape:version="1.4 (86a8ad7, 2024-10-11)"
   xmlns:inkscape="http://www.inkscape.org/namespaces/inkscape"
   xmlns:sodipodi="http://sodipodi.sourceforge.net/DTD/sodipodi-0.dtd"
   xmlns="http://www.w3.org/2000/svg"
   xmlns:svg="http://www.w3.org/2000/svg"
   xmlns:ooo="http://xml.openoffice.org/svg/export"><sodipodi:namedview
   id="namedview27"
   pagecolor="#ffffff"
   bordercolor="#000000"
   borderopacity="0.25"
   inkscape:showpageshadow="2"
   inkscape:pageopacity="0.0"
   inkscape:pagecheckerboard="0"
   inkscape:deskcolor="#d1d1d1"
   inkscape:document-units="mm"
   showgrid="false"
   inkscape:zoom="3.0876875"
   inkscape:cx="188.81444"
   inkscape:cy="188.97638"
   inkscape:window-width="2560"
   inkscape:window-height="1369"
   inkscape:window-x="-8"
   inkscape:window-y="-8"
   inkscape:window-maximized="1"
   inkscape:current-layer="svg27" />
 <defs
   class="ClipPathGroup"
   id="defs2">
  
  <clipPath
   id="presentation_clip_path_shrink"
   clipPathUnits="userSpaceOnUse">
   <rect
   x="10"
   y="10"
   width="9980"
   height="9980"
   id="rect2" />
  </clipPath>
 
  
 
   
  
    
   
     
    
      
      
      
      
      
      
      
      
      
      
      
      
     
       
      
       
      
       
      
       
      
       
      
       
      
       
      
       
      
       
      
       
      
       
      
       
      
        
        
       
        
        
       
        
        
       
        
        
       
        
        
       
        
        
       
        
        
       
        
        
       
        
        
       
        
        
       
        
        
       
        
        
       </defs>
 <defs
   class="TextShapeIndex"
   id="defs3">
  <g
   ooo:slide="id1"
   ooo:id-list="id3 id4 id5 id6 id7 id8 id9 id10 id11 id12 id13 id14"
   id="g2" />
 </defs>
 <defs
   class="EmbeddedBulletChars"
   id="defs12">
  <g
   id="bullet-char-template-57356"
   transform="scale(0.00048828125,-0.00048828125)">
   <path
   d="M 580,1141 L 1163,571 580,0 -4,571 580,1141 Z"
   id="path3" />
  </g>
  <g
   id="bullet-char-template-57354"
   transform="scale(0.00048828125,-0.00048828125)">
   <path
   d="M 8,1128 L 1137,1128 1137,0 8,0 8,1128 Z"
   id="path4" />
  </g>
  <g
   id="bullet-char-template-10146"
   transform="scale(0.00048828125,-0.00048828125)">
   <path
   d="M 174,0 L 602,739 174,1481 1456,739 174,0 Z M 1358,739 L 309,1346 659,739 1358,739 Z"
   id="path5" />
  </g>
  <g
   id="bullet-char-template-10132"
   transform="scale(0.00048828125,-0.00048828125)">
   <path
   d="M 2015,739 L 1276,0 717,0 1260,543 174,543 174,936 1260,936 717,1481 1274,1481 2015,739 Z"
   id="path6" />
  </g>
  <g
   id="bullet-char-template-10007"
   transform="scale(0.00048828125,-0.00048828125)">
   <path
   d="M 0,-2 C -7,14 -16,27 -25,37 L 356,567 C 262,823 215,952 215,954 215,979 228,992 255,992 264,992 276,990 289,987 310,991 331,999 354,1012 L 381,999 492,748 772,1049 836,1024 860,1049 C 881,1039 901,1025 922,1006 886,937 835,863 770,784 769,783 710,716 594,584 L 774,223 C 774,196 753,168 711,139 L 727,119 C 717,90 699,76 672,76 641,76 570,178 457,381 L 164,-76 C 142,-110 111,-127 72,-127 30,-127 9,-110 8,-76 1,-67 -2,-52 -2,-32 -2,-23 -1,-13 0,-2 Z"
   id="path7" />
  </g>
  <g
   id="bullet-char-template-10004"
   transform="scale(0.00048828125,-0.00048828125)">
   <path
   d="M 285,-33 C 182,-33 111,30 74,156 52,228 41,333 41,471 41,549 55,616 82,672 116,743 169,778 240,778 293,778 328,747 346,684 L 369,508 C 377,444 397,411 428,410 L 1163,1116 C 1174,1127 1196,1133 1229,1133 1271,1133 1292,1118 1292,1087 L 1292,965 C 1292,929 1282,901 1262,881 L 442,47 C 390,-6 338,-33 285,-33 Z"
   id="path8" />
  </g>
  <g
   id="bullet-char-template-9679"
   transform="scale(0.00048828125,-0.00048828125)">
   <path
   d="M 813,0 C 632,0 489,54 383,161 276,268 223,411 223,592 223,773 276,916 383,1023 489,1130 632,1184 813,1184 992,1184 1136,1130 1245,1023 1353,916 1407,772 1407,592 1407,412 1353,268 1245,161 1136,54 992,0 813,0 Z"
   id="path9" />
  </g>
  <g
   id="bullet-char-template-8226"
   transform="scale(0.00048828125,-0.00048828125)">
   <path
   d="M 346,457 C 273,457 209,483 155,535 101,586 74,649 74,723 74,796 101,859 155,911 209,963 273,989 346,989 419,989 480,963 531,910 582,859 608,796 608,723 608,648 583,586 532,535 482,483 420,457 346,457 Z"
   id="path10" />
  </g>
  <g
   id="bullet-char-template-8211"
   transform="scale(0.00048828125,-0.00048828125)">
   <path
   d="M -4,459 L 1135,459 1135,606 -4,606 -4,459 Z"
   id="path11" />
  </g>
  <g
   id="bullet-char-template-61548"
   transform="scale(0.00048828125,-0.00048828125)">
   <path
   d="M 173,740 C 173,903 231,1043 346,1159 462,1274 601,1332 765,1332 928,1332 1067,1274 1183,1159 1299,1043 1357,903 1357,740 1357,577 1299,437 1183,322 1067,206 928,148 765,148 601,148 462,206 346,322 231,437 173,577 173,740 Z"
   id="path12" />
  </g>
 </defs>
 
 <path
   id="path13"
   d="M 4297.9805 658.97786 C 4284.9075 658.90462 4271.2511 659.26139 4257.0011 660.01139 C 4031.0011 673.01139 3828.0027 749.99674 3807.0027 899.99674 C 3784.0027 1048.9967 3806.9939 1295.0096 3909.9939 1409.0096 C 3913.4703 1412.8482 3916.8573 1416.1597 3920.2775 1419.6549 C 3920.8594 1420.4198 3921.3601 1421.2511 3921.9828 1421.9804 C 4033.9828 1551.9804 4874.9911 1997.9813 5182.9911 1999.9813 C 5186.5385 1999.9928 5190.0897 1999.4323 5193.6364 1999.2578 C 5261.4984 2007.803 5346.78 1971.595 5421.9946 1921.0197 C 5536.9946 1841.0197 5625.0009 1733.9746 5658.0009 1558.9746 C 5686.6911 1403.8681 5658.2101 1270.6023 5524.469 1254.7554 C 5261.423 1217.4822 4630.7754 850.1848 4478.1246 720.9379 C 4444.8273 678.37925 4384.3316 659.46165 4297.9805 658.97786 z M 7218.009 2023.9591 C 7204.936 2023.8856 7191.2279 2024.2427 7176.9779 2024.9927 C 7165.7412 2025.6419 7154.608 2026.6023 7143.4916 2027.5765 C 6828.3478 2032.0848 5531.154 2073.6343 4746.997 2172.0121 C 3990.1205 2267.0832 3469.4801 2363.0636 2963.4883 2460.625 C 2764.2003 2483.4565 2596.0061 2559.1448 2577.0003 2693.9957 C 2554.0003 2843.9957 2577.0096 3089.0086 2679.0096 3203.0086 C 2732.9471 3261.9507 2779.1741 3280.0434 2832.9537 3267.5008 C 2835.9714 3268.5404 2838.9848 3268.8932 2841.997 3268.0176 C 2913.9962 3250.2817 3013.9128 3224.9562 3119.9646 3198.6161 C 3119.9227 3240.1648 3122.7108 3283.8265 3128.6462 3327.1871 C 3128.4422 3338.949 3128.8324 3350.8764 3129.9898 3362.9988 C 3231.9898 4115.9988 3279.0022 5517.0193 3266.0022 6329.0193 C 3254.0022 7139.0193 3102.9845 7388.9823 3004.9845 7993.9823 C 2907.9845 8598.9823 3136.0044 9132.0003 4160.0044 8927.0003 C 5181.0044 8720.0003 6791.9969 8602.0127 6950.9969 8596.0127 C 6960.1893 8595.608 6970.1434 8592.1305 6980.5558 8586.5042 C 7020.6913 8574.4669 7065.189 8546.4714 7119.9788 8505.9924 C 7253.9788 8407.9924 7341.0174 8230.982 7377.0174 8124.982 C 7470.0174 7854.982 7392.0071 7765.0111 7164.0071 7776.0111 C 7131.592 7777.8757 7099.7701 7781.2213 7068.7674 7785.7779 C 6695.7039 7816.4533 5832.0738 7906.5526 5327.9952 7989.0213 C 4784.9952 8077.0213 4108.0162 8290.9894 3755.0162 8172.9894 C 3493.0162 8086.9894 3618.0067 8003.0009 3784.0067 7096.0009 C 3837.9326 6799.572 3864.0936 6308.2315 3874.0787 5764.6093 C 4124.8578 5689.1756 4460.8487 5604.7863 4764.9804 5560.0223 C 5228.9804 5493.0223 6360.9798 5425.0032 6595.9798 5450.0032 C 6601.3742 5450.5334 6606.8184 5450.1244 6612.2578 5449.7448 C 6666.5478 5455.0174 6724.6252 5421.9296 6805.0109 5362.9801 C 6939.0109 5265.9801 7025.9978 5088.0214 7061.9978 4982.0214 C 7151.1228 4721.4277 7081.6319 4627.8361 6869.9165 4633.1539 C 6868.9007 4633.178 6868.0571 4632.9442 6867.0227 4632.9988 C 6864.1394 4633.1621 6858.9439 4633.5555 6856.0156 4633.7223 C 6853.6565 4633.8254 6851.3799 4633.8548 6848.9876 4633.9807 C 6844.2846 4634.2512 6839.6658 4634.7399 6834.9833 4635.0659 C 6364.0912 4662.1759 5362.5704 4731.4086 4641.0087 4860.9952 C 4205.715 4938.5782 4033.1039 4967.5175 3877.9545 5002.6403 C 3873.8483 4166.8259 3845.6532 3375.1548 3826.7431 3048.2377 C 3827.1529 3044.7869 3827.5703 3041.3075 3827.88 3037.9541 C 4107.2682 2981.5983 4412.4478 2929.5465 4718.9884 2898.0143 C 5484.9884 2819.0143 6734.0233 2832.9943 6941.0233 2844.9943 C 6944.7938 2845.1339 6948.9591 2844.0122 6953.374 2842.2038 C 7003.9902 2841.4946 7059.0342 2809.2681 7133.0012 2755.0256 C 7267.0012 2657.0256 7354.9881 2479.9971 7389.9881 2374.9971 C 7477.1756 2120.9346 7414.1039 2025.0614 7218.009 2023.9591 z " />
   
  
</svg>
