<?xml version="1.0" encoding="UTF-8" standalone="no"?>
<svg
   version="1.2"
   width="100mm"
   height="100mm"
   viewBox="0 0 10000 10000"
   preserveAspectRatio="xMidYMid"
   fill-rule="evenodd"
   stroke-width="28.222"
   stroke-linejoin="round"
   xml:space="preserve"
   id="svg21"
   sodipodi:docname="gobo-caps-00A6.svg"
   inkscape:version="1.4 (86a8ad7, 2024-10-11)"
   xmlns:inkscape="http://www.inkscape.org/namespaces/inkscape"
   xmlns:sodipodi="http://sodipodi.sourceforge.net/DTD/sodipodi-0.dtd"
   xmlns="http://www.w3.org/2000/svg"
   xmlns:svg="http://www.w3.org/2000/svg"
   xmlns:ooo="http://xml.openoffice.org/svg/export"><sodipodi:namedview
   id="namedview21"
   pagecolor="#ffffff"
   bordercolor="#000000"
   borderopacity="0.25"
   inkscape:showpageshadow="2"
   inkscape:pageopacity="0.0"
   inkscape:pagecheckerboard="0"
   inkscape:deskcolor="#d1d1d1"
   inkscape:document-units="mm"
   showgrid="false"
   inkscape:zoom="3.0876875"
   inkscape:cx="188.81444"
   inkscape:cy="188.97638"
   inkscape:window-width="2560"
   inkscape:window-height="1369"
   inkscape:window-x="-8"
   inkscape:window-y="-8"
   inkscape:window-maximized="1"
   inkscape:current-layer="svg21" />
 <defs
   class="ClipPathGroup"
   id="defs2">
  
  <clipPath
   id="presentation_clip_path_shrink"
   clipPathUnits="userSpaceOnUse">
   <rect
   x="10"
   y="10"
   width="9980"
   height="9980"
   id="rect2" />
  </clipPath>
 
  
 
   
  
    
   
     
    
      
      
      
      
      
      
     
       
      
       
      
       
      
       
      
       
      
       
      
        
        
       
        
        
       
        
        
       
        
        
       
        
        
       
        
        
       </defs>
 <defs
   class="TextShapeIndex"
   id="defs3">
  <g
   ooo:slide="id1"
   ooo:id-list="id3 id4 id5 id6 id7 id8"
   id="g2" />
 </defs>
 <defs
   class="EmbeddedBulletChars"
   id="defs12">
  <g
   id="bullet-char-template-57356"
   transform="scale(0.00048828125,-0.00048828125)">
   <path
   d="M 580,1141 L 1163,571 580,0 -4,571 580,1141 Z"
   id="path3" />
  </g>
  <g
   id="bullet-char-template-57354"
   transform="scale(0.00048828125,-0.00048828125)">
   <path
   d="M 8,1128 L 1137,1128 1137,0 8,0 8,1128 Z"
   id="path4" />
  </g>
  <g
   id="bullet-char-template-10146"
   transform="scale(0.00048828125,-0.00048828125)">
   <path
   d="M 174,0 L 602,739 174,1481 1456,739 174,0 Z M 1358,739 L 309,1346 659,739 1358,739 Z"
   id="path5" />
  </g>
  <g
   id="bullet-char-template-10132"
   transform="scale(0.00048828125,-0.00048828125)">
   <path
   d="M 2015,739 L 1276,0 717,0 1260,543 174,543 174,936 1260,936 717,1481 1274,1481 2015,739 Z"
   id="path6" />
  </g>
  <g
   id="bullet-char-template-10007"
   transform="scale(0.00048828125,-0.00048828125)">
   <path
   d="M 0,-2 C -7,14 -16,27 -25,37 L 356,567 C 262,823 215,952 215,954 215,979 228,992 255,992 264,992 276,990 289,987 310,991 331,999 354,1012 L 381,999 492,748 772,1049 836,1024 860,1049 C 881,1039 901,1025 922,1006 886,937 835,863 770,784 769,783 710,716 594,584 L 774,223 C 774,196 753,168 711,139 L 727,119 C 717,90 699,76 672,76 641,76 570,178 457,381 L 164,-76 C 142,-110 111,-127 72,-127 30,-127 9,-110 8,-76 1,-67 -2,-52 -2,-32 -2,-23 -1,-13 0,-2 Z"
   id="path7" />
  </g>
  <g
   id="bullet-char-template-10004"
   transform="scale(0.00048828125,-0.00048828125)">
   <path
   d="M 285,-33 C 182,-33 111,30 74,156 52,228 41,333 41,471 41,549 55,616 82,672 116,743 169,778 240,778 293,778 328,747 346,684 L 369,508 C 377,444 397,411 428,410 L 1163,1116 C 1174,1127 1196,1133 1229,1133 1271,1133 1292,1118 1292,1087 L 1292,965 C 1292,929 1282,901 1262,881 L 442,47 C 390,-6 338,-33 285,-33 Z"
   id="path8" />
  </g>
  <g
   id="bullet-char-template-9679"
   transform="scale(0.00048828125,-0.00048828125)">
   <path
   d="M 813,0 C 632,0 489,54 383,161 276,268 223,411 223,592 223,773 276,916 383,1023 489,1130 632,1184 813,1184 992,1184 1136,1130 1245,1023 1353,916 1407,772 1407,592 1407,412 1353,268 1245,161 1136,54 992,0 813,0 Z"
   id="path9" />
  </g>
  <g
   id="bullet-char-template-8226"
   transform="scale(0.00048828125,-0.00048828125)">
   <path
   d="M 346,457 C 273,457 209,483 155,535 101,586 74,649 74,723 74,796 101,859 155,911 209,963 273,989 346,989 419,989 480,963 531,910 582,859 608,796 608,723 608,648 583,586 532,535 482,483 420,457 346,457 Z"
   id="path10" />
  </g>
  <g
   id="bullet-char-template-8211"
   transform="scale(0.00048828125,-0.00048828125)">
   <path
   d="M -4,459 L 1135,459 1135,606 -4,606 -4,459 Z"
   id="path11" />
  </g>
  <g
   id="bullet-char-template-61548"
   transform="scale(0.00048828125,-0.00048828125)">
   <path
   d="M 173,740 C 173,903 231,1043 346,1159 462,1274 601,1332 765,1332 928,1332 1067,1274 1183,1159 1299,1043 1357,903 1357,740 1357,577 1299,437 1183,322 1067,206 928,148 765,148 601,148 462,206 346,322 231,437 173,577 173,740 Z"
   id="path12" />
  </g>
 </defs>
 
 <path
   id="path13"
   d="M 5163.9742 2155.9924 C 5150.9082 2155.9192 5137.2448 2156.2243 5122.9948 2156.9743 C 4896.9948 2169.9743 4693.0145 2246.9778 4672.0145 2395.9778 C 4670.8414 2403.9761 4669.826 2412.3763 4668.9139 2420.8858 C 4668.6737 2421.9211 4668.0684 2422.9497 4667.9838 2423.9864 C 4667.2588 2434.2873 4666.7534 2444.1334 4666.0717 2454.3205 C 4665.9995 2455.477 4665.9327 2456.62 4665.865 2457.7828 C 4644.2163 2783.2966 4644.285 3058.5242 4652.0158 3676.9848 C 4658.0158 4316.9848 4610.017 4598.9838 4632.017 4835.9838 C 4632.0635 4836.4743 4632.3149 4836.8472 4632.3787 4837.3274 C 4641.7139 4958.9822 4674.4958 5086.4219 4740.0207 5159.0132 C 4837.0207 5265.0132 4908.9815 5238.9963 5043.9815 5139.9963 C 5176.9815 5042.9963 5265.0201 4865.0195 5301.0201 4760.0195 C 5330.9949 4672.0498 5342.8898 4603.1699 5337.607 4550.5749 C 5336.3371 4409.1362 5283.7817 4182.8345 5279.0059 3710.9879 C 5276.0059 3217.9879 5305.9872 2712.0165 5373.9872 2354.0165 C 5374.4022 2350.1534 5374.0715 2346.4947 5373.057 2343.0611 C 5381.9972 2210.5404 5310.3313 2156.8128 5163.9742 2155.9924 z M 5163.9742 5783.988 C 5150.9082 5783.9148 5137.2448 5784.2715 5122.9948 5785.0215 C 4896.9948 5798.0215 4693.0145 5875.025 4672.0145 6024.025 C 4670.8418 6032.021 4669.8258 6040.3745 4668.9139 6048.8814 C 4668.6737 6049.9167 4668.0684 6050.9453 4667.9838 6051.982 C 4667.2588 6062.2829 4666.7534 6072.129 4666.0717 6082.316 C 4665.9995 6083.4725 4665.9327 6084.6156 4665.865 6085.7784 C 4644.2163 6411.2921 4644.285 6686.5197 4652.0158 7304.9804 C 4658.0158 7944.9804 4610.017 8226.9794 4632.017 8463.9794 C 4632.0635 8464.4699 4632.3149 8464.8428 4632.3787 8465.323 C 4641.7139 8586.9778 4674.4958 8714.4175 4740.0207 8787.0088 C 4837.0207 8893.0088 4908.9815 8866.9919 5043.9815 8767.9919 C 5176.9815 8670.9919 5265.0201 8493.0151 5301.0201 8388.0151 C 5331.0047 8300.0167 5342.9028 8231.1202 5337.607 8178.5188 C 5336.3205 8037.0752 5283.7809 7810.7538 5279.0059 7338.9835 C 5276.0059 6845.9835 5305.9872 6340.0121 5373.9872 5982.0121 C 5374.4022 5978.149 5374.0715 5974.4903 5373.057 5971.0567 C 5381.9972 5838.536 5310.3313 5784.8084 5163.9742 5783.988 z " />
   
  
</svg>
