<?xml version="1.0" encoding="UTF-8" standalone="no"?>
<svg
   version="1.2"
   width="100mm"
   height="100mm"
   viewBox="0 0 10000 10000"
   preserveAspectRatio="xMidYMid"
   fill-rule="evenodd"
   stroke-width="28.222"
   stroke-linejoin="round"
   xml:space="preserve"
   id="svg25"
   sodipodi:docname="gobo-caps-00F1.svg"
   inkscape:version="1.4 (86a8ad7, 2024-10-11)"
   xmlns:inkscape="http://www.inkscape.org/namespaces/inkscape"
   xmlns:sodipodi="http://sodipodi.sourceforge.net/DTD/sodipodi-0.dtd"
   xmlns="http://www.w3.org/2000/svg"
   xmlns:svg="http://www.w3.org/2000/svg"
   xmlns:ooo="http://xml.openoffice.org/svg/export"><sodipodi:namedview
   id="namedview25"
   pagecolor="#ffffff"
   bordercolor="#000000"
   borderopacity="0.25"
   inkscape:showpageshadow="2"
   inkscape:pageopacity="0.0"
   inkscape:pagecheckerboard="0"
   inkscape:deskcolor="#d1d1d1"
   inkscape:document-units="mm"
   showgrid="false"
   inkscape:zoom="3.0876875"
   inkscape:cx="188.81444"
   inkscape:cy="188.97638"
   inkscape:window-width="2560"
   inkscape:window-height="1369"
   inkscape:window-x="-8"
   inkscape:window-y="-8"
   inkscape:window-maximized="1"
   inkscape:current-layer="svg25" />
 <defs
   class="ClipPathGroup"
   id="defs2">
  
  <clipPath
   id="presentation_clip_path_shrink"
   clipPathUnits="userSpaceOnUse">
   <rect
   x="10"
   y="10"
   width="9980"
   height="9980"
   id="rect2" />
  </clipPath>
 
  
 
   
  
    
   
     
    
      
      
      
      
      
      
      
      
      
      
     
       
      
       
      
       
      
       
      
       
      
       
      
       
      
       
      
       
      
       
      
        
        
       
        
        
       
        
        
       
        
        
       
        
        
       
        
        
       
        
        
       
        
        
       
        
        
       
        
        
       </defs>
 <defs
   class="TextShapeIndex"
   id="defs3">
  <g
   ooo:slide="id1"
   ooo:id-list="id3 id4 id5 id6 id7 id8 id9 id10 id11 id12"
   id="g2" />
 </defs>
 <defs
   class="EmbeddedBulletChars"
   id="defs12">
  <g
   id="bullet-char-template-57356"
   transform="scale(0.00048828125,-0.00048828125)">
   <path
   d="M 580,1141 L 1163,571 580,0 -4,571 580,1141 Z"
   id="path3" />
  </g>
  <g
   id="bullet-char-template-57354"
   transform="scale(0.00048828125,-0.00048828125)">
   <path
   d="M 8,1128 L 1137,1128 1137,0 8,0 8,1128 Z"
   id="path4" />
  </g>
  <g
   id="bullet-char-template-10146"
   transform="scale(0.00048828125,-0.00048828125)">
   <path
   d="M 174,0 L 602,739 174,1481 1456,739 174,0 Z M 1358,739 L 309,1346 659,739 1358,739 Z"
   id="path5" />
  </g>
  <g
   id="bullet-char-template-10132"
   transform="scale(0.00048828125,-0.00048828125)">
   <path
   d="M 2015,739 L 1276,0 717,0 1260,543 174,543 174,936 1260,936 717,1481 1274,1481 2015,739 Z"
   id="path6" />
  </g>
  <g
   id="bullet-char-template-10007"
   transform="scale(0.00048828125,-0.00048828125)">
   <path
   d="M 0,-2 C -7,14 -16,27 -25,37 L 356,567 C 262,823 215,952 215,954 215,979 228,992 255,992 264,992 276,990 289,987 310,991 331,999 354,1012 L 381,999 492,748 772,1049 836,1024 860,1049 C 881,1039 901,1025 922,1006 886,937 835,863 770,784 769,783 710,716 594,584 L 774,223 C 774,196 753,168 711,139 L 727,119 C 717,90 699,76 672,76 641,76 570,178 457,381 L 164,-76 C 142,-110 111,-127 72,-127 30,-127 9,-110 8,-76 1,-67 -2,-52 -2,-32 -2,-23 -1,-13 0,-2 Z"
   id="path7" />
  </g>
  <g
   id="bullet-char-template-10004"
   transform="scale(0.00048828125,-0.00048828125)">
   <path
   d="M 285,-33 C 182,-33 111,30 74,156 52,228 41,333 41,471 41,549 55,616 82,672 116,743 169,778 240,778 293,778 328,747 346,684 L 369,508 C 377,444 397,411 428,410 L 1163,1116 C 1174,1127 1196,1133 1229,1133 1271,1133 1292,1118 1292,1087 L 1292,965 C 1292,929 1282,901 1262,881 L 442,47 C 390,-6 338,-33 285,-33 Z"
   id="path8" />
  </g>
  <g
   id="bullet-char-template-9679"
   transform="scale(0.00048828125,-0.00048828125)">
   <path
   d="M 813,0 C 632,0 489,54 383,161 276,268 223,411 223,592 223,773 276,916 383,1023 489,1130 632,1184 813,1184 992,1184 1136,1130 1245,1023 1353,916 1407,772 1407,592 1407,412 1353,268 1245,161 1136,54 992,0 813,0 Z"
   id="path9" />
  </g>
  <g
   id="bullet-char-template-8226"
   transform="scale(0.00048828125,-0.00048828125)">
   <path
   d="M 346,457 C 273,457 209,483 155,535 101,586 74,649 74,723 74,796 101,859 155,911 209,963 273,989 346,989 419,989 480,963 531,910 582,859 608,796 608,723 608,648 583,586 532,535 482,483 420,457 346,457 Z"
   id="path10" />
  </g>
  <g
   id="bullet-char-template-8211"
   transform="scale(0.00048828125,-0.00048828125)">
   <path
   d="M -4,459 L 1135,459 1135,606 -4,606 -4,459 Z"
   id="path11" />
  </g>
  <g
   id="bullet-char-template-61548"
   transform="scale(0.00048828125,-0.00048828125)">
   <path
   d="M 173,740 C 173,903 231,1043 346,1159 462,1274 601,1332 765,1332 928,1332 1067,1274 1183,1159 1299,1043 1357,903 1357,740 1357,577 1299,437 1183,322 1067,206 928,148 765,148 601,148 462,206 346,322 231,437 173,577 173,740 Z"
   id="path12" />
  </g>
 </defs>
 
 <path
   id="path13"
   d="M 4386.1405 1714.624 C 4062.8983 1714.6435 3725.4 1843.8997 3316.025 2177.0247 C 3303.4963 2187.2538 3294.6269 2200.5259 3288.3781 2215.8337 C 3271.9392 2239.2649 3261.0591 2265.294 3257.0105 2294.0202 C 3234.0105 2444.0202 3257.0197 2688.9813 3359.0197 2802.9813 C 3456.0197 2908.9813 3528.0141 2883.0161 3664.0141 2784.0161 C 3691.8762 2763.4861 3717.595 2739.356 3741.3737 2713.2711 C 4165.7025 2399.5615 4461.9083 2545.2041 4792.9891 2671.9816 C 5155.9891 2810.9816 5793.9809 3067.0114 6407.9809 2565.0114 C 6408.9084 2564.1757 6409.6394 2562.9474 6410.5131 2562.0141 C 6543.0667 2463.6419 6630.244 2288.3275 6665.0195 2184.001 C 6758.0195 1913.001 6680.0092 1821.9966 6452.0092 1833.9966 C 6347.5937 1840.0295 6247.513 1860.087 6168.2023 1894.7164 C 6157.24 1895.2087 6146.4678 1898.5983 6136.0078 1905.9818 C 6131.4133 1910.1145 6126.8811 1913.7938 6122.3136 1917.7641 C 6093.535 1934.4355 6068.7919 1953.608 6049.2948 1975.2799 C 5721.8523 2205.7163 5447.1185 2027.503 4965.0199 1837.9757 C 4768.8949 1761.1007 4580.0858 1714.6123 4386.1405 1714.624 z M 6548.9542 3038.9876 C 6535.8883 3038.9144 6522.2248 3039.2711 6507.9748 3040.0211 C 6280.9748 3052.0211 6077.9946 3130.0246 6056.9946 3279.0246 C 6049.5426 3327.6244 6047.1683 3386.3168 6050.6384 3447.2831 C 6049.8254 3454.5946 6049.5625 3461.8473 6050.0183 3468.9872 C 6067.0183 3703.9872 6216.007 4354.002 6193.007 5470.002 C 6185.5204 5834.2401 6164.7365 6125.5279 6139.6252 6366.9498 C 5872.519 5999.067 5551.7176 5561.8922 5267.017 5160.9769 C 4712.4607 4382.4273 4168.5968 3684.1971 3911.0791 3342.845 C 3878.3791 3278.6928 3799.6292 3256.0404 3678.0184 3263.0049 C 3452.0184 3275.0049 3247.9865 3352.0084 3226.9865 3502.0084 C 3221.1681 3539.7013 3218.357 3583.6104 3218.9766 3630.011 C 3196.2142 3999.0135 3176.2089 4824.8586 3180.9944 5513.9786 C 3184.85 6207.9718 3227.602 7342.3833 3241.5075 7760.5598 C 3236.419 7905.9333 3266.7306 8090.6116 3351.9918 8184.9784 C 3447.9918 8290.9784 3521.0224 8265.0131 3655.0224 8166.0131 C 3789.0224 8068.0131 3876.0092 7891.0028 3912.0092 7785.0028 C 3939.9524 7703.8776 3952.3539 7639.0902 3949.9914 7588.3223 C 3954.8111 7250.29 3832.7789 6683.0885 3807.9846 5852.976 C 3796.5786 5471.5592 3806.3293 5021.0473 3826.0713 4607.8324 C 4177.8961 5044.7648 4618.1781 5608.0543 4855.9826 5962.9952 C 5260.9826 6565.9952 5931.9795 7476.0225 6091.9795 7801.0225 C 6095.1462 7807.4504 6099.8387 7811.479 6105.2087 7814.4067 C 6108.3964 7818.4036 6111.6202 7822.265 6114.9755 7825.9822 C 6210.9755 7932.9822 6283.988 7906.0169 6418.988 7807.0169 C 6551.988 7710.0169 6638.9749 7532.9885 6675.9749 7426.9885 C 6685.1059 7400.191 6692.5317 7375.2479 6698.3508 7351.9026 C 6699.671 7347.9696 6701.1712 7344.1221 6702.0198 7340.017 C 6702.9941 7335.0885 6703.7999 7328.4964 6704.7587 7323.4289 C 6707.4806 7309.9773 6709.5699 7297.1524 6711.0632 7284.93 C 6772.4409 6926.7435 6800.838 6268.0668 6817.9817 5368.9746 C 6833.9817 4425.9746 6791.0008 3463.9944 6760.0008 3180.9944 C 6758.6028 3168.5005 6755.4875 3157.6256 6751.6809 3147.4564 C 6730.4265 3071.8357 6661.9695 3039.6211 6548.9542 3038.9876 z " />
   
  
</svg>
