<?xml version="1.0" encoding="UTF-8" standalone="no"?>
<svg
   version="1.2"
   width="100mm"
   height="100mm"
   viewBox="0 0 10000 10000"
   preserveAspectRatio="xMidYMid"
   fill-rule="evenodd"
   stroke-width="28.222"
   stroke-linejoin="round"
   xml:space="preserve"
   id="svg21"
   sodipodi:docname="gobo-caps-00E7.svg"
   inkscape:version="1.4 (86a8ad7, 2024-10-11)"
   xmlns:inkscape="http://www.inkscape.org/namespaces/inkscape"
   xmlns:sodipodi="http://sodipodi.sourceforge.net/DTD/sodipodi-0.dtd"
   xmlns="http://www.w3.org/2000/svg"
   xmlns:svg="http://www.w3.org/2000/svg"
   xmlns:ooo="http://xml.openoffice.org/svg/export"><sodipodi:namedview
   id="namedview21"
   pagecolor="#ffffff"
   bordercolor="#000000"
   borderopacity="0.25"
   inkscape:showpageshadow="2"
   inkscape:pageopacity="0.0"
   inkscape:pagecheckerboard="0"
   inkscape:deskcolor="#d1d1d1"
   inkscape:document-units="mm"
   showgrid="false"
   inkscape:zoom="3.0876875"
   inkscape:cx="188.81444"
   inkscape:cy="188.97638"
   inkscape:window-width="2560"
   inkscape:window-height="1369"
   inkscape:window-x="-8"
   inkscape:window-y="-8"
   inkscape:window-maximized="1"
   inkscape:current-layer="svg21" />
 <defs
   class="ClipPathGroup"
   id="defs2">
  
  <clipPath
   id="presentation_clip_path_shrink"
   clipPathUnits="userSpaceOnUse">
   <rect
   x="10"
   y="10"
   width="9980"
   height="9980"
   id="rect2" />
  </clipPath>
 
  
 
   
  
    
   
     
    
      
      
      
      
      
      
     
       
      
       
      
       
      
       
      
       
      
       
      
        
        
       
        
        
       
        
        
       
        
        
       
        
        
       
        
        
       </defs>
 <defs
   class="TextShapeIndex"
   id="defs3">
  <g
   ooo:slide="id1"
   ooo:id-list="id3 id4 id5 id6 id7 id8"
   id="g2" />
 </defs>
 <defs
   class="EmbeddedBulletChars"
   id="defs12">
  <g
   id="bullet-char-template-57356"
   transform="scale(0.00048828125,-0.00048828125)">
   <path
   d="M 580,1141 L 1163,571 580,0 -4,571 580,1141 Z"
   id="path3" />
  </g>
  <g
   id="bullet-char-template-57354"
   transform="scale(0.00048828125,-0.00048828125)">
   <path
   d="M 8,1128 L 1137,1128 1137,0 8,0 8,1128 Z"
   id="path4" />
  </g>
  <g
   id="bullet-char-template-10146"
   transform="scale(0.00048828125,-0.00048828125)">
   <path
   d="M 174,0 L 602,739 174,1481 1456,739 174,0 Z M 1358,739 L 309,1346 659,739 1358,739 Z"
   id="path5" />
  </g>
  <g
   id="bullet-char-template-10132"
   transform="scale(0.00048828125,-0.00048828125)">
   <path
   d="M 2015,739 L 1276,0 717,0 1260,543 174,543 174,936 1260,936 717,1481 1274,1481 2015,739 Z"
   id="path6" />
  </g>
  <g
   id="bullet-char-template-10007"
   transform="scale(0.00048828125,-0.00048828125)">
   <path
   d="M 0,-2 C -7,14 -16,27 -25,37 L 356,567 C 262,823 215,952 215,954 215,979 228,992 255,992 264,992 276,990 289,987 310,991 331,999 354,1012 L 381,999 492,748 772,1049 836,1024 860,1049 C 881,1039 901,1025 922,1006 886,937 835,863 770,784 769,783 710,716 594,584 L 774,223 C 774,196 753,168 711,139 L 727,119 C 717,90 699,76 672,76 641,76 570,178 457,381 L 164,-76 C 142,-110 111,-127 72,-127 30,-127 9,-110 8,-76 1,-67 -2,-52 -2,-32 -2,-23 -1,-13 0,-2 Z"
   id="path7" />
  </g>
  <g
   id="bullet-char-template-10004"
   transform="scale(0.00048828125,-0.00048828125)">
   <path
   d="M 285,-33 C 182,-33 111,30 74,156 52,228 41,333 41,471 41,549 55,616 82,672 116,743 169,778 240,778 293,778 328,747 346,684 L 369,508 C 377,444 397,411 428,410 L 1163,1116 C 1174,1127 1196,1133 1229,1133 1271,1133 1292,1118 1292,1087 L 1292,965 C 1292,929 1282,901 1262,881 L 442,47 C 390,-6 338,-33 285,-33 Z"
   id="path8" />
  </g>
  <g
   id="bullet-char-template-9679"
   transform="scale(0.00048828125,-0.00048828125)">
   <path
   d="M 813,0 C 632,0 489,54 383,161 276,268 223,411 223,592 223,773 276,916 383,1023 489,1130 632,1184 813,1184 992,1184 1136,1130 1245,1023 1353,916 1407,772 1407,592 1407,412 1353,268 1245,161 1136,54 992,0 813,0 Z"
   id="path9" />
  </g>
  <g
   id="bullet-char-template-8226"
   transform="scale(0.00048828125,-0.00048828125)">
   <path
   d="M 346,457 C 273,457 209,483 155,535 101,586 74,649 74,723 74,796 101,859 155,911 209,963 273,989 346,989 419,989 480,963 531,910 582,859 608,796 608,723 608,648 583,586 532,535 482,483 420,457 346,457 Z"
   id="path10" />
  </g>
  <g
   id="bullet-char-template-8211"
   transform="scale(0.00048828125,-0.00048828125)">
   <path
   d="M -4,459 L 1135,459 1135,606 -4,606 -4,459 Z"
   id="path11" />
  </g>
  <g
   id="bullet-char-template-61548"
   transform="scale(0.00048828125,-0.00048828125)">
   <path
   d="M 173,740 C 173,903 231,1043 346,1159 462,1274 601,1332 765,1332 928,1332 1067,1274 1183,1159 1299,1043 1357,903 1357,740 1357,577 1299,437 1183,322 1067,206 928,148 765,148 601,148 462,206 346,322 231,437 173,577 173,740 Z"
   id="path12" />
  </g>
 </defs>
 
 <path
   id="path13"
   d="M 5587.4625 3100.2242 C 5488.4781 3098.4312 5384.8655 3105.23 5276.9905 3121.98 C 4413.9905 3255.98 3408.0076 4290.0224 3092.0076 5728.0224 C 2898.9298 6606.6486 3181.5467 7317.0142 3706.7505 7707.3331 C 3559.7178 7944.8455 3433.3903 8158.0939 3368.9933 8283.0086 C 3366.0503 8287.5682 3364.5277 8292.5932 3363.6706 8297.8397 C 3357.5547 8312.0963 3353.2335 8327.122 3351.0099 8343.0049 C 3328.0099 8492.0049 3351.0192 8737.9842 3453.0192 8850.9842 C 3550.0192 8956.9842 3621.98 8931.019 3756.98 8832.019 C 3870.1727 8750.0809 3949.6921 8611.1865 3993.3996 8506.0957 C 4079.7968 8313.092 4169.1824 8135.9244 4260.5668 7973.9318 C 4473.3954 8031.1736 4704.0247 8050.0546 4945.0211 8024.0063 C 6070.8984 7902.4153 6448.4606 7602.7235 6720.9851 7318.778 C 6734.9552 7305.6145 6748.2454 7291.5911 6760.9826 7277.0235 C 6768.4317 7269.0574 6776.6348 7260.9148 6783.9786 7252.9939 C 6789.7677 7246.7342 6794.024 7239.3396 6797.5179 7231.4449 C 6862.1398 7144.1613 6907.0808 7045.897 6930.9981 6978.0236 C 7022.9981 6708.0236 6945.9878 6617.001 6717.9878 6629.001 C 6557.6128 6638.1855 6409.305 6679.3511 6328.6059 6755.2465 C 6321.1597 6760.0044 6313.8786 6765.3736 6307.0052 6771.9897 C 5969.0052 7038.9897 5523.9826 7256.9804 4855.9826 7304.9804 C 4808.9198 7308.4378 4762.4989 7308.0803 4716.663 7304.8771 C 4755.1096 7259.1308 4793.5867 7215.711 4832.1081 7174.7041 C 4928.6469 7075.1495 4993.4201 6938.7166 5023.9827 6851.9848 C 5115.9827 6581.9848 5039.0241 6491.0139 4811.0241 6503.0139 C 4643.9349 6512.5829 4489.9456 6556.8637 4411.8754 6638.9746 C 4408.4485 6640.2905 4405.3552 6642.1262 4402.987 6645.0207 C 4324.7878 6754.34 4226.3767 6899.4811 4121.5055 7058.4322 C 3828.8392 6817.2919 3641.5922 6430.8725 3661.0168 6030.0195 C 3694.0168 5350.0195 3948.9858 4792.0153 4422.9858 4279.0153 C 4895.9858 3765.0153 5849.0113 3498.0043 6207.0113 4459.0043 C 6211.5406 4470.591 6216.7762 4480.6552 6222.4108 4489.8551 C 6238.6611 4531.0639 6259.3491 4567.6182 6284.991 4595.9985 C 6380.991 4701.9985 6454.0034 4675.9816 6589.0034 4576.9816 C 6722.0034 4477.9816 6809.0085 4302.0229 6845.0085 4196.0229 C 6878.972 4097.054 6890.0026 4022.3078 6879.425 3967.8198 C 6879.0422 3959.9968 6878.111 3952.5966 6876.0144 3946.0123 C 6747.3894 3547.0123 6280.3531 3112.775 5587.4625 3100.2242 z " />
   
  
</svg>
