<?xml version="1.0" encoding="UTF-8" standalone="no"?>
<svg
   version="1.2"
   width="100mm"
   height="100mm"
   viewBox="0 0 10000 10000"
   preserveAspectRatio="xMidYMid"
   fill-rule="evenodd"
   stroke-width="28.222"
   stroke-linejoin="round"
   xml:space="preserve"
   id="svg26"
   sodipodi:docname="gobo-caps-00CF.svg"
   inkscape:version="1.4 (86a8ad7, 2024-10-11)"
   xmlns:inkscape="http://www.inkscape.org/namespaces/inkscape"
   xmlns:sodipodi="http://sodipodi.sourceforge.net/DTD/sodipodi-0.dtd"
   xmlns="http://www.w3.org/2000/svg"
   xmlns:svg="http://www.w3.org/2000/svg"
   xmlns:ooo="http://xml.openoffice.org/svg/export"><sodipodi:namedview
   id="namedview26"
   pagecolor="#ffffff"
   bordercolor="#000000"
   borderopacity="0.25"
   inkscape:showpageshadow="2"
   inkscape:pageopacity="0.0"
   inkscape:pagecheckerboard="0"
   inkscape:deskcolor="#d1d1d1"
   inkscape:document-units="mm"
   showgrid="false"
   inkscape:zoom="3.0876875"
   inkscape:cx="188.81444"
   inkscape:cy="188.97638"
   inkscape:window-width="2560"
   inkscape:window-height="1369"
   inkscape:window-x="-8"
   inkscape:window-y="-8"
   inkscape:window-maximized="1"
   inkscape:current-layer="svg26" />
 <defs
   class="ClipPathGroup"
   id="defs2">
  
  <clipPath
   id="presentation_clip_path_shrink"
   clipPathUnits="userSpaceOnUse">
   <rect
   x="10"
   y="10"
   width="9980"
   height="9980"
   id="rect2" />
  </clipPath>
 
  
 
   
  
    
   
     
    
      
      
      
      
      
      
      
      
      
      
      
     
       
      
       
      
       
      
       
      
       
      
       
      
       
      
       
      
       
      
       
      
       
      
        
        
       
        
        
       
        
        
       
        
        
       
        
        
       
        
        
       
        
        
       
        
        
       
        
        
       
        
        
       
        
        
       </defs>
 <defs
   class="TextShapeIndex"
   id="defs3">
  <g
   ooo:slide="id1"
   ooo:id-list="id3 id4 id5 id6 id7 id8 id9 id10 id11 id12 id13"
   id="g2" />
 </defs>
 <defs
   class="EmbeddedBulletChars"
   id="defs12">
  <g
   id="bullet-char-template-57356"
   transform="scale(0.00048828125,-0.00048828125)">
   <path
   d="M 580,1141 L 1163,571 580,0 -4,571 580,1141 Z"
   id="path3" />
  </g>
  <g
   id="bullet-char-template-57354"
   transform="scale(0.00048828125,-0.00048828125)">
   <path
   d="M 8,1128 L 1137,1128 1137,0 8,0 8,1128 Z"
   id="path4" />
  </g>
  <g
   id="bullet-char-template-10146"
   transform="scale(0.00048828125,-0.00048828125)">
   <path
   d="M 174,0 L 602,739 174,1481 1456,739 174,0 Z M 1358,739 L 309,1346 659,739 1358,739 Z"
   id="path5" />
  </g>
  <g
   id="bullet-char-template-10132"
   transform="scale(0.00048828125,-0.00048828125)">
   <path
   d="M 2015,739 L 1276,0 717,0 1260,543 174,543 174,936 1260,936 717,1481 1274,1481 2015,739 Z"
   id="path6" />
  </g>
  <g
   id="bullet-char-template-10007"
   transform="scale(0.00048828125,-0.00048828125)">
   <path
   d="M 0,-2 C -7,14 -16,27 -25,37 L 356,567 C 262,823 215,952 215,954 215,979 228,992 255,992 264,992 276,990 289,987 310,991 331,999 354,1012 L 381,999 492,748 772,1049 836,1024 860,1049 C 881,1039 901,1025 922,1006 886,937 835,863 770,784 769,783 710,716 594,584 L 774,223 C 774,196 753,168 711,139 L 727,119 C 717,90 699,76 672,76 641,76 570,178 457,381 L 164,-76 C 142,-110 111,-127 72,-127 30,-127 9,-110 8,-76 1,-67 -2,-52 -2,-32 -2,-23 -1,-13 0,-2 Z"
   id="path7" />
  </g>
  <g
   id="bullet-char-template-10004"
   transform="scale(0.00048828125,-0.00048828125)">
   <path
   d="M 285,-33 C 182,-33 111,30 74,156 52,228 41,333 41,471 41,549 55,616 82,672 116,743 169,778 240,778 293,778 328,747 346,684 L 369,508 C 377,444 397,411 428,410 L 1163,1116 C 1174,1127 1196,1133 1229,1133 1271,1133 1292,1118 1292,1087 L 1292,965 C 1292,929 1282,901 1262,881 L 442,47 C 390,-6 338,-33 285,-33 Z"
   id="path8" />
  </g>
  <g
   id="bullet-char-template-9679"
   transform="scale(0.00048828125,-0.00048828125)">
   <path
   d="M 813,0 C 632,0 489,54 383,161 276,268 223,411 223,592 223,773 276,916 383,1023 489,1130 632,1184 813,1184 992,1184 1136,1130 1245,1023 1353,916 1407,772 1407,592 1407,412 1353,268 1245,161 1136,54 992,0 813,0 Z"
   id="path9" />
  </g>
  <g
   id="bullet-char-template-8226"
   transform="scale(0.00048828125,-0.00048828125)">
   <path
   d="M 346,457 C 273,457 209,483 155,535 101,586 74,649 74,723 74,796 101,859 155,911 209,963 273,989 346,989 419,989 480,963 531,910 582,859 608,796 608,723 608,648 583,586 532,535 482,483 420,457 346,457 Z"
   id="path10" />
  </g>
  <g
   id="bullet-char-template-8211"
   transform="scale(0.00048828125,-0.00048828125)">
   <path
   d="M -4,459 L 1135,459 1135,606 -4,606 -4,459 Z"
   id="path11" />
  </g>
  <g
   id="bullet-char-template-61548"
   transform="scale(0.00048828125,-0.00048828125)">
   <path
   d="M 173,740 C 173,903 231,1043 346,1159 462,1274 601,1332 765,1332 928,1332 1067,1274 1183,1159 1299,1043 1357,903 1357,740 1357,577 1299,437 1183,322 1067,206 928,148 765,148 601,148 462,206 346,322 231,437 173,577 173,740 Z"
   id="path12" />
  </g>
 </defs>
 
 <path
   id="path13"
   d="M 5988.9884 1045.9827 C 5975.9225 1045.9094 5962.259 1046.2662 5948.009 1047.0162 C 5721.009 1060.0162 5517.9771 1137.0197 5496.9771 1286.0197 C 5473.9771 1436.0197 5498.0199 1681.9809 5600.0199 1794.9809 C 5696.0199 1901.9809 5768.9807 1875.0156 5903.9807 1776.0156 C 6036.9807 1679.0156 6124.0192 1501.9871 6161.0192 1395.9871 C 6247.2692 1142.8621 6184.9772 1047.0813 5988.9884 1045.9827 z M 4220.9826 1182.8218 C 4207.9167 1182.7965 4194.2532 1183.1979 4180.0032 1184.0104 C 3954.0032 1197.0104 3750.023 1274.0139 3729.023 1423.0139 C 3707.023 1573.0139 3730.0141 1817.9751 3832.0141 1931.9751 C 3929.0141 2037.9751 4000.9749 2012.0098 4135.9749 1913.0098 C 4269.9749 1815.0098 4357.0135 1637.9995 4393.0135 1531.9995 C 4479.2635 1279.812 4416.9714 1183.2027 4220.9826 1182.8218 z M 6236.9836 2092.9988 C 6234.8116 2092.9867 6232.5222 2093.0395 6230.3173 2093.0505 C 5721.8256 2091.1235 4216.7006 2226.0716 3778.9941 2323.9925 C 3776.0714 2324.7391 3773.3428 2326.2004 3770.5192 2327.2998 C 3622.8655 2362.809 3510.2771 2433.4816 3494.9804 2542.0154 C 3472.9804 2691.0154 3496.0232 2936.9765 3598.0232 3050.9765 C 3642.7704 3099.4141 3682.1948 3120.1191 3724.9406 3118.7243 C 3725.6422 3118.719 3726.2984 3119.0423 3727.0076 3118.9827 C 3727.6663 3118.8369 3728.6679 3118.6638 3729.3331 3118.5176 C 3740.1646 3117.786 3751.2873 3115.4416 3762.716 3112.0064 C 3929.173 3078.8401 4240.936 3039.2228 4583.1827 3003.4342 C 4563.4769 3419.4516 4571.1249 4531.0971 4573.0025 5207.0206 C 4577.4376 5844.7935 4613.7821 7430.4961 4631.9653 8054.3404 C 4320.1852 8097.0225 4046.8637 8139.3131 3893.4057 8169.8889 C 3717.9496 8199.2565 3577.2345 8273.6669 3559.9894 8396.0249 C 3537.9894 8545.0249 3560.9805 8790.9861 3662.9805 8904.9861 C 3709.4115 8955.2464 3750.1293 8975.6975 3794.7554 8972.5272 C 3796.5027 8972.6595 3798.1922 8973.162 3799.9747 8972.9923 C 4202.9747 8882.9923 5770.9903 8695.9829 6042.9903 8702.9829 C 6044.9718 8702.8518 6047.0947 8702.0031 6049.1398 8701.536 C 6096.5704 8696.4424 6148.7101 8665.0461 6216.9848 8614.978 C 6350.9848 8516.978 6438.0234 8340.0012 6474.0234 8235.0012 C 6567.0234 7964.0012 6489.0131 7873.9785 6261.0131 7885.9785 C 6256.9575 7886.1939 6252.9613 7886.5992 6248.9209 7886.857 C 6058.7382 7890.5916 5715.5664 7922.6669 5341.276 7965.5086 C 5325.2999 7538.6202 5230.9653 6386.9777 5210.0179 5590.9765 C 5185.082 4818.8885 5238.4304 3431.0969 5282.2098 2939.5622 C 5611.8256 2914.1778 5886.1635 2900.7015 5977.9813 2910.9851 C 5983.2825 2910.8254 5988.736 2909.8267 5994.2594 2908.0912 C 6039.0139 2899.9397 6088.5231 2869.5121 6151.9759 2822.9801 C 6284.9759 2725.9801 6373.0144 2548.0033 6409.0144 2443.0033 C 6490.3266 2204.3697 6439.5196 2105.6393 6269.2297 2094.1874 C 6267.4465 2093.8603 6265.9133 2093.1149 6264.0104 2092.9988 C 6256.6188 2092.8744 6246.7025 2093.1045 6238.7923 2093.0505 C 6238.1769 2093.0452 6237.6017 2093.0023 6236.9836 2092.9988 z " />
   
  
</svg>
