<?xml version="1.0" encoding="UTF-8" standalone="no"?>
<svg
   version="1.2"
   width="100mm"
   height="100mm"
   viewBox="0 0 10000 10000"
   preserveAspectRatio="xMidYMid"
   fill-rule="evenodd"
   stroke-width="28.222"
   stroke-linejoin="round"
   xml:space="preserve"
   id="svg28"
   sodipodi:docname="gobo-caps-00C2.svg"
   inkscape:version="1.4 (86a8ad7, 2024-10-11)"
   xmlns:inkscape="http://www.inkscape.org/namespaces/inkscape"
   xmlns:sodipodi="http://sodipodi.sourceforge.net/DTD/sodipodi-0.dtd"
   xmlns="http://www.w3.org/2000/svg"
   xmlns:svg="http://www.w3.org/2000/svg"
   xmlns:ooo="http://xml.openoffice.org/svg/export"><sodipodi:namedview
   id="namedview28"
   pagecolor="#ffffff"
   bordercolor="#000000"
   borderopacity="0.25"
   inkscape:showpageshadow="2"
   inkscape:pageopacity="0.0"
   inkscape:pagecheckerboard="0"
   inkscape:deskcolor="#d1d1d1"
   inkscape:document-units="mm"
   showgrid="false"
   inkscape:zoom="3.0876875"
   inkscape:cx="188.81444"
   inkscape:cy="188.97638"
   inkscape:window-width="2560"
   inkscape:window-height="1369"
   inkscape:window-x="-8"
   inkscape:window-y="-8"
   inkscape:window-maximized="1"
   inkscape:current-layer="svg28" />
 <defs
   class="ClipPathGroup"
   id="defs2">
  
  <clipPath
   id="presentation_clip_path_shrink"
   clipPathUnits="userSpaceOnUse">
   <rect
   x="10"
   y="10"
   width="9980"
   height="9980"
   id="rect2" />
  </clipPath>
 
  
 
   
  
    
   
     
    
      
      
      
      
      
      
      
      
      
      
      
      
      
     
       
      
       
      
       
      
       
      
       
      
       
      
       
      
       
      
       
      
       
      
       
      
       
      
       
      
        
        
       
        
        
       
        
        
       
        
        
       
        
        
       
        
        
       
        
        
       
        
        
       
        
        
       
        
        
       
        
        
       
        
        
       
        
        
       </defs>
 <defs
   class="TextShapeIndex"
   id="defs3">
  <g
   ooo:slide="id1"
   ooo:id-list="id3 id4 id5 id6 id7 id8 id9 id10 id11 id12 id13 id14 id15"
   id="g2" />
 </defs>
 <defs
   class="EmbeddedBulletChars"
   id="defs12">
  <g
   id="bullet-char-template-57356"
   transform="scale(0.00048828125,-0.00048828125)">
   <path
   d="M 580,1141 L 1163,571 580,0 -4,571 580,1141 Z"
   id="path3" />
  </g>
  <g
   id="bullet-char-template-57354"
   transform="scale(0.00048828125,-0.00048828125)">
   <path
   d="M 8,1128 L 1137,1128 1137,0 8,0 8,1128 Z"
   id="path4" />
  </g>
  <g
   id="bullet-char-template-10146"
   transform="scale(0.00048828125,-0.00048828125)">
   <path
   d="M 174,0 L 602,739 174,1481 1456,739 174,0 Z M 1358,739 L 309,1346 659,739 1358,739 Z"
   id="path5" />
  </g>
  <g
   id="bullet-char-template-10132"
   transform="scale(0.00048828125,-0.00048828125)">
   <path
   d="M 2015,739 L 1276,0 717,0 1260,543 174,543 174,936 1260,936 717,1481 1274,1481 2015,739 Z"
   id="path6" />
  </g>
  <g
   id="bullet-char-template-10007"
   transform="scale(0.00048828125,-0.00048828125)">
   <path
   d="M 0,-2 C -7,14 -16,27 -25,37 L 356,567 C 262,823 215,952 215,954 215,979 228,992 255,992 264,992 276,990 289,987 310,991 331,999 354,1012 L 381,999 492,748 772,1049 836,1024 860,1049 C 881,1039 901,1025 922,1006 886,937 835,863 770,784 769,783 710,716 594,584 L 774,223 C 774,196 753,168 711,139 L 727,119 C 717,90 699,76 672,76 641,76 570,178 457,381 L 164,-76 C 142,-110 111,-127 72,-127 30,-127 9,-110 8,-76 1,-67 -2,-52 -2,-32 -2,-23 -1,-13 0,-2 Z"
   id="path7" />
  </g>
  <g
   id="bullet-char-template-10004"
   transform="scale(0.00048828125,-0.00048828125)">
   <path
   d="M 285,-33 C 182,-33 111,30 74,156 52,228 41,333 41,471 41,549 55,616 82,672 116,743 169,778 240,778 293,778 328,747 346,684 L 369,508 C 377,444 397,411 428,410 L 1163,1116 C 1174,1127 1196,1133 1229,1133 1271,1133 1292,1118 1292,1087 L 1292,965 C 1292,929 1282,901 1262,881 L 442,47 C 390,-6 338,-33 285,-33 Z"
   id="path8" />
  </g>
  <g
   id="bullet-char-template-9679"
   transform="scale(0.00048828125,-0.00048828125)">
   <path
   d="M 813,0 C 632,0 489,54 383,161 276,268 223,411 223,592 223,773 276,916 383,1023 489,1130 632,1184 813,1184 992,1184 1136,1130 1245,1023 1353,916 1407,772 1407,592 1407,412 1353,268 1245,161 1136,54 992,0 813,0 Z"
   id="path9" />
  </g>
  <g
   id="bullet-char-template-8226"
   transform="scale(0.00048828125,-0.00048828125)">
   <path
   d="M 346,457 C 273,457 209,483 155,535 101,586 74,649 74,723 74,796 101,859 155,911 209,963 273,989 346,989 419,989 480,963 531,910 582,859 608,796 608,723 608,648 583,586 532,535 482,483 420,457 346,457 Z"
   id="path10" />
  </g>
  <g
   id="bullet-char-template-8211"
   transform="scale(0.00048828125,-0.00048828125)">
   <path
   d="M -4,459 L 1135,459 1135,606 -4,606 -4,459 Z"
   id="path11" />
  </g>
  <g
   id="bullet-char-template-61548"
   transform="scale(0.00048828125,-0.00048828125)">
   <path
   d="M 173,740 C 173,903 231,1043 346,1159 462,1274 601,1332 765,1332 928,1332 1067,1274 1183,1159 1299,1043 1357,903 1357,740 1357,577 1299,437 1183,322 1067,206 928,148 765,148 601,148 462,206 346,322 231,437 173,577 173,740 Z"
   id="path12" />
  </g>
 </defs>
 
 <path
   id="path13"
   d="M 5229.965 652.82836 C 5216.899 652.80297 5203.2356 653.20442 5188.9856 654.01692 C 5015.9905 663.96797 4856.0032 711.46379 4781.0001 800.00284 C 4775.8795 804.54643 4771.2705 809.65943 4767.9777 816.02254 C 4695.6907 956.68905 4268.9009 1349.4779 3999.3424 1486.9377 C 3913.2008 1520.2464 3849.2581 1578.9227 3795.9957 1677.0036 C 3714.9957 1828.0036 3728.0193 2039.0244 3789.0193 2140.0244 C 3822.8479 2194.7945 3878.9223 2207.1932 3941.5165 2195.1115 C 3942.0265 2195.0348 3942.5029 2195.0939 3943.0151 2195.0081 C 4341.4684 2131.8931 4747.785 1823.9142 5014.836 1557.9927 C 5241.5322 1729.0521 5654.03 1962.2037 6113.9937 1992.0231 C 6116.5282 1992.0416 6119.0966 1991.5579 6121.6418 1991.4547 C 6189.975 2001.4811 6276.6767 1965.3106 6352.9972 1913.9917 C 6467.9972 1833.9917 6556.0034 1725.9983 6589.0034 1551.9983 C 6616.6188 1402.7025 6591.2711 1273.5738 6470.7161 1249.3294 C 6469.7758 1249.1222 6468.8313 1248.9492 6467.8739 1248.761 C 6465.8069 1248.3785 6463.6914 1248.0489 6461.5694 1247.7274 C 6460.0379 1247.5007 6458.5945 1247.1845 6457.0218 1247.004 C 5879.2976 1180.8452 5544.0099 855.09973 5415.6384 722.43652 C 5383.9632 674.16139 5321.5608 653.00636 5229.965 652.82836 z M 5181.9576 2153.977 C 5168.8916 2153.9038 5155.2282 2154.2606 5140.9782 2155.0106 C 4913.9782 2167.0106 4710.9979 2245.0141 4689.9979 2394.0141 C 4689.8083 2395.3073 4689.7158 2396.7375 4689.5328 2398.0448 C 4485.6714 2984.5518 4122.7121 3956.069 3744.0092 4954.9947 C 3353.1284 5978.8244 2588.3722 8001.9162 2405.3312 8484.2366 C 2397.7703 8500.1354 2392.5133 8517.0317 2389.9833 8534.9828 C 2367.9833 8683.9828 2390.9744 8929.9957 2492.9744 9043.9957 C 2588.9744 9149.9957 2661.9869 9123.9788 2796.9869 9024.9788 C 2902.3848 8947.3172 2979.3825 8820.1719 3024.7766 8718.4342 C 3029.8848 8711.3258 3034.5205 8703.738 3038.0058 8695.0248 C 3041.0707 8684.6258 3047.0122 8666.3377 3050.4081 8655.0272 C 3051.6047 8651.6896 3052.9257 8648.2095 3054.0254 8645.002 C 3062.6316 8619.9238 3069.7254 8596.401 3075.4195 8574.3603 C 3075.494 8574.0719 3075.6039 8573.7696 3075.6779 8573.4818 C 3151.2164 8328.971 3282.8678 7934.7674 3430.9017 7501.7643 C 3689.9752 7407.3753 4198.9958 7243.6364 4770.9749 7089.0246 C 5381.9749 6905.0246 5986.0077 6783.0143 6435.0077 6708.0143 C 6435.1819 6708.0025 6435.3502 6707.9233 6435.5244 6707.9109 C 6671.0226 7470.1281 6867.6416 8180.2886 6950.9969 8382.6407 C 6967.711 8428.358 6989.3493 8469.108 7016.9877 8499.9979 C 7113.9877 8604.9979 7186.0001 8579.981 7321.0001 8480.981 C 7455.0001 8382.981 7542.0052 8206.0223 7577.0052 8100.0223 C 7609.5781 8005.4556 7621.1065 7932.8744 7612.7136 7879.0022 C 7613.1148 7874.6053 7612.913 7870.6096 7611.9901 7867.0133 C 7521.9901 7525.0133 6837.9942 5502.9964 6486.9942 4672.9964 C 6144.2781 3858.9231 5543.6824 2529.1783 5380.0333 2248.3899 C 5354.4662 2182.8155 5287.7088 2154.5698 5181.9576 2153.977 z M 4985.5354 3304.9662 C 5215.5687 3744.0594 5555.2252 4392.3115 5857.0068 5068.011 C 5972.1597 5328.6337 6090.2176 5649.7872 6204.8409 5988.9884 C 5714.8566 6128.1618 5284.0484 6256.3079 4729.0136 6409.9963 C 4271.3854 6545.3417 3991.1484 6616.6945 3716.724 6677.7836 C 3897.4673 6169.4764 4075.2731 5688.7398 4200.002 5387.9915 C 4415.2004 4863.2333 4721.4621 3962.7906 4985.5354 3304.9662 z " />
   
  
</svg>
