<?xml version="1.0" encoding="UTF-8" standalone="no"?>
<svg
   version="1.2"
   width="100mm"
   height="100mm"
   viewBox="0 0 10000 10000"
   preserveAspectRatio="xMidYMid"
   fill-rule="evenodd"
   stroke-width="28.222"
   stroke-linejoin="round"
   xml:space="preserve"
   id="svg21"
   sodipodi:docname="gobo-caps-00C7.svg"
   inkscape:version="1.4 (86a8ad7, 2024-10-11)"
   xmlns:inkscape="http://www.inkscape.org/namespaces/inkscape"
   xmlns:sodipodi="http://sodipodi.sourceforge.net/DTD/sodipodi-0.dtd"
   xmlns="http://www.w3.org/2000/svg"
   xmlns:svg="http://www.w3.org/2000/svg"
   xmlns:ooo="http://xml.openoffice.org/svg/export"><sodipodi:namedview
   id="namedview21"
   pagecolor="#ffffff"
   bordercolor="#000000"
   borderopacity="0.25"
   inkscape:showpageshadow="2"
   inkscape:pageopacity="0.0"
   inkscape:pagecheckerboard="0"
   inkscape:deskcolor="#d1d1d1"
   inkscape:document-units="mm"
   showgrid="false"
   inkscape:zoom="3.0876875"
   inkscape:cx="188.81444"
   inkscape:cy="188.97638"
   inkscape:window-width="2560"
   inkscape:window-height="1369"
   inkscape:window-x="-8"
   inkscape:window-y="-8"
   inkscape:window-maximized="1"
   inkscape:current-layer="svg21" />
 <defs
   class="ClipPathGroup"
   id="defs2">
  
  <clipPath
   id="presentation_clip_path_shrink"
   clipPathUnits="userSpaceOnUse">
   <rect
   x="10"
   y="10"
   width="9980"
   height="9980"
   id="rect2" />
  </clipPath>
 
  
 
   
  
    
   
     
    
      
      
      
      
      
      
     
       
      
       
      
       
      
       
      
       
      
       
      
        
        
       
        
        
       
        
        
       
        
        
       
        
        
       
        
        
       </defs>
 <defs
   class="TextShapeIndex"
   id="defs3">
  <g
   ooo:slide="id1"
   ooo:id-list="id3 id4 id5 id6 id7 id8"
   id="g2" />
 </defs>
 <defs
   class="EmbeddedBulletChars"
   id="defs12">
  <g
   id="bullet-char-template-57356"
   transform="scale(0.00048828125,-0.00048828125)">
   <path
   d="M 580,1141 L 1163,571 580,0 -4,571 580,1141 Z"
   id="path3" />
  </g>
  <g
   id="bullet-char-template-57354"
   transform="scale(0.00048828125,-0.00048828125)">
   <path
   d="M 8,1128 L 1137,1128 1137,0 8,0 8,1128 Z"
   id="path4" />
  </g>
  <g
   id="bullet-char-template-10146"
   transform="scale(0.00048828125,-0.00048828125)">
   <path
   d="M 174,0 L 602,739 174,1481 1456,739 174,0 Z M 1358,739 L 309,1346 659,739 1358,739 Z"
   id="path5" />
  </g>
  <g
   id="bullet-char-template-10132"
   transform="scale(0.00048828125,-0.00048828125)">
   <path
   d="M 2015,739 L 1276,0 717,0 1260,543 174,543 174,936 1260,936 717,1481 1274,1481 2015,739 Z"
   id="path6" />
  </g>
  <g
   id="bullet-char-template-10007"
   transform="scale(0.00048828125,-0.00048828125)">
   <path
   d="M 0,-2 C -7,14 -16,27 -25,37 L 356,567 C 262,823 215,952 215,954 215,979 228,992 255,992 264,992 276,990 289,987 310,991 331,999 354,1012 L 381,999 492,748 772,1049 836,1024 860,1049 C 881,1039 901,1025 922,1006 886,937 835,863 770,784 769,783 710,716 594,584 L 774,223 C 774,196 753,168 711,139 L 727,119 C 717,90 699,76 672,76 641,76 570,178 457,381 L 164,-76 C 142,-110 111,-127 72,-127 30,-127 9,-110 8,-76 1,-67 -2,-52 -2,-32 -2,-23 -1,-13 0,-2 Z"
   id="path7" />
  </g>
  <g
   id="bullet-char-template-10004"
   transform="scale(0.00048828125,-0.00048828125)">
   <path
   d="M 285,-33 C 182,-33 111,30 74,156 52,228 41,333 41,471 41,549 55,616 82,672 116,743 169,778 240,778 293,778 328,747 346,684 L 369,508 C 377,444 397,411 428,410 L 1163,1116 C 1174,1127 1196,1133 1229,1133 1271,1133 1292,1118 1292,1087 L 1292,965 C 1292,929 1282,901 1262,881 L 442,47 C 390,-6 338,-33 285,-33 Z"
   id="path8" />
  </g>
  <g
   id="bullet-char-template-9679"
   transform="scale(0.00048828125,-0.00048828125)">
   <path
   d="M 813,0 C 632,0 489,54 383,161 276,268 223,411 223,592 223,773 276,916 383,1023 489,1130 632,1184 813,1184 992,1184 1136,1130 1245,1023 1353,916 1407,772 1407,592 1407,412 1353,268 1245,161 1136,54 992,0 813,0 Z"
   id="path9" />
  </g>
  <g
   id="bullet-char-template-8226"
   transform="scale(0.00048828125,-0.00048828125)">
   <path
   d="M 346,457 C 273,457 209,483 155,535 101,586 74,649 74,723 74,796 101,859 155,911 209,963 273,989 346,989 419,989 480,963 531,910 582,859 608,796 608,723 608,648 583,586 532,535 482,483 420,457 346,457 Z"
   id="path10" />
  </g>
  <g
   id="bullet-char-template-8211"
   transform="scale(0.00048828125,-0.00048828125)">
   <path
   d="M -4,459 L 1135,459 1135,606 -4,606 -4,459 Z"
   id="path11" />
  </g>
  <g
   id="bullet-char-template-61548"
   transform="scale(0.00048828125,-0.00048828125)">
   <path
   d="M 173,740 C 173,903 231,1043 346,1159 462,1274 601,1332 765,1332 928,1332 1067,1274 1183,1159 1299,1043 1357,903 1357,740 1357,577 1299,437 1183,322 1067,206 928,148 765,148 601,148 462,206 346,322 231,437 173,577 173,740 Z"
   id="path12" />
  </g>
 </defs>
 
 <path
   id="path13"
   d="M 5702.3392 2125.6067 C 5607.8273 2123.498 5508.4487 2128.5819 5404.0112 2141.9881 C 4291.0112 2284.9881 3178.9783 3847.9803 2768.9783 5698.9803 C 2522.892 6810.5699 2814.3758 7796.2747 3418.551 8364.1406 C 3287.5023 8577.3079 3175.9705 8766.6566 3117.019 8881.0082 C 3114.076 8885.5678 3112.5534 8890.5929 3111.6963 8895.8394 C 3105.5804 8910.096 3101.2075 8925.1217 3098.9839 8941.0046 C 3075.9839 9090.0046 3098.9932 9335.9839 3200.9932 9448.9839 C 3297.9932 9554.9839 3370.0057 9529.0186 3505.0057 9430.0186 C 3618.6972 9347.7195 3698.4119 9207.9518 3741.9938 9102.7001 C 3804.1901 8963.8371 3867.9158 8832.9057 3932.8348 8710.1659 C 4242.0517 8849.7115 4594.9448 8905.3621 4975.9753 8855.9968 C 6511.9753 8656.9968 6917.9883 8030.9782 7090.9883 7848.9782 C 7091.8438 7848.0602 7092.1431 7846.6325 7092.952 7845.6709 C 7185.9274 7746.5741 7248.0466 7615.3005 7277.0235 7529.9796 C 7370.0235 7259.9796 7292.0132 7170.0087 7064.0132 7181.0087 C 6906.0685 7190.094 6759.4322 7230.9726 6677.8869 7305.6005 C 6674.9229 7308.0673 6671.8801 7310.1554 6668.9986 7312.9903 C 6344.9986 7628.9903 5623.9801 8224.0088 4727.9801 8152.0088 C 4591.8464 8141.0695 4462.1081 8109.3985 4340.1485 8059.9214 C 4419.7051 7953.9016 4499.8496 7858.1694 4580.0305 7772.8072 C 4676.6256 7673.2436 4741.435 7536.7468 4772.0084 7449.9845 C 4864.0084 7179.9845 4786.9982 7089.0135 4558.9982 7101.0135 C 4391.9089 7110.5825 4237.9196 7154.8633 4159.8494 7236.9742 C 4156.4421 7238.291 4153.3705 7240.1386 4151.0127 7243.0204 C 4064.623 7363.7897 3953.3315 7528.9431 3836.0449 7707.6948 C 3459.6759 7305.0839 3253.5005 6668.838 3326.9804 5953.0216 C 3446.9804 4784.0216 4029.0071 3790.9975 4624.0071 3214.9975 C 5220.0071 2638.9975 6246.9834 2828.0052 6535.9834 3767.0052 C 6543.0801 3790.2244 6552.8676 3808.2026 6564.5088 3822.3506 C 6579.0031 3853.9421 6596.3781 3882.1436 6617.0121 3904.9813 C 6713.0121 4010.9813 6785.991 3985.016 6919.991 3886.016 C 7053.991 3788.016 7140.9779 3611.0057 7176.9779 3505.0057 C 7217.6654 3386.8807 7225.6243 3303.1812 7202.6094 3247.347 C 7202.5795 3247.2745 7202.536 3247.2126 7202.506 3247.1403 C 7067.4577 2834.0177 6611.089 2145.8817 5702.3392 2125.6067 z " />
   
  
</svg>
