<?xml version="1.0" encoding="UTF-8" standalone="no"?>
<svg
   version="1.2"
   width="100mm"
   height="100mm"
   viewBox="0 0 10000 10000"
   preserveAspectRatio="xMidYMid"
   fill-rule="evenodd"
   stroke-width="28.222"
   stroke-linejoin="round"
   xml:space="preserve"
   id="svg19"
   sodipodi:docname="gobo-caps-00D8.svg"
   inkscape:version="1.4 (86a8ad7, 2024-10-11)"
   xmlns:inkscape="http://www.inkscape.org/namespaces/inkscape"
   xmlns:sodipodi="http://sodipodi.sourceforge.net/DTD/sodipodi-0.dtd"
   xmlns="http://www.w3.org/2000/svg"
   xmlns:svg="http://www.w3.org/2000/svg"
   xmlns:ooo="http://xml.openoffice.org/svg/export"><sodipodi:namedview
   id="namedview19"
   pagecolor="#ffffff"
   bordercolor="#000000"
   borderopacity="0.25"
   inkscape:showpageshadow="2"
   inkscape:pageopacity="0.0"
   inkscape:pagecheckerboard="0"
   inkscape:deskcolor="#d1d1d1"
   inkscape:document-units="mm"
   showgrid="false"
   inkscape:zoom="3.0876875"
   inkscape:cx="188.81444"
   inkscape:cy="188.97638"
   inkscape:window-width="2560"
   inkscape:window-height="1369"
   inkscape:window-x="-8"
   inkscape:window-y="-8"
   inkscape:window-maximized="1"
   inkscape:current-layer="svg19" />
 <defs
   class="ClipPathGroup"
   id="defs2">
  
  <clipPath
   id="presentation_clip_path_shrink"
   clipPathUnits="userSpaceOnUse">
   <rect
   x="10"
   y="10"
   width="9980"
   height="9980"
   id="rect2" />
  </clipPath>
 
  
 
   
  
    
   
     
    
      
      
      
      
     
       
      
       
      
       
      
       
      
        
        
       
        
        
       
        
        
       
        
        
       </defs>
 <defs
   class="TextShapeIndex"
   id="defs3">
  <g
   ooo:slide="id1"
   ooo:id-list="id3 id4 id5 id6"
   id="g2" />
 </defs>
 <defs
   class="EmbeddedBulletChars"
   id="defs12">
  <g
   id="bullet-char-template-57356"
   transform="scale(0.00048828125,-0.00048828125)">
   <path
   d="M 580,1141 L 1163,571 580,0 -4,571 580,1141 Z"
   id="path3" />
  </g>
  <g
   id="bullet-char-template-57354"
   transform="scale(0.00048828125,-0.00048828125)">
   <path
   d="M 8,1128 L 1137,1128 1137,0 8,0 8,1128 Z"
   id="path4" />
  </g>
  <g
   id="bullet-char-template-10146"
   transform="scale(0.00048828125,-0.00048828125)">
   <path
   d="M 174,0 L 602,739 174,1481 1456,739 174,0 Z M 1358,739 L 309,1346 659,739 1358,739 Z"
   id="path5" />
  </g>
  <g
   id="bullet-char-template-10132"
   transform="scale(0.00048828125,-0.00048828125)">
   <path
   d="M 2015,739 L 1276,0 717,0 1260,543 174,543 174,936 1260,936 717,1481 1274,1481 2015,739 Z"
   id="path6" />
  </g>
  <g
   id="bullet-char-template-10007"
   transform="scale(0.00048828125,-0.00048828125)">
   <path
   d="M 0,-2 C -7,14 -16,27 -25,37 L 356,567 C 262,823 215,952 215,954 215,979 228,992 255,992 264,992 276,990 289,987 310,991 331,999 354,1012 L 381,999 492,748 772,1049 836,1024 860,1049 C 881,1039 901,1025 922,1006 886,937 835,863 770,784 769,783 710,716 594,584 L 774,223 C 774,196 753,168 711,139 L 727,119 C 717,90 699,76 672,76 641,76 570,178 457,381 L 164,-76 C 142,-110 111,-127 72,-127 30,-127 9,-110 8,-76 1,-67 -2,-52 -2,-32 -2,-23 -1,-13 0,-2 Z"
   id="path7" />
  </g>
  <g
   id="bullet-char-template-10004"
   transform="scale(0.00048828125,-0.00048828125)">
   <path
   d="M 285,-33 C 182,-33 111,30 74,156 52,228 41,333 41,471 41,549 55,616 82,672 116,743 169,778 240,778 293,778 328,747 346,684 L 369,508 C 377,444 397,411 428,410 L 1163,1116 C 1174,1127 1196,1133 1229,1133 1271,1133 1292,1118 1292,1087 L 1292,965 C 1292,929 1282,901 1262,881 L 442,47 C 390,-6 338,-33 285,-33 Z"
   id="path8" />
  </g>
  <g
   id="bullet-char-template-9679"
   transform="scale(0.00048828125,-0.00048828125)">
   <path
   d="M 813,0 C 632,0 489,54 383,161 276,268 223,411 223,592 223,773 276,916 383,1023 489,1130 632,1184 813,1184 992,1184 1136,1130 1245,1023 1353,916 1407,772 1407,592 1407,412 1353,268 1245,161 1136,54 992,0 813,0 Z"
   id="path9" />
  </g>
  <g
   id="bullet-char-template-8226"
   transform="scale(0.00048828125,-0.00048828125)">
   <path
   d="M 346,457 C 273,457 209,483 155,535 101,586 74,649 74,723 74,796 101,859 155,911 209,963 273,989 346,989 419,989 480,963 531,910 582,859 608,796 608,723 608,648 583,586 532,535 482,483 420,457 346,457 Z"
   id="path10" />
  </g>
  <g
   id="bullet-char-template-8211"
   transform="scale(0.00048828125,-0.00048828125)">
   <path
   d="M -4,459 L 1135,459 1135,606 -4,606 -4,459 Z"
   id="path11" />
  </g>
  <g
   id="bullet-char-template-61548"
   transform="scale(0.00048828125,-0.00048828125)">
   <path
   d="M 173,740 C 173,903 231,1043 346,1159 462,1274 601,1332 765,1332 928,1332 1067,1274 1183,1159 1299,1043 1357,903 1357,740 1357,577 1299,437 1183,322 1067,206 928,148 765,148 601,148 462,206 346,322 231,437 173,577 173,740 Z"
   id="path12" />
  </g>
 </defs>
 
 <path
   id="path13"
   d="M 7188.8118 1665.9965 C 7175.7937 1665.9232 7162.1749 1666.2283 7147.9874 1666.9783 C 6957.5483 1677.9328 6782.7646 1734.3657 6719.8999 1841.593 C 6719.4469 1842.2058 6718.3753 1842.324 6717.9878 1842.9883 C 6694.1833 1886.5332 6518.711 2199.3754 6446.9449 2327.9716 C 6095.1665 2162.3035 5686.9901 2090.7954 5224.0222 2140.0244 C 3502.0222 2324.0244 2151.0037 3951.9803 2013.0037 5866.9803 C 1925.6719 7070.149 2286.2358 8003.4256 3057.2294 8491.7813 C 2941.7875 8716.2619 2854.3579 8894.0043 2825.3572 8972.8889 C 2824.5312 8974.8284 2823.6848 8976.7591 2822.9284 8978.7284 C 2822.7236 8979.3018 2822.1968 8980.4392 2821.9983 8981.0021 C 2821.8964 8981.215 2821.9924 8981.4603 2821.8949 8981.6739 C 2817.7849 8992.9735 2814.7362 9004.7486 2813.0066 9017.0206 C 2790.0066 9167.0206 2813.0158 9411.9818 2915.0158 9525.9818 C 3012.0158 9631.9818 3084.0101 9606.0165 3220.0101 9507.0165 C 3353.0101 9409.0165 3440.0152 9232.0062 3476.0152 9126.0062 C 3494.9739 9076.6749 3562.7604 8933.2048 3649.2863 8754.0392 C 3996.877 8854.3227 4396.9576 8891.3159 4849.0063 8855.015 C 6829.0063 8695.015 8076.9795 7142.9822 7996.9795 5285.9822 C 7950.3258 4203.6164 7599.7787 3252.2692 6974.768 2682.8853 C 7101.6504 2475.5043 7202.9623 2311.4039 7251.547 2235.1607 C 7303.3585 2157.4017 7339.7658 2075.626 7360.0158 2016.001 C 7447.2033 1762.876 7384.0828 1667.0951 7188.8118 1665.9965 z M 5379.1548 2847.0613 C 5629.5269 2849.5048 5857.2466 2910.1277 6062.0589 3016.6634 C 5547.4294 3936.0477 4930.3224 5038.7259 4652.0158 5547.9817 C 4404.6249 5999.6139 3879.4223 6949.2902 3452.1924 7744.0751 C 2905.8766 7424.7219 2534.546 6854.2428 2622.0105 5866.9803 C 2774.0105 4139.9803 3723.9766 3060.0112 5123.9766 2864.0112 C 5211.4766 2851.7612 5296.5528 2846.2552 5379.1548 2847.0613 z M 6544.5617 3392.8161 C 7050.5102 3939.9621 7335.6911 4824.4193 7386.9909 5700.0138 C 7473.9909 7201.0138 5993.9826 8168.9805 4855.9826 8107.9805 C 4580.3183 8093.1911 4298.3121 8054.6621 4030.9684 7981.2182 C 4431.256 7178.3246 4933.2916 6190.375 5199.0108 5692.0039 C 5464.2671 5197.9567 6052.0315 4209.1219 6544.5617 3392.8161 z " />
   
  
</svg>
