<?xml version="1.0" encoding="UTF-8" standalone="no"?>
<svg
   version="1.2"
   width="100mm"
   height="100mm"
   viewBox="0 0 10000 10000"
   preserveAspectRatio="xMidYMid"
   fill-rule="evenodd"
   stroke-width="28.222"
   stroke-linejoin="round"
   xml:space="preserve"
   id="svg28"
   sodipodi:docname="gobo-caps-00A4.svg"
   inkscape:version="1.4 (86a8ad7, 2024-10-11)"
   xmlns:inkscape="http://www.inkscape.org/namespaces/inkscape"
   xmlns:sodipodi="http://sodipodi.sourceforge.net/DTD/sodipodi-0.dtd"
   xmlns="http://www.w3.org/2000/svg"
   xmlns:svg="http://www.w3.org/2000/svg"
   xmlns:ooo="http://xml.openoffice.org/svg/export"><sodipodi:namedview
   id="namedview28"
   pagecolor="#ffffff"
   bordercolor="#000000"
   borderopacity="0.25"
   inkscape:showpageshadow="2"
   inkscape:pageopacity="0.0"
   inkscape:pagecheckerboard="0"
   inkscape:deskcolor="#d1d1d1"
   inkscape:document-units="mm"
   showgrid="false"
   inkscape:zoom="3.0876875"
   inkscape:cx="188.81444"
   inkscape:cy="188.97638"
   inkscape:window-width="2560"
   inkscape:window-height="1369"
   inkscape:window-x="-8"
   inkscape:window-y="-8"
   inkscape:window-maximized="1"
   inkscape:current-layer="svg28" />
 <defs
   class="ClipPathGroup"
   id="defs2">
  
  <clipPath
   id="presentation_clip_path_shrink"
   clipPathUnits="userSpaceOnUse">
   <rect
   x="10"
   y="10"
   width="9980"
   height="9980"
   id="rect2" />
  </clipPath>
 
  
 
   
  
    
   
     
    
      
      
      
      
      
      
      
      
      
      
      
      
      
     
       
      
       
      
       
      
       
      
       
      
       
      
       
      
       
      
       
      
       
      
       
      
       
      
       
      
        
        
       
        
        
       
        
        
       
        
        
       
        
        
       
        
        
       
        
        
       
        
        
       
        
        
       
        
        
       
        
        
       
        
        
       
        
        
       </defs>
 <defs
   class="TextShapeIndex"
   id="defs3">
  <g
   ooo:slide="id1"
   ooo:id-list="id3 id4 id5 id6 id7 id8 id9 id10 id11 id12 id13 id14 id15"
   id="g2" />
 </defs>
 <defs
   class="EmbeddedBulletChars"
   id="defs12">
  <g
   id="bullet-char-template-57356"
   transform="scale(0.00048828125,-0.00048828125)">
   <path
   d="M 580,1141 L 1163,571 580,0 -4,571 580,1141 Z"
   id="path3" />
  </g>
  <g
   id="bullet-char-template-57354"
   transform="scale(0.00048828125,-0.00048828125)">
   <path
   d="M 8,1128 L 1137,1128 1137,0 8,0 8,1128 Z"
   id="path4" />
  </g>
  <g
   id="bullet-char-template-10146"
   transform="scale(0.00048828125,-0.00048828125)">
   <path
   d="M 174,0 L 602,739 174,1481 1456,739 174,0 Z M 1358,739 L 309,1346 659,739 1358,739 Z"
   id="path5" />
  </g>
  <g
   id="bullet-char-template-10132"
   transform="scale(0.00048828125,-0.00048828125)">
   <path
   d="M 2015,739 L 1276,0 717,0 1260,543 174,543 174,936 1260,936 717,1481 1274,1481 2015,739 Z"
   id="path6" />
  </g>
  <g
   id="bullet-char-template-10007"
   transform="scale(0.00048828125,-0.00048828125)">
   <path
   d="M 0,-2 C -7,14 -16,27 -25,37 L 356,567 C 262,823 215,952 215,954 215,979 228,992 255,992 264,992 276,990 289,987 310,991 331,999 354,1012 L 381,999 492,748 772,1049 836,1024 860,1049 C 881,1039 901,1025 922,1006 886,937 835,863 770,784 769,783 710,716 594,584 L 774,223 C 774,196 753,168 711,139 L 727,119 C 717,90 699,76 672,76 641,76 570,178 457,381 L 164,-76 C 142,-110 111,-127 72,-127 30,-127 9,-110 8,-76 1,-67 -2,-52 -2,-32 -2,-23 -1,-13 0,-2 Z"
   id="path7" />
  </g>
  <g
   id="bullet-char-template-10004"
   transform="scale(0.00048828125,-0.00048828125)">
   <path
   d="M 285,-33 C 182,-33 111,30 74,156 52,228 41,333 41,471 41,549 55,616 82,672 116,743 169,778 240,778 293,778 328,747 346,684 L 369,508 C 377,444 397,411 428,410 L 1163,1116 C 1174,1127 1196,1133 1229,1133 1271,1133 1292,1118 1292,1087 L 1292,965 C 1292,929 1282,901 1262,881 L 442,47 C 390,-6 338,-33 285,-33 Z"
   id="path8" />
  </g>
  <g
   id="bullet-char-template-9679"
   transform="scale(0.00048828125,-0.00048828125)">
   <path
   d="M 813,0 C 632,0 489,54 383,161 276,268 223,411 223,592 223,773 276,916 383,1023 489,1130 632,1184 813,1184 992,1184 1136,1130 1245,1023 1353,916 1407,772 1407,592 1407,412 1353,268 1245,161 1136,54 992,0 813,0 Z"
   id="path9" />
  </g>
  <g
   id="bullet-char-template-8226"
   transform="scale(0.00048828125,-0.00048828125)">
   <path
   d="M 346,457 C 273,457 209,483 155,535 101,586 74,649 74,723 74,796 101,859 155,911 209,963 273,989 346,989 419,989 480,963 531,910 582,859 608,796 608,723 608,648 583,586 532,535 482,483 420,457 346,457 Z"
   id="path10" />
  </g>
  <g
   id="bullet-char-template-8211"
   transform="scale(0.00048828125,-0.00048828125)">
   <path
   d="M -4,459 L 1135,459 1135,606 -4,606 -4,459 Z"
   id="path11" />
  </g>
  <g
   id="bullet-char-template-61548"
   transform="scale(0.00048828125,-0.00048828125)">
   <path
   d="M 173,740 C 173,903 231,1043 346,1159 462,1274 601,1332 765,1332 928,1332 1067,1274 1183,1159 1299,1043 1357,903 1357,740 1357,577 1299,437 1183,322 1067,206 928,148 765,148 601,148 462,206 346,322 231,437 173,577 173,740 Z"
   id="path12" />
  </g>
 </defs>
 
 <path
   id="path13"
   d="M 6888.9851 3009.9971 C 6875.9121 3009.9239 6862.2557 3010.229 6848.0057 3010.979 C 6662.3255 3021.6597 6492.2451 3075.613 6425.2408 3177.6872 C 6425.1648 3177.7951 6425.0558 3177.888 6424.9825 3177.9972 C 6424.8578 3178.2381 6424.6944 3178.5308 6424.569 3178.7724 C 6419.4015 3186.7566 6414.8465 3195.0043 6410.9781 3203.577 C 6313.8451 3378.3291 6085.4269 3681.9503 5958.6543 3832.3242 C 5710.3728 3709.0068 5417.653 3653.5125 5088.9917 3687.9919 C 4752.9068 3723.2162 4428.5777 3841.6419 4140.6775 4019.4445 C 3970.0954 3834.638 3818.6456 3677.7369 3517.9765 3368.0114 C 3511.9464 3361.9814 3505.6626 3356.9439 3499.1146 3352.8703 C 3459.0655 3309.996 3387.1441 3294.6303 3285.0191 3300.0053 C 3060.0191 3313.0053 2855.0207 3390.9906 2835.0207 3539.9906 C 2812.0207 3688.9906 2834.9783 3935.0035 2936.9783 4049.0035 C 2941.7972 4054.2695 2946.5348 4058.9546 2951.241 4063.5762 C 2953.2326 4067.8246 2955.7715 4071.3643 2958.9925 4074.0149 C 3044.111 4138.2271 3308.0798 4398.5465 3490.9497 4601.7346 C 3239.0325 4925.867 3074.9652 5309.6927 3046.0156 5711.0209 C 3003.6718 6299.1944 3147.5755 6819.9527 3548.3105 7132.3295 C 3420.6892 7322.2269 3241.32 7553.1461 3155.1045 7649.2488 C 3148.1335 7655.9332 3141.6753 7662.9037 3135.7776 7670.1261 C 3135.2551 7670.669 3134.5311 7671.4604 3134.0206 7671.9864 C 3132.6854 7673.4864 3131.475 7675.2167 3130.3515 7677.0507 C 3111.6765 7701.9594 3099.362 7729.9026 3095.0049 7761.0249 C 3073.0049 7910.0249 3095.996 8155.9861 3197.996 8269.9861 C 3293.996 8375.9861 3367.0084 8350.0209 3502.0084 8251.0209 C 3566.2712 8204.0227 3619.3638 8138.8057 3661.3269 8072.0137 C 3898.9178 7741.4394 4018.9731 7594.0875 4154.4751 7397.7396 C 4355.2785 7437.842 4586.2197 7449.9468 4849.9882 7429.0038 C 5263.9809 7396.7485 5612.1941 7289.9535 5896.8493 7130.3141 C 6026.5339 7234.8437 6437.2032 7649.8188 6563.9921 7825.0003 C 6564.1505 7825.1719 6564.3934 7825.2507 6564.5605 7825.4138 C 6567.9544 7829.7404 6571.4112 7834.0128 6574.9991 7838.0228 C 6671.9991 7943.0228 6744.0116 7918.0059 6879.0116 7819.0059 C 7013.0116 7721.0059 7100.0166 7543.9955 7135.0166 7437.9955 C 7189.6042 7279.5156 7185.1823 7182.7911 7126.5934 7132.4845 C 7124.2179 7129.264 7121.7261 7126.0624 7118.9969 7122.976 C 6948.1901 6936.4024 6805.4536 6787.7374 6551.3313 6525.6998 C 6774.6799 6184.3825 6875.4482 5779.0243 6856.0156 5365.9773 C 6835.7706 4935.6647 6697.6047 4544.7856 6464.1532 4247.596 C 6678.7352 3951.0286 6793.9376 3808.0449 6923.6083 3619.624 C 6990.9049 3530.7901 7037.2005 3430.1251 7061.016 3360.0016 C 7148.2035 3106.8766 7085.0801 3011.0958 6888.9851 3009.9971 z M 5126.7671 4417.043 C 5687.9996 4432.9289 6129.692 4963.1856 6233.0045 5660.9981 C 6347.0045 6430.9981 5375.0146 6699.9946 4840.0146 6691.9946 C 4305.0146 6683.9946 3574.018 6413.9855 3641.018 5655.9855 C 3708.018 4897.9855 4305.0002 4532.9803 4949.0002 4428.9803 C 5009.3752 4419.2303 5068.7086 4415.3996 5126.7671 4417.043 z " />
   
  
</svg>
