<?xml version="1.0" encoding="UTF-8" standalone="no"?>
<svg
   version="1.2"
   width="100mm"
   height="100mm"
   viewBox="0 0 10000 10000"
   preserveAspectRatio="xMidYMid"
   fill-rule="evenodd"
   stroke-width="28.222"
   stroke-linejoin="round"
   xml:space="preserve"
   id="svg23"
   sodipodi:docname="gobo-caps-00DD.svg"
   inkscape:version="1.4 (86a8ad7, 2024-10-11)"
   xmlns:inkscape="http://www.inkscape.org/namespaces/inkscape"
   xmlns:sodipodi="http://sodipodi.sourceforge.net/DTD/sodipodi-0.dtd"
   xmlns="http://www.w3.org/2000/svg"
   xmlns:svg="http://www.w3.org/2000/svg"
   xmlns:ooo="http://xml.openoffice.org/svg/export"><sodipodi:namedview
   id="namedview23"
   pagecolor="#ffffff"
   bordercolor="#000000"
   borderopacity="0.25"
   inkscape:showpageshadow="2"
   inkscape:pageopacity="0.0"
   inkscape:pagecheckerboard="0"
   inkscape:deskcolor="#d1d1d1"
   inkscape:document-units="mm"
   showgrid="false"
   inkscape:zoom="3.0876875"
   inkscape:cx="188.81444"
   inkscape:cy="188.97638"
   inkscape:window-width="2560"
   inkscape:window-height="1369"
   inkscape:window-x="-8"
   inkscape:window-y="-8"
   inkscape:window-maximized="1"
   inkscape:current-layer="svg23" />
 <defs
   class="ClipPathGroup"
   id="defs2">
  
  <clipPath
   id="presentation_clip_path_shrink"
   clipPathUnits="userSpaceOnUse">
   <rect
   x="10"
   y="10"
   width="9980"
   height="9980"
   id="rect2" />
  </clipPath>
 
  
 
   
  
    
   
     
    
      
      
      
      
      
      
      
      
     
       
      
       
      
       
      
       
      
       
      
       
      
       
      
       
      
        
        
       
        
        
       
        
        
       
        
        
       
        
        
       
        
        
       
        
        
       
        
        
       </defs>
 <defs
   class="TextShapeIndex"
   id="defs3">
  <g
   ooo:slide="id1"
   ooo:id-list="id3 id4 id5 id6 id7 id8 id9 id10"
   id="g2" />
 </defs>
 <defs
   class="EmbeddedBulletChars"
   id="defs12">
  <g
   id="bullet-char-template-57356"
   transform="scale(0.00048828125,-0.00048828125)">
   <path
   d="M 580,1141 L 1163,571 580,0 -4,571 580,1141 Z"
   id="path3" />
  </g>
  <g
   id="bullet-char-template-57354"
   transform="scale(0.00048828125,-0.00048828125)">
   <path
   d="M 8,1128 L 1137,1128 1137,0 8,0 8,1128 Z"
   id="path4" />
  </g>
  <g
   id="bullet-char-template-10146"
   transform="scale(0.00048828125,-0.00048828125)">
   <path
   d="M 174,0 L 602,739 174,1481 1456,739 174,0 Z M 1358,739 L 309,1346 659,739 1358,739 Z"
   id="path5" />
  </g>
  <g
   id="bullet-char-template-10132"
   transform="scale(0.00048828125,-0.00048828125)">
   <path
   d="M 2015,739 L 1276,0 717,0 1260,543 174,543 174,936 1260,936 717,1481 1274,1481 2015,739 Z"
   id="path6" />
  </g>
  <g
   id="bullet-char-template-10007"
   transform="scale(0.00048828125,-0.00048828125)">
   <path
   d="M 0,-2 C -7,14 -16,27 -25,37 L 356,567 C 262,823 215,952 215,954 215,979 228,992 255,992 264,992 276,990 289,987 310,991 331,999 354,1012 L 381,999 492,748 772,1049 836,1024 860,1049 C 881,1039 901,1025 922,1006 886,937 835,863 770,784 769,783 710,716 594,584 L 774,223 C 774,196 753,168 711,139 L 727,119 C 717,90 699,76 672,76 641,76 570,178 457,381 L 164,-76 C 142,-110 111,-127 72,-127 30,-127 9,-110 8,-76 1,-67 -2,-52 -2,-32 -2,-23 -1,-13 0,-2 Z"
   id="path7" />
  </g>
  <g
   id="bullet-char-template-10004"
   transform="scale(0.00048828125,-0.00048828125)">
   <path
   d="M 285,-33 C 182,-33 111,30 74,156 52,228 41,333 41,471 41,549 55,616 82,672 116,743 169,778 240,778 293,778 328,747 346,684 L 369,508 C 377,444 397,411 428,410 L 1163,1116 C 1174,1127 1196,1133 1229,1133 1271,1133 1292,1118 1292,1087 L 1292,965 C 1292,929 1282,901 1262,881 L 442,47 C 390,-6 338,-33 285,-33 Z"
   id="path8" />
  </g>
  <g
   id="bullet-char-template-9679"
   transform="scale(0.00048828125,-0.00048828125)">
   <path
   d="M 813,0 C 632,0 489,54 383,161 276,268 223,411 223,592 223,773 276,916 383,1023 489,1130 632,1184 813,1184 992,1184 1136,1130 1245,1023 1353,916 1407,772 1407,592 1407,412 1353,268 1245,161 1136,54 992,0 813,0 Z"
   id="path9" />
  </g>
  <g
   id="bullet-char-template-8226"
   transform="scale(0.00048828125,-0.00048828125)">
   <path
   d="M 346,457 C 273,457 209,483 155,535 101,586 74,649 74,723 74,796 101,859 155,911 209,963 273,989 346,989 419,989 480,963 531,910 582,859 608,796 608,723 608,648 583,586 532,535 482,483 420,457 346,457 Z"
   id="path10" />
  </g>
  <g
   id="bullet-char-template-8211"
   transform="scale(0.00048828125,-0.00048828125)">
   <path
   d="M -4,459 L 1135,459 1135,606 -4,606 -4,459 Z"
   id="path11" />
  </g>
  <g
   id="bullet-char-template-61548"
   transform="scale(0.00048828125,-0.00048828125)">
   <path
   d="M 173,740 C 173,903 231,1043 346,1159 462,1274 601,1332 765,1332 928,1332 1067,1274 1183,1159 1299,1043 1357,903 1357,740 1357,577 1299,437 1183,322 1067,206 928,148 765,148 601,148 462,206 346,322 231,437 173,577 173,740 Z"
   id="path12" />
  </g>
 </defs>
 
 <path
   id="path13"
   d="M 5888.7878 900.77188 C 5875.7697 900.76065 5862.2026 901.19962 5848.0151 902.01212 C 5674.5652 911.22185 5514.1607 958.75406 5439.4095 1048.1531 C 5434.4564 1052.6155 5430.2446 1057.845 5427.0072 1064.0177 C 5426.5536 1064.9004 5425.8891 1065.9506 5425.4052 1066.8599 C 5421.495 1072.7789 5417.95 1078.8553 5414.7599 1085.1017 C 5317.7763 1241.2773 4925.6451 1655.5135 4808.9571 1791.3118 C 4805.3066 1795.3073 4801.7564 1799.5452 4798.2084 1803.7659 C 4794.7964 1807.8295 4788.6989 1814.6423 4786.0127 1817.9769 C 4783.7202 1820.8227 4781.6705 1824.1113 4779.7082 1827.4853 C 4766.141 1846.1118 4753.207 1866.3794 4741.0026 1888.9803 C 4659.0026 2039.9803 4671.9746 2250.983 4733.9746 2352.983 C 4789.5171 2444.3595 4907.6369 2418.4749 5015.0427 2356.0319 C 5185.2606 2271.5331 5874.4318 1637.9863 5966.9742 1446.0099 C 5967.039 1445.8764 5967.0652 1445.7301 5967.1293 1445.5965 C 6010.6866 1375.1631 6041.7767 1303.6347 6059.9918 1250.0012 C 6147.1793 995.93871 6084.0588 900.94034 5888.7878 900.77188 z M 7118.9969 2006.9576 C 7105.931 2006.8843 7092.2675 2007.2411 7078.0175 2007.9911 C 6894.271 2018.514 6726.2822 2071.0011 6657.7848 2169.635 C 6653.7457 2173.1173 6650.2453 2177.0266 6648.0179 2181.9857 C 6540.5914 2429.3922 5575.0601 3855.5089 5069.613 4677.3372 C 4507.6314 4202.8758 3600.639 3233.5716 3374.0059 2425.0199 C 3373.5417 2423.3241 3372.7614 2422.0498 3372.2489 2420.4207 C 3370.491 2414.6707 3368.4262 2409.2238 3366.0994 2403.9876 C 3365.7814 2403.3335 3365.4455 2402.6639 3365.1176 2402.0239 C 3333.7253 2334.3788 3253.9608 2309.9542 3129.008 2315.9826 C 2903.008 2328.9826 2700.0096 2407.0197 2679.0096 2556.0197 C 2660.4322 2676.3688 2671.8947 2859.9315 2731.2545 2986.1743 C 2978.3759 3608.1282 4145.9519 4935.329 4714.8543 5448.5563 C 4560.993 6269.1061 4684.3193 7812.1705 4706.6894 8351.6349 C 4703.0358 8496.1986 4733.7409 8677.7309 4818.0005 8770.9891 C 4914.0005 8876.9891 4986.9794 8851.0239 5120.9794 8752.0239 C 5254.9794 8653.0239 5342.0179 8477.0135 5378.0179 8371.0135 C 5406.6304 8287.9451 5418.9931 8221.8524 5415.8451 8170.4573 C 5415.8583 8169.9713 5415.9935 8169.497 5416.0001 8169.0104 C 5422.0001 7504.0104 5100.9869 5886.9881 5336.9869 5316.9881 C 5571.9869 4745.9881 7034.0188 2867.015 7226.0188 2505.015 C 7227.0044 2503.1037 7227.3894 2501.0124 7228.0859 2499.0206 C 7256.0165 2446.99 7277.0328 2396.9595 7290.9761 2357.0137 C 7377.2261 2103.8887 7314.9857 2008.0562 7118.9969 2006.9576 z " />
   
  
</svg>
