<?xml version="1.0" encoding="UTF-8" standalone="no"?>
<svg
   version="1.2"
   width="100mm"
   height="100mm"
   viewBox="0 0 10000 10000"
   preserveAspectRatio="xMidYMid"
   fill-rule="evenodd"
   stroke-width="28.222"
   stroke-linejoin="round"
   xml:space="preserve"
   id="svg29"
   sodipodi:docname="gobo-caps-00C6.svg"
   inkscape:version="1.4 (86a8ad7, 2024-10-11)"
   xmlns:inkscape="http://www.inkscape.org/namespaces/inkscape"
   xmlns:sodipodi="http://sodipodi.sourceforge.net/DTD/sodipodi-0.dtd"
   xmlns="http://www.w3.org/2000/svg"
   xmlns:svg="http://www.w3.org/2000/svg"
   xmlns:ooo="http://xml.openoffice.org/svg/export"><sodipodi:namedview
   id="namedview29"
   pagecolor="#ffffff"
   bordercolor="#000000"
   borderopacity="0.25"
   inkscape:showpageshadow="2"
   inkscape:pageopacity="0.0"
   inkscape:pagecheckerboard="0"
   inkscape:deskcolor="#d1d1d1"
   inkscape:document-units="mm"
   showgrid="false"
   inkscape:zoom="3.0876875"
   inkscape:cx="188.81444"
   inkscape:cy="188.97638"
   inkscape:window-width="2560"
   inkscape:window-height="1369"
   inkscape:window-x="-8"
   inkscape:window-y="-8"
   inkscape:window-maximized="1"
   inkscape:current-layer="svg29" />
 <defs
   class="ClipPathGroup"
   id="defs2">
  
  <clipPath
   id="presentation_clip_path_shrink"
   clipPathUnits="userSpaceOnUse">
   <rect
   x="10"
   y="10"
   width="9980"
   height="9980"
   id="rect2" />
  </clipPath>
 
  
 
   
  
    
   
     
    
      
      
      
      
      
      
      
      
      
      
      
      
      
      
     
       
      
       
      
       
      
       
      
       
      
       
      
       
      
       
      
       
      
       
      
       
      
       
      
       
      
       
      
        
        
       
        
        
       
        
        
       
        
        
       
        
        
       
        
        
       
        
        
       
        
        
       
        
        
       
        
        
       
        
        
       
        
        
       
        
        
       
        
        
       </defs>
 <defs
   class="TextShapeIndex"
   id="defs3">
  <g
   ooo:slide="id1"
   ooo:id-list="id3 id4 id5 id6 id7 id8 id9 id10 id11 id12 id13 id14 id15 id16"
   id="g2" />
 </defs>
 <defs
   class="EmbeddedBulletChars"
   id="defs12">
  <g
   id="bullet-char-template-57356"
   transform="scale(0.00048828125,-0.00048828125)">
   <path
   d="M 580,1141 L 1163,571 580,0 -4,571 580,1141 Z"
   id="path3" />
  </g>
  <g
   id="bullet-char-template-57354"
   transform="scale(0.00048828125,-0.00048828125)">
   <path
   d="M 8,1128 L 1137,1128 1137,0 8,0 8,1128 Z"
   id="path4" />
  </g>
  <g
   id="bullet-char-template-10146"
   transform="scale(0.00048828125,-0.00048828125)">
   <path
   d="M 174,0 L 602,739 174,1481 1456,739 174,0 Z M 1358,739 L 309,1346 659,739 1358,739 Z"
   id="path5" />
  </g>
  <g
   id="bullet-char-template-10132"
   transform="scale(0.00048828125,-0.00048828125)">
   <path
   d="M 2015,739 L 1276,0 717,0 1260,543 174,543 174,936 1260,936 717,1481 1274,1481 2015,739 Z"
   id="path6" />
  </g>
  <g
   id="bullet-char-template-10007"
   transform="scale(0.00048828125,-0.00048828125)">
   <path
   d="M 0,-2 C -7,14 -16,27 -25,37 L 356,567 C 262,823 215,952 215,954 215,979 228,992 255,992 264,992 276,990 289,987 310,991 331,999 354,1012 L 381,999 492,748 772,1049 836,1024 860,1049 C 881,1039 901,1025 922,1006 886,937 835,863 770,784 769,783 710,716 594,584 L 774,223 C 774,196 753,168 711,139 L 727,119 C 717,90 699,76 672,76 641,76 570,178 457,381 L 164,-76 C 142,-110 111,-127 72,-127 30,-127 9,-110 8,-76 1,-67 -2,-52 -2,-32 -2,-23 -1,-13 0,-2 Z"
   id="path7" />
  </g>
  <g
   id="bullet-char-template-10004"
   transform="scale(0.00048828125,-0.00048828125)">
   <path
   d="M 285,-33 C 182,-33 111,30 74,156 52,228 41,333 41,471 41,549 55,616 82,672 116,743 169,778 240,778 293,778 328,747 346,684 L 369,508 C 377,444 397,411 428,410 L 1163,1116 C 1174,1127 1196,1133 1229,1133 1271,1133 1292,1118 1292,1087 L 1292,965 C 1292,929 1282,901 1262,881 L 442,47 C 390,-6 338,-33 285,-33 Z"
   id="path8" />
  </g>
  <g
   id="bullet-char-template-9679"
   transform="scale(0.00048828125,-0.00048828125)">
   <path
   d="M 813,0 C 632,0 489,54 383,161 276,268 223,411 223,592 223,773 276,916 383,1023 489,1130 632,1184 813,1184 992,1184 1136,1130 1245,1023 1353,916 1407,772 1407,592 1407,412 1353,268 1245,161 1136,54 992,0 813,0 Z"
   id="path9" />
  </g>
  <g
   id="bullet-char-template-8226"
   transform="scale(0.00048828125,-0.00048828125)">
   <path
   d="M 346,457 C 273,457 209,483 155,535 101,586 74,649 74,723 74,796 101,859 155,911 209,963 273,989 346,989 419,989 480,963 531,910 582,859 608,796 608,723 608,648 583,586 532,535 482,483 420,457 346,457 Z"
   id="path10" />
  </g>
  <g
   id="bullet-char-template-8211"
   transform="scale(0.00048828125,-0.00048828125)">
   <path
   d="M -4,459 L 1135,459 1135,606 -4,606 -4,459 Z"
   id="path11" />
  </g>
  <g
   id="bullet-char-template-61548"
   transform="scale(0.00048828125,-0.00048828125)">
   <path
   d="M 173,740 C 173,903 231,1043 346,1159 462,1274 601,1332 765,1332 928,1332 1067,1274 1183,1159 1299,1043 1357,903 1357,740 1357,577 1299,437 1183,322 1067,206 928,148 765,148 601,148 462,206 346,322 231,437 173,577 173,740 Z"
   id="path12" />
  </g>
 </defs>
 
 <path
   id="path13"
   d="M 8864.0067 1867.9997 C 8850.9337 1867.9262 8837.2256 1868.2315 8822.9756 1868.9815 C 8811.288 1869.6568 8799.7022 1870.6418 8788.1457 1871.6687 C 8471.4096 1876.3291 7177.3344 1918.6741 6392.9947 2016.001 C 5571.9947 2119.001 4802.9857 2266.9818 4254.9857 2372.9818 C 4249.5795 2373.763 4244.3691 2375.3462 4239.3794 2377.581 C 4115.2309 2408.3385 4016.9467 2464.3202 3982.5476 2547.8031 C 3730.4017 3111.5653 3075.5102 4273.2531 2599.9963 5262.0044 C 2122.9482 6244.7431 1194.1447 8198.3125 964.90234 8676.5246 C 948.71345 8699.8033 938.00315 8725.5831 933.99983 8753.9876 C 911.99983 8902.9876 934.99096 9149.0004 1036.991 9263.0004 C 1132.991 9369.0004 1206.0034 9342.9835 1341.0034 9243.9835 C 1471.4847 9147.8394 1558.5202 8975.8417 1595.7682 8870.2079 C 1693.6244 8625.0307 1885.9227 8180.9009 2100.9053 7696.5327 C 2351.4592 7602.6607 2804.1036 7448.9854 3359.0197 7298.9859 C 3890.2668 7139.0032 4415.9604 7026.7452 4839.3428 6950.8418 C 4784.0951 7247.3659 4708.6396 7482.0767 4650.9822 7838.0228 C 4553.9822 8443.0228 4782.0022 8975.9891 5806.0022 8770.9891 C 6827.0022 8563.9891 8437.9946 8446.0016 8596.9946 8440.0016 C 8606.1683 8439.5977 8616.1128 8436.1497 8626.5018 8430.5448 C 8666.6589 8418.5215 8711.1489 8390.4882 8765.9765 8349.9812 C 8899.9765 8251.9812 8987.0151 8075.0226 9023.0151 7969.0226 C 9116.0151 7699.0226 9038.0048 7608.9999 8810.0048 7619.9999 C 8777.7889 7621.8531 8746.1571 7625.203 8715.3336 7629.7151 C 8342.563 7660.3484 7478.2979 7750.5044 6973.9929 7833.0102 C 6430.9929 7921.0102 5754.014 8134.9783 5401.014 8016.9783 C 5139.014 7930.9783 5264.0044 7846.9898 5430.0044 6939.9898 C 5483.9303 6643.5608 5510.0913 6152.2203 5520.0765 5608.5982 C 5770.8551 5533.1648 6106.848 5448.7749 6410.9781 5404.0112 C 6874.9781 5337.0112 8006.9775 5268.9921 8241.9775 5293.9921 C 8247.3719 5294.5223 8252.8161 5294.1132 8258.2556 5293.7337 C 8312.5455 5299.0062 8370.6229 5265.9701 8451.0086 5207.0206 C 8585.0086 5110.0206 8671.9955 4932.0103 8707.9955 4826.0103 C 8797.0539 4565.6115 8727.7236 4472.0285 8516.3793 4477.1944 C 8515.2032 4477.2168 8514.2216 4476.9242 8513.0204 4476.9877 C 8509.5962 4477.1816 8503.4338 4477.6156 8499.9462 4477.8145 C 8498.2738 4477.8921 8496.6743 4477.9323 8494.9853 4478.0212 C 8491.2374 4478.2368 8487.5583 4478.5972 8483.8232 4478.848 C 8013.933 4505.8615 7009.761 4575.1833 6287.0064 4704.9841 C 5851.7127 4782.567 5679.1016 4811.5064 5523.9522 4846.6292 C 5519.8453 4010.8295 5491.6506 3219.1382 5472.7408 2892.2265 C 5473.1293 2888.9556 5473.5792 2885.6431 5473.8777 2882.4597 C 5776.6074 2823.4285 6089.1078 2770.8106 6366.0196 2742.0032 C 7131.0196 2663.0032 8381.021 2677.0167 8587.021 2690.0167 C 8591.2784 2690.1349 8596.1076 2688.5434 8601.1804 2686.1926 C 8651.2985 2684.7465 8705.916 2652.6087 8778.999 2599.0145 C 8912.999 2501.0145 9000.9859 2323.986 9035.9859 2218.986 C 9123.1734 1964.9235 9060.1017 1869.102 8864.0067 1867.9997 z M 4766.014 3033.9233 C 4765.5529 3078.0262 4768.293 3124.7802 4774.6439 3171.1759 C 4774.44 3182.9378 4774.8301 3194.8653 4775.9875 3206.9877 C 4877.6838 3957.7452 4924.6566 5352.0848 4912.0516 6165.1534 C 4369.9097 6318.0063 3916.0123 6454.8229 3316.025 6620.0093 C 2922.4027 6736.5954 2693.9455 6799.78 2481.3989 6851.003 C 2685.0093 6408.0756 2880.1629 5996.78 3017.0251 5732.9834 C 3358.0623 5069.6571 4015.3883 3690.6926 4379.6293 3125.959 C 4489.7658 3098.9829 4606.6933 3070.693 4766.014 3033.9233 z " />
   
  
</svg>
