<?xml version="1.0" encoding="UTF-8" standalone="no"?>
<svg
   version="1.2"
   width="100mm"
   height="100mm"
   viewBox="0 0 10000 10000"
   preserveAspectRatio="xMidYMid"
   fill-rule="evenodd"
   stroke-width="28.222"
   stroke-linejoin="round"
   xml:space="preserve"
   id="svg29"
   sodipodi:docname="gobo-caps-00E6.svg"
   inkscape:version="1.4 (86a8ad7, 2024-10-11)"
   xmlns:inkscape="http://www.inkscape.org/namespaces/inkscape"
   xmlns:sodipodi="http://sodipodi.sourceforge.net/DTD/sodipodi-0.dtd"
   xmlns="http://www.w3.org/2000/svg"
   xmlns:svg="http://www.w3.org/2000/svg"
   xmlns:ooo="http://xml.openoffice.org/svg/export"><sodipodi:namedview
   id="namedview29"
   pagecolor="#ffffff"
   bordercolor="#000000"
   borderopacity="0.25"
   inkscape:showpageshadow="2"
   inkscape:pageopacity="0.0"
   inkscape:pagecheckerboard="0"
   inkscape:deskcolor="#d1d1d1"
   inkscape:document-units="mm"
   showgrid="false"
   inkscape:zoom="3.0876875"
   inkscape:cx="188.81444"
   inkscape:cy="188.97638"
   inkscape:window-width="2560"
   inkscape:window-height="1369"
   inkscape:window-x="-8"
   inkscape:window-y="-8"
   inkscape:window-maximized="1"
   inkscape:current-layer="svg29" />
 <defs
   class="ClipPathGroup"
   id="defs2">
  
  <clipPath
   id="presentation_clip_path_shrink"
   clipPathUnits="userSpaceOnUse">
   <rect
   x="10"
   y="10"
   width="9980"
   height="9980"
   id="rect2" />
  </clipPath>
 
  
 
   
  
    
   
     
    
      
      
      
      
      
      
      
      
      
      
      
      
      
      
     
       
      
       
      
       
      
       
      
       
      
       
      
       
      
       
      
       
      
       
      
       
      
       
      
       
      
       
      
        
        
       
        
        
       
        
        
       
        
        
       
        
        
       
        
        
       
        
        
       
        
        
       
        
        
       
        
        
       
        
        
       
        
        
       
        
        
       
        
        
       </defs>
 <defs
   class="TextShapeIndex"
   id="defs3">
  <g
   ooo:slide="id1"
   ooo:id-list="id3 id4 id5 id6 id7 id8 id9 id10 id11 id12 id13 id14 id15 id16"
   id="g2" />
 </defs>
 <defs
   class="EmbeddedBulletChars"
   id="defs12">
  <g
   id="bullet-char-template-57356"
   transform="scale(0.00048828125,-0.00048828125)">
   <path
   d="M 580,1141 L 1163,571 580,0 -4,571 580,1141 Z"
   id="path3" />
  </g>
  <g
   id="bullet-char-template-57354"
   transform="scale(0.00048828125,-0.00048828125)">
   <path
   d="M 8,1128 L 1137,1128 1137,0 8,0 8,1128 Z"
   id="path4" />
  </g>
  <g
   id="bullet-char-template-10146"
   transform="scale(0.00048828125,-0.00048828125)">
   <path
   d="M 174,0 L 602,739 174,1481 1456,739 174,0 Z M 1358,739 L 309,1346 659,739 1358,739 Z"
   id="path5" />
  </g>
  <g
   id="bullet-char-template-10132"
   transform="scale(0.00048828125,-0.00048828125)">
   <path
   d="M 2015,739 L 1276,0 717,0 1260,543 174,543 174,936 1260,936 717,1481 1274,1481 2015,739 Z"
   id="path6" />
  </g>
  <g
   id="bullet-char-template-10007"
   transform="scale(0.00048828125,-0.00048828125)">
   <path
   d="M 0,-2 C -7,14 -16,27 -25,37 L 356,567 C 262,823 215,952 215,954 215,979 228,992 255,992 264,992 276,990 289,987 310,991 331,999 354,1012 L 381,999 492,748 772,1049 836,1024 860,1049 C 881,1039 901,1025 922,1006 886,937 835,863 770,784 769,783 710,716 594,584 L 774,223 C 774,196 753,168 711,139 L 727,119 C 717,90 699,76 672,76 641,76 570,178 457,381 L 164,-76 C 142,-110 111,-127 72,-127 30,-127 9,-110 8,-76 1,-67 -2,-52 -2,-32 -2,-23 -1,-13 0,-2 Z"
   id="path7" />
  </g>
  <g
   id="bullet-char-template-10004"
   transform="scale(0.00048828125,-0.00048828125)">
   <path
   d="M 285,-33 C 182,-33 111,30 74,156 52,228 41,333 41,471 41,549 55,616 82,672 116,743 169,778 240,778 293,778 328,747 346,684 L 369,508 C 377,444 397,411 428,410 L 1163,1116 C 1174,1127 1196,1133 1229,1133 1271,1133 1292,1118 1292,1087 L 1292,965 C 1292,929 1282,901 1262,881 L 442,47 C 390,-6 338,-33 285,-33 Z"
   id="path8" />
  </g>
  <g
   id="bullet-char-template-9679"
   transform="scale(0.00048828125,-0.00048828125)">
   <path
   d="M 813,0 C 632,0 489,54 383,161 276,268 223,411 223,592 223,773 276,916 383,1023 489,1130 632,1184 813,1184 992,1184 1136,1130 1245,1023 1353,916 1407,772 1407,592 1407,412 1353,268 1245,161 1136,54 992,0 813,0 Z"
   id="path9" />
  </g>
  <g
   id="bullet-char-template-8226"
   transform="scale(0.00048828125,-0.00048828125)">
   <path
   d="M 346,457 C 273,457 209,483 155,535 101,586 74,649 74,723 74,796 101,859 155,911 209,963 273,989 346,989 419,989 480,963 531,910 582,859 608,796 608,723 608,648 583,586 532,535 482,483 420,457 346,457 Z"
   id="path10" />
  </g>
  <g
   id="bullet-char-template-8211"
   transform="scale(0.00048828125,-0.00048828125)">
   <path
   d="M -4,459 L 1135,459 1135,606 -4,606 -4,459 Z"
   id="path11" />
  </g>
  <g
   id="bullet-char-template-61548"
   transform="scale(0.00048828125,-0.00048828125)">
   <path
   d="M 173,740 C 173,903 231,1043 346,1159 462,1274 601,1332 765,1332 928,1332 1067,1274 1183,1159 1299,1043 1357,903 1357,740 1357,577 1299,437 1183,322 1067,206 928,148 765,148 601,148 462,206 346,322 231,437 173,577 173,740 Z"
   id="path12" />
  </g>
 </defs>
 
 <path
   id="path13"
   d="M 8269.8311 2899.823 C 8256.813 2899.8047 8243.1942 2900.199 8229.0067 2901.0115 C 8223.4882 2901.3046 8218.0635 2901.8294 8212.5736 2902.2001 C 7915.4667 2908.136 7014.6862 2958.1939 6384.9849 3037.0239 C 5760.3664 3114.6337 5060.186 3218.4082 4525.2018 3316.5934 C 4358.6153 3335.6743 4213.1947 3392.0284 4158.4542 3488.5726 C 3952.0707 3789.6263 3149.0706 4929.5852 2796.005 5544.9845 C 2449.0384 6148.784 1617.8948 7613.6861 1548.6393 7791.0489 C 1538.1995 7809.8586 1531.0995 7830.1288 1528.0204 7851.9754 C 1506.0204 8000.9754 1529.0115 8246.9883 1631.0115 8360.9883 C 1727.0115 8466.9883 1800.024 8441.023 1935.024 8342.023 C 2028.5068 8273.141 2099.6369 8165.279 2146.2256 8070.7735 C 2209.8524 7954.2153 2330.6002 7701.2341 2475.9729 7397.1195 C 2502.1808 7387.0665 2530.582 7370.6157 2562.5309 7348.9054 C 2759.5685 7238.4404 3079.9753 7049.81 3655.0224 6913.0147 C 4144.6026 6797.4795 4441.778 6745.4558 4679.6626 6718.4529 C 4658.1244 6815.5174 4636.9795 6917.0913 4618.0127 7033.9892 C 4520.0127 7639.9892 4758.0141 8168.9764 5737.0141 7962.9764 C 6707.2332 7759.3992 7818.9991 7691.3062 7990.1582 7683.5103 C 8045.0106 7689.6524 8103.7494 7656.5719 8184.9784 7597.0039 C 8317.9784 7500.0039 8405.0169 7321.9754 8442.0169 7216.9754 C 8534.0169 6946.9754 8457.0067 6856.0045 8229.0067 6868.0045 C 8185.9401 6870.4709 8143.7446 6875.2423 8103.4846 6882.3706 C 7774.0258 6911.8744 7247.3192 6976.6649 6843.975 7036.9864 C 6399.975 7101.9864 5721.0109 7330.9782 5367.0109 7213.9782 C 5116.3943 7130.4394 5222.2787 7042.6902 5378.0179 6233.4696 C 5379.0069 6230.6639 5380.0931 6227.7098 5381.0152 6224.9947 C 5412.009 6135.0127 5423.8674 6065.0177 5417.6538 6011.9844 C 5427.0686 5952.3856 5435.6887 5892.4737 5443.3886 5832.1504 C 5704.0804 5746.626 6081.116 5641.4852 6412.0117 5592.9919 C 6875.0117 5525.9919 7486.012 5525.0153 7719.012 5549.0153 C 7722.7011 5549.392 7726.4119 5548.909 7730.1224 5548.8602 C 7783.8813 5553.2115 7841.5445 5520.2707 7921.0152 5461.9921 C 8055.0152 5364.9921 8142.0021 5186.9818 8178.0021 5080.9818 C 8271.0021 4811.9818 8192.9918 4720.9927 7964.9918 4732.9927 C 7947.4723 4734.0005 7930.1743 4735.5529 7913.0053 4737.3335 C 7441.426 4763.4175 6639.7287 4803.6186 6128.9799 4917.0125 C 5803.7656 4988.4748 5658.6085 5017.4826 5502.0931 5055.6087 C 5515.7908 4616.5022 5500.4096 4206.3606 5481.9909 3900.072 C 5807.9399 3840.2051 6131.6589 3786.5944 6355.9944 3761.9926 C 6893.9944 3705.9926 7795.0075 3707.9796 8004.0075 3719.9796 C 8008.1638 3720.135 8012.8535 3718.6603 8017.8051 3716.414 C 8065.0813 3710.9745 8117.2053 3679.7112 8184.9784 3630.011 C 8317.9784 3532.011 8404.9834 3355.0006 8440.9834 3249.0006 C 8528.1709 2995.8756 8465.1021 2900.0976 8269.8311 2899.823 z M 4768.5978 4039.9601 C 4771.0357 4056.5024 4773.7869 4072.9467 4777.1761 4089.1561 C 4816.4869 4474.7597 4890.8748 4565.5835 4877.9968 5368.9746 C 4875.0583 5585.3528 4861.942 5761.1602 4842.7018 5915.1428 C 4501.5137 5976.8786 3959.7777 6113.1028 3456.9983 6262.9768 C 3234.0591 6328.8526 3077.4361 6380.8362 2952.3262 6425.5509 C 3013.9424 6304.9413 3075.0611 6187.3468 3134.0206 6079.0087 C 3468.3988 5461.5013 4164.6832 4537.5426 4520.7059 4093.4452 C 4592.3153 4077.394 4676.1551 4059.3316 4768.5978 4039.9601 z " />
   
  
</svg>
