<?xml version="1.0" encoding="UTF-8" standalone="no"?>
<svg
   version="1.2"
   width="100mm"
   height="100mm"
   viewBox="0 0 10000 10000"
   preserveAspectRatio="xMidYMid"
   fill-rule="evenodd"
   stroke-width="28.222"
   stroke-linejoin="round"
   xml:space="preserve"
   id="svg24"
   sodipodi:docname="gobo-caps-00C5.svg"
   inkscape:version="1.4 (86a8ad7, 2024-10-11)"
   xmlns:inkscape="http://www.inkscape.org/namespaces/inkscape"
   xmlns:sodipodi="http://sodipodi.sourceforge.net/DTD/sodipodi-0.dtd"
   xmlns="http://www.w3.org/2000/svg"
   xmlns:svg="http://www.w3.org/2000/svg"
   xmlns:ooo="http://xml.openoffice.org/svg/export"><sodipodi:namedview
   id="namedview24"
   pagecolor="#ffffff"
   bordercolor="#000000"
   borderopacity="0.25"
   inkscape:showpageshadow="2"
   inkscape:pageopacity="0.0"
   inkscape:pagecheckerboard="0"
   inkscape:deskcolor="#d1d1d1"
   inkscape:document-units="mm"
   showgrid="false"
   inkscape:zoom="3.0876875"
   inkscape:cx="188.81444"
   inkscape:cy="188.97638"
   inkscape:window-width="2560"
   inkscape:window-height="1369"
   inkscape:window-x="-8"
   inkscape:window-y="-8"
   inkscape:window-maximized="1"
   inkscape:current-layer="svg24" />
 <defs
   class="ClipPathGroup"
   id="defs2">
  
  <clipPath
   id="presentation_clip_path_shrink"
   clipPathUnits="userSpaceOnUse">
   <rect
   x="10"
   y="10"
   width="9980"
   height="9980"
   id="rect2" />
  </clipPath>
 
  
 
   
  
    
   
     
    
      
      
      
      
      
      
      
      
      
     
       
      
       
      
       
      
       
      
       
      
       
      
       
      
       
      
       
      
        
        
       
        
        
       
        
        
       
        
        
       
        
        
       
        
        
       
        
        
       
        
        
       
        
        
       </defs>
 <defs
   class="TextShapeIndex"
   id="defs3">
  <g
   ooo:slide="id1"
   ooo:id-list="id3 id4 id5 id6 id7 id8 id9 id10 id11"
   id="g2" />
 </defs>
 <defs
   class="EmbeddedBulletChars"
   id="defs12">
  <g
   id="bullet-char-template-57356"
   transform="scale(0.00048828125,-0.00048828125)">
   <path
   d="M 580,1141 L 1163,571 580,0 -4,571 580,1141 Z"
   id="path3" />
  </g>
  <g
   id="bullet-char-template-57354"
   transform="scale(0.00048828125,-0.00048828125)">
   <path
   d="M 8,1128 L 1137,1128 1137,0 8,0 8,1128 Z"
   id="path4" />
  </g>
  <g
   id="bullet-char-template-10146"
   transform="scale(0.00048828125,-0.00048828125)">
   <path
   d="M 174,0 L 602,739 174,1481 1456,739 174,0 Z M 1358,739 L 309,1346 659,739 1358,739 Z"
   id="path5" />
  </g>
  <g
   id="bullet-char-template-10132"
   transform="scale(0.00048828125,-0.00048828125)">
   <path
   d="M 2015,739 L 1276,0 717,0 1260,543 174,543 174,936 1260,936 717,1481 1274,1481 2015,739 Z"
   id="path6" />
  </g>
  <g
   id="bullet-char-template-10007"
   transform="scale(0.00048828125,-0.00048828125)">
   <path
   d="M 0,-2 C -7,14 -16,27 -25,37 L 356,567 C 262,823 215,952 215,954 215,979 228,992 255,992 264,992 276,990 289,987 310,991 331,999 354,1012 L 381,999 492,748 772,1049 836,1024 860,1049 C 881,1039 901,1025 922,1006 886,937 835,863 770,784 769,783 710,716 594,584 L 774,223 C 774,196 753,168 711,139 L 727,119 C 717,90 699,76 672,76 641,76 570,178 457,381 L 164,-76 C 142,-110 111,-127 72,-127 30,-127 9,-110 8,-76 1,-67 -2,-52 -2,-32 -2,-23 -1,-13 0,-2 Z"
   id="path7" />
  </g>
  <g
   id="bullet-char-template-10004"
   transform="scale(0.00048828125,-0.00048828125)">
   <path
   d="M 285,-33 C 182,-33 111,30 74,156 52,228 41,333 41,471 41,549 55,616 82,672 116,743 169,778 240,778 293,778 328,747 346,684 L 369,508 C 377,444 397,411 428,410 L 1163,1116 C 1174,1127 1196,1133 1229,1133 1271,1133 1292,1118 1292,1087 L 1292,965 C 1292,929 1282,901 1262,881 L 442,47 C 390,-6 338,-33 285,-33 Z"
   id="path8" />
  </g>
  <g
   id="bullet-char-template-9679"
   transform="scale(0.00048828125,-0.00048828125)">
   <path
   d="M 813,0 C 632,0 489,54 383,161 276,268 223,411 223,592 223,773 276,916 383,1023 489,1130 632,1184 813,1184 992,1184 1136,1130 1245,1023 1353,916 1407,772 1407,592 1407,412 1353,268 1245,161 1136,54 992,0 813,0 Z"
   id="path9" />
  </g>
  <g
   id="bullet-char-template-8226"
   transform="scale(0.00048828125,-0.00048828125)">
   <path
   d="M 346,457 C 273,457 209,483 155,535 101,586 74,649 74,723 74,796 101,859 155,911 209,963 273,989 346,989 419,989 480,963 531,910 582,859 608,796 608,723 608,648 583,586 532,535 482,483 420,457 346,457 Z"
   id="path10" />
  </g>
  <g
   id="bullet-char-template-8211"
   transform="scale(0.00048828125,-0.00048828125)">
   <path
   d="M -4,459 L 1135,459 1135,606 -4,606 -4,459 Z"
   id="path11" />
  </g>
  <g
   id="bullet-char-template-61548"
   transform="scale(0.00048828125,-0.00048828125)">
   <path
   d="M 173,740 C 173,903 231,1043 346,1159 462,1274 601,1332 765,1332 928,1332 1067,1274 1183,1159 1299,1043 1357,903 1357,740 1357,577 1299,437 1183,322 1067,206 928,148 765,148 601,148 462,206 346,322 231,437 173,577 173,740 Z"
   id="path12" />
  </g>
 </defs>
 
 <path
   id="path13"
   d="M 5120.9277 899.53165 C 5092.6071 899.4899 5063.6329 900.91332 5034.0079 903.97582 C 4559.0079 953.97582 4135.0235 1365.0202 4102.0235 1827.0202 C 4075.0091 2205.2211 4216.3748 2522.895 4618.4777 2598.3427 C 4407.0133 3193.6566 4084.1262 4057.8492 3744.0092 4954.9947 C 3353.1284 5978.8244 2588.3722 8001.9162 2405.3312 8484.2366 C 2397.7703 8500.1354 2392.5133 8517.0317 2389.9833 8534.9828 C 2367.9833 8683.9828 2390.9744 8929.9957 2492.9744 9043.9957 C 2588.9744 9149.9957 2661.9869 9123.9788 2796.9869 9024.9788 C 2902.3848 8947.3172 2979.3825 8820.1719 3024.7766 8718.4342 C 3029.8848 8711.3258 3034.5205 8703.738 3038.0058 8695.0248 C 3041.0707 8684.6258 3047.0122 8666.3377 3050.4081 8655.0272 C 3051.6047 8651.6896 3052.9257 8648.2095 3054.0254 8645.002 C 3062.6316 8619.9238 3069.7254 8596.401 3075.4195 8574.3603 C 3075.494 8574.0719 3075.6039 8573.7696 3075.6779 8573.4818 C 3151.2164 8328.971 3282.8678 7934.7674 3430.9017 7501.7643 C 3689.9752 7407.3753 4198.9958 7243.6364 4770.9749 7089.0246 C 5381.9749 6905.0246 5986.0077 6783.0143 6435.0077 6708.0143 C 6435.1819 6708.0025 6435.3502 6707.9233 6435.5244 6707.9109 C 6671.0226 7470.1281 6867.6416 8180.2886 6950.9969 8382.6407 C 6967.711 8428.358 6989.3493 8469.108 7016.9877 8499.9979 C 7113.9877 8604.9979 7186.0001 8579.981 7321.0001 8480.981 C 7455.0001 8382.981 7542.0052 8206.0223 7577.0052 8100.0223 C 7609.5781 8005.4556 7621.1065 7932.8744 7612.7136 7879.0022 C 7613.1148 7874.6053 7612.913 7870.6096 7611.9901 7867.0133 C 7521.9901 7525.0133 6837.9942 5502.9964 6486.9942 4672.9964 C 6193.0202 3974.7028 5710.5162 2900.057 5475.0663 2429.154 C 5733.6932 2249.9577 5853.5784 1963.7258 5840.0052 1668.9937 C 5820.3177 1241.4937 5545.736 900.15787 5120.9277 899.53165 z M 4983.0033 1386.9954 C 5245.0033 1381.9954 5385.0072 1630.0021 5427.0072 1828.0021 C 5469.0072 2026.0021 5267.0227 2144.9767 4962.0227 2116.9767 C 4657.0227 2088.9767 4447.9782 1921.9984 4505.9782 1719.9984 C 4563.9782 1517.9984 4721.0033 1391.9954 4983.0033 1386.9954 z M 4985.5354 3304.9662 C 5215.5687 3744.0594 5555.2252 4392.3115 5857.0068 5068.011 C 5972.1597 5328.6337 6090.2176 5649.7872 6204.8409 5988.9884 C 5714.8566 6128.1618 5284.0484 6256.3079 4729.0136 6409.9963 C 4271.3854 6545.3417 3991.1484 6616.6945 3716.724 6677.7836 C 3897.4673 6169.4764 4075.2731 5688.7398 4200.002 5387.9915 C 4415.2004 4863.2333 4721.4621 3962.7906 4985.5354 3304.9662 z " />
   
  
</svg>
