<?xml version="1.0" encoding="UTF-8" standalone="no"?>
<svg
   version="1.2"
   width="100mm"
   height="100mm"
   viewBox="0 0 10000 10000"
   preserveAspectRatio="xMidYMid"
   fill-rule="evenodd"
   stroke-width="28.222"
   stroke-linejoin="round"
   xml:space="preserve"
   id="svg24"
   sodipodi:docname="gobo-caps-00A3.svg"
   inkscape:version="1.4 (86a8ad7, 2024-10-11)"
   xmlns:inkscape="http://www.inkscape.org/namespaces/inkscape"
   xmlns:sodipodi="http://sodipodi.sourceforge.net/DTD/sodipodi-0.dtd"
   xmlns="http://www.w3.org/2000/svg"
   xmlns:svg="http://www.w3.org/2000/svg"
   xmlns:ooo="http://xml.openoffice.org/svg/export"><sodipodi:namedview
   id="namedview24"
   pagecolor="#ffffff"
   bordercolor="#000000"
   borderopacity="0.25"
   inkscape:showpageshadow="2"
   inkscape:pageopacity="0.0"
   inkscape:pagecheckerboard="0"
   inkscape:deskcolor="#d1d1d1"
   inkscape:document-units="mm"
   showgrid="false"
   inkscape:zoom="3.0876875"
   inkscape:cx="188.81444"
   inkscape:cy="188.97638"
   inkscape:window-width="2560"
   inkscape:window-height="1369"
   inkscape:window-x="-8"
   inkscape:window-y="-8"
   inkscape:window-maximized="1"
   inkscape:current-layer="svg24" />
 <defs
   class="ClipPathGroup"
   id="defs2">
  
  <clipPath
   id="presentation_clip_path_shrink"
   clipPathUnits="userSpaceOnUse">
   <rect
   x="10"
   y="10"
   width="9980"
   height="9980"
   id="rect2" />
  </clipPath>
 
  
 
   
  
    
   
     
    
      
      
      
      
      
      
      
      
      
     
       
      
       
      
       
      
       
      
       
      
       
      
       
      
       
      
       
      
        
        
       
        
        
       
        
        
       
        
        
       
        
        
       
        
        
       
        
        
       
        
        
       
        
        
       </defs>
 <defs
   class="TextShapeIndex"
   id="defs3">
  <g
   ooo:slide="id1"
   ooo:id-list="id3 id4 id5 id6 id7 id8 id9 id10 id11"
   id="g2" />
 </defs>
 <defs
   class="EmbeddedBulletChars"
   id="defs12">
  <g
   id="bullet-char-template-57356"
   transform="scale(0.00048828125,-0.00048828125)">
   <path
   d="M 580,1141 L 1163,571 580,0 -4,571 580,1141 Z"
   id="path3" />
  </g>
  <g
   id="bullet-char-template-57354"
   transform="scale(0.00048828125,-0.00048828125)">
   <path
   d="M 8,1128 L 1137,1128 1137,0 8,0 8,1128 Z"
   id="path4" />
  </g>
  <g
   id="bullet-char-template-10146"
   transform="scale(0.00048828125,-0.00048828125)">
   <path
   d="M 174,0 L 602,739 174,1481 1456,739 174,0 Z M 1358,739 L 309,1346 659,739 1358,739 Z"
   id="path5" />
  </g>
  <g
   id="bullet-char-template-10132"
   transform="scale(0.00048828125,-0.00048828125)">
   <path
   d="M 2015,739 L 1276,0 717,0 1260,543 174,543 174,936 1260,936 717,1481 1274,1481 2015,739 Z"
   id="path6" />
  </g>
  <g
   id="bullet-char-template-10007"
   transform="scale(0.00048828125,-0.00048828125)">
   <path
   d="M 0,-2 C -7,14 -16,27 -25,37 L 356,567 C 262,823 215,952 215,954 215,979 228,992 255,992 264,992 276,990 289,987 310,991 331,999 354,1012 L 381,999 492,748 772,1049 836,1024 860,1049 C 881,1039 901,1025 922,1006 886,937 835,863 770,784 769,783 710,716 594,584 L 774,223 C 774,196 753,168 711,139 L 727,119 C 717,90 699,76 672,76 641,76 570,178 457,381 L 164,-76 C 142,-110 111,-127 72,-127 30,-127 9,-110 8,-76 1,-67 -2,-52 -2,-32 -2,-23 -1,-13 0,-2 Z"
   id="path7" />
  </g>
  <g
   id="bullet-char-template-10004"
   transform="scale(0.00048828125,-0.00048828125)">
   <path
   d="M 285,-33 C 182,-33 111,30 74,156 52,228 41,333 41,471 41,549 55,616 82,672 116,743 169,778 240,778 293,778 328,747 346,684 L 369,508 C 377,444 397,411 428,410 L 1163,1116 C 1174,1127 1196,1133 1229,1133 1271,1133 1292,1118 1292,1087 L 1292,965 C 1292,929 1282,901 1262,881 L 442,47 C 390,-6 338,-33 285,-33 Z"
   id="path8" />
  </g>
  <g
   id="bullet-char-template-9679"
   transform="scale(0.00048828125,-0.00048828125)">
   <path
   d="M 813,0 C 632,0 489,54 383,161 276,268 223,411 223,592 223,773 276,916 383,1023 489,1130 632,1184 813,1184 992,1184 1136,1130 1245,1023 1353,916 1407,772 1407,592 1407,412 1353,268 1245,161 1136,54 992,0 813,0 Z"
   id="path9" />
  </g>
  <g
   id="bullet-char-template-8226"
   transform="scale(0.00048828125,-0.00048828125)">
   <path
   d="M 346,457 C 273,457 209,483 155,535 101,586 74,649 74,723 74,796 101,859 155,911 209,963 273,989 346,989 419,989 480,963 531,910 582,859 608,796 608,723 608,648 583,586 532,535 482,483 420,457 346,457 Z"
   id="path10" />
  </g>
  <g
   id="bullet-char-template-8211"
   transform="scale(0.00048828125,-0.00048828125)">
   <path
   d="M -4,459 L 1135,459 1135,606 -4,606 -4,459 Z"
   id="path11" />
  </g>
  <g
   id="bullet-char-template-61548"
   transform="scale(0.00048828125,-0.00048828125)">
   <path
   d="M 173,740 C 173,903 231,1043 346,1159 462,1274 601,1332 765,1332 928,1332 1067,1274 1183,1159 1299,1043 1357,903 1357,740 1357,577 1299,437 1183,322 1067,206 928,148 765,148 601,148 462,206 346,322 231,437 173,577 173,740 Z"
   id="path12" />
  </g>
 </defs>
 
 <path
   id="path13"
   d="M 5202.9899 2425.8467 C 4190.7237 2410.0405 3470.7051 3372.0422 3525.9863 4522.9797 C 3532.7452 4654.9339 3535.2932 4785.6803 3535.4431 4915.3072 C 3449.4238 4924.0471 3383.0659 4930.2895 3290.6002 4943.0574 C 3075.8448 4960.5378 2888.1358 5037.057 2867.9903 5179.9939 C 2844.9903 5329.9939 2867.9996 5575.0067 2969.9996 5689.0067 C 3021.0384 5744.7811 3065.1526 5763.9257 3115.3137 5755.2042 C 3118.5785 5755.9642 3121.7844 5756.0504 3124.9772 5754.9975 C 3232.32 5719.6034 3352.4769 5687.6218 3503.5071 5656.8123 C 3485.5604 5859.9942 3460.6048 6055.3519 3430.7466 6241.4794 C 3311.4263 6254.2843 3240.4114 6259.8131 3128.4912 6275.3275 C 2914.9477 6293.2921 2728.0487 6369.7826 2708.0001 6512.9874 C 2685.0001 6661.9874 2707.9912 6908.0003 2810.9912 7022.0003 C 2863.0088 7079.4364 2908.3057 7098.0595 2960.181 7087.371 C 2962.1251 7087.3939 2964.1036 7087.6347 2966.0205 7087.0092 C 3053.8215 7058.222 3150.8575 7031.2893 3267.0874 7005.4121 C 3205.4015 7228.5927 3137.9904 7421.7392 3069.9935 7574.9898 C 2805.9935 8170.9898 2962.025 8579.9998 3316.025 8553.9998 C 3669.025 8526.9998 4224.0254 8487.9881 4791.0254 8491.9881 C 5357.0254 8495.9881 6503.0163 8442.9828 7098.0163 7731.9828 C 7105.2054 7723.422 7110.5763 7714.0294 7115.0695 7704.2325 C 7187.6125 7612.8633 7237.05 7505.4225 7261.9856 7432.0011 C 7354.9856 7162.0011 7276.9754 7070.9785 7048.9754 7082.9785 C 6856.0919 7094.0735 6680.0755 7151.8529 6619.5442 7261.7789 C 6042.0913 8075.8747 4646.964 7516.4811 3676.003 7870.0105 C 3483.003 7941.0105 3578.9759 7711.0184 3611.9759 7656.0184 C 3742.3353 7396.7766 3840.3633 7144.9409 3914.1797 6901.0257 C 4248.6841 6863.9411 4648 6840.7879 4776.556 6843.975 C 4829.756 6847.4025 4887.0721 6814.5918 4965.0199 6757.0035 C 5099.0199 6659.0035 5186.0068 6481.9932 5222.0068 6375.9932 C 5315.0068 6105.9932 5236.9965 6016.0223 5008.9965 6027.0223 C 4995.3745 6027.8058 4981.8507 6028.8657 4968.4305 6030.1228 C 4967.9351 6030.1693 4967.4271 6030.1791 4966.9319 6030.2262 C 4958.1371 6030.651 4949.5746 6030.8102 4940.0085 6031.9832 C 4586.9112 6075.2805 4360.1072 6113.588 4075.7202 6156.0066 C 4104.0228 5950.9671 4118.9901 5753.3676 4126.9315 5562.8645 C 4450.0822 5529.5744 4815.5297 5508.7675 4936.6495 5511.0331 C 4989.6894 5514.1662 5046.786 5481.3743 5125.0101 5424.01 C 5259.0101 5327.01 5345.997 5148.9996 5381.997 5042.9996 C 5474.997 4773.9996 5396.9868 4683.0105 5168.9868 4695.0105 C 5162.1326 4695.4048 5155.382 4696.0486 5148.5746 4696.5608 C 5133.6051 4696.2054 5117.5285 4696.8772 5099.9987 4698.9896 C 4708.5601 4747.816 4466.4275 4789.5555 4134.838 4838.0509 C 4133.5248 4606.1778 4132.9941 4387.4781 4148.9974 4186.9795 C 4220.9139 3312.9935 4655.9996 2971.9199 5086.5112 3231.2239 C 5170.6717 3306.3449 5242.2112 3277.0307 5364.9955 3186.9889 C 5497.9955 3088.9889 5585.0005 2911.9786 5621.0005 2805.9786 C 5695.4382 2589.8691 5660.2292 2488.5794 5526.8461 2463.3638 C 5526.5349 2463.2925 5526.3347 2463.0678 5526.0192 2463.0021 C 5415.5817 2439.5646 5307.7071 2427.4819 5202.9899 2425.8467 z " />
   
  
</svg>
