<?xml version="1.0" encoding="UTF-8" standalone="no"?>
<svg
   version="1.2"
   width="100mm"
   height="100mm"
   viewBox="0 0 10000 10000"
   preserveAspectRatio="xMidYMid"
   fill-rule="evenodd"
   stroke-width="28.222"
   stroke-linejoin="round"
   xml:space="preserve"
   id="svg19"
   sodipodi:docname="gobo-caps-00A9.svg"
   inkscape:version="1.4 (86a8ad7, 2024-10-11)"
   xmlns:inkscape="http://www.inkscape.org/namespaces/inkscape"
   xmlns:sodipodi="http://sodipodi.sourceforge.net/DTD/sodipodi-0.dtd"
   xmlns="http://www.w3.org/2000/svg"
   xmlns:svg="http://www.w3.org/2000/svg"
   xmlns:ooo="http://xml.openoffice.org/svg/export"><sodipodi:namedview
   id="namedview19"
   pagecolor="#ffffff"
   bordercolor="#000000"
   borderopacity="0.25"
   inkscape:showpageshadow="2"
   inkscape:pageopacity="0.0"
   inkscape:pagecheckerboard="0"
   inkscape:deskcolor="#d1d1d1"
   inkscape:document-units="mm"
   showgrid="false"
   inkscape:zoom="3.0876875"
   inkscape:cx="188.81444"
   inkscape:cy="188.97638"
   inkscape:window-width="2560"
   inkscape:window-height="1369"
   inkscape:window-x="-8"
   inkscape:window-y="-8"
   inkscape:window-maximized="1"
   inkscape:current-layer="svg19" />
 <defs
   class="ClipPathGroup"
   id="defs2">
  
  <clipPath
   id="presentation_clip_path_shrink"
   clipPathUnits="userSpaceOnUse">
   <rect
   x="10"
   y="10"
   width="9980"
   height="9980"
   id="rect2" />
  </clipPath>
 
  
 
   
  
    
   
     
    
      
      
      
      
     
       
      
       
      
       
      
       
      
        
        
       
        
        
       
        
        
       
        
        
       </defs>
 <defs
   class="TextShapeIndex"
   id="defs3">
  <g
   ooo:slide="id1"
   ooo:id-list="id3 id4 id5 id6"
   id="g2" />
 </defs>
 <defs
   class="EmbeddedBulletChars"
   id="defs12">
  <g
   id="bullet-char-template-57356"
   transform="scale(0.00048828125,-0.00048828125)">
   <path
   d="M 580,1141 L 1163,571 580,0 -4,571 580,1141 Z"
   id="path3" />
  </g>
  <g
   id="bullet-char-template-57354"
   transform="scale(0.00048828125,-0.00048828125)">
   <path
   d="M 8,1128 L 1137,1128 1137,0 8,0 8,1128 Z"
   id="path4" />
  </g>
  <g
   id="bullet-char-template-10146"
   transform="scale(0.00048828125,-0.00048828125)">
   <path
   d="M 174,0 L 602,739 174,1481 1456,739 174,0 Z M 1358,739 L 309,1346 659,739 1358,739 Z"
   id="path5" />
  </g>
  <g
   id="bullet-char-template-10132"
   transform="scale(0.00048828125,-0.00048828125)">
   <path
   d="M 2015,739 L 1276,0 717,0 1260,543 174,543 174,936 1260,936 717,1481 1274,1481 2015,739 Z"
   id="path6" />
  </g>
  <g
   id="bullet-char-template-10007"
   transform="scale(0.00048828125,-0.00048828125)">
   <path
   d="M 0,-2 C -7,14 -16,27 -25,37 L 356,567 C 262,823 215,952 215,954 215,979 228,992 255,992 264,992 276,990 289,987 310,991 331,999 354,1012 L 381,999 492,748 772,1049 836,1024 860,1049 C 881,1039 901,1025 922,1006 886,937 835,863 770,784 769,783 710,716 594,584 L 774,223 C 774,196 753,168 711,139 L 727,119 C 717,90 699,76 672,76 641,76 570,178 457,381 L 164,-76 C 142,-110 111,-127 72,-127 30,-127 9,-110 8,-76 1,-67 -2,-52 -2,-32 -2,-23 -1,-13 0,-2 Z"
   id="path7" />
  </g>
  <g
   id="bullet-char-template-10004"
   transform="scale(0.00048828125,-0.00048828125)">
   <path
   d="M 285,-33 C 182,-33 111,30 74,156 52,228 41,333 41,471 41,549 55,616 82,672 116,743 169,778 240,778 293,778 328,747 346,684 L 369,508 C 377,444 397,411 428,410 L 1163,1116 C 1174,1127 1196,1133 1229,1133 1271,1133 1292,1118 1292,1087 L 1292,965 C 1292,929 1282,901 1262,881 L 442,47 C 390,-6 338,-33 285,-33 Z"
   id="path8" />
  </g>
  <g
   id="bullet-char-template-9679"
   transform="scale(0.00048828125,-0.00048828125)">
   <path
   d="M 813,0 C 632,0 489,54 383,161 276,268 223,411 223,592 223,773 276,916 383,1023 489,1130 632,1184 813,1184 992,1184 1136,1130 1245,1023 1353,916 1407,772 1407,592 1407,412 1353,268 1245,161 1136,54 992,0 813,0 Z"
   id="path9" />
  </g>
  <g
   id="bullet-char-template-8226"
   transform="scale(0.00048828125,-0.00048828125)">
   <path
   d="M 346,457 C 273,457 209,483 155,535 101,586 74,649 74,723 74,796 101,859 155,911 209,963 273,989 346,989 419,989 480,963 531,910 582,859 608,796 608,723 608,648 583,586 532,535 482,483 420,457 346,457 Z"
   id="path10" />
  </g>
  <g
   id="bullet-char-template-8211"
   transform="scale(0.00048828125,-0.00048828125)">
   <path
   d="M -4,459 L 1135,459 1135,606 -4,606 -4,459 Z"
   id="path11" />
  </g>
  <g
   id="bullet-char-template-61548"
   transform="scale(0.00048828125,-0.00048828125)">
   <path
   d="M 173,740 C 173,903 231,1043 346,1159 462,1274 601,1332 765,1332 928,1332 1067,1274 1183,1159 1299,1043 1357,903 1357,740 1357,577 1299,437 1183,322 1067,206 928,148 765,148 601,148 462,206 346,322 231,437 173,577 173,740 Z"
   id="path12" />
  </g>
 </defs>
 
 <path
   id="path13"
   d="M 5601.6735 2100.647 C 5499.4628 2099.5383 5394.5782 2104.5574 5287.0157 2115.9949 C 3565.0157 2299.9949 2012.976 3934.9788 1874.976 5849.9788 C 1735.976 7764.9788 2931.9999 8989.9854 4911.9999 8830.9854 C 6891.9999 8670.9854 8212.9919 7107.9973 8132.9919 5250.9973 C 8057.9919 3510.9973 7134.8339 2117.2766 5601.6735 2100.647 z M 5442.9752 2822.9284 C 6690.026 2833.8122 7440.5033 4256.8522 7523.0033 5664.9772 C 7610.0033 7165.9772 6056.9762 8145.0026 4918.9762 8084.0026 C 3781.9762 8023.0026 2330.9827 7576.9788 2483.9827 5849.9788 C 2635.9827 4122.9788 3787.0219 3035.9817 5187.0219 2839.9817 C 5274.5219 2827.7317 5359.8385 2822.2029 5442.9752 2822.9284 z M 5290.6331 3321.1409 C 5205.2913 3319.6077 5116.0009 3325.5028 5023.0009 3340.0028 C 4279.0009 3456.0028 3411.9815 4347.9793 3138.9815 5587.9793 C 2865.9815 6827.9793 3758.9958 7707.0067 4766.9958 7594.0067 C 5774.9958 7481.0067 6080.9913 7162.9894 6321.9913 6902.9894 C 6325.936 6898.7098 6328.9252 6893.7411 6331.4481 6888.4167 C 6407.0155 6795.2515 6458.4327 6684.2748 6483.9969 6609.0022 C 6576.9969 6339.0022 6499.0202 6248.9796 6272.0202 6259.9796 C 6085.3026 6270.72 5913.6986 6325.8954 5847.8084 6428.7548 C 5846.9053 6429.5688 5845.9053 6430.1226 5845.0179 6430.9769 C 5648.0179 6667.9769 5370.0017 6842.0239 4798.0017 6847.0239 C 4226.0017 6852.0239 3698.0258 6267.9969 3726.0258 5680.9969 C 3755.0258 5094.9969 3899.0239 4881.0236 4307.0239 4438.0236 C 4709.8449 4000.647 5453.4981 3861.1183 5730.2445 4537.0874 C 5748.0463 4609.6019 5776.1295 4675.7582 5817.0092 4721.0038 C 5913.0092 4827.0038 5985.9882 4800.9869 6119.9882 4701.9869 C 6253.9882 4603.9869 6340.975 4426.9765 6376.975 4320.9765 C 6416.4042 4206.5048 6424.9907 4124.5261 6404.6219 4068.7439 C 6404.427 4062.3272 6403.6764 4056.3303 6401.9864 4051.0188 C 6290.8614 3707.1438 5888.0257 3331.8733 5290.6331 3321.1409 z " />
   
  
</svg>
