<?xml version="1.0" encoding="UTF-8" standalone="no"?>
<svg
   version="1.2"
   width="100mm"
   height="100mm"
   viewBox="0 0 10000 10000"
   preserveAspectRatio="xMidYMid"
   fill-rule="evenodd"
   stroke-width="28.222"
   stroke-linejoin="round"
   xml:space="preserve"
   id="svg21"
   sodipodi:docname="gobo-caps-00BB.svg"
   inkscape:version="1.4 (86a8ad7, 2024-10-11)"
   xmlns:inkscape="http://www.inkscape.org/namespaces/inkscape"
   xmlns:sodipodi="http://sodipodi.sourceforge.net/DTD/sodipodi-0.dtd"
   xmlns="http://www.w3.org/2000/svg"
   xmlns:svg="http://www.w3.org/2000/svg"
   xmlns:ooo="http://xml.openoffice.org/svg/export"><sodipodi:namedview
   id="namedview21"
   pagecolor="#ffffff"
   bordercolor="#000000"
   borderopacity="0.25"
   inkscape:showpageshadow="2"
   inkscape:pageopacity="0.0"
   inkscape:pagecheckerboard="0"
   inkscape:deskcolor="#d1d1d1"
   inkscape:document-units="mm"
   showgrid="false"
   inkscape:zoom="3.0876875"
   inkscape:cx="188.81444"
   inkscape:cy="188.97638"
   inkscape:window-width="2560"
   inkscape:window-height="1369"
   inkscape:window-x="-8"
   inkscape:window-y="-8"
   inkscape:window-maximized="1"
   inkscape:current-layer="svg21" />
 <defs
   class="ClipPathGroup"
   id="defs2">
  
  <clipPath
   id="presentation_clip_path_shrink"
   clipPathUnits="userSpaceOnUse">
   <rect
   x="10"
   y="10"
   width="9980"
   height="9980"
   id="rect2" />
  </clipPath>
 
  
 
   
  
    
   
     
    
      
      
      
      
      
      
     
       
      
       
      
       
      
       
      
       
      
       
      
        
        
       
        
        
       
        
        
       
        
        
       
        
        
       
        
        
       </defs>
 <defs
   class="TextShapeIndex"
   id="defs3">
  <g
   ooo:slide="id1"
   ooo:id-list="id3 id4 id5 id6 id7 id8"
   id="g2" />
 </defs>
 <defs
   class="EmbeddedBulletChars"
   id="defs12">
  <g
   id="bullet-char-template-57356"
   transform="scale(0.00048828125,-0.00048828125)">
   <path
   d="M 580,1141 L 1163,571 580,0 -4,571 580,1141 Z"
   id="path3" />
  </g>
  <g
   id="bullet-char-template-57354"
   transform="scale(0.00048828125,-0.00048828125)">
   <path
   d="M 8,1128 L 1137,1128 1137,0 8,0 8,1128 Z"
   id="path4" />
  </g>
  <g
   id="bullet-char-template-10146"
   transform="scale(0.00048828125,-0.00048828125)">
   <path
   d="M 174,0 L 602,739 174,1481 1456,739 174,0 Z M 1358,739 L 309,1346 659,739 1358,739 Z"
   id="path5" />
  </g>
  <g
   id="bullet-char-template-10132"
   transform="scale(0.00048828125,-0.00048828125)">
   <path
   d="M 2015,739 L 1276,0 717,0 1260,543 174,543 174,936 1260,936 717,1481 1274,1481 2015,739 Z"
   id="path6" />
  </g>
  <g
   id="bullet-char-template-10007"
   transform="scale(0.00048828125,-0.00048828125)">
   <path
   d="M 0,-2 C -7,14 -16,27 -25,37 L 356,567 C 262,823 215,952 215,954 215,979 228,992 255,992 264,992 276,990 289,987 310,991 331,999 354,1012 L 381,999 492,748 772,1049 836,1024 860,1049 C 881,1039 901,1025 922,1006 886,937 835,863 770,784 769,783 710,716 594,584 L 774,223 C 774,196 753,168 711,139 L 727,119 C 717,90 699,76 672,76 641,76 570,178 457,381 L 164,-76 C 142,-110 111,-127 72,-127 30,-127 9,-110 8,-76 1,-67 -2,-52 -2,-32 -2,-23 -1,-13 0,-2 Z"
   id="path7" />
  </g>
  <g
   id="bullet-char-template-10004"
   transform="scale(0.00048828125,-0.00048828125)">
   <path
   d="M 285,-33 C 182,-33 111,30 74,156 52,228 41,333 41,471 41,549 55,616 82,672 116,743 169,778 240,778 293,778 328,747 346,684 L 369,508 C 377,444 397,411 428,410 L 1163,1116 C 1174,1127 1196,1133 1229,1133 1271,1133 1292,1118 1292,1087 L 1292,965 C 1292,929 1282,901 1262,881 L 442,47 C 390,-6 338,-33 285,-33 Z"
   id="path8" />
  </g>
  <g
   id="bullet-char-template-9679"
   transform="scale(0.00048828125,-0.00048828125)">
   <path
   d="M 813,0 C 632,0 489,54 383,161 276,268 223,411 223,592 223,773 276,916 383,1023 489,1130 632,1184 813,1184 992,1184 1136,1130 1245,1023 1353,916 1407,772 1407,592 1407,412 1353,268 1245,161 1136,54 992,0 813,0 Z"
   id="path9" />
  </g>
  <g
   id="bullet-char-template-8226"
   transform="scale(0.00048828125,-0.00048828125)">
   <path
   d="M 346,457 C 273,457 209,483 155,535 101,586 74,649 74,723 74,796 101,859 155,911 209,963 273,989 346,989 419,989 480,963 531,910 582,859 608,796 608,723 608,648 583,586 532,535 482,483 420,457 346,457 Z"
   id="path10" />
  </g>
  <g
   id="bullet-char-template-8211"
   transform="scale(0.00048828125,-0.00048828125)">
   <path
   d="M -4,459 L 1135,459 1135,606 -4,606 -4,459 Z"
   id="path11" />
  </g>
  <g
   id="bullet-char-template-61548"
   transform="scale(0.00048828125,-0.00048828125)">
   <path
   d="M 173,740 C 173,903 231,1043 346,1159 462,1274 601,1332 765,1332 928,1332 1067,1274 1183,1159 1299,1043 1357,903 1357,740 1357,577 1299,437 1183,322 1067,206 928,148 765,148 601,148 462,206 346,322 231,437 173,577 173,740 Z"
   id="path12" />
  </g>
 </defs>
 
 <path
   id="path13"
   d="M 5141.0815 3154.1744 C 5135.8452 3154.3034 5130.5101 3154.5637 5125.0101 3155.0012 C 4950.0101 3170.0012 4842.0195 3228.0185 4760.0195 3379.0185 C 4679.0195 3530.0185 4692.025 3739.9877 4754.025 3841.9877 C 4759.3306 3850.7161 4765.25 3858.3233 4771.6467 3864.9837 C 4771.7994 3865.2906 4771.8486 3865.7181 4772.0084 3866.0172 C 5190.0084 4382.0172 5773.0117 5271.9931 5777.0117 5572.9931 C 5780.865 5862.9588 5306.4901 6949.161 5042.7929 7431.7427 C 5034.2807 7444.7246 5025.97 7458.2823 5017.9882 7472.9805 C 4936.9882 7623.9805 4949.9938 7834.0013 5011.9938 7936.0013 C 5073.9938 8038.0013 5215.0105 7994.0025 5330.0105 7916.0025 C 5408.8146 7861.6549 5474.6003 7794.7543 5519.0946 7702.6306 C 5520.4818 7701.1355 5522.0045 7699.6955 5523.022 7697.9797 C 5526.0568 7689.6772 5529.3094 7681.4208 5532.3754 7673.1233 C 5535.3625 7665.8319 5538.1158 7658.2905 5540.8504 7650.6957 C 5541.4943 7648.9697 5542.1689 7647.2539 5542.8141 7645.5281 C 5542.8264 7645.4927 5542.8534 7645.4601 5542.8658 7645.4247 C 5841.7109 6846.1101 6278.2028 6076.8726 6424.9825 5752.0003 C 6492.9825 5602.0003 6554.0074 5234.0242 6398.0074 4979.0242 C 6214.0074 4667.0242 5460.0047 3614.0215 5299.0047 3245.0215 C 5298.5815 3244.2629 5298.0432 3243.7903 5297.6094 3243.0578 C 5272.0868 3186.8903 5222.3715 3152.1708 5141.0815 3154.1744 z M 3942.0849 3308.1701 C 3936.8486 3308.2992 3931.5136 3308.5595 3926.0136 3308.997 C 3751.0136 3323.997 3643.0229 3382.0143 3561.0229 3533.0143 C 3480.0229 3684.0143 3492.9768 3893.9834 3554.9768 3995.9834 C 3562.4185 4008.2263 3571.0719 4018.2945 3580.6083 4026.5242 C 3997.8252 4544.2922 4571.0503 5421.4514 4575.0179 5720.0126 C 4578.8155 6005.7819 4117.9341 7065.5637 3852.1679 7558.1433 C 3840.6278 7574.6439 3829.577 7592.4975 3818.9917 7611.9901 C 3737.9917 7762.9901 3750.9972 7973.0109 3812.9972 8075.0109 C 3874.9972 8177.0109 4016.014 8133.0121 4131.014 8055.0121 C 4228.7336 7987.6193 4306.4239 7900.8616 4348.2617 7770.6367 C 4646.8013 6970.8422 5075.958 6224.4476 5222.9886 5899.0197 C 5290.9886 5749.0197 5352.0136 5380.992 5196.0136 5125.992 C 5012.0136 4813.992 4258.0109 3760.9893 4097.0109 3391.9893 C 4096.1519 3390.4493 4095.0712 3389.4428 4094.1687 3388.0102 C 4067.5136 3337.1918 4018.9189 3306.2764 3942.0849 3308.1701 z " />
   
  
</svg>
