<?xml version="1.0" encoding="UTF-8" standalone="no"?>
<svg
   version="1.2"
   width="100mm"
   height="100mm"
   viewBox="0 0 10000 10000"
   preserveAspectRatio="xMidYMid"
   fill-rule="evenodd"
   stroke-width="28.222"
   stroke-linejoin="round"
   xml:space="preserve"
   id="svg28"
   sodipodi:docname="gobo-caps-00BE.svg"
   inkscape:version="1.4 (86a8ad7, 2024-10-11)"
   xmlns:inkscape="http://www.inkscape.org/namespaces/inkscape"
   xmlns:sodipodi="http://sodipodi.sourceforge.net/DTD/sodipodi-0.dtd"
   xmlns="http://www.w3.org/2000/svg"
   xmlns:svg="http://www.w3.org/2000/svg"
   xmlns:ooo="http://xml.openoffice.org/svg/export"><sodipodi:namedview
   id="namedview28"
   pagecolor="#ffffff"
   bordercolor="#000000"
   borderopacity="0.25"
   inkscape:showpageshadow="2"
   inkscape:pageopacity="0.0"
   inkscape:pagecheckerboard="0"
   inkscape:deskcolor="#d1d1d1"
   inkscape:document-units="mm"
   showgrid="false"
   inkscape:zoom="3.0876875"
   inkscape:cx="188.81444"
   inkscape:cy="188.97638"
   inkscape:window-width="2560"
   inkscape:window-height="1369"
   inkscape:window-x="-8"
   inkscape:window-y="-8"
   inkscape:window-maximized="1"
   inkscape:current-layer="svg28" />
 <defs
   class="ClipPathGroup"
   id="defs2">
  
  <clipPath
   id="presentation_clip_path_shrink"
   clipPathUnits="userSpaceOnUse">
   <rect
   x="10"
   y="10"
   width="9980"
   height="9980"
   id="rect2" />
  </clipPath>
 
  
 
   
  
    
   
     
    
      
      
      
      
      
      
      
      
      
      
      
      
      
     
       
      
       
      
       
      
       
      
       
      
       
      
       
      
       
      
       
      
       
      
       
      
       
      
       
      
        
        
       
        
        
       
        
        
       
        
        
       
        
        
       
        
        
       
        
        
       
        
        
       
        
        
       
        
        
       
        
        
       
        
        
       
        
        
       </defs>
 <defs
   class="TextShapeIndex"
   id="defs3">
  <g
   ooo:slide="id1"
   ooo:id-list="id3 id4 id5 id6 id7 id8 id9 id10 id11 id12 id13 id14 id15"
   id="g2" />
 </defs>
 <defs
   class="EmbeddedBulletChars"
   id="defs12">
  <g
   id="bullet-char-template-57356"
   transform="scale(0.00048828125,-0.00048828125)">
   <path
   d="M 580,1141 L 1163,571 580,0 -4,571 580,1141 Z"
   id="path3" />
  </g>
  <g
   id="bullet-char-template-57354"
   transform="scale(0.00048828125,-0.00048828125)">
   <path
   d="M 8,1128 L 1137,1128 1137,0 8,0 8,1128 Z"
   id="path4" />
  </g>
  <g
   id="bullet-char-template-10146"
   transform="scale(0.00048828125,-0.00048828125)">
   <path
   d="M 174,0 L 602,739 174,1481 1456,739 174,0 Z M 1358,739 L 309,1346 659,739 1358,739 Z"
   id="path5" />
  </g>
  <g
   id="bullet-char-template-10132"
   transform="scale(0.00048828125,-0.00048828125)">
   <path
   d="M 2015,739 L 1276,0 717,0 1260,543 174,543 174,936 1260,936 717,1481 1274,1481 2015,739 Z"
   id="path6" />
  </g>
  <g
   id="bullet-char-template-10007"
   transform="scale(0.00048828125,-0.00048828125)">
   <path
   d="M 0,-2 C -7,14 -16,27 -25,37 L 356,567 C 262,823 215,952 215,954 215,979 228,992 255,992 264,992 276,990 289,987 310,991 331,999 354,1012 L 381,999 492,748 772,1049 836,1024 860,1049 C 881,1039 901,1025 922,1006 886,937 835,863 770,784 769,783 710,716 594,584 L 774,223 C 774,196 753,168 711,139 L 727,119 C 717,90 699,76 672,76 641,76 570,178 457,381 L 164,-76 C 142,-110 111,-127 72,-127 30,-127 9,-110 8,-76 1,-67 -2,-52 -2,-32 -2,-23 -1,-13 0,-2 Z"
   id="path7" />
  </g>
  <g
   id="bullet-char-template-10004"
   transform="scale(0.00048828125,-0.00048828125)">
   <path
   d="M 285,-33 C 182,-33 111,30 74,156 52,228 41,333 41,471 41,549 55,616 82,672 116,743 169,778 240,778 293,778 328,747 346,684 L 369,508 C 377,444 397,411 428,410 L 1163,1116 C 1174,1127 1196,1133 1229,1133 1271,1133 1292,1118 1292,1087 L 1292,965 C 1292,929 1282,901 1262,881 L 442,47 C 390,-6 338,-33 285,-33 Z"
   id="path8" />
  </g>
  <g
   id="bullet-char-template-9679"
   transform="scale(0.00048828125,-0.00048828125)">
   <path
   d="M 813,0 C 632,0 489,54 383,161 276,268 223,411 223,592 223,773 276,916 383,1023 489,1130 632,1184 813,1184 992,1184 1136,1130 1245,1023 1353,916 1407,772 1407,592 1407,412 1353,268 1245,161 1136,54 992,0 813,0 Z"
   id="path9" />
  </g>
  <g
   id="bullet-char-template-8226"
   transform="scale(0.00048828125,-0.00048828125)">
   <path
   d="M 346,457 C 273,457 209,483 155,535 101,586 74,649 74,723 74,796 101,859 155,911 209,963 273,989 346,989 419,989 480,963 531,910 582,859 608,796 608,723 608,648 583,586 532,535 482,483 420,457 346,457 Z"
   id="path10" />
  </g>
  <g
   id="bullet-char-template-8211"
   transform="scale(0.00048828125,-0.00048828125)">
   <path
   d="M -4,459 L 1135,459 1135,606 -4,606 -4,459 Z"
   id="path11" />
  </g>
  <g
   id="bullet-char-template-61548"
   transform="scale(0.00048828125,-0.00048828125)">
   <path
   d="M 173,740 C 173,903 231,1043 346,1159 462,1274 601,1332 765,1332 928,1332 1067,1274 1183,1159 1299,1043 1357,903 1357,740 1357,577 1299,437 1183,322 1067,206 928,148 765,148 601,148 462,206 346,322 231,437 173,577 173,740 Z"
   id="path12" />
  </g>
 </defs>
 
 <path
   id="path13"
   d="M 3506.3493 2899.7713 C 3246.6088 2904.2798 2951.7703 2994.5796 2706.6565 3127.0959 C 2706.1744 3127.351 2705.6896 3127.6147 2705.2095 3127.8711 C 2705.1422 3127.9076 2705.0702 3127.9379 2705.0028 3127.9744 L 2704.9512 3128.0261 C 2631.6201 3167.2595 2581.8029 3221.3721 2571.9877 3291.0136 C 2548.9877 3440.0136 2571.9788 3685.9747 2674.9788 3799.9747 C 2770.9788 3905.9747 2844.0094 3880.0095 2978.0094 3781.0095 C 3104.0094 3689.0095 3215.0035 3586.9805 3414.0035 3662.9805 C 3608.5873 3736.9224 3334.4425 3799.5506 3167.4552 3866.4306 C 3144.971 3872.6802 3123.9695 3880.4689 3104.0999 3889.6334 C 3100.0748 3891.1359 3096.0289 3892.4356 3092.0076 3893.9742 C 3088.4351 3895.6436 3084.8968 3898.1281 3081.3623 3901.1055 C 3017.2688 3936.3338 2966.4488 3990.0221 2923.0257 4069.9841 C 2842.0257 4220.9841 2854.9796 4431.0049 2916.9796 4533.0049 C 2968.3409 4617.5026 3073.9205 4601.6561 3174.0181 4549.438 C 3632.648 4423.5017 3822.7167 4716.1509 3866.9991 4872.9842 C 3913.414 5037.3705 3398.8665 4955.8285 3202.0784 4801.9808 C 3162.1261 4759.4447 3090.5229 4744.0936 2989.0165 4749.0124 C 2763.0165 4762.0124 2558.9846 4839.9978 2537.9846 4988.9978 C 2514.9846 5137.9978 2537.9757 5384.0106 2640.9757 5498.0106 C 2647.4795 5505.1919 2653.8806 5511.6597 2660.1994 5517.6477 C 2662.841 5522.3562 2666.0438 5526.5541 2670.0179 5529.9983 C 2835.0179 5648.9983 3073.022 5765.983 3618.022 5695.983 C 4163.022 5625.983 4605.0231 5325.9957 4532.0231 4598.9957 C 4496.7318 4252.283 4316.5857 4019.1043 4066.8318 3896.9714 C 4138.8807 3756.1043 4172.9946 3592.8425 4154.01 3402.9964 C 4117.4475 3030.6214 3841.0455 2893.9617 3506.3493 2899.7713 z M 7035.7979 2961.9897 C 7022.7798 2961.9165 7009.2127 2962.2733 6995.0252 2963.0233 C 6816.0671 2973.3173 6650.9773 3023.754 6579.5467 3118.776 C 6579.0771 3119.2402 6578.426 3119.5061 6577.9964 3120.0163 C 6371.9964 3392.0163 5348.9752 4786.0106 4807.9752 5498.0106 C 4268.9752 6211.0106 3438.0022 7216.0076 3266.0022 7537.0076 C 3263.6272 7540.6537 3261.9671 7544.7744 3260.7829 7549.2032 C 3252.4306 7565.9686 3246.6827 7583.8789 3243.988 7602.9984 C 3220.988 7752.9984 3243.9973 7998.0112 3345.9973 8112.0112 C 3442.9973 8218.0112 3514.9916 8191.9943 3650.9916 8092.9943 C 3702.4149 8055.1034 3746.884 8005.3784 3784.2651 7952.5378 C 3790.2712 7947.1961 3795.9842 7941.2515 3801.0083 7933.9859 C 3934.0083 7696.9859 4761.0105 6491.0098 5330.0105 5723.0098 C 5897.0105 4957.0098 6830.0258 3848.9756 7069.0258 3574.9756 C 7071.8969 3571.724 7073.8871 3568.0054 7075.382 3563.9685 C 7139.5645 3477.0545 7183.8703 3380.1039 7207.0019 3311.9942 C 7294.1894 3058.8692 7231.0689 2963.0884 7035.7979 2961.9897 z M 6886.8147 5318.125 C 6873.7967 5318.0041 6860.1778 5318.316 6845.9903 5319.0035 C 6672.013 5329.011 6511.1678 5377.5825 6436.713 5467.3665 C 6433.6673 5468.4109 6431.0308 5469.899 6429.0132 5472.0174 C 6130.0132 5920.0174 5899.0027 6221.9834 5712.0027 6535.9834 C 5521.0027 6849.9834 5510.9845 7199.9964 5544.9845 7380.9964 C 5579.9845 7561.9964 5668.01 7782.9824 6059.01 7694.9824 C 6183.4169 7667.0544 6301.6283 7650.2982 6412.6835 7639.3786 C 6400.5222 7788.8926 6428.2498 7998.3516 6520.9973 8101.0042 C 6616.9973 8207.0042 6689.9762 8180.9872 6823.9762 8081.9872 C 6957.9762 7983.9872 7045.0148 7806.9769 7081.0148 7700.9769 C 7096.0409 7657.3527 7106.5532 7618.541 7112.7441 7583.9815 C 7132.1004 7571.7998 7152.6502 7557.5093 7175.0142 7540.9867 C 7309.0142 7442.9867 7396.0011 7265.9763 7432.0011 7159.9763 C 7525.0011 6889.9763 7447.0244 6800.0054 7220.0244 6811.0054 C 7192.9293 6811.4266 7156.897 6814.3131 7116.6715 6818.3951 C 7115.4038 6772.3593 7114.5762 6735.5292 7113.0025 6682.021 C 7100.0748 6241.5553 7103.1791 5821.4706 7093.5205 5525.6058 C 7111.6419 5378.3468 7039.9117 5319.5462 6886.8147 5318.125 z M 6446.9966 6480.0695 C 6447.4369 6511.4103 6447.9785 6542.046 6447.9785 6575.981 C 6448.8079 6689.064 6446.3572 6805.9114 6442.6041 6920.7145 C 6368.5482 6933.2564 6301.5126 6944.631 6258.9978 6950.9969 C 6071.9978 6979.9969 6141.9876 6900.9995 6213.9876 6779.9995 C 6244.644 6728.4796 6335.096 6614.5672 6446.9966 6480.0695 z " />
   
  
</svg>
