<?xml version="1.0" encoding="UTF-8" standalone="no"?>
<svg
   version="1.2"
   width="100mm"
   height="100mm"
   viewBox="0 0 10000 10000"
   preserveAspectRatio="xMidYMid"
   fill-rule="evenodd"
   stroke-width="28.222"
   stroke-linejoin="round"
   xml:space="preserve"
   id="svg24"
   sodipodi:docname="gobo-caps-00D0.svg"
   inkscape:version="1.4 (86a8ad7, 2024-10-11)"
   xmlns:inkscape="http://www.inkscape.org/namespaces/inkscape"
   xmlns:sodipodi="http://sodipodi.sourceforge.net/DTD/sodipodi-0.dtd"
   xmlns="http://www.w3.org/2000/svg"
   xmlns:svg="http://www.w3.org/2000/svg"
   xmlns:ooo="http://xml.openoffice.org/svg/export"><sodipodi:namedview
   id="namedview24"
   pagecolor="#ffffff"
   bordercolor="#000000"
   borderopacity="0.25"
   inkscape:showpageshadow="2"
   inkscape:pageopacity="0.0"
   inkscape:pagecheckerboard="0"
   inkscape:deskcolor="#d1d1d1"
   inkscape:document-units="mm"
   showgrid="false"
   inkscape:zoom="3.0876875"
   inkscape:cx="188.81444"
   inkscape:cy="188.97638"
   inkscape:window-width="2560"
   inkscape:window-height="1369"
   inkscape:window-x="-8"
   inkscape:window-y="-8"
   inkscape:window-maximized="1"
   inkscape:current-layer="svg24" />
 <defs
   class="ClipPathGroup"
   id="defs2">
  
  <clipPath
   id="presentation_clip_path_shrink"
   clipPathUnits="userSpaceOnUse">
   <rect
   x="10"
   y="10"
   width="9980"
   height="9980"
   id="rect2" />
  </clipPath>
 
  
 
   
  
    
   
     
    
      
      
      
      
      
      
      
      
      
     
       
      
       
      
       
      
       
      
       
      
       
      
       
      
       
      
       
      
        
        
       
        
        
       
        
        
       
        
        
       
        
        
       
        
        
       
        
        
       
        
        
       
        
        
       </defs>
 <defs
   class="TextShapeIndex"
   id="defs3">
  <g
   ooo:slide="id1"
   ooo:id-list="id3 id4 id5 id6 id7 id8 id9 id10 id11"
   id="g2" />
 </defs>
 <defs
   class="EmbeddedBulletChars"
   id="defs12">
  <g
   id="bullet-char-template-57356"
   transform="scale(0.00048828125,-0.00048828125)">
   <path
   d="M 580,1141 L 1163,571 580,0 -4,571 580,1141 Z"
   id="path3" />
  </g>
  <g
   id="bullet-char-template-57354"
   transform="scale(0.00048828125,-0.00048828125)">
   <path
   d="M 8,1128 L 1137,1128 1137,0 8,0 8,1128 Z"
   id="path4" />
  </g>
  <g
   id="bullet-char-template-10146"
   transform="scale(0.00048828125,-0.00048828125)">
   <path
   d="M 174,0 L 602,739 174,1481 1456,739 174,0 Z M 1358,739 L 309,1346 659,739 1358,739 Z"
   id="path5" />
  </g>
  <g
   id="bullet-char-template-10132"
   transform="scale(0.00048828125,-0.00048828125)">
   <path
   d="M 2015,739 L 1276,0 717,0 1260,543 174,543 174,936 1260,936 717,1481 1274,1481 2015,739 Z"
   id="path6" />
  </g>
  <g
   id="bullet-char-template-10007"
   transform="scale(0.00048828125,-0.00048828125)">
   <path
   d="M 0,-2 C -7,14 -16,27 -25,37 L 356,567 C 262,823 215,952 215,954 215,979 228,992 255,992 264,992 276,990 289,987 310,991 331,999 354,1012 L 381,999 492,748 772,1049 836,1024 860,1049 C 881,1039 901,1025 922,1006 886,937 835,863 770,784 769,783 710,716 594,584 L 774,223 C 774,196 753,168 711,139 L 727,119 C 717,90 699,76 672,76 641,76 570,178 457,381 L 164,-76 C 142,-110 111,-127 72,-127 30,-127 9,-110 8,-76 1,-67 -2,-52 -2,-32 -2,-23 -1,-13 0,-2 Z"
   id="path7" />
  </g>
  <g
   id="bullet-char-template-10004"
   transform="scale(0.00048828125,-0.00048828125)">
   <path
   d="M 285,-33 C 182,-33 111,30 74,156 52,228 41,333 41,471 41,549 55,616 82,672 116,743 169,778 240,778 293,778 328,747 346,684 L 369,508 C 377,444 397,411 428,410 L 1163,1116 C 1174,1127 1196,1133 1229,1133 1271,1133 1292,1118 1292,1087 L 1292,965 C 1292,929 1282,901 1262,881 L 442,47 C 390,-6 338,-33 285,-33 Z"
   id="path8" />
  </g>
  <g
   id="bullet-char-template-9679"
   transform="scale(0.00048828125,-0.00048828125)">
   <path
   d="M 813,0 C 632,0 489,54 383,161 276,268 223,411 223,592 223,773 276,916 383,1023 489,1130 632,1184 813,1184 992,1184 1136,1130 1245,1023 1353,916 1407,772 1407,592 1407,412 1353,268 1245,161 1136,54 992,0 813,0 Z"
   id="path9" />
  </g>
  <g
   id="bullet-char-template-8226"
   transform="scale(0.00048828125,-0.00048828125)">
   <path
   d="M 346,457 C 273,457 209,483 155,535 101,586 74,649 74,723 74,796 101,859 155,911 209,963 273,989 346,989 419,989 480,963 531,910 582,859 608,796 608,723 608,648 583,586 532,535 482,483 420,457 346,457 Z"
   id="path10" />
  </g>
  <g
   id="bullet-char-template-8211"
   transform="scale(0.00048828125,-0.00048828125)">
   <path
   d="M -4,459 L 1135,459 1135,606 -4,606 -4,459 Z"
   id="path11" />
  </g>
  <g
   id="bullet-char-template-61548"
   transform="scale(0.00048828125,-0.00048828125)">
   <path
   d="M 173,740 C 173,903 231,1043 346,1159 462,1274 601,1332 765,1332 928,1332 1067,1274 1183,1159 1299,1043 1357,903 1357,740 1357,577 1299,437 1183,322 1067,206 928,148 765,148 601,148 462,206 346,322 231,437 173,577 173,740 Z"
   id="path12" />
  </g>
 </defs>
 
 <path
   id="path13"
   d="M 4782.4471 2163.3821 C 4209.5748 2177.7454 3531.0933 2296.4346 2733.7349 2540.5167 C 2592.5954 2576.3793 2485.8762 2645.8035 2471.0119 2751.9767 C 2448.0119 2900.9767 2471.0031 3146.9896 2574.0031 3260.9896 C 2609.3426 3300.0103 2641.581 3321.0501 2674.9271 3327.2387 L 2674.9788 3327.2904 C 2675.0793 3327.3185 2675.1883 3327.3144 2675.2889 3327.3421 C 2676.5449 3327.571 2677.8018 3327.7755 2679.0613 3327.9622 C 2697.6828 3332.28 2717.6641 3331.2231 2739.0059 3323.0013 C 2841.4468 3286.4129 2941.4096 3252.7763 3039.3493 3221.5088 C 3039.4624 3225.6595 3039.5422 3229.781 3039.7111 3233.9628 C 3014.2994 3675.0125 2971.4901 4774.048 2969.4311 5443.802 C 2956.4356 5445.4646 2943.24 5447.1801 2928.8135 5449.1764 C 2714.3825 5466.7782 2527.0999 5543.2449 2506.9787 5686.0095 C 2483.9787 5836.0095 2506.988 6082.0223 2608.988 6195.0223 C 2660.3073 6251.1032 2704.6251 6270.1944 2755.129 6261.1165 C 2758.4512 6261.9255 2761.7477 6262.0399 2764.9992 6261.0131 C 2829.9411 6239.3658 2900.1055 6218.9903 2979.0429 6199.4148 C 2991.7651 6964.0353 3010.2348 7855.4176 3019.9707 8269.676 C 3017.628 8269.7886 3015.3696 8269.8507 3012.9944 8269.9861 C 2786.9944 8282.9861 2583.996 8359.9896 2562.996 8508.9896 C 2539.996 8658.9896 2563.0053 8904.0025 2665.0053 9018.0025 C 2708.5975 9065.6393 2747.1341 9086.542 2788.6153 9086.2153 C 2795.5337 9088.1831 2802.6141 9089.3972 2810.0093 9089.0059 C 6171.0093 8999.0059 7524.9922 7101.9799 7534.9922 5026.9799 C 7543.586 3406.6674 6844.7762 2111.6747 4782.4471 2163.3821 z M 4722.8641 2920.9586 C 6338.2704 2926.1618 6903.7256 4040.4973 6917.9756 5250.9973 C 6936.9602 6708.2935 6068.87 7968.4093 3732.1753 8230.1436 C 3731.1169 8219.0531 3729.2884 8208.7071 3726.6976 8199.0344 C 3742.0788 7818.3389 3692.2147 6866.7204 3667.1146 6079.9906 C 4010.0506 6039.855 4442.1739 6014.4919 4576.1031 6017.0487 C 4629.0261 6019.9872 4685.9777 5987.2409 4763.9986 5930.0256 C 4897.9986 5833.0256 4984.9855 5655.9971 5020.9855 5549.9971 C 5113.9855 5279.9971 5035.9752 5188.9745 4807.9752 5200.9745 C 4801.0693 5201.3717 4794.2664 5202.0078 4787.408 5202.5248 C 4772.4821 5202.1788 4756.4557 5202.9002 4738.9872 5205.0053 C 4301.4914 5259.5766 4051.6108 5305.1739 3651.9734 5360.7063 C 3649.0032 4495.0114 3693.2528 3332.1159 3750.0036 3035.0085 C 3750.1203 3033.9919 3749.7796 3033.1025 3749.7969 3032.1146 C 4109.3144 2956.082 4433.5595 2920.0268 4722.8641 2920.9586 z " />
   
  
</svg>
