<?xml version="1.0" encoding="UTF-8" standalone="no"?>
<svg
   version="1.2"
   width="100mm"
   height="100mm"
   viewBox="0 0 10000 10000"
   preserveAspectRatio="xMidYMid"
   fill-rule="evenodd"
   stroke-width="28.222"
   stroke-linejoin="round"
   xml:space="preserve"
   id="svg29"
   sodipodi:docname="gobo-caps-00EE.svg"
   inkscape:version="1.4 (86a8ad7, 2024-10-11)"
   xmlns:inkscape="http://www.inkscape.org/namespaces/inkscape"
   xmlns:sodipodi="http://sodipodi.sourceforge.net/DTD/sodipodi-0.dtd"
   xmlns="http://www.w3.org/2000/svg"
   xmlns:svg="http://www.w3.org/2000/svg"
   xmlns:ooo="http://xml.openoffice.org/svg/export"><sodipodi:namedview
   id="namedview29"
   pagecolor="#ffffff"
   bordercolor="#000000"
   borderopacity="0.25"
   inkscape:showpageshadow="2"
   inkscape:pageopacity="0.0"
   inkscape:pagecheckerboard="0"
   inkscape:deskcolor="#d1d1d1"
   inkscape:document-units="mm"
   showgrid="false"
   inkscape:zoom="3.0876875"
   inkscape:cx="188.81444"
   inkscape:cy="188.97638"
   inkscape:window-width="2560"
   inkscape:window-height="1369"
   inkscape:window-x="-8"
   inkscape:window-y="-8"
   inkscape:window-maximized="1"
   inkscape:current-layer="svg29" />
 <defs
   class="ClipPathGroup"
   id="defs2">
  
  <clipPath
   id="presentation_clip_path_shrink"
   clipPathUnits="userSpaceOnUse">
   <rect
   x="10"
   y="10"
   width="9980"
   height="9980"
   id="rect2" />
  </clipPath>
 
  
 
   
  
    
   
     
    
      
      
      
      
      
      
      
      
      
      
      
      
      
      
     
       
      
       
      
       
      
       
      
       
      
       
      
       
      
       
      
       
      
       
      
       
      
       
      
       
      
       
      
        
        
       
        
        
       
        
        
       
        
        
       
        
        
       
        
        
       
        
        
       
        
        
       
        
        
       
        
        
       
        
        
       
        
        
       
        
        
       
        
        
       </defs>
 <defs
   class="TextShapeIndex"
   id="defs3">
  <g
   ooo:slide="id1"
   ooo:id-list="id3 id4 id5 id6 id7 id8 id9 id10 id11 id12 id13 id14 id15 id16"
   id="g2" />
 </defs>
 <defs
   class="EmbeddedBulletChars"
   id="defs12">
  <g
   id="bullet-char-template-57356"
   transform="scale(0.00048828125,-0.00048828125)">
   <path
   d="M 580,1141 L 1163,571 580,0 -4,571 580,1141 Z"
   id="path3" />
  </g>
  <g
   id="bullet-char-template-57354"
   transform="scale(0.00048828125,-0.00048828125)">
   <path
   d="M 8,1128 L 1137,1128 1137,0 8,0 8,1128 Z"
   id="path4" />
  </g>
  <g
   id="bullet-char-template-10146"
   transform="scale(0.00048828125,-0.00048828125)">
   <path
   d="M 174,0 L 602,739 174,1481 1456,739 174,0 Z M 1358,739 L 309,1346 659,739 1358,739 Z"
   id="path5" />
  </g>
  <g
   id="bullet-char-template-10132"
   transform="scale(0.00048828125,-0.00048828125)">
   <path
   d="M 2015,739 L 1276,0 717,0 1260,543 174,543 174,936 1260,936 717,1481 1274,1481 2015,739 Z"
   id="path6" />
  </g>
  <g
   id="bullet-char-template-10007"
   transform="scale(0.00048828125,-0.00048828125)">
   <path
   d="M 0,-2 C -7,14 -16,27 -25,37 L 356,567 C 262,823 215,952 215,954 215,979 228,992 255,992 264,992 276,990 289,987 310,991 331,999 354,1012 L 381,999 492,748 772,1049 836,1024 860,1049 C 881,1039 901,1025 922,1006 886,937 835,863 770,784 769,783 710,716 594,584 L 774,223 C 774,196 753,168 711,139 L 727,119 C 717,90 699,76 672,76 641,76 570,178 457,381 L 164,-76 C 142,-110 111,-127 72,-127 30,-127 9,-110 8,-76 1,-67 -2,-52 -2,-32 -2,-23 -1,-13 0,-2 Z"
   id="path7" />
  </g>
  <g
   id="bullet-char-template-10004"
   transform="scale(0.00048828125,-0.00048828125)">
   <path
   d="M 285,-33 C 182,-33 111,30 74,156 52,228 41,333 41,471 41,549 55,616 82,672 116,743 169,778 240,778 293,778 328,747 346,684 L 369,508 C 377,444 397,411 428,410 L 1163,1116 C 1174,1127 1196,1133 1229,1133 1271,1133 1292,1118 1292,1087 L 1292,965 C 1292,929 1282,901 1262,881 L 442,47 C 390,-6 338,-33 285,-33 Z"
   id="path8" />
  </g>
  <g
   id="bullet-char-template-9679"
   transform="scale(0.00048828125,-0.00048828125)">
   <path
   d="M 813,0 C 632,0 489,54 383,161 276,268 223,411 223,592 223,773 276,916 383,1023 489,1130 632,1184 813,1184 992,1184 1136,1130 1245,1023 1353,916 1407,772 1407,592 1407,412 1353,268 1245,161 1136,54 992,0 813,0 Z"
   id="path9" />
  </g>
  <g
   id="bullet-char-template-8226"
   transform="scale(0.00048828125,-0.00048828125)">
   <path
   d="M 346,457 C 273,457 209,483 155,535 101,586 74,649 74,723 74,796 101,859 155,911 209,963 273,989 346,989 419,989 480,963 531,910 582,859 608,796 608,723 608,648 583,586 532,535 482,483 420,457 346,457 Z"
   id="path10" />
  </g>
  <g
   id="bullet-char-template-8211"
   transform="scale(0.00048828125,-0.00048828125)">
   <path
   d="M -4,459 L 1135,459 1135,606 -4,606 -4,459 Z"
   id="path11" />
  </g>
  <g
   id="bullet-char-template-61548"
   transform="scale(0.00048828125,-0.00048828125)">
   <path
   d="M 173,740 C 173,903 231,1043 346,1159 462,1274 601,1332 765,1332 928,1332 1067,1274 1183,1159 1299,1043 1357,903 1357,740 1357,577 1299,437 1183,322 1067,206 928,148 765,148 601,148 462,206 346,322 231,437 173,577 173,740 Z"
   id="path12" />
  </g>
 </defs>
 
 <path
   id="path13"
   d="M 5029.9772 1352.7856 C 5016.9113 1352.7602 5003.2478 1353.1617 4988.9978 1353.9742 C 4816.1307 1363.9179 4656.2408 1411.3923 4581.1674 1499.8051 C 4575.9614 1504.3829 4571.3236 1509.5377 4567.9899 1515.9798 C 4495.6961 1656.6596 4068.8054 2049.5738 3799.2513 2186.9983 C 3713.1638 2220.3144 3649.2483 2278.9722 3596.0079 2377.0125 C 3515.0079 2528.0125 3527.9799 2738.9817 3588.9799 2839.9817 C 3622.8122 2894.7578 3678.9262 2907.2089 3741.5287 2895.1204 C 3742.0228 2895.0459 3742.4795 2895.1002 3742.9756 2895.0171 C 4141.4315 2831.9017 4547.7973 2523.9244 4814.8482 2258.0017 C 5041.5444 2429.0611 5454.0422 2662.161 5914.0059 2691.9804 C 5916.5408 2691.9989 5919.1085 2691.5152 5921.654 2691.4119 C 5989.9873 2701.4386 6076.6887 2665.3197 6153.0094 2614.0006 C 6268.0094 2534.0006 6356.0157 2426.0072 6389.0157 2252.0072 C 6416.5633 2103.078 6391.3993 1974.2435 6271.6068 1949.5451 C 6270.1097 1949.2035 6268.6002 1948.8562 6267.0593 1948.5632 C 6265.5228 1948.2861 6263.9234 1948.0834 6262.3567 1947.8397 C 6260.5631 1947.5634 6258.833 1947.2254 6256.9824 1947.0129 C 5679.2582 1880.8542 5344.0221 1555.1087 5215.6506 1422.4455 C 5183.9754 1374.1703 5121.573 1352.9636 5029.9772 1352.7856 z M 6236.0017 3092.9895 C 6233.8298 3092.9773 6231.5403 3093.0302 6229.3355 3093.0412 C 5720.8762 3091.1082 4215.7283 3226.0601 3778.0123 3323.9831 C 3775.111 3324.7242 3772.3926 3326.1499 3769.589 3327.2387 C 3621.8969 3362.7418 3509.298 3433.4531 3493.9986 3542.006 C 3471.9986 3691.006 3494.9897 3937.0188 3596.9897 4051.0188 C 3641.6779 4099.3926 3681.0713 4120.1013 3723.752 4118.7667 C 3724.5216 4118.7666 3725.2471 4119.0905 3726.0258 4119.025 C 3726.8168 4118.8499 3728.016 4118.6322 3728.8163 4118.4566 C 3739.3246 4117.7055 3750.1477 4115.4444 3761.2174 4112.1521 C 3929.0894 4078.6577 4245.5765 4038.5209 4591.8644 4002.443 C 4580.3826 4366.3617 4574.6086 4843.2232 4575.9997 5344.0149 C 4582.0737 5967.0355 4614.6823 6760.216 4631.1385 7220.3861 C 4315.8651 7263.5001 4040.6407 7306.159 3888.1347 7336.8131 C 3864.7239 7340.8807 3842.067 7345.8715 3820.1286 7351.5409 C 3819.554 7351.6804 3818.5764 7351.8673 3818.0098 7352.006 C 3817.8515 7352.0464 3817.7027 7352.1195 3817.5447 7352.161 C 3678.4654 7388.6088 3573.7261 7457.5873 3559.0075 7562.019 C 3537.0075 7712.019 3559.9987 7957.9802 3661.9987 8070.9802 C 3707.9129 8121.6278 3748.2307 8142.223 3792.275 8139.3998 C 3794.5114 8139.6799 3796.6979 8140.2384 3798.9929 8140.0199 C 4201.9929 8049.0199 5770.0084 7861.977 6042.0084 7868.977 C 6042.7569 7868.933 6043.5761 7868.5527 6044.3339 7868.4602 C 6092.7847 7864.804 6145.8965 7833.4169 6216.003 7782.0056 C 6350.003 7684.0056 6437.008 7506.9952 6472.008 7400.9952 C 6565.008 7130.9952 6487.0131 7040.0243 6261.0131 7052.0243 C 6252.4449 7052.515 6243.979 7053.2601 6235.485 7053.9363 C 6042.8313 7058.4989 5706.2297 7089.9586 5340.3458 7131.7093 C 5320.3562 6800.7499 5234.7237 6354.1879 5213.0151 5598.0045 C 5194.6989 5007.6604 5220.8736 4384.9959 5261.1775 3941.0514 C 5599.9547 3914.6331 5883.2739 3900.4785 5976.9995 3910.9757 C 5982.3009 3910.816 5987.7538 3909.8175 5993.2775 3908.0818 C 6038.0321 3899.9304 6087.5413 3869.5544 6150.994 3823.0224 C 6283.994 3726.0224 6371.9809 3547.994 6407.9809 3442.994 C 6489.2873 3204.3775 6438.5084 3105.6416 6268.2478 3094.178 C 6266.4548 3093.8478 6264.891 3093.1062 6262.9768 3092.9895 C 6255.7482 3092.8677 6246.052 3093.0955 6238.3272 3093.0412 C 6237.537 3093.0336 6236.7963 3092.9939 6236.0017 3092.9895 z " />
   
  
</svg>
