<?xml version="1.0" encoding="UTF-8" standalone="no"?>
<svg
   version="1.2"
   width="100mm"
   height="100mm"
   viewBox="0 0 10000 10000"
   preserveAspectRatio="xMidYMid"
   fill-rule="evenodd"
   stroke-width="28.222"
   stroke-linejoin="round"
   xml:space="preserve"
   id="svg24"
   sodipodi:docname="gobo-caps-00B1.svg"
   inkscape:version="1.4 (86a8ad7, 2024-10-11)"
   xmlns:inkscape="http://www.inkscape.org/namespaces/inkscape"
   xmlns:sodipodi="http://sodipodi.sourceforge.net/DTD/sodipodi-0.dtd"
   xmlns="http://www.w3.org/2000/svg"
   xmlns:svg="http://www.w3.org/2000/svg"
   xmlns:ooo="http://xml.openoffice.org/svg/export"><sodipodi:namedview
   id="namedview24"
   pagecolor="#ffffff"
   bordercolor="#000000"
   borderopacity="0.25"
   inkscape:showpageshadow="2"
   inkscape:pageopacity="0.0"
   inkscape:pagecheckerboard="0"
   inkscape:deskcolor="#d1d1d1"
   inkscape:document-units="mm"
   showgrid="false"
   inkscape:zoom="3.0876875"
   inkscape:cx="188.81444"
   inkscape:cy="188.97638"
   inkscape:window-width="2560"
   inkscape:window-height="1369"
   inkscape:window-x="-8"
   inkscape:window-y="-8"
   inkscape:window-maximized="1"
   inkscape:current-layer="svg24" />
 <defs
   class="ClipPathGroup"
   id="defs2">
  
  <clipPath
   id="presentation_clip_path_shrink"
   clipPathUnits="userSpaceOnUse">
   <rect
   x="10"
   y="10"
   width="9980"
   height="9980"
   id="rect2" />
  </clipPath>
 
  
 
   
  
    
   
     
    
      
      
      
      
      
      
      
      
      
     
       
      
       
      
       
      
       
      
       
      
       
      
       
      
       
      
       
      
        
        
       
        
        
       
        
        
       
        
        
       
        
        
       
        
        
       
        
        
       
        
        
       
        
        
       </defs>
 <defs
   class="TextShapeIndex"
   id="defs3">
  <g
   ooo:slide="id1"
   ooo:id-list="id3 id4 id5 id6 id7 id8 id9 id10 id11"
   id="g2" />
 </defs>
 <defs
   class="EmbeddedBulletChars"
   id="defs12">
  <g
   id="bullet-char-template-57356"
   transform="scale(0.00048828125,-0.00048828125)">
   <path
   d="M 580,1141 L 1163,571 580,0 -4,571 580,1141 Z"
   id="path3" />
  </g>
  <g
   id="bullet-char-template-57354"
   transform="scale(0.00048828125,-0.00048828125)">
   <path
   d="M 8,1128 L 1137,1128 1137,0 8,0 8,1128 Z"
   id="path4" />
  </g>
  <g
   id="bullet-char-template-10146"
   transform="scale(0.00048828125,-0.00048828125)">
   <path
   d="M 174,0 L 602,739 174,1481 1456,739 174,0 Z M 1358,739 L 309,1346 659,739 1358,739 Z"
   id="path5" />
  </g>
  <g
   id="bullet-char-template-10132"
   transform="scale(0.00048828125,-0.00048828125)">
   <path
   d="M 2015,739 L 1276,0 717,0 1260,543 174,543 174,936 1260,936 717,1481 1274,1481 2015,739 Z"
   id="path6" />
  </g>
  <g
   id="bullet-char-template-10007"
   transform="scale(0.00048828125,-0.00048828125)">
   <path
   d="M 0,-2 C -7,14 -16,27 -25,37 L 356,567 C 262,823 215,952 215,954 215,979 228,992 255,992 264,992 276,990 289,987 310,991 331,999 354,1012 L 381,999 492,748 772,1049 836,1024 860,1049 C 881,1039 901,1025 922,1006 886,937 835,863 770,784 769,783 710,716 594,584 L 774,223 C 774,196 753,168 711,139 L 727,119 C 717,90 699,76 672,76 641,76 570,178 457,381 L 164,-76 C 142,-110 111,-127 72,-127 30,-127 9,-110 8,-76 1,-67 -2,-52 -2,-32 -2,-23 -1,-13 0,-2 Z"
   id="path7" />
  </g>
  <g
   id="bullet-char-template-10004"
   transform="scale(0.00048828125,-0.00048828125)">
   <path
   d="M 285,-33 C 182,-33 111,30 74,156 52,228 41,333 41,471 41,549 55,616 82,672 116,743 169,778 240,778 293,778 328,747 346,684 L 369,508 C 377,444 397,411 428,410 L 1163,1116 C 1174,1127 1196,1133 1229,1133 1271,1133 1292,1118 1292,1087 L 1292,965 C 1292,929 1282,901 1262,881 L 442,47 C 390,-6 338,-33 285,-33 Z"
   id="path8" />
  </g>
  <g
   id="bullet-char-template-9679"
   transform="scale(0.00048828125,-0.00048828125)">
   <path
   d="M 813,0 C 632,0 489,54 383,161 276,268 223,411 223,592 223,773 276,916 383,1023 489,1130 632,1184 813,1184 992,1184 1136,1130 1245,1023 1353,916 1407,772 1407,592 1407,412 1353,268 1245,161 1136,54 992,0 813,0 Z"
   id="path9" />
  </g>
  <g
   id="bullet-char-template-8226"
   transform="scale(0.00048828125,-0.00048828125)">
   <path
   d="M 346,457 C 273,457 209,483 155,535 101,586 74,649 74,723 74,796 101,859 155,911 209,963 273,989 346,989 419,989 480,963 531,910 582,859 608,796 608,723 608,648 583,586 532,535 482,483 420,457 346,457 Z"
   id="path10" />
  </g>
  <g
   id="bullet-char-template-8211"
   transform="scale(0.00048828125,-0.00048828125)">
   <path
   d="M -4,459 L 1135,459 1135,606 -4,606 -4,459 Z"
   id="path11" />
  </g>
  <g
   id="bullet-char-template-61548"
   transform="scale(0.00048828125,-0.00048828125)">
   <path
   d="M 173,740 C 173,903 231,1043 346,1159 462,1274 601,1332 765,1332 928,1332 1067,1274 1183,1159 1299,1043 1357,903 1357,740 1357,577 1299,437 1183,322 1067,206 928,148 765,148 601,148 462,206 346,322 231,437 173,577 173,740 Z"
   id="path12" />
  </g>
 </defs>
 
 <path
   id="path13"
   d="M 5148.988 3748.9701 C 5135.915 3748.8966 5122.2586 3749.2536 5108.0086 3750.0036 C 4883.0086 3763.0036 4678.0102 3840.989 4658.0102 3989.989 C 4654.3503 4013.6987 4652.0246 4040.0627 4650.8272 4067.762 C 4650.635 4070.2185 4650.0879 4072.4848 4650.0004 4074.9967 C 4642.2292 4355.7321 4644.6882 4655.2294 4642.0939 5098.9652 C 4228.7559 5138.8292 3855.4134 5146.5092 3596.0079 5180.9757 C 3588.7683 5182.0135 3581.8889 5183.8695 3575.0789 5185.8333 C 3388.204 5211.7901 3234.0771 5286.7309 3215.9794 5416.0001 C 3193.9794 5565.0001 3217.0222 5811.013 3319.0222 5925.013 C 3362.0579 5972.5316 3400.4597 5993.4461 3441.9087 5993.2259 C 3445.2143 5995.1437 3448.5558 5996.3632 3451.9857 5996.0164 C 3657.1912 5945.1857 4274.0102 5862.8308 4646.9515 5816.4925 C 4650.7223 6087.0434 4655.3687 6359.8564 4656.9767 6614.9967 C 4657.0293 6621.2664 4657.7149 6626.6105 4658.0102 6632.515 C 4662.1657 6766.1072 4694.4426 6916.818 4767.9777 6999.0043 C 4864.9777 7105.0043 4936.9901 7078.9873 5071.9901 6979.9873 C 5205.9901 6881.9873 5292.977 6705.0105 5328.977 6600.0105 C 5364.6563 6496.042 5375.0573 6418.7908 5361.5848 6363.6425 C 5346.5933 6266.4477 5315.535 6020.8986 5293.3203 5761.0953 C 5731.1084 5732.8141 6232.8467 5709.769 6327.0039 5715 C 6331.3083 5715.035 6336.1954 5713.7918 6341.37 5711.796 C 6385.879 5703.2617 6435.2269 5673.0295 6498.0013 5626.995 C 6632.0013 5527.995 6718.0063 5351.9847 6754.0063 5245.9847 C 6847.0063 4974.9847 6768.9779 4884.9956 6541.9779 4897.9956 C 6522.5211 4899.0287 6503.3349 4900.6964 6484.307 4902.6981 C 6481.7713 4902.8956 6479.6143 4902.757 6477.0206 4903.0082 C 6144.8342 4936.7184 5692.4517 4985.2232 5276.1637 5030.5973 C 5292.3473 4649.1942 5332.4675 4133.6055 5356.9856 3952.9887 C 5373.2913 3807.9955 5301.3343 3749.8265 5148.988 3748.9701 z M 6626.0038 7020.1399 C 6612.9308 7020.0191 6599.2744 7020.3309 6585.0244 7021.0184 C 6563.509 7022.256 6542.2694 7024.2818 6521.3073 7026.7028 C 6518.424 7026.914 6515.946 7026.732 6512.9874 7027.0129 C 6037.9874 7075.0129 5272.0088 7192.0204 4809.0088 7243.0204 C 4396.3682 7290.1539 3907.8298 7333.6411 3601.1238 7369.5243 C 3567.9366 7371.8957 3535.304 7375.5919 3503.8171 7380.8414 C 3498.5065 7381.5298 3490.1347 7382.3305 3485.0069 7383.0118 C 3475.5283 7384.3754 3466.566 7386.6561 3457.9801 7389.5747 C 3304.8382 7423.4287 3186.7314 7494.7597 3171.0209 7606.9775 C 3149.0209 7755.9775 3172.012 8001.9903 3274.012 8115.9903 C 3323.0242 8170.108 3366.0317 8189.7551 3414.3652 8182.9113 C 3414.5708 8182.8965 3414.7802 8183.0377 3414.9853 8183.0147 C 3415.6914 8182.8389 3417.0064 8182.5717 3417.7242 8182.3946 C 3422.2938 8181.6357 3426.9474 8180.5646 3431.6251 8179.3456 C 3665.3415 8123.9116 4408.1097 8008.1763 4761.0013 7966.0253 C 5101.1808 7926.2272 6108.8647 7838.0897 6336.254 7835.749 C 6394.1908 7847.9106 6455.0248 7814.5158 6540.996 7750.9997 C 6674.996 7652.9997 6761.9829 7475.9894 6797.9829 7369.9894 C 6885.1704 7116.8644 6822.0987 7021.9527 6626.0038 7020.1399 z " />
   
  
</svg>
