<?xml version="1.0" encoding="UTF-8" standalone="no"?>
<svg
   version="1.2"
   width="100mm"
   height="100mm"
   viewBox="0 0 10000 10000"
   preserveAspectRatio="xMidYMid"
   fill-rule="evenodd"
   stroke-width="28.222"
   stroke-linejoin="round"
   xml:space="preserve"
   id="svg28"
   sodipodi:docname="gobo-caps-00BC.svg"
   inkscape:version="1.4 (86a8ad7, 2024-10-11)"
   xmlns:inkscape="http://www.inkscape.org/namespaces/inkscape"
   xmlns:sodipodi="http://sodipodi.sourceforge.net/DTD/sodipodi-0.dtd"
   xmlns="http://www.w3.org/2000/svg"
   xmlns:svg="http://www.w3.org/2000/svg"
   xmlns:ooo="http://xml.openoffice.org/svg/export"><sodipodi:namedview
   id="namedview28"
   pagecolor="#ffffff"
   bordercolor="#000000"
   borderopacity="0.25"
   inkscape:showpageshadow="2"
   inkscape:pageopacity="0.0"
   inkscape:pagecheckerboard="0"
   inkscape:deskcolor="#d1d1d1"
   inkscape:document-units="mm"
   showgrid="false"
   inkscape:zoom="3.0876875"
   inkscape:cx="188.81444"
   inkscape:cy="188.97638"
   inkscape:window-width="2560"
   inkscape:window-height="1369"
   inkscape:window-x="-8"
   inkscape:window-y="-8"
   inkscape:window-maximized="1"
   inkscape:current-layer="svg28" />
 <defs
   class="ClipPathGroup"
   id="defs2">
  
  <clipPath
   id="presentation_clip_path_shrink"
   clipPathUnits="userSpaceOnUse">
   <rect
   x="10"
   y="10"
   width="9980"
   height="9980"
   id="rect2" />
  </clipPath>
 
  
 
   
  
    
   
     
    
      
      
      
      
      
      
      
      
      
      
      
      
      
     
       
      
       
      
       
      
       
      
       
      
       
      
       
      
       
      
       
      
       
      
       
      
       
      
       
      
        
        
       
        
        
       
        
        
       
        
        
       
        
        
       
        
        
       
        
        
       
        
        
       
        
        
       
        
        
       
        
        
       
        
        
       
        
        
       </defs>
 <defs
   class="TextShapeIndex"
   id="defs3">
  <g
   ooo:slide="id1"
   ooo:id-list="id3 id4 id5 id6 id7 id8 id9 id10 id11 id12 id13 id14 id15"
   id="g2" />
 </defs>
 <defs
   class="EmbeddedBulletChars"
   id="defs12">
  <g
   id="bullet-char-template-57356"
   transform="scale(0.00048828125,-0.00048828125)">
   <path
   d="M 580,1141 L 1163,571 580,0 -4,571 580,1141 Z"
   id="path3" />
  </g>
  <g
   id="bullet-char-template-57354"
   transform="scale(0.00048828125,-0.00048828125)">
   <path
   d="M 8,1128 L 1137,1128 1137,0 8,0 8,1128 Z"
   id="path4" />
  </g>
  <g
   id="bullet-char-template-10146"
   transform="scale(0.00048828125,-0.00048828125)">
   <path
   d="M 174,0 L 602,739 174,1481 1456,739 174,0 Z M 1358,739 L 309,1346 659,739 1358,739 Z"
   id="path5" />
  </g>
  <g
   id="bullet-char-template-10132"
   transform="scale(0.00048828125,-0.00048828125)">
   <path
   d="M 2015,739 L 1276,0 717,0 1260,543 174,543 174,936 1260,936 717,1481 1274,1481 2015,739 Z"
   id="path6" />
  </g>
  <g
   id="bullet-char-template-10007"
   transform="scale(0.00048828125,-0.00048828125)">
   <path
   d="M 0,-2 C -7,14 -16,27 -25,37 L 356,567 C 262,823 215,952 215,954 215,979 228,992 255,992 264,992 276,990 289,987 310,991 331,999 354,1012 L 381,999 492,748 772,1049 836,1024 860,1049 C 881,1039 901,1025 922,1006 886,937 835,863 770,784 769,783 710,716 594,584 L 774,223 C 774,196 753,168 711,139 L 727,119 C 717,90 699,76 672,76 641,76 570,178 457,381 L 164,-76 C 142,-110 111,-127 72,-127 30,-127 9,-110 8,-76 1,-67 -2,-52 -2,-32 -2,-23 -1,-13 0,-2 Z"
   id="path7" />
  </g>
  <g
   id="bullet-char-template-10004"
   transform="scale(0.00048828125,-0.00048828125)">
   <path
   d="M 285,-33 C 182,-33 111,30 74,156 52,228 41,333 41,471 41,549 55,616 82,672 116,743 169,778 240,778 293,778 328,747 346,684 L 369,508 C 377,444 397,411 428,410 L 1163,1116 C 1174,1127 1196,1133 1229,1133 1271,1133 1292,1118 1292,1087 L 1292,965 C 1292,929 1282,901 1262,881 L 442,47 C 390,-6 338,-33 285,-33 Z"
   id="path8" />
  </g>
  <g
   id="bullet-char-template-9679"
   transform="scale(0.00048828125,-0.00048828125)">
   <path
   d="M 813,0 C 632,0 489,54 383,161 276,268 223,411 223,592 223,773 276,916 383,1023 489,1130 632,1184 813,1184 992,1184 1136,1130 1245,1023 1353,916 1407,772 1407,592 1407,412 1353,268 1245,161 1136,54 992,0 813,0 Z"
   id="path9" />
  </g>
  <g
   id="bullet-char-template-8226"
   transform="scale(0.00048828125,-0.00048828125)">
   <path
   d="M 346,457 C 273,457 209,483 155,535 101,586 74,649 74,723 74,796 101,859 155,911 209,963 273,989 346,989 419,989 480,963 531,910 582,859 608,796 608,723 608,648 583,586 532,535 482,483 420,457 346,457 Z"
   id="path10" />
  </g>
  <g
   id="bullet-char-template-8211"
   transform="scale(0.00048828125,-0.00048828125)">
   <path
   d="M -4,459 L 1135,459 1135,606 -4,606 -4,459 Z"
   id="path11" />
  </g>
  <g
   id="bullet-char-template-61548"
   transform="scale(0.00048828125,-0.00048828125)">
   <path
   d="M 173,740 C 173,903 231,1043 346,1159 462,1274 601,1332 765,1332 928,1332 1067,1274 1183,1159 1299,1043 1357,903 1357,740 1357,577 1299,437 1183,322 1067,206 928,148 765,148 601,148 462,206 346,322 231,437 173,577 173,740 Z"
   id="path12" />
  </g>
 </defs>
 
 <path
   id="path13"
   d="M 3749.7969 2801.121 C 3736.7789 2801.0001 3723.2117 2801.312 3709.0242 2801.9995 C 3572.5402 2809.8503 3444.151 2841.4814 3359.1748 2898.066 C 3355.7614 2898.6698 3352.6415 2899.8759 3349.9764 2901.9934 C 3154.1989 3069.2595 3086.6012 3111.2078 2967.9325 3264.2969 C 2964.6387 3268.3138 2961.4697 3272.3628 2958.5274 3276.5442 C 2955.3338 3280.7261 2952.293 3284.6494 2949.0189 3288.9982 C 2946.9657 3292.0955 2945.5058 3295.7582 2944.5231 3299.8502 C 2935.7789 3317.0222 2929.7701 3335.3684 2927.0048 3354.989 C 2904.0048 3503.989 2926.9959 3750.0018 3029.9959 3864.0018 C 3088.8519 3928.9887 3139.1401 3944.1803 3200.063 3923.5331 C 3195.4036 4022.206 3191.4271 4119.6724 3189.0043 4209.9756 C 3179.0043 4619.9756 3198.024 5100.009 3205.024 5313.009 C 3205.17 5314.3235 3206.0257 5315.3095 3206.626 5316.4196 C 3211.5065 5448.0109 3244.2143 5594.436 3317.0068 5675.0024 C 3413.0068 5781.0024 3485.9857 5754.9855 3619.9857 5655.9855 C 3753.9857 5557.9855 3841.0243 5380.9751 3877.0243 5274.9751 C 3904.1869 5196.1161 3916.6252 5132.7529 3915.1615 5082.6355 C 3915.3847 5081.7692 3915.976 5080.8144 3915.9883 5080 C 3904.9883 4890 3826.9877 4745.9802 3841.9877 4260.9802 C 3856.298 3801.1434 3919.8618 3271.8399 3951.8001 3039.246 C 3983.9988 2869.3706 3913.1215 2802.6372 3749.7969 2801.121 z M 6654.7875 3044.0002 C 6641.7695 3043.927 6628.2023 3044.2321 6614.0148 3044.9821 C 6435.1294 3055.2719 6270.1174 3105.7359 6198.6397 3200.6832 C 6198.1391 3201.1726 6197.4417 3201.4339 6196.986 3201.9751 C 5990.986 3473.9751 4968.0166 4868.0211 4427.0166 5580.0211 C 3888.0166 6293.0211 3056.9918 7298.0181 2884.9918 7619.0181 C 2882.6162 7622.6651 2880.9568 7626.7836 2879.7725 7631.2137 C 2871.4202 7647.9791 2865.6724 7665.8894 2862.9777 7685.0089 C 2839.9777 7835.0089 2862.987 8080.0217 2964.987 8194.0217 C 3061.987 8300.0217 3133.9813 8274.0048 3269.9813 8175.0048 C 3321.4046 8137.1139 3365.8737 8087.3889 3403.2548 8034.5483 C 3409.2631 8029.2055 3414.9722 8023.2644 3419.9979 8015.9964 C 3552.9979 7778.9964 4380.0002 6573.0203 4949.0002 5805.0203 C 5516.0002 5039.0203 6449.0155 3930.9861 6688.0155 3656.9861 C 6690.8854 3653.7358 6692.8768 3650.014 6694.3717 3645.979 C 6758.5542 3559.065 6802.86 3462.1144 6825.9916 3394.0047 C 6913.1791 3140.8797 6850.0585 3045.0989 6654.7875 3044.0002 z M 6561.8216 5400.1355 C 6548.8036 5400.0146 6535.1848 5400.3265 6520.9973 5401.014 C 6347.0488 5411.0198 6186.2427 5459.57 6111.7716 5549.3253 C 6108.7045 5550.3697 6106.0484 5551.8465 6104.0201 5553.9762 C 5805.0201 6001.9762 5574.0096 6303.9939 5387.0096 6617.9939 C 5196.0096 6931.9939 5185.9914 7282.0069 5219.9914 7463.0069 C 5254.9914 7644.0069 5343.0169 7864.9929 5734.0169 7776.9929 C 5858.4229 7749.0651 5976.6359 7732.3087 6087.6904 7721.3891 C 6075.5292 7870.9031 6103.2567 8080.3621 6196.0042 8183.0147 C 6292.0042 8289.0147 6364.9831 8262.9977 6498.9831 8163.9977 C 6632.9831 8065.9977 6720.0217 7888.9874 6756.0217 7782.9874 C 6771.0414 7739.3817 6781.5073 7700.5406 6787.6993 7665.992 C 6807.0661 7653.8055 6827.6431 7639.5302 6850.0211 7622.9972 C 6984.0211 7524.9972 7071.008 7347.9868 7107.008 7241.9868 C 7200.008 6971.9868 7121.9796 6882.0159 6894.9796 6893.0159 C 6867.9044 6893.4368 6831.9181 6896.3289 6791.7301 6900.4056 C 6790.4622 6854.3613 6789.5835 6817.4997 6788.0094 6763.9798 C 6775.0817 6323.5141 6778.186 5903.4811 6768.5274 5607.6163 C 6786.6488 5460.3573 6714.9186 5401.5567 6561.8216 5400.1355 z M 6122.0035 6562.0284 C 6122.4443 6593.3847 6122.9854 6624.0382 6122.9854 6657.9915 C 6123.8148 6771.075 6121.3125 6887.9214 6117.5594 7002.725 C 6043.5298 7015.2623 5976.5078 7026.6432 5934.0047 7033.0074 C 5747.0047 7062.0074 5816.9945 6983.01 5888.9945 6862.01 C 5919.6523 6810.4878 6010.0959 6696.5339 6122.0035 6562.0284 z " />
   
  
</svg>
