<?xml version="1.0" encoding="UTF-8" standalone="no"?>
<svg
   version="1.2"
   width="100mm"
   height="100mm"
   viewBox="0 0 10000 10000"
   preserveAspectRatio="xMidYMid"
   fill-rule="evenodd"
   stroke-width="28.222"
   stroke-linejoin="round"
   xml:space="preserve"
   id="svg23"
   sodipodi:docname="gobo-caps-00DB.svg"
   inkscape:version="1.4 (86a8ad7, 2024-10-11)"
   xmlns:inkscape="http://www.inkscape.org/namespaces/inkscape"
   xmlns:sodipodi="http://sodipodi.sourceforge.net/DTD/sodipodi-0.dtd"
   xmlns="http://www.w3.org/2000/svg"
   xmlns:svg="http://www.w3.org/2000/svg"
   xmlns:ooo="http://xml.openoffice.org/svg/export"><sodipodi:namedview
   id="namedview23"
   pagecolor="#ffffff"
   bordercolor="#000000"
   borderopacity="0.25"
   inkscape:showpageshadow="2"
   inkscape:pageopacity="0.0"
   inkscape:pagecheckerboard="0"
   inkscape:deskcolor="#d1d1d1"
   inkscape:document-units="mm"
   showgrid="false"
   inkscape:zoom="3.0876875"
   inkscape:cx="188.81444"
   inkscape:cy="188.97638"
   inkscape:window-width="2560"
   inkscape:window-height="1369"
   inkscape:window-x="-8"
   inkscape:window-y="-8"
   inkscape:window-maximized="1"
   inkscape:current-layer="svg23" />
 <defs
   class="ClipPathGroup"
   id="defs2">
  
  <clipPath
   id="presentation_clip_path_shrink"
   clipPathUnits="userSpaceOnUse">
   <rect
   x="10"
   y="10"
   width="9980"
   height="9980"
   id="rect2" />
  </clipPath>
 
  
 
   
  
    
   
     
    
      
      
      
      
      
      
      
      
     
       
      
       
      
       
      
       
      
       
      
       
      
       
      
       
      
        
        
       
        
        
       
        
        
       
        
        
       
        
        
       
        
        
       
        
        
       
        
        
       </defs>
 <defs
   class="TextShapeIndex"
   id="defs3">
  <g
   ooo:slide="id1"
   ooo:id-list="id3 id4 id5 id6 id7 id8 id9 id10"
   id="g2" />
 </defs>
 <defs
   class="EmbeddedBulletChars"
   id="defs12">
  <g
   id="bullet-char-template-57356"
   transform="scale(0.00048828125,-0.00048828125)">
   <path
   d="M 580,1141 L 1163,571 580,0 -4,571 580,1141 Z"
   id="path3" />
  </g>
  <g
   id="bullet-char-template-57354"
   transform="scale(0.00048828125,-0.00048828125)">
   <path
   d="M 8,1128 L 1137,1128 1137,0 8,0 8,1128 Z"
   id="path4" />
  </g>
  <g
   id="bullet-char-template-10146"
   transform="scale(0.00048828125,-0.00048828125)">
   <path
   d="M 174,0 L 602,739 174,1481 1456,739 174,0 Z M 1358,739 L 309,1346 659,739 1358,739 Z"
   id="path5" />
  </g>
  <g
   id="bullet-char-template-10132"
   transform="scale(0.00048828125,-0.00048828125)">
   <path
   d="M 2015,739 L 1276,0 717,0 1260,543 174,543 174,936 1260,936 717,1481 1274,1481 2015,739 Z"
   id="path6" />
  </g>
  <g
   id="bullet-char-template-10007"
   transform="scale(0.00048828125,-0.00048828125)">
   <path
   d="M 0,-2 C -7,14 -16,27 -25,37 L 356,567 C 262,823 215,952 215,954 215,979 228,992 255,992 264,992 276,990 289,987 310,991 331,999 354,1012 L 381,999 492,748 772,1049 836,1024 860,1049 C 881,1039 901,1025 922,1006 886,937 835,863 770,784 769,783 710,716 594,584 L 774,223 C 774,196 753,168 711,139 L 727,119 C 717,90 699,76 672,76 641,76 570,178 457,381 L 164,-76 C 142,-110 111,-127 72,-127 30,-127 9,-110 8,-76 1,-67 -2,-52 -2,-32 -2,-23 -1,-13 0,-2 Z"
   id="path7" />
  </g>
  <g
   id="bullet-char-template-10004"
   transform="scale(0.00048828125,-0.00048828125)">
   <path
   d="M 285,-33 C 182,-33 111,30 74,156 52,228 41,333 41,471 41,549 55,616 82,672 116,743 169,778 240,778 293,778 328,747 346,684 L 369,508 C 377,444 397,411 428,410 L 1163,1116 C 1174,1127 1196,1133 1229,1133 1271,1133 1292,1118 1292,1087 L 1292,965 C 1292,929 1282,901 1262,881 L 442,47 C 390,-6 338,-33 285,-33 Z"
   id="path8" />
  </g>
  <g
   id="bullet-char-template-9679"
   transform="scale(0.00048828125,-0.00048828125)">
   <path
   d="M 813,0 C 632,0 489,54 383,161 276,268 223,411 223,592 223,773 276,916 383,1023 489,1130 632,1184 813,1184 992,1184 1136,1130 1245,1023 1353,916 1407,772 1407,592 1407,412 1353,268 1245,161 1136,54 992,0 813,0 Z"
   id="path9" />
  </g>
  <g
   id="bullet-char-template-8226"
   transform="scale(0.00048828125,-0.00048828125)">
   <path
   d="M 346,457 C 273,457 209,483 155,535 101,586 74,649 74,723 74,796 101,859 155,911 209,963 273,989 346,989 419,989 480,963 531,910 582,859 608,796 608,723 608,648 583,586 532,535 482,483 420,457 346,457 Z"
   id="path10" />
  </g>
  <g
   id="bullet-char-template-8211"
   transform="scale(0.00048828125,-0.00048828125)">
   <path
   d="M -4,459 L 1135,459 1135,606 -4,606 -4,459 Z"
   id="path11" />
  </g>
  <g
   id="bullet-char-template-61548"
   transform="scale(0.00048828125,-0.00048828125)">
   <path
   d="M 173,740 C 173,903 231,1043 346,1159 462,1274 601,1332 765,1332 928,1332 1067,1274 1183,1159 1299,1043 1357,903 1357,740 1357,577 1299,437 1183,322 1067,206 928,148 765,148 601,148 462,206 346,322 231,437 173,577 173,740 Z"
   id="path12" />
  </g>
 </defs>
 
 <path
   id="path13"
   d="M 5089.9735 652.82836 C 5076.9076 652.80297 5063.2441 653.20442 5048.9941 654.01692 C 4876.0713 663.96381 4716.1549 711.43179 4641.112 799.89949 C 4635.9354 804.46565 4631.3059 809.60746 4627.9862 816.02254 C 4555.6993 956.68905 4128.9094 1349.4779 3859.351 1486.9377 C 3773.2093 1520.2464 3709.2666 1578.9227 3656.0042 1677.0036 C 3575.0042 1828.0036 3587.9762 2039.0244 3648.9762 2140.0244 C 3682.7995 2194.7859 3738.8911 2207.1835 3801.4734 2195.1115 C 3802.0008 2195.0325 3802.4938 2195.0969 3803.0237 2195.0081 C 4201.4769 2131.8931 4607.7936 1823.9142 4874.8445 1557.9927 C 5101.5407 1729.0521 5514.0385 1962.2037 5974.0022 1992.0231 C 5976.5368 1992.0416 5979.1052 1991.5579 5981.6503 1991.4547 C 6049.9836 2001.4811 6136.6852 1965.3106 6213.0057 1913.9917 C 6328.0057 1833.9917 6416.012 1725.9983 6449.012 1551.9983 C 6476.6274 1402.7025 6451.2796 1273.5738 6330.7246 1249.3294 C 6329.7861 1249.1226 6328.838 1248.9489 6327.8824 1248.761 C 6325.7502 1248.3665 6323.562 1248.057 6321.3712 1247.7274 C 6319.8953 1247.5108 6318.4928 1247.1778 6316.9787 1247.004 C 5739.2545 1180.8452 5404.0185 855.09973 5275.6469 722.43652 C 5243.9717 674.16139 5181.5693 653.00636 5089.9735 652.82836 z M 6994.9735 2012.9521 C 6981.9005 2012.8791 6968.2441 2013.2356 6953.9941 2013.9856 C 6727.9941 2026.9856 6524.9957 2103.9891 6503.9957 2252.9891 C 6500.8505 2273.5013 6498.6699 2295.9279 6497.3295 2319.445 C 6497.312 2319.967 6497.0304 2320.473 6497.0194 2320.9953 C 6497.0517 2321.5591 6497.0904 2322.9618 6497.1228 2323.5274 C 6494.2151 2379.3365 6496.6709 2441.5283 6505.4427 2502.7413 C 6557.866 3512.4262 6653.9318 6202.5866 6631.9982 6790.0248 C 6607.9982 7407.0248 6393.0026 7745.9814 5376.0026 8050.9814 C 4358.0026 8355.9814 3359.9822 7727.9825 3380.9822 6592.9825 C 3401.6845 5474.073 3485.8963 3333.1548 3495.9623 2524.0836 C 3517.8181 2360.5515 3431.5845 2303.3241 3248.0188 2312.9854 C 3022.0188 2325.9854 2819.0204 2403.0224 2798.0204 2553.0224 C 2796.6699 2561.7714 2795.4814 2570.8846 2794.4547 2580.2559 C 2793.5449 2585.5934 2791.2364 2590.4711 2790.9924 2596.0172 C 2791.1478 2603.0006 2791.1529 2612.3939 2791.3025 2619.4783 C 2789.0504 2659.1495 2789.4825 2702.2079 2793.0595 2746.0339 C 2809.2111 3774.9824 2776.165 5653.1703 2758.0228 6904.023 C 2739.0228 8214.023 3681.9978 9008.9925 4988.9978 8841.9925 C 6296.9978 8674.9925 7209.9979 7715.0109 7229.9979 6805.0109 C 7249.9979 5895.0109 7244.0019 3457.977 7207.0019 2153.977 C 7204.7743 2132.8149 7198.5953 2114.7441 7189.7936 2098.89 C 7161.8077 2039.4251 7096.1655 2013.5171 6994.9735 2012.9521 z " />
   
  
</svg>
