<?xml version="1.0" encoding="UTF-8" standalone="no"?>
<svg
   version="1.2"
   width="100mm"
   height="100mm"
   viewBox="0 0 10000 10000"
   preserveAspectRatio="xMidYMid"
   fill-rule="evenodd"
   stroke-width="28.222"
   stroke-linejoin="round"
   xml:space="preserve"
   id="svg21"
   sodipodi:docname="gobo-caps-00AB.svg"
   inkscape:version="1.4 (86a8ad7, 2024-10-11)"
   xmlns:inkscape="http://www.inkscape.org/namespaces/inkscape"
   xmlns:sodipodi="http://sodipodi.sourceforge.net/DTD/sodipodi-0.dtd"
   xmlns="http://www.w3.org/2000/svg"
   xmlns:svg="http://www.w3.org/2000/svg"
   xmlns:ooo="http://xml.openoffice.org/svg/export"><sodipodi:namedview
   id="namedview21"
   pagecolor="#ffffff"
   bordercolor="#000000"
   borderopacity="0.25"
   inkscape:showpageshadow="2"
   inkscape:pageopacity="0.0"
   inkscape:pagecheckerboard="0"
   inkscape:deskcolor="#d1d1d1"
   inkscape:document-units="mm"
   showgrid="false"
   inkscape:zoom="3.0876875"
   inkscape:cx="188.81444"
   inkscape:cy="188.97638"
   inkscape:window-width="2560"
   inkscape:window-height="1369"
   inkscape:window-x="-8"
   inkscape:window-y="-8"
   inkscape:window-maximized="1"
   inkscape:current-layer="svg21" />
 <defs
   class="ClipPathGroup"
   id="defs2">
  
  <clipPath
   id="presentation_clip_path_shrink"
   clipPathUnits="userSpaceOnUse">
   <rect
   x="10"
   y="10"
   width="9980"
   height="9980"
   id="rect2" />
  </clipPath>
 
  
 
   
  
    
   
     
    
      
      
      
      
      
      
     
       
      
       
      
       
      
       
      
       
      
       
      
        
        
       
        
        
       
        
        
       
        
        
       
        
        
       
        
        
       </defs>
 <defs
   class="TextShapeIndex"
   id="defs3">
  <g
   ooo:slide="id1"
   ooo:id-list="id3 id4 id5 id6 id7 id8"
   id="g2" />
 </defs>
 <defs
   class="EmbeddedBulletChars"
   id="defs12">
  <g
   id="bullet-char-template-57356"
   transform="scale(0.00048828125,-0.00048828125)">
   <path
   d="M 580,1141 L 1163,571 580,0 -4,571 580,1141 Z"
   id="path3" />
  </g>
  <g
   id="bullet-char-template-57354"
   transform="scale(0.00048828125,-0.00048828125)">
   <path
   d="M 8,1128 L 1137,1128 1137,0 8,0 8,1128 Z"
   id="path4" />
  </g>
  <g
   id="bullet-char-template-10146"
   transform="scale(0.00048828125,-0.00048828125)">
   <path
   d="M 174,0 L 602,739 174,1481 1456,739 174,0 Z M 1358,739 L 309,1346 659,739 1358,739 Z"
   id="path5" />
  </g>
  <g
   id="bullet-char-template-10132"
   transform="scale(0.00048828125,-0.00048828125)">
   <path
   d="M 2015,739 L 1276,0 717,0 1260,543 174,543 174,936 1260,936 717,1481 1274,1481 2015,739 Z"
   id="path6" />
  </g>
  <g
   id="bullet-char-template-10007"
   transform="scale(0.00048828125,-0.00048828125)">
   <path
   d="M 0,-2 C -7,14 -16,27 -25,37 L 356,567 C 262,823 215,952 215,954 215,979 228,992 255,992 264,992 276,990 289,987 310,991 331,999 354,1012 L 381,999 492,748 772,1049 836,1024 860,1049 C 881,1039 901,1025 922,1006 886,937 835,863 770,784 769,783 710,716 594,584 L 774,223 C 774,196 753,168 711,139 L 727,119 C 717,90 699,76 672,76 641,76 570,178 457,381 L 164,-76 C 142,-110 111,-127 72,-127 30,-127 9,-110 8,-76 1,-67 -2,-52 -2,-32 -2,-23 -1,-13 0,-2 Z"
   id="path7" />
  </g>
  <g
   id="bullet-char-template-10004"
   transform="scale(0.00048828125,-0.00048828125)">
   <path
   d="M 285,-33 C 182,-33 111,30 74,156 52,228 41,333 41,471 41,549 55,616 82,672 116,743 169,778 240,778 293,778 328,747 346,684 L 369,508 C 377,444 397,411 428,410 L 1163,1116 C 1174,1127 1196,1133 1229,1133 1271,1133 1292,1118 1292,1087 L 1292,965 C 1292,929 1282,901 1262,881 L 442,47 C 390,-6 338,-33 285,-33 Z"
   id="path8" />
  </g>
  <g
   id="bullet-char-template-9679"
   transform="scale(0.00048828125,-0.00048828125)">
   <path
   d="M 813,0 C 632,0 489,54 383,161 276,268 223,411 223,592 223,773 276,916 383,1023 489,1130 632,1184 813,1184 992,1184 1136,1130 1245,1023 1353,916 1407,772 1407,592 1407,412 1353,268 1245,161 1136,54 992,0 813,0 Z"
   id="path9" />
  </g>
  <g
   id="bullet-char-template-8226"
   transform="scale(0.00048828125,-0.00048828125)">
   <path
   d="M 346,457 C 273,457 209,483 155,535 101,586 74,649 74,723 74,796 101,859 155,911 209,963 273,989 346,989 419,989 480,963 531,910 582,859 608,796 608,723 608,648 583,586 532,535 482,483 420,457 346,457 Z"
   id="path10" />
  </g>
  <g
   id="bullet-char-template-8211"
   transform="scale(0.00048828125,-0.00048828125)">
   <path
   d="M -4,459 L 1135,459 1135,606 -4,606 -4,459 Z"
   id="path11" />
  </g>
  <g
   id="bullet-char-template-61548"
   transform="scale(0.00048828125,-0.00048828125)">
   <path
   d="M 173,740 C 173,903 231,1043 346,1159 462,1274 601,1332 765,1332 928,1332 1067,1274 1183,1159 1299,1043 1357,903 1357,740 1357,577 1299,437 1183,322 1067,206 928,148 765,148 601,148 462,206 346,322 231,437 173,577 173,740 Z"
   id="path12" />
  </g>
 </defs>
 
 <path
   id="path13"
   d="M 6075.0813 3086.1682 C 6069.845 3086.2972 6064.51 3086.5575 6059.01 3086.995 C 5884.01 3101.995 5776.0193 3160.0123 5694.0193 3311.0123 C 5693.8739 3311.2835 5693.7508 3311.5676 5693.6059 3311.8392 C 5690.5311 3314.2357 5687.8663 3316.8729 5686.0095 3320.004 C 5387.0095 4138.004 4937.9764 4936.9807 4787.9764 5268.9807 C 4719.9764 5418.9807 4659.0032 5787.0084 4815.0032 6042.0084 C 4993.9471 6345.4351 5710.4151 7347.8429 5897.8312 7742.2147 C 5904.2929 7759.4581 5911.6518 7775.2472 5920.0004 7788.9819 C 5982.0004 7890.9819 6123.0171 7846.9831 6238.0171 7768.9831 C 6354.0171 7688.9831 6442.0052 7581.9897 6475.0052 7406.9897 C 6495.2285 7297.6575 6486.643 7199.1845 6433.199 7144.9902 C 6015.7643 6627.6622 5439.975 5747.1856 5435.9989 5447.9878 C 5431.9989 5146.9878 5943.9833 3985.978 6199.9833 3534.978 C 6203.5562 3529.4852 6205.1204 3523.6937 6205.461 3517.7181 C 6221.4818 3480.061 6234.2124 3438.4737 6242.9781 3391.9893 C 6273.9781 3224.3956 6237.4075 3082.1674 6075.0813 3086.1682 z M 4873.0875 3233.136 C 4867.8512 3233.265 4862.5162 3233.577 4857.0162 3234.0145 C 4682.0162 3249.0145 4574.0255 3306.9801 4492.0255 3457.9801 C 4491.8805 3458.2505 4491.7566 3458.5362 4491.6121 3458.8069 C 4488.5357 3461.2041 4485.8732 3463.8912 4484.0157 3467.0235 C 4185.0157 4285.0235 3735.9826 5084.0001 3585.9826 5416.0001 C 3517.9826 5566.0001 3457.0094 5933.9762 3613.0094 6188.9762 C 3791.9503 6492.3977 4508.3549 7494.7968 4695.7857 7889.1825 C 4702.2494 7906.4347 4709.6544 7922.2607 4718.0066 7936.0013 C 4780.0066 8038.0013 4921.0233 7994.0025 5036.0233 7916.0025 C 5152.0233 7836.0025 5240.0114 7729.0091 5273.0114 7554.0091 C 5293.238 7444.6592 5284.6208 7346.1467 5231.1535 7291.958 C 4813.7204 6774.6266 4237.9811 5894.2002 4234.0051 5595.0073 C 4230.0051 5294.0073 4741.9895 4132.9974 4997.9895 3681.9974 C 5001.5727 3676.4889 5003.1345 3670.6799 5003.4672 3664.6858 C 5019.488 3627.0288 5032.2186 3585.4931 5040.9843 3539.0088 C 5071.9843 3371.415 5035.4137 3229.1351 4873.0875 3233.136 z " />
   
  
</svg>
