<?xml version="1.0" encoding="UTF-8" standalone="no"?>
<svg
   version="1.2"
   width="100mm"
   height="100mm"
   viewBox="0 0 10000 10000"
   preserveAspectRatio="xMidYMid"
   fill-rule="evenodd"
   stroke-width="28.222"
   stroke-linejoin="round"
   xml:space="preserve"
   id="svg34"
   sodipodi:docname="gobo-caps-00E0.svg"
   inkscape:version="1.4 (86a8ad7, 2024-10-11)"
   xmlns:inkscape="http://www.inkscape.org/namespaces/inkscape"
   xmlns:sodipodi="http://sodipodi.sourceforge.net/DTD/sodipodi-0.dtd"
   xmlns="http://www.w3.org/2000/svg"
   xmlns:svg="http://www.w3.org/2000/svg"
   xmlns:ooo="http://xml.openoffice.org/svg/export"><sodipodi:namedview
   id="namedview34"
   pagecolor="#ffffff"
   bordercolor="#000000"
   borderopacity="0.25"
   inkscape:showpageshadow="2"
   inkscape:pageopacity="0.0"
   inkscape:pagecheckerboard="0"
   inkscape:deskcolor="#d1d1d1"
   inkscape:document-units="mm"
   inkscape:zoom="3.0876875"
   inkscape:cx="188.81444"
   inkscape:cy="188.97638"
   inkscape:window-width="2560"
   inkscape:window-height="1369"
   inkscape:window-x="-8"
   inkscape:window-y="-8"
   inkscape:window-maximized="1"
   inkscape:current-layer="svg34" />
 <defs
   class="ClipPathGroup"
   id="defs2">
  
  <clipPath
   id="presentation_clip_path_shrink"
   clipPathUnits="userSpaceOnUse">
   <rect
   x="10"
   y="10"
   width="9980"
   height="9980"
   id="rect2" />
  </clipPath>
 
  
 
   
  
    
   
     
    
      
      
      
      
      
      
      
      
      
      
      
      
      
      
      
      
      
      
      
     
       
      
       
      
       
      
       
      
       
      
       
      
       
      
       
      
       
      
       
      
       
      
       
      
       
      
       
      
       
      
       
      
       
      
       
      
       
      
        
        
       
        
        
       
        
        
       
        
        
       
        
        
       
        
        
       
        
        
       
        
        
       
        
        
       
        
        
       
        
        
       
        
        
       
        
        
       
        
        
       
        
        
       
        
        
       
        
        
       
        
        
       
        
        
       </defs>
 <defs
   class="TextShapeIndex"
   id="defs3">
  <g
   ooo:slide="id1"
   ooo:id-list="id3 id4 id5 id6 id7 id8 id9 id10 id11 id12 id13 id14 id15 id16 id17 id18 id19 id20 id21"
   id="g2" />
 </defs>
 <defs
   class="EmbeddedBulletChars"
   id="defs12">
  <g
   id="bullet-char-template-57356"
   transform="scale(0.00048828125,-0.00048828125)">
   <path
   d="M 580,1141 L 1163,571 580,0 -4,571 580,1141 Z"
   id="path3" />
  </g>
  <g
   id="bullet-char-template-57354"
   transform="scale(0.00048828125,-0.00048828125)">
   <path
   d="M 8,1128 L 1137,1128 1137,0 8,0 8,1128 Z"
   id="path4" />
  </g>
  <g
   id="bullet-char-template-10146"
   transform="scale(0.00048828125,-0.00048828125)">
   <path
   d="M 174,0 L 602,739 174,1481 1456,739 174,0 Z M 1358,739 L 309,1346 659,739 1358,739 Z"
   id="path5" />
  </g>
  <g
   id="bullet-char-template-10132"
   transform="scale(0.00048828125,-0.00048828125)">
   <path
   d="M 2015,739 L 1276,0 717,0 1260,543 174,543 174,936 1260,936 717,1481 1274,1481 2015,739 Z"
   id="path6" />
  </g>
  <g
   id="bullet-char-template-10007"
   transform="scale(0.00048828125,-0.00048828125)">
   <path
   d="M 0,-2 C -7,14 -16,27 -25,37 L 356,567 C 262,823 215,952 215,954 215,979 228,992 255,992 264,992 276,990 289,987 310,991 331,999 354,1012 L 381,999 492,748 772,1049 836,1024 860,1049 C 881,1039 901,1025 922,1006 886,937 835,863 770,784 769,783 710,716 594,584 L 774,223 C 774,196 753,168 711,139 L 727,119 C 717,90 699,76 672,76 641,76 570,178 457,381 L 164,-76 C 142,-110 111,-127 72,-127 30,-127 9,-110 8,-76 1,-67 -2,-52 -2,-32 -2,-23 -1,-13 0,-2 Z"
   id="path7" />
  </g>
  <g
   id="bullet-char-template-10004"
   transform="scale(0.00048828125,-0.00048828125)">
   <path
   d="M 285,-33 C 182,-33 111,30 74,156 52,228 41,333 41,471 41,549 55,616 82,672 116,743 169,778 240,778 293,778 328,747 346,684 L 369,508 C 377,444 397,411 428,410 L 1163,1116 C 1174,1127 1196,1133 1229,1133 1271,1133 1292,1118 1292,1087 L 1292,965 C 1292,929 1282,901 1262,881 L 442,47 C 390,-6 338,-33 285,-33 Z"
   id="path8" />
  </g>
  <g
   id="bullet-char-template-9679"
   transform="scale(0.00048828125,-0.00048828125)">
   <path
   d="M 813,0 C 632,0 489,54 383,161 276,268 223,411 223,592 223,773 276,916 383,1023 489,1130 632,1184 813,1184 992,1184 1136,1130 1245,1023 1353,916 1407,772 1407,592 1407,412 1353,268 1245,161 1136,54 992,0 813,0 Z"
   id="path9" />
  </g>
  <g
   id="bullet-char-template-8226"
   transform="scale(0.00048828125,-0.00048828125)">
   <path
   d="M 346,457 C 273,457 209,483 155,535 101,586 74,649 74,723 74,796 101,859 155,911 209,963 273,989 346,989 419,989 480,963 531,910 582,859 608,796 608,723 608,648 583,586 532,535 482,483 420,457 346,457 Z"
   id="path10" />
  </g>
  <g
   id="bullet-char-template-8211"
   transform="scale(0.00048828125,-0.00048828125)">
   <path
   d="M -4,459 L 1135,459 1135,606 -4,606 -4,459 Z"
   id="path11" />
  </g>
  <g
   id="bullet-char-template-61548"
   transform="scale(0.00048828125,-0.00048828125)">
   <path
   d="M 173,740 C 173,903 231,1043 346,1159 462,1274 601,1332 765,1332 928,1332 1067,1274 1183,1159 1299,1043 1357,903 1357,740 1357,577 1299,437 1183,322 1067,206 928,148 765,148 601,148 462,206 346,322 231,437 173,577 173,740 Z"
   id="path12" />
  </g>
 </defs>
 
 <path
   id="path13"
   d="M 4128.9986 1458.9807 C 4115.9256 1458.9075 4102.2692 1459.2642 4088.0192 1460.0142 C 3862.0192 1473.0142 3659.0208 1549.9996 3638.0208 1699.9996 C 3615.0208 1848.9996 3638.0119 2095.0124 3741.0119 2209.0124 C 3744.4933 2212.8565 3747.8707 2216.1581 3751.2955 2219.6578 C 3751.8754 2220.4197 3752.3805 2221.2567 3753.0009 2221.9832 C 3865.0009 2351.9832 4706.0092 2797.9841 5014.0092 2799.9841 C 5017.5629 2799.9956 5021.1014 2799.4358 5024.6545 2799.2606 C 5092.5165 2807.8058 5177.7981 2771.5978 5253.0127 2721.0225 C 5368.0127 2641.0225 5456.0189 2533.9774 5489.0189 2358.9774 C 5517.7243 2203.789 5489.2035 2070.4375 5355.2803 2054.7066 C 5092.212 2017.3202 4462.0331 1650.3596 4309.1943 1521.0441 C 4275.912 1478.4222 4215.4103 1459.4648 4128.9986 1458.9807 z M 5177.9785 3152.9858 C 5164.9055 3152.9128 5151.2491 3153.2693 5136.9991 3154.0193 C 4924.2519 3166.257 4731.9809 3235.2071 4692.6334 3367.5464 C 4517.2835 3698.0692 4039.0914 4656.0749 3758.9953 5296.9893 C 3482.9223 5924.3415 2840.2879 7475.6889 2771.3037 7707.2298 C 2769.6977 7712.3583 2768.3036 7717.569 2767.1696 7722.8877 C 2766.3902 7726.2797 2764.2056 7732.9511 2764.0173 7734.98 C 2763.829 7736.9882 2764.1516 7739.1889 2764.224 7741.2845 C 2743.7332 7890.8178 2767.3742 8131.5396 2867.9903 8243.9929 C 2910.2402 8290.6438 2948.0689 8311.7115 2988.6548 8312.2574 C 2988.7412 8312.2593 2988.8267 8312.2557 2988.9131 8312.2574 C 2991.4699 8312.2863 2994.0321 8312.2351 2996.6129 8312.1024 C 3046.3458 8309.9375 3100.7889 8277.9195 3172.9846 8224.9759 C 3257.6989 8162.5549 3324.0483 8068.1517 3370.4402 7980.6498 C 3373.0698 7976.5771 3375.7641 7972.564 3377.985 7967.989 C 3379.4292 7964.9679 3381.4418 7959.706 3382.9976 7956.2585 C 3403.2936 7915.3699 3419.1024 7876.8515 3430.0232 7844.9991 C 3437.7999 7822.3378 3444.2626 7801.0449 3449.6602 7780.8687 C 3488.7299 7670.7368 3542.7181 7510.2245 3599.1601 7341.3606 C 3825.166 7222.8216 4417.909 6884.3441 5054.0067 6733.0257 C 5537.1047 6619.0202 5909.204 6572.9748 6189.9064 6549.1609 C 6371.9038 7051.0899 6475.3244 7422.6333 6566.4725 7666.7671 C 6573.0254 7687.5563 6580.4553 7707.5898 6589.0034 7726.35 C 6591.9559 7733.6729 6595.0494 7742.9683 6597.9951 7750.0178 C 6599.8059 7754.7259 6602.8408 7757.8607 6606.4184 7760.3531 C 6617.0274 7778.7182 6628.8831 7795.4704 6642.0235 7810.0142 C 6684.2912 7856.6848 6722.0645 7877.7499 6762.5846 7878.2787 C 6762.6708 7878.2806 6762.7567 7878.2771 6762.843 7878.2787 C 6765.3774 7878.3064 6767.9336 7878.2555 6770.4911 7878.1237 C 6820.1098 7875.9612 6874.3205 7843.9429 6945.9842 7790.9973 C 7079.9842 7692.9973 7167.0228 7515.9869 7203.0228 7409.9869 C 7245.8281 7285.7135 7252.275 7199.6672 7224.6752 7143.9567 C 7169.2197 6937.4697 7042.9318 6602.7386 6873.2755 6192.1801 C 6899.3018 6142.6153 6919.0087 6095.1877 6931.9799 6056.9946 C 7016.4178 5811.8524 6959.9095 5714.3127 6778.1392 5707.4035 C 6759.4182 5706.6554 6739.3628 5706.8986 6717.9878 5708.0236 C 6701.6884 5708.9612 6685.5675 5710.2926 6669.567 5711.8994 C 6607.8853 5568.6742 6546.2864 5425.5873 6478.9843 5273.0114 C 6109.9843 4443.0114 5523.9872 3480.9963 5373.9872 3234.9963 C 5371.3424 3230.6765 5368.2676 3227.2237 5365.3572 3223.4208 C 5335.8196 3178.1479 5279.2482 3156.5239 5197.1504 3153.3992 C 5190.9101 3153.1501 5184.515 3153.0223 5177.9785 3152.9858 z M 4967.0353 4176.1275 C 5197.7393 4510.4996 5548.0452 5022.9594 5849.9788 5701.9775 C 5868.9254 5744.7642 5886.5891 5786.0738 5904.4974 5827.6546 C 5570.4765 5894.4088 5186.3875 5984.2044 4855.0008 6082.9878 C 4460.8966 6199.6105 4160.098 6320.188 3913.8179 6422.7087 C 3993.1092 6201.2041 4074.6624 5984.0565 4154.01 5792.9797 C 4364.368 5275.4321 4702.6197 4635.765 4967.0353 4176.1275 z " />
   
  
</svg>
