<?xml version="1.0" encoding="UTF-8" standalone="no"?>
<svg
   version="1.2"
   width="100mm"
   height="100mm"
   viewBox="0 0 10000 10000"
   preserveAspectRatio="xMidYMid"
   fill-rule="evenodd"
   stroke-width="28.222"
   stroke-linejoin="round"
   xml:space="preserve"
   id="svg24"
   sodipodi:docname="gobo-caps-00B6.svg"
   inkscape:version="1.4 (86a8ad7, 2024-10-11)"
   xmlns:inkscape="http://www.inkscape.org/namespaces/inkscape"
   xmlns:sodipodi="http://sodipodi.sourceforge.net/DTD/sodipodi-0.dtd"
   xmlns="http://www.w3.org/2000/svg"
   xmlns:svg="http://www.w3.org/2000/svg"
   xmlns:ooo="http://xml.openoffice.org/svg/export"><sodipodi:namedview
   id="namedview24"
   pagecolor="#ffffff"
   bordercolor="#000000"
   borderopacity="0.25"
   inkscape:showpageshadow="2"
   inkscape:pageopacity="0.0"
   inkscape:pagecheckerboard="0"
   inkscape:deskcolor="#d1d1d1"
   inkscape:document-units="mm"
   showgrid="false"
   inkscape:zoom="3.0876875"
   inkscape:cx="188.81444"
   inkscape:cy="188.97638"
   inkscape:window-width="2560"
   inkscape:window-height="1369"
   inkscape:window-x="-8"
   inkscape:window-y="-8"
   inkscape:window-maximized="1"
   inkscape:current-layer="svg24" />
 <defs
   class="ClipPathGroup"
   id="defs2">
  
  <clipPath
   id="presentation_clip_path_shrink"
   clipPathUnits="userSpaceOnUse">
   <rect
   x="10"
   y="10"
   width="9980"
   height="9980"
   id="rect2" />
  </clipPath>
 
  
 
   
  
    
   
     
    
      
      
      
      
      
      
      
      
      
     
       
      
       
      
       
      
       
      
       
      
       
      
       
      
       
      
       
      
        
        
       
        
        
       
        
        
       
        
        
       
        
        
       
        
        
       
        
        
       
        
        
       
        
        
       </defs>
 <defs
   class="TextShapeIndex"
   id="defs3">
  <g
   ooo:slide="id1"
   ooo:id-list="id3 id4 id5 id6 id7 id8 id9 id10 id11"
   id="g2" />
 </defs>
 <defs
   class="EmbeddedBulletChars"
   id="defs12">
  <g
   id="bullet-char-template-57356"
   transform="scale(0.00048828125,-0.00048828125)">
   <path
   d="M 580,1141 L 1163,571 580,0 -4,571 580,1141 Z"
   id="path3" />
  </g>
  <g
   id="bullet-char-template-57354"
   transform="scale(0.00048828125,-0.00048828125)">
   <path
   d="M 8,1128 L 1137,1128 1137,0 8,0 8,1128 Z"
   id="path4" />
  </g>
  <g
   id="bullet-char-template-10146"
   transform="scale(0.00048828125,-0.00048828125)">
   <path
   d="M 174,0 L 602,739 174,1481 1456,739 174,0 Z M 1358,739 L 309,1346 659,739 1358,739 Z"
   id="path5" />
  </g>
  <g
   id="bullet-char-template-10132"
   transform="scale(0.00048828125,-0.00048828125)">
   <path
   d="M 2015,739 L 1276,0 717,0 1260,543 174,543 174,936 1260,936 717,1481 1274,1481 2015,739 Z"
   id="path6" />
  </g>
  <g
   id="bullet-char-template-10007"
   transform="scale(0.00048828125,-0.00048828125)">
   <path
   d="M 0,-2 C -7,14 -16,27 -25,37 L 356,567 C 262,823 215,952 215,954 215,979 228,992 255,992 264,992 276,990 289,987 310,991 331,999 354,1012 L 381,999 492,748 772,1049 836,1024 860,1049 C 881,1039 901,1025 922,1006 886,937 835,863 770,784 769,783 710,716 594,584 L 774,223 C 774,196 753,168 711,139 L 727,119 C 717,90 699,76 672,76 641,76 570,178 457,381 L 164,-76 C 142,-110 111,-127 72,-127 30,-127 9,-110 8,-76 1,-67 -2,-52 -2,-32 -2,-23 -1,-13 0,-2 Z"
   id="path7" />
  </g>
  <g
   id="bullet-char-template-10004"
   transform="scale(0.00048828125,-0.00048828125)">
   <path
   d="M 285,-33 C 182,-33 111,30 74,156 52,228 41,333 41,471 41,549 55,616 82,672 116,743 169,778 240,778 293,778 328,747 346,684 L 369,508 C 377,444 397,411 428,410 L 1163,1116 C 1174,1127 1196,1133 1229,1133 1271,1133 1292,1118 1292,1087 L 1292,965 C 1292,929 1282,901 1262,881 L 442,47 C 390,-6 338,-33 285,-33 Z"
   id="path8" />
  </g>
  <g
   id="bullet-char-template-9679"
   transform="scale(0.00048828125,-0.00048828125)">
   <path
   d="M 813,0 C 632,0 489,54 383,161 276,268 223,411 223,592 223,773 276,916 383,1023 489,1130 632,1184 813,1184 992,1184 1136,1130 1245,1023 1353,916 1407,772 1407,592 1407,412 1353,268 1245,161 1136,54 992,0 813,0 Z"
   id="path9" />
  </g>
  <g
   id="bullet-char-template-8226"
   transform="scale(0.00048828125,-0.00048828125)">
   <path
   d="M 346,457 C 273,457 209,483 155,535 101,586 74,649 74,723 74,796 101,859 155,911 209,963 273,989 346,989 419,989 480,963 531,910 582,859 608,796 608,723 608,648 583,586 532,535 482,483 420,457 346,457 Z"
   id="path10" />
  </g>
  <g
   id="bullet-char-template-8211"
   transform="scale(0.00048828125,-0.00048828125)">
   <path
   d="M -4,459 L 1135,459 1135,606 -4,606 -4,459 Z"
   id="path11" />
  </g>
  <g
   id="bullet-char-template-61548"
   transform="scale(0.00048828125,-0.00048828125)">
   <path
   d="M 173,740 C 173,903 231,1043 346,1159 462,1274 601,1332 765,1332 928,1332 1067,1274 1183,1159 1299,1043 1357,903 1357,740 1357,577 1299,437 1183,322 1067,206 928,148 765,148 601,148 462,206 346,322 231,437 173,577 173,740 Z"
   id="path12" />
  </g>
 </defs>
 
 <path
   id="path13"
   d="M 6665.4846 2066.6955 C 6655.9648 2065.9876 6645.808 2066.0681 6634.9955 2067.0056 C 4005.9955 2136.0056 3249.0045 2920.0202 3058.0045 4199.0202 C 2881.2828 5382.4081 3723.6835 5738.9147 4325.9375 5757.9947 C 4335.8756 6547.6845 4368.831 7948.874 4383.195 8425.0671 C 4381.6443 8464.7157 4382.672 8507.2722 4386.709 8550.3824 C 4386.781 8552.487 4386.9489 8559.999 4387.019 8562.0096 C 4386.9538 8566.2137 4387.7398 8569.9219 4389.1377 8573.2751 C 4402.0586 8682.4693 4434.4594 8791.1349 4493.0074 8855.9968 C 4590.0074 8961.9968 4662.0198 8935.9799 4797.0198 8836.9799 C 4930.0198 8739.9799 5018.0067 8562.0031 5054.0067 8457.0031 C 5073.0888 8401.0015 5084.755 8352.8125 5089.4567 8311.534 C 5091.6 8306.4665 5093.1031 8301.5714 5093.0224 8297.0129 C 5092.8712 8290.0563 5092.1566 8277.9176 5091.9372 8270.3478 C 5091.9342 8270.2453 5091.9402 8270.0887 5091.9372 8269.9861 C 5091.8857 8264.4701 5091.641 8259.1211 5091.2654 8253.9147 C 5077.9265 7846.7707 4979.3197 6665.4486 4957.9919 5854.9914 C 4934.3252 5094.0146 4994.1389 3504.5071 5039.7957 2953.1014 C 5253.3674 2918.33 5482.1085 2898.645 5716.8603 2888.5058 C 5698.4467 3411.4846 5696.2327 4676.3354 5697.9984 5311.9755 C 5701.7452 5985.4652 5743.1523 7735.1759 5759.1833 8266.4721 C 5757.6561 8306.0038 5758.6744 8348.4141 5762.6973 8391.374 C 5762.7694 8393.4787 5762.9373 8400.9907 5763.0074 8403.0012 C 5762.9422 8407.2053 5763.7281 8410.9135 5765.1261 8414.2667 C 5778.047 8523.4609 5810.4478 8632.1265 5868.9957 8696.9885 C 5965.9957 8802.9885 6038.0082 8777.0232 6173.0082 8678.0232 C 6306.0082 8581.0232 6393.9951 8402.9947 6429.9951 8297.9947 C 6449.0852 8241.9693 6460.7991 8193.764 6465.4968 8152.4739 C 6467.6228 8147.4288 6469.0911 8142.5447 6469.0108 8138.0045 C 6468.8575 8130.9537 6468.1488 8118.6584 6467.9256 8110.9777 C 6467.8719 8105.2371 6467.6583 8099.6915 6467.2538 8094.2862 C 6453.843 7686.6194 6355.2984 6506.073 6333.9803 5695.983 C 6311.5776 4975.6503 6364.1953 3506.5177 6408.601 2883.4415 C 6423.476 2883.7837 6438.3918 2883.9326 6453.2495 2884.32 C 6515.1863 2904.8291 6578.6068 2871.2523 6671.0139 2802.9813 C 6805.0139 2704.9813 6892.0008 2528.0227 6928.0008 2422.0227 C 7021.0008 2152.0227 6943.0241 2062.0001 6716.0241 2073.0001 C 6710.6694 2073.3081 6705.384 2073.8076 6700.0561 2074.1886 C 6689.4959 2070.4903 6678.2676 2067.6461 6665.4846 2066.6955 z M 4337.8747 3154.2261 C 4325.7696 3598.5364 4322.091 4370.7038 4321.8034 4985.3804 C 3945.2776 4972.5038 3558.5723 4585.892 3735.9993 3824.9861 C 3808.9226 3512.2505 4028.828 3298.4868 4337.8747 3154.2261 z " />
   
  
</svg>
