<?xml version="1.0" encoding="UTF-8" standalone="no"?>
<svg
   version="1.2"
   width="100mm"
   height="100mm"
   viewBox="0 0 10000 10000"
   preserveAspectRatio="xMidYMid"
   fill-rule="evenodd"
   stroke-width="28.222"
   stroke-linejoin="round"
   xml:space="preserve"
   id="svg21"
   sodipodi:docname="gobo-caps-00A2.svg"
   inkscape:version="1.4 (86a8ad7, 2024-10-11)"
   xmlns:inkscape="http://www.inkscape.org/namespaces/inkscape"
   xmlns:sodipodi="http://sodipodi.sourceforge.net/DTD/sodipodi-0.dtd"
   xmlns="http://www.w3.org/2000/svg"
   xmlns:svg="http://www.w3.org/2000/svg"
   xmlns:ooo="http://xml.openoffice.org/svg/export"><sodipodi:namedview
   id="namedview21"
   pagecolor="#ffffff"
   bordercolor="#000000"
   borderopacity="0.25"
   inkscape:showpageshadow="2"
   inkscape:pageopacity="0.0"
   inkscape:pagecheckerboard="0"
   inkscape:deskcolor="#d1d1d1"
   inkscape:document-units="mm"
   showgrid="false"
   inkscape:zoom="3.0876875"
   inkscape:cx="188.81444"
   inkscape:cy="188.97638"
   inkscape:window-width="2560"
   inkscape:window-height="1369"
   inkscape:window-x="-8"
   inkscape:window-y="-8"
   inkscape:window-maximized="1"
   inkscape:current-layer="svg21" />
 <defs
   class="ClipPathGroup"
   id="defs2">
  
  <clipPath
   id="presentation_clip_path_shrink"
   clipPathUnits="userSpaceOnUse">
   <rect
   x="10"
   y="10"
   width="9980"
   height="9980"
   id="rect2" />
  </clipPath>
 
  
 
   
  
    
   
     
    
      
      
      
      
      
      
     
       
      
       
      
       
      
       
      
       
      
       
      
        
        
       
        
        
       
        
        
       
        
        
       
        
        
       
        
        
       </defs>
 <defs
   class="TextShapeIndex"
   id="defs3">
  <g
   ooo:slide="id1"
   ooo:id-list="id3 id4 id5 id6 id7 id8"
   id="g2" />
 </defs>
 <defs
   class="EmbeddedBulletChars"
   id="defs12">
  <g
   id="bullet-char-template-57356"
   transform="scale(0.00048828125,-0.00048828125)">
   <path
   d="M 580,1141 L 1163,571 580,0 -4,571 580,1141 Z"
   id="path3" />
  </g>
  <g
   id="bullet-char-template-57354"
   transform="scale(0.00048828125,-0.00048828125)">
   <path
   d="M 8,1128 L 1137,1128 1137,0 8,0 8,1128 Z"
   id="path4" />
  </g>
  <g
   id="bullet-char-template-10146"
   transform="scale(0.00048828125,-0.00048828125)">
   <path
   d="M 174,0 L 602,739 174,1481 1456,739 174,0 Z M 1358,739 L 309,1346 659,739 1358,739 Z"
   id="path5" />
  </g>
  <g
   id="bullet-char-template-10132"
   transform="scale(0.00048828125,-0.00048828125)">
   <path
   d="M 2015,739 L 1276,0 717,0 1260,543 174,543 174,936 1260,936 717,1481 1274,1481 2015,739 Z"
   id="path6" />
  </g>
  <g
   id="bullet-char-template-10007"
   transform="scale(0.00048828125,-0.00048828125)">
   <path
   d="M 0,-2 C -7,14 -16,27 -25,37 L 356,567 C 262,823 215,952 215,954 215,979 228,992 255,992 264,992 276,990 289,987 310,991 331,999 354,1012 L 381,999 492,748 772,1049 836,1024 860,1049 C 881,1039 901,1025 922,1006 886,937 835,863 770,784 769,783 710,716 594,584 L 774,223 C 774,196 753,168 711,139 L 727,119 C 717,90 699,76 672,76 641,76 570,178 457,381 L 164,-76 C 142,-110 111,-127 72,-127 30,-127 9,-110 8,-76 1,-67 -2,-52 -2,-32 -2,-23 -1,-13 0,-2 Z"
   id="path7" />
  </g>
  <g
   id="bullet-char-template-10004"
   transform="scale(0.00048828125,-0.00048828125)">
   <path
   d="M 285,-33 C 182,-33 111,30 74,156 52,228 41,333 41,471 41,549 55,616 82,672 116,743 169,778 240,778 293,778 328,747 346,684 L 369,508 C 377,444 397,411 428,410 L 1163,1116 C 1174,1127 1196,1133 1229,1133 1271,1133 1292,1118 1292,1087 L 1292,965 C 1292,929 1282,901 1262,881 L 442,47 C 390,-6 338,-33 285,-33 Z"
   id="path8" />
  </g>
  <g
   id="bullet-char-template-9679"
   transform="scale(0.00048828125,-0.00048828125)">
   <path
   d="M 813,0 C 632,0 489,54 383,161 276,268 223,411 223,592 223,773 276,916 383,1023 489,1130 632,1184 813,1184 992,1184 1136,1130 1245,1023 1353,916 1407,772 1407,592 1407,412 1353,268 1245,161 1136,54 992,0 813,0 Z"
   id="path9" />
  </g>
  <g
   id="bullet-char-template-8226"
   transform="scale(0.00048828125,-0.00048828125)">
   <path
   d="M 346,457 C 273,457 209,483 155,535 101,586 74,649 74,723 74,796 101,859 155,911 209,963 273,989 346,989 419,989 480,963 531,910 582,859 608,796 608,723 608,648 583,586 532,535 482,483 420,457 346,457 Z"
   id="path10" />
  </g>
  <g
   id="bullet-char-template-8211"
   transform="scale(0.00048828125,-0.00048828125)">
   <path
   d="M -4,459 L 1135,459 1135,606 -4,606 -4,459 Z"
   id="path11" />
  </g>
  <g
   id="bullet-char-template-61548"
   transform="scale(0.00048828125,-0.00048828125)">
   <path
   d="M 173,740 C 173,903 231,1043 346,1159 462,1274 601,1332 765,1332 928,1332 1067,1274 1183,1159 1299,1043 1357,903 1357,740 1357,577 1299,437 1183,322 1067,206 928,148 765,148 601,148 462,206 346,322 231,437 173,577 173,740 Z"
   id="path12" />
  </g>
 </defs>
 
 <path
   id="path13"
   d="M 5249.9637 2149.9979 C 5236.891 2149.9245 5223.2343 2150.2298 5208.9843 2150.9798 C 4982.9843 2163.9798 4779.0041 2242.0168 4758.0041 2391.0168 C 4756.2985 2402.5686 4754.9155 2414.8375 4753.7666 2427.4487 C 4753.0891 2429.2991 4752.1983 2431.1291 4752.0096 2432.9781 C 4744.3617 2542.2796 4740.1389 2856.56 4737.2302 3223.1624 C 4031.7262 3605.9349 3343.4445 4493.8051 3092.0076 5638.0021 C 2786.0571 7030.2706 3673.4404 8001.6007 4830.1961 7943.081 C 4842.684 8190.0713 4853.2501 8377.5546 4858.9799 8439.0197 C 4859.2861 8442.2229 4860.3574 8444.9546 4861.4087 8447.7014 C 4872.0554 8565.1599 4904.8495 8686.3857 4968.0171 8756.9848 C 5064.0171 8862.9848 5136.9779 8837.0195 5271.9779 8738.0195 C 5405.9779 8639.0195 5491.9829 8463.0092 5527.9829 8357.0092 C 5563.7842 8252.6852 5574.1651 8175.2521 5560.5391 8120.1244 C 5557.9266 8082.413 5547.4238 7969.5028 5535.476 7841.2267 C 6217.8674 7693.1098 6502.9344 7455.9982 6720.9851 7228.8094 C 6734.7369 7215.8515 6747.8052 7201.9969 6760.3625 7187.6749 C 6768.0112 7179.4978 6776.4412 7171.1549 6783.9786 7163.0253 C 6789.7625 7156.7712 6794.0252 7149.3624 6797.5179 7141.4762 C 6862.1443 7054.1898 6907.0797 6955.8796 6930.9981 6888.0033 C 7022.9981 6618.0033 6945.9878 6526.9807 6717.9878 6538.9807 C 6557.6128 6548.1651 6409.305 6589.3825 6328.6059 6665.2779 C 6321.1597 6670.0357 6313.8786 6675.4049 6307.0052 6682.021 C 6084.7955 6857.5535 5815.8045 7011.5206 5468.1416 7110.3153 C 5415.658 6532.8878 5361.1268 5888.5425 5359.001 5626.0131 C 5356.7871 5353.1426 5369.323 4500.8767 5390.9887 3725.9741 C 5721.1011 3727.0304 6033.7586 3903.912 6207.0113 4368.9839 C 6211.5519 4380.5995 6216.8111 4390.7211 6222.4625 4399.9381 C 6238.7063 4441.1028 6259.3715 4477.6226 6284.991 4505.9782 C 6380.991 4611.9782 6454.0034 4586.0129 6589.0034 4487.0129 C 6722.0034 4388.0129 6809.0085 4212.0026 6845.0085 4106.0026 C 6878.9617 4007.0636 6889.9863 3932.3349 6879.425 3877.8511 C 6879.0422 3870.0281 6878.111 3862.5762 6876.0144 3855.992 C 6736.9922 3424.7396 6202.4846 2952.7022 5414.9149 3016.0433 C 5428.0322 2703.5649 5442.7957 2455.2241 5458.9949 2352.983 C 5459.2783 2350.3673 5458.8154 2348.0003 5458.4265 2345.5932 C 5471.4919 2206.7018 5399.3557 2150.8377 5249.9637 2149.9979 z M 4733.4061 3931.9047 C 4732.2717 4571.8427 4734.6006 5237.7244 4738.0053 5549.0153 C 4741.6567 5882.8527 4768.337 6583.3098 4796.2447 7217.4922 C 4155.8759 7225.2806 3629.0078 6600.5494 3661.0168 5939.9991 C 3694.0168 5259.9991 3948.9858 4701.9949 4422.9858 4188.9949 C 4511.8793 4092.3961 4617.7414 4004.5438 4733.4061 3931.9047 z " />
   
  
</svg>
