<?xml version="1.0" encoding="UTF-8" standalone="no"?>
<svg
   version="1.2"
   width="100mm"
   height="100mm"
   viewBox="0 0 10000 10000"
   preserveAspectRatio="xMidYMid"
   fill-rule="evenodd"
   stroke-width="28.222"
   stroke-linejoin="round"
   xml:space="preserve"
   id="svg28"
   sodipodi:docname="gobo-caps-00BD.svg"
   inkscape:version="1.4 (86a8ad7, 2024-10-11)"
   xmlns:inkscape="http://www.inkscape.org/namespaces/inkscape"
   xmlns:sodipodi="http://sodipodi.sourceforge.net/DTD/sodipodi-0.dtd"
   xmlns="http://www.w3.org/2000/svg"
   xmlns:svg="http://www.w3.org/2000/svg"
   xmlns:ooo="http://xml.openoffice.org/svg/export"><sodipodi:namedview
   id="namedview28"
   pagecolor="#ffffff"
   bordercolor="#000000"
   borderopacity="0.25"
   inkscape:showpageshadow="2"
   inkscape:pageopacity="0.0"
   inkscape:pagecheckerboard="0"
   inkscape:deskcolor="#d1d1d1"
   inkscape:document-units="mm"
   showgrid="false"
   inkscape:zoom="3.0876875"
   inkscape:cx="188.81444"
   inkscape:cy="188.97638"
   inkscape:window-width="2560"
   inkscape:window-height="1369"
   inkscape:window-x="-8"
   inkscape:window-y="-8"
   inkscape:window-maximized="1"
   inkscape:current-layer="svg28" />
 <defs
   class="ClipPathGroup"
   id="defs2">
  
  <clipPath
   id="presentation_clip_path_shrink"
   clipPathUnits="userSpaceOnUse">
   <rect
   x="10"
   y="10"
   width="9980"
   height="9980"
   id="rect2" />
  </clipPath>
 
  
 
   
  
    
   
     
    
      
      
      
      
      
      
      
      
      
      
      
      
      
     
       
      
       
      
       
      
       
      
       
      
       
      
       
      
       
      
       
      
       
      
       
      
       
      
       
      
        
        
       
        
        
       
        
        
       
        
        
       
        
        
       
        
        
       
        
        
       
        
        
       
        
        
       
        
        
       
        
        
       
        
        
       
        
        
       </defs>
 <defs
   class="TextShapeIndex"
   id="defs3">
  <g
   ooo:slide="id1"
   ooo:id-list="id3 id4 id5 id6 id7 id8 id9 id10 id11 id12 id13 id14 id15"
   id="g2" />
 </defs>
 <defs
   class="EmbeddedBulletChars"
   id="defs12">
  <g
   id="bullet-char-template-57356"
   transform="scale(0.00048828125,-0.00048828125)">
   <path
   d="M 580,1141 L 1163,571 580,0 -4,571 580,1141 Z"
   id="path3" />
  </g>
  <g
   id="bullet-char-template-57354"
   transform="scale(0.00048828125,-0.00048828125)">
   <path
   d="M 8,1128 L 1137,1128 1137,0 8,0 8,1128 Z"
   id="path4" />
  </g>
  <g
   id="bullet-char-template-10146"
   transform="scale(0.00048828125,-0.00048828125)">
   <path
   d="M 174,0 L 602,739 174,1481 1456,739 174,0 Z M 1358,739 L 309,1346 659,739 1358,739 Z"
   id="path5" />
  </g>
  <g
   id="bullet-char-template-10132"
   transform="scale(0.00048828125,-0.00048828125)">
   <path
   d="M 2015,739 L 1276,0 717,0 1260,543 174,543 174,936 1260,936 717,1481 1274,1481 2015,739 Z"
   id="path6" />
  </g>
  <g
   id="bullet-char-template-10007"
   transform="scale(0.00048828125,-0.00048828125)">
   <path
   d="M 0,-2 C -7,14 -16,27 -25,37 L 356,567 C 262,823 215,952 215,954 215,979 228,992 255,992 264,992 276,990 289,987 310,991 331,999 354,1012 L 381,999 492,748 772,1049 836,1024 860,1049 C 881,1039 901,1025 922,1006 886,937 835,863 770,784 769,783 710,716 594,584 L 774,223 C 774,196 753,168 711,139 L 727,119 C 717,90 699,76 672,76 641,76 570,178 457,381 L 164,-76 C 142,-110 111,-127 72,-127 30,-127 9,-110 8,-76 1,-67 -2,-52 -2,-32 -2,-23 -1,-13 0,-2 Z"
   id="path7" />
  </g>
  <g
   id="bullet-char-template-10004"
   transform="scale(0.00048828125,-0.00048828125)">
   <path
   d="M 285,-33 C 182,-33 111,30 74,156 52,228 41,333 41,471 41,549 55,616 82,672 116,743 169,778 240,778 293,778 328,747 346,684 L 369,508 C 377,444 397,411 428,410 L 1163,1116 C 1174,1127 1196,1133 1229,1133 1271,1133 1292,1118 1292,1087 L 1292,965 C 1292,929 1282,901 1262,881 L 442,47 C 390,-6 338,-33 285,-33 Z"
   id="path8" />
  </g>
  <g
   id="bullet-char-template-9679"
   transform="scale(0.00048828125,-0.00048828125)">
   <path
   d="M 813,0 C 632,0 489,54 383,161 276,268 223,411 223,592 223,773 276,916 383,1023 489,1130 632,1184 813,1184 992,1184 1136,1130 1245,1023 1353,916 1407,772 1407,592 1407,412 1353,268 1245,161 1136,54 992,0 813,0 Z"
   id="path9" />
  </g>
  <g
   id="bullet-char-template-8226"
   transform="scale(0.00048828125,-0.00048828125)">
   <path
   d="M 346,457 C 273,457 209,483 155,535 101,586 74,649 74,723 74,796 101,859 155,911 209,963 273,989 346,989 419,989 480,963 531,910 582,859 608,796 608,723 608,648 583,586 532,535 482,483 420,457 346,457 Z"
   id="path10" />
  </g>
  <g
   id="bullet-char-template-8211"
   transform="scale(0.00048828125,-0.00048828125)">
   <path
   d="M -4,459 L 1135,459 1135,606 -4,606 -4,459 Z"
   id="path11" />
  </g>
  <g
   id="bullet-char-template-61548"
   transform="scale(0.00048828125,-0.00048828125)">
   <path
   d="M 173,740 C 173,903 231,1043 346,1159 462,1274 601,1332 765,1332 928,1332 1067,1274 1183,1159 1299,1043 1357,903 1357,740 1357,577 1299,437 1183,322 1067,206 928,148 765,148 601,148 462,206 346,322 231,437 173,577 173,740 Z"
   id="path12" />
  </g>
 </defs>
 
 <path
   id="path13"
   d="M 3697.8104 2800.1391 C 3684.7924 2800.0183 3671.1736 2800.3301 3656.9861 2801.0176 C 3520.5062 2808.8682 3392.1646 2840.4512 3307.1883 2897.0324 C 3303.7739 2897.636 3300.6557 2898.8935 3297.9899 2901.0115 C 3102.0188 3068.4431 3034.4201 3110.3189 2915.5326 3263.7801 C 2912.8809 3267.033 2910.3585 3270.3416 2907.9362 3273.702 C 2904.2754 3278.4849 2900.7473 3283.0134 2896.9808 3288.0163 C 2894.9261 3291.1158 2893.5193 3294.7727 2892.5366 3298.8684 C 2883.7949 3316.0379 2877.7831 3334.3899 2875.0183 3354.0071 C 2852.0183 3503.0071 2875.0094 3749.02 2978.0094 3863.02 C 3036.8779 3928.0206 3087.1362 3943.2181 3148.0766 3922.5512 C 3143.418 4021.2105 3139.4402 4118.7027 3137.0178 4208.9937 C 3127.0178 4618.9937 3145.9858 5098.9755 3152.9858 5311.9755 C 3153.1371 5313.3367 3154.0015 5314.399 3154.6395 5315.5411 C 3159.5334 5447.1056 3192.2469 5593.4753 3265.0203 5674.0205 C 3361.0203 5780.0205 3433.9992 5754.0036 3567.9992 5655.0036 C 3701.9992 5557.0036 3788.9861 5379.9933 3824.9861 5273.9933 C 3852.1425 5195.1521 3864.632 5131.7658 3863.175 5081.6536 C 3863.3982 5080.7874 3863.9895 5079.8326 3864.0018 5079.0181 C 3853.0018 4889.0181 3775.0012 4744.9983 3790.0012 4259.9983 C 3804.3061 3800.3337 3867.7596 3271.3097 3899.7103 3038.5742 C 3932.077 2868.4335 3861.2501 2801.6564 3697.8104 2800.1391 z M 6602.8011 3042.9667 C 6589.783 3042.8935 6576.1642 3043.2502 6561.9767 3044.0002 C 6382.9976 3054.2955 6217.9669 3104.7611 6146.5498 3199.8047 C 6146.0867 3200.2636 6145.4238 3200.4895 6144.9995 3200.9932 C 5938.9995 3472.9932 4915.9784 4866.9876 4374.9784 5578.9876 C 3835.9784 6291.9876 3005.0053 7296.9846 2833.0053 7617.9846 C 2830.6303 7621.6307 2828.9703 7625.7513 2827.786 7630.1802 C 2819.4337 7646.9456 2813.6859 7664.8558 2810.9912 7683.9754 C 2787.9912 7833.9754 2811.0005 8078.9882 2913.0005 8192.9882 C 3010.0005 8298.9882 3081.9948 8273.023 3217.9948 8174.023 C 3269.3898 8136.1529 3313.8482 8086.4262 3351.2166 8033.6181 C 3357.2461 8028.2647 3362.9704 8022.3047 3368.0114 8015.0146 C 3501.0114 7778.0146 4328.0137 6571.9868 4897.0137 5803.9868 C 5464.0137 5037.9868 6396.9773 3930.0042 6635.9773 3656.0042 C 6638.824 3652.7803 6640.84 3649.0451 6642.3335 3645.0488 C 6706.5393 3558.12 6750.8683 3461.1477 6774.0051 3393.0228 C 6861.1926 3139.8978 6798.0721 3044.0653 6602.8011 3042.9667 z M 6259.7212 5422.9764 C 6227.6109 5422.3812 6194.7067 5423.4003 6161.0192 5426.0253 C 5621.0192 5467.0253 5338.0253 5776.0185 5258.0253 5919.0185 C 5257.2597 5920.9803 5257.1265 5923.051 5256.6817 5925.0647 C 5250.0657 5939.857 5245.3175 5955.4545 5242.9874 5971.9869 C 5219.9874 6120.9869 5242.9786 6366.9997 5345.9786 6480.9997 C 5441.9786 6586.9997 5515.0092 6560.9828 5649.0092 6461.9828 C 5737.7025 6397.1175 5805.6421 6297.7035 5851.9942 6207.1146 C 5953.0992 6049.1412 6280.5398 6197.6582 6312.0178 6418.988 C 6345.0178 6643.988 5927.9834 6945.976 5732.9834 7122.976 C 5550.1527 7288.0833 5413.6439 7421.5791 5253.4777 7574.9381 C 5209.3067 7609.6816 5180.26 7652.6387 5173.0175 7704.0258 C 5150.0175 7853.0258 5173.0087 8098.987 5276.0087 8212.987 C 5324.7102 8266.7616 5367.4983 8286.5286 5415.3283 8280.063 C 5416.5131 8280.2806 5417.7155 8280.3182 5418.9974 8280.0113 C 5534.9974 8256.0113 5842.0118 8203.0131 6113.0118 8166.0131 C 6366.1556 8130.1196 6562.7299 8139.4803 6701.9681 8139.8132 C 6758.2075 8148.6859 6817.8842 8115.4041 6901.0257 8053.9786 C 7035.0257 7955.9786 7122.0126 7779.02 7158.0126 7673.02 C 7251.0126 7403.02 7172.9842 7312.9973 6945.9842 7323.9973 C 6918.759 7325.5634 6891.881 7328.1307 6865.5757 7331.5938 C 6694.0703 7345.9031 6549.9882 7353.1613 6304.163 7385.3889 C 6620.4436 7076.7337 6959.4409 6723.0894 7002.0015 6252.0214 C 7040.439 5794.5214 6741.3765 5431.9047 6259.7212 5422.9764 z " />
   
  
</svg>
