<?xml version="1.0" encoding="UTF-8" standalone="no"?>
<svg
   version="1.2"
   width="100mm"
   height="100mm"
   viewBox="0 0 10000 10000"
   preserveAspectRatio="xMidYMid"
   fill-rule="evenodd"
   stroke-width="28.222"
   stroke-linejoin="round"
   xml:space="preserve"
   id="svg26"
   sodipodi:docname="gobo-caps-00A5.svg"
   inkscape:version="1.4 (86a8ad7, 2024-10-11)"
   xmlns:inkscape="http://www.inkscape.org/namespaces/inkscape"
   xmlns:sodipodi="http://sodipodi.sourceforge.net/DTD/sodipodi-0.dtd"
   xmlns="http://www.w3.org/2000/svg"
   xmlns:svg="http://www.w3.org/2000/svg"
   xmlns:ooo="http://xml.openoffice.org/svg/export"><sodipodi:namedview
   id="namedview26"
   pagecolor="#ffffff"
   bordercolor="#000000"
   borderopacity="0.25"
   inkscape:showpageshadow="2"
   inkscape:pageopacity="0.0"
   inkscape:pagecheckerboard="0"
   inkscape:deskcolor="#d1d1d1"
   inkscape:document-units="mm"
   showgrid="false"
   inkscape:zoom="3.0876875"
   inkscape:cx="188.81444"
   inkscape:cy="188.97638"
   inkscape:window-width="2560"
   inkscape:window-height="1369"
   inkscape:window-x="-8"
   inkscape:window-y="-8"
   inkscape:window-maximized="1"
   inkscape:current-layer="svg26" />
 <defs
   class="ClipPathGroup"
   id="defs2">
  
  <clipPath
   id="presentation_clip_path_shrink"
   clipPathUnits="userSpaceOnUse">
   <rect
   x="10"
   y="10"
   width="9980"
   height="9980"
   id="rect2" />
  </clipPath>
 
  
 
   
  
    
   
     
    
      
      
      
      
      
      
      
      
      
      
      
     
       
      
       
      
       
      
       
      
       
      
       
      
       
      
       
      
       
      
       
      
       
      
        
        
       
        
        
       
        
        
       
        
        
       
        
        
       
        
        
       
        
        
       
        
        
       
        
        
       
        
        
       
        
        
       </defs>
 <defs
   class="TextShapeIndex"
   id="defs3">
  <g
   ooo:slide="id1"
   ooo:id-list="id3 id4 id5 id6 id7 id8 id9 id10 id11 id12 id13"
   id="g2" />
 </defs>
 <defs
   class="EmbeddedBulletChars"
   id="defs12">
  <g
   id="bullet-char-template-57356"
   transform="scale(0.00048828125,-0.00048828125)">
   <path
   d="M 580,1141 L 1163,571 580,0 -4,571 580,1141 Z"
   id="path3" />
  </g>
  <g
   id="bullet-char-template-57354"
   transform="scale(0.00048828125,-0.00048828125)">
   <path
   d="M 8,1128 L 1137,1128 1137,0 8,0 8,1128 Z"
   id="path4" />
  </g>
  <g
   id="bullet-char-template-10146"
   transform="scale(0.00048828125,-0.00048828125)">
   <path
   d="M 174,0 L 602,739 174,1481 1456,739 174,0 Z M 1358,739 L 309,1346 659,739 1358,739 Z"
   id="path5" />
  </g>
  <g
   id="bullet-char-template-10132"
   transform="scale(0.00048828125,-0.00048828125)">
   <path
   d="M 2015,739 L 1276,0 717,0 1260,543 174,543 174,936 1260,936 717,1481 1274,1481 2015,739 Z"
   id="path6" />
  </g>
  <g
   id="bullet-char-template-10007"
   transform="scale(0.00048828125,-0.00048828125)">
   <path
   d="M 0,-2 C -7,14 -16,27 -25,37 L 356,567 C 262,823 215,952 215,954 215,979 228,992 255,992 264,992 276,990 289,987 310,991 331,999 354,1012 L 381,999 492,748 772,1049 836,1024 860,1049 C 881,1039 901,1025 922,1006 886,937 835,863 770,784 769,783 710,716 594,584 L 774,223 C 774,196 753,168 711,139 L 727,119 C 717,90 699,76 672,76 641,76 570,178 457,381 L 164,-76 C 142,-110 111,-127 72,-127 30,-127 9,-110 8,-76 1,-67 -2,-52 -2,-32 -2,-23 -1,-13 0,-2 Z"
   id="path7" />
  </g>
  <g
   id="bullet-char-template-10004"
   transform="scale(0.00048828125,-0.00048828125)">
   <path
   d="M 285,-33 C 182,-33 111,30 74,156 52,228 41,333 41,471 41,549 55,616 82,672 116,743 169,778 240,778 293,778 328,747 346,684 L 369,508 C 377,444 397,411 428,410 L 1163,1116 C 1174,1127 1196,1133 1229,1133 1271,1133 1292,1118 1292,1087 L 1292,965 C 1292,929 1282,901 1262,881 L 442,47 C 390,-6 338,-33 285,-33 Z"
   id="path8" />
  </g>
  <g
   id="bullet-char-template-9679"
   transform="scale(0.00048828125,-0.00048828125)">
   <path
   d="M 813,0 C 632,0 489,54 383,161 276,268 223,411 223,592 223,773 276,916 383,1023 489,1130 632,1184 813,1184 992,1184 1136,1130 1245,1023 1353,916 1407,772 1407,592 1407,412 1353,268 1245,161 1136,54 992,0 813,0 Z"
   id="path9" />
  </g>
  <g
   id="bullet-char-template-8226"
   transform="scale(0.00048828125,-0.00048828125)">
   <path
   d="M 346,457 C 273,457 209,483 155,535 101,586 74,649 74,723 74,796 101,859 155,911 209,963 273,989 346,989 419,989 480,963 531,910 582,859 608,796 608,723 608,648 583,586 532,535 482,483 420,457 346,457 Z"
   id="path10" />
  </g>
  <g
   id="bullet-char-template-8211"
   transform="scale(0.00048828125,-0.00048828125)">
   <path
   d="M -4,459 L 1135,459 1135,606 -4,606 -4,459 Z"
   id="path11" />
  </g>
  <g
   id="bullet-char-template-61548"
   transform="scale(0.00048828125,-0.00048828125)">
   <path
   d="M 173,740 C 173,903 231,1043 346,1159 462,1274 601,1332 765,1332 928,1332 1067,1274 1183,1159 1299,1043 1357,903 1357,740 1357,577 1299,437 1183,322 1067,206 928,148 765,148 601,148 462,206 346,322 231,437 173,577 173,740 Z"
   id="path12" />
  </g>
 </defs>
 
 <path
   id="path13"
   d="M 6615.9785 2818.7943 C 6602.9126 2818.7689 6589.2491 2819.1704 6574.9991 2819.9829 C 6382.5874 2831.0508 6206.2134 2888.5511 6145.0512 2997.3364 C 6144.0375 2998.8969 6142.7788 3000.2402 6142.0023 3001.9873 C 6038.4843 3238.5999 5489.3653 3997.768 5122.8397 4581.4774 C 4654.7742 4252.0077 4059.5904 3780.5637 3880.8484 3219.8034 C 3865.6392 3118.8325 3780.7447 3083.1958 3631.9747 3091.0258 C 3405.9747 3103.0258 3201.9944 3180.9776 3180.9944 3329.9776 C 3163.6397 3447.5167 3174.332 3625.3956 3229.6736 3751.2439 C 3410.6823 4205.3818 4258.9777 4933.4728 4776.8143 5345.7202 C 4775.8697 5350.8396 4774.9989 5356.2034 4774.0755 5361.3781 C 4476.0439 5400.3157 4416.1234 5397.8035 4248.2161 5421.4778 C 4035.6177 5439.7905 3849.9765 5516.2538 3829.9988 5658.0009 C 3807.9988 5808.0009 3830.9899 6054.0137 3932.9899 6167.0137 C 3984.0605 6222.8229 4028.1984 6241.9729 4078.2523 6233.2112 C 4081.5319 6233.9824 4084.8122 6234.0621 4088.0192 6233.0045 C 4247.0065 6180.5817 4432.4375 6134.8279 4708.4981 6091.2561 C 4702.1141 6284.9207 4700.7711 6486.3919 4703.7439 6688.0155 C 4448.876 6720.6556 4384.8191 6720.9006 4236.7439 6741.2422 C 4018.2481 6757.0092 3822.5382 6834.6043 3803.0237 6979.9873 C 3780.0237 7128.9873 3802.9813 7375.0002 3904.9813 7489.0002 C 3956.1058 7544.8682 4000.3312 7564.0794 4050.4504 7555.2494 C 4053.6575 7555.9952 4056.8734 7555.9922 4060.0105 7554.991 C 4227.767 7498.7699 4425.4515 7451.6174 4727.5667 7405.2844 C 4744.0271 7760.6799 4762.6721 8065.3986 4770.0964 8248.8504 C 4767.3988 8391.8436 4798.3264 8567.7104 4880.0122 8659.0063 C 4977.0122 8765.0063 5049.0246 8738.9894 5184.0246 8639.9894 C 5318.0246 8541.9894 5406.0115 8365.0126 5441.0115 8260.0126 C 5469.6614 8176.5274 5482.0316 8110.1491 5478.8387 8058.5778 C 5478.854 8058.0403 5478.9864 8057.5142 5478.9937 8056.9758 C 5480.9188 7874.0925 5457.5808 7616.4945 5428.2991 7331.077 C 5625.6459 7317.0708 5796.0291 7309.6079 5871.6829 7311.0266 C 5924.7227 7314.1596 5981.7677 7281.3678 6059.9918 7224.0034 C 6193.9918 7126.0034 6280.9787 6948.9931 6316.9787 6842.9931 C 6409.9787 6573.9931 6332.0201 6482.004 6104.0201 6495.004 C 6097.166 6495.3983 6090.4154 6496.0421 6083.6079 6496.5543 C 6068.624 6496.1983 6052.5305 6496.8682 6034.9804 6498.9831 C 5761.2094 6533.1321 5561.7713 6563.7849 5354.1951 6595.4113 C 5336.5942 6398.2516 5322.9777 6203.1846 5317.3498 6019.9426 C 5565.5127 5999.3644 5798.1761 5987.7187 5894.5239 5989.0401 C 5949.0375 5994.6327 6007.2307 5961.2481 6088.0004 5902.017 C 6221.0004 5805.017 6308.9873 5627.9885 6344.9873 5521.9885 C 6436.9873 5251.9885 6359.9771 5161.0175 6131.9771 5173.0175 C 6125.1184 5173.4103 6118.3754 5174.0063 6111.5649 5174.5162 C 6096.5982 5174.1607 6080.5186 5174.8842 6062.989 5176.9966 C 5786.7807 5211.4497 5586.179 5242.3817 5376.571 5274.5101 C 5384.0268 5249.7104 5391.9731 5225.8595 5401.014 5204.0234 C 5627.0128 4655.8561 6460.663 3755.0042 6694.2167 3364.7042 C 6702.7023 3351.0652 6710.6498 3337.4251 6718.1945 3323.8281 C 6718.985 3322.3537 6720.2172 3320.4775 6720.9851 3319.0222 C 6721.1125 3318.775 6721.1209 3318.4956 6721.2434 3318.247 C 6751.2998 3263.2492 6773.7366 3210.049 6788.0094 3168.0237 C 6874.2594 2915.8362 6811.9673 2819.1752 6615.9785 2818.7943 z " />
   
  
</svg>
