<?xml version="1.0" encoding="UTF-8" standalone="no"?>
<svg
   version="1.2"
   width="100mm"
   height="100mm"
   viewBox="0 0 10000 10000"
   preserveAspectRatio="xMidYMid"
   fill-rule="evenodd"
   stroke-width="28.222"
   stroke-linejoin="round"
   xml:space="preserve"
   id="svg24"
   sodipodi:docname="gobo-caps-00AE.svg"
   inkscape:version="1.4 (86a8ad7, 2024-10-11)"
   xmlns:inkscape="http://www.inkscape.org/namespaces/inkscape"
   xmlns:sodipodi="http://sodipodi.sourceforge.net/DTD/sodipodi-0.dtd"
   xmlns="http://www.w3.org/2000/svg"
   xmlns:svg="http://www.w3.org/2000/svg"
   xmlns:ooo="http://xml.openoffice.org/svg/export"><sodipodi:namedview
   id="namedview24"
   pagecolor="#ffffff"
   bordercolor="#000000"
   borderopacity="0.25"
   inkscape:showpageshadow="2"
   inkscape:pageopacity="0.0"
   inkscape:pagecheckerboard="0"
   inkscape:deskcolor="#d1d1d1"
   inkscape:document-units="mm"
   showgrid="false"
   inkscape:zoom="3.0876875"
   inkscape:cx="188.81444"
   inkscape:cy="188.97638"
   inkscape:window-width="2560"
   inkscape:window-height="1369"
   inkscape:window-x="-8"
   inkscape:window-y="-8"
   inkscape:window-maximized="1"
   inkscape:current-layer="svg24" />
 <defs
   class="ClipPathGroup"
   id="defs2">
  
  <clipPath
   id="presentation_clip_path_shrink"
   clipPathUnits="userSpaceOnUse">
   <rect
   x="10"
   y="10"
   width="9980"
   height="9980"
   id="rect2" />
  </clipPath>
 
  
 
   
  
    
   
     
    
      
      
      
      
      
      
      
      
      
     
       
      
       
      
       
      
       
      
       
      
       
      
       
      
       
      
       
      
        
        
       
        
        
       
        
        
       
        
        
       
        
        
       
        
        
       
        
        
       
        
        
       
        
        
       </defs>
 <defs
   class="TextShapeIndex"
   id="defs3">
  <g
   ooo:slide="id1"
   ooo:id-list="id3 id4 id5 id6 id7 id8 id9 id10 id11"
   id="g2" />
 </defs>
 <defs
   class="EmbeddedBulletChars"
   id="defs12">
  <g
   id="bullet-char-template-57356"
   transform="scale(0.00048828125,-0.00048828125)">
   <path
   d="M 580,1141 L 1163,571 580,0 -4,571 580,1141 Z"
   id="path3" />
  </g>
  <g
   id="bullet-char-template-57354"
   transform="scale(0.00048828125,-0.00048828125)">
   <path
   d="M 8,1128 L 1137,1128 1137,0 8,0 8,1128 Z"
   id="path4" />
  </g>
  <g
   id="bullet-char-template-10146"
   transform="scale(0.00048828125,-0.00048828125)">
   <path
   d="M 174,0 L 602,739 174,1481 1456,739 174,0 Z M 1358,739 L 309,1346 659,739 1358,739 Z"
   id="path5" />
  </g>
  <g
   id="bullet-char-template-10132"
   transform="scale(0.00048828125,-0.00048828125)">
   <path
   d="M 2015,739 L 1276,0 717,0 1260,543 174,543 174,936 1260,936 717,1481 1274,1481 2015,739 Z"
   id="path6" />
  </g>
  <g
   id="bullet-char-template-10007"
   transform="scale(0.00048828125,-0.00048828125)">
   <path
   d="M 0,-2 C -7,14 -16,27 -25,37 L 356,567 C 262,823 215,952 215,954 215,979 228,992 255,992 264,992 276,990 289,987 310,991 331,999 354,1012 L 381,999 492,748 772,1049 836,1024 860,1049 C 881,1039 901,1025 922,1006 886,937 835,863 770,784 769,783 710,716 594,584 L 774,223 C 774,196 753,168 711,139 L 727,119 C 717,90 699,76 672,76 641,76 570,178 457,381 L 164,-76 C 142,-110 111,-127 72,-127 30,-127 9,-110 8,-76 1,-67 -2,-52 -2,-32 -2,-23 -1,-13 0,-2 Z"
   id="path7" />
  </g>
  <g
   id="bullet-char-template-10004"
   transform="scale(0.00048828125,-0.00048828125)">
   <path
   d="M 285,-33 C 182,-33 111,30 74,156 52,228 41,333 41,471 41,549 55,616 82,672 116,743 169,778 240,778 293,778 328,747 346,684 L 369,508 C 377,444 397,411 428,410 L 1163,1116 C 1174,1127 1196,1133 1229,1133 1271,1133 1292,1118 1292,1087 L 1292,965 C 1292,929 1282,901 1262,881 L 442,47 C 390,-6 338,-33 285,-33 Z"
   id="path8" />
  </g>
  <g
   id="bullet-char-template-9679"
   transform="scale(0.00048828125,-0.00048828125)">
   <path
   d="M 813,0 C 632,0 489,54 383,161 276,268 223,411 223,592 223,773 276,916 383,1023 489,1130 632,1184 813,1184 992,1184 1136,1130 1245,1023 1353,916 1407,772 1407,592 1407,412 1353,268 1245,161 1136,54 992,0 813,0 Z"
   id="path9" />
  </g>
  <g
   id="bullet-char-template-8226"
   transform="scale(0.00048828125,-0.00048828125)">
   <path
   d="M 346,457 C 273,457 209,483 155,535 101,586 74,649 74,723 74,796 101,859 155,911 209,963 273,989 346,989 419,989 480,963 531,910 582,859 608,796 608,723 608,648 583,586 532,535 482,483 420,457 346,457 Z"
   id="path10" />
  </g>
  <g
   id="bullet-char-template-8211"
   transform="scale(0.00048828125,-0.00048828125)">
   <path
   d="M -4,459 L 1135,459 1135,606 -4,606 -4,459 Z"
   id="path11" />
  </g>
  <g
   id="bullet-char-template-61548"
   transform="scale(0.00048828125,-0.00048828125)">
   <path
   d="M 173,740 C 173,903 231,1043 346,1159 462,1274 601,1332 765,1332 928,1332 1067,1274 1183,1159 1299,1043 1357,903 1357,740 1357,577 1299,437 1183,322 1067,206 928,148 765,148 601,148 462,206 346,322 231,437 173,577 173,740 Z"
   id="path12" />
  </g>
 </defs>
 
 <path
   id="path13"
   d="M 5601.6735 2100.647 C 5499.4628 2099.5383 5394.5782 2104.5574 5287.0157 2115.9949 C 3565.0157 2299.9949 2012.976 3934.9788 1874.976 5849.9788 C 1735.976 7764.9788 2931.9999 8989.9854 4911.9999 8830.9854 C 6891.9999 8670.9854 8212.9919 7107.9973 8132.9919 5250.9973 C 8057.9919 3510.9973 7134.8339 2117.2766 5601.6735 2100.647 z M 5442.9752 2822.9284 C 6690.026 2833.8122 7440.5033 4256.8522 7523.0033 5664.9772 C 7610.0033 7165.9772 6056.9762 8145.0026 4918.9762 8084.0026 C 3781.9762 8023.0026 2330.9827 7576.9788 2483.9827 5849.9788 C 2635.9827 4122.9788 3787.0219 3035.9817 5187.0219 2839.9817 C 5274.5219 2827.7317 5359.8385 2822.2029 5442.9752 2822.9284 z M 5129.4026 3562.7799 C 4731.5754 3566.1596 4268.0714 3627.1781 3758.2719 3731.6068 C 3575.402 3759.4921 3425.8204 3834.6224 3408.009 3960.9985 C 3385.009 4109.9985 3408.0001 4356.0114 3511.0001 4470.0114 C 3562.2251 4526.5723 3606.9234 4545.4892 3657.8129 4535.8471 C 3659.1493 4535.8425 3660.4887 4535.8169 3661.8436 4535.7438 C 3661.9824 4537.8558 3661.7934 4539.8643 3661.9987 4541.9966 C 3664.9494 4557.1243 3667.2931 4572.2126 3670.0602 4587.3169 C 3671.6361 4597.3685 3673.3974 4607.3518 3675.3312 4617.2892 C 3734.6705 4955.5627 3750.2589 5294.4251 3753.9827 5758.9766 C 3756.6656 6205.2271 3631.0334 6916.5002 3632.9565 7210.9293 C 3632.9925 7217.2643 3633.1502 7223.6744 3633.3183 7230.1013 C 3633.585 7239.4618 3633.7653 7249.0563 3634.3518 7257.3864 C 3641.3371 7384.4201 3674.3354 7521.9046 3744.0092 7599.0193 C 3840.0092 7705.0193 3912.9881 7679.0024 4046.9881 7580.0024 C 4180.9881 7482.0024 4267.975 7304.9921 4303.975 7198.9921 C 4313.2338 7172.1115 4320.7702 7147.0898 4326.6609 7123.6995 C 4332.9733 7106.4327 4337.19 7088.5381 4339.0116 7070.0077 C 4357.9818 6876.3809 4369.9036 6664.506 4373.2214 6334.8071 C 4558.8241 6362.4944 4687.4668 6485.7884 4855.9826 6591.0188 C 5420.9826 6944.0188 5765.9965 7243.0038 6110.9965 7429.0038 C 6114.559 7430.9101 6118.5558 7432.0175 6122.9337 7432.4145 C 6188.909 7462.0405 6254.4493 7428.7928 6352.9972 7355.9851 C 6486.9972 7257.9851 6573.9841 7080.9747 6609.9841 6974.9747 C 6674.3942 6787.9775 6656.7339 6687.39 6564.4055 6646.8294 C 6179.2385 6447.4557 5838.871 6229.0269 5529.0165 6033.0167 C 5513.7272 6023.5335 5497.8997 6013.1697 5482.0426 6002.786 C 6269.2957 5736.8448 6605.7802 5392.8878 6611.9995 4621.0099 C 6618.187 3852.3849 6047.7308 3554.9784 5129.4026 3562.7799 z M 4993.0285 4312.3466 C 5513.8453 4311.7157 5851.7867 4467.266 5966.9742 4778.9847 C 6153.4251 5285.4776 5247.2838 5392.2045 4368.6222 5523.1254 C 4361.2895 4988.7555 4357.9493 4688.8485 4365.2116 4373.2731 C 4596.5871 4333.0461 4806.6477 4312.5723 4993.0285 4312.3466 z " />
   
  
</svg>
