<?xml version="1.0" encoding="UTF-8" standalone="no"?>
<svg
   version="1.2"
   width="100mm"
   height="100mm"
   viewBox="0 0 10000 10000"
   preserveAspectRatio="xMidYMid"
   fill-rule="evenodd"
   stroke-width="28.222"
   stroke-linejoin="round"
   xml:space="preserve"
   id="svg24"
   sodipodi:docname="gobo-caps-00B5.svg"
   inkscape:version="1.4 (86a8ad7, 2024-10-11)"
   xmlns:inkscape="http://www.inkscape.org/namespaces/inkscape"
   xmlns:sodipodi="http://sodipodi.sourceforge.net/DTD/sodipodi-0.dtd"
   xmlns="http://www.w3.org/2000/svg"
   xmlns:svg="http://www.w3.org/2000/svg"
   xmlns:ooo="http://xml.openoffice.org/svg/export"><sodipodi:namedview
   id="namedview24"
   pagecolor="#ffffff"
   bordercolor="#000000"
   borderopacity="0.25"
   inkscape:showpageshadow="2"
   inkscape:pageopacity="0.0"
   inkscape:pagecheckerboard="0"
   inkscape:deskcolor="#d1d1d1"
   inkscape:document-units="mm"
   showgrid="false"
   inkscape:zoom="3.0876875"
   inkscape:cx="188.81444"
   inkscape:cy="188.97638"
   inkscape:window-width="2560"
   inkscape:window-height="1369"
   inkscape:window-x="-8"
   inkscape:window-y="-8"
   inkscape:window-maximized="1"
   inkscape:current-layer="svg24" />
 <defs
   class="ClipPathGroup"
   id="defs2">
  
  <clipPath
   id="presentation_clip_path_shrink"
   clipPathUnits="userSpaceOnUse">
   <rect
   x="10"
   y="10"
   width="9980"
   height="9980"
   id="rect2" />
  </clipPath>
 
  
 
   
  
    
   
     
    
      
      
      
      
      
      
      
      
      
     
       
      
       
      
       
      
       
      
       
      
       
      
       
      
       
      
       
      
        
        
       
        
        
       
        
        
       
        
        
       
        
        
       
        
        
       
        
        
       
        
        
       
        
        
       </defs>
 <defs
   class="TextShapeIndex"
   id="defs3">
  <g
   ooo:slide="id1"
   ooo:id-list="id3 id4 id5 id6 id7 id8 id9 id10 id11"
   id="g2" />
 </defs>
 <defs
   class="EmbeddedBulletChars"
   id="defs12">
  <g
   id="bullet-char-template-57356"
   transform="scale(0.00048828125,-0.00048828125)">
   <path
   d="M 580,1141 L 1163,571 580,0 -4,571 580,1141 Z"
   id="path3" />
  </g>
  <g
   id="bullet-char-template-57354"
   transform="scale(0.00048828125,-0.00048828125)">
   <path
   d="M 8,1128 L 1137,1128 1137,0 8,0 8,1128 Z"
   id="path4" />
  </g>
  <g
   id="bullet-char-template-10146"
   transform="scale(0.00048828125,-0.00048828125)">
   <path
   d="M 174,0 L 602,739 174,1481 1456,739 174,0 Z M 1358,739 L 309,1346 659,739 1358,739 Z"
   id="path5" />
  </g>
  <g
   id="bullet-char-template-10132"
   transform="scale(0.00048828125,-0.00048828125)">
   <path
   d="M 2015,739 L 1276,0 717,0 1260,543 174,543 174,936 1260,936 717,1481 1274,1481 2015,739 Z"
   id="path6" />
  </g>
  <g
   id="bullet-char-template-10007"
   transform="scale(0.00048828125,-0.00048828125)">
   <path
   d="M 0,-2 C -7,14 -16,27 -25,37 L 356,567 C 262,823 215,952 215,954 215,979 228,992 255,992 264,992 276,990 289,987 310,991 331,999 354,1012 L 381,999 492,748 772,1049 836,1024 860,1049 C 881,1039 901,1025 922,1006 886,937 835,863 770,784 769,783 710,716 594,584 L 774,223 C 774,196 753,168 711,139 L 727,119 C 717,90 699,76 672,76 641,76 570,178 457,381 L 164,-76 C 142,-110 111,-127 72,-127 30,-127 9,-110 8,-76 1,-67 -2,-52 -2,-32 -2,-23 -1,-13 0,-2 Z"
   id="path7" />
  </g>
  <g
   id="bullet-char-template-10004"
   transform="scale(0.00048828125,-0.00048828125)">
   <path
   d="M 285,-33 C 182,-33 111,30 74,156 52,228 41,333 41,471 41,549 55,616 82,672 116,743 169,778 240,778 293,778 328,747 346,684 L 369,508 C 377,444 397,411 428,410 L 1163,1116 C 1174,1127 1196,1133 1229,1133 1271,1133 1292,1118 1292,1087 L 1292,965 C 1292,929 1282,901 1262,881 L 442,47 C 390,-6 338,-33 285,-33 Z"
   id="path8" />
  </g>
  <g
   id="bullet-char-template-9679"
   transform="scale(0.00048828125,-0.00048828125)">
   <path
   d="M 813,0 C 632,0 489,54 383,161 276,268 223,411 223,592 223,773 276,916 383,1023 489,1130 632,1184 813,1184 992,1184 1136,1130 1245,1023 1353,916 1407,772 1407,592 1407,412 1353,268 1245,161 1136,54 992,0 813,0 Z"
   id="path9" />
  </g>
  <g
   id="bullet-char-template-8226"
   transform="scale(0.00048828125,-0.00048828125)">
   <path
   d="M 346,457 C 273,457 209,483 155,535 101,586 74,649 74,723 74,796 101,859 155,911 209,963 273,989 346,989 419,989 480,963 531,910 582,859 608,796 608,723 608,648 583,586 532,535 482,483 420,457 346,457 Z"
   id="path10" />
  </g>
  <g
   id="bullet-char-template-8211"
   transform="scale(0.00048828125,-0.00048828125)">
   <path
   d="M -4,459 L 1135,459 1135,606 -4,606 -4,459 Z"
   id="path11" />
  </g>
  <g
   id="bullet-char-template-61548"
   transform="scale(0.00048828125,-0.00048828125)">
   <path
   d="M 173,740 C 173,903 231,1043 346,1159 462,1274 601,1332 765,1332 928,1332 1067,1274 1183,1159 1299,1043 1357,903 1357,740 1357,577 1299,437 1183,322 1067,206 928,148 765,148 601,148 462,206 346,322 231,437 173,577 173,740 Z"
   id="path12" />
  </g>
 </defs>
 
 <path
   id="path13"
   d="M 6409.9963 3066.9962 C 6396.9233 3066.923 6383.2669 3067.2281 6369.0169 3067.9781 C 6143.0169 3080.9781 5939.985 3158.0151 5917.985 3308.0151 C 5906.3047 3387.1225 5907.4815 3493.4899 5926.4082 3593.0106 C 5955.0676 3971.569 6034.4262 4694.6427 6016.0152 5587.9793 C 6002.9937 6170.2989 5987.9784 6559.3823 5990.2803 6872.8104 C 5950.7679 6887.675 5915.5797 6905.8155 5886.359 6927.329 C 5614.2481 7067.3439 5306.4677 7231.9205 4783.0155 7294.025 C 4229.5958 7360.623 4051.8551 6990.8222 3917.2286 6787.0792 C 3916.139 6784.7914 3914.9911 6782.5738 3913.8179 6780.3613 C 3896.1138 6365.3278 3882.9939 5955.4955 3884.0006 5632.0076 C 3892.0006 4670.0076 4015.0118 3766.997 4040.0118 3476.997 C 4040.1546 3475.236 4039.7926 3473.6088 4039.8051 3471.8811 C 4054.0953 3320.2132 3967.5496 3267.6646 3790.0012 3277.0093 C 3567.9178 3288.8013 3367.2377 3364.3636 3340.4162 3508.3646 C 3336.9777 3519.0856 3334.4798 3530.1718 3334.0084 3542.006 C 3333.3103 3557.9453 3332.6317 3582.8581 3331.9413 3599.7802 C 3331.8316 3603.1905 3331.6506 3606.5081 3331.5796 3609.9605 C 3314.6142 4030.7354 3299.3782 4745.291 3265.0203 5985.9912 C 3228.5403 7234.9511 3288.6832 8599.3539 3302.4857 8916.6133 C 3302.7018 8932.5501 3303.4526 8948.848 3304.5011 8965.2408 C 3304.5922 8967.3632 3304.9347 8976.0506 3305.0179 8978.0049 C 3305.0936 8979.9818 3305.6188 8981.7127 3305.793 8983.6376 C 3315.7445 9103.2842 3348.5821 9227.98 3413.0216 9300.0007 C 3509.0216 9406.0007 3581.9824 9379.9838 3716.9824 9280.9838 C 3850.9824 9181.9838 3936.9874 9006.0252 3972.9874 8900.0252 C 3994.2243 8838.1414 4006.4777 8785.7796 4010.1428 8741.8436 C 4011.637 8728.2159 4012.4936 8714.3232 4012.0031 8699.9857 C 4007.632 8571.8767 3990.3909 8267.4352 3970.8687 7915.7442 C 4178.5469 8025.0099 4441.3474 8093.9636 4772.0084 8052.9968 C 5551.9508 7956.3667 5884.8426 7722.3651 6058.9066 7635.2962 C 6076.3927 7712.8089 6105.1429 7784.0811 6147.9968 7831.9767 C 6243.9968 7937.9767 6317.0092 7912.0114 6452.0092 7813.0114 C 6586.0092 7714.0114 6672.0143 7538.0011 6708.0143 7432.0011 C 6743.5254 7328.5225 6754.0087 7251.5008 6740.8805 7196.4599 C 6740.7284 7192.9371 6740.7398 7189.3824 6740.002 7186.0213 C 6677.002 6904.0213 6615.0109 6427.0094 6637.0109 5518.0094 C 6654.7145 4622.9932 6649.0481 3538.6813 6620.3194 3232.8776 C 6620.4789 3115.7653 6548.3821 3067.7715 6409.9963 3066.9962 z " />
   
  
</svg>
