<?xml version="1.0" encoding="UTF-8" standalone="no"?>
<svg
   version="1.2"
   width="100mm"
   height="100mm"
   viewBox="0 0 10000 10000"
   preserveAspectRatio="xMidYMid"
   fill-rule="evenodd"
   stroke-width="28.222"
   stroke-linejoin="round"
   xml:space="preserve"
   id="svg28"
   sodipodi:docname="gobo-caps-00E2.svg"
   inkscape:version="1.4 (86a8ad7, 2024-10-11)"
   xmlns:inkscape="http://www.inkscape.org/namespaces/inkscape"
   xmlns:sodipodi="http://sodipodi.sourceforge.net/DTD/sodipodi-0.dtd"
   xmlns="http://www.w3.org/2000/svg"
   xmlns:svg="http://www.w3.org/2000/svg"
   xmlns:ooo="http://xml.openoffice.org/svg/export"><sodipodi:namedview
   id="namedview28"
   pagecolor="#ffffff"
   bordercolor="#000000"
   borderopacity="0.25"
   inkscape:showpageshadow="2"
   inkscape:pageopacity="0.0"
   inkscape:pagecheckerboard="0"
   inkscape:deskcolor="#d1d1d1"
   inkscape:document-units="mm"
   showgrid="false"
   inkscape:zoom="3.0876875"
   inkscape:cx="188.81444"
   inkscape:cy="188.97638"
   inkscape:window-width="2560"
   inkscape:window-height="1369"
   inkscape:window-x="-8"
   inkscape:window-y="-8"
   inkscape:window-maximized="1"
   inkscape:current-layer="svg28" />
 <defs
   class="ClipPathGroup"
   id="defs2">
  
  <clipPath
   id="presentation_clip_path_shrink"
   clipPathUnits="userSpaceOnUse">
   <rect
   x="10"
   y="10"
   width="9980"
   height="9980"
   id="rect2" />
  </clipPath>
 
  
 
   
  
    
   
     
    
      
      
      
      
      
      
      
      
      
      
      
      
      
     
       
      
       
      
       
      
       
      
       
      
       
      
       
      
       
      
       
      
       
      
       
      
       
      
       
      
        
        
       
        
        
       
        
        
       
        
        
       
        
        
       
        
        
       
        
        
       
        
        
       
        
        
       
        
        
       
        
        
       
        
        
       
        
        
       </defs>
 <defs
   class="TextShapeIndex"
   id="defs3">
  <g
   ooo:slide="id1"
   ooo:id-list="id3 id4 id5 id6 id7 id8 id9 id10 id11 id12 id13 id14 id15"
   id="g2" />
 </defs>
 <defs
   class="EmbeddedBulletChars"
   id="defs12">
  <g
   id="bullet-char-template-57356"
   transform="scale(0.00048828125,-0.00048828125)">
   <path
   d="M 580,1141 L 1163,571 580,0 -4,571 580,1141 Z"
   id="path3" />
  </g>
  <g
   id="bullet-char-template-57354"
   transform="scale(0.00048828125,-0.00048828125)">
   <path
   d="M 8,1128 L 1137,1128 1137,0 8,0 8,1128 Z"
   id="path4" />
  </g>
  <g
   id="bullet-char-template-10146"
   transform="scale(0.00048828125,-0.00048828125)">
   <path
   d="M 174,0 L 602,739 174,1481 1456,739 174,0 Z M 1358,739 L 309,1346 659,739 1358,739 Z"
   id="path5" />
  </g>
  <g
   id="bullet-char-template-10132"
   transform="scale(0.00048828125,-0.00048828125)">
   <path
   d="M 2015,739 L 1276,0 717,0 1260,543 174,543 174,936 1260,936 717,1481 1274,1481 2015,739 Z"
   id="path6" />
  </g>
  <g
   id="bullet-char-template-10007"
   transform="scale(0.00048828125,-0.00048828125)">
   <path
   d="M 0,-2 C -7,14 -16,27 -25,37 L 356,567 C 262,823 215,952 215,954 215,979 228,992 255,992 264,992 276,990 289,987 310,991 331,999 354,1012 L 381,999 492,748 772,1049 836,1024 860,1049 C 881,1039 901,1025 922,1006 886,937 835,863 770,784 769,783 710,716 594,584 L 774,223 C 774,196 753,168 711,139 L 727,119 C 717,90 699,76 672,76 641,76 570,178 457,381 L 164,-76 C 142,-110 111,-127 72,-127 30,-127 9,-110 8,-76 1,-67 -2,-52 -2,-32 -2,-23 -1,-13 0,-2 Z"
   id="path7" />
  </g>
  <g
   id="bullet-char-template-10004"
   transform="scale(0.00048828125,-0.00048828125)">
   <path
   d="M 285,-33 C 182,-33 111,30 74,156 52,228 41,333 41,471 41,549 55,616 82,672 116,743 169,778 240,778 293,778 328,747 346,684 L 369,508 C 377,444 397,411 428,410 L 1163,1116 C 1174,1127 1196,1133 1229,1133 1271,1133 1292,1118 1292,1087 L 1292,965 C 1292,929 1282,901 1262,881 L 442,47 C 390,-6 338,-33 285,-33 Z"
   id="path8" />
  </g>
  <g
   id="bullet-char-template-9679"
   transform="scale(0.00048828125,-0.00048828125)">
   <path
   d="M 813,0 C 632,0 489,54 383,161 276,268 223,411 223,592 223,773 276,916 383,1023 489,1130 632,1184 813,1184 992,1184 1136,1130 1245,1023 1353,916 1407,772 1407,592 1407,412 1353,268 1245,161 1136,54 992,0 813,0 Z"
   id="path9" />
  </g>
  <g
   id="bullet-char-template-8226"
   transform="scale(0.00048828125,-0.00048828125)">
   <path
   d="M 346,457 C 273,457 209,483 155,535 101,586 74,649 74,723 74,796 101,859 155,911 209,963 273,989 346,989 419,989 480,963 531,910 582,859 608,796 608,723 608,648 583,586 532,535 482,483 420,457 346,457 Z"
   id="path10" />
  </g>
  <g
   id="bullet-char-template-8211"
   transform="scale(0.00048828125,-0.00048828125)">
   <path
   d="M -4,459 L 1135,459 1135,606 -4,606 -4,459 Z"
   id="path11" />
  </g>
  <g
   id="bullet-char-template-61548"
   transform="scale(0.00048828125,-0.00048828125)">
   <path
   d="M 173,740 C 173,903 231,1043 346,1159 462,1274 601,1332 765,1332 928,1332 1067,1274 1183,1159 1299,1043 1357,903 1357,740 1357,577 1299,437 1183,322 1067,206 928,148 765,148 601,148 462,206 346,322 231,437 173,577 173,740 Z"
   id="path12" />
  </g>
 </defs>
 
 <path
   id="path13"
   d="M 5189.9674 1500.7869 C 5176.9015 1500.7615 5163.238 1501.163 5148.988 1501.9755 C 4976.0848 1511.9213 4816.1595 1559.4097 4741.1059 1647.8581 C 4735.9318 1652.4232 4731.2986 1657.5684 4727.9801 1663.9811 C 4655.6932 1804.6476 4228.9033 2197.4881 3959.3449 2334.9479 C 3873.2032 2368.2567 3809.2605 2426.933 3755.9981 2525.0138 C 3674.9981 2676.0138 3688.0218 2886.983 3749.0218 2987.983 C 3782.8451 3042.7445 3838.885 3055.1937 3901.4673 3043.1217 C 3901.9947 3043.0427 3902.4877 3043.1071 3903.0175 3043.0184 C 4301.4708 2979.9034 4707.7875 2671.9245 4974.8384 2406.003 C 5201.5346 2577.0624 5614.0324 2810.1623 6073.9961 2839.9817 C 6076.5311 2840.0002 6079.0987 2839.5165 6081.6442 2839.4132 C 6149.9776 2849.4399 6236.679 2813.321 6312.9996 2762.0019 C 6427.9996 2682.0019 6516.0059 2574.0085 6549.0059 2400.0085 C 6576.5535 2251.0793 6551.3895 2122.2448 6431.597 2097.5464 C 6430.0811 2097.2005 6428.5587 2096.8605 6426.9978 2096.5645 C 6425.5252 2096.2993 6424.0023 2096.1272 6422.502 2095.8927 C 6420.6659 2095.608 6418.9202 2095.2319 6417.0243 2095.0142 C 5839.3001 2028.8555 5504.0124 1703.11 5375.6408 1570.4468 C 5343.9656 1522.1716 5281.5632 1500.9649 5189.9674 1500.7869 z M 5179.012 3152.9858 C 5165.939 3152.9128 5152.2309 3153.2693 5137.9809 3154.0193 C 4925.2585 3166.2556 4732.9937 3235.1855 4693.6153 3367.4947 C 4518.2781 3697.9901 4040.0814 4656.0564 3759.9772 5296.9893 C 3483.9042 5924.3415 2841.2698 7475.6889 2772.2855 7707.2298 C 2770.7362 7712.1773 2769.4168 7717.1948 2768.3065 7722.3193 C 2767.4616 7725.9373 2765.1963 7732.8554 2764.9992 7734.98 C 2764.8109 7736.9882 2765.1335 7739.1889 2765.2059 7741.2845 C 2744.7151 7890.8178 2768.4077 8131.5396 2869.0238 8243.9929 C 2965.0238 8349.9929 3037.9846 8323.9759 3172.9846 8224.9759 C 3257.6989 8162.5549 3324.0483 8068.1517 3370.4402 7980.6498 C 3373.0698 7976.5771 3375.7641 7972.564 3377.985 7967.989 C 3379.4292 7964.9679 3381.4418 7959.706 3382.9976 7956.2585 C 3403.2936 7915.3699 3419.1024 7876.8515 3430.0232 7844.9991 C 3437.7999 7822.3378 3444.2626 7801.0449 3449.6602 7780.8687 C 3488.7299 7670.7368 3542.7181 7510.2245 3599.1601 7341.3606 C 3825.166 7222.8216 4417.909 6884.3441 5054.0067 6733.0257 C 5537.6558 6618.8902 5910.0786 6572.8469 6190.8882 6549.0576 C 6372.8909 7050.9896 6476.2552 7422.5659 6567.4027 7666.7154 C 6573.9195 7687.3978 6581.391 7707.3111 6589.8819 7725.9883 C 6592.8782 7733.4237 6595.9876 7742.8639 6598.977 7750.0178 C 6600.7896 7754.7305 6603.8692 7757.8604 6607.4519 7760.3531 C 6618.0606 7778.7175 6629.8653 7795.4709 6643.0053 7810.0142 C 6739.0053 7916.0142 6811.9842 7889.9973 6945.9842 7790.9973 C 7079.9842 7692.9973 7167.0228 7515.9869 7203.0228 7409.9869 C 7245.8281 7285.7135 7252.275 7199.6672 7224.6752 7143.9567 C 7169.2197 6937.4697 7042.9318 6602.7386 6873.2755 6192.1801 C 6899.3018 6142.6153 6919.0087 6095.1877 6931.9799 6056.9946 C 7024.9799 5786.9946 6947.0214 5696.0236 6719.0214 5708.0236 C 6702.3895 5708.9803 6685.9381 5710.3492 6669.6187 5712.0027 C 6607.9236 5568.7456 6546.3027 5425.6241 6478.9843 5273.0114 C 6109.9843 4443.0114 5523.9872 3480.9963 5373.9872 3234.9963 C 5371.3424 3230.6765 5368.2676 3227.2237 5365.3572 3223.4208 C 5333.6845 3174.8753 5270.9979 3153.4995 5179.012 3152.9858 z M 4967.5004 4175.3007 C 5198.1919 4509.6468 5548.8229 5022.3841 5851.0123 5701.9775 C 5869.9609 5744.7685 5887.6209 5786.0698 5905.531 5827.6546 C 5571.4988 5894.4097 5187.3853 5984.1996 4855.9826 6082.9878 C 4461.2399 6199.7995 4160.1419 6320.5543 3913.6629 6423.1738 C 3993.0069 6201.5068 4074.6065 5984.1911 4154.01 5792.9797 C 4364.4966 5275.1157 4703.0159 4634.9933 4967.5004 4175.3007 z " />
   
  
</svg>
