<?xml version="1.0" encoding="UTF-8" standalone="no"?>
<svg
   version="1.2"
   width="100mm"
   height="100mm"
   viewBox="0 0 10000 10000"
   preserveAspectRatio="xMidYMid"
   fill-rule="evenodd"
   stroke-width="28.222"
   stroke-linejoin="round"
   xml:space="preserve"
   id="svg24"
   sodipodi:docname="gobo-caps-2021.svg"
   inkscape:version="1.4 (86a8ad7, 2024-10-11)"
   xmlns:inkscape="http://www.inkscape.org/namespaces/inkscape"
   xmlns:sodipodi="http://sodipodi.sourceforge.net/DTD/sodipodi-0.dtd"
   xmlns="http://www.w3.org/2000/svg"
   xmlns:svg="http://www.w3.org/2000/svg"
   xmlns:ooo="http://xml.openoffice.org/svg/export"><sodipodi:namedview
   id="namedview24"
   pagecolor="#ffffff"
   bordercolor="#000000"
   borderopacity="0.25"
   inkscape:showpageshadow="2"
   inkscape:pageopacity="0.0"
   inkscape:pagecheckerboard="0"
   inkscape:deskcolor="#d1d1d1"
   inkscape:document-units="mm"
   showgrid="false"
   inkscape:zoom="3.0876875"
   inkscape:cx="188.81444"
   inkscape:cy="188.97638"
   inkscape:window-width="2560"
   inkscape:window-height="1369"
   inkscape:window-x="-8"
   inkscape:window-y="-8"
   inkscape:window-maximized="1"
   inkscape:current-layer="svg24" />
 <defs
   class="ClipPathGroup"
   id="defs2">
  
  <clipPath
   id="presentation_clip_path_shrink"
   clipPathUnits="userSpaceOnUse">
   <rect
   x="10"
   y="10"
   width="9980"
   height="9980"
   id="rect2" />
  </clipPath>
 
  
 
   
  
    
   
     
    
      
      
      
      
      
      
      
      
      
     
       
      
       
      
       
      
       
      
       
      
       
      
       
      
       
      
       
      
        
        
       
        
        
       
        
        
       
        
        
       
        
        
       
        
        
       
        
        
       
        
        
       
        
        
       </defs>
 <defs
   class="TextShapeIndex"
   id="defs3">
  <g
   ooo:slide="id1"
   ooo:id-list="id3 id4 id5 id6 id7 id8 id9 id10 id11"
   id="g2" />
 </defs>
 <defs
   class="EmbeddedBulletChars"
   id="defs12">
  <g
   id="bullet-char-template-57356"
   transform="scale(0.00048828125,-0.00048828125)">
   <path
   d="M 580,1141 L 1163,571 580,0 -4,571 580,1141 Z"
   id="path3" />
  </g>
  <g
   id="bullet-char-template-57354"
   transform="scale(0.00048828125,-0.00048828125)">
   <path
   d="M 8,1128 L 1137,1128 1137,0 8,0 8,1128 Z"
   id="path4" />
  </g>
  <g
   id="bullet-char-template-10146"
   transform="scale(0.00048828125,-0.00048828125)">
   <path
   d="M 174,0 L 602,739 174,1481 1456,739 174,0 Z M 1358,739 L 309,1346 659,739 1358,739 Z"
   id="path5" />
  </g>
  <g
   id="bullet-char-template-10132"
   transform="scale(0.00048828125,-0.00048828125)">
   <path
   d="M 2015,739 L 1276,0 717,0 1260,543 174,543 174,936 1260,936 717,1481 1274,1481 2015,739 Z"
   id="path6" />
  </g>
  <g
   id="bullet-char-template-10007"
   transform="scale(0.00048828125,-0.00048828125)">
   <path
   d="M 0,-2 C -7,14 -16,27 -25,37 L 356,567 C 262,823 215,952 215,954 215,979 228,992 255,992 264,992 276,990 289,987 310,991 331,999 354,1012 L 381,999 492,748 772,1049 836,1024 860,1049 C 881,1039 901,1025 922,1006 886,937 835,863 770,784 769,783 710,716 594,584 L 774,223 C 774,196 753,168 711,139 L 727,119 C 717,90 699,76 672,76 641,76 570,178 457,381 L 164,-76 C 142,-110 111,-127 72,-127 30,-127 9,-110 8,-76 1,-67 -2,-52 -2,-32 -2,-23 -1,-13 0,-2 Z"
   id="path7" />
  </g>
  <g
   id="bullet-char-template-10004"
   transform="scale(0.00048828125,-0.00048828125)">
   <path
   d="M 285,-33 C 182,-33 111,30 74,156 52,228 41,333 41,471 41,549 55,616 82,672 116,743 169,778 240,778 293,778 328,747 346,684 L 369,508 C 377,444 397,411 428,410 L 1163,1116 C 1174,1127 1196,1133 1229,1133 1271,1133 1292,1118 1292,1087 L 1292,965 C 1292,929 1282,901 1262,881 L 442,47 C 390,-6 338,-33 285,-33 Z"
   id="path8" />
  </g>
  <g
   id="bullet-char-template-9679"
   transform="scale(0.00048828125,-0.00048828125)">
   <path
   d="M 813,0 C 632,0 489,54 383,161 276,268 223,411 223,592 223,773 276,916 383,1023 489,1130 632,1184 813,1184 992,1184 1136,1130 1245,1023 1353,916 1407,772 1407,592 1407,412 1353,268 1245,161 1136,54 992,0 813,0 Z"
   id="path9" />
  </g>
  <g
   id="bullet-char-template-8226"
   transform="scale(0.00048828125,-0.00048828125)">
   <path
   d="M 346,457 C 273,457 209,483 155,535 101,586 74,649 74,723 74,796 101,859 155,911 209,963 273,989 346,989 419,989 480,963 531,910 582,859 608,796 608,723 608,648 583,586 532,535 482,483 420,457 346,457 Z"
   id="path10" />
  </g>
  <g
   id="bullet-char-template-8211"
   transform="scale(0.00048828125,-0.00048828125)">
   <path
   d="M -4,459 L 1135,459 1135,606 -4,606 -4,459 Z"
   id="path11" />
  </g>
  <g
   id="bullet-char-template-61548"
   transform="scale(0.00048828125,-0.00048828125)">
   <path
   d="M 173,740 C 173,903 231,1043 346,1159 462,1274 601,1332 765,1332 928,1332 1067,1274 1183,1159 1299,1043 1357,903 1357,740 1357,577 1299,437 1183,322 1067,206 928,148 765,148 601,148 462,206 346,322 231,437 173,577 173,740 Z"
   id="path12" />
  </g>
 </defs>
 
 <path
   id="path13"
   d="M 5145.0089 2164.9841 C 5131.9359 2164.9106 5118.2278 2165.2676 5103.9778 2166.0176 C 4878.9778 2179.0176 4673.9795 2257.003 4653.9795 2406.003 C 4641.4392 2487.2418 4642.762 2597.2669 4662.9195 2699.06 C 4681.0509 2819.8703 4695.0088 3006.5849 4705.6559 3234.1178 C 4193.2888 3288.8152 3855.3383 3329.0155 3533.6861 3385.013 C 3492.929 3389.7603 3453.621 3396.7743 3416.5873 3406.097 C 3413.0428 3406.7612 3409.5426 3407.3397 3405.9936 3408.009 C 3401.7067 3408.8412 3397.5537 3410.4598 3393.4363 3412.2465 C 3262.4065 3449.7355 3165.4618 3517.7611 3152.004 3618.022 C 3130.004 3767.022 3152.9951 4012.9832 3254.9951 4126.9832 C 3293.9951 4170.0457 3329.1989 4191.3347 3366.3061 4194.7827 C 3374.489 4196.3681 3383.1279 4196.4099 3392.351 4194.3693 C 3392.6416 4194.3346 3392.9386 4194.2509 3393.2295 4194.2142 C 3393.8325 4194.0732 3394.3791 4194.1648 3394.9865 4194.0075 C 3395.0871 4193.9808 3395.299 4193.9309 3395.4 4193.9042 C 3403.0861 4192.814 3410.9638 4190.8279 3418.9644 4188.4265 C 3611.6406 4140.934 4210.569 4035.2992 4728.0835 3968.3882 C 4741.0379 4616.5481 4741.8763 5310.457 4743.9998 5638.0021 C 4745.6186 5887.6952 4724.5364 6366.7833 4702.8137 6856.6357 C 4303.2866 6892.3517 3966.0488 6911.3765 3640.9664 6930.1196 C 3626.0692 6929.8857 3610.4678 6930.1271 3593.9925 6930.9981 C 3366.9925 6942.9981 3163.0123 7021.0016 3143.0123 7170.0016 C 3121.0123 7319.0016 3144.0034 7565.0144 3246.0034 7679.0144 C 3286.5574 7723.7928 3323.0057 7744.9062 3361.7586 7747.0206 C 3364.1801 7747.6625 3366.4208 7748.6591 3368.9933 7748.9843 C 3605.7832 7741.7846 4158.2312 7676.6469 4670.981 7613.3854 C 4654.9848 8035.1271 4647.5622 8378.9415 4665.6583 8479.7924 C 4674.8294 8601.2114 4707.8886 8728.7968 4774.0238 8801.995 C 4870.0238 8907.995 4943.0027 8881.978 5077.0027 8782.978 C 5211.0027 8684.978 5297.9896 8508.0194 5333.9896 8402.0194 C 5349.228 8357.7789 5359.7769 8318.448 5365.9257 8283.5253 C 5367.2848 8275.806 5368.4158 8268.3309 5369.3363 8261.0461 C 5369.8311 8257.3369 5370.6191 8253.7476 5370.9899 8249.9873 C 5371.4346 8245.4671 5371.5985 8236.8315 5372.0235 8232.0039 C 5384.0408 8095.4758 5388.3503 7838.7061 5388.2499 7521.6597 C 5841.9838 7460.7482 6244.4281 7402.2092 6403.02 7378.9811 C 6404.5033 7378.6936 6405.9435 7377.8122 6407.4125 7377.3274 C 6450.0377 7367.1634 6497.3957 7337.7464 6557.0157 7294.025 C 6691.0157 7197.025 6778.0026 7019.9965 6814.0026 6913.9965 C 6907.0026 6643.9965 6828.9924 6553.0256 6600.9924 6565.0256 C 6551.2076 6567.8893 6502.7197 6574.0444 6456.8668 6583.2157 C 6456.2249 6583.2256 6455.6566 6582.9707 6455.0065 6583.009 C 6218.3431 6629.8806 5824.7747 6709.6466 5382.2554 6775.9171 C 5377.2685 6364.6226 5370.654 5940.7843 5365.9773 5583.0183 C 5360.3483 5152.3999 5354.0962 4516.5157 5350.4227 3910.459 C 5827.6287 3885.9151 6300.1621 3900.2919 6384.9849 3909.012 C 6388.6096 3909.3508 6392.6339 3908.5317 6396.8705 3906.9966 C 6445.7201 3903.7588 6499.166 3871.9602 6569.9865 3820.0252 C 6703.9865 3723.0252 6791.0251 3545.9967 6827.0251 3439.9967 C 6920.0251 3169.9967 6842.0148 3079.0258 6614.0148 3091.0258 C 6599.6784 3091.8504 6585.4408 3092.8877 6571.3301 3094.2297 C 6349.1332 3103.3181 5863.8378 3130.4207 5348.0456 3172.8812 C 5347.7435 2837.4138 5348.7337 2543.9148 5352.8515 2370.1912 C 5369.6868 2224.3241 5297.772 2165.8428 5145.0089 2164.9841 z " />
   
  
</svg>
