<?xml version="1.0" encoding="UTF-8" standalone="no"?>
<svg
   version="1.2"
   width="100mm"
   height="100mm"
   viewBox="0 0 10000 10000"
   preserveAspectRatio="xMidYMid"
   fill-rule="evenodd"
   stroke-width="28.222"
   stroke-linejoin="round"
   xml:space="preserve"
   id="svg21"
   sodipodi:docname="gobo-caps-201D.svg"
   inkscape:version="1.4 (86a8ad7, 2024-10-11)"
   xmlns:inkscape="http://www.inkscape.org/namespaces/inkscape"
   xmlns:sodipodi="http://sodipodi.sourceforge.net/DTD/sodipodi-0.dtd"
   xmlns="http://www.w3.org/2000/svg"
   xmlns:svg="http://www.w3.org/2000/svg"
   xmlns:ooo="http://xml.openoffice.org/svg/export"><sodipodi:namedview
   id="namedview21"
   pagecolor="#ffffff"
   bordercolor="#000000"
   borderopacity="0.25"
   inkscape:showpageshadow="2"
   inkscape:pageopacity="0.0"
   inkscape:pagecheckerboard="0"
   inkscape:deskcolor="#d1d1d1"
   inkscape:document-units="mm"
   showgrid="false"
   inkscape:zoom="3.0876875"
   inkscape:cx="188.81444"
   inkscape:cy="188.97638"
   inkscape:window-width="2560"
   inkscape:window-height="1369"
   inkscape:window-x="-8"
   inkscape:window-y="-8"
   inkscape:window-maximized="1"
   inkscape:current-layer="svg21" />
 <defs
   class="ClipPathGroup"
   id="defs2">
  
  <clipPath
   id="presentation_clip_path_shrink"
   clipPathUnits="userSpaceOnUse">
   <rect
   x="10"
   y="10"
   width="9980"
   height="9980"
   id="rect2" />
  </clipPath>
 
  
 
   
  
    
   
     
    
      
      
      
      
      
      
     
       
      
       
      
       
      
       
      
       
      
       
      
        
        
       
        
        
       
        
        
       
        
        
       
        
        
       
        
        
       </defs>
 <defs
   class="TextShapeIndex"
   id="defs3">
  <g
   ooo:slide="id1"
   ooo:id-list="id3 id4 id5 id6 id7 id8"
   id="g2" />
 </defs>
 <defs
   class="EmbeddedBulletChars"
   id="defs12">
  <g
   id="bullet-char-template-57356"
   transform="scale(0.00048828125,-0.00048828125)">
   <path
   d="M 580,1141 L 1163,571 580,0 -4,571 580,1141 Z"
   id="path3" />
  </g>
  <g
   id="bullet-char-template-57354"
   transform="scale(0.00048828125,-0.00048828125)">
   <path
   d="M 8,1128 L 1137,1128 1137,0 8,0 8,1128 Z"
   id="path4" />
  </g>
  <g
   id="bullet-char-template-10146"
   transform="scale(0.00048828125,-0.00048828125)">
   <path
   d="M 174,0 L 602,739 174,1481 1456,739 174,0 Z M 1358,739 L 309,1346 659,739 1358,739 Z"
   id="path5" />
  </g>
  <g
   id="bullet-char-template-10132"
   transform="scale(0.00048828125,-0.00048828125)">
   <path
   d="M 2015,739 L 1276,0 717,0 1260,543 174,543 174,936 1260,936 717,1481 1274,1481 2015,739 Z"
   id="path6" />
  </g>
  <g
   id="bullet-char-template-10007"
   transform="scale(0.00048828125,-0.00048828125)">
   <path
   d="M 0,-2 C -7,14 -16,27 -25,37 L 356,567 C 262,823 215,952 215,954 215,979 228,992 255,992 264,992 276,990 289,987 310,991 331,999 354,1012 L 381,999 492,748 772,1049 836,1024 860,1049 C 881,1039 901,1025 922,1006 886,937 835,863 770,784 769,783 710,716 594,584 L 774,223 C 774,196 753,168 711,139 L 727,119 C 717,90 699,76 672,76 641,76 570,178 457,381 L 164,-76 C 142,-110 111,-127 72,-127 30,-127 9,-110 8,-76 1,-67 -2,-52 -2,-32 -2,-23 -1,-13 0,-2 Z"
   id="path7" />
  </g>
  <g
   id="bullet-char-template-10004"
   transform="scale(0.00048828125,-0.00048828125)">
   <path
   d="M 285,-33 C 182,-33 111,30 74,156 52,228 41,333 41,471 41,549 55,616 82,672 116,743 169,778 240,778 293,778 328,747 346,684 L 369,508 C 377,444 397,411 428,410 L 1163,1116 C 1174,1127 1196,1133 1229,1133 1271,1133 1292,1118 1292,1087 L 1292,965 C 1292,929 1282,901 1262,881 L 442,47 C 390,-6 338,-33 285,-33 Z"
   id="path8" />
  </g>
  <g
   id="bullet-char-template-9679"
   transform="scale(0.00048828125,-0.00048828125)">
   <path
   d="M 813,0 C 632,0 489,54 383,161 276,268 223,411 223,592 223,773 276,916 383,1023 489,1130 632,1184 813,1184 992,1184 1136,1130 1245,1023 1353,916 1407,772 1407,592 1407,412 1353,268 1245,161 1136,54 992,0 813,0 Z"
   id="path9" />
  </g>
  <g
   id="bullet-char-template-8226"
   transform="scale(0.00048828125,-0.00048828125)">
   <path
   d="M 346,457 C 273,457 209,483 155,535 101,586 74,649 74,723 74,796 101,859 155,911 209,963 273,989 346,989 419,989 480,963 531,910 582,859 608,796 608,723 608,648 583,586 532,535 482,483 420,457 346,457 Z"
   id="path10" />
  </g>
  <g
   id="bullet-char-template-8211"
   transform="scale(0.00048828125,-0.00048828125)">
   <path
   d="M -4,459 L 1135,459 1135,606 -4,606 -4,459 Z"
   id="path11" />
  </g>
  <g
   id="bullet-char-template-61548"
   transform="scale(0.00048828125,-0.00048828125)">
   <path
   d="M 173,740 C 173,903 231,1043 346,1159 462,1274 601,1332 765,1332 928,1332 1067,1274 1183,1159 1299,1043 1357,903 1357,740 1357,577 1299,437 1183,322 1067,206 928,148 765,148 601,148 462,206 346,322 231,437 173,577 173,740 Z"
   id="path12" />
  </g>
 </defs>
 
 <path
   id="path13"
   d="M 4766.7891 2330.8138 C 4753.771 2330.8026 4740.2039 2331.1898 4726.0164 2332.0023 C 4500.0164 2344.0023 4295.9845 2421.0058 4274.9845 2571.0058 C 4270.6177 2600.5808 4268.1498 2634.0737 4267.5948 2669.5011 C 4267.5905 2669.774 4267.5988 2670.0548 4267.5948 2670.3279 C 4267.2118 2676.6695 4267.2246 2683.0885 4267.4914 2689.5516 C 4267.6465 2715.4888 4268.8053 2742.2133 4271.2121 2769.2366 C 4273.0461 3069.2671 4129.1566 3416.7833 4066.8318 3551.4111 C 4065.21 3554.2689 4063.5614 3557.0248 4061.9743 3559.9894 C 4007.9743 3658.9894 4017.0133 3798.0172 4057.0133 3866.0172 C 4087.2484 3915.4258 4145.2221 3912.5205 4204.8596 3886.7911 C 4205.5716 3886.4948 4206.2635 3886.3312 4206.9783 3886.016 C 4207.2887 3885.8812 4207.5981 3885.6868 4207.9085 3885.5509 C 4208.0824 3885.4737 4208.2514 3885.3701 4208.4253 3885.2925 C 4215.2103 3882.2654 4222.0093 3878.8806 4228.7858 3875.319 C 4565.4218 3703.4075 4919.0799 2939.0621 4969.9808 2571.9877 C 4971.093 2563.8322 4971.7109 2556.0544 4972.0479 2548.4232 C 4995.2929 2392.3842 4923.753 2330.9492 4766.7891 2330.8138 z M 5766.8314 2331.7956 C 5753.8134 2331.7844 5740.1945 2332.1717 5726.007 2332.9842 C 5500.007 2344.9842 5295.9751 2421.9877 5274.9751 2571.9877 C 5270.5747 2601.7905 5268.1131 2635.578 5267.5854 2671.3098 C 5267.2029 2677.6416 5267.2168 2684.0805 5267.4821 2690.5334 C 5267.6365 2716.371 5268.8141 2742.9905 5271.2028 2769.9084 C 5273.1439 3070.137 5129.0755 3418.0976 5066.7708 3552.6513 C 5065.1857 3555.448 5063.5685 3558.1241 5062.0166 3561.0229 C 5008.0166 3660.0229 5017.0039 3798.9991 5057.0039 3866.9991 C 5087.1775 3916.3071 5144.9793 3913.5117 5204.4885 3887.928 C 5205.3359 3887.5793 5206.1692 3887.3733 5207.0206 3886.9979 C 5207.3175 3886.8689 5207.6022 3886.6627 5207.8991 3886.5328 C 5214.9415 3883.4058 5222.0011 3879.9009 5229.0348 3876.1975 C 5565.6001 3704.0493 5919.1341 2940.0099 5970.0231 2573.0212 C 5971.1353 2564.8657 5971.7016 2557.0362 5972.0385 2549.4051 C 5995.2836 2393.366 5923.7953 2331.931 5766.8314 2331.7956 z " />
   
  
</svg>
