<?xml version="1.0" encoding="UTF-8" standalone="no"?>
<svg
   version="1.2"
   width="100mm"
   height="100mm"
   viewBox="0 0 10000 10000"
   preserveAspectRatio="xMidYMid"
   fill-rule="evenodd"
   stroke-width="28.222"
   stroke-linejoin="round"
   xml:space="preserve"
   id="svg21"
   sodipodi:docname="gobo-caps-2020.svg"
   inkscape:version="1.4 (86a8ad7, 2024-10-11)"
   xmlns:inkscape="http://www.inkscape.org/namespaces/inkscape"
   xmlns:sodipodi="http://sodipodi.sourceforge.net/DTD/sodipodi-0.dtd"
   xmlns="http://www.w3.org/2000/svg"
   xmlns:svg="http://www.w3.org/2000/svg"
   xmlns:ooo="http://xml.openoffice.org/svg/export"><sodipodi:namedview
   id="namedview21"
   pagecolor="#ffffff"
   bordercolor="#000000"
   borderopacity="0.25"
   inkscape:showpageshadow="2"
   inkscape:pageopacity="0.0"
   inkscape:pagecheckerboard="0"
   inkscape:deskcolor="#d1d1d1"
   inkscape:document-units="mm"
   showgrid="false"
   inkscape:zoom="3.0876875"
   inkscape:cx="188.81444"
   inkscape:cy="188.97638"
   inkscape:window-width="2560"
   inkscape:window-height="1369"
   inkscape:window-x="-8"
   inkscape:window-y="-8"
   inkscape:window-maximized="1"
   inkscape:current-layer="svg21" />
 <defs
   class="ClipPathGroup"
   id="defs2">
  
  <clipPath
   id="presentation_clip_path_shrink"
   clipPathUnits="userSpaceOnUse">
   <rect
   x="10"
   y="10"
   width="9980"
   height="9980"
   id="rect2" />
  </clipPath>
 
  
 
   
  
    
   
     
    
      
      
      
      
      
      
     
       
      
       
      
       
      
       
      
       
      
       
      
        
        
       
        
        
       
        
        
       
        
        
       
        
        
       
        
        
       </defs>
 <defs
   class="TextShapeIndex"
   id="defs3">
  <g
   ooo:slide="id1"
   ooo:id-list="id3 id4 id5 id6 id7 id8"
   id="g2" />
 </defs>
 <defs
   class="EmbeddedBulletChars"
   id="defs12">
  <g
   id="bullet-char-template-57356"
   transform="scale(0.00048828125,-0.00048828125)">
   <path
   d="M 580,1141 L 1163,571 580,0 -4,571 580,1141 Z"
   id="path3" />
  </g>
  <g
   id="bullet-char-template-57354"
   transform="scale(0.00048828125,-0.00048828125)">
   <path
   d="M 8,1128 L 1137,1128 1137,0 8,0 8,1128 Z"
   id="path4" />
  </g>
  <g
   id="bullet-char-template-10146"
   transform="scale(0.00048828125,-0.00048828125)">
   <path
   d="M 174,0 L 602,739 174,1481 1456,739 174,0 Z M 1358,739 L 309,1346 659,739 1358,739 Z"
   id="path5" />
  </g>
  <g
   id="bullet-char-template-10132"
   transform="scale(0.00048828125,-0.00048828125)">
   <path
   d="M 2015,739 L 1276,0 717,0 1260,543 174,543 174,936 1260,936 717,1481 1274,1481 2015,739 Z"
   id="path6" />
  </g>
  <g
   id="bullet-char-template-10007"
   transform="scale(0.00048828125,-0.00048828125)">
   <path
   d="M 0,-2 C -7,14 -16,27 -25,37 L 356,567 C 262,823 215,952 215,954 215,979 228,992 255,992 264,992 276,990 289,987 310,991 331,999 354,1012 L 381,999 492,748 772,1049 836,1024 860,1049 C 881,1039 901,1025 922,1006 886,937 835,863 770,784 769,783 710,716 594,584 L 774,223 C 774,196 753,168 711,139 L 727,119 C 717,90 699,76 672,76 641,76 570,178 457,381 L 164,-76 C 142,-110 111,-127 72,-127 30,-127 9,-110 8,-76 1,-67 -2,-52 -2,-32 -2,-23 -1,-13 0,-2 Z"
   id="path7" />
  </g>
  <g
   id="bullet-char-template-10004"
   transform="scale(0.00048828125,-0.00048828125)">
   <path
   d="M 285,-33 C 182,-33 111,30 74,156 52,228 41,333 41,471 41,549 55,616 82,672 116,743 169,778 240,778 293,778 328,747 346,684 L 369,508 C 377,444 397,411 428,410 L 1163,1116 C 1174,1127 1196,1133 1229,1133 1271,1133 1292,1118 1292,1087 L 1292,965 C 1292,929 1282,901 1262,881 L 442,47 C 390,-6 338,-33 285,-33 Z"
   id="path8" />
  </g>
  <g
   id="bullet-char-template-9679"
   transform="scale(0.00048828125,-0.00048828125)">
   <path
   d="M 813,0 C 632,0 489,54 383,161 276,268 223,411 223,592 223,773 276,916 383,1023 489,1130 632,1184 813,1184 992,1184 1136,1130 1245,1023 1353,916 1407,772 1407,592 1407,412 1353,268 1245,161 1136,54 992,0 813,0 Z"
   id="path9" />
  </g>
  <g
   id="bullet-char-template-8226"
   transform="scale(0.00048828125,-0.00048828125)">
   <path
   d="M 346,457 C 273,457 209,483 155,535 101,586 74,649 74,723 74,796 101,859 155,911 209,963 273,989 346,989 419,989 480,963 531,910 582,859 608,796 608,723 608,648 583,586 532,535 482,483 420,457 346,457 Z"
   id="path10" />
  </g>
  <g
   id="bullet-char-template-8211"
   transform="scale(0.00048828125,-0.00048828125)">
   <path
   d="M -4,459 L 1135,459 1135,606 -4,606 -4,459 Z"
   id="path11" />
  </g>
  <g
   id="bullet-char-template-61548"
   transform="scale(0.00048828125,-0.00048828125)">
   <path
   d="M 173,740 C 173,903 231,1043 346,1159 462,1274 601,1332 765,1332 928,1332 1067,1274 1183,1159 1299,1043 1357,903 1357,740 1357,577 1299,437 1183,322 1067,206 928,148 765,148 601,148 462,206 346,322 231,437 173,577 173,740 Z"
   id="path12" />
  </g>
 </defs>
 
 <path
   id="path13"
   d="M 5140.9782 2163.9506 C 5127.9052 2163.8771 5114.2487 2164.2341 5099.9987 2164.9841 C 4874.9987 2177.9841 4670.0004 2256.0211 4650.0004 2405.0211 C 4637.5217 2485.8615 4638.7573 2595.1541 4658.6303 2696.5279 C 4676.8752 2817.2646 4690.9844 3004.6357 4701.6768 3233.136 C 4189.4498 3287.8182 3851.5271 3328.0087 3529.9654 3383.9795 C 3489.2246 3388.7139 3449.8932 3395.7071 3412.8666 3405.0118 C 3409.2341 3405.6924 3405.6518 3406.2895 3402.0145 3406.9755 C 3397.8692 3407.7802 3393.8575 3409.4116 3389.8706 3411.1096 C 3258.6011 3448.57 3161.4989 3516.6071 3148.0249 3616.9885 C 3126.0249 3765.9885 3149.016 4012.0014 3251.016 4126.0014 C 3290.2512 4169.3236 3325.6445 4190.6 3362.9988 4193.8525 C 3370.9884 4195.3047 3379.3971 4195.3732 3388.372 4193.3874 C 3388.6449 4193.3548 3388.9255 4193.3184 3389.1988 4193.2841 C 3389.8214 4193.1389 3390.3801 4193.1881 3391.0075 4193.0257 C 3391.12 4192.9958 3391.3596 4192.9522 3391.4725 4192.9223 C 3399.0348 4191.8459 3406.8091 4189.8938 3414.6753 4187.548 C 3607.064 4140.0878 4206.3543 4034.3478 4724.1044 3967.4064 C 4737.0586 4615.5626 4737.8973 5309.4774 4740.0207 5637.0202 C 4744.01 6252.3677 4613.7698 8213.6742 4661.6792 8479.1206 C 4670.8835 8600.4461 4703.9145 8727.8776 4769.993 8801.0131 C 4865.993 8907.0131 4939.0236 8880.9962 5073.0236 8781.9962 C 5207.0236 8683.9962 5294.0105 8506.9859 5330.0105 8400.9859 C 5345.2507 8356.7402 5355.7982 8317.4176 5361.9466 8282.4918 C 5363.3111 8274.7406 5364.4349 8267.2739 5365.3572 8259.9609 C 5365.8473 8256.2797 5366.6428 8252.737 5367.0109 8249.0055 C 5403.0109 7883.0055 5373.9983 6499.9848 5361.9983 5581.9848 C 5356.3692 5151.3663 5350.0655 4515.5339 5346.392 3909.4771 C 5823.6154 3884.9296 6296.18 3899.2581 6381.0058 3907.9785 C 6384.6576 3908.3198 6388.6705 3907.5232 6392.9431 3905.9631 C 6441.7679 3902.6914 6495.2314 3870.8941 6566.0074 3818.9917 C 6700.0074 3721.9917 6786.9943 3545.0149 6822.9943 3439.0149 C 6915.9943 3169.0149 6837.9841 3077.9922 6609.9841 3089.9922 C 6595.8591 3090.8047 6581.826 3091.8815 6567.9195 3093.1962 C 6345.9773 3102.2632 5860.2146 3129.3588 5344.0665 3171.8477 C 5343.7645 2836.4465 5344.7047 2543.0418 5348.8208 2369.3127 C 5365.7179 2223.3437 5293.7897 2164.8096 5140.9782 2163.9506 z " />
   
  
</svg>
