<?xml version="1.0" encoding="UTF-8" standalone="no"?>
<svg
   version="1.2"
   width="100mm"
   height="100mm"
   viewBox="0 0 10000 10000"
   preserveAspectRatio="xMidYMid"
   fill-rule="evenodd"
   stroke-width="28.222"
   stroke-linejoin="round"
   xml:space="preserve"
   id="svg21"
   sodipodi:docname="gobo-caps-201E.svg"
   inkscape:version="1.4 (86a8ad7, 2024-10-11)"
   xmlns:inkscape="http://www.inkscape.org/namespaces/inkscape"
   xmlns:sodipodi="http://sodipodi.sourceforge.net/DTD/sodipodi-0.dtd"
   xmlns="http://www.w3.org/2000/svg"
   xmlns:svg="http://www.w3.org/2000/svg"
   xmlns:ooo="http://xml.openoffice.org/svg/export"><sodipodi:namedview
   id="namedview21"
   pagecolor="#ffffff"
   bordercolor="#000000"
   borderopacity="0.25"
   inkscape:showpageshadow="2"
   inkscape:pageopacity="0.0"
   inkscape:pagecheckerboard="0"
   inkscape:deskcolor="#d1d1d1"
   inkscape:document-units="mm"
   showgrid="false"
   inkscape:zoom="3.0876875"
   inkscape:cx="188.81444"
   inkscape:cy="188.97638"
   inkscape:window-width="2560"
   inkscape:window-height="1369"
   inkscape:window-x="-8"
   inkscape:window-y="-8"
   inkscape:window-maximized="1"
   inkscape:current-layer="svg21" />
 <defs
   class="ClipPathGroup"
   id="defs2">
  
  <clipPath
   id="presentation_clip_path_shrink"
   clipPathUnits="userSpaceOnUse">
   <rect
   x="10"
   y="10"
   width="9980"
   height="9980"
   id="rect2" />
  </clipPath>
 
  
 
   
  
    
   
     
    
      
      
      
      
      
      
     
       
      
       
      
       
      
       
      
       
      
       
      
        
        
       
        
        
       
        
        
       
        
        
       
        
        
       
        
        
       </defs>
 <defs
   class="TextShapeIndex"
   id="defs3">
  <g
   ooo:slide="id1"
   ooo:id-list="id3 id4 id5 id6 id7 id8"
   id="g2" />
 </defs>
 <defs
   class="EmbeddedBulletChars"
   id="defs12">
  <g
   id="bullet-char-template-57356"
   transform="scale(0.00048828125,-0.00048828125)">
   <path
   d="M 580,1141 L 1163,571 580,0 -4,571 580,1141 Z"
   id="path3" />
  </g>
  <g
   id="bullet-char-template-57354"
   transform="scale(0.00048828125,-0.00048828125)">
   <path
   d="M 8,1128 L 1137,1128 1137,0 8,0 8,1128 Z"
   id="path4" />
  </g>
  <g
   id="bullet-char-template-10146"
   transform="scale(0.00048828125,-0.00048828125)">
   <path
   d="M 174,0 L 602,739 174,1481 1456,739 174,0 Z M 1358,739 L 309,1346 659,739 1358,739 Z"
   id="path5" />
  </g>
  <g
   id="bullet-char-template-10132"
   transform="scale(0.00048828125,-0.00048828125)">
   <path
   d="M 2015,739 L 1276,0 717,0 1260,543 174,543 174,936 1260,936 717,1481 1274,1481 2015,739 Z"
   id="path6" />
  </g>
  <g
   id="bullet-char-template-10007"
   transform="scale(0.00048828125,-0.00048828125)">
   <path
   d="M 0,-2 C -7,14 -16,27 -25,37 L 356,567 C 262,823 215,952 215,954 215,979 228,992 255,992 264,992 276,990 289,987 310,991 331,999 354,1012 L 381,999 492,748 772,1049 836,1024 860,1049 C 881,1039 901,1025 922,1006 886,937 835,863 770,784 769,783 710,716 594,584 L 774,223 C 774,196 753,168 711,139 L 727,119 C 717,90 699,76 672,76 641,76 570,178 457,381 L 164,-76 C 142,-110 111,-127 72,-127 30,-127 9,-110 8,-76 1,-67 -2,-52 -2,-32 -2,-23 -1,-13 0,-2 Z"
   id="path7" />
  </g>
  <g
   id="bullet-char-template-10004"
   transform="scale(0.00048828125,-0.00048828125)">
   <path
   d="M 285,-33 C 182,-33 111,30 74,156 52,228 41,333 41,471 41,549 55,616 82,672 116,743 169,778 240,778 293,778 328,747 346,684 L 369,508 C 377,444 397,411 428,410 L 1163,1116 C 1174,1127 1196,1133 1229,1133 1271,1133 1292,1118 1292,1087 L 1292,965 C 1292,929 1282,901 1262,881 L 442,47 C 390,-6 338,-33 285,-33 Z"
   id="path8" />
  </g>
  <g
   id="bullet-char-template-9679"
   transform="scale(0.00048828125,-0.00048828125)">
   <path
   d="M 813,0 C 632,0 489,54 383,161 276,268 223,411 223,592 223,773 276,916 383,1023 489,1130 632,1184 813,1184 992,1184 1136,1130 1245,1023 1353,916 1407,772 1407,592 1407,412 1353,268 1245,161 1136,54 992,0 813,0 Z"
   id="path9" />
  </g>
  <g
   id="bullet-char-template-8226"
   transform="scale(0.00048828125,-0.00048828125)">
   <path
   d="M 346,457 C 273,457 209,483 155,535 101,586 74,649 74,723 74,796 101,859 155,911 209,963 273,989 346,989 419,989 480,963 531,910 582,859 608,796 608,723 608,648 583,586 532,535 482,483 420,457 346,457 Z"
   id="path10" />
  </g>
  <g
   id="bullet-char-template-8211"
   transform="scale(0.00048828125,-0.00048828125)">
   <path
   d="M -4,459 L 1135,459 1135,606 -4,606 -4,459 Z"
   id="path11" />
  </g>
  <g
   id="bullet-char-template-61548"
   transform="scale(0.00048828125,-0.00048828125)">
   <path
   d="M 173,740 C 173,903 231,1043 346,1159 462,1274 601,1332 765,1332 928,1332 1067,1274 1183,1159 1299,1043 1357,903 1357,740 1357,577 1299,437 1183,322 1067,206 928,148 765,148 601,148 462,206 346,322 231,437 173,577 173,740 Z"
   id="path12" />
  </g>
 </defs>
 
 <path
   id="path13"
   d="M 4766.7891 7130.7792 C 4753.771 7130.7679 4740.2039 7131.2069 4726.0164 7132.0194 C 4500.0164 7144.0194 4295.9845 7221.0229 4274.9845 7371.0229 C 4270.616 7400.6096 4268.1484 7434.0751 4267.5948 7469.5182 C 4267.5905 7469.7907 4267.5988 7470.0722 4267.5948 7470.345 C 4267.2118 7476.6866 4267.2246 7483.1055 4267.4914 7489.5686 C 4267.6468 7515.5013 4268.8058 7542.1838 4271.2121 7569.202 C 4273.0513 7869.2361 4129.1577 8216.798 4066.8318 8351.4282 C 4065.21 8354.286 4063.5614 8357.0418 4061.9743 8360.0064 C 4007.9743 8459.0064 4017.0133 8597.9826 4057.0133 8665.9826 C 4087.4477 8715.7168 4145.9967 8712.5449 4206.0481 8686.3431 C 4206.3565 8686.2086 4206.6699 8686.1171 4206.9783 8685.9814 C 4207.1163 8685.9215 4207.2538 8685.8348 4207.3917 8685.7747 C 4214.6735 8682.5569 4221.9778 8678.9127 4229.2509 8675.0777 C 4565.75 8502.7083 4919.1029 7738.9132 4969.9808 7372.0047 C 4971.0955 7363.8307 4971.7119 7356.0358 4972.0479 7348.3886 C 4995.2929 7192.3496 4923.753 7130.9146 4766.7891 7130.7792 z M 5766.8314 7131.8127 C 5753.8134 7131.8015 5740.1945 7132.1887 5726.007 7133.0012 C 5500.007 7145.0012 5295.9751 7222.0047 5274.9751 7372.0047 C 5270.5747 7401.8076 5268.1131 7435.5951 5267.5854 7471.3268 C 5267.2024 7477.6684 5267.2152 7484.0874 5267.4821 7490.5505 C 5267.6365 7516.3881 5268.8141 7543.0076 5271.2028 7569.9255 C 5273.1389 7870.1506 5129.0744 8218.0653 5066.7708 8352.6167 C 5065.1857 8355.4134 5063.5685 8358.0895 5062.0166 8360.9883 C 5008.0166 8459.9883 5017.0039 8599.0161 5057.0039 8667.0161 C 5087.1775 8716.3242 5144.9793 8713.5287 5204.4885 8687.9451 C 5205.3359 8687.5963 5206.1692 8687.3903 5207.0206 8687.0149 C 5207.3175 8686.8859 5207.6022 8686.6798 5207.8991 8686.5498 C 5214.7892 8683.4905 5221.6871 8680.0334 5228.5697 8676.4212 C 5565.272 8504.7319 5919.111 7740.1414 5970.0231 7372.9866 C 5971.1353 7364.8311 5971.7016 7357.0533 5972.0385 7349.4221 C 5995.2836 7193.3831 5923.7953 7131.9481 5766.8314 7131.8127 z " />
   
  
</svg>
