<?xml version="1.0" encoding="UTF-8" standalone="no"?>
<svg
   version="1.2"
   width="100mm"
   height="100mm"
   viewBox="0 0 10000 10000"
   preserveAspectRatio="xMidYMid"
   fill-rule="evenodd"
   stroke-width="28.222"
   stroke-linejoin="round"
   xml:space="preserve"
   id="svg23"
   sodipodi:docname="gobo-caps-2049.svg"
   inkscape:version="1.4 (86a8ad7, 2024-10-11)"
   xmlns:inkscape="http://www.inkscape.org/namespaces/inkscape"
   xmlns:sodipodi="http://sodipodi.sourceforge.net/DTD/sodipodi-0.dtd"
   xmlns="http://www.w3.org/2000/svg"
   xmlns:svg="http://www.w3.org/2000/svg"
   xmlns:ooo="http://xml.openoffice.org/svg/export"><sodipodi:namedview
   id="namedview23"
   pagecolor="#ffffff"
   bordercolor="#000000"
   borderopacity="0.25"
   inkscape:showpageshadow="2"
   inkscape:pageopacity="0.0"
   inkscape:pagecheckerboard="0"
   inkscape:deskcolor="#d1d1d1"
   inkscape:document-units="mm"
   showgrid="false"
   inkscape:zoom="3.0876875"
   inkscape:cx="188.81444"
   inkscape:cy="188.97638"
   inkscape:window-width="2560"
   inkscape:window-height="1369"
   inkscape:window-x="-8"
   inkscape:window-y="-8"
   inkscape:window-maximized="1"
   inkscape:current-layer="svg23" />
 <defs
   class="ClipPathGroup"
   id="defs2">
  
  <clipPath
   id="presentation_clip_path_shrink"
   clipPathUnits="userSpaceOnUse">
   <rect
   x="10"
   y="10"
   width="9980"
   height="9980"
   id="rect2" />
  </clipPath>
 
  
 
   
  
    
   
     
    
      
      
      
      
      
      
      
      
     
       
      
       
      
       
      
       
      
       
      
       
      
       
      
       
      
        
        
       
        
        
       
        
        
       
        
        
       
        
        
       
        
        
       
        
        
       
        
        
       </defs>
 <defs
   class="TextShapeIndex"
   id="defs3">
  <g
   ooo:slide="id1"
   ooo:id-list="id3 id4 id5 id6 id7 id8 id9 id10"
   id="g2" />
 </defs>
 <defs
   class="EmbeddedBulletChars"
   id="defs12">
  <g
   id="bullet-char-template-57356"
   transform="scale(0.00048828125,-0.00048828125)">
   <path
   d="M 580,1141 L 1163,571 580,0 -4,571 580,1141 Z"
   id="path3" />
  </g>
  <g
   id="bullet-char-template-57354"
   transform="scale(0.00048828125,-0.00048828125)">
   <path
   d="M 8,1128 L 1137,1128 1137,0 8,0 8,1128 Z"
   id="path4" />
  </g>
  <g
   id="bullet-char-template-10146"
   transform="scale(0.00048828125,-0.00048828125)">
   <path
   d="M 174,0 L 602,739 174,1481 1456,739 174,0 Z M 1358,739 L 309,1346 659,739 1358,739 Z"
   id="path5" />
  </g>
  <g
   id="bullet-char-template-10132"
   transform="scale(0.00048828125,-0.00048828125)">
   <path
   d="M 2015,739 L 1276,0 717,0 1260,543 174,543 174,936 1260,936 717,1481 1274,1481 2015,739 Z"
   id="path6" />
  </g>
  <g
   id="bullet-char-template-10007"
   transform="scale(0.00048828125,-0.00048828125)">
   <path
   d="M 0,-2 C -7,14 -16,27 -25,37 L 356,567 C 262,823 215,952 215,954 215,979 228,992 255,992 264,992 276,990 289,987 310,991 331,999 354,1012 L 381,999 492,748 772,1049 836,1024 860,1049 C 881,1039 901,1025 922,1006 886,937 835,863 770,784 769,783 710,716 594,584 L 774,223 C 774,196 753,168 711,139 L 727,119 C 717,90 699,76 672,76 641,76 570,178 457,381 L 164,-76 C 142,-110 111,-127 72,-127 30,-127 9,-110 8,-76 1,-67 -2,-52 -2,-32 -2,-23 -1,-13 0,-2 Z"
   id="path7" />
  </g>
  <g
   id="bullet-char-template-10004"
   transform="scale(0.00048828125,-0.00048828125)">
   <path
   d="M 285,-33 C 182,-33 111,30 74,156 52,228 41,333 41,471 41,549 55,616 82,672 116,743 169,778 240,778 293,778 328,747 346,684 L 369,508 C 377,444 397,411 428,410 L 1163,1116 C 1174,1127 1196,1133 1229,1133 1271,1133 1292,1118 1292,1087 L 1292,965 C 1292,929 1282,901 1262,881 L 442,47 C 390,-6 338,-33 285,-33 Z"
   id="path8" />
  </g>
  <g
   id="bullet-char-template-9679"
   transform="scale(0.00048828125,-0.00048828125)">
   <path
   d="M 813,0 C 632,0 489,54 383,161 276,268 223,411 223,592 223,773 276,916 383,1023 489,1130 632,1184 813,1184 992,1184 1136,1130 1245,1023 1353,916 1407,772 1407,592 1407,412 1353,268 1245,161 1136,54 992,0 813,0 Z"
   id="path9" />
  </g>
  <g
   id="bullet-char-template-8226"
   transform="scale(0.00048828125,-0.00048828125)">
   <path
   d="M 346,457 C 273,457 209,483 155,535 101,586 74,649 74,723 74,796 101,859 155,911 209,963 273,989 346,989 419,989 480,963 531,910 582,859 608,796 608,723 608,648 583,586 532,535 482,483 420,457 346,457 Z"
   id="path10" />
  </g>
  <g
   id="bullet-char-template-8211"
   transform="scale(0.00048828125,-0.00048828125)">
   <path
   d="M -4,459 L 1135,459 1135,606 -4,606 -4,459 Z"
   id="path11" />
  </g>
  <g
   id="bullet-char-template-61548"
   transform="scale(0.00048828125,-0.00048828125)">
   <path
   d="M 173,740 C 173,903 231,1043 346,1159 462,1274 601,1332 765,1332 928,1332 1067,1274 1183,1159 1299,1043 1357,903 1357,740 1357,577 1299,437 1183,322 1067,206 928,148 765,148 601,148 462,206 346,322 231,437 173,577 173,740 Z"
   id="path12" />
  </g>
 </defs>
 
 <path
   id="path13"
   d="M 5834.1141 2118.1136 C 5794.5773 2118.1124 5754.5181 2119.7729 5714.0181 2123.0229 C 5106.8949 2171.7426 4668.0953 2427.5432 4408.4131 2614.3624 C 4388.9742 2625.7331 4371.4485 2638.2553 4356.1165 2651.9311 C 4356.0885 2651.9521 4356.0412 2651.9618 4356.0132 2651.9828 L 4355.9615 2652.0345 C 4319.391 2684.6997 4295.4796 2723.9578 4288.9888 2770.0118 C 4265.9888 2919.0118 4288.9799 3165.0246 4391.9799 3279.0246 C 4487.9799 3385.0246 4561.0105 3359.0077 4695.0105 3260.0077 C 4703.0888 3254.0997 4710.9426 3247.8535 4718.6783 3241.4042 C 4719.4247 3240.8488 4720.2816 3240.6373 4721.0038 3240.0089 C 4725.6961 3235.3002 4731.4327 3230.5284 4736.3517 3225.7979 C 4739.7437 3222.6977 4743.1594 3219.636 4746.4803 3216.4445 C 5046.7864 2935.3816 5731.271 2632.7676 6134.9743 3160.0138 C 6550.9743 3702.0138 5881.9747 4274.0125 5069.9747 4917.0125 C 4256.9747 5559.0125 4076.9972 6019.0034 4447.9972 6589.0034 C 4449.8534 6591.4617 4451.9455 6593.2135 4453.8883 6595.4113 C 4518.11 6687.668 4653.9405 6644.0427 4766.9958 6568.0228 C 4881.9958 6488.0228 4971.0021 6379.9777 5003.0021 6205.9777 C 5024.5981 6092.7624 5014.9269 5991.1582 4956.3383 5938.3455 C 4870.3314 5776.039 4839.9538 5871.9939 5290.013 5487.0035 C 5787.013 5061.0035 6846.999 4300.0142 6873.999 3365.0142 C 6899.3115 2488.4517 6427.1671 2118.1319 5834.1141 2118.1136 z M 3665.9778 2157.9561 C 3652.9118 2157.8829 3639.2483 2158.2396 3624.9983 2158.9896 C 3398.9983 2171.9896 3195.0181 2248.9931 3174.0181 2397.9931 C 3172.8402 2406.0242 3171.8322 2414.4583 3170.9175 2423.0045 C 3170.6799 2424.0067 3170.0795 2424.9984 3169.9874 2426.0018 C 3169.7174 2429.8379 3169.4315 2438.4762 3169.1605 2442.6416 C 3167.7998 2459.6415 3166.8898 2477.2911 3166.5767 2495.6099 C 3143.4318 2933.4972 3118.3872 4452.1337 3126.0107 5062.0166 C 3132.0107 5702.0166 3167.9861 6215.0092 3189.9861 6452.0092 C 3190.3631 6455.9821 3191.3493 6459.4478 3192.6733 6462.6546 C 3200.3221 6518.7577 3215.9898 6568.8234 3237.9935 6605.0231 C 3299.9935 6706.0231 3440.0103 6663.0244 3556.0103 6585.0244 C 3671.0103 6505.0244 3759.0166 6397.9793 3792.0166 6222.9793 C 3800.4378 6178.5766 3804.0718 6136.1293 3801.9384 6097.6639 C 3802.7808 5942.5348 3757.7917 5566.4315 3753.9827 5096.0197 C 3749.9827 4603.0197 3807.9908 2712.9802 3875.9908 2355.9802 C 3876.4058 2352.1171 3876.0731 2348.5101 3875.0606 2345.0765 C 3884.0007 2212.5558 3812.3349 2158.7765 3665.9778 2157.9561 z M 3672.799 7166.7976 C 3659.781 7166.7864 3646.1622 7167.1737 3631.9747 7167.9862 C 3405.9747 7179.9862 3201.9944 7256.9897 3180.9944 7406.9897 C 3157.9944 7555.9897 3180.9856 7802.0025 3283.9856 7916.0025 C 3379.9856 8022.0025 3452.998 7995.9856 3587.998 7896.9856 C 3720.998 7797.9856 3808.0031 7621.9753 3844.0031 7515.9753 C 3931.1906 7261.9128 3868.07 7166.9661 3672.799 7166.7976 z M 5053.8 7166.7976 C 5040.7819 7166.7864 5027.1631 7167.1737 5012.9756 7167.9862 C 4786.9756 7179.9862 4582.9954 7256.9897 4561.9954 7406.9897 C 4538.9954 7555.9897 4561.9865 7802.0025 4664.9865 7916.0025 C 4760.9865 8022.0025 4833.999 7995.9856 4968.999 7896.9856 C 5101.999 7797.9856 5189.004 7621.9753 5225.004 7515.9753 C 5312.1915 7261.9128 5249.071 7166.9661 5053.8 7166.7976 z " />
   
  
</svg>
