<?xml version="1.0" encoding="UTF-8" standalone="no"?>
<svg
   version="1.2"
   width="100mm"
   height="100mm"
   viewBox="0 0 10000 10000"
   preserveAspectRatio="xMidYMid"
   fill-rule="evenodd"
   stroke-width="28.222"
   stroke-linejoin="round"
   xml:space="preserve"
   id="svg20"
   sodipodi:docname="gobo-caps-1E9E.svg"
   inkscape:version="1.4 (86a8ad7, 2024-10-11)"
   xmlns:inkscape="http://www.inkscape.org/namespaces/inkscape"
   xmlns:sodipodi="http://sodipodi.sourceforge.net/DTD/sodipodi-0.dtd"
   xmlns="http://www.w3.org/2000/svg"
   xmlns:svg="http://www.w3.org/2000/svg"
   xmlns:ooo="http://xml.openoffice.org/svg/export"><sodipodi:namedview
   id="namedview20"
   pagecolor="#ffffff"
   bordercolor="#000000"
   borderopacity="0.25"
   inkscape:showpageshadow="2"
   inkscape:pageopacity="0.0"
   inkscape:pagecheckerboard="0"
   inkscape:deskcolor="#d1d1d1"
   inkscape:document-units="mm"
   showgrid="false"
   inkscape:zoom="3.0876875"
   inkscape:cx="188.81444"
   inkscape:cy="188.97638"
   inkscape:window-width="2560"
   inkscape:window-height="1369"
   inkscape:window-x="-8"
   inkscape:window-y="-8"
   inkscape:window-maximized="1"
   inkscape:current-layer="svg20" />
 <defs
   class="ClipPathGroup"
   id="defs2">
  
  <clipPath
   id="presentation_clip_path_shrink"
   clipPathUnits="userSpaceOnUse">
   <rect
   x="10"
   y="10"
   width="9980"
   height="9980"
   id="rect2" />
  </clipPath>
 
  
 
   
  
    
   
     
    
      
      
      
      
      
     
       
      
       
      
       
      
       
      
       
      
        
        
       
        
        
       
        
        
       
        
        
       
        
        
       </defs>
 <defs
   class="TextShapeIndex"
   id="defs3">
  <g
   ooo:slide="id1"
   ooo:id-list="id3 id4 id5 id6 id7"
   id="g2" />
 </defs>
 <defs
   class="EmbeddedBulletChars"
   id="defs12">
  <g
   id="bullet-char-template-57356"
   transform="scale(0.00048828125,-0.00048828125)">
   <path
   d="M 580,1141 L 1163,571 580,0 -4,571 580,1141 Z"
   id="path3" />
  </g>
  <g
   id="bullet-char-template-57354"
   transform="scale(0.00048828125,-0.00048828125)">
   <path
   d="M 8,1128 L 1137,1128 1137,0 8,0 8,1128 Z"
   id="path4" />
  </g>
  <g
   id="bullet-char-template-10146"
   transform="scale(0.00048828125,-0.00048828125)">
   <path
   d="M 174,0 L 602,739 174,1481 1456,739 174,0 Z M 1358,739 L 309,1346 659,739 1358,739 Z"
   id="path5" />
  </g>
  <g
   id="bullet-char-template-10132"
   transform="scale(0.00048828125,-0.00048828125)">
   <path
   d="M 2015,739 L 1276,0 717,0 1260,543 174,543 174,936 1260,936 717,1481 1274,1481 2015,739 Z"
   id="path6" />
  </g>
  <g
   id="bullet-char-template-10007"
   transform="scale(0.00048828125,-0.00048828125)">
   <path
   d="M 0,-2 C -7,14 -16,27 -25,37 L 356,567 C 262,823 215,952 215,954 215,979 228,992 255,992 264,992 276,990 289,987 310,991 331,999 354,1012 L 381,999 492,748 772,1049 836,1024 860,1049 C 881,1039 901,1025 922,1006 886,937 835,863 770,784 769,783 710,716 594,584 L 774,223 C 774,196 753,168 711,139 L 727,119 C 717,90 699,76 672,76 641,76 570,178 457,381 L 164,-76 C 142,-110 111,-127 72,-127 30,-127 9,-110 8,-76 1,-67 -2,-52 -2,-32 -2,-23 -1,-13 0,-2 Z"
   id="path7" />
  </g>
  <g
   id="bullet-char-template-10004"
   transform="scale(0.00048828125,-0.00048828125)">
   <path
   d="M 285,-33 C 182,-33 111,30 74,156 52,228 41,333 41,471 41,549 55,616 82,672 116,743 169,778 240,778 293,778 328,747 346,684 L 369,508 C 377,444 397,411 428,410 L 1163,1116 C 1174,1127 1196,1133 1229,1133 1271,1133 1292,1118 1292,1087 L 1292,965 C 1292,929 1282,901 1262,881 L 442,47 C 390,-6 338,-33 285,-33 Z"
   id="path8" />
  </g>
  <g
   id="bullet-char-template-9679"
   transform="scale(0.00048828125,-0.00048828125)">
   <path
   d="M 813,0 C 632,0 489,54 383,161 276,268 223,411 223,592 223,773 276,916 383,1023 489,1130 632,1184 813,1184 992,1184 1136,1130 1245,1023 1353,916 1407,772 1407,592 1407,412 1353,268 1245,161 1136,54 992,0 813,0 Z"
   id="path9" />
  </g>
  <g
   id="bullet-char-template-8226"
   transform="scale(0.00048828125,-0.00048828125)">
   <path
   d="M 346,457 C 273,457 209,483 155,535 101,586 74,649 74,723 74,796 101,859 155,911 209,963 273,989 346,989 419,989 480,963 531,910 582,859 608,796 608,723 608,648 583,586 532,535 482,483 420,457 346,457 Z"
   id="path10" />
  </g>
  <g
   id="bullet-char-template-8211"
   transform="scale(0.00048828125,-0.00048828125)">
   <path
   d="M -4,459 L 1135,459 1135,606 -4,606 -4,459 Z"
   id="path11" />
  </g>
  <g
   id="bullet-char-template-61548"
   transform="scale(0.00048828125,-0.00048828125)">
   <path
   d="M 173,740 C 173,903 231,1043 346,1159 462,1274 601,1332 765,1332 928,1332 1067,1274 1183,1159 1299,1043 1357,903 1357,740 1357,577 1299,437 1183,322 1067,206 928,148 765,148 601,148 462,206 346,322 231,437 173,577 173,740 Z"
   id="path12" />
  </g>
 </defs>
 
 <path
   id="path13"
   d="M 4862.2355 2145.7088 C 4770.8331 2146.3338 4680.5013 2151.9869 4593.0013 2161.9869 C 3892.0013 2243.9869 2838.9894 2790.9749 2924.9894 4135.9749 C 3010.9894 5480.9749 2882.0017 7935.9977 2893.0017 8630.9977 C 2892.6371 8638.6133 2893.9331 8645.3113 2895.8956 8651.6166 C 2901.8226 8781.0345 2934.7458 8923.099 3006.018 9001.9828 C 3102.018 9107.9828 3174.997 9082.0175 3308.997 8983.0175 C 3442.997 8885.0175 3529.9839 8708.0072 3565.9839 8602.0072 C 3594.2658 8519.8983 3606.6422 8454.5038 3603.9144 8403.4663 C 3603.8987 8402.9843 3604.0422 8402.5011 3604.0177 8402.0194 C 3541.0177 7629.0194 3579.0146 5670.9998 3570.0146 4743.9998 C 3561.0146 3816.9998 3375.0037 3384.0033 3918.0037 3078.0033 C 4461.0037 2772.0033 5113.9959 2805.9797 5569.9959 3252.9797 C 6023.8892 3697.9146 5610.6522 4158.4935 5001.2968 4385.6237 L 5001.2451 4385.6754 C 4998.4379 4386.7217 4995.7923 4387.9464 4992.9768 4388.9827 C 4992.4063 4389.1911 4991.989 4389.9326 4991.4266 4390.1713 C 4914.7854 4424.6242 4856.1347 4481.5286 4806.9934 4572.0206 C 4725.9934 4723.0206 4738.9989 4932.9898 4800.9989 5034.9898 C 4824.6563 5073.9101 4859.8544 5091.531 4900.6827 5094.1593 C 5725.0378 5234.2378 6393.1611 5814.8656 6489.0096 6551.0213 C 6585.2213 7289.9669 5861.9815 7533.6293 5253.9945 7098.4297 C 5212.4845 7063.8872 5144.6534 7051.5131 5051.9913 7056.0034 C 4825.9913 7069.0034 4622.0111 7146.9887 4601.0111 7295.9887 C 4578.0111 7444.9887 4601.0022 7691.0016 4704.0022 7805.0016 C 4733.3398 7837.3952 4760.5374 7857.3844 4787.9764 7866.8066 C 4791.4059 7868.4748 4794.3376 7870.4616 4798.0017 7871.9742 C 6186.0017 8444.9742 7215.9982 7561.0227 7098.9982 6232.0227 C 7013.3886 5259.5854 6460.3174 4805.6568 5863.0013 4555.9493 C 6245.5856 4170.2766 6461.5004 3644.4091 6350.9818 3120.9981 C 6195.2318 2384.2481 5502.0519 2141.3338 4862.2355 2145.7088 z " />
   
  
</svg>
