<?xml version="1.0" encoding="UTF-8" standalone="no"?>
<svg
   version="1.2"
   width="100mm"
   height="100mm"
   viewBox="0 0 10000 10000"
   preserveAspectRatio="xMidYMid"
   fill-rule="evenodd"
   stroke-width="28.222"
   stroke-linejoin="round"
   xml:space="preserve"
   id="svg22"
   sodipodi:docname="gobo-caps-005A.svg"
   inkscape:version="1.4 (86a8ad7, 2024-10-11)"
   xmlns:inkscape="http://www.inkscape.org/namespaces/inkscape"
   xmlns:sodipodi="http://sodipodi.sourceforge.net/DTD/sodipodi-0.dtd"
   xmlns="http://www.w3.org/2000/svg"
   xmlns:svg="http://www.w3.org/2000/svg"
   xmlns:ooo="http://xml.openoffice.org/svg/export"><sodipodi:namedview
   id="namedview22"
   pagecolor="#ffffff"
   bordercolor="#000000"
   borderopacity="0.25"
   inkscape:showpageshadow="2"
   inkscape:pageopacity="0.0"
   inkscape:pagecheckerboard="0"
   inkscape:deskcolor="#d1d1d1"
   inkscape:document-units="mm"
   showgrid="false"
   inkscape:zoom="3.0876875"
   inkscape:cx="188.81444"
   inkscape:cy="188.97638"
   inkscape:window-width="2560"
   inkscape:window-height="1369"
   inkscape:window-x="-8"
   inkscape:window-y="-8"
   inkscape:window-maximized="1"
   inkscape:current-layer="svg22" />
 <defs
   class="ClipPathGroup"
   id="defs2">
  
  <clipPath
   id="presentation_clip_path_shrink"
   clipPathUnits="userSpaceOnUse">
   <rect
   x="10"
   y="10"
   width="9980"
   height="9980"
   id="rect2" />
  </clipPath>
 
  
 
   
  
    
   
     
    
      
      
      
      
      
      
      
     
       
      
       
      
       
      
       
      
       
      
       
      
       
      
        
        
       
        
        
       
        
        
       
        
        
       
        
        
       
        
        
       
        
        
       </defs>
 <defs
   class="TextShapeIndex"
   id="defs3">
  <g
   ooo:slide="id1"
   ooo:id-list="id3 id4 id5 id6 id7 id8 id9"
   id="g2" />
 </defs>
 <defs
   class="EmbeddedBulletChars"
   id="defs12">
  <g
   id="bullet-char-template-57356"
   transform="scale(0.00048828125,-0.00048828125)">
   <path
   d="M 580,1141 L 1163,571 580,0 -4,571 580,1141 Z"
   id="path3" />
  </g>
  <g
   id="bullet-char-template-57354"
   transform="scale(0.00048828125,-0.00048828125)">
   <path
   d="M 8,1128 L 1137,1128 1137,0 8,0 8,1128 Z"
   id="path4" />
  </g>
  <g
   id="bullet-char-template-10146"
   transform="scale(0.00048828125,-0.00048828125)">
   <path
   d="M 174,0 L 602,739 174,1481 1456,739 174,0 Z M 1358,739 L 309,1346 659,739 1358,739 Z"
   id="path5" />
  </g>
  <g
   id="bullet-char-template-10132"
   transform="scale(0.00048828125,-0.00048828125)">
   <path
   d="M 2015,739 L 1276,0 717,0 1260,543 174,543 174,936 1260,936 717,1481 1274,1481 2015,739 Z"
   id="path6" />
  </g>
  <g
   id="bullet-char-template-10007"
   transform="scale(0.00048828125,-0.00048828125)">
   <path
   d="M 0,-2 C -7,14 -16,27 -25,37 L 356,567 C 262,823 215,952 215,954 215,979 228,992 255,992 264,992 276,990 289,987 310,991 331,999 354,1012 L 381,999 492,748 772,1049 836,1024 860,1049 C 881,1039 901,1025 922,1006 886,937 835,863 770,784 769,783 710,716 594,584 L 774,223 C 774,196 753,168 711,139 L 727,119 C 717,90 699,76 672,76 641,76 570,178 457,381 L 164,-76 C 142,-110 111,-127 72,-127 30,-127 9,-110 8,-76 1,-67 -2,-52 -2,-32 -2,-23 -1,-13 0,-2 Z"
   id="path7" />
  </g>
  <g
   id="bullet-char-template-10004"
   transform="scale(0.00048828125,-0.00048828125)">
   <path
   d="M 285,-33 C 182,-33 111,30 74,156 52,228 41,333 41,471 41,549 55,616 82,672 116,743 169,778 240,778 293,778 328,747 346,684 L 369,508 C 377,444 397,411 428,410 L 1163,1116 C 1174,1127 1196,1133 1229,1133 1271,1133 1292,1118 1292,1087 L 1292,965 C 1292,929 1282,901 1262,881 L 442,47 C 390,-6 338,-33 285,-33 Z"
   id="path8" />
  </g>
  <g
   id="bullet-char-template-9679"
   transform="scale(0.00048828125,-0.00048828125)">
   <path
   d="M 813,0 C 632,0 489,54 383,161 276,268 223,411 223,592 223,773 276,916 383,1023 489,1130 632,1184 813,1184 992,1184 1136,1130 1245,1023 1353,916 1407,772 1407,592 1407,412 1353,268 1245,161 1136,54 992,0 813,0 Z"
   id="path9" />
  </g>
  <g
   id="bullet-char-template-8226"
   transform="scale(0.00048828125,-0.00048828125)">
   <path
   d="M 346,457 C 273,457 209,483 155,535 101,586 74,649 74,723 74,796 101,859 155,911 209,963 273,989 346,989 419,989 480,963 531,910 582,859 608,796 608,723 608,648 583,586 532,535 482,483 420,457 346,457 Z"
   id="path10" />
  </g>
  <g
   id="bullet-char-template-8211"
   transform="scale(0.00048828125,-0.00048828125)">
   <path
   d="M -4,459 L 1135,459 1135,606 -4,606 -4,459 Z"
   id="path11" />
  </g>
  <g
   id="bullet-char-template-61548"
   transform="scale(0.00048828125,-0.00048828125)">
   <path
   d="M 173,740 C 173,903 231,1043 346,1159 462,1274 601,1332 765,1332 928,1332 1067,1274 1183,1159 1299,1043 1357,903 1357,740 1357,577 1299,437 1183,322 1067,206 928,148 765,148 601,148 462,206 346,322 231,437 173,577 173,740 Z"
   id="path12" />
  </g>
 </defs>
 
 <path
   id="path13"
   d="M 7212.6346 2016.001 C 7199.6715 2015.9277 7186.142 2016.2328 7172.017 2016.9828 C 7151.2038 2018.1748 7130.6701 2020.1194 7110.367 2022.4088 C 6724.8711 2040.2319 5201.8937 2138.4223 4549.0246 2206.9971 C 3935.1125 2270.5966 3388.8574 2329.5252 2991.8587 2394.7892 C 2942.1246 2399.7486 2894.1819 2408.0592 2849.5935 2419.6456 C 2847.1949 2420.0945 2844.3813 2420.5395 2841.997 2420.9892 C 2838.2346 2421.7016 2834.6234 2423.2482 2830.99 2424.7099 C 2699.7252 2462.4494 2602.1714 2530.5049 2588.0074 2631.0022 C 2565.0074 2780.0022 2587.9985 3026.015 2690.9985 3140.015 C 2732.9985 3186.39 2770.6067 3207.4952 2810.8362 3208.2796 C 2811.9256 3208.2999 2813.0371 3208.2662 2814.1435 3208.2279 C 2830.1184 3208.0995 2846.5615 3204.8105 2863.8562 3198.6678 C 3113.647 3141.5014 4106.7208 2986.6678 4656.9767 2927.9866 C 5008.4213 2890.5074 5742.6104 2858.8494 6282.5622 2842.6688 C 5738.5355 3616.6976 4867.5247 4857.9472 4470.9932 5416.0001 C 3966.1227 6126.5225 2814.9551 8032.8725 2607.4894 8431.475 C 2589.887 8455.7786 2578.2193 8482.9042 2574.0031 8513.0204 C 2551.0031 8662.0204 2574.0123 8907.9997 2676.0123 9020.9997 C 2720.9216 9070.0758 2760.4699 9090.8186 2803.3948 9089.1609 C 2805.9968 9089.2513 2808.7452 9088.8477 2811.4563 9088.5925 C 2815.1471 9088.2152 2818.8654 9087.7354 2822.6184 9087.0422 C 2822.7363 9087.0204 2822.8622 9087.0126 2822.9801 9086.9905 C 3019.9801 9036.9905 4710.985 8785.9789 5282.985 8725.9789 C 5854.985 8664.9789 6696.0095 8589.9847 6956.0095 8588.9847 C 6957.5165 8589.0684 6959.1883 8588.3979 6960.7637 8588.1579 C 7011.0015 8586.7257 7065.8958 8554.5863 7138.9957 8500.9798 C 7271.9957 8402.9798 7359.0008 8226.0211 7395.0008 8120.0211 C 7488.0008 7850.0211 7410.024 7758.9803 7183.024 7771.9803 C 7177.8071 7772.2573 7172.661 7772.7708 7167.4694 7773.1172 C 7166.9534 7773.146 7166.546 7772.9716 7166.0225 7773.0139 C 7164.3101 7773.1519 7161.0231 7773.5379 7159.2529 7773.6857 C 7137.8748 7775.2678 7116.7364 7777.3696 7096.0009 7780.1452 C 6755.3572 7815.0853 5838.7689 7946.4149 5230.0166 8010.002 C 4788.4787 8056.2648 4042.525 8136.9517 3480.1493 8207.6126 C 3896.5637 7460.1362 4626.0371 6177.7591 5023.9827 5604.9808 C 5564.8894 4826.4332 6990.2916 2940.4555 7233.6153 2642.7327 C 7307.9241 2550.1307 7358.3981 2440.5498 7383.0118 2366.0054 C 7470.1993 2112.8804 7407.0817 2017.0996 7212.6346 2016.001 z " />
   
  
</svg>
