<?xml version="1.0" encoding="UTF-8" standalone="no"?>
<svg
   version="1.2"
   width="100mm"
   height="100mm"
   viewBox="0 0 10000 10000"
   preserveAspectRatio="xMidYMid"
   fill-rule="evenodd"
   stroke-width="28.222"
   stroke-linejoin="round"
   xml:space="preserve"
   id="svg24"
   sodipodi:docname="gobo-caps-004D.svg"
   inkscape:version="1.4 (86a8ad7, 2024-10-11)"
   xmlns:inkscape="http://www.inkscape.org/namespaces/inkscape"
   xmlns:sodipodi="http://sodipodi.sourceforge.net/DTD/sodipodi-0.dtd"
   xmlns="http://www.w3.org/2000/svg"
   xmlns:svg="http://www.w3.org/2000/svg"
   xmlns:ooo="http://xml.openoffice.org/svg/export"><sodipodi:namedview
   id="namedview24"
   pagecolor="#ffffff"
   bordercolor="#000000"
   borderopacity="0.25"
   inkscape:showpageshadow="2"
   inkscape:pageopacity="0.0"
   inkscape:pagecheckerboard="0"
   inkscape:deskcolor="#d1d1d1"
   inkscape:document-units="mm"
   showgrid="false"
   inkscape:zoom="3.0876875"
   inkscape:cx="188.81444"
   inkscape:cy="188.97638"
   inkscape:window-width="2560"
   inkscape:window-height="1369"
   inkscape:window-x="-8"
   inkscape:window-y="-8"
   inkscape:window-maximized="1"
   inkscape:current-layer="svg24" />
 <defs
   class="ClipPathGroup"
   id="defs2">
  
  <clipPath
   id="presentation_clip_path_shrink"
   clipPathUnits="userSpaceOnUse">
   <rect
   x="10"
   y="10"
   width="9980"
   height="9980"
   id="rect2" />
  </clipPath>
 
  
 
   
  
    
   
     
    
      
      
      
      
      
      
      
      
      
     
       
      
       
      
       
      
       
      
       
      
       
      
       
      
       
      
       
      
        
        
       
        
        
       
        
        
       
        
        
       
        
        
       
        
        
       
        
        
       
        
        
       
        
        
       </defs>
 <defs
   class="TextShapeIndex"
   id="defs3">
  <g
   ooo:slide="id1"
   ooo:id-list="id3 id4 id5 id6 id7 id8 id9 id10 id11"
   id="g2" />
 </defs>
 <defs
   class="EmbeddedBulletChars"
   id="defs12">
  <g
   id="bullet-char-template-57356"
   transform="scale(0.00048828125,-0.00048828125)">
   <path
   d="M 580,1141 L 1163,571 580,0 -4,571 580,1141 Z"
   id="path3" />
  </g>
  <g
   id="bullet-char-template-57354"
   transform="scale(0.00048828125,-0.00048828125)">
   <path
   d="M 8,1128 L 1137,1128 1137,0 8,0 8,1128 Z"
   id="path4" />
  </g>
  <g
   id="bullet-char-template-10146"
   transform="scale(0.00048828125,-0.00048828125)">
   <path
   d="M 174,0 L 602,739 174,1481 1456,739 174,0 Z M 1358,739 L 309,1346 659,739 1358,739 Z"
   id="path5" />
  </g>
  <g
   id="bullet-char-template-10132"
   transform="scale(0.00048828125,-0.00048828125)">
   <path
   d="M 2015,739 L 1276,0 717,0 1260,543 174,543 174,936 1260,936 717,1481 1274,1481 2015,739 Z"
   id="path6" />
  </g>
  <g
   id="bullet-char-template-10007"
   transform="scale(0.00048828125,-0.00048828125)">
   <path
   d="M 0,-2 C -7,14 -16,27 -25,37 L 356,567 C 262,823 215,952 215,954 215,979 228,992 255,992 264,992 276,990 289,987 310,991 331,999 354,1012 L 381,999 492,748 772,1049 836,1024 860,1049 C 881,1039 901,1025 922,1006 886,937 835,863 770,784 769,783 710,716 594,584 L 774,223 C 774,196 753,168 711,139 L 727,119 C 717,90 699,76 672,76 641,76 570,178 457,381 L 164,-76 C 142,-110 111,-127 72,-127 30,-127 9,-110 8,-76 1,-67 -2,-52 -2,-32 -2,-23 -1,-13 0,-2 Z"
   id="path7" />
  </g>
  <g
   id="bullet-char-template-10004"
   transform="scale(0.00048828125,-0.00048828125)">
   <path
   d="M 285,-33 C 182,-33 111,30 74,156 52,228 41,333 41,471 41,549 55,616 82,672 116,743 169,778 240,778 293,778 328,747 346,684 L 369,508 C 377,444 397,411 428,410 L 1163,1116 C 1174,1127 1196,1133 1229,1133 1271,1133 1292,1118 1292,1087 L 1292,965 C 1292,929 1282,901 1262,881 L 442,47 C 390,-6 338,-33 285,-33 Z"
   id="path8" />
  </g>
  <g
   id="bullet-char-template-9679"
   transform="scale(0.00048828125,-0.00048828125)">
   <path
   d="M 813,0 C 632,0 489,54 383,161 276,268 223,411 223,592 223,773 276,916 383,1023 489,1130 632,1184 813,1184 992,1184 1136,1130 1245,1023 1353,916 1407,772 1407,592 1407,412 1353,268 1245,161 1136,54 992,0 813,0 Z"
   id="path9" />
  </g>
  <g
   id="bullet-char-template-8226"
   transform="scale(0.00048828125,-0.00048828125)">
   <path
   d="M 346,457 C 273,457 209,483 155,535 101,586 74,649 74,723 74,796 101,859 155,911 209,963 273,989 346,989 419,989 480,963 531,910 582,859 608,796 608,723 608,648 583,586 532,535 482,483 420,457 346,457 Z"
   id="path10" />
  </g>
  <g
   id="bullet-char-template-8211"
   transform="scale(0.00048828125,-0.00048828125)">
   <path
   d="M -4,459 L 1135,459 1135,606 -4,606 -4,459 Z"
   id="path11" />
  </g>
  <g
   id="bullet-char-template-61548"
   transform="scale(0.00048828125,-0.00048828125)">
   <path
   d="M 173,740 C 173,903 231,1043 346,1159 462,1274 601,1332 765,1332 928,1332 1067,1274 1183,1159 1299,1043 1357,903 1357,740 1357,577 1299,437 1183,322 1067,206 928,148 765,148 601,148 462,206 346,322 231,437 173,577 173,740 Z"
   id="path12" />
  </g>
 </defs>
 
 <path
   id="path13"
   d="M 6856.9974 2021.9954 C 6843.9315 2021.9222 6830.268 2022.2273 6816.018 2022.9773 C 6621.8885 2034.144 6444.0913 2092.5949 6384.4681 2203.2764 C 6384.0482 2203.8953 6383.3777 2204.3152 6383.0212 2204.9817 C 6229.0212 2507.9817 5700.0155 4249.018 5418.0155 4911.018 C 5297.5113 5192.9043 5154.1609 5616.3143 5018.7634 6041.44 C 4944.8214 5663.5349 4866.233 5279.115 4786.0127 4977.0088 C 4596.0127 4268.0088 4272.0214 2686.9805 4179.0214 2392.9805 C 4175.1042 2380.6393 4169.7842 2370.2178 4163.9319 2360.6311 C 4137.5448 2281.9776 4055.8435 2253.9772 3923.0163 2260.9989 C 3699.3236 2272.8241 3498.0797 2348.8031 3473.1213 2493.5945 C 3322.8308 2896.5693 2822.5765 4685.4825 2639.9939 5296.9893 C 2452.6169 5928.8883 2024.2308 8182.8722 1926.3424 8579.993 C 1924.9965 8585.5637 1923.7936 8591.2071 1922.9834 8596.9946 C 1899.9834 8745.9946 1922.9745 8992.0074 2025.9745 9106.0074 C 2121.9745 9212.0074 2195.0051 9185.9905 2329.0051 9086.9905 C 2463.0051 8987.9905 2549.992 8811.9802 2585.992 8705.9802 C 2591.9498 8688.6833 2597.1933 8672.1667 2601.7533 8656.3191 C 2605.1482 8647.7309 2608.0619 8638.7103 2610.0215 8628.9823 C 2610.5265 8626.4665 2611.6554 8618.904 2612.192 8616.1148 C 2617.4777 8592.9853 2621.0467 8571.5411 2622.889 8551.8294 C 2695.2384 8122.6044 2930.0602 6333.6608 3158.9803 5575.0085 C 3296.6404 5106.0309 3535.6001 4338.4807 3747.2131 3694.7099 C 3895.6376 4251.3405 4070.7668 4960.3323 4202.0174 5535.9928 C 4429.6358 6528.9659 4505.1106 7407.8306 4611.088 7773.8924 C 4611.7032 7776.2859 4612.3617 7778.6463 4613 7781.0237 C 4630.7839 7847.2539 4657.5036 7907.1042 4695.0105 7949.0238 C 4792.0105 8055.0238 4864.023 8029.0069 4999.023 7930.0069 C 5133.023 7832.0069 5221.0099 7654.9784 5256.0099 7549.9784 C 5256.1242 7549.6453 5256.2062 7549.329 5256.3199 7548.9965 C 5259.0654 7543.1787 5261.8488 7537.3843 5264.0197 7531.0131 C 5354.0197 7262.0131 5579.0127 6027.0154 5888.0127 5250.0154 C 6071.4447 4791.1405 6337.4178 4058.008 6565.5423 3457.7734 C 6666.5628 3952.3141 6788.1261 4552.9444 6902.0076 5125.992 C 7112.2334 6179.9876 7301.0788 7711.7862 7381.2548 8168.0285 C 7393.9517 8277.1759 7426.3971 8386.0625 7485.0211 8451.0086 C 7582.0211 8557.0086 7654.0154 8530.9917 7790.0154 8431.9917 C 7923.0154 8334.9917 8010.0204 8158.0149 8046.0204 8052.0149 C 8072.936 7973.8729 8085.4309 7910.8101 8084.2093 7860.8121 C 8084.3353 7848.4089 8083.7928 7835.8408 8081.9872 7822.985 C 8030.9872 7467.985 7677.0033 5629.9829 7523.0033 4724.9829 C 7370.0033 3820.9829 7216.0104 2692.0035 7067.0104 2144.0035 C 7063.5168 2131.2992 7058.3974 2120.5134 7052.5927 2110.6205 C 7025.4032 2049.1566 6959.5959 2022.5706 6856.9974 2021.9954 z " />
   
  
</svg>
