<?xml version="1.0" encoding="UTF-8" standalone="no"?>
<svg
   version="1.2"
   width="100mm"
   height="100mm"
   viewBox="0 0 10000 10000"
   preserveAspectRatio="xMidYMid"
   fill-rule="evenodd"
   stroke-width="28.222"
   stroke-linejoin="round"
   xml:space="preserve"
   id="svg20"
   sodipodi:docname="gobo-caps-0033.svg"
   inkscape:version="1.4 (86a8ad7, 2024-10-11)"
   xmlns:inkscape="http://www.inkscape.org/namespaces/inkscape"
   xmlns:sodipodi="http://sodipodi.sourceforge.net/DTD/sodipodi-0.dtd"
   xmlns="http://www.w3.org/2000/svg"
   xmlns:svg="http://www.w3.org/2000/svg"
   xmlns:ooo="http://xml.openoffice.org/svg/export"><sodipodi:namedview
   id="namedview20"
   pagecolor="#ffffff"
   bordercolor="#000000"
   borderopacity="0.25"
   inkscape:showpageshadow="2"
   inkscape:pageopacity="0.0"
   inkscape:pagecheckerboard="0"
   inkscape:deskcolor="#d1d1d1"
   inkscape:document-units="mm"
   showgrid="false"
   inkscape:zoom="3.0876875"
   inkscape:cx="188.81444"
   inkscape:cy="188.97638"
   inkscape:window-width="2560"
   inkscape:window-height="1369"
   inkscape:window-x="-8"
   inkscape:window-y="-8"
   inkscape:window-maximized="1"
   inkscape:current-layer="svg20" />
 <defs
   class="ClipPathGroup"
   id="defs2">
  
  <clipPath
   id="presentation_clip_path_shrink"
   clipPathUnits="userSpaceOnUse">
   <rect
   x="10"
   y="10"
   width="9980"
   height="9980"
   id="rect2" />
  </clipPath>
 
  
 
   
  
    
   
     
    
      
      
      
      
      
     
       
      
       
      
       
      
       
      
       
      
        
        
       
        
        
       
        
        
       
        
        
       
        
        
       </defs>
 <defs
   class="TextShapeIndex"
   id="defs3">
  <g
   ooo:slide="id1"
   ooo:id-list="id3 id4 id5 id6 id7"
   id="g2" />
 </defs>
 <defs
   class="EmbeddedBulletChars"
   id="defs12">
  <g
   id="bullet-char-template-57356"
   transform="scale(0.00048828125,-0.00048828125)">
   <path
   d="M 580,1141 L 1163,571 580,0 -4,571 580,1141 Z"
   id="path3" />
  </g>
  <g
   id="bullet-char-template-57354"
   transform="scale(0.00048828125,-0.00048828125)">
   <path
   d="M 8,1128 L 1137,1128 1137,0 8,0 8,1128 Z"
   id="path4" />
  </g>
  <g
   id="bullet-char-template-10146"
   transform="scale(0.00048828125,-0.00048828125)">
   <path
   d="M 174,0 L 602,739 174,1481 1456,739 174,0 Z M 1358,739 L 309,1346 659,739 1358,739 Z"
   id="path5" />
  </g>
  <g
   id="bullet-char-template-10132"
   transform="scale(0.00048828125,-0.00048828125)">
   <path
   d="M 2015,739 L 1276,0 717,0 1260,543 174,543 174,936 1260,936 717,1481 1274,1481 2015,739 Z"
   id="path6" />
  </g>
  <g
   id="bullet-char-template-10007"
   transform="scale(0.00048828125,-0.00048828125)">
   <path
   d="M 0,-2 C -7,14 -16,27 -25,37 L 356,567 C 262,823 215,952 215,954 215,979 228,992 255,992 264,992 276,990 289,987 310,991 331,999 354,1012 L 381,999 492,748 772,1049 836,1024 860,1049 C 881,1039 901,1025 922,1006 886,937 835,863 770,784 769,783 710,716 594,584 L 774,223 C 774,196 753,168 711,139 L 727,119 C 717,90 699,76 672,76 641,76 570,178 457,381 L 164,-76 C 142,-110 111,-127 72,-127 30,-127 9,-110 8,-76 1,-67 -2,-52 -2,-32 -2,-23 -1,-13 0,-2 Z"
   id="path7" />
  </g>
  <g
   id="bullet-char-template-10004"
   transform="scale(0.00048828125,-0.00048828125)">
   <path
   d="M 285,-33 C 182,-33 111,30 74,156 52,228 41,333 41,471 41,549 55,616 82,672 116,743 169,778 240,778 293,778 328,747 346,684 L 369,508 C 377,444 397,411 428,410 L 1163,1116 C 1174,1127 1196,1133 1229,1133 1271,1133 1292,1118 1292,1087 L 1292,965 C 1292,929 1282,901 1262,881 L 442,47 C 390,-6 338,-33 285,-33 Z"
   id="path8" />
  </g>
  <g
   id="bullet-char-template-9679"
   transform="scale(0.00048828125,-0.00048828125)">
   <path
   d="M 813,0 C 632,0 489,54 383,161 276,268 223,411 223,592 223,773 276,916 383,1023 489,1130 632,1184 813,1184 992,1184 1136,1130 1245,1023 1353,916 1407,772 1407,592 1407,412 1353,268 1245,161 1136,54 992,0 813,0 Z"
   id="path9" />
  </g>
  <g
   id="bullet-char-template-8226"
   transform="scale(0.00048828125,-0.00048828125)">
   <path
   d="M 346,457 C 273,457 209,483 155,535 101,586 74,649 74,723 74,796 101,859 155,911 209,963 273,989 346,989 419,989 480,963 531,910 582,859 608,796 608,723 608,648 583,586 532,535 482,483 420,457 346,457 Z"
   id="path10" />
  </g>
  <g
   id="bullet-char-template-8211"
   transform="scale(0.00048828125,-0.00048828125)">
   <path
   d="M -4,459 L 1135,459 1135,606 -4,606 -4,459 Z"
   id="path11" />
  </g>
  <g
   id="bullet-char-template-61548"
   transform="scale(0.00048828125,-0.00048828125)">
   <path
   d="M 173,740 C 173,903 231,1043 346,1159 462,1274 601,1332 765,1332 928,1332 1067,1274 1183,1159 1299,1043 1357,903 1357,740 1357,577 1299,437 1183,322 1067,206 928,148 765,148 601,148 462,206 346,322 231,437 173,577 173,740 Z"
   id="path12" />
  </g>
 </defs>
 
 <path
   id="path13"
   d="M 5051.6296 3154.2261 C 4600.4435 3164.0702 4071.5677 3336.0904 3635.7987 3558.0774 C 3628.8218 3561.3821 3621.9916 3564.7625 3615.3865 3568.3093 C 3614.266 3568.8879 3613.0951 3569.4353 3611.9759 3570.0146 C 3602.6701 3574.1364 3594.2467 3579.6016 3586.1893 3585.6726 C 3529.3103 3622.9725 3491.4113 3671.2463 3482.9915 3730.9867 C 3459.9915 3879.9867 3482.9826 4125.9996 3585.9826 4239.9996 C 3658.0114 4319.5313 3717.1215 4324.7319 3798.7345 4280.5656 C 3800.5077 4280.2982 3802.2202 4280.3223 3804.0055 4279.9971 C 4416.0055 3859.9971 5055.0235 3750.9792 5372.0235 4149.9792 C 5598.0824 4434.3007 5122.4021 4696.5042 4542.7718 4871.7439 C 4351.6128 4901.4989 4162.9501 4948.6937 3983.4778 5012.4589 C 3855.0456 5050.0013 3759.9867 5117.2648 3746.0245 5216.9942 C 3724.0245 5365.9942 3747.0157 5612.007 3849.0157 5726.007 C 3893.98 5775.6551 3933.8765 5796.3219 3977.4833 5794.1166 C 3982.1237 5795.1834 3986.6894 5795.4989 3991.0225 5794.0132 C 3994.4246 5792.939 3997.8512 5791.8336 4001.2544 5790.7576 C 4008.6617 5789.089 4016.2129 5786.8015 4023.9404 5783.988 C 4024.9813 5783.9298 4025.941 5784.065 4026.9893 5783.988 C 4038.6594 5779.4507 4050.1047 5775.675 4061.7159 5771.3273 C 4136.9254 5747.3352 4212.0353 5722.6516 4287.0768 5697.43 C 5366.9026 5394.506 6138.1411 5917.7376 6127.0161 6524.9763 C 6115.0161 7179.9763 5405.9775 7241.9955 5066.9775 7269.9955 C 4729.8251 7298.8374 4252.3546 7194.013 3936.2972 6908.5705 C 3934.6077 6907.0741 3932.9119 6905.5957 3931.1295 6904.178 C 3931.0731 6904.1332 3931.031 6904.0677 3930.9745 6904.023 C 3930.9599 6904.0159 3930.9374 6904.0301 3930.9228 6904.023 C 3889.1984 6870.9687 3822.2232 6859.2235 3730.9867 6864.0254 C 3504.9867 6877.0254 3301.0065 6953.9772 3280.0065 7102.9772 C 3258.0065 7252.9772 3280.9976 7498.9901 3382.9976 7611.9901 C 3411.0571 7642.6531 3437.0387 7662.1933 3463.0444 7672.1931 C 3766.0521 7872.6829 4301.0241 8093.8492 5162.9923 7984.0087 C 6089.9923 7864.0087 6791.0004 7247.9847 6723.0004 6048.9847 C 6689.1856 5443.8513 6268.2249 5079.5236 5711.641 4923.4204 C 5942.9165 4671.3921 6073.6281 4354.0148 6039.0112 3938.9843 C 5989.0737 3347.1718 5572.224 3142.8675 5051.6296 3154.2261 z " />
   
  
</svg>
