<?xml version="1.0" encoding="UTF-8" standalone="no"?>
<svg
   version="1.2"
   width="100mm"
   height="100mm"
   viewBox="0 0 10000 10000"
   preserveAspectRatio="xMidYMid"
   fill-rule="evenodd"
   stroke-width="28.222"
   stroke-linejoin="round"
   xml:space="preserve"
   id="svg21"
   sodipodi:docname="gobo-caps-0024.svg"
   inkscape:version="1.4 (86a8ad7, 2024-10-11)"
   xmlns:inkscape="http://www.inkscape.org/namespaces/inkscape"
   xmlns:sodipodi="http://sodipodi.sourceforge.net/DTD/sodipodi-0.dtd"
   xmlns="http://www.w3.org/2000/svg"
   xmlns:svg="http://www.w3.org/2000/svg"
   xmlns:ooo="http://xml.openoffice.org/svg/export"><sodipodi:namedview
   id="namedview21"
   pagecolor="#ffffff"
   bordercolor="#000000"
   borderopacity="0.25"
   inkscape:showpageshadow="2"
   inkscape:pageopacity="0.0"
   inkscape:pagecheckerboard="0"
   inkscape:deskcolor="#d1d1d1"
   inkscape:document-units="mm"
   showgrid="false"
   inkscape:zoom="3.0876875"
   inkscape:cx="188.81444"
   inkscape:cy="188.97638"
   inkscape:window-width="2560"
   inkscape:window-height="1369"
   inkscape:window-x="-8"
   inkscape:window-y="-8"
   inkscape:window-maximized="1"
   inkscape:current-layer="svg21" />
 <defs
   class="ClipPathGroup"
   id="defs2">
  
  <clipPath
   id="presentation_clip_path_shrink"
   clipPathUnits="userSpaceOnUse">
   <rect
   x="10"
   y="10"
   width="9980"
   height="9980"
   id="rect2" />
  </clipPath>
 
  
 
   
  
    
   
     
    
      
      
      
      
      
      
     
       
      
       
      
       
      
       
      
       
      
       
      
        
        
       
        
        
       
        
        
       
        
        
       
        
        
       
        
        
       </defs>
 <defs
   class="TextShapeIndex"
   id="defs3">
  <g
   ooo:slide="id1"
   ooo:id-list="id3 id4 id5 id6 id7 id8"
   id="g2" />
 </defs>
 <defs
   class="EmbeddedBulletChars"
   id="defs12">
  <g
   id="bullet-char-template-57356"
   transform="scale(0.00048828125,-0.00048828125)">
   <path
   d="M 580,1141 L 1163,571 580,0 -4,571 580,1141 Z"
   id="path3" />
  </g>
  <g
   id="bullet-char-template-57354"
   transform="scale(0.00048828125,-0.00048828125)">
   <path
   d="M 8,1128 L 1137,1128 1137,0 8,0 8,1128 Z"
   id="path4" />
  </g>
  <g
   id="bullet-char-template-10146"
   transform="scale(0.00048828125,-0.00048828125)">
   <path
   d="M 174,0 L 602,739 174,1481 1456,739 174,0 Z M 1358,739 L 309,1346 659,739 1358,739 Z"
   id="path5" />
  </g>
  <g
   id="bullet-char-template-10132"
   transform="scale(0.00048828125,-0.00048828125)">
   <path
   d="M 2015,739 L 1276,0 717,0 1260,543 174,543 174,936 1260,936 717,1481 1274,1481 2015,739 Z"
   id="path6" />
  </g>
  <g
   id="bullet-char-template-10007"
   transform="scale(0.00048828125,-0.00048828125)">
   <path
   d="M 0,-2 C -7,14 -16,27 -25,37 L 356,567 C 262,823 215,952 215,954 215,979 228,992 255,992 264,992 276,990 289,987 310,991 331,999 354,1012 L 381,999 492,748 772,1049 836,1024 860,1049 C 881,1039 901,1025 922,1006 886,937 835,863 770,784 769,783 710,716 594,584 L 774,223 C 774,196 753,168 711,139 L 727,119 C 717,90 699,76 672,76 641,76 570,178 457,381 L 164,-76 C 142,-110 111,-127 72,-127 30,-127 9,-110 8,-76 1,-67 -2,-52 -2,-32 -2,-23 -1,-13 0,-2 Z"
   id="path7" />
  </g>
  <g
   id="bullet-char-template-10004"
   transform="scale(0.00048828125,-0.00048828125)">
   <path
   d="M 285,-33 C 182,-33 111,30 74,156 52,228 41,333 41,471 41,549 55,616 82,672 116,743 169,778 240,778 293,778 328,747 346,684 L 369,508 C 377,444 397,411 428,410 L 1163,1116 C 1174,1127 1196,1133 1229,1133 1271,1133 1292,1118 1292,1087 L 1292,965 C 1292,929 1282,901 1262,881 L 442,47 C 390,-6 338,-33 285,-33 Z"
   id="path8" />
  </g>
  <g
   id="bullet-char-template-9679"
   transform="scale(0.00048828125,-0.00048828125)">
   <path
   d="M 813,0 C 632,0 489,54 383,161 276,268 223,411 223,592 223,773 276,916 383,1023 489,1130 632,1184 813,1184 992,1184 1136,1130 1245,1023 1353,916 1407,772 1407,592 1407,412 1353,268 1245,161 1136,54 992,0 813,0 Z"
   id="path9" />
  </g>
  <g
   id="bullet-char-template-8226"
   transform="scale(0.00048828125,-0.00048828125)">
   <path
   d="M 346,457 C 273,457 209,483 155,535 101,586 74,649 74,723 74,796 101,859 155,911 209,963 273,989 346,989 419,989 480,963 531,910 582,859 608,796 608,723 608,648 583,586 532,535 482,483 420,457 346,457 Z"
   id="path10" />
  </g>
  <g
   id="bullet-char-template-8211"
   transform="scale(0.00048828125,-0.00048828125)">
   <path
   d="M -4,459 L 1135,459 1135,606 -4,606 -4,459 Z"
   id="path11" />
  </g>
  <g
   id="bullet-char-template-61548"
   transform="scale(0.00048828125,-0.00048828125)">
   <path
   d="M 173,740 C 173,903 231,1043 346,1159 462,1274 601,1332 765,1332 928,1332 1067,1274 1183,1159 1299,1043 1357,903 1357,740 1357,577 1299,437 1183,322 1067,206 928,148 765,148 601,148 462,206 346,322 231,437 173,577 173,740 Z"
   id="path12" />
  </g>
 </defs>
 
 <path
   id="path13"
   d="M 5191.0009 2233.9722 C 5177.9282 2233.8987 5164.2715 2234.2557 5150.0215 2235.0057 C 4924.0215 2248.0057 4719.9896 2325.991 4698.9896 2474.991 C 4697.2956 2486.4644 4696.0004 2498.6971 4694.8555 2511.2162 C 4694.128 2513.1452 4693.1919 2515.0763 4692.9952 2517.004 C 4685.8585 2618.9992 4681.6473 2897.8046 4678.6808 3230.0354 C 4116.005 3437.2465 3598.3715 3879.219 3386.9767 4590.9859 C 3088.9767 5591.9859 3777.9781 6110.9829 4337.9781 6162.9829 C 4451.2052 6173.4969 4570.8847 6170.1873 4692.6851 6163.138 C 4703.2065 6485.0669 4718.0881 6865.9384 4734.233 7237.1293 C 4489.2589 7202.5891 4244.7576 7100.0924 4108.018 6825.9916 C 4107.0044 6823.9885 4105.5626 6822.6864 4104.4006 6820.9273 C 4070.1556 6760.1502 3992.0958 6738.2237 3872.9935 6745.0146 C 3646.9935 6758.0146 3443.9952 6835.0181 3422.9952 6984.0181 C 3399.9952 7134.0181 3423.0044 7378.9793 3525.0044 7492.9793 C 3537.5514 7506.6903 3549.6367 7518.1808 3561.5397 7527.6025 C 3873.7933 7855.4743 4308.6785 7995.887 4769.838 7999.3566 C 4782.8554 8258.4798 4794.1039 8459.5619 4800.0171 8522.9939 C 4800.3193 8526.1556 4801.3142 8528.8554 4802.3425 8531.5722 C 4812.9745 8649.0788 4845.8075 8770.3808 4909.0026 8841.0107 C 5005.0026 8947.0107 5078.0151 8920.9937 5213.0151 8821.9937 C 5347.0151 8722.9937 5433.0201 8546.9834 5469.0201 8440.9834 C 5504.8578 8336.5533 5515.1618 8259.1335 5501.4729 8203.9953 C 5498.6841 8163.7726 5488.0715 8048.5152 5474.8596 7906.9592 C 6106.5677 7738.1578 6701.6728 7333.904 6683.9847 6483.0151 C 6666.2133 5628.1141 6015.9111 5324.5541 5302.622 5385.4077 C 5305.5536 5010.8424 5314.2883 4457.8763 5330.2172 3871.5466 C 5629.1515 3931.2255 5869.8892 4098.8289 5925.8398 4324.5939 C 5940.2667 4426.7794 5972.116 4526.1792 6027.0223 4587.0068 C 6124.0223 4693.0068 6195.983 4666.9899 6330.983 4567.9899 C 6464.983 4470.9899 6552.0216 4292.9795 6588.0216 4186.9795 C 6623.9539 4081.9167 6633.9442 4004.132 6619.3892 3948.9062 C 6619.7447 3942.2053 6619.4693 3935.7861 6617.9939 3929.9926 C 6501.9939 3480.9926 6148.0109 3060.0258 5367.0109 3091.0258 C 5363.4408 3091.1627 5359.7854 3091.6456 5356.2105 3091.8009 C 5369.249 2783.035 5383.9152 2538.4045 5399.9804 2437.0089 C 5400.2638 2434.3932 5399.8009 2432.0261 5399.412 2429.6191 C 5412.4807 2290.7221 5340.3956 2234.8119 5191.0009 2233.9722 z M 4674.65 3917.797 C 4673.2888 4483.682 4674.9594 5035.0118 4677.6473 5406.1816 C 4104.9682 5324.1726 3690.2326 4926.9663 4128.0167 4324.0254 C 4276.0167 4120.5588 4469.4957 3989.9926 4674.65 3917.797 z M 5322.3624 6142.5191 C 5582.6151 6161.4163 5819.2446 6243.4185 5987.0247 6495.9859 C 6285.364 6945.8879 5791.8033 7145.9518 5411.2459 7216.7687 C 5377.3108 6844.2469 5344.0891 6457.6779 5322.3624 6142.5191 z " />
   
  
</svg>
