<?xml version="1.0" encoding="UTF-8" standalone="no"?>
<svg
   version="1.2"
   width="100mm"
   height="100mm"
   viewBox="0 0 10000 10000"
   preserveAspectRatio="xMidYMid"
   fill-rule="evenodd"
   stroke-width="28.222"
   stroke-linejoin="round"
   xml:space="preserve"
   id="svg22"
   sodipodi:docname="gobo-caps-007B.svg"
   inkscape:version="1.4 (86a8ad7, 2024-10-11)"
   xmlns:inkscape="http://www.inkscape.org/namespaces/inkscape"
   xmlns:sodipodi="http://sodipodi.sourceforge.net/DTD/sodipodi-0.dtd"
   xmlns="http://www.w3.org/2000/svg"
   xmlns:svg="http://www.w3.org/2000/svg"
   xmlns:ooo="http://xml.openoffice.org/svg/export"><sodipodi:namedview
   id="namedview22"
   pagecolor="#ffffff"
   bordercolor="#000000"
   borderopacity="0.25"
   inkscape:showpageshadow="2"
   inkscape:pageopacity="0.0"
   inkscape:pagecheckerboard="0"
   inkscape:deskcolor="#d1d1d1"
   inkscape:document-units="mm"
   showgrid="false"
   inkscape:zoom="3.0876875"
   inkscape:cx="188.81444"
   inkscape:cy="188.97638"
   inkscape:window-width="2560"
   inkscape:window-height="1369"
   inkscape:window-x="-8"
   inkscape:window-y="-8"
   inkscape:window-maximized="1"
   inkscape:current-layer="svg22" />
 <defs
   class="ClipPathGroup"
   id="defs2">
  
  <clipPath
   id="presentation_clip_path_shrink"
   clipPathUnits="userSpaceOnUse">
   <rect
   x="10"
   y="10"
   width="9980"
   height="9980"
   id="rect2" />
  </clipPath>
 
  
 
   
  
    
   
     
    
      
      
      
      
      
      
      
     
       
      
       
      
       
      
       
      
       
      
       
      
       
      
        
        
       
        
        
       
        
        
       
        
        
       
        
        
       
        
        
       
        
        
       </defs>
 <defs
   class="TextShapeIndex"
   id="defs3">
  <g
   ooo:slide="id1"
   ooo:id-list="id3 id4 id5 id6 id7 id8 id9"
   id="g2" />
 </defs>
 <defs
   class="EmbeddedBulletChars"
   id="defs12">
  <g
   id="bullet-char-template-57356"
   transform="scale(0.00048828125,-0.00048828125)">
   <path
   d="M 580,1141 L 1163,571 580,0 -4,571 580,1141 Z"
   id="path3" />
  </g>
  <g
   id="bullet-char-template-57354"
   transform="scale(0.00048828125,-0.00048828125)">
   <path
   d="M 8,1128 L 1137,1128 1137,0 8,0 8,1128 Z"
   id="path4" />
  </g>
  <g
   id="bullet-char-template-10146"
   transform="scale(0.00048828125,-0.00048828125)">
   <path
   d="M 174,0 L 602,739 174,1481 1456,739 174,0 Z M 1358,739 L 309,1346 659,739 1358,739 Z"
   id="path5" />
  </g>
  <g
   id="bullet-char-template-10132"
   transform="scale(0.00048828125,-0.00048828125)">
   <path
   d="M 2015,739 L 1276,0 717,0 1260,543 174,543 174,936 1260,936 717,1481 1274,1481 2015,739 Z"
   id="path6" />
  </g>
  <g
   id="bullet-char-template-10007"
   transform="scale(0.00048828125,-0.00048828125)">
   <path
   d="M 0,-2 C -7,14 -16,27 -25,37 L 356,567 C 262,823 215,952 215,954 215,979 228,992 255,992 264,992 276,990 289,987 310,991 331,999 354,1012 L 381,999 492,748 772,1049 836,1024 860,1049 C 881,1039 901,1025 922,1006 886,937 835,863 770,784 769,783 710,716 594,584 L 774,223 C 774,196 753,168 711,139 L 727,119 C 717,90 699,76 672,76 641,76 570,178 457,381 L 164,-76 C 142,-110 111,-127 72,-127 30,-127 9,-110 8,-76 1,-67 -2,-52 -2,-32 -2,-23 -1,-13 0,-2 Z"
   id="path7" />
  </g>
  <g
   id="bullet-char-template-10004"
   transform="scale(0.00048828125,-0.00048828125)">
   <path
   d="M 285,-33 C 182,-33 111,30 74,156 52,228 41,333 41,471 41,549 55,616 82,672 116,743 169,778 240,778 293,778 328,747 346,684 L 369,508 C 377,444 397,411 428,410 L 1163,1116 C 1174,1127 1196,1133 1229,1133 1271,1133 1292,1118 1292,1087 L 1292,965 C 1292,929 1282,901 1262,881 L 442,47 C 390,-6 338,-33 285,-33 Z"
   id="path8" />
  </g>
  <g
   id="bullet-char-template-9679"
   transform="scale(0.00048828125,-0.00048828125)">
   <path
   d="M 813,0 C 632,0 489,54 383,161 276,268 223,411 223,592 223,773 276,916 383,1023 489,1130 632,1184 813,1184 992,1184 1136,1130 1245,1023 1353,916 1407,772 1407,592 1407,412 1353,268 1245,161 1136,54 992,0 813,0 Z"
   id="path9" />
  </g>
  <g
   id="bullet-char-template-8226"
   transform="scale(0.00048828125,-0.00048828125)">
   <path
   d="M 346,457 C 273,457 209,483 155,535 101,586 74,649 74,723 74,796 101,859 155,911 209,963 273,989 346,989 419,989 480,963 531,910 582,859 608,796 608,723 608,648 583,586 532,535 482,483 420,457 346,457 Z"
   id="path10" />
  </g>
  <g
   id="bullet-char-template-8211"
   transform="scale(0.00048828125,-0.00048828125)">
   <path
   d="M -4,459 L 1135,459 1135,606 -4,606 -4,459 Z"
   id="path11" />
  </g>
  <g
   id="bullet-char-template-61548"
   transform="scale(0.00048828125,-0.00048828125)">
   <path
   d="M 173,740 C 173,903 231,1043 346,1159 462,1274 601,1332 765,1332 928,1332 1067,1274 1183,1159 1299,1043 1357,903 1357,740 1357,577 1299,437 1183,322 1067,206 928,148 765,148 601,148 462,206 346,322 231,437 173,577 173,740 Z"
   id="path12" />
  </g>
 </defs>
 
 <path
   id="path13"
   d="M 5992.8125 2100.802 C 5979.7944 2100.7908 5966.1756 2101.178 5951.9881 2101.9905 C 5944.3873 2102.3941 5936.8987 2103.0933 5929.3538 2103.6442 C 5914.719 2103.3315 5899.0799 2104.0013 5882.0182 2106.0213 C 5426.2408 2162.873 5339.416 2157.2939 4919.6997 2225.6522 C 4717.5517 2246.8486 4545.1805 2322.8363 4525.9769 2460.0049 C 4521.071 2491.787 4518.4089 2528.1236 4518.0188 2566.51 C 4517.9503 2571.6566 4517.9701 2580.3892 4517.9154 2586.3537 C 4515.6292 2835.5231 4524.8886 3781.7595 4518.0188 4442.9846 C 4510.7774 5141.7805 4485.089 5123.953 4119.8002 5191.2076 C 3922.3885 5214.8458 3755.839 5291.1908 3736.9812 5424.9918 C 3713.9812 5573.9918 3737.024 5820.0047 3840.024 5934.0047 C 3888.9995 5988.0818 3931.9621 6007.7763 3980.1188 6000.9773 C 4203.7866 5985.0944 4413.8563 5986.3892 4408.9815 6312.9996 C 4397.9815 6987.9996 4425.9975 7463.0125 4484.9975 8092.0125 C 4543.9975 8721.0125 4690.0032 8917.0257 5450.0032 8806.0257 C 5625.0032 8780.0257 5742.9785 8772.9793 5812.9785 8762.9793 C 5814.926 8762.7289 5817.0879 8761.6534 5819.3347 8760.1887 C 5864.3696 8752.1935 5914.2576 8721.7051 5977.9813 8674.9743 C 6110.9813 8576.9743 6197.9864 8400.0156 6233.9864 8294.0156 C 6326.9864 8024.0156 6249.0096 7932.9749 6022.0096 7945.9749 C 6019.1292 7946.1278 6016.3044 7946.4209 6013.4314 7946.595 C 6009.6223 7945.4179 6005.5077 7944.7871 6000.9773 7944.993 C 5847.9773 7953.993 5595.9939 8025.9746 5347.9939 8076.9746 C 5099.9939 8129.9746 5087.0024 7950.992 5040.0024 7030.992 C 5010.4649 6440.2409 5097.9389 5840.4491 4892.5179 5490.7242 C 5112.8833 5228.657 5099.7414 4920.5852 5108.0086 4496.0046 C 5116.0692 4050.189 5147.9385 3420.1461 5177.9268 2967.7775 C 5410.1656 2933.6681 5615.7045 2916.1174 5716.0852 2917.8581 C 5770.0996 2922.5129 5828.2366 2889.4915 5908.0114 2830.99 C 6041.0114 2731.99 6128.0165 2555.9796 6164.0165 2449.9796 C 6251.204 2195.9171 6188.0835 2100.9704 5992.8125 2100.802 z " />
   
  
</svg>
