<?xml version="1.0" encoding="UTF-8" standalone="no"?>
<svg
   version="1.2"
   width="100mm"
   height="100mm"
   viewBox="0 0 10000 10000"
   preserveAspectRatio="xMidYMid"
   fill-rule="evenodd"
   stroke-width="28.222"
   stroke-linejoin="round"
   xml:space="preserve"
   id="svg24"
   sodipodi:docname="gobo-caps-0046.svg"
   inkscape:version="1.4 (86a8ad7, 2024-10-11)"
   xmlns:inkscape="http://www.inkscape.org/namespaces/inkscape"
   xmlns:sodipodi="http://sodipodi.sourceforge.net/DTD/sodipodi-0.dtd"
   xmlns="http://www.w3.org/2000/svg"
   xmlns:svg="http://www.w3.org/2000/svg"
   xmlns:ooo="http://xml.openoffice.org/svg/export"><sodipodi:namedview
   id="namedview24"
   pagecolor="#ffffff"
   bordercolor="#000000"
   borderopacity="0.25"
   inkscape:showpageshadow="2"
   inkscape:pageopacity="0.0"
   inkscape:pagecheckerboard="0"
   inkscape:deskcolor="#d1d1d1"
   inkscape:document-units="mm"
   showgrid="false"
   inkscape:zoom="3.0876875"
   inkscape:cx="188.81444"
   inkscape:cy="188.97638"
   inkscape:window-width="2560"
   inkscape:window-height="1369"
   inkscape:window-x="-8"
   inkscape:window-y="-8"
   inkscape:window-maximized="1"
   inkscape:current-layer="svg24" />
 <defs
   class="ClipPathGroup"
   id="defs2">
  
  <clipPath
   id="presentation_clip_path_shrink"
   clipPathUnits="userSpaceOnUse">
   <rect
   x="10"
   y="10"
   width="9980"
   height="9980"
   id="rect2" />
  </clipPath>
 
  
 
   
  
    
   
     
    
      
      
      
      
      
      
      
      
      
     
       
      
       
      
       
      
       
      
       
      
       
      
       
      
       
      
       
      
        
        
       
        
        
       
        
        
       
        
        
       
        
        
       
        
        
       
        
        
       
        
        
       
        
        
       </defs>
 <defs
   class="TextShapeIndex"
   id="defs3">
  <g
   ooo:slide="id1"
   ooo:id-list="id3 id4 id5 id6 id7 id8 id9 id10 id11"
   id="g2" />
 </defs>
 <defs
   class="EmbeddedBulletChars"
   id="defs12">
  <g
   id="bullet-char-template-57356"
   transform="scale(0.00048828125,-0.00048828125)">
   <path
   d="M 580,1141 L 1163,571 580,0 -4,571 580,1141 Z"
   id="path3" />
  </g>
  <g
   id="bullet-char-template-57354"
   transform="scale(0.00048828125,-0.00048828125)">
   <path
   d="M 8,1128 L 1137,1128 1137,0 8,0 8,1128 Z"
   id="path4" />
  </g>
  <g
   id="bullet-char-template-10146"
   transform="scale(0.00048828125,-0.00048828125)">
   <path
   d="M 174,0 L 602,739 174,1481 1456,739 174,0 Z M 1358,739 L 309,1346 659,739 1358,739 Z"
   id="path5" />
  </g>
  <g
   id="bullet-char-template-10132"
   transform="scale(0.00048828125,-0.00048828125)">
   <path
   d="M 2015,739 L 1276,0 717,0 1260,543 174,543 174,936 1260,936 717,1481 1274,1481 2015,739 Z"
   id="path6" />
  </g>
  <g
   id="bullet-char-template-10007"
   transform="scale(0.00048828125,-0.00048828125)">
   <path
   d="M 0,-2 C -7,14 -16,27 -25,37 L 356,567 C 262,823 215,952 215,954 215,979 228,992 255,992 264,992 276,990 289,987 310,991 331,999 354,1012 L 381,999 492,748 772,1049 836,1024 860,1049 C 881,1039 901,1025 922,1006 886,937 835,863 770,784 769,783 710,716 594,584 L 774,223 C 774,196 753,168 711,139 L 727,119 C 717,90 699,76 672,76 641,76 570,178 457,381 L 164,-76 C 142,-110 111,-127 72,-127 30,-127 9,-110 8,-76 1,-67 -2,-52 -2,-32 -2,-23 -1,-13 0,-2 Z"
   id="path7" />
  </g>
  <g
   id="bullet-char-template-10004"
   transform="scale(0.00048828125,-0.00048828125)">
   <path
   d="M 285,-33 C 182,-33 111,30 74,156 52,228 41,333 41,471 41,549 55,616 82,672 116,743 169,778 240,778 293,778 328,747 346,684 L 369,508 C 377,444 397,411 428,410 L 1163,1116 C 1174,1127 1196,1133 1229,1133 1271,1133 1292,1118 1292,1087 L 1292,965 C 1292,929 1282,901 1262,881 L 442,47 C 390,-6 338,-33 285,-33 Z"
   id="path8" />
  </g>
  <g
   id="bullet-char-template-9679"
   transform="scale(0.00048828125,-0.00048828125)">
   <path
   d="M 813,0 C 632,0 489,54 383,161 276,268 223,411 223,592 223,773 276,916 383,1023 489,1130 632,1184 813,1184 992,1184 1136,1130 1245,1023 1353,916 1407,772 1407,592 1407,412 1353,268 1245,161 1136,54 992,0 813,0 Z"
   id="path9" />
  </g>
  <g
   id="bullet-char-template-8226"
   transform="scale(0.00048828125,-0.00048828125)">
   <path
   d="M 346,457 C 273,457 209,483 155,535 101,586 74,649 74,723 74,796 101,859 155,911 209,963 273,989 346,989 419,989 480,963 531,910 582,859 608,796 608,723 608,648 583,586 532,535 482,483 420,457 346,457 Z"
   id="path10" />
  </g>
  <g
   id="bullet-char-template-8211"
   transform="scale(0.00048828125,-0.00048828125)">
   <path
   d="M -4,459 L 1135,459 1135,606 -4,606 -4,459 Z"
   id="path11" />
  </g>
  <g
   id="bullet-char-template-61548"
   transform="scale(0.00048828125,-0.00048828125)">
   <path
   d="M 173,740 C 173,903 231,1043 346,1159 462,1274 601,1332 765,1332 928,1332 1067,1274 1183,1159 1299,1043 1357,903 1357,740 1357,577 1299,437 1183,322 1067,206 928,148 765,148 601,148 462,206 346,322 231,437 173,577 173,740 Z"
   id="path12" />
  </g>
 </defs>
 
 <path
   id="path13"
   d="M 7078.7927 2049.9524 C 7065.7746 2049.8862 7052.2075 2050.2359 7038.02 2050.9859 C 7026.9372 2051.5718 7015.9531 2052.4619 7004.9987 2053.363 C 6692.4688 2063.6035 5571.6523 2108.9781 4791.0254 2189.9955 C 4041.8946 2266.8294 3502.0035 2336.9501 3106.6321 2406.5198 C 2906.8466 2429.3459 2738.0491 2505.8684 2719.0071 2640.9757 C 2696.0071 2789.9757 2718.9983 3035.9886 2821.9983 3149.9886 C 2877.4128 3211.1754 2925.2283 3228.1539 2981.4717 3212.7238 C 2983.3396 3212.38 2985.0889 3212.5025 2987.0011 3212.0003 C 3040.2532 3197.8722 3172.9472 3172.4423 3345.5839 3142.3405 C 3342.9396 3212.3228 3348.4704 3291.4663 3364.3941 3365.531 C 3418.5596 3920.0828 3452.3701 5406.9792 3456.9983 5979.0148 C 3460.6629 6546.1244 3339.6158 8029.1638 3333.0782 8485.0634 C 3323.7764 8633.7144 3352.4713 8835.8018 3442.994 8935.992 C 3538.994 9041.992 3612.0245 9015.975 3746.0245 8916.975 C 3880.0245 8817.975 3967.0114 8642.0164 4003.0114 8536.0164 C 4017.391 8494.2693 4027.6846 8456.8311 4033.9656 8423.3618 C 4036.6223 8411.2165 4038.7792 8398.8183 4040.0118 8385.9997 C 4077.0118 8019.9997 4089.9939 6840.9976 4077.9939 5922.9976 C 4077.6639 5895.45 4077.249 5853.5783 4076.9087 5824.9674 C 4287.0149 5754.6635 4570.5374 5670.7934 4898.9774 5624.9796 C 5314.1344 5563.6945 6312.5558 5524.108 6522.961 5533.8224 C 6576.8912 5538.5028 6634.7996 5505.5261 6714.0087 5447.006 C 6848.0087 5348.006 6934.9956 5171.9956 6970.9956 5065.9956 C 7063.9956 4795.9956 6986.0189 4705.0247 6759.0189 4717.0247 C 6746.0723 4717.7694 6733.1885 4718.7521 6720.4166 4719.9186 C 6218.8245 4742.6845 5533.2305 4810.018 4931.0168 4900.9928 C 4493.5935 4968.2887 4279.1174 5019.7011 4068.6922 5071.7317 C 4059.879 4272.4629 4051.5909 3433.5066 4052.2074 3029.5825 C 4408.4406 2977.0143 4780.7745 2928.0983 5053.0249 2904.9906 C 5701.0249 2848.9906 6705.9873 2858.0238 6811.9873 2869.0238 C 6815.8693 2869.3833 6820.237 2868.3408 6824.803 2866.595 C 6872.6153 2861.8284 6925.2511 2830.3951 6993.9916 2779.9853 C 7126.9916 2681.9853 7214.9967 2505.0085 7249.9967 2400.0085 C 7337.1842 2145.946 7274.0637 2050.9448 7078.7927 2049.9524 z " />
   
  
</svg>
