<?xml version="1.0" encoding="UTF-8" standalone="no"?>
<svg
   version="1.2"
   width="100mm"
   height="100mm"
   viewBox="0 0 10000 10000"
   preserveAspectRatio="xMidYMid"
   fill-rule="evenodd"
   stroke-width="28.222"
   stroke-linejoin="round"
   xml:space="preserve"
   id="svg21"
   sodipodi:docname="gobo-caps-002B.svg"
   inkscape:version="1.4 (86a8ad7, 2024-10-11)"
   xmlns:inkscape="http://www.inkscape.org/namespaces/inkscape"
   xmlns:sodipodi="http://sodipodi.sourceforge.net/DTD/sodipodi-0.dtd"
   xmlns="http://www.w3.org/2000/svg"
   xmlns:svg="http://www.w3.org/2000/svg"
   xmlns:ooo="http://xml.openoffice.org/svg/export"><sodipodi:namedview
   id="namedview21"
   pagecolor="#ffffff"
   bordercolor="#000000"
   borderopacity="0.25"
   inkscape:showpageshadow="2"
   inkscape:pageopacity="0.0"
   inkscape:pagecheckerboard="0"
   inkscape:deskcolor="#d1d1d1"
   inkscape:document-units="mm"
   showgrid="false"
   inkscape:zoom="3.0876875"
   inkscape:cx="188.81444"
   inkscape:cy="188.97638"
   inkscape:window-width="2560"
   inkscape:window-height="1369"
   inkscape:window-x="-8"
   inkscape:window-y="-8"
   inkscape:window-maximized="1"
   inkscape:current-layer="svg21" />
 <defs
   class="ClipPathGroup"
   id="defs2">
  
  <clipPath
   id="presentation_clip_path_shrink"
   clipPathUnits="userSpaceOnUse">
   <rect
   x="10"
   y="10"
   width="9980"
   height="9980"
   id="rect2" />
  </clipPath>
 
  
 
   
  
    
   
     
    
      
      
      
      
      
      
     
       
      
       
      
       
      
       
      
       
      
       
      
        
        
       
        
        
       
        
        
       
        
        
       
        
        
       
        
        
       </defs>
 <defs
   class="TextShapeIndex"
   id="defs3">
  <g
   ooo:slide="id1"
   ooo:id-list="id3 id4 id5 id6 id7 id8"
   id="g2" />
 </defs>
 <defs
   class="EmbeddedBulletChars"
   id="defs12">
  <g
   id="bullet-char-template-57356"
   transform="scale(0.00048828125,-0.00048828125)">
   <path
   d="M 580,1141 L 1163,571 580,0 -4,571 580,1141 Z"
   id="path3" />
  </g>
  <g
   id="bullet-char-template-57354"
   transform="scale(0.00048828125,-0.00048828125)">
   <path
   d="M 8,1128 L 1137,1128 1137,0 8,0 8,1128 Z"
   id="path4" />
  </g>
  <g
   id="bullet-char-template-10146"
   transform="scale(0.00048828125,-0.00048828125)">
   <path
   d="M 174,0 L 602,739 174,1481 1456,739 174,0 Z M 1358,739 L 309,1346 659,739 1358,739 Z"
   id="path5" />
  </g>
  <g
   id="bullet-char-template-10132"
   transform="scale(0.00048828125,-0.00048828125)">
   <path
   d="M 2015,739 L 1276,0 717,0 1260,543 174,543 174,936 1260,936 717,1481 1274,1481 2015,739 Z"
   id="path6" />
  </g>
  <g
   id="bullet-char-template-10007"
   transform="scale(0.00048828125,-0.00048828125)">
   <path
   d="M 0,-2 C -7,14 -16,27 -25,37 L 356,567 C 262,823 215,952 215,954 215,979 228,992 255,992 264,992 276,990 289,987 310,991 331,999 354,1012 L 381,999 492,748 772,1049 836,1024 860,1049 C 881,1039 901,1025 922,1006 886,937 835,863 770,784 769,783 710,716 594,584 L 774,223 C 774,196 753,168 711,139 L 727,119 C 717,90 699,76 672,76 641,76 570,178 457,381 L 164,-76 C 142,-110 111,-127 72,-127 30,-127 9,-110 8,-76 1,-67 -2,-52 -2,-32 -2,-23 -1,-13 0,-2 Z"
   id="path7" />
  </g>
  <g
   id="bullet-char-template-10004"
   transform="scale(0.00048828125,-0.00048828125)">
   <path
   d="M 285,-33 C 182,-33 111,30 74,156 52,228 41,333 41,471 41,549 55,616 82,672 116,743 169,778 240,778 293,778 328,747 346,684 L 369,508 C 377,444 397,411 428,410 L 1163,1116 C 1174,1127 1196,1133 1229,1133 1271,1133 1292,1118 1292,1087 L 1292,965 C 1292,929 1282,901 1262,881 L 442,47 C 390,-6 338,-33 285,-33 Z"
   id="path8" />
  </g>
  <g
   id="bullet-char-template-9679"
   transform="scale(0.00048828125,-0.00048828125)">
   <path
   d="M 813,0 C 632,0 489,54 383,161 276,268 223,411 223,592 223,773 276,916 383,1023 489,1130 632,1184 813,1184 992,1184 1136,1130 1245,1023 1353,916 1407,772 1407,592 1407,412 1353,268 1245,161 1136,54 992,0 813,0 Z"
   id="path9" />
  </g>
  <g
   id="bullet-char-template-8226"
   transform="scale(0.00048828125,-0.00048828125)">
   <path
   d="M 346,457 C 273,457 209,483 155,535 101,586 74,649 74,723 74,796 101,859 155,911 209,963 273,989 346,989 419,989 480,963 531,910 582,859 608,796 608,723 608,648 583,586 532,535 482,483 420,457 346,457 Z"
   id="path10" />
  </g>
  <g
   id="bullet-char-template-8211"
   transform="scale(0.00048828125,-0.00048828125)">
   <path
   d="M -4,459 L 1135,459 1135,606 -4,606 -4,459 Z"
   id="path11" />
  </g>
  <g
   id="bullet-char-template-61548"
   transform="scale(0.00048828125,-0.00048828125)">
   <path
   d="M 173,740 C 173,903 231,1043 346,1159 462,1274 601,1332 765,1332 928,1332 1067,1274 1183,1159 1299,1043 1357,903 1357,740 1357,577 1299,437 1183,322 1067,206 928,148 765,148 601,148 462,206 346,322 231,437 173,577 173,740 Z"
   id="path12" />
  </g>
 </defs>
 
 <path
   id="path13"
   d="M 5148.988 3723.9587 C 5135.915 3723.8852 5122.2586 3724.2422 5108.0086 3724.9922 C 4883.0086 3737.9922 4678.0102 3815.9776 4658.0102 3964.9776 C 4655.9583 3978.2703 4654.3972 3992.5747 4653.101 4007.2489 C 4650.9622 4016.7221 4649.4184 4026.5452 4649.0185 4037.0145 C 4640.2226 4319.4614 4645.6725 4865.4285 4643.1274 5324.1711 C 4249.6049 5362.6161 3863.4452 5375.0223 3601.9507 5403.4427 C 3384.0944 5418.8498 3191.3952 5495.4683 3171.0209 5640.9993 C 3149.0209 5789.9993 3172.012 6036.0122 3274.012 6150.0122 C 3315.3974 6195.7085 3352.4978 6216.8132 3392.1443 6218.1734 C 3395.0609 6219.6048 3397.9799 6220.3231 3400.981 6219.982 C 3405.7392 6218.798 3414.02 6217.3767 3419.2745 6216.158 C 3422.5851 6215.5714 3425.9329 6214.918 3429.2997 6214.0909 C 3429.4021 6214.0658 3429.5073 6214.013 3429.6098 6213.9876 C 3658.5187 6162.7276 4281.5793 6085.0609 4646.5897 6042.0601 C 4650.5555 6416.0711 4656.0512 6807.1966 4658.3203 7095.7942 C 4652.0673 7242.565 4681.6319 7433.4755 4767.9777 7529.9796 C 4864.9777 7634.9796 4936.9901 7610.0143 5071.9901 7511.0143 C 5205.9901 7413.0143 5292.9952 7236.004 5327.9952 7130.004 C 5357.717 7043.7148 5369.8673 6975.7805 5365.4089 6923.6083 C 5365.9735 6919.839 5366.3648 6916.1663 5365.9773 6913.0147 C 5350.6251 6818.2311 5311.6175 6377.739 5287.9976 5986.7146 C 5715.69 5958.4771 6202.6589 5935.1942 6337.5976 5937.0019 C 6395.1343 5948.3736 6455.6867 5915.0212 6540.996 5851.9942 C 6674.996 5752.9942 6761.9829 5576.9838 6797.9829 5470.9838 C 6890.9829 5200.9838 6813.0244 5110.0129 6585.0244 5122.0129 C 6563.509 5123.2505 6542.2694 5125.2402 6521.3073 5127.6456 C 6518.0906 5127.8792 6515.3162 5127.6868 6512.0056 5128.0074 C 6182.8667 5161.3379 5697.5443 5211.2834 5274.8718 5256.2683 C 5288.3 4846.5064 5321.8292 4220.7342 5346.5987 3987.1468 C 5390.2579 3798.5659 5320.5775 3724.9233 5148.988 3723.9587 z " />
   
  
</svg>
