<?xml version="1.0" encoding="UTF-8" standalone="no"?>
<svg
   version="1.2"
   width="100mm"
   height="100mm"
   viewBox="0 0 10000 10000"
   preserveAspectRatio="xMidYMid"
   fill-rule="evenodd"
   stroke-width="28.222"
   stroke-linejoin="round"
   xml:space="preserve"
   id="svg21"
   sodipodi:docname="gobo-caps-003D.svg"
   inkscape:version="1.4 (86a8ad7, 2024-10-11)"
   xmlns:inkscape="http://www.inkscape.org/namespaces/inkscape"
   xmlns:sodipodi="http://sodipodi.sourceforge.net/DTD/sodipodi-0.dtd"
   xmlns="http://www.w3.org/2000/svg"
   xmlns:svg="http://www.w3.org/2000/svg"
   xmlns:ooo="http://xml.openoffice.org/svg/export"><sodipodi:namedview
   id="namedview21"
   pagecolor="#ffffff"
   bordercolor="#000000"
   borderopacity="0.25"
   inkscape:showpageshadow="2"
   inkscape:pageopacity="0.0"
   inkscape:pagecheckerboard="0"
   inkscape:deskcolor="#d1d1d1"
   inkscape:document-units="mm"
   showgrid="false"
   inkscape:zoom="3.0876875"
   inkscape:cx="188.81444"
   inkscape:cy="188.97638"
   inkscape:window-width="2560"
   inkscape:window-height="1369"
   inkscape:window-x="-8"
   inkscape:window-y="-8"
   inkscape:window-maximized="1"
   inkscape:current-layer="svg21" />
 <defs
   class="ClipPathGroup"
   id="defs2">
  
  <clipPath
   id="presentation_clip_path_shrink"
   clipPathUnits="userSpaceOnUse">
   <rect
   x="10"
   y="10"
   width="9980"
   height="9980"
   id="rect2" />
  </clipPath>
 
  
 
   
  
    
   
     
    
      
      
      
      
      
      
     
       
      
       
      
       
      
       
      
       
      
       
      
        
        
       
        
        
       
        
        
       
        
        
       
        
        
       
        
        
       </defs>
 <defs
   class="TextShapeIndex"
   id="defs3">
  <g
   ooo:slide="id1"
   ooo:id-list="id3 id4 id5 id6 id7 id8"
   id="g2" />
 </defs>
 <defs
   class="EmbeddedBulletChars"
   id="defs12">
  <g
   id="bullet-char-template-57356"
   transform="scale(0.00048828125,-0.00048828125)">
   <path
   d="M 580,1141 L 1163,571 580,0 -4,571 580,1141 Z"
   id="path3" />
  </g>
  <g
   id="bullet-char-template-57354"
   transform="scale(0.00048828125,-0.00048828125)">
   <path
   d="M 8,1128 L 1137,1128 1137,0 8,0 8,1128 Z"
   id="path4" />
  </g>
  <g
   id="bullet-char-template-10146"
   transform="scale(0.00048828125,-0.00048828125)">
   <path
   d="M 174,0 L 602,739 174,1481 1456,739 174,0 Z M 1358,739 L 309,1346 659,739 1358,739 Z"
   id="path5" />
  </g>
  <g
   id="bullet-char-template-10132"
   transform="scale(0.00048828125,-0.00048828125)">
   <path
   d="M 2015,739 L 1276,0 717,0 1260,543 174,543 174,936 1260,936 717,1481 1274,1481 2015,739 Z"
   id="path6" />
  </g>
  <g
   id="bullet-char-template-10007"
   transform="scale(0.00048828125,-0.00048828125)">
   <path
   d="M 0,-2 C -7,14 -16,27 -25,37 L 356,567 C 262,823 215,952 215,954 215,979 228,992 255,992 264,992 276,990 289,987 310,991 331,999 354,1012 L 381,999 492,748 772,1049 836,1024 860,1049 C 881,1039 901,1025 922,1006 886,937 835,863 770,784 769,783 710,716 594,584 L 774,223 C 774,196 753,168 711,139 L 727,119 C 717,90 699,76 672,76 641,76 570,178 457,381 L 164,-76 C 142,-110 111,-127 72,-127 30,-127 9,-110 8,-76 1,-67 -2,-52 -2,-32 -2,-23 -1,-13 0,-2 Z"
   id="path7" />
  </g>
  <g
   id="bullet-char-template-10004"
   transform="scale(0.00048828125,-0.00048828125)">
   <path
   d="M 285,-33 C 182,-33 111,30 74,156 52,228 41,333 41,471 41,549 55,616 82,672 116,743 169,778 240,778 293,778 328,747 346,684 L 369,508 C 377,444 397,411 428,410 L 1163,1116 C 1174,1127 1196,1133 1229,1133 1271,1133 1292,1118 1292,1087 L 1292,965 C 1292,929 1282,901 1262,881 L 442,47 C 390,-6 338,-33 285,-33 Z"
   id="path8" />
  </g>
  <g
   id="bullet-char-template-9679"
   transform="scale(0.00048828125,-0.00048828125)">
   <path
   d="M 813,0 C 632,0 489,54 383,161 276,268 223,411 223,592 223,773 276,916 383,1023 489,1130 632,1184 813,1184 992,1184 1136,1130 1245,1023 1353,916 1407,772 1407,592 1407,412 1353,268 1245,161 1136,54 992,0 813,0 Z"
   id="path9" />
  </g>
  <g
   id="bullet-char-template-8226"
   transform="scale(0.00048828125,-0.00048828125)">
   <path
   d="M 346,457 C 273,457 209,483 155,535 101,586 74,649 74,723 74,796 101,859 155,911 209,963 273,989 346,989 419,989 480,963 531,910 582,859 608,796 608,723 608,648 583,586 532,535 482,483 420,457 346,457 Z"
   id="path10" />
  </g>
  <g
   id="bullet-char-template-8211"
   transform="scale(0.00048828125,-0.00048828125)">
   <path
   d="M -4,459 L 1135,459 1135,606 -4,606 -4,459 Z"
   id="path11" />
  </g>
  <g
   id="bullet-char-template-61548"
   transform="scale(0.00048828125,-0.00048828125)">
   <path
   d="M 173,740 C 173,903 231,1043 346,1159 462,1274 601,1332 765,1332 928,1332 1067,1274 1183,1159 1299,1043 1357,903 1357,740 1357,577 1299,437 1183,322 1067,206 928,148 765,148 601,148 462,206 346,322 231,437 173,577 173,740 Z"
   id="path12" />
  </g>
 </defs>
 
 <path
   id="path13"
   d="M 6091.9795 4482.9821 C 6078.9136 4482.9089 6065.2501 4483.2657 6051.0001 4484.0157 C 6043.7989 4484.4299 6036.7057 4485.0732 6029.5544 4485.6176 C 6014.8639 4485.2902 5999.155 4485.9652 5982.0121 4487.9948 C 5509.0121 4546.9948 5356.0165 4602.9865 4894.0165 4664.9865 C 4497.3577 4719.6981 4379.9166 4708.2143 4176.9543 4731.7525 C 3960.3311 4748.5496 3769.3026 4825.1014 3749.0218 4968.999 C 3727.0218 5118.999 3750.0129 5364.0118 3852.0129 5478.0118 C 3902.5739 5533.264 3946.338 5552.5882 3995.7767 5544.4677 C 3999.5525 5545.7207 4003.3145 5546.1703 4006.9905 5544.9845 C 4192.9905 5482.9845 4503.9771 5440.025 4861.9771 5389.025 C 5219.9771 5337.025 5684.9828 5296.0201 5826.9828 5301.0201 C 5829.4735 5301.1065 5832.3051 5300.3133 5834.9926 5299.8832 C 5883.5355 5296.2306 5936.7523 5264.5473 6007.0235 5213.0151 C 6140.0235 5116.0151 6228.0104 4937.9866 6264.0104 4832.9866 C 6350.2604 4579.8616 6287.9683 4484.0808 6091.9795 4482.9821 z M 6048.9847 5643.9965 C 6035.9188 5643.9233 6022.2553 5644.2284 6008.0053 5644.9784 C 6000.8247 5645.358 5993.7389 5646.0168 5986.6113 5646.5287 C 5971.9086 5646.2317 5956.1807 5646.9408 5939.0173 5649.0092 C 5466.0173 5708.0092 5309.0245 5718.9908 4848.0245 5780.9908 C 4431.3906 5838.4575 4315.2986 5860.3479 4092.515 5896.4876 C 3893.4872 5918.8713 3724.9508 5995.3776 3705.9753 6130.0134 C 3683.9753 6279.0134 3707.0181 6524.9746 3809.0181 6638.9746 C 3859.6693 6694.902 3903.8985 6714.0711 3954.2289 6705.1721 C 3957.5168 6705.9749 3960.7865 6706.0868 3963.9957 6705.017 C 4148.9957 6644.017 4457.9851 6554.9776 4815.9851 6504.9776 C 5172.9851 6452.9776 5641.0061 6456.9828 5783.0061 6461.9828 C 5785.0481 6462.0395 5787.3936 6461.2922 5789.569 6461.0009 C 5838.7729 6458.09 5892.7306 6426.2251 5963.977 6373.9778 C 6096.977 6275.9778 6184.0156 6099.001 6221.0156 5994.001 C 6307.2656 5740.876 6244.9735 5645.0952 6048.9847 5643.9965 z " />
   
  
</svg>
