<?xml version="1.0" encoding="UTF-8" standalone="no"?>
<svg
   version="1.2"
   width="100mm"
   height="100mm"
   viewBox="0 0 10000 10000"
   preserveAspectRatio="xMidYMid"
   fill-rule="evenodd"
   stroke-width="28.222"
   stroke-linejoin="round"
   xml:space="preserve"
   id="svg21"
   sodipodi:docname="gobo-caps-006B.svg"
   inkscape:version="1.4 (86a8ad7, 2024-10-11)"
   xmlns:inkscape="http://www.inkscape.org/namespaces/inkscape"
   xmlns:sodipodi="http://sodipodi.sourceforge.net/DTD/sodipodi-0.dtd"
   xmlns="http://www.w3.org/2000/svg"
   xmlns:svg="http://www.w3.org/2000/svg"
   xmlns:ooo="http://xml.openoffice.org/svg/export"><sodipodi:namedview
   id="namedview21"
   pagecolor="#ffffff"
   bordercolor="#000000"
   borderopacity="0.25"
   inkscape:showpageshadow="2"
   inkscape:pageopacity="0.0"
   inkscape:pagecheckerboard="0"
   inkscape:deskcolor="#d1d1d1"
   inkscape:document-units="mm"
   showgrid="false"
   inkscape:zoom="3.0876875"
   inkscape:cx="188.81444"
   inkscape:cy="188.97638"
   inkscape:window-width="2560"
   inkscape:window-height="1369"
   inkscape:window-x="-8"
   inkscape:window-y="-8"
   inkscape:window-maximized="1"
   inkscape:current-layer="svg21" />
 <defs
   class="ClipPathGroup"
   id="defs2">
  
  <clipPath
   id="presentation_clip_path_shrink"
   clipPathUnits="userSpaceOnUse">
   <rect
   x="10"
   y="10"
   width="9980"
   height="9980"
   id="rect2" />
  </clipPath>
 
  
 
   
  
    
   
     
    
      
      
      
      
      
      
     
       
      
       
      
       
      
       
      
       
      
       
      
        
        
       
        
        
       
        
        
       
        
        
       
        
        
       
        
        
       </defs>
 <defs
   class="TextShapeIndex"
   id="defs3">
  <g
   ooo:slide="id1"
   ooo:id-list="id3 id4 id5 id6 id7 id8"
   id="g2" />
 </defs>
 <defs
   class="EmbeddedBulletChars"
   id="defs12">
  <g
   id="bullet-char-template-57356"
   transform="scale(0.00048828125,-0.00048828125)">
   <path
   d="M 580,1141 L 1163,571 580,0 -4,571 580,1141 Z"
   id="path3" />
  </g>
  <g
   id="bullet-char-template-57354"
   transform="scale(0.00048828125,-0.00048828125)">
   <path
   d="M 8,1128 L 1137,1128 1137,0 8,0 8,1128 Z"
   id="path4" />
  </g>
  <g
   id="bullet-char-template-10146"
   transform="scale(0.00048828125,-0.00048828125)">
   <path
   d="M 174,0 L 602,739 174,1481 1456,739 174,0 Z M 1358,739 L 309,1346 659,739 1358,739 Z"
   id="path5" />
  </g>
  <g
   id="bullet-char-template-10132"
   transform="scale(0.00048828125,-0.00048828125)">
   <path
   d="M 2015,739 L 1276,0 717,0 1260,543 174,543 174,936 1260,936 717,1481 1274,1481 2015,739 Z"
   id="path6" />
  </g>
  <g
   id="bullet-char-template-10007"
   transform="scale(0.00048828125,-0.00048828125)">
   <path
   d="M 0,-2 C -7,14 -16,27 -25,37 L 356,567 C 262,823 215,952 215,954 215,979 228,992 255,992 264,992 276,990 289,987 310,991 331,999 354,1012 L 381,999 492,748 772,1049 836,1024 860,1049 C 881,1039 901,1025 922,1006 886,937 835,863 770,784 769,783 710,716 594,584 L 774,223 C 774,196 753,168 711,139 L 727,119 C 717,90 699,76 672,76 641,76 570,178 457,381 L 164,-76 C 142,-110 111,-127 72,-127 30,-127 9,-110 8,-76 1,-67 -2,-52 -2,-32 -2,-23 -1,-13 0,-2 Z"
   id="path7" />
  </g>
  <g
   id="bullet-char-template-10004"
   transform="scale(0.00048828125,-0.00048828125)">
   <path
   d="M 285,-33 C 182,-33 111,30 74,156 52,228 41,333 41,471 41,549 55,616 82,672 116,743 169,778 240,778 293,778 328,747 346,684 L 369,508 C 377,444 397,411 428,410 L 1163,1116 C 1174,1127 1196,1133 1229,1133 1271,1133 1292,1118 1292,1087 L 1292,965 C 1292,929 1282,901 1262,881 L 442,47 C 390,-6 338,-33 285,-33 Z"
   id="path8" />
  </g>
  <g
   id="bullet-char-template-9679"
   transform="scale(0.00048828125,-0.00048828125)">
   <path
   d="M 813,0 C 632,0 489,54 383,161 276,268 223,411 223,592 223,773 276,916 383,1023 489,1130 632,1184 813,1184 992,1184 1136,1130 1245,1023 1353,916 1407,772 1407,592 1407,412 1353,268 1245,161 1136,54 992,0 813,0 Z"
   id="path9" />
  </g>
  <g
   id="bullet-char-template-8226"
   transform="scale(0.00048828125,-0.00048828125)">
   <path
   d="M 346,457 C 273,457 209,483 155,535 101,586 74,649 74,723 74,796 101,859 155,911 209,963 273,989 346,989 419,989 480,963 531,910 582,859 608,796 608,723 608,648 583,586 532,535 482,483 420,457 346,457 Z"
   id="path10" />
  </g>
  <g
   id="bullet-char-template-8211"
   transform="scale(0.00048828125,-0.00048828125)">
   <path
   d="M -4,459 L 1135,459 1135,606 -4,606 -4,459 Z"
   id="path11" />
  </g>
  <g
   id="bullet-char-template-61548"
   transform="scale(0.00048828125,-0.00048828125)">
   <path
   d="M 173,740 C 173,903 231,1043 346,1159 462,1274 601,1332 765,1332 928,1332 1067,1274 1183,1159 1299,1043 1357,903 1357,740 1357,577 1299,437 1183,322 1067,206 928,148 765,148 601,148 462,206 346,322 231,437 173,577 173,740 Z"
   id="path12" />
  </g>
 </defs>
 
 <path
   id="path13"
   d="M 6499.965 3040.9513 C 6486.892 3040.8781 6473.2355 3041.2348 6458.9855 3041.9848 C 6306.7715 3050.7405 6165.0859 3088.5847 6082.316 3158.1535 C 6073.1756 3163.6846 6064.5846 3170.7 6056.9946 3180.0126 C 5755.9946 3550.0126 5776.0144 3593.0023 5139.0144 4237.0023 C 4504.0144 4877.0023 4304.0071 4993.9856 3989.0071 5356.9856 C 3961.9365 5388.0954 3936.9593 5422.7975 3913.0945 5458.8916 C 3912.7907 4698.4035 3998.1422 3845.1988 4031.9502 3484.2834 C 4057.3997 3315.2104 3971.6251 3256.3642 3787.004 3266.984 C 3561.259 3278.9177 3358.3467 3356.1631 3335.4553 3503.5587 C 3335.3776 3504.0421 3335.0346 3504.5222 3334.9902 3505.0057 C 3334.9592 3505.4473 3334.9179 3506.3194 3334.8869 3506.7627 C 3329.1343 3546.0766 3326.5895 3592.1271 3327.7038 3640.6563 C 3305.6733 4032.4291 3283.0852 4758.8552 3283.9856 5407.9903 C 3290.6125 6087.7263 3340.953 7303.2459 3356.6943 7753.4802 C 3350.7816 7900.0886 3380.6738 8087.4642 3465.99 8181.9811 C 3562.99 8287.9811 3635.0024 8262.0159 3770.0024 8163.0159 C 3904.0024 8066.0159 3990.9893 7888.0056 4026.9893 7782.0056 C 4048.9128 7718.5924 4061.21 7665.1805 4064.403 7620.5684 C 4064.8922 7619.0545 4065.7512 7617.4772 4066.005 7616.0209 C 4072.7299 7416.7197 4023.756 7067.5912 3979.6537 6636.1324 C 4010.4432 6657.6325 4043.9531 6677.1873 4080.9912 6694.01 C 4987.9912 7106.01 6051.9999 7790.9995 6181.9999 7881.9995 C 6188.8752 7886.8279 6197.2462 7888.8869 6206.4428 7889.3892 C 6267.3 7907.3919 6329.7568 7873.9311 6421.0034 7807.0169 C 6555.0034 7710.0169 6641.9903 7532.9885 6677.9903 7426.9885 C 6740.2003 7244.4156 6725.0231 7143.8056 6638.2511 7101.4269 C 6633.3241 7097.8525 6628.6362 7094.0979 6623.0065 7090.9883 C 6345.0065 6936.9883 4795.0188 6180.9773 4518.0188 6000.9773 C 4242.0188 5822.9773 4320.0147 5784.9868 5008.0147 5168.9868 C 5691.0147 4549.9868 6117.0028 4133.0002 6515.0028 3679.0002 C 6517.3895 3675.5457 6519.184 3671.7381 6521.1006 3667.9931 C 6595.7803 3575.1865 6646.6148 3465.7403 6671.9958 3391.0075 C 6759.1833 3137.8825 6696.0599 3042.0499 6499.965 3040.9513 z " />
   
  
</svg>
