<?xml version="1.0" encoding="UTF-8" standalone="no"?>
<svg
   version="1.2"
   width="100mm"
   height="100mm"
   viewBox="0 0 10000 10000"
   preserveAspectRatio="xMidYMid"
   fill-rule="evenodd"
   stroke-width="28.222"
   stroke-linejoin="round"
   xml:space="preserve"
   id="svg24"
   sodipodi:docname="gobo-caps-0048.svg"
   inkscape:version="1.4 (86a8ad7, 2024-10-11)"
   xmlns:inkscape="http://www.inkscape.org/namespaces/inkscape"
   xmlns:sodipodi="http://sodipodi.sourceforge.net/DTD/sodipodi-0.dtd"
   xmlns="http://www.w3.org/2000/svg"
   xmlns:svg="http://www.w3.org/2000/svg"
   xmlns:ooo="http://xml.openoffice.org/svg/export"><sodipodi:namedview
   id="namedview24"
   pagecolor="#ffffff"
   bordercolor="#000000"
   borderopacity="0.25"
   inkscape:showpageshadow="2"
   inkscape:pageopacity="0.0"
   inkscape:pagecheckerboard="0"
   inkscape:deskcolor="#d1d1d1"
   inkscape:document-units="mm"
   showgrid="false"
   inkscape:zoom="3.0876875"
   inkscape:cx="188.81444"
   inkscape:cy="188.97638"
   inkscape:window-width="2560"
   inkscape:window-height="1369"
   inkscape:window-x="-8"
   inkscape:window-y="-8"
   inkscape:window-maximized="1"
   inkscape:current-layer="svg24" />
 <defs
   class="ClipPathGroup"
   id="defs2">
  
  <clipPath
   id="presentation_clip_path_shrink"
   clipPathUnits="userSpaceOnUse">
   <rect
   x="10"
   y="10"
   width="9980"
   height="9980"
   id="rect2" />
  </clipPath>
 
  
 
   
  
    
   
     
    
      
      
      
      
      
      
      
      
      
     
       
      
       
      
       
      
       
      
       
      
       
      
       
      
       
      
       
      
        
        
       
        
        
       
        
        
       
        
        
       
        
        
       
        
        
       
        
        
       
        
        
       
        
        
       </defs>
 <defs
   class="TextShapeIndex"
   id="defs3">
  <g
   ooo:slide="id1"
   ooo:id-list="id3 id4 id5 id6 id7 id8 id9 id10 id11"
   id="g2" />
 </defs>
 <defs
   class="EmbeddedBulletChars"
   id="defs12">
  <g
   id="bullet-char-template-57356"
   transform="scale(0.00048828125,-0.00048828125)">
   <path
   d="M 580,1141 L 1163,571 580,0 -4,571 580,1141 Z"
   id="path3" />
  </g>
  <g
   id="bullet-char-template-57354"
   transform="scale(0.00048828125,-0.00048828125)">
   <path
   d="M 8,1128 L 1137,1128 1137,0 8,0 8,1128 Z"
   id="path4" />
  </g>
  <g
   id="bullet-char-template-10146"
   transform="scale(0.00048828125,-0.00048828125)">
   <path
   d="M 174,0 L 602,739 174,1481 1456,739 174,0 Z M 1358,739 L 309,1346 659,739 1358,739 Z"
   id="path5" />
  </g>
  <g
   id="bullet-char-template-10132"
   transform="scale(0.00048828125,-0.00048828125)">
   <path
   d="M 2015,739 L 1276,0 717,0 1260,543 174,543 174,936 1260,936 717,1481 1274,1481 2015,739 Z"
   id="path6" />
  </g>
  <g
   id="bullet-char-template-10007"
   transform="scale(0.00048828125,-0.00048828125)">
   <path
   d="M 0,-2 C -7,14 -16,27 -25,37 L 356,567 C 262,823 215,952 215,954 215,979 228,992 255,992 264,992 276,990 289,987 310,991 331,999 354,1012 L 381,999 492,748 772,1049 836,1024 860,1049 C 881,1039 901,1025 922,1006 886,937 835,863 770,784 769,783 710,716 594,584 L 774,223 C 774,196 753,168 711,139 L 727,119 C 717,90 699,76 672,76 641,76 570,178 457,381 L 164,-76 C 142,-110 111,-127 72,-127 30,-127 9,-110 8,-76 1,-67 -2,-52 -2,-32 -2,-23 -1,-13 0,-2 Z"
   id="path7" />
  </g>
  <g
   id="bullet-char-template-10004"
   transform="scale(0.00048828125,-0.00048828125)">
   <path
   d="M 285,-33 C 182,-33 111,30 74,156 52,228 41,333 41,471 41,549 55,616 82,672 116,743 169,778 240,778 293,778 328,747 346,684 L 369,508 C 377,444 397,411 428,410 L 1163,1116 C 1174,1127 1196,1133 1229,1133 1271,1133 1292,1118 1292,1087 L 1292,965 C 1292,929 1282,901 1262,881 L 442,47 C 390,-6 338,-33 285,-33 Z"
   id="path8" />
  </g>
  <g
   id="bullet-char-template-9679"
   transform="scale(0.00048828125,-0.00048828125)">
   <path
   d="M 813,0 C 632,0 489,54 383,161 276,268 223,411 223,592 223,773 276,916 383,1023 489,1130 632,1184 813,1184 992,1184 1136,1130 1245,1023 1353,916 1407,772 1407,592 1407,412 1353,268 1245,161 1136,54 992,0 813,0 Z"
   id="path9" />
  </g>
  <g
   id="bullet-char-template-8226"
   transform="scale(0.00048828125,-0.00048828125)">
   <path
   d="M 346,457 C 273,457 209,483 155,535 101,586 74,649 74,723 74,796 101,859 155,911 209,963 273,989 346,989 419,989 480,963 531,910 582,859 608,796 608,723 608,648 583,586 532,535 482,483 420,457 346,457 Z"
   id="path10" />
  </g>
  <g
   id="bullet-char-template-8211"
   transform="scale(0.00048828125,-0.00048828125)">
   <path
   d="M -4,459 L 1135,459 1135,606 -4,606 -4,459 Z"
   id="path11" />
  </g>
  <g
   id="bullet-char-template-61548"
   transform="scale(0.00048828125,-0.00048828125)">
   <path
   d="M 173,740 C 173,903 231,1043 346,1159 462,1274 601,1332 765,1332 928,1332 1067,1274 1183,1159 1299,1043 1357,903 1357,740 1357,577 1299,437 1183,322 1067,206 928,148 765,148 601,148 462,206 346,322 231,437 173,577 173,740 Z"
   id="path12" />
  </g>
 </defs>
 
 <path
   id="path13"
   d="M 6762.7913 2041.7875 C 6749.7732 2041.7763 6736.2061 2042.1636 6722.0186 2042.9761 C 6496.0186 2054.9761 6291.9867 2131.9796 6270.9867 2281.9796 C 6266.3453 2313.4146 6263.8615 2349.3249 6263.5453 2387.2444 C 6263.3291 2391.1576 6262.7928 2394.9766 6262.9768 2398.975 C 6263.0139 2399.8653 6263.454 2407.446 6263.4936 2408.3801 C 6263.4984 2408.493 6263.5405 2409.4035 6263.5453 2409.517 C 6263.9068 2432.8244 6265.1033 2456.7239 6267.266 2480.8305 C 6282.3965 2808.4432 6374.4131 4486.9231 6429.7367 5567.5154 C 6019.8524 5643.0779 5356.3797 5801.2795 4849.0063 5946.9755 C 4336.2432 6094.2191 3898.9622 6248.4756 3538.2336 6385.2433 C 3527.2611 6151.3344 3518.0162 5927.566 3513.0155 5737.996 C 3487.0155 4900.996 3561.9968 2851.008 3607.9968 2494.008 C 3608.3415 2490.5034 3607.925 2487.21 3607.1183 2484.0344 C 3611.0386 2349.6952 3524.8032 2302.3939 3357.0044 2312.0036 C 3136.169 2323.7293 2936.4436 2397.5625 2907.8328 2540.8785 C 2906.2334 2543.9002 2905.2719 2546.9627 2904.9906 2550.0252 C 2904.7375 2553.3549 2904.5678 2561.1603 2904.3188 2564.753 C 2899.7871 2601.0349 2897.7583 2642.1027 2898.7378 2685.3658 C 2878.5392 3207.0698 2875.2839 4697.4258 2878.0155 5353.0066 C 2880.9396 6053.8198 2917.6936 8134.7552 2932.5342 8586.2975 C 2931.5143 8727.9127 2962.7363 8899.2849 3043.0184 8989.012 C 3140.0184 9095.012 3211.9791 9068.995 3346.9791 8969.995 C 3480.9791 8871.995 3568.0177 8695.0182 3604.0177 8590.0182 C 3636.0294 8496.7368 3647.7405 8424.8848 3640.0879 8371.2719 C 3634.8636 8162.9794 3606.6427 7677.1732 3577.2493 7140.0809 C 3903.1326 6991.0886 4454.458 6757.1495 4966.0018 6622.0247 C 5630.9932 6445.6574 6146.9901 6367.3754 6448.6503 6344.884 C 6449.4449 7130.8145 6402.3174 7819.9091 6403.2784 8139.2447 C 6397.3857 8286.3196 6427.0405 8475.7857 6512.9874 8571.0013 C 6609.9874 8678.0013 6681.9999 8650.9844 6816.9999 8551.9844 C 6949.9999 8454.9844 7037.9868 8278.0076 7073.9868 8172.0076 C 7095.4536 8109.007 7107.6424 8055.8719 7110.9354 8011.3972 C 7111.89 8005.6645 7112.8123 7999.901 7113.0025 7993.9823 C 7138.0025 7173.9823 7113.0104 6342.0017 7067.0104 5433.0017 C 7020.5757 4535.9214 7011.1314 3157.3208 6972.3392 2207.1521 C 6972.3704 2199.5409 6972.0864 2192.1682 6971.5124 2185.1379 C 6971.3255 2180.6414 6971.1839 2175.4552 6970.9956 2170.9786 C 6970.8956 2167.7093 6969.8904 2164.6906 6968.2568 2161.8319 C 6951.3421 2077.1415 6881.5456 2041.8899 6762.7913 2041.7875 z " />
   
  
</svg>
