<?xml version="1.0" encoding="UTF-8" standalone="no"?>
<svg
   version="1.2"
   width="100mm"
   height="100mm"
   viewBox="0 0 10000 10000"
   preserveAspectRatio="xMidYMid"
   fill-rule="evenodd"
   stroke-width="28.222"
   stroke-linejoin="round"
   xml:space="preserve"
   id="svg24"
   sodipodi:docname="gobo-caps-0066.svg"
   inkscape:version="1.4 (86a8ad7, 2024-10-11)"
   xmlns:inkscape="http://www.inkscape.org/namespaces/inkscape"
   xmlns:sodipodi="http://sodipodi.sourceforge.net/DTD/sodipodi-0.dtd"
   xmlns="http://www.w3.org/2000/svg"
   xmlns:svg="http://www.w3.org/2000/svg"
   xmlns:ooo="http://xml.openoffice.org/svg/export"><sodipodi:namedview
   id="namedview24"
   pagecolor="#ffffff"
   bordercolor="#000000"
   borderopacity="0.25"
   inkscape:showpageshadow="2"
   inkscape:pageopacity="0.0"
   inkscape:pagecheckerboard="0"
   inkscape:deskcolor="#d1d1d1"
   inkscape:document-units="mm"
   showgrid="false"
   inkscape:zoom="3.0876875"
   inkscape:cx="188.81444"
   inkscape:cy="188.97638"
   inkscape:window-width="2560"
   inkscape:window-height="1369"
   inkscape:window-x="-8"
   inkscape:window-y="-8"
   inkscape:window-maximized="1"
   inkscape:current-layer="svg24" />
 <defs
   class="ClipPathGroup"
   id="defs2">
  
  <clipPath
   id="presentation_clip_path_shrink"
   clipPathUnits="userSpaceOnUse">
   <rect
   x="10"
   y="10"
   width="9980"
   height="9980"
   id="rect2" />
  </clipPath>
 
  
 
   
  
    
   
     
    
      
      
      
      
      
      
      
      
      
     
       
      
       
      
       
      
       
      
       
      
       
      
       
      
       
      
       
      
        
        
       
        
        
       
        
        
       
        
        
       
        
        
       
        
        
       
        
        
       
        
        
       
        
        
       </defs>
 <defs
   class="TextShapeIndex"
   id="defs3">
  <g
   ooo:slide="id1"
   ooo:id-list="id3 id4 id5 id6 id7 id8 id9 id10 id11"
   id="g2" />
 </defs>
 <defs
   class="EmbeddedBulletChars"
   id="defs12">
  <g
   id="bullet-char-template-57356"
   transform="scale(0.00048828125,-0.00048828125)">
   <path
   d="M 580,1141 L 1163,571 580,0 -4,571 580,1141 Z"
   id="path3" />
  </g>
  <g
   id="bullet-char-template-57354"
   transform="scale(0.00048828125,-0.00048828125)">
   <path
   d="M 8,1128 L 1137,1128 1137,0 8,0 8,1128 Z"
   id="path4" />
  </g>
  <g
   id="bullet-char-template-10146"
   transform="scale(0.00048828125,-0.00048828125)">
   <path
   d="M 174,0 L 602,739 174,1481 1456,739 174,0 Z M 1358,739 L 309,1346 659,739 1358,739 Z"
   id="path5" />
  </g>
  <g
   id="bullet-char-template-10132"
   transform="scale(0.00048828125,-0.00048828125)">
   <path
   d="M 2015,739 L 1276,0 717,0 1260,543 174,543 174,936 1260,936 717,1481 1274,1481 2015,739 Z"
   id="path6" />
  </g>
  <g
   id="bullet-char-template-10007"
   transform="scale(0.00048828125,-0.00048828125)">
   <path
   d="M 0,-2 C -7,14 -16,27 -25,37 L 356,567 C 262,823 215,952 215,954 215,979 228,992 255,992 264,992 276,990 289,987 310,991 331,999 354,1012 L 381,999 492,748 772,1049 836,1024 860,1049 C 881,1039 901,1025 922,1006 886,937 835,863 770,784 769,783 710,716 594,584 L 774,223 C 774,196 753,168 711,139 L 727,119 C 717,90 699,76 672,76 641,76 570,178 457,381 L 164,-76 C 142,-110 111,-127 72,-127 30,-127 9,-110 8,-76 1,-67 -2,-52 -2,-32 -2,-23 -1,-13 0,-2 Z"
   id="path7" />
  </g>
  <g
   id="bullet-char-template-10004"
   transform="scale(0.00048828125,-0.00048828125)">
   <path
   d="M 285,-33 C 182,-33 111,30 74,156 52,228 41,333 41,471 41,549 55,616 82,672 116,743 169,778 240,778 293,778 328,747 346,684 L 369,508 C 377,444 397,411 428,410 L 1163,1116 C 1174,1127 1196,1133 1229,1133 1271,1133 1292,1118 1292,1087 L 1292,965 C 1292,929 1282,901 1262,881 L 442,47 C 390,-6 338,-33 285,-33 Z"
   id="path8" />
  </g>
  <g
   id="bullet-char-template-9679"
   transform="scale(0.00048828125,-0.00048828125)">
   <path
   d="M 813,0 C 632,0 489,54 383,161 276,268 223,411 223,592 223,773 276,916 383,1023 489,1130 632,1184 813,1184 992,1184 1136,1130 1245,1023 1353,916 1407,772 1407,592 1407,412 1353,268 1245,161 1136,54 992,0 813,0 Z"
   id="path9" />
  </g>
  <g
   id="bullet-char-template-8226"
   transform="scale(0.00048828125,-0.00048828125)">
   <path
   d="M 346,457 C 273,457 209,483 155,535 101,586 74,649 74,723 74,796 101,859 155,911 209,963 273,989 346,989 419,989 480,963 531,910 582,859 608,796 608,723 608,648 583,586 532,535 482,483 420,457 346,457 Z"
   id="path10" />
  </g>
  <g
   id="bullet-char-template-8211"
   transform="scale(0.00048828125,-0.00048828125)">
   <path
   d="M -4,459 L 1135,459 1135,606 -4,606 -4,459 Z"
   id="path11" />
  </g>
  <g
   id="bullet-char-template-61548"
   transform="scale(0.00048828125,-0.00048828125)">
   <path
   d="M 173,740 C 173,903 231,1043 346,1159 462,1274 601,1332 765,1332 928,1332 1067,1274 1183,1159 1299,1043 1357,903 1357,740 1357,577 1299,437 1183,322 1067,206 928,148 765,148 601,148 462,206 346,322 231,437 173,577 173,740 Z"
   id="path12" />
  </g>
 </defs>
 
 <path
   id="path13"
   d="M 6649.9816 3040.9513 C 6636.9086 3040.8781 6623.2522 3041.2348 6609.0022 3041.9848 C 6590.5284 3043.0475 6572.3048 3044.7129 6554.2252 3046.6357 C 6255.7499 3058.3462 5513.1216 3101.1883 4869.0051 3166.9901 C 4249.5333 3232.2447 3886.5248 3273.7132 3528.6218 3336.0237 C 3488.1208 3340.7482 3449.0924 3347.7543 3412.2982 3357.0044 C 3408.5135 3357.7133 3404.7708 3358.305 3400.981 3359.0197 C 3396.1987 3359.9481 3391.5995 3361.66 3387.0284 3363.774 C 3257.0573 3401.3614 3161.0629 3469.14 3146.9913 3568.9811 C 3123.9913 3718.9811 3147.9825 3964.9939 3249.9825 4077.9939 C 3286.9817 4118.8472 3320.5766 4140.0018 3355.6091 4145.0183 C 3365.3959 4147.9002 3376.0287 4147.9524 3387.3901 4145.38 C 3387.5793 4145.3574 3387.7692 4145.3001 3387.9586 4145.2767 C 3388.6654 4145.1108 3389.3126 4145.2065 3390.0256 4145.0183 C 3390.1382 4144.989 3390.3777 4144.9443 3390.4907 4144.9149 C 3397.8398 4143.8689 3405.3867 4141.993 3413.0216 4139.7473 C 3430.7443 4135.4357 3450.6919 4130.8058 3475.085 4125.5363 C 3551.0607 4577.1376 3570.2041 5247.4451 3573.9937 5831.9954 C 3577.9535 6442.7999 3403.9307 7525.675 3448.9367 7795.7515 C 3457.6202 7919.2599 3490.6059 8050.3621 3558.0257 8124.982 C 3654.0257 8230.982 3727.0046 8205.0168 3861.0046 8106.0168 C 3995.0046 8008.0168 4081.9915 7831.0065 4117.9915 7725.0065 C 4133.2299 7680.766 4143.7788 7641.4351 4149.9275 7606.5124 C 4151.2867 7598.793 4152.4177 7591.318 4153.3382 7584.0331 C 4153.833 7580.324 4154.621 7576.7346 4154.9918 7572.9744 C 4189.232 7224.8665 4206.0025 6740.3537 4197.2632 5904.3941 C 4371.0864 5848.3465 4590.4728 5788.9604 4866.0079 5749.9849 C 5286.0079 5688.9849 5976.9746 5672.9759 6171.9746 5684.9759 C 6225.2103 5688.4373 6282.4426 5655.6184 6361.007 5598.0045 C 6495.007 5501.0045 6581.9939 5322.9942 6617.9939 5216.9942 C 6709.9939 4947.9942 6632.9837 4857.0051 6404.9837 4869.0051 C 6397.7991 4869.4184 6390.7246 4870.1158 6383.5896 4870.6587 C 6381.2869 4870.8812 6379.3249 4870.7522 6376.975 4871.0205 C 6375.5373 4871.1816 6374.174 4871.3252 6372.7376 4871.4856 C 6359.9602 4872.5803 6347.3085 4873.8959 6334.7554 4875.413 C 5880.2762 4924.4525 5488.4863 4937.7646 4895.9802 5026.9799 C 4524.8754 5083.0418 4346.7189 5121.3754 4186.0494 5159.8917 C 4176.926 4691.6505 4167.5698 4325.8713 4170.7015 4000.2209 C 4439.5908 3957.1487 4730.714 3915.3249 4977.0088 3889.0132 C 5549.0088 3828.0132 6273.024 3849.0228 6380.024 3860.0228 C 6381.8639 3860.1947 6383.9647 3859.5151 6385.9667 3859.1959 C 6436.5563 3858.4543 6491.6446 3826.2321 6565.0256 3772.0178 C 6699.0256 3673.0178 6786.0125 3497.0075 6822.0125 3391.0075 C 6909.2 3137.8825 6846.0766 3042.0499 6649.9816 3040.9513 z " />
   
  
</svg>
