<?xml version="1.0" encoding="UTF-8" standalone="no"?>
<svg
   version="1.2"
   width="100mm"
   height="100mm"
   viewBox="0 0 10000 10000"
   preserveAspectRatio="xMidYMid"
   fill-rule="evenodd"
   stroke-width="28.222"
   stroke-linejoin="round"
   xml:space="preserve"
   id="svg21"
   sodipodi:docname="gobo-caps-0078.svg"
   inkscape:version="1.4 (86a8ad7, 2024-10-11)"
   xmlns:inkscape="http://www.inkscape.org/namespaces/inkscape"
   xmlns:sodipodi="http://sodipodi.sourceforge.net/DTD/sodipodi-0.dtd"
   xmlns="http://www.w3.org/2000/svg"
   xmlns:svg="http://www.w3.org/2000/svg"
   xmlns:ooo="http://xml.openoffice.org/svg/export"><sodipodi:namedview
   id="namedview21"
   pagecolor="#ffffff"
   bordercolor="#000000"
   borderopacity="0.25"
   inkscape:showpageshadow="2"
   inkscape:pageopacity="0.0"
   inkscape:pagecheckerboard="0"
   inkscape:deskcolor="#d1d1d1"
   inkscape:document-units="mm"
   showgrid="false"
   inkscape:zoom="3.0876875"
   inkscape:cx="188.81444"
   inkscape:cy="188.97638"
   inkscape:window-width="2560"
   inkscape:window-height="1369"
   inkscape:window-x="-8"
   inkscape:window-y="-8"
   inkscape:window-maximized="1"
   inkscape:current-layer="svg21" />
 <defs
   class="ClipPathGroup"
   id="defs2">
  
  <clipPath
   id="presentation_clip_path_shrink"
   clipPathUnits="userSpaceOnUse">
   <rect
   x="10"
   y="10"
   width="9980"
   height="9980"
   id="rect2" />
  </clipPath>
 
  
 
   
  
    
   
     
    
      
      
      
      
      
      
     
       
      
       
      
       
      
       
      
       
      
       
      
        
        
       
        
        
       
        
        
       
        
        
       
        
        
       
        
        
       </defs>
 <defs
   class="TextShapeIndex"
   id="defs3">
  <g
   ooo:slide="id1"
   ooo:id-list="id3 id4 id5 id6 id7 id8"
   id="g2" />
 </defs>
 <defs
   class="EmbeddedBulletChars"
   id="defs12">
  <g
   id="bullet-char-template-57356"
   transform="scale(0.00048828125,-0.00048828125)">
   <path
   d="M 580,1141 L 1163,571 580,0 -4,571 580,1141 Z"
   id="path3" />
  </g>
  <g
   id="bullet-char-template-57354"
   transform="scale(0.00048828125,-0.00048828125)">
   <path
   d="M 8,1128 L 1137,1128 1137,0 8,0 8,1128 Z"
   id="path4" />
  </g>
  <g
   id="bullet-char-template-10146"
   transform="scale(0.00048828125,-0.00048828125)">
   <path
   d="M 174,0 L 602,739 174,1481 1456,739 174,0 Z M 1358,739 L 309,1346 659,739 1358,739 Z"
   id="path5" />
  </g>
  <g
   id="bullet-char-template-10132"
   transform="scale(0.00048828125,-0.00048828125)">
   <path
   d="M 2015,739 L 1276,0 717,0 1260,543 174,543 174,936 1260,936 717,1481 1274,1481 2015,739 Z"
   id="path6" />
  </g>
  <g
   id="bullet-char-template-10007"
   transform="scale(0.00048828125,-0.00048828125)">
   <path
   d="M 0,-2 C -7,14 -16,27 -25,37 L 356,567 C 262,823 215,952 215,954 215,979 228,992 255,992 264,992 276,990 289,987 310,991 331,999 354,1012 L 381,999 492,748 772,1049 836,1024 860,1049 C 881,1039 901,1025 922,1006 886,937 835,863 770,784 769,783 710,716 594,584 L 774,223 C 774,196 753,168 711,139 L 727,119 C 717,90 699,76 672,76 641,76 570,178 457,381 L 164,-76 C 142,-110 111,-127 72,-127 30,-127 9,-110 8,-76 1,-67 -2,-52 -2,-32 -2,-23 -1,-13 0,-2 Z"
   id="path7" />
  </g>
  <g
   id="bullet-char-template-10004"
   transform="scale(0.00048828125,-0.00048828125)">
   <path
   d="M 285,-33 C 182,-33 111,30 74,156 52,228 41,333 41,471 41,549 55,616 82,672 116,743 169,778 240,778 293,778 328,747 346,684 L 369,508 C 377,444 397,411 428,410 L 1163,1116 C 1174,1127 1196,1133 1229,1133 1271,1133 1292,1118 1292,1087 L 1292,965 C 1292,929 1282,901 1262,881 L 442,47 C 390,-6 338,-33 285,-33 Z"
   id="path8" />
  </g>
  <g
   id="bullet-char-template-9679"
   transform="scale(0.00048828125,-0.00048828125)">
   <path
   d="M 813,0 C 632,0 489,54 383,161 276,268 223,411 223,592 223,773 276,916 383,1023 489,1130 632,1184 813,1184 992,1184 1136,1130 1245,1023 1353,916 1407,772 1407,592 1407,412 1353,268 1245,161 1136,54 992,0 813,0 Z"
   id="path9" />
  </g>
  <g
   id="bullet-char-template-8226"
   transform="scale(0.00048828125,-0.00048828125)">
   <path
   d="M 346,457 C 273,457 209,483 155,535 101,586 74,649 74,723 74,796 101,859 155,911 209,963 273,989 346,989 419,989 480,963 531,910 582,859 608,796 608,723 608,648 583,586 532,535 482,483 420,457 346,457 Z"
   id="path10" />
  </g>
  <g
   id="bullet-char-template-8211"
   transform="scale(0.00048828125,-0.00048828125)">
   <path
   d="M -4,459 L 1135,459 1135,606 -4,606 -4,459 Z"
   id="path11" />
  </g>
  <g
   id="bullet-char-template-61548"
   transform="scale(0.00048828125,-0.00048828125)">
   <path
   d="M 173,740 C 173,903 231,1043 346,1159 462,1274 601,1332 765,1332 928,1332 1067,1274 1183,1159 1299,1043 1357,903 1357,740 1357,577 1299,437 1183,322 1067,206 928,148 765,148 601,148 462,206 346,322 231,437 173,577 173,740 Z"
   id="path12" />
  </g>
 </defs>
 
 <path
   id="path13"
   d="M 6537.7921 3041.7781 C 6524.774 3041.7669 6511.2069 3042.2059 6497.0194 3043.0184 C 6304.9787 3053.2152 6128.8693 3110.366 6067.3815 3219.3384 C 5907.3417 3439.4111 5416.9581 4148.4471 5020.5721 4752.1647 C 4552.1596 4140.8055 4130.3831 3609.0035 3938.9843 3328.0139 C 3934.0647 3320.7413 3928.1163 3315.7522 3921.7244 3311.7358 C 3921.7073 3311.7186 3921.6898 3311.7013 3921.6727 3311.6841 C 3881.3715 3271.1795 3810.8545 3256.7753 3712.0215 3262.0231 C 3485.0215 3275.0231 3281.0077 3353.0084 3260.0077 3502.0084 C 3238.0077 3651.0084 3260.9988 3897.0213 3362.9988 4011.0213 C 3368.0451 4016.4838 3373.01 4021.3441 3377.9333 4026.1108 C 3523.4482 4201.8933 4111.9998 4893.659 4564.0108 5476.3582 C 4169.718 6129.1912 3482.9496 7269.3082 3290.3934 7587.1337 C 3286.266 7593.1177 3282.6617 7599.3142 3279.283 7605.6339 C 3278.3788 7607.1257 3273.8571 7614.5716 3272.9785 7616.0209 C 3270.3499 7620.4815 3268.9842 7625.6204 3268.1209 7631.0587 C 3264.4346 7641.6455 3261.617 7652.5582 3260.0077 7663.9766 C 3238.0077 7813.9766 3260.9988 8059.9894 3362.9988 8172.9894 C 3459.9988 8278.9894 3532.0113 8253.0242 3667.0113 8154.0242 C 3720.2889 8114.767 3766.1884 8062.7362 3804.5739 8007.8316 C 3810.705 8002.2384 3816.3903 7995.934 3821.0071 7987.9878 C 3826.5017 7978.5566 3837.8753 7957.306 3845.0883 7944.4246 C 3852.4941 7931.7107 3859.4838 7919.1209 3866.0689 7906.5974 C 4039.5024 7590.87 4525.867 6652.8499 4926.5726 5967.491 C 5341.0878 6571.9732 5969.3655 7543.2413 6125.9826 7822.985 C 6129.5858 7829.3763 6134.4215 7833.7083 6139.7802 7837.1443 C 6142.7852 7840.8875 6145.8234 7844.5009 6148.9786 7847.9964 C 6245.9786 7953.9964 6317.9911 7927.9794 6452.9911 7828.9794 C 6585.9911 7730.9794 6673.978 7554.0026 6709.978 7449.0026 C 6756.8662 7311.3958 6759.7672 7220.3904 6721.2434 7165.7124 C 6721.1197 7165.5 6721.1126 7165.1982 6720.9851 7164.989 C 6533.0305 6860.1715 5964.6721 6009.6149 5390.1619 5239.3701 C 5839.6787 4584.8842 6397.2311 3869.2423 6574.0173 3652.0251 C 6576.7085 3648.6439 6578.5274 3644.7532 6579.8567 3640.6046 C 6642.7925 3554.3076 6686.0767 3458.4924 6708.9961 3391.0075 C 6796.1836 3136.945 6733.0631 3041.9466 6537.7921 3041.7781 z " />
   
  
</svg>
