<?xml version="1.0" encoding="UTF-8" standalone="no"?>
<svg
   version="1.2"
   width="100mm"
   height="100mm"
   viewBox="0 0 10000 10000"
   preserveAspectRatio="xMidYMid"
   fill-rule="evenodd"
   stroke-width="28.222"
   stroke-linejoin="round"
   xml:space="preserve"
   id="svg21"
   sodipodi:docname="gobo-caps-0058.svg"
   inkscape:version="1.4 (86a8ad7, 2024-10-11)"
   xmlns:inkscape="http://www.inkscape.org/namespaces/inkscape"
   xmlns:sodipodi="http://sodipodi.sourceforge.net/DTD/sodipodi-0.dtd"
   xmlns="http://www.w3.org/2000/svg"
   xmlns:svg="http://www.w3.org/2000/svg"
   xmlns:ooo="http://xml.openoffice.org/svg/export"><sodipodi:namedview
   id="namedview21"
   pagecolor="#ffffff"
   bordercolor="#000000"
   borderopacity="0.25"
   inkscape:showpageshadow="2"
   inkscape:pageopacity="0.0"
   inkscape:pagecheckerboard="0"
   inkscape:deskcolor="#d1d1d1"
   inkscape:document-units="mm"
   showgrid="false"
   inkscape:zoom="3.0876875"
   inkscape:cx="188.81444"
   inkscape:cy="188.97638"
   inkscape:window-width="2560"
   inkscape:window-height="1369"
   inkscape:window-x="-8"
   inkscape:window-y="-8"
   inkscape:window-maximized="1"
   inkscape:current-layer="svg21" />
 <defs
   class="ClipPathGroup"
   id="defs2">
  
  <clipPath
   id="presentation_clip_path_shrink"
   clipPathUnits="userSpaceOnUse">
   <rect
   x="10"
   y="10"
   width="9980"
   height="9980"
   id="rect2" />
  </clipPath>
 
  
 
   
  
    
   
     
    
      
      
      
      
      
      
     
       
      
       
      
       
      
       
      
       
      
       
      
        
        
       
        
        
       
        
        
       
        
        
       
        
        
       
        
        
       </defs>
 <defs
   class="TextShapeIndex"
   id="defs3">
  <g
   ooo:slide="id1"
   ooo:id-list="id3 id4 id5 id6 id7 id8"
   id="g2" />
 </defs>
 <defs
   class="EmbeddedBulletChars"
   id="defs12">
  <g
   id="bullet-char-template-57356"
   transform="scale(0.00048828125,-0.00048828125)">
   <path
   d="M 580,1141 L 1163,571 580,0 -4,571 580,1141 Z"
   id="path3" />
  </g>
  <g
   id="bullet-char-template-57354"
   transform="scale(0.00048828125,-0.00048828125)">
   <path
   d="M 8,1128 L 1137,1128 1137,0 8,0 8,1128 Z"
   id="path4" />
  </g>
  <g
   id="bullet-char-template-10146"
   transform="scale(0.00048828125,-0.00048828125)">
   <path
   d="M 174,0 L 602,739 174,1481 1456,739 174,0 Z M 1358,739 L 309,1346 659,739 1358,739 Z"
   id="path5" />
  </g>
  <g
   id="bullet-char-template-10132"
   transform="scale(0.00048828125,-0.00048828125)">
   <path
   d="M 2015,739 L 1276,0 717,0 1260,543 174,543 174,936 1260,936 717,1481 1274,1481 2015,739 Z"
   id="path6" />
  </g>
  <g
   id="bullet-char-template-10007"
   transform="scale(0.00048828125,-0.00048828125)">
   <path
   d="M 0,-2 C -7,14 -16,27 -25,37 L 356,567 C 262,823 215,952 215,954 215,979 228,992 255,992 264,992 276,990 289,987 310,991 331,999 354,1012 L 381,999 492,748 772,1049 836,1024 860,1049 C 881,1039 901,1025 922,1006 886,937 835,863 770,784 769,783 710,716 594,584 L 774,223 C 774,196 753,168 711,139 L 727,119 C 717,90 699,76 672,76 641,76 570,178 457,381 L 164,-76 C 142,-110 111,-127 72,-127 30,-127 9,-110 8,-76 1,-67 -2,-52 -2,-32 -2,-23 -1,-13 0,-2 Z"
   id="path7" />
  </g>
  <g
   id="bullet-char-template-10004"
   transform="scale(0.00048828125,-0.00048828125)">
   <path
   d="M 285,-33 C 182,-33 111,30 74,156 52,228 41,333 41,471 41,549 55,616 82,672 116,743 169,778 240,778 293,778 328,747 346,684 L 369,508 C 377,444 397,411 428,410 L 1163,1116 C 1174,1127 1196,1133 1229,1133 1271,1133 1292,1118 1292,1087 L 1292,965 C 1292,929 1282,901 1262,881 L 442,47 C 390,-6 338,-33 285,-33 Z"
   id="path8" />
  </g>
  <g
   id="bullet-char-template-9679"
   transform="scale(0.00048828125,-0.00048828125)">
   <path
   d="M 813,0 C 632,0 489,54 383,161 276,268 223,411 223,592 223,773 276,916 383,1023 489,1130 632,1184 813,1184 992,1184 1136,1130 1245,1023 1353,916 1407,772 1407,592 1407,412 1353,268 1245,161 1136,54 992,0 813,0 Z"
   id="path9" />
  </g>
  <g
   id="bullet-char-template-8226"
   transform="scale(0.00048828125,-0.00048828125)">
   <path
   d="M 346,457 C 273,457 209,483 155,535 101,586 74,649 74,723 74,796 101,859 155,911 209,963 273,989 346,989 419,989 480,963 531,910 582,859 608,796 608,723 608,648 583,586 532,535 482,483 420,457 346,457 Z"
   id="path10" />
  </g>
  <g
   id="bullet-char-template-8211"
   transform="scale(0.00048828125,-0.00048828125)">
   <path
   d="M -4,459 L 1135,459 1135,606 -4,606 -4,459 Z"
   id="path11" />
  </g>
  <g
   id="bullet-char-template-61548"
   transform="scale(0.00048828125,-0.00048828125)">
   <path
   d="M 173,740 C 173,903 231,1043 346,1159 462,1274 601,1332 765,1332 928,1332 1067,1274 1183,1159 1299,1043 1357,903 1357,740 1357,577 1299,437 1183,322 1067,206 928,148 765,148 601,148 462,206 346,322 231,437 173,577 173,740 Z"
   id="path12" />
  </g>
 </defs>
 
 <path
   id="path13"
   d="M 7040.9655 2011.9702 C 7027.8996 2011.897 7014.2361 2012.2537 6999.9861 2013.0037 C 6819.261 2023.3994 6652.6994 2074.7486 6582.4405 2171.5987 C 6581.8025 2172.2724 6580.5709 2172.2263 6580.0117 2172.994 C 6420.2618 2390.4754 5569.514 3706.0724 5028.7886 4561.8404 C 4424.3081 3762.1031 3623.1664 2713.1635 3406.5621 2398.975 C 3373.8143 2334.7059 3295.0385 2311.5741 3172.9846 2317.998 C 2945.9846 2330.998 2743.0044 2408.0015 2722.0044 2557.0015 C 2701.2205 2692.5488 2718.809 2906.4897 2797.6587 3029.8409 C 2798.1539 3030.8338 2798.3467 3032.1854 2799.0023 3032.9931 C 2799.49 3033.5943 2803.4343 3038.4902 2803.9632 3039.1426 C 2810.592 3048.7239 2817.5469 3057.7625 2824.9955 3066.0144 C 2826.1152 3067.2624 2827.1892 3068.265 2828.3028 3069.4767 C 2981.0002 3258.26 3981.0837 4502.5876 4578.4802 5291.6666 C 4125.1032 6065.2896 2986.5515 8140.6522 2805.9786 8440.9834 C 2805.1496 8442.3692 2805.4868 8444.2699 2804.8417 8445.7376 C 2796.9878 8462.0617 2791.5722 8479.4458 2788.977 8497.9825 C 2765.977 8646.9825 2788.9863 8893.0135 2890.9863 9006.0135 C 2987.9863 9112.0135 3059.9988 9085.9966 3194.9988 8986.9966 C 3293.2972 8915.8402 3366.2142 8801.7169 3412.3498 8704.0681 C 3593.708 8370.3494 4453.8926 6639.2425 4939.2334 5785.1249 C 5368.6789 6412.7687 6486.6118 8206.0896 6649.6199 8496.3289 C 6660.9462 8516.6797 6673.6872 8535.1441 6688.0155 8551.0025 C 6784.0155 8657.0025 6856.9944 8630.9856 6990.9944 8531.9856 C 7124.9944 8432.9856 7211.9813 8256.9753 7247.9813 8150.9753 C 7299.73 8000.737 7298.5057 7906.0126 7247.9813 7853.5257 C 7054.592 7537.6217 5994.1793 5856.8292 5396.6731 5050.4927 C 5969.1073 4177.0141 6882.6511 2860.4451 7065.9769 2636.0148 C 7066.5826 2635.2338 7066.4261 2633.9973 7066.9588 2633.1726 C 7139.0288 2542.0404 7188.1602 2435.1035 7212.9964 2361.9747 C 7299.2464 2108.8497 7236.9543 2013.0688 7040.9655 2011.9702 z " />
   
  
</svg>
