<?xml version="1.0" encoding="UTF-8" standalone="no"?>
<svg
   version="1.2"
   width="100mm"
   height="100mm"
   viewBox="0 0 10000 10000"
   preserveAspectRatio="xMidYMid"
   fill-rule="evenodd"
   stroke-width="28.222"
   stroke-linejoin="round"
   xml:space="preserve"
   id="svg22"
   sodipodi:docname="gobo-caps-007D.svg"
   inkscape:version="1.4 (86a8ad7, 2024-10-11)"
   xmlns:inkscape="http://www.inkscape.org/namespaces/inkscape"
   xmlns:sodipodi="http://sodipodi.sourceforge.net/DTD/sodipodi-0.dtd"
   xmlns="http://www.w3.org/2000/svg"
   xmlns:svg="http://www.w3.org/2000/svg"
   xmlns:ooo="http://xml.openoffice.org/svg/export"><sodipodi:namedview
   id="namedview22"
   pagecolor="#ffffff"
   bordercolor="#000000"
   borderopacity="0.25"
   inkscape:showpageshadow="2"
   inkscape:pageopacity="0.0"
   inkscape:pagecheckerboard="0"
   inkscape:deskcolor="#d1d1d1"
   inkscape:document-units="mm"
   showgrid="false"
   inkscape:zoom="3.0876875"
   inkscape:cx="188.81444"
   inkscape:cy="188.97638"
   inkscape:window-width="2560"
   inkscape:window-height="1369"
   inkscape:window-x="-8"
   inkscape:window-y="-8"
   inkscape:window-maximized="1"
   inkscape:current-layer="svg22" />
 <defs
   class="ClipPathGroup"
   id="defs2">
  
  <clipPath
   id="presentation_clip_path_shrink"
   clipPathUnits="userSpaceOnUse">
   <rect
   x="10"
   y="10"
   width="9980"
   height="9980"
   id="rect2" />
  </clipPath>
 
  
 
   
  
    
   
     
    
      
      
      
      
      
      
      
     
       
      
       
      
       
      
       
      
       
      
       
      
       
      
        
        
       
        
        
       
        
        
       
        
        
       
        
        
       
        
        
       
        
        
       </defs>
 <defs
   class="TextShapeIndex"
   id="defs3">
  <g
   ooo:slide="id1"
   ooo:id-list="id3 id4 id5 id6 id7 id8 id9"
   id="g2" />
 </defs>
 <defs
   class="EmbeddedBulletChars"
   id="defs12">
  <g
   id="bullet-char-template-57356"
   transform="scale(0.00048828125,-0.00048828125)">
   <path
   d="M 580,1141 L 1163,571 580,0 -4,571 580,1141 Z"
   id="path3" />
  </g>
  <g
   id="bullet-char-template-57354"
   transform="scale(0.00048828125,-0.00048828125)">
   <path
   d="M 8,1128 L 1137,1128 1137,0 8,0 8,1128 Z"
   id="path4" />
  </g>
  <g
   id="bullet-char-template-10146"
   transform="scale(0.00048828125,-0.00048828125)">
   <path
   d="M 174,0 L 602,739 174,1481 1456,739 174,0 Z M 1358,739 L 309,1346 659,739 1358,739 Z"
   id="path5" />
  </g>
  <g
   id="bullet-char-template-10132"
   transform="scale(0.00048828125,-0.00048828125)">
   <path
   d="M 2015,739 L 1276,0 717,0 1260,543 174,543 174,936 1260,936 717,1481 1274,1481 2015,739 Z"
   id="path6" />
  </g>
  <g
   id="bullet-char-template-10007"
   transform="scale(0.00048828125,-0.00048828125)">
   <path
   d="M 0,-2 C -7,14 -16,27 -25,37 L 356,567 C 262,823 215,952 215,954 215,979 228,992 255,992 264,992 276,990 289,987 310,991 331,999 354,1012 L 381,999 492,748 772,1049 836,1024 860,1049 C 881,1039 901,1025 922,1006 886,937 835,863 770,784 769,783 710,716 594,584 L 774,223 C 774,196 753,168 711,139 L 727,119 C 717,90 699,76 672,76 641,76 570,178 457,381 L 164,-76 C 142,-110 111,-127 72,-127 30,-127 9,-110 8,-76 1,-67 -2,-52 -2,-32 -2,-23 -1,-13 0,-2 Z"
   id="path7" />
  </g>
  <g
   id="bullet-char-template-10004"
   transform="scale(0.00048828125,-0.00048828125)">
   <path
   d="M 285,-33 C 182,-33 111,30 74,156 52,228 41,333 41,471 41,549 55,616 82,672 116,743 169,778 240,778 293,778 328,747 346,684 L 369,508 C 377,444 397,411 428,410 L 1163,1116 C 1174,1127 1196,1133 1229,1133 1271,1133 1292,1118 1292,1087 L 1292,965 C 1292,929 1282,901 1262,881 L 442,47 C 390,-6 338,-33 285,-33 Z"
   id="path8" />
  </g>
  <g
   id="bullet-char-template-9679"
   transform="scale(0.00048828125,-0.00048828125)">
   <path
   d="M 813,0 C 632,0 489,54 383,161 276,268 223,411 223,592 223,773 276,916 383,1023 489,1130 632,1184 813,1184 992,1184 1136,1130 1245,1023 1353,916 1407,772 1407,592 1407,412 1353,268 1245,161 1136,54 992,0 813,0 Z"
   id="path9" />
  </g>
  <g
   id="bullet-char-template-8226"
   transform="scale(0.00048828125,-0.00048828125)">
   <path
   d="M 346,457 C 273,457 209,483 155,535 101,586 74,649 74,723 74,796 101,859 155,911 209,963 273,989 346,989 419,989 480,963 531,910 582,859 608,796 608,723 608,648 583,586 532,535 482,483 420,457 346,457 Z"
   id="path10" />
  </g>
  <g
   id="bullet-char-template-8211"
   transform="scale(0.00048828125,-0.00048828125)">
   <path
   d="M -4,459 L 1135,459 1135,606 -4,606 -4,459 Z"
   id="path11" />
  </g>
  <g
   id="bullet-char-template-61548"
   transform="scale(0.00048828125,-0.00048828125)">
   <path
   d="M 173,740 C 173,903 231,1043 346,1159 462,1274 601,1332 765,1332 928,1332 1067,1274 1183,1159 1299,1043 1357,903 1357,740 1357,577 1299,437 1183,322 1067,206 928,148 765,148 601,148 462,206 346,322 231,437 173,577 173,740 Z"
   id="path12" />
  </g>
 </defs>
 
 <path
   id="path13"
   d="M 4883.3711 2190.4089 C 4780.1773 2187.7766 4659.1102 2197.1916 4516.9852 2218.0041 C 4387.9272 2237.691 4236.1533 2267.2347 4134.838 2285.8036 C 3936.1039 2308.8609 3767.9759 2384.5354 3749.0218 2519.0193 C 3727.0218 2669.0193 3750.0129 2914.9805 3852.0129 3027.9805 C 3886.78 3065.9734 3918.3191 3086.9704 3950.7149 3093.7646 C 3955.7355 3095.8572 3961.0438 3097.2535 3966.993 3097.0202 C 3969.6816 3096.8806 3972.9268 3096.3716 3975.6746 3096.1934 C 3983.0623 3096.1321 3990.5345 3095.457 3998.1539 3094.0747 C 3998.3086 3094.0466 3998.4641 3094.0516 3998.6189 3094.023 C 4154.111 3079.2311 4388.7817 3013.7771 4621.0099 2966.0205 C 4870.0099 2911.0205 4841.018 2943.9782 4911.018 3870.9782 C 4933.9664 4476.8141 4884.2999 5253.726 5128.9375 5643.3764 C 5002.2316 5874.0159 4934.0053 6145.0703 4928.0196 6407.9809 C 4916.2936 6921.2158 4948.0693 7365.4017 4858.3597 8063.7971 C 4623.2656 8100.6502 4407.2733 8121.0155 4287.4902 8123.1217 C 4278.1589 8122.9645 4268.5589 8122.9948 4258.6031 8123.2767 C 4252.6084 8123.2153 4246.2535 8123.2053 4240.9814 8123.0183 C 4236.8561 8122.933 4232.4466 8123.6392 4227.8039 8124.9304 C 4006.7339 8139.9751 3809.6388 8216.7036 3789.0193 8363.9855 C 3767.0193 8512.9855 3790.0105 8759.0165 3892.0105 8872.0165 C 3942.6594 8927.3648 3986.4881 8946.6512 4036.0327 8938.4207 C 4051.3909 8938.8586 4067.9245 8938.1706 4086.0038 8935.992 C 4548.1808 8879.3191 4619.522 8882.2705 5054.3685 8810.6249 C 5106.3436 8811.7654 5162.8161 8778.856 5239.0083 8722.9817 C 5372.0083 8625.9817 5458.9952 8449.0049 5495.9952 8343.0049 C 5522.7914 8264.364 5535.152 8201.0202 5533.719 8150.8719 C 5560.3908 7730.4985 5541.0578 6911.2098 5547.9817 6475.0052 C 5555.9236 6037.2101 5499.2311 5933.5353 5781.1458 5862.5878 C 5789.2688 5860.6855 5796.948 5859.437 5805.227 5857.3168 C 5850.3894 5849.5948 5900.2622 5819.0719 5963.977 5771.9991 C 6097.977 5673.9991 6185.0156 5496.9887 6221.0156 5390.9887 C 6314.0156 5120.9887 6235.9872 5031.0178 6008.9872 5042.0178 C 5952.9358 5045.242 5898.2837 5052.4613 5847.395 5063.7736 C 5520.4996 5110.2643 5567.5762 4699.1442 5549.0153 4240.9814 C 5532.0153 3772.9814 5512.9882 3225.0008 5484.9882 2950.0008 C 5442.7382 2438.9383 5330.5445 2201.8157 4883.3711 2190.4089 z " />
   
  
</svg>
