<?xml version="1.0" encoding="UTF-8" standalone="no"?>
<svg
   version="1.2"
   width="100mm"
   height="100mm"
   viewBox="0 0 10000 10000"
   preserveAspectRatio="xMidYMid"
   fill-rule="evenodd"
   stroke-width="28.222"
   stroke-linejoin="round"
   xml:space="preserve"
   id="svg22"
   sodipodi:docname="gobo-caps-007A.svg"
   inkscape:version="1.4 (86a8ad7, 2024-10-11)"
   xmlns:inkscape="http://www.inkscape.org/namespaces/inkscape"
   xmlns:sodipodi="http://sodipodi.sourceforge.net/DTD/sodipodi-0.dtd"
   xmlns="http://www.w3.org/2000/svg"
   xmlns:svg="http://www.w3.org/2000/svg"
   xmlns:ooo="http://xml.openoffice.org/svg/export"><sodipodi:namedview
   id="namedview22"
   pagecolor="#ffffff"
   bordercolor="#000000"
   borderopacity="0.25"
   inkscape:showpageshadow="2"
   inkscape:pageopacity="0.0"
   inkscape:pagecheckerboard="0"
   inkscape:deskcolor="#d1d1d1"
   inkscape:document-units="mm"
   showgrid="false"
   inkscape:zoom="3.0876875"
   inkscape:cx="188.81444"
   inkscape:cy="188.97638"
   inkscape:window-width="2560"
   inkscape:window-height="1369"
   inkscape:window-x="-8"
   inkscape:window-y="-8"
   inkscape:window-maximized="1"
   inkscape:current-layer="svg22" />
 <defs
   class="ClipPathGroup"
   id="defs2">
  
  <clipPath
   id="presentation_clip_path_shrink"
   clipPathUnits="userSpaceOnUse">
   <rect
   x="10"
   y="10"
   width="9980"
   height="9980"
   id="rect2" />
  </clipPath>
 
  
 
   
  
    
   
     
    
      
      
      
      
      
      
      
     
       
      
       
      
       
      
       
      
       
      
       
      
       
      
        
        
       
        
        
       
        
        
       
        
        
       
        
        
       
        
        
       
        
        
       </defs>
 <defs
   class="TextShapeIndex"
   id="defs3">
  <g
   ooo:slide="id1"
   ooo:id-list="id3 id4 id5 id6 id7 id8 id9"
   id="g2" />
 </defs>
 <defs
   class="EmbeddedBulletChars"
   id="defs12">
  <g
   id="bullet-char-template-57356"
   transform="scale(0.00048828125,-0.00048828125)">
   <path
   d="M 580,1141 L 1163,571 580,0 -4,571 580,1141 Z"
   id="path3" />
  </g>
  <g
   id="bullet-char-template-57354"
   transform="scale(0.00048828125,-0.00048828125)">
   <path
   d="M 8,1128 L 1137,1128 1137,0 8,0 8,1128 Z"
   id="path4" />
  </g>
  <g
   id="bullet-char-template-10146"
   transform="scale(0.00048828125,-0.00048828125)">
   <path
   d="M 174,0 L 602,739 174,1481 1456,739 174,0 Z M 1358,739 L 309,1346 659,739 1358,739 Z"
   id="path5" />
  </g>
  <g
   id="bullet-char-template-10132"
   transform="scale(0.00048828125,-0.00048828125)">
   <path
   d="M 2015,739 L 1276,0 717,0 1260,543 174,543 174,936 1260,936 717,1481 1274,1481 2015,739 Z"
   id="path6" />
  </g>
  <g
   id="bullet-char-template-10007"
   transform="scale(0.00048828125,-0.00048828125)">
   <path
   d="M 0,-2 C -7,14 -16,27 -25,37 L 356,567 C 262,823 215,952 215,954 215,979 228,992 255,992 264,992 276,990 289,987 310,991 331,999 354,1012 L 381,999 492,748 772,1049 836,1024 860,1049 C 881,1039 901,1025 922,1006 886,937 835,863 770,784 769,783 710,716 594,584 L 774,223 C 774,196 753,168 711,139 L 727,119 C 717,90 699,76 672,76 641,76 570,178 457,381 L 164,-76 C 142,-110 111,-127 72,-127 30,-127 9,-110 8,-76 1,-67 -2,-52 -2,-32 -2,-23 -1,-13 0,-2 Z"
   id="path7" />
  </g>
  <g
   id="bullet-char-template-10004"
   transform="scale(0.00048828125,-0.00048828125)">
   <path
   d="M 285,-33 C 182,-33 111,30 74,156 52,228 41,333 41,471 41,549 55,616 82,672 116,743 169,778 240,778 293,778 328,747 346,684 L 369,508 C 377,444 397,411 428,410 L 1163,1116 C 1174,1127 1196,1133 1229,1133 1271,1133 1292,1118 1292,1087 L 1292,965 C 1292,929 1282,901 1262,881 L 442,47 C 390,-6 338,-33 285,-33 Z"
   id="path8" />
  </g>
  <g
   id="bullet-char-template-9679"
   transform="scale(0.00048828125,-0.00048828125)">
   <path
   d="M 813,0 C 632,0 489,54 383,161 276,268 223,411 223,592 223,773 276,916 383,1023 489,1130 632,1184 813,1184 992,1184 1136,1130 1245,1023 1353,916 1407,772 1407,592 1407,412 1353,268 1245,161 1136,54 992,0 813,0 Z"
   id="path9" />
  </g>
  <g
   id="bullet-char-template-8226"
   transform="scale(0.00048828125,-0.00048828125)">
   <path
   d="M 346,457 C 273,457 209,483 155,535 101,586 74,649 74,723 74,796 101,859 155,911 209,963 273,989 346,989 419,989 480,963 531,910 582,859 608,796 608,723 608,648 583,586 532,535 482,483 420,457 346,457 Z"
   id="path10" />
  </g>
  <g
   id="bullet-char-template-8211"
   transform="scale(0.00048828125,-0.00048828125)">
   <path
   d="M -4,459 L 1135,459 1135,606 -4,606 -4,459 Z"
   id="path11" />
  </g>
  <g
   id="bullet-char-template-61548"
   transform="scale(0.00048828125,-0.00048828125)">
   <path
   d="M 173,740 C 173,903 231,1043 346,1159 462,1274 601,1332 765,1332 928,1332 1067,1274 1183,1159 1299,1043 1357,903 1357,740 1357,577 1299,437 1183,322 1067,206 928,148 765,148 601,148 462,206 346,322 231,437 173,577 173,740 Z"
   id="path12" />
  </g>
 </defs>
 
 <path
   id="path13"
   d="M 6643.9872 3053.9738 C 6630.9142 3053.9003 6617.2578 3054.2573 6603.0078 3055.0073 C 6584.6993 3056.0651 6566.5989 3057.6847 6548.6442 3059.6065 C 6249.7031 3071.3509 5506.7798 3114.3018 4863.0106 3180.9944 C 4243.4188 3245.3676 3880.3911 3287.5291 3522.4206 3349.3046 C 3484.2243 3353.875 3447.3467 3360.3808 3412.4015 3368.8899 C 3406.5796 3369.9628 3400.8204 3370.9048 3394.9865 3371.9905 C 3389.2788 3373.0985 3383.7529 3375.2499 3378.3467 3378.0367 C 3249.7585 3415.7812 3154.9703 3482.8591 3140.9969 3582.0036 C 3118.9969 3732.0036 3141.988 3978.0164 3243.988 4091.0164 C 3284.5625 4135.7738 3320.8048 4156.981 3359.0714 4159.3843 C 3363.4299 4159.9174 3367.9169 4159.9909 3372.559 4159.5394 C 3385.3875 4158.8917 3398.6222 4155.9719 3412.2982 4151.4778 C 3642.582 4096.1869 4420.0149 3960.9159 4971.0144 3903.0175 C 5216.7437 3876.8121 5488.3981 3866.201 5729.2627 3862.9683 C 5376.3023 4365.3249 4950.8213 4970.9444 4613.9819 5444.9906 C 4096.9819 6172.9906 3305.976 7259.9787 3144.976 7586.9787 C 3142.2814 7591.213 3140.7817 7596.0751 3139.7566 7601.1897 C 3134.684 7613.8561 3131.0598 7627.0838 3129.008 7640.9806 C 3107.008 7789.9806 3129.9809 8035.9934 3232.9809 8149.9934 C 3269.4168 8190.2247 3302.5518 8211.3835 3336.9539 8216.8111 C 3346.4306 8219.6795 3356.7355 8219.7995 3367.7014 8217.5862 C 3378.3861 8216.5153 3389.3868 8213.9649 3400.671 8210.2998 C 3632.1858 8153.432 4424.1248 8008.8568 4975.9753 7950.0056 C 5547.9753 7889.0056 6140.0046 7843.9837 6401.0046 7842.9837 C 6402.6097 7843.0878 6404.3864 7842.4206 6406.0689 7842.1569 C 6456.2225 7840.6012 6511.0416 7808.4749 6583.9908 7754.9788 C 6716.9908 7656.9788 6804.9959 7480.002 6839.9959 7375.002 C 6932.9959 7104.002 6855.0192 7013.9794 6628.0192 7025.9794 C 6592.5238 7027.8558 6557.6979 7031.5534 6523.9428 7036.6764 C 6200.6001 7070.7756 5517.0402 7171.8652 4923.9888 7232.9951 C 4602.7454 7266.6021 4321.878 7296.7937 4070.6042 7328.0281 C 4380.0397 6825.1793 4821.6249 6131.2683 5168.0049 5632.9895 C 5712.0049 4849.9895 6445.9903 3948.9931 6677.9903 3667.9931 C 6680.5985 3664.8567 6682.542 3661.2949 6683.9331 3657.3995 C 6748.7021 3570.3021 6793.4487 3472.7199 6816.018 3405.0118 C 6903.2055 3150.9493 6840.0821 3055.0761 6643.9872 3053.9738 z " />
   
  
</svg>
