<?xml version="1.0" encoding="UTF-8" standalone="no"?>
<svg
   version="1.2"
   width="100mm"
   height="100mm"
   viewBox="0 0 10000 10000"
   preserveAspectRatio="xMidYMid"
   fill-rule="evenodd"
   stroke-width="28.222"
   stroke-linejoin="round"
   xml:space="preserve"
   id="svg21"
   sodipodi:docname="gobo-caps-0037.svg"
   inkscape:version="1.4 (86a8ad7, 2024-10-11)"
   xmlns:inkscape="http://www.inkscape.org/namespaces/inkscape"
   xmlns:sodipodi="http://sodipodi.sourceforge.net/DTD/sodipodi-0.dtd"
   xmlns="http://www.w3.org/2000/svg"
   xmlns:svg="http://www.w3.org/2000/svg"
   xmlns:ooo="http://xml.openoffice.org/svg/export"><sodipodi:namedview
   id="namedview21"
   pagecolor="#ffffff"
   bordercolor="#000000"
   borderopacity="0.25"
   inkscape:showpageshadow="2"
   inkscape:pageopacity="0.0"
   inkscape:pagecheckerboard="0"
   inkscape:deskcolor="#d1d1d1"
   inkscape:document-units="mm"
   showgrid="false"
   inkscape:zoom="3.0876875"
   inkscape:cx="188.81444"
   inkscape:cy="188.97638"
   inkscape:window-width="2560"
   inkscape:window-height="1369"
   inkscape:window-x="-8"
   inkscape:window-y="-8"
   inkscape:window-maximized="1"
   inkscape:current-layer="svg21" />
 <defs
   class="ClipPathGroup"
   id="defs2">
  
  <clipPath
   id="presentation_clip_path_shrink"
   clipPathUnits="userSpaceOnUse">
   <rect
   x="10"
   y="10"
   width="9980"
   height="9980"
   id="rect2" />
  </clipPath>
 
  
 
   
  
    
   
     
    
      
      
      
      
      
      
     
       
      
       
      
       
      
       
      
       
      
       
      
        
        
       
        
        
       
        
        
       
        
        
       
        
        
       
        
        
       </defs>
 <defs
   class="TextShapeIndex"
   id="defs3">
  <g
   ooo:slide="id1"
   ooo:id-list="id3 id4 id5 id6 id7 id8"
   id="g2" />
 </defs>
 <defs
   class="EmbeddedBulletChars"
   id="defs12">
  <g
   id="bullet-char-template-57356"
   transform="scale(0.00048828125,-0.00048828125)">
   <path
   d="M 580,1141 L 1163,571 580,0 -4,571 580,1141 Z"
   id="path3" />
  </g>
  <g
   id="bullet-char-template-57354"
   transform="scale(0.00048828125,-0.00048828125)">
   <path
   d="M 8,1128 L 1137,1128 1137,0 8,0 8,1128 Z"
   id="path4" />
  </g>
  <g
   id="bullet-char-template-10146"
   transform="scale(0.00048828125,-0.00048828125)">
   <path
   d="M 174,0 L 602,739 174,1481 1456,739 174,0 Z M 1358,739 L 309,1346 659,739 1358,739 Z"
   id="path5" />
  </g>
  <g
   id="bullet-char-template-10132"
   transform="scale(0.00048828125,-0.00048828125)">
   <path
   d="M 2015,739 L 1276,0 717,0 1260,543 174,543 174,936 1260,936 717,1481 1274,1481 2015,739 Z"
   id="path6" />
  </g>
  <g
   id="bullet-char-template-10007"
   transform="scale(0.00048828125,-0.00048828125)">
   <path
   d="M 0,-2 C -7,14 -16,27 -25,37 L 356,567 C 262,823 215,952 215,954 215,979 228,992 255,992 264,992 276,990 289,987 310,991 331,999 354,1012 L 381,999 492,748 772,1049 836,1024 860,1049 C 881,1039 901,1025 922,1006 886,937 835,863 770,784 769,783 710,716 594,584 L 774,223 C 774,196 753,168 711,139 L 727,119 C 717,90 699,76 672,76 641,76 570,178 457,381 L 164,-76 C 142,-110 111,-127 72,-127 30,-127 9,-110 8,-76 1,-67 -2,-52 -2,-32 -2,-23 -1,-13 0,-2 Z"
   id="path7" />
  </g>
  <g
   id="bullet-char-template-10004"
   transform="scale(0.00048828125,-0.00048828125)">
   <path
   d="M 285,-33 C 182,-33 111,30 74,156 52,228 41,333 41,471 41,549 55,616 82,672 116,743 169,778 240,778 293,778 328,747 346,684 L 369,508 C 377,444 397,411 428,410 L 1163,1116 C 1174,1127 1196,1133 1229,1133 1271,1133 1292,1118 1292,1087 L 1292,965 C 1292,929 1282,901 1262,881 L 442,47 C 390,-6 338,-33 285,-33 Z"
   id="path8" />
  </g>
  <g
   id="bullet-char-template-9679"
   transform="scale(0.00048828125,-0.00048828125)">
   <path
   d="M 813,0 C 632,0 489,54 383,161 276,268 223,411 223,592 223,773 276,916 383,1023 489,1130 632,1184 813,1184 992,1184 1136,1130 1245,1023 1353,916 1407,772 1407,592 1407,412 1353,268 1245,161 1136,54 992,0 813,0 Z"
   id="path9" />
  </g>
  <g
   id="bullet-char-template-8226"
   transform="scale(0.00048828125,-0.00048828125)">
   <path
   d="M 346,457 C 273,457 209,483 155,535 101,586 74,649 74,723 74,796 101,859 155,911 209,963 273,989 346,989 419,989 480,963 531,910 582,859 608,796 608,723 608,648 583,586 532,535 482,483 420,457 346,457 Z"
   id="path10" />
  </g>
  <g
   id="bullet-char-template-8211"
   transform="scale(0.00048828125,-0.00048828125)">
   <path
   d="M -4,459 L 1135,459 1135,606 -4,606 -4,459 Z"
   id="path11" />
  </g>
  <g
   id="bullet-char-template-61548"
   transform="scale(0.00048828125,-0.00048828125)">
   <path
   d="M 173,740 C 173,903 231,1043 346,1159 462,1274 601,1332 765,1332 928,1332 1067,1274 1183,1159 1299,1043 1357,903 1357,740 1357,577 1299,437 1183,322 1067,206 928,148 765,148 601,148 462,206 346,322 231,437 173,577 173,740 Z"
   id="path12" />
  </g>
 </defs>
 
 <path
   id="path13"
   d="M 5688.5933 3120.4297 C 5667.6041 3120.7657 5646.0603 3121.6385 5623.9978 3123.0135 C 4935.0614 3163.8826 4293.3318 3254.0054 3864.8287 3346.359 C 3855.3609 3348.2018 3845.9385 3350.0858 3836.7167 3352.1985 C 3833.9665 3352.8046 3830.7147 3353.4009 3827.9834 3354.0071 C 3825.1065 3354.6266 3822.5276 3355.6664 3819.7151 3356.3843 C 3677.0973 3392.3249 3568.9636 3461.7928 3553.9949 3567.9992 C 3531.9949 3717.9992 3554.9861 3964.0121 3656.9861 4077.0121 C 3723.0009 4149.152 3777.4901 4160.0207 3848.0855 4128.4818 C 4360.7906 3962.1535 5146.5982 3863.3817 5487.9854 3878.988 C 5837.9854 3895.988 5740.0118 4010.9856 5478.0118 4721.9856 C 5401.2963 4929.8788 5296.9647 5224.2323 5186.8668 5545.0362 C 4931.0623 5579.3488 4687.5817 5620.9134 4504.0145 5661.9799 C 4502.7843 5662.2925 4501.6613 5663.0002 4500.4488 5663.3752 C 4350.5579 5698.0484 4235.4823 5769.1756 4220.0008 5879.021 C 4198.0008 6029.021 4220.9919 6274.9821 4322.9919 6387.9821 C 4383.6983 6454.3211 4434.6028 6468.9773 4497.2965 6446.3765 C 4612.3812 6422.1152 4756.6926 6397.0039 4911.7932 6373.7711 C 4743.1812 6901.1096 4599.7146 7394.0041 4564.9926 7637.9833 C 4542.9926 7787.9833 4565.9838 8033.9962 4667.9838 8146.9962 C 4764.9838 8252.9962 4836.9962 8226.9793 4971.9962 8127.9793 C 5104.9962 8030.9793 5192.9831 7853.0025 5228.9831 7748.0025 C 5243.0564 7706.7004 5253.1403 7669.63 5259.3689 7636.433 C 5261.6371 7632.6685 5263.3828 7628.8693 5264.0197 7625.0126 C 5304.2284 7260.5285 5416.8982 6784.273 5554.8547 6296.8766 C 5733.791 6281.7021 5885.062 6275.7011 5968.0078 6284.991 C 5969.7368 6285.0506 5971.5187 6284.8756 5973.3304 6284.5776 C 6025.6046 6286.2029 6082.2828 6253.2482 6159.0039 6196.986 C 6292.0039 6099.986 6378.9908 5923.0092 6415.9908 5817.0092 C 6504.686 5556.7081 6436.2355 5462.7678 6226.9067 5467.1081 C 6226.5867 5467.0843 6226.3001 5467.0224 6225.9765 5467.0048 C 6103.5013 5464.6793 5959.0494 5470.0059 5804.6586 5480.7507 C 5974.5993 4956.4346 6143.0541 4486.232 6244.0116 4217.9854 C 6476.5116 3593.1417 6339.2584 3110.0128 5688.5933 3120.4297 z " />
   
  
</svg>
