<?xml version="1.0" encoding="UTF-8" standalone="no"?>
<svg
   version="1.2"
   width="100mm"
   height="100mm"
   viewBox="0 0 10000 10000"
   preserveAspectRatio="xMidYMid"
   fill-rule="evenodd"
   stroke-width="28.222"
   stroke-linejoin="round"
   xml:space="preserve"
   id="svg21"
   sodipodi:docname="gobo-caps-004A.svg"
   inkscape:version="1.4 (86a8ad7, 2024-10-11)"
   xmlns:inkscape="http://www.inkscape.org/namespaces/inkscape"
   xmlns:sodipodi="http://sodipodi.sourceforge.net/DTD/sodipodi-0.dtd"
   xmlns="http://www.w3.org/2000/svg"
   xmlns:svg="http://www.w3.org/2000/svg"
   xmlns:ooo="http://xml.openoffice.org/svg/export"><sodipodi:namedview
   id="namedview21"
   pagecolor="#ffffff"
   bordercolor="#000000"
   borderopacity="0.25"
   inkscape:showpageshadow="2"
   inkscape:pageopacity="0.0"
   inkscape:pagecheckerboard="0"
   inkscape:deskcolor="#d1d1d1"
   inkscape:document-units="mm"
   showgrid="false"
   inkscape:zoom="3.0876875"
   inkscape:cx="188.81444"
   inkscape:cy="188.97638"
   inkscape:window-width="2560"
   inkscape:window-height="1369"
   inkscape:window-x="-8"
   inkscape:window-y="-8"
   inkscape:window-maximized="1"
   inkscape:current-layer="svg21" />
 <defs
   class="ClipPathGroup"
   id="defs2">
  
  <clipPath
   id="presentation_clip_path_shrink"
   clipPathUnits="userSpaceOnUse">
   <rect
   x="10"
   y="10"
   width="9980"
   height="9980"
   id="rect2" />
  </clipPath>
 
  
 
   
  
    
   
     
    
      
      
      
      
      
      
     
       
      
       
      
       
      
       
      
       
      
       
      
        
        
       
        
        
       
        
        
       
        
        
       
        
        
       
        
        
       </defs>
 <defs
   class="TextShapeIndex"
   id="defs3">
  <g
   ooo:slide="id1"
   ooo:id-list="id3 id4 id5 id6 id7 id8"
   id="g2" />
 </defs>
 <defs
   class="EmbeddedBulletChars"
   id="defs12">
  <g
   id="bullet-char-template-57356"
   transform="scale(0.00048828125,-0.00048828125)">
   <path
   d="M 580,1141 L 1163,571 580,0 -4,571 580,1141 Z"
   id="path3" />
  </g>
  <g
   id="bullet-char-template-57354"
   transform="scale(0.00048828125,-0.00048828125)">
   <path
   d="M 8,1128 L 1137,1128 1137,0 8,0 8,1128 Z"
   id="path4" />
  </g>
  <g
   id="bullet-char-template-10146"
   transform="scale(0.00048828125,-0.00048828125)">
   <path
   d="M 174,0 L 602,739 174,1481 1456,739 174,0 Z M 1358,739 L 309,1346 659,739 1358,739 Z"
   id="path5" />
  </g>
  <g
   id="bullet-char-template-10132"
   transform="scale(0.00048828125,-0.00048828125)">
   <path
   d="M 2015,739 L 1276,0 717,0 1260,543 174,543 174,936 1260,936 717,1481 1274,1481 2015,739 Z"
   id="path6" />
  </g>
  <g
   id="bullet-char-template-10007"
   transform="scale(0.00048828125,-0.00048828125)">
   <path
   d="M 0,-2 C -7,14 -16,27 -25,37 L 356,567 C 262,823 215,952 215,954 215,979 228,992 255,992 264,992 276,990 289,987 310,991 331,999 354,1012 L 381,999 492,748 772,1049 836,1024 860,1049 C 881,1039 901,1025 922,1006 886,937 835,863 770,784 769,783 710,716 594,584 L 774,223 C 774,196 753,168 711,139 L 727,119 C 717,90 699,76 672,76 641,76 570,178 457,381 L 164,-76 C 142,-110 111,-127 72,-127 30,-127 9,-110 8,-76 1,-67 -2,-52 -2,-32 -2,-23 -1,-13 0,-2 Z"
   id="path7" />
  </g>
  <g
   id="bullet-char-template-10004"
   transform="scale(0.00048828125,-0.00048828125)">
   <path
   d="M 285,-33 C 182,-33 111,30 74,156 52,228 41,333 41,471 41,549 55,616 82,672 116,743 169,778 240,778 293,778 328,747 346,684 L 369,508 C 377,444 397,411 428,410 L 1163,1116 C 1174,1127 1196,1133 1229,1133 1271,1133 1292,1118 1292,1087 L 1292,965 C 1292,929 1282,901 1262,881 L 442,47 C 390,-6 338,-33 285,-33 Z"
   id="path8" />
  </g>
  <g
   id="bullet-char-template-9679"
   transform="scale(0.00048828125,-0.00048828125)">
   <path
   d="M 813,0 C 632,0 489,54 383,161 276,268 223,411 223,592 223,773 276,916 383,1023 489,1130 632,1184 813,1184 992,1184 1136,1130 1245,1023 1353,916 1407,772 1407,592 1407,412 1353,268 1245,161 1136,54 992,0 813,0 Z"
   id="path9" />
  </g>
  <g
   id="bullet-char-template-8226"
   transform="scale(0.00048828125,-0.00048828125)">
   <path
   d="M 346,457 C 273,457 209,483 155,535 101,586 74,649 74,723 74,796 101,859 155,911 209,963 273,989 346,989 419,989 480,963 531,910 582,859 608,796 608,723 608,648 583,586 532,535 482,483 420,457 346,457 Z"
   id="path10" />
  </g>
  <g
   id="bullet-char-template-8211"
   transform="scale(0.00048828125,-0.00048828125)">
   <path
   d="M -4,459 L 1135,459 1135,606 -4,606 -4,459 Z"
   id="path11" />
  </g>
  <g
   id="bullet-char-template-61548"
   transform="scale(0.00048828125,-0.00048828125)">
   <path
   d="M 173,740 C 173,903 231,1043 346,1159 462,1274 601,1332 765,1332 928,1332 1067,1274 1183,1159 1299,1043 1357,903 1357,740 1357,577 1299,437 1183,322 1067,206 928,148 765,148 601,148 462,206 346,322 231,437 173,577 173,740 Z"
   id="path12" />
  </g>
 </defs>
 
 <path
   id="path13"
   d="M 6922.9882 2024.941 C 6916.5865 2024.9086 6910.0358 2025.0337 6903.3512 2025.1994 C 6902.1778 2025.2218 6901.1906 2024.9293 6899.9922 2024.9927 C 6896.9156 2025.1666 6891.3891 2025.59 6888.2617 2025.7678 C 6886.1594 2025.862 6884.1372 2025.8625 6882.0088 2025.9745 C 6875.328 2026.3292 6868.7516 2026.9512 6862.1134 2027.4215 C 6388.314 2054.7275 5393.1062 2123.8396 4673.9782 2252.9891 C 4048.4599 2364.3245 3951.7499 2379.3512 3685.098 2452.5635 C 3509.1684 2481.6727 3367.2943 2556.1349 3349.9764 2679.0096 C 3327.9764 2829.0096 3351.0192 3075.0224 3453.0192 3188.0224 C 3497.8563 3237.0197 3537.3498 3257.7667 3580.1949 3256.1837 C 3587.6865 3260.4479 3595.0235 3261.7381 3602.0023 3258.9742 C 3795.0023 3178.9742 4335.0017 3019.0162 4798.0017 2952.0162 C 5071.5815 2912.5122 5575.2035 2873.1073 5992.244 2851.9706 C 5996.1192 2880.2973 6001.3771 2908.3876 6008.057 2935.6347 C 6134.1319 3712.5363 6265.4469 5230.9709 6321.9913 6218.0183 C 6377.9913 7214.0183 6564.9934 7767.99 5441.9934 8078.99 C 4353.4157 8379.4879 3393.664 7586.2615 3629.1325 6558.2043 C 3637.7976 6530.6642 3644.4634 6505.2539 3649.3379 6481.6198 C 3651.3905 6474.3919 3652.8512 6467.2674 3655.0224 6460.0191 C 3657.835 6448.1657 3658.313 6437.0607 3657.6062 6426.4294 C 3670.3286 6277.1865 3584.4199 6224.7016 3408.009 6233.9864 C 3194.842 6246.1942 3002.8673 6314.8754 2962.8682 6446.5832 C 2962.4157 6447.7844 2961.4237 6448.7796 2961.0079 6449.9938 C 2510.0079 8010.9938 3754.9996 9025.9787 5042.9996 8856.9787 C 6329.9996 8689.9787 6648.0211 8201.9986 6850.0211 7471.9986 C 7052.0211 6740.9986 6917.0156 5567.0139 6856.0156 4598.0139 C 6805.2225 3762.0812 6773.2228 3550.3062 6712.2517 2830.6799 C 6748.7911 2816.7305 6789.305 2790.721 6837.9805 2755.0256 C 6970.9805 2657.0256 7059.0191 2479.9971 7095.0191 2374.9971 C 7182.2066 2120.9346 7119.0832 2025.9334 6922.9882 2024.941 z " />
   
  
</svg>
