<?xml version="1.0" encoding="UTF-8" standalone="no"?>
<svg
   version="1.2"
   width="100mm"
   height="100mm"
   viewBox="0 0 10000 10000"
   preserveAspectRatio="xMidYMid"
   fill-rule="evenodd"
   stroke-width="28.222"
   stroke-linejoin="round"
   xml:space="preserve"
   id="svg26"
   sodipodi:docname="gobo-caps-002A.svg"
   inkscape:version="1.4 (86a8ad7, 2024-10-11)"
   xmlns:inkscape="http://www.inkscape.org/namespaces/inkscape"
   xmlns:sodipodi="http://sodipodi.sourceforge.net/DTD/sodipodi-0.dtd"
   xmlns="http://www.w3.org/2000/svg"
   xmlns:svg="http://www.w3.org/2000/svg"
   xmlns:ooo="http://xml.openoffice.org/svg/export"><sodipodi:namedview
   id="namedview26"
   pagecolor="#ffffff"
   bordercolor="#000000"
   borderopacity="0.25"
   inkscape:showpageshadow="2"
   inkscape:pageopacity="0.0"
   inkscape:pagecheckerboard="0"
   inkscape:deskcolor="#d1d1d1"
   inkscape:document-units="mm"
   showgrid="false"
   inkscape:zoom="3.0876875"
   inkscape:cx="188.81444"
   inkscape:cy="188.97638"
   inkscape:window-width="2560"
   inkscape:window-height="1369"
   inkscape:window-x="-8"
   inkscape:window-y="-8"
   inkscape:window-maximized="1"
   inkscape:current-layer="svg26" />
 <defs
   class="ClipPathGroup"
   id="defs2">
  
  <clipPath
   id="presentation_clip_path_shrink"
   clipPathUnits="userSpaceOnUse">
   <rect
   x="10"
   y="10"
   width="9980"
   height="9980"
   id="rect2" />
  </clipPath>
 
  
 
   
  
    
   
     
    
      
      
      
      
      
      
      
      
      
      
      
     
       
      
       
      
       
      
       
      
       
      
       
      
       
      
       
      
       
      
       
      
       
      
        
        
       
        
        
       
        
        
       
        
        
       
        
        
       
        
        
       
        
        
       
        
        
       
        
        
       
        
        
       
        
        
       </defs>
 <defs
   class="TextShapeIndex"
   id="defs3">
  <g
   ooo:slide="id1"
   ooo:id-list="id3 id4 id5 id6 id7 id8 id9 id10 id11 id12 id13"
   id="g2" />
 </defs>
 <defs
   class="EmbeddedBulletChars"
   id="defs12">
  <g
   id="bullet-char-template-57356"
   transform="scale(0.00048828125,-0.00048828125)">
   <path
   d="M 580,1141 L 1163,571 580,0 -4,571 580,1141 Z"
   id="path3" />
  </g>
  <g
   id="bullet-char-template-57354"
   transform="scale(0.00048828125,-0.00048828125)">
   <path
   d="M 8,1128 L 1137,1128 1137,0 8,0 8,1128 Z"
   id="path4" />
  </g>
  <g
   id="bullet-char-template-10146"
   transform="scale(0.00048828125,-0.00048828125)">
   <path
   d="M 174,0 L 602,739 174,1481 1456,739 174,0 Z M 1358,739 L 309,1346 659,739 1358,739 Z"
   id="path5" />
  </g>
  <g
   id="bullet-char-template-10132"
   transform="scale(0.00048828125,-0.00048828125)">
   <path
   d="M 2015,739 L 1276,0 717,0 1260,543 174,543 174,936 1260,936 717,1481 1274,1481 2015,739 Z"
   id="path6" />
  </g>
  <g
   id="bullet-char-template-10007"
   transform="scale(0.00048828125,-0.00048828125)">
   <path
   d="M 0,-2 C -7,14 -16,27 -25,37 L 356,567 C 262,823 215,952 215,954 215,979 228,992 255,992 264,992 276,990 289,987 310,991 331,999 354,1012 L 381,999 492,748 772,1049 836,1024 860,1049 C 881,1039 901,1025 922,1006 886,937 835,863 770,784 769,783 710,716 594,584 L 774,223 C 774,196 753,168 711,139 L 727,119 C 717,90 699,76 672,76 641,76 570,178 457,381 L 164,-76 C 142,-110 111,-127 72,-127 30,-127 9,-110 8,-76 1,-67 -2,-52 -2,-32 -2,-23 -1,-13 0,-2 Z"
   id="path7" />
  </g>
  <g
   id="bullet-char-template-10004"
   transform="scale(0.00048828125,-0.00048828125)">
   <path
   d="M 285,-33 C 182,-33 111,30 74,156 52,228 41,333 41,471 41,549 55,616 82,672 116,743 169,778 240,778 293,778 328,747 346,684 L 369,508 C 377,444 397,411 428,410 L 1163,1116 C 1174,1127 1196,1133 1229,1133 1271,1133 1292,1118 1292,1087 L 1292,965 C 1292,929 1282,901 1262,881 L 442,47 C 390,-6 338,-33 285,-33 Z"
   id="path8" />
  </g>
  <g
   id="bullet-char-template-9679"
   transform="scale(0.00048828125,-0.00048828125)">
   <path
   d="M 813,0 C 632,0 489,54 383,161 276,268 223,411 223,592 223,773 276,916 383,1023 489,1130 632,1184 813,1184 992,1184 1136,1130 1245,1023 1353,916 1407,772 1407,592 1407,412 1353,268 1245,161 1136,54 992,0 813,0 Z"
   id="path9" />
  </g>
  <g
   id="bullet-char-template-8226"
   transform="scale(0.00048828125,-0.00048828125)">
   <path
   d="M 346,457 C 273,457 209,483 155,535 101,586 74,649 74,723 74,796 101,859 155,911 209,963 273,989 346,989 419,989 480,963 531,910 582,859 608,796 608,723 608,648 583,586 532,535 482,483 420,457 346,457 Z"
   id="path10" />
  </g>
  <g
   id="bullet-char-template-8211"
   transform="scale(0.00048828125,-0.00048828125)">
   <path
   d="M -4,459 L 1135,459 1135,606 -4,606 -4,459 Z"
   id="path11" />
  </g>
  <g
   id="bullet-char-template-61548"
   transform="scale(0.00048828125,-0.00048828125)">
   <path
   d="M 173,740 C 173,903 231,1043 346,1159 462,1274 601,1332 765,1332 928,1332 1067,1274 1183,1159 1299,1043 1357,903 1357,740 1357,577 1299,437 1183,322 1067,206 928,148 765,148 601,148 462,206 346,322 231,437 173,577 173,740 Z"
   id="path12" />
  </g>
 </defs>
 
 <path
   id="path13"
   d="M 5063.8252 3812.1187 C 5050.8072 3811.9979 5037.1884 3812.3097 5023.0009 3812.9972 C 4797.0009 3825.9972 4593.0206 3903.9826 4572.0206 4052.9826 C 4562.7447 4113.0745 4561.105 4188.9549 4569.0234 4265.5794 C 4574.4168 4489.3604 4594.1813 4834.9819 4620.4931 5169.7619 C 4271.5863 5058.7038 3863.6359 4946.8055 3631.5096 4930.1383 C 3597.2852 4922.8932 3556.4259 4920.7081 3508.9848 4923.007 C 3282.9848 4936.007 3079.0045 5013.9923 3058.0045 5162.9923 C 3035.0045 5311.9923 3057.9957 5558.0052 3160.9957 5672.0052 C 3211.3322 5727.5851 3255.374 5746.8544 3305.1729 5738.3577 C 3507.6315 5748.4639 3998.4571 5851.12 4379.5259 5966.3541 C 4064.1603 6319.4357 3702.5317 6753.2954 3607.0149 6953.0122 C 3603.3436 6960.6139 3600.5936 6967.8461 3597.8682 6975.0781 C 3589.4708 6991.8894 3583.7196 7009.8342 3581.0217 7028.9766 C 3558.0217 7177.9766 3581.0128 7423.9894 3684.0128 7537.9894 C 3780.0128 7643.9894 3852.9918 7618.0242 3986.9918 7519.0242 C 4116.6171 7424.2236 4202.1127 7255.6835 4240.1546 7148.8142 C 4343.6076 6948.4257 4648.1039 6508.7075 4906.3155 6213.4708 C 5227.6615 6485.6718 5731.6937 7065.7673 5835.9745 7258.0065 C 5837.0213 7259.1953 5838.7626 7259.8612 5840.212 7260.7454 C 5848.468 7273.5178 5857.3546 7285.335 5866.9803 7295.9887 C 5962.9803 7401.9887 6036.0109 7376.0235 6170.0109 7277.0235 C 6304.0109 7179.0235 6390.9978 7002.0131 6426.9978 6896.0131 C 6476.1593 6753.2864 6477.492 6660.8893 6434.3359 6607.0902 C 6431.9049 6602.0564 6429.8798 6596.9801 6426.9978 6592.0007 C 6308.5015 6386.1217 5945.2599 6028.8294 5641.4127 5751.1735 C 5972.187 5607.8155 6334.0752 5472.7731 6495.004 5422.3563 C 6507.5302 5420.2328 6520.5181 5416.1326 6533.968 5410.6258 C 6534.5392 5410.4651 6535.422 5410.1623 6535.9834 5410.0057 C 6536.2384 5409.9043 6536.5035 5409.6051 6536.7586 5409.4889 C 6571.1275 5394.9297 6609.1018 5370.1671 6654.0124 5336.9869 C 6788.0124 5238.9869 6874.9993 5061.9765 6910.9993 4955.9765 C 7003.9993 4685.9765 6926.0226 4596.0056 6699.0226 4607.0056 C 6581.7463 4613.7516 6470.4477 4638.0538 6387.517 4680.6445 C 6158.1474 4777.0291 5660.4252 5014.7005 5262.9345 5226.8644 C 5235.4608 4834.7234 5244.7128 4285.5816 5264.6915 4055.308 C 5299.2366 3881.737 5228.7436 3813.6497 5063.8252 3812.1187 z " />
   
  
</svg>
