<?xml version="1.0" encoding="UTF-8" standalone="no"?>
<svg
   version="1.2"
   width="100mm"
   height="100mm"
   viewBox="0 0 10000 10000"
   preserveAspectRatio="xMidYMid"
   fill-rule="evenodd"
   stroke-width="28.222"
   stroke-linejoin="round"
   xml:space="preserve"
   id="svg24"
   sodipodi:docname="gobo-caps-006D.svg"
   inkscape:version="1.4 (86a8ad7, 2024-10-11)"
   xmlns:inkscape="http://www.inkscape.org/namespaces/inkscape"
   xmlns:sodipodi="http://sodipodi.sourceforge.net/DTD/sodipodi-0.dtd"
   xmlns="http://www.w3.org/2000/svg"
   xmlns:svg="http://www.w3.org/2000/svg"
   xmlns:ooo="http://xml.openoffice.org/svg/export"><sodipodi:namedview
   id="namedview24"
   pagecolor="#ffffff"
   bordercolor="#000000"
   borderopacity="0.25"
   inkscape:showpageshadow="2"
   inkscape:pageopacity="0.0"
   inkscape:pagecheckerboard="0"
   inkscape:deskcolor="#d1d1d1"
   inkscape:document-units="mm"
   showgrid="false"
   inkscape:zoom="3.0876875"
   inkscape:cx="188.81444"
   inkscape:cy="188.97638"
   inkscape:window-width="2560"
   inkscape:window-height="1369"
   inkscape:window-x="-8"
   inkscape:window-y="-8"
   inkscape:window-maximized="1"
   inkscape:current-layer="svg24" />
 <defs
   class="ClipPathGroup"
   id="defs2">
  
  <clipPath
   id="presentation_clip_path_shrink"
   clipPathUnits="userSpaceOnUse">
   <rect
   x="10"
   y="10"
   width="9980"
   height="9980"
   id="rect2" />
  </clipPath>
 
  
 
   
  
    
   
     
    
      
      
      
      
      
      
      
      
      
     
       
      
       
      
       
      
       
      
       
      
       
      
       
      
       
      
       
      
        
        
       
        
        
       
        
        
       
        
        
       
        
        
       
        
        
       
        
        
       
        
        
       
        
        
       </defs>
 <defs
   class="TextShapeIndex"
   id="defs3">
  <g
   ooo:slide="id1"
   ooo:id-list="id3 id4 id5 id6 id7 id8 id9 id10 id11"
   id="g2" />
 </defs>
 <defs
   class="EmbeddedBulletChars"
   id="defs12">
  <g
   id="bullet-char-template-57356"
   transform="scale(0.00048828125,-0.00048828125)">
   <path
   d="M 580,1141 L 1163,571 580,0 -4,571 580,1141 Z"
   id="path3" />
  </g>
  <g
   id="bullet-char-template-57354"
   transform="scale(0.00048828125,-0.00048828125)">
   <path
   d="M 8,1128 L 1137,1128 1137,0 8,0 8,1128 Z"
   id="path4" />
  </g>
  <g
   id="bullet-char-template-10146"
   transform="scale(0.00048828125,-0.00048828125)">
   <path
   d="M 174,0 L 602,739 174,1481 1456,739 174,0 Z M 1358,739 L 309,1346 659,739 1358,739 Z"
   id="path5" />
  </g>
  <g
   id="bullet-char-template-10132"
   transform="scale(0.00048828125,-0.00048828125)">
   <path
   d="M 2015,739 L 1276,0 717,0 1260,543 174,543 174,936 1260,936 717,1481 1274,1481 2015,739 Z"
   id="path6" />
  </g>
  <g
   id="bullet-char-template-10007"
   transform="scale(0.00048828125,-0.00048828125)">
   <path
   d="M 0,-2 C -7,14 -16,27 -25,37 L 356,567 C 262,823 215,952 215,954 215,979 228,992 255,992 264,992 276,990 289,987 310,991 331,999 354,1012 L 381,999 492,748 772,1049 836,1024 860,1049 C 881,1039 901,1025 922,1006 886,937 835,863 770,784 769,783 710,716 594,584 L 774,223 C 774,196 753,168 711,139 L 727,119 C 717,90 699,76 672,76 641,76 570,178 457,381 L 164,-76 C 142,-110 111,-127 72,-127 30,-127 9,-110 8,-76 1,-67 -2,-52 -2,-32 -2,-23 -1,-13 0,-2 Z"
   id="path7" />
  </g>
  <g
   id="bullet-char-template-10004"
   transform="scale(0.00048828125,-0.00048828125)">
   <path
   d="M 285,-33 C 182,-33 111,30 74,156 52,228 41,333 41,471 41,549 55,616 82,672 116,743 169,778 240,778 293,778 328,747 346,684 L 369,508 C 377,444 397,411 428,410 L 1163,1116 C 1174,1127 1196,1133 1229,1133 1271,1133 1292,1118 1292,1087 L 1292,965 C 1292,929 1282,901 1262,881 L 442,47 C 390,-6 338,-33 285,-33 Z"
   id="path8" />
  </g>
  <g
   id="bullet-char-template-9679"
   transform="scale(0.00048828125,-0.00048828125)">
   <path
   d="M 813,0 C 632,0 489,54 383,161 276,268 223,411 223,592 223,773 276,916 383,1023 489,1130 632,1184 813,1184 992,1184 1136,1130 1245,1023 1353,916 1407,772 1407,592 1407,412 1353,268 1245,161 1136,54 992,0 813,0 Z"
   id="path9" />
  </g>
  <g
   id="bullet-char-template-8226"
   transform="scale(0.00048828125,-0.00048828125)">
   <path
   d="M 346,457 C 273,457 209,483 155,535 101,586 74,649 74,723 74,796 101,859 155,911 209,963 273,989 346,989 419,989 480,963 531,910 582,859 608,796 608,723 608,648 583,586 532,535 482,483 420,457 346,457 Z"
   id="path10" />
  </g>
  <g
   id="bullet-char-template-8211"
   transform="scale(0.00048828125,-0.00048828125)">
   <path
   d="M -4,459 L 1135,459 1135,606 -4,606 -4,459 Z"
   id="path11" />
  </g>
  <g
   id="bullet-char-template-61548"
   transform="scale(0.00048828125,-0.00048828125)">
   <path
   d="M 173,740 C 173,903 231,1043 346,1159 462,1274 601,1332 765,1332 928,1332 1067,1274 1183,1159 1299,1043 1357,903 1357,740 1357,577 1299,437 1183,322 1067,206 928,148 765,148 601,148 462,206 346,322 231,437 173,577 173,740 Z"
   id="path12" />
  </g>
 </defs>
 
 <path
   id="path13"
   d="M 6609.9841 3038.9876 C 6596.9111 3038.9141 6583.2547 3039.2711 6569.0047 3040.0211 C 6353.6656 3052.4079 6158.394 3123.8377 6123.1404 3259.4393 C 5954.5197 3604.7938 5595.593 4461.7576 5327.0133 5090.0252 C 5234.7675 5306.5738 5144.9254 5530.6742 5060.5179 5749.4165 C 5011.3737 5562.415 4965.8177 5388.2787 4903.99 5156.016 C 4713.99 4447.016 4454.9895 3653.0016 4362.9895 3360.0016 C 4359.514 3348.9774 4355.0235 3339.4357 4350.0187 3330.5977 C 4322.0842 3255.1949 4240.7448 3228.114 4109.9817 3234.9963 C 3921.7581 3245.8233 3748.9147 3301.7863 3684.2195 3406.252 L 3684.1679 3406.3037 C 3681.8791 3408.5869 3680.1565 3411.1597 3679.0002 3414.0035 C 3678.5049 3415.2185 3677.6941 3417.3666 3677.1915 3418.6027 C 3671.5744 3429.4266 3667.0937 3440.7528 3663.8073 3452.5541 C 3525.1366 3799.3368 3173.8482 4764.5879 2990.9802 5378.0179 C 2804.0051 6006.5725 2504.0267 7326.2307 2405.3312 7719.3737 C 2401.5344 7730.1558 2398.6547 7741.3549 2397.0113 7753.0151 C 2374.0113 7903.0151 2398.0024 8148.9763 2500.0024 8261.9763 C 2596.0024 8367.9763 2669.0149 8342.011 2804.0149 8243.011 C 2937.0149 8146.011 3024.0018 7967.9825 3061.0018 7862.9825 C 3080.6053 7805.4505 3092.434 7756.1155 3096.8652 7714.1027 C 3154.8303 7419.7052 3273.5259 6445.2378 3510.0183 5652.9882 C 3629.3304 5247.0239 3783.8125 4842.2382 3930.7678 4487.1679 C 4039.6713 4804.336 4171.2392 5211.7482 4322.0101 5715.9818 C 4604.8785 6663.2622 4566.3521 6870.5156 4650.3104 7191.654 C 4665.8011 7287.7362 4697.1695 7379.5799 4749.0124 7437.0137 C 4846.0124 7543.0137 4918.0249 7516.9968 5053.0249 7417.9968 C 5186.0249 7320.9968 5274.0118 7143.02 5310.0118 7038.02 C 5312.4799 7030.7765 5314.7629 7023.7165 5316.9881 7016.7293 C 5318.6594 7012.8207 5320.5734 7009.1425 5322.0007 7004.9987 C 5412.0007 6734.9987 5489.0258 6206.9891 5799.0258 5427.9891 C 5961.9525 5019.6212 6151.3759 4618.5224 6323.4383 4276.2247 C 6395.8168 4549.7909 6483.5943 4898.5573 6586.0062 5355.0219 C 6806.6017 6341.373 6844.381 7020.7141 6904.2297 7415.2062 C 6914.2447 7533.85 6947.1127 7656.6078 7010.9932 7728.0037 C 7107.9932 7834.0037 7180.0056 7807.9868 7315.0056 7708.9868 C 7449.0056 7610.9868 7535.9925 7433.9764 7571.9925 7327.9764 C 7604.8311 7232.9917 7616.2689 7160.1984 7607.3909 7106.1812 C 7607.1773 7104.4421 7607.2277 7102.76 7606.9775 7101.0135 C 7555.9775 6744.0135 7403.0019 5841.9793 7207.0019 4952.9793 C 7011.0019 4067.9793 6966.9999 3700.0193 6816.9999 3154.0193 C 6813.5115 3141.289 6808.4225 3130.4564 6802.6338 3120.533 C 6773.4651 3064.0408 6708.55 3039.5417 6609.9841 3038.9876 z " />
   
  
</svg>
