<?xml version="1.0" encoding="UTF-8" standalone="no"?>
<svg
   version="1.2"
   width="100mm"
   height="100mm"
   viewBox="0 0 10000 10000"
   preserveAspectRatio="xMidYMid"
   fill-rule="evenodd"
   stroke-width="28.222"
   stroke-linejoin="round"
   xml:space="preserve"
   id="svg24"
   sodipodi:docname="gobo-caps-0068.svg"
   inkscape:version="1.4 (86a8ad7, 2024-10-11)"
   xmlns:inkscape="http://www.inkscape.org/namespaces/inkscape"
   xmlns:sodipodi="http://sodipodi.sourceforge.net/DTD/sodipodi-0.dtd"
   xmlns="http://www.w3.org/2000/svg"
   xmlns:svg="http://www.w3.org/2000/svg"
   xmlns:ooo="http://xml.openoffice.org/svg/export"><sodipodi:namedview
   id="namedview24"
   pagecolor="#ffffff"
   bordercolor="#000000"
   borderopacity="0.25"
   inkscape:showpageshadow="2"
   inkscape:pageopacity="0.0"
   inkscape:pagecheckerboard="0"
   inkscape:deskcolor="#d1d1d1"
   inkscape:document-units="mm"
   showgrid="false"
   inkscape:zoom="3.0876875"
   inkscape:cx="188.81444"
   inkscape:cy="188.97638"
   inkscape:window-width="2560"
   inkscape:window-height="1369"
   inkscape:window-x="-8"
   inkscape:window-y="-8"
   inkscape:window-maximized="1"
   inkscape:current-layer="svg24" />
 <defs
   class="ClipPathGroup"
   id="defs2">
  
  <clipPath
   id="presentation_clip_path_shrink"
   clipPathUnits="userSpaceOnUse">
   <rect
   x="10"
   y="10"
   width="9980"
   height="9980"
   id="rect2" />
  </clipPath>
 
  
 
   
  
    
   
     
    
      
      
      
      
      
      
      
      
      
     
       
      
       
      
       
      
       
      
       
      
       
      
       
      
       
      
       
      
        
        
       
        
        
       
        
        
       
        
        
       
        
        
       
        
        
       
        
        
       
        
        
       
        
        
       </defs>
 <defs
   class="TextShapeIndex"
   id="defs3">
  <g
   ooo:slide="id1"
   ooo:id-list="id3 id4 id5 id6 id7 id8 id9 id10 id11"
   id="g2" />
 </defs>
 <defs
   class="EmbeddedBulletChars"
   id="defs12">
  <g
   id="bullet-char-template-57356"
   transform="scale(0.00048828125,-0.00048828125)">
   <path
   d="M 580,1141 L 1163,571 580,0 -4,571 580,1141 Z"
   id="path3" />
  </g>
  <g
   id="bullet-char-template-57354"
   transform="scale(0.00048828125,-0.00048828125)">
   <path
   d="M 8,1128 L 1137,1128 1137,0 8,0 8,1128 Z"
   id="path4" />
  </g>
  <g
   id="bullet-char-template-10146"
   transform="scale(0.00048828125,-0.00048828125)">
   <path
   d="M 174,0 L 602,739 174,1481 1456,739 174,0 Z M 1358,739 L 309,1346 659,739 1358,739 Z"
   id="path5" />
  </g>
  <g
   id="bullet-char-template-10132"
   transform="scale(0.00048828125,-0.00048828125)">
   <path
   d="M 2015,739 L 1276,0 717,0 1260,543 174,543 174,936 1260,936 717,1481 1274,1481 2015,739 Z"
   id="path6" />
  </g>
  <g
   id="bullet-char-template-10007"
   transform="scale(0.00048828125,-0.00048828125)">
   <path
   d="M 0,-2 C -7,14 -16,27 -25,37 L 356,567 C 262,823 215,952 215,954 215,979 228,992 255,992 264,992 276,990 289,987 310,991 331,999 354,1012 L 381,999 492,748 772,1049 836,1024 860,1049 C 881,1039 901,1025 922,1006 886,937 835,863 770,784 769,783 710,716 594,584 L 774,223 C 774,196 753,168 711,139 L 727,119 C 717,90 699,76 672,76 641,76 570,178 457,381 L 164,-76 C 142,-110 111,-127 72,-127 30,-127 9,-110 8,-76 1,-67 -2,-52 -2,-32 -2,-23 -1,-13 0,-2 Z"
   id="path7" />
  </g>
  <g
   id="bullet-char-template-10004"
   transform="scale(0.00048828125,-0.00048828125)">
   <path
   d="M 285,-33 C 182,-33 111,30 74,156 52,228 41,333 41,471 41,549 55,616 82,672 116,743 169,778 240,778 293,778 328,747 346,684 L 369,508 C 377,444 397,411 428,410 L 1163,1116 C 1174,1127 1196,1133 1229,1133 1271,1133 1292,1118 1292,1087 L 1292,965 C 1292,929 1282,901 1262,881 L 442,47 C 390,-6 338,-33 285,-33 Z"
   id="path8" />
  </g>
  <g
   id="bullet-char-template-9679"
   transform="scale(0.00048828125,-0.00048828125)">
   <path
   d="M 813,0 C 632,0 489,54 383,161 276,268 223,411 223,592 223,773 276,916 383,1023 489,1130 632,1184 813,1184 992,1184 1136,1130 1245,1023 1353,916 1407,772 1407,592 1407,412 1353,268 1245,161 1136,54 992,0 813,0 Z"
   id="path9" />
  </g>
  <g
   id="bullet-char-template-8226"
   transform="scale(0.00048828125,-0.00048828125)">
   <path
   d="M 346,457 C 273,457 209,483 155,535 101,586 74,649 74,723 74,796 101,859 155,911 209,963 273,989 346,989 419,989 480,963 531,910 582,859 608,796 608,723 608,648 583,586 532,535 482,483 420,457 346,457 Z"
   id="path10" />
  </g>
  <g
   id="bullet-char-template-8211"
   transform="scale(0.00048828125,-0.00048828125)">
   <path
   d="M -4,459 L 1135,459 1135,606 -4,606 -4,459 Z"
   id="path11" />
  </g>
  <g
   id="bullet-char-template-61548"
   transform="scale(0.00048828125,-0.00048828125)">
   <path
   d="M 173,740 C 173,903 231,1043 346,1159 462,1274 601,1332 765,1332 928,1332 1067,1274 1183,1159 1299,1043 1357,903 1357,740 1357,577 1299,437 1183,322 1067,206 928,148 765,148 601,148 462,206 346,322 231,437 173,577 173,740 Z"
   id="path12" />
  </g>
 </defs>
 
 <path
   id="path13"
   d="M 6328.8126 3059.9682 C 6315.7945 3059.9021 6302.1757 3060.2518 6287.9882 3061.0018 C 6060.9882 3073.0018 5857.008 3151.0053 5837.008 3300.0053 C 5825.5489 3377.6147 5826.4798 3481.4865 5844.2427 3579.3681 C 5890.6642 3878.2655 6086.0159 4555.1556 6146.4465 5503.385 C 5799.4667 5564.7858 5305.2962 5677.8798 4840.9965 5811.0148 C 4405.562 5936.6813 4106.0279 6036.642 3841.0058 6134.3025 C 3833.3316 6008.8743 3826.7216 5880.4616 3823.0224 5746.0058 C 3797.4836 4954.3018 3877.9601 3931.6164 3924.8767 3519.4234 C 3964.2281 3328.7489 3879.1916 3262.6515 3682.9793 3272.9785 C 3456.9793 3285.9785 3253.9809 3363.0155 3232.9809 3513.0155 C 3231.9507 3519.6895 3231.1364 3526.7469 3230.2938 3533.7894 C 3228.4728 3537.1978 3227.2566 3540.6442 3226.9865 3544.0214 C 3202.9865 3885.0214 3184.9889 4641.9801 3186.9889 5362.9801 C 3190.7966 6046.4616 3243.4899 7329.9625 3259.0775 7779.0083 C 3258.6477 7809.6795 3259.6453 7841.7158 3262.4882 7874.1446 C 3262.565 7876.5082 3262.9316 7885.709 3263.0049 7887.9939 C 3263.0049 7892.0493 3263.7455 7895.6948 3265.1237 7898.9493 C 3277.7432 8008.924 3310.3844 8119.0235 3369.9752 8184.9784 C 3465.9752 8290.9784 3538.9876 8265.0131 3673.9876 8166.0131 C 3806.9876 8068.0131 3893.9926 7891.0028 3929.9926 7785.0028 C 3949.6337 7727.9805 3961.5721 7679.0209 3966.1661 7637.2599 C 3968.4746 7631.9424 3970.074 7626.7921 3969.9902 7622.0153 C 3966.0244 7440.0861 3935.4741 7182.1823 3902.9142 6867.281 C 4169.9528 6747.2762 4538.9485 6598.4059 4959.0254 6486.9942 C 5578.6717 6322.6532 5890.0365 6296.8526 6162.0011 6279.4099 C 6145.4475 6847.056 6066.7999 7111.4905 6064.8494 7379.3428 C 6056.0985 7528.3567 6084.9418 7728.3643 6173.99 7827.0157 C 6270.99 7933.0157 6343.0025 7906.9988 6478.0025 7807.9988 C 6611.0025 7710.9988 6698.9894 7533.022 6734.9894 7428.022 C 6736.972 7422.2034 6738.7963 7416.5702 6740.6221 7410.9171 C 6753.6485 7387.071 6762.8486 7359.9735 6766.9771 7329.01 C 6810.9771 6982.01 6835.0094 6355.006 6788.0094 5447.006 C 6743.0094 4539.006 6593.9779 3474.0169 6541.9779 3194.0169 C 6538.326 3173.42 6531.0669 3156.4574 6521.3073 3142.1854 C 6492.5355 3085.0975 6427.6391 3060.4705 6328.8126 3059.9682 z " />
   
  
</svg>
