<?xml version="1.0" encoding="UTF-8" standalone="no"?>
<svg
   version="1.2"
   width="100mm"
   height="100mm"
   viewBox="0 0 10000 10000"
   preserveAspectRatio="xMidYMid"
   fill-rule="evenodd"
   stroke-width="28.222"
   stroke-linejoin="round"
   xml:space="preserve"
   id="svg23"
   sodipodi:docname="gobo-caps-0041.svg"
   inkscape:version="1.4 (86a8ad7, 2024-10-11)"
   xmlns:inkscape="http://www.inkscape.org/namespaces/inkscape"
   xmlns:sodipodi="http://sodipodi.sourceforge.net/DTD/sodipodi-0.dtd"
   xmlns="http://www.w3.org/2000/svg"
   xmlns:svg="http://www.w3.org/2000/svg"
   xmlns:ooo="http://xml.openoffice.org/svg/export"><sodipodi:namedview
   id="namedview23"
   pagecolor="#ffffff"
   bordercolor="#000000"
   borderopacity="0.25"
   inkscape:showpageshadow="2"
   inkscape:pageopacity="0.0"
   inkscape:pagecheckerboard="0"
   inkscape:deskcolor="#d1d1d1"
   inkscape:document-units="mm"
   showgrid="false"
   inkscape:zoom="3.0876875"
   inkscape:cx="188.81444"
   inkscape:cy="188.97638"
   inkscape:window-width="2560"
   inkscape:window-height="1369"
   inkscape:window-x="-8"
   inkscape:window-y="-8"
   inkscape:window-maximized="1"
   inkscape:current-layer="svg23" />
 <defs
   class="ClipPathGroup"
   id="defs2">
  
  <clipPath
   id="presentation_clip_path_shrink"
   clipPathUnits="userSpaceOnUse">
   <rect
   x="10"
   y="10"
   width="9980"
   height="9980"
   id="rect2" />
  </clipPath>
 
  
 
   
  
    
   
     
    
      
      
      
      
      
      
      
      
     
       
      
       
      
       
      
       
      
       
      
       
      
       
      
       
      
        
        
       
        
        
       
        
        
       
        
        
       
        
        
       
        
        
       
        
        
       
        
        
       </defs>
 <defs
   class="TextShapeIndex"
   id="defs3">
  <g
   ooo:slide="id1"
   ooo:id-list="id3 id4 id5 id6 id7 id8 id9 id10"
   id="g2" />
 </defs>
 <defs
   class="EmbeddedBulletChars"
   id="defs12">
  <g
   id="bullet-char-template-57356"
   transform="scale(0.00048828125,-0.00048828125)">
   <path
   d="M 580,1141 L 1163,571 580,0 -4,571 580,1141 Z"
   id="path3" />
  </g>
  <g
   id="bullet-char-template-57354"
   transform="scale(0.00048828125,-0.00048828125)">
   <path
   d="M 8,1128 L 1137,1128 1137,0 8,0 8,1128 Z"
   id="path4" />
  </g>
  <g
   id="bullet-char-template-10146"
   transform="scale(0.00048828125,-0.00048828125)">
   <path
   d="M 174,0 L 602,739 174,1481 1456,739 174,0 Z M 1358,739 L 309,1346 659,739 1358,739 Z"
   id="path5" />
  </g>
  <g
   id="bullet-char-template-10132"
   transform="scale(0.00048828125,-0.00048828125)">
   <path
   d="M 2015,739 L 1276,0 717,0 1260,543 174,543 174,936 1260,936 717,1481 1274,1481 2015,739 Z"
   id="path6" />
  </g>
  <g
   id="bullet-char-template-10007"
   transform="scale(0.00048828125,-0.00048828125)">
   <path
   d="M 0,-2 C -7,14 -16,27 -25,37 L 356,567 C 262,823 215,952 215,954 215,979 228,992 255,992 264,992 276,990 289,987 310,991 331,999 354,1012 L 381,999 492,748 772,1049 836,1024 860,1049 C 881,1039 901,1025 922,1006 886,937 835,863 770,784 769,783 710,716 594,584 L 774,223 C 774,196 753,168 711,139 L 727,119 C 717,90 699,76 672,76 641,76 570,178 457,381 L 164,-76 C 142,-110 111,-127 72,-127 30,-127 9,-110 8,-76 1,-67 -2,-52 -2,-32 -2,-23 -1,-13 0,-2 Z"
   id="path7" />
  </g>
  <g
   id="bullet-char-template-10004"
   transform="scale(0.00048828125,-0.00048828125)">
   <path
   d="M 285,-33 C 182,-33 111,30 74,156 52,228 41,333 41,471 41,549 55,616 82,672 116,743 169,778 240,778 293,778 328,747 346,684 L 369,508 C 377,444 397,411 428,410 L 1163,1116 C 1174,1127 1196,1133 1229,1133 1271,1133 1292,1118 1292,1087 L 1292,965 C 1292,929 1282,901 1262,881 L 442,47 C 390,-6 338,-33 285,-33 Z"
   id="path8" />
  </g>
  <g
   id="bullet-char-template-9679"
   transform="scale(0.00048828125,-0.00048828125)">
   <path
   d="M 813,0 C 632,0 489,54 383,161 276,268 223,411 223,592 223,773 276,916 383,1023 489,1130 632,1184 813,1184 992,1184 1136,1130 1245,1023 1353,916 1407,772 1407,592 1407,412 1353,268 1245,161 1136,54 992,0 813,0 Z"
   id="path9" />
  </g>
  <g
   id="bullet-char-template-8226"
   transform="scale(0.00048828125,-0.00048828125)">
   <path
   d="M 346,457 C 273,457 209,483 155,535 101,586 74,649 74,723 74,796 101,859 155,911 209,963 273,989 346,989 419,989 480,963 531,910 582,859 608,796 608,723 608,648 583,586 532,535 482,483 420,457 346,457 Z"
   id="path10" />
  </g>
  <g
   id="bullet-char-template-8211"
   transform="scale(0.00048828125,-0.00048828125)">
   <path
   d="M -4,459 L 1135,459 1135,606 -4,606 -4,459 Z"
   id="path11" />
  </g>
  <g
   id="bullet-char-template-61548"
   transform="scale(0.00048828125,-0.00048828125)">
   <path
   d="M 173,740 C 173,903 231,1043 346,1159 462,1274 601,1332 765,1332 928,1332 1067,1274 1183,1159 1299,1043 1357,903 1357,740 1357,577 1299,437 1183,322 1067,206 928,148 765,148 601,148 462,206 346,322 231,437 173,577 173,740 Z"
   id="path12" />
  </g>
 </defs>
 
 <path
   id="path13"
   d="M 5182.9911 2153.977 C 5169.9252 2153.9038 5156.2617 2154.2606 5142.0117 2155.0106 C 4915.0117 2167.0106 4711.9798 2245.0141 4690.9798 2394.0141 C 4690.7826 2395.3583 4690.6529 2396.8404 4690.463 2398.1999 C 4486.5912 2984.724 4123.6616 3956.1544 3744.991 4954.9947 C 3354.1952 5978.6021 2589.8791 8000.6743 2406.6231 8483.5648 C 2398.8898 8499.6562 2393.5821 8516.7816 2391.0168 8534.9828 C 2369.0168 8683.9828 2392.008 8929.9957 2494.008 9043.9957 C 2590.008 9149.9957 2663.0204 9123.9788 2798.0204 9024.9788 C 2903.4545 8947.2905 2980.4739 8820.0859 3025.8618 8718.3308 C 3030.9357 8711.2511 3035.5203 8703.693 3038.9876 8695.0248 C 3042.0526 8684.6258 3047.994 8666.3377 3051.39 8655.0272 C 3052.5865 8651.6896 3053.9076 8648.2095 3055.0073 8645.002 C 3063.6212 8619.9013 3070.7564 8596.3665 3076.453 8574.3086 C 3076.5224 8574.0401 3076.5908 8573.7498 3076.6597 8573.4818 C 3152.1979 8328.9723 3283.8506 7934.7648 3431.8835 7501.7643 C 3690.9538 7407.376 4200.0218 7243.6384 4772.0084 7089.0246 C 5383.0084 6905.0246 5986.9895 6783.0143 6435.9895 6708.0143 C 6436.1638 6708.0025 6436.3321 6707.9233 6436.5063 6707.9109 C 6672.4766 7471.6558 6869.4741 8183.4154 6952.5471 8384.1393 C 6969.19 8429.2501 6990.6826 8469.443 7018.0212 8499.9979 C 7115.0212 8604.9979 7186.982 8579.981 7321.982 8480.981 C 7455.982 8382.981 7542.987 8206.0223 7577.987 8100.0223 C 7610.5291 8005.5451 7622.0426 7933.0139 7613.6954 7879.1572 C 7614.1156 7874.7028 7613.9568 7870.6496 7613.0236 7867.0133 C 7523.0236 7525.0133 6838.976 5502.9964 6487.976 4672.9964 C 6145.2477 3858.8939 5544.6903 2529.061 5381.0669 2248.3382 C 5355.4875 2182.7938 5288.7197 2154.5697 5182.9911 2153.977 z M 4986.569 3304.9662 C 5216.6023 3744.0595 5556.2087 4392.3152 5857.9886 5068.011 C 5973.1364 5328.6219 6091.2559 5649.7525 6205.8744 5988.9367 C 5715.8644 6128.1169 5285.0534 6256.3015 4729.9955 6409.9963 C 4272.3574 6545.3446 3992.1359 6616.6936 3717.7059 6677.7836 C 3898.4492 6169.4764 4076.2549 5688.7398 4200.9839 5387.9915 C 4416.1834 4863.2306 4722.4947 3962.7914 4986.569 3304.9662 z " />
   
  
</svg>
