<?xml version="1.0" encoding="UTF-8" standalone="no"?>
<svg
   version="1.2"
   width="100mm"
   height="100mm"
   viewBox="0 0 10000 10000"
   preserveAspectRatio="xMidYMid"
   fill-rule="evenodd"
   stroke-width="28.222"
   stroke-linejoin="round"
   xml:space="preserve"
   id="svg27"
   sodipodi:docname="gobo-caps-0023.svg"
   inkscape:version="1.4 (86a8ad7, 2024-10-11)"
   xmlns:inkscape="http://www.inkscape.org/namespaces/inkscape"
   xmlns:sodipodi="http://sodipodi.sourceforge.net/DTD/sodipodi-0.dtd"
   xmlns="http://www.w3.org/2000/svg"
   xmlns:svg="http://www.w3.org/2000/svg"
   xmlns:ooo="http://xml.openoffice.org/svg/export"><sodipodi:namedview
   id="namedview27"
   pagecolor="#ffffff"
   bordercolor="#000000"
   borderopacity="0.25"
   inkscape:showpageshadow="2"
   inkscape:pageopacity="0.0"
   inkscape:pagecheckerboard="0"
   inkscape:deskcolor="#d1d1d1"
   inkscape:document-units="mm"
   showgrid="false"
   inkscape:zoom="3.0876875"
   inkscape:cx="188.81444"
   inkscape:cy="188.97638"
   inkscape:window-width="2560"
   inkscape:window-height="1369"
   inkscape:window-x="-8"
   inkscape:window-y="-8"
   inkscape:window-maximized="1"
   inkscape:current-layer="svg27" />
 <defs
   class="ClipPathGroup"
   id="defs2">
  
  <clipPath
   id="presentation_clip_path_shrink"
   clipPathUnits="userSpaceOnUse">
   <rect
   x="10"
   y="10"
   width="9980"
   height="9980"
   id="rect2" />
  </clipPath>
 
  
 
   
  
    
   
     
    
      
      
      
      
      
      
      
      
      
      
      
      
     
       
      
       
      
       
      
       
      
       
      
       
      
       
      
       
      
       
      
       
      
       
      
       
      
        
        
       
        
        
       
        
        
       
        
        
       
        
        
       
        
        
       
        
        
       
        
        
       
        
        
       
        
        
       
        
        
       
        
        
       </defs>
 <defs
   class="TextShapeIndex"
   id="defs3">
  <g
   ooo:slide="id1"
   ooo:id-list="id3 id4 id5 id6 id7 id8 id9 id10 id11 id12 id13 id14"
   id="g2" />
 </defs>
 <defs
   class="EmbeddedBulletChars"
   id="defs12">
  <g
   id="bullet-char-template-57356"
   transform="scale(0.00048828125,-0.00048828125)">
   <path
   d="M 580,1141 L 1163,571 580,0 -4,571 580,1141 Z"
   id="path3" />
  </g>
  <g
   id="bullet-char-template-57354"
   transform="scale(0.00048828125,-0.00048828125)">
   <path
   d="M 8,1128 L 1137,1128 1137,0 8,0 8,1128 Z"
   id="path4" />
  </g>
  <g
   id="bullet-char-template-10146"
   transform="scale(0.00048828125,-0.00048828125)">
   <path
   d="M 174,0 L 602,739 174,1481 1456,739 174,0 Z M 1358,739 L 309,1346 659,739 1358,739 Z"
   id="path5" />
  </g>
  <g
   id="bullet-char-template-10132"
   transform="scale(0.00048828125,-0.00048828125)">
   <path
   d="M 2015,739 L 1276,0 717,0 1260,543 174,543 174,936 1260,936 717,1481 1274,1481 2015,739 Z"
   id="path6" />
  </g>
  <g
   id="bullet-char-template-10007"
   transform="scale(0.00048828125,-0.00048828125)">
   <path
   d="M 0,-2 C -7,14 -16,27 -25,37 L 356,567 C 262,823 215,952 215,954 215,979 228,992 255,992 264,992 276,990 289,987 310,991 331,999 354,1012 L 381,999 492,748 772,1049 836,1024 860,1049 C 881,1039 901,1025 922,1006 886,937 835,863 770,784 769,783 710,716 594,584 L 774,223 C 774,196 753,168 711,139 L 727,119 C 717,90 699,76 672,76 641,76 570,178 457,381 L 164,-76 C 142,-110 111,-127 72,-127 30,-127 9,-110 8,-76 1,-67 -2,-52 -2,-32 -2,-23 -1,-13 0,-2 Z"
   id="path7" />
  </g>
  <g
   id="bullet-char-template-10004"
   transform="scale(0.00048828125,-0.00048828125)">
   <path
   d="M 285,-33 C 182,-33 111,30 74,156 52,228 41,333 41,471 41,549 55,616 82,672 116,743 169,778 240,778 293,778 328,747 346,684 L 369,508 C 377,444 397,411 428,410 L 1163,1116 C 1174,1127 1196,1133 1229,1133 1271,1133 1292,1118 1292,1087 L 1292,965 C 1292,929 1282,901 1262,881 L 442,47 C 390,-6 338,-33 285,-33 Z"
   id="path8" />
  </g>
  <g
   id="bullet-char-template-9679"
   transform="scale(0.00048828125,-0.00048828125)">
   <path
   d="M 813,0 C 632,0 489,54 383,161 276,268 223,411 223,592 223,773 276,916 383,1023 489,1130 632,1184 813,1184 992,1184 1136,1130 1245,1023 1353,916 1407,772 1407,592 1407,412 1353,268 1245,161 1136,54 992,0 813,0 Z"
   id="path9" />
  </g>
  <g
   id="bullet-char-template-8226"
   transform="scale(0.00048828125,-0.00048828125)">
   <path
   d="M 346,457 C 273,457 209,483 155,535 101,586 74,649 74,723 74,796 101,859 155,911 209,963 273,989 346,989 419,989 480,963 531,910 582,859 608,796 608,723 608,648 583,586 532,535 482,483 420,457 346,457 Z"
   id="path10" />
  </g>
  <g
   id="bullet-char-template-8211"
   transform="scale(0.00048828125,-0.00048828125)">
   <path
   d="M -4,459 L 1135,459 1135,606 -4,606 -4,459 Z"
   id="path11" />
  </g>
  <g
   id="bullet-char-template-61548"
   transform="scale(0.00048828125,-0.00048828125)">
   <path
   d="M 173,740 C 173,903 231,1043 346,1159 462,1274 601,1332 765,1332 928,1332 1067,1274 1183,1159 1299,1043 1357,903 1357,740 1357,577 1299,437 1183,322 1067,206 928,148 765,148 601,148 462,206 346,322 231,437 173,577 173,740 Z"
   id="path12" />
  </g>
 </defs>
 
 <path
   id="path13"
   d="M 6069.8103 2090.1566 C 6056.7923 2090.0358 6043.1735 2090.296 6028.986 2090.9835 C 5802.986 2103.9835 5599.0057 2182.0205 5578.0057 2331.0205 C 5575.9947 2344.0482 5574.4848 2358.0039 5573.1998 2372.3616 C 5573.1762 2372.5699 5573.0103 2372.7735 5572.9931 2372.9818 C 5572.9646 2373.7153 5572.9699 2374.6758 5572.9414 2375.4105 C 5570.4765 2404.2984 5569.476 2435.3665 5570.2026 2467.653 C 5554.5139 2936.9711 5550.4294 3585.6404 5550.979 4194.886 C 5281.0203 4228.1347 5025.6691 4258.7033 4855.9826 4274.9845 C 4754.7745 4284.9323 4631.7551 4294.0708 4501.379 4302.8381 C 4505.9151 3571.7229 4510.4298 2780.391 4504.9963 2392.9805 C 4505.0588 2391.0743 4504.4478 2389.5013 4504.1695 2387.7612 C 4500.6831 2266.1791 4414.7649 2223.1847 4254.0039 2230.9749 C 4028.0039 2243.9749 3824.0237 2322.0119 3803.0237 2471.0119 C 3797.7214 2505.3616 3794.9584 2544.9645 3794.9621 2586.8188 C 3794.7027 2587.8717 3794.086 2588.9973 3793.9803 2590.0228 C 3794.4629 2595.856 3794.7443 2602.5545 3795.2205 2608.4196 C 3795.8663 2636.1258 3797.7639 2664.5482 3801.0083 2693.0656 C 3838.4152 3194.9936 3854.6488 3789.5079 3862.3999 4341.7505 C 3627.2483 4355.447 3413.562 4368.8742 3277.8878 4382.9882 C 3056.6298 4397.4358 2860.5437 4475.1176 2839.9817 4621.0099 C 2817.9817 4770.0099 2841.0245 5016.0227 2943.0245 5130.0227 C 2986.6167 5177.2102 3025.1533 5198.0627 3066.6345 5197.8222 C 3069.3805 5198.9798 3072.1921 5199.3902 3075.0061 5199.0108 C 3181.6335 5172.9681 3515.6467 5132.911 3869.9963 5094.521 C 3871.2877 5303.7303 3872.1809 5497.4392 3873.9754 5640.9993 C 3875.5268 5806.4813 3867.3221 6059.4752 3854.39 6346.796 C 3545.0584 6382.9877 3261.7203 6417.2136 3137.9997 6434.0258 C 3130.567 6435.069 3123.5335 6436.8648 3116.6056 6438.8834 C 2943.9561 6469.0406 2806.08 6542.636 2788.977 6663.986 C 2765.977 6813.986 2788.9863 7058.9988 2890.9863 7172.9988 C 2940.6151 7227.2323 2983.7368 7246.8404 3032.063 7239.8681 C 3032.3747 7239.8488 3032.6814 7240.0617 3032.9931 7240.0231 C 3135.5349 7214.8624 3455.5284 7159.5116 3815.0126 7102.5638 C 3783.7148 7653.4291 3751.0599 8168.1089 3740.4435 8399.6423 C 3722.2041 8549.8066 3747.3034 8779.8447 3844.9849 8889.0181 C 3941.9849 8995.0181 4013.9974 8969.0012 4148.9974 8870.0012 C 4282.9974 8772.0012 4370.9843 8595.0243 4405.9843 8490.0243 C 4433.2561 8410.5547 4445.7297 8346.6399 4444.1215 8296.1861 C 4442.7506 8190.0197 4458.1736 7605.9266 4472.7502 7003.8618 C 4649.4261 6979.1397 4813.0667 6957.8341 4940.0085 6944.0205 C 5116.9354 6924.4724 5360.605 6906.3782 5611.2854 6890.8455 C 5640.9563 7512.4724 5672.1432 8079.0425 5686.5779 8279.3912 C 5687.0583 8306.8502 5688.8536 8335.1572 5691.8489 8363.5721 C 5691.8769 8363.8925 5691.9762 8365.6867 5692.0039 8366.0009 C 5692.0258 8366.2282 5692.1332 8366.3962 5692.159 8366.621 C 5704.3404 8478.6779 5736.8686 8591.789 5797.0105 8659.0063 C 5893.0105 8765.0063 5966.0229 8738.9894 6101.0229 8639.9894 C 6235.0229 8541.9894 6321.9763 8365.0126 6356.9763 8260.0126 C 6392.9319 8156.3532 6403.6585 8079.0961 6390.5143 8023.7996 C 6381.5335 7910.1912 6329.1137 7406.8375 6277.1879 6857.1008 C 6484.847 6848.5878 6658.6627 6842.8221 6725.3776 6843.9233 C 6781.4858 6852.3157 6841.0581 6819.0928 6925.0036 6757.9854 C 7058.0036 6660.9854 7145.0087 6482.975 7181.0087 6376.975 C 7274.0087 6107.975 7195.9984 6016.986 6967.9984 6028.986 C 6937.5031 6030.7401 6907.5036 6033.7699 6878.2364 6037.8743 C 6705.2945 6055.189 6457.658 6078.9187 6211.042 6102.5732 C 6193.3848 5876.0034 6180.9247 5681.101 6179.9845 5564.9833 C 6178.8727 5427.9511 6176.9465 5177.3535 6176.9356 4875.7747 C 6412.6582 4857.1456 6618.0947 4842.2161 6689.3074 4842.03 C 6745.2601 4850.1943 6804.8827 4816.9438 6888.0033 4755.9887 C 7022.0033 4657.9887 7108.0083 4480.9784 7144.0083 4374.9784 C 7237.0083 4104.9784 7158.9799 4013.9893 6931.9799 4026.9893 C 6913.1046 4027.9915 6894.489 4029.6748 6876.0144 4031.5885 C 6872.5555 4031.8404 6869.5585 4031.648 6865.9891 4032.0019 C 6697.7497 4051.209 6447.1641 4082.7083 6182.1032 4116.1828 C 6191.6579 3459.3937 6216.7569 2745.7841 6278.0147 2292.9866 C 6278.191 2291.3592 6277.7391 2289.9334 6277.6529 2288.3874 C 6291.7257 2147.8044 6219.7146 2091.5482 6069.8103 2090.1566 z M 5553.3561 4928.278 C 5554.772 5145.6869 5556.4674 5348.2568 5558.007 5489.0189 C 5559.7317 5646.7094 5567.5297 5887.8339 5578.5225 6163.8614 C 5367.0083 6184.1838 5130.0493 6206.7515 4988.0159 6221.0156 C 4860.1215 6233.6403 4682.3984 6252.7995 4489.235 6274.2423 C 4493.831 6037.5536 4496.7225 5835.9636 4496.0046 5717.9972 C 4494.6747 5586.5992 4495.5018 5333.5998 4497.0898 5029.4087 C 4617.5785 5017.2718 4736.7435 5005.3309 4807.9752 4997.9895 C 4944.8364 4983.5028 5241.1743 4956.0435 5553.3561 4928.278 z " />
   
  
</svg>
