<?xml version="1.0" encoding="UTF-8" standalone="no"?>
<svg
   version="1.2"
   width="100mm"
   height="100mm"
   viewBox="0 0 10000 10000"
   preserveAspectRatio="xMidYMid"
   fill-rule="evenodd"
   stroke-width="28.222"
   stroke-linejoin="round"
   xml:space="preserve"
   id="svg20"
   sodipodi:docname="gobo-caps-0025.svg"
   inkscape:version="1.4 (86a8ad7, 2024-10-11)"
   xmlns:inkscape="http://www.inkscape.org/namespaces/inkscape"
   xmlns:sodipodi="http://sodipodi.sourceforge.net/DTD/sodipodi-0.dtd"
   xmlns="http://www.w3.org/2000/svg"
   xmlns:svg="http://www.w3.org/2000/svg"
   xmlns:ooo="http://xml.openoffice.org/svg/export"><sodipodi:namedview
   id="namedview20"
   pagecolor="#ffffff"
   bordercolor="#000000"
   borderopacity="0.25"
   inkscape:showpageshadow="2"
   inkscape:pageopacity="0.0"
   inkscape:pagecheckerboard="0"
   inkscape:deskcolor="#d1d1d1"
   inkscape:document-units="mm"
   showgrid="false"
   inkscape:zoom="3.0876875"
   inkscape:cx="188.81444"
   inkscape:cy="188.97638"
   inkscape:window-width="2560"
   inkscape:window-height="1369"
   inkscape:window-x="-8"
   inkscape:window-y="-8"
   inkscape:window-maximized="1"
   inkscape:current-layer="svg20" />
 <defs
   class="ClipPathGroup"
   id="defs2">
  
  <clipPath
   id="presentation_clip_path_shrink"
   clipPathUnits="userSpaceOnUse">
   <rect
   x="10"
   y="10"
   width="9980"
   height="9980"
   id="rect2" />
  </clipPath>
 
  
 
   
  
    
   
     
    
      
      
      
      
      
     
       
      
       
      
       
      
       
      
       
      
        
        
       
        
        
       
        
        
       
        
        
       
        
        
       </defs>
 <defs
   class="TextShapeIndex"
   id="defs3">
  <g
   ooo:slide="id1"
   ooo:id-list="id3 id4 id5 id6 id7"
   id="g2" />
 </defs>
 <defs
   class="EmbeddedBulletChars"
   id="defs12">
  <g
   id="bullet-char-template-57356"
   transform="scale(0.00048828125,-0.00048828125)">
   <path
   d="M 580,1141 L 1163,571 580,0 -4,571 580,1141 Z"
   id="path3" />
  </g>
  <g
   id="bullet-char-template-57354"
   transform="scale(0.00048828125,-0.00048828125)">
   <path
   d="M 8,1128 L 1137,1128 1137,0 8,0 8,1128 Z"
   id="path4" />
  </g>
  <g
   id="bullet-char-template-10146"
   transform="scale(0.00048828125,-0.00048828125)">
   <path
   d="M 174,0 L 602,739 174,1481 1456,739 174,0 Z M 1358,739 L 309,1346 659,739 1358,739 Z"
   id="path5" />
  </g>
  <g
   id="bullet-char-template-10132"
   transform="scale(0.00048828125,-0.00048828125)">
   <path
   d="M 2015,739 L 1276,0 717,0 1260,543 174,543 174,936 1260,936 717,1481 1274,1481 2015,739 Z"
   id="path6" />
  </g>
  <g
   id="bullet-char-template-10007"
   transform="scale(0.00048828125,-0.00048828125)">
   <path
   d="M 0,-2 C -7,14 -16,27 -25,37 L 356,567 C 262,823 215,952 215,954 215,979 228,992 255,992 264,992 276,990 289,987 310,991 331,999 354,1012 L 381,999 492,748 772,1049 836,1024 860,1049 C 881,1039 901,1025 922,1006 886,937 835,863 770,784 769,783 710,716 594,584 L 774,223 C 774,196 753,168 711,139 L 727,119 C 717,90 699,76 672,76 641,76 570,178 457,381 L 164,-76 C 142,-110 111,-127 72,-127 30,-127 9,-110 8,-76 1,-67 -2,-52 -2,-32 -2,-23 -1,-13 0,-2 Z"
   id="path7" />
  </g>
  <g
   id="bullet-char-template-10004"
   transform="scale(0.00048828125,-0.00048828125)">
   <path
   d="M 285,-33 C 182,-33 111,30 74,156 52,228 41,333 41,471 41,549 55,616 82,672 116,743 169,778 240,778 293,778 328,747 346,684 L 369,508 C 377,444 397,411 428,410 L 1163,1116 C 1174,1127 1196,1133 1229,1133 1271,1133 1292,1118 1292,1087 L 1292,965 C 1292,929 1282,901 1262,881 L 442,47 C 390,-6 338,-33 285,-33 Z"
   id="path8" />
  </g>
  <g
   id="bullet-char-template-9679"
   transform="scale(0.00048828125,-0.00048828125)">
   <path
   d="M 813,0 C 632,0 489,54 383,161 276,268 223,411 223,592 223,773 276,916 383,1023 489,1130 632,1184 813,1184 992,1184 1136,1130 1245,1023 1353,916 1407,772 1407,592 1407,412 1353,268 1245,161 1136,54 992,0 813,0 Z"
   id="path9" />
  </g>
  <g
   id="bullet-char-template-8226"
   transform="scale(0.00048828125,-0.00048828125)">
   <path
   d="M 346,457 C 273,457 209,483 155,535 101,586 74,649 74,723 74,796 101,859 155,911 209,963 273,989 346,989 419,989 480,963 531,910 582,859 608,796 608,723 608,648 583,586 532,535 482,483 420,457 346,457 Z"
   id="path10" />
  </g>
  <g
   id="bullet-char-template-8211"
   transform="scale(0.00048828125,-0.00048828125)">
   <path
   d="M -4,459 L 1135,459 1135,606 -4,606 -4,459 Z"
   id="path11" />
  </g>
  <g
   id="bullet-char-template-61548"
   transform="scale(0.00048828125,-0.00048828125)">
   <path
   d="M 173,740 C 173,903 231,1043 346,1159 462,1274 601,1332 765,1332 928,1332 1067,1274 1183,1159 1299,1043 1357,903 1357,740 1357,577 1299,437 1183,322 1067,206 928,148 765,148 601,148 462,206 346,322 231,437 173,577 173,740 Z"
   id="path12" />
  </g>
 </defs>
 
 <path
   id="path13"
   d="M 6999.8311 2999.9719 C 6986.813 2999.8987 6973.1942 3000.2554 6959.0067 3001.0054 C 6780.0276 3011.3007 6614.9453 3061.7663 6543.5282 3156.8099 C 6543.0651 3157.2688 6542.4021 3157.4947 6541.9779 3157.9984 C 6335.9779 3429.9984 5313.0084 4823.9928 4772.0084 5535.9928 C 4233.0084 6248.9928 3401.9837 7253.9898 3229.9837 7574.9898 C 3227.6086 7578.636 3225.9487 7582.7564 3224.7644 7587.1854 C 3216.4121 7603.9508 3210.7159 7621.861 3208.0212 7640.9806 C 3185.0212 7790.9806 3207.9788 8035.9934 3309.9788 8149.9934 C 3406.9788 8255.9934 3479.0248 8229.9765 3615.0248 8130.9765 C 3666.4198 8093.1065 3710.8265 8043.4314 3748.195 7990.6233 C 3754.2245 7985.27 3759.9488 7979.3099 3764.9898 7972.0198 C 3897.9898 7735.0198 4724.9921 6528.992 5293.9921 5760.992 C 5860.9921 4994.992 6794.0074 3887.0094 7033.0074 3613.0094 C 7035.8675 3609.7702 7037.8692 3606.0211 7039.3636 3602.0023 C 7103.5556 3515.0823 7147.8497 3418.0923 7170.9834 3349.9764 C 7258.1709 3096.8514 7195.1021 3001.0705 6999.8311 2999.9719 z M 3937.8991 3263.1083 C 3901.6103 3263.5338 3864.3322 3265.7938 3826.0197 3269.9813 C 3213.0197 3336.9813 2716.9966 3872.9935 2636.9966 4507.9935 C 2556.9966 5142.9935 2977.0125 5553.0134 3647.0125 5495.0134 C 4317.0125 5437.0134 4804.0171 4851.0177 4800.0171 4239.0177 C 4796.2671 3665.2677 4482.2314 3256.7252 3937.8991 3263.1083 z M 3733.0021 4008.0241 C 3995.0021 4003.0241 4135.006 4250.9791 4177.006 4448.9791 C 4219.006 4646.9791 4017.0215 4766.0053 3712.0215 4738.0053 C 3407.0215 4710.0053 3197.9769 4542.9753 3255.9769 4340.9753 C 3313.9769 4138.9753 3471.0021 4013.0241 3733.0021 4008.0241 z M 6510.9204 5600.1232 C 6474.6315 5600.5488 6437.3017 5602.8087 6398.9892 5606.9962 C 5785.9892 5673.9962 5290.0179 6210.0085 5210.0179 6845.0085 C 5130.0179 7480.0085 5549.982 7889.9767 6219.982 7831.9767 C 6889.982 7773.9767 7376.9866 7187.981 7372.9866 6575.981 C 7369.2366 6002.231 7055.2526 5593.7402 6510.9204 5600.1232 z M 6306.0233 6344.9873 C 6568.0233 6339.9873 6707.9755 6587.994 6749.9755 6785.994 C 6791.9755 6983.994 6589.991 7103.0203 6284.991 7075.0203 C 5979.991 7047.0203 5770.9982 6879.9903 5828.9982 6677.9903 C 5886.9982 6475.9903 6044.0233 6349.9873 6306.0233 6344.9873 z " />
   
  
</svg>
