<?xml version="1.0" encoding="UTF-8" standalone="no"?>
<svg
   version="1.2"
   width="100mm"
   height="100mm"
   viewBox="0 0 10000 10000"
   preserveAspectRatio="xMidYMid"
   fill-rule="evenodd"
   stroke-width="28.222"
   stroke-linejoin="round"
   xml:space="preserve"
   id="svg23"
   sodipodi:docname="gobo-caps-0026.svg"
   inkscape:version="1.4 (86a8ad7, 2024-10-11)"
   xmlns:inkscape="http://www.inkscape.org/namespaces/inkscape"
   xmlns:sodipodi="http://sodipodi.sourceforge.net/DTD/sodipodi-0.dtd"
   xmlns="http://www.w3.org/2000/svg"
   xmlns:svg="http://www.w3.org/2000/svg"
   xmlns:ooo="http://xml.openoffice.org/svg/export"><sodipodi:namedview
   id="namedview23"
   pagecolor="#ffffff"
   bordercolor="#000000"
   borderopacity="0.25"
   inkscape:showpageshadow="2"
   inkscape:pageopacity="0.0"
   inkscape:pagecheckerboard="0"
   inkscape:deskcolor="#d1d1d1"
   inkscape:document-units="mm"
   showgrid="false"
   inkscape:zoom="3.0876875"
   inkscape:cx="188.81444"
   inkscape:cy="188.97638"
   inkscape:window-width="2560"
   inkscape:window-height="1369"
   inkscape:window-x="-8"
   inkscape:window-y="-8"
   inkscape:window-maximized="1"
   inkscape:current-layer="svg23" />
 <defs
   class="ClipPathGroup"
   id="defs2">
  
  <clipPath
   id="presentation_clip_path_shrink"
   clipPathUnits="userSpaceOnUse">
   <rect
   x="10"
   y="10"
   width="9980"
   height="9980"
   id="rect2" />
  </clipPath>
 
  
 
   
  
    
   
     
    
      
      
      
      
      
      
      
      
     
       
      
       
      
       
      
       
      
       
      
       
      
       
      
       
      
        
        
       
        
        
       
        
        
       
        
        
       
        
        
       
        
        
       
        
        
       
        
        
       </defs>
 <defs
   class="TextShapeIndex"
   id="defs3">
  <g
   ooo:slide="id1"
   ooo:id-list="id3 id4 id5 id6 id7 id8 id9 id10"
   id="g2" />
 </defs>
 <defs
   class="EmbeddedBulletChars"
   id="defs12">
  <g
   id="bullet-char-template-57356"
   transform="scale(0.00048828125,-0.00048828125)">
   <path
   d="M 580,1141 L 1163,571 580,0 -4,571 580,1141 Z"
   id="path3" />
  </g>
  <g
   id="bullet-char-template-57354"
   transform="scale(0.00048828125,-0.00048828125)">
   <path
   d="M 8,1128 L 1137,1128 1137,0 8,0 8,1128 Z"
   id="path4" />
  </g>
  <g
   id="bullet-char-template-10146"
   transform="scale(0.00048828125,-0.00048828125)">
   <path
   d="M 174,0 L 602,739 174,1481 1456,739 174,0 Z M 1358,739 L 309,1346 659,739 1358,739 Z"
   id="path5" />
  </g>
  <g
   id="bullet-char-template-10132"
   transform="scale(0.00048828125,-0.00048828125)">
   <path
   d="M 2015,739 L 1276,0 717,0 1260,543 174,543 174,936 1260,936 717,1481 1274,1481 2015,739 Z"
   id="path6" />
  </g>
  <g
   id="bullet-char-template-10007"
   transform="scale(0.00048828125,-0.00048828125)">
   <path
   d="M 0,-2 C -7,14 -16,27 -25,37 L 356,567 C 262,823 215,952 215,954 215,979 228,992 255,992 264,992 276,990 289,987 310,991 331,999 354,1012 L 381,999 492,748 772,1049 836,1024 860,1049 C 881,1039 901,1025 922,1006 886,937 835,863 770,784 769,783 710,716 594,584 L 774,223 C 774,196 753,168 711,139 L 727,119 C 717,90 699,76 672,76 641,76 570,178 457,381 L 164,-76 C 142,-110 111,-127 72,-127 30,-127 9,-110 8,-76 1,-67 -2,-52 -2,-32 -2,-23 -1,-13 0,-2 Z"
   id="path7" />
  </g>
  <g
   id="bullet-char-template-10004"
   transform="scale(0.00048828125,-0.00048828125)">
   <path
   d="M 285,-33 C 182,-33 111,30 74,156 52,228 41,333 41,471 41,549 55,616 82,672 116,743 169,778 240,778 293,778 328,747 346,684 L 369,508 C 377,444 397,411 428,410 L 1163,1116 C 1174,1127 1196,1133 1229,1133 1271,1133 1292,1118 1292,1087 L 1292,965 C 1292,929 1282,901 1262,881 L 442,47 C 390,-6 338,-33 285,-33 Z"
   id="path8" />
  </g>
  <g
   id="bullet-char-template-9679"
   transform="scale(0.00048828125,-0.00048828125)">
   <path
   d="M 813,0 C 632,0 489,54 383,161 276,268 223,411 223,592 223,773 276,916 383,1023 489,1130 632,1184 813,1184 992,1184 1136,1130 1245,1023 1353,916 1407,772 1407,592 1407,412 1353,268 1245,161 1136,54 992,0 813,0 Z"
   id="path9" />
  </g>
  <g
   id="bullet-char-template-8226"
   transform="scale(0.00048828125,-0.00048828125)">
   <path
   d="M 346,457 C 273,457 209,483 155,535 101,586 74,649 74,723 74,796 101,859 155,911 209,963 273,989 346,989 419,989 480,963 531,910 582,859 608,796 608,723 608,648 583,586 532,535 482,483 420,457 346,457 Z"
   id="path10" />
  </g>
  <g
   id="bullet-char-template-8211"
   transform="scale(0.00048828125,-0.00048828125)">
   <path
   d="M -4,459 L 1135,459 1135,606 -4,606 -4,459 Z"
   id="path11" />
  </g>
  <g
   id="bullet-char-template-61548"
   transform="scale(0.00048828125,-0.00048828125)">
   <path
   d="M 173,740 C 173,903 231,1043 346,1159 462,1274 601,1332 765,1332 928,1332 1067,1274 1183,1159 1299,1043 1357,903 1357,740 1357,577 1299,437 1183,322 1067,206 928,148 765,148 601,148 462,206 346,322 231,437 173,577 173,740 Z"
   id="path12" />
  </g>
 </defs>
 
 <path
   id="path13"
   d="M 4773.197 3155.518 C 4309.9817 3161.2818 3809.3375 3354.0765 3573.9937 3921.9828 C 3381.5477 4386.3729 3457.8329 4733.481 3656.0559 4993.0802 C 3251.3578 5231.5276 2943.5258 5643.263 2872.0211 6222.9793 C 2722.0211 7429.9793 3634.9749 8100.9755 4770.9749 8019.9755 C 5844.4144 7943.4363 6275.5108 7360.2776 6425.2408 6508.2849 C 6506.9907 6504.785 6589.8144 6503.3783 6672.9777 6504.9776 C 6677.1264 6505.0473 6681.523 6503.907 6686.0518 6502.032 C 6732.4391 6495.6768 6783.6246 6464.6815 6850.0211 6415.9908 C 6984.0211 6318.9908 7071.008 6142.014 7107.008 6036.014 C 7200.008 5766.014 7121.9978 5674.9913 6893.9978 5686.9913 C 6884.9566 5687.5114 6876.0316 5688.3329 6867.0743 5689.0584 C 6866.3702 5689.0699 6865.7226 5688.9766 6865.0073 5689.0067 C 6863.8239 5689.1518 6862.3707 5689.326 6861.1832 5689.4718 C 6831.8015 5692.0054 6802.9427 5695.5918 6774.9869 5700.3755 C 6341.39 5755.1135 5728.9904 5842.3126 5415.225 5890.2347 C 5201.4615 5908.0852 5015.0635 5984.6057 4994.9922 6127.0161 C 4971.9922 6277.0161 4995.0015 6522.9773 5097.0015 6635.9773 C 5148.5328 6692.2898 5192.9986 6711.3691 5243.7626 6702.0198 L 5243.8143 6702.0198 C 5247.2385 6702.8828 5250.6411 6703.0677 5253.9945 6702.0198 C 5338.1375 6673.9721 5513.6154 6627.6048 5738.6161 6586.7814 C 5698.0542 7331.3544 5092.7384 7298.6662 4712.9939 7269.0136 C 4314.9939 7238.0136 3583.0041 7019.0129 3488.0041 6392.0129 C 3395.0041 5767.0129 3838.0093 5263.9922 4715.0093 5629.9922 C 4720.3909 5631.4599 4726.0673 5632.0257 4732.0109 5631.8526 C 4788.5263 5641.0982 4848.3418 5607.9895 4932.9805 5546.9999 C 5065.9805 5448.9999 5152.9856 5272.9895 5188.9856 5165.9895 C 5254.5518 4974.931 5235.0043 4873.9288 5138.291 4835.4671 C 5133.8194 4832.6181 5128.7358 4830.427 5122.9948 4829.0075 C 4681.9948 4721.0075 3926.9817 4415.0041 4109.9817 4123.0041 C 4291.9817 3831.0041 4790.9939 3826.0032 5179.9939 4180.0032 C 5180.6083 4180.406 5181.459 4180.3927 5182.1126 4180.7267 C 5260.5918 4241.2025 5330.7335 4210.1969 5446.0241 4125.0195 C 5580.0241 4027.0195 5667.011 3850.0092 5703.011 3744.0092 C 5756.941 3587.4382 5753.2342 3491.4823 5696.4481 3440.5652 C 5548.8383 3286.5834 5175.4073 3150.5132 4773.197 3155.518 z " />
   
  
</svg>
