<?xml version="1.0" encoding="UTF-8" standalone="no"?>
<svg
   version="1.2"
   width="100mm"
   height="100mm"
   viewBox="0 0 10000 10000"
   preserveAspectRatio="xMidYMid"
   fill-rule="evenodd"
   stroke-width="28.222"
   stroke-linejoin="round"
   xml:space="preserve"
   id="svg21"
   sodipodi:docname="gobo-caps-004B.svg"
   inkscape:version="1.4 (86a8ad7, 2024-10-11)"
   xmlns:inkscape="http://www.inkscape.org/namespaces/inkscape"
   xmlns:sodipodi="http://sodipodi.sourceforge.net/DTD/sodipodi-0.dtd"
   xmlns="http://www.w3.org/2000/svg"
   xmlns:svg="http://www.w3.org/2000/svg"
   xmlns:ooo="http://xml.openoffice.org/svg/export"><sodipodi:namedview
   id="namedview21"
   pagecolor="#ffffff"
   bordercolor="#000000"
   borderopacity="0.25"
   inkscape:showpageshadow="2"
   inkscape:pageopacity="0.0"
   inkscape:pagecheckerboard="0"
   inkscape:deskcolor="#d1d1d1"
   inkscape:document-units="mm"
   showgrid="false"
   inkscape:zoom="3.0876875"
   inkscape:cx="188.81444"
   inkscape:cy="188.97638"
   inkscape:window-width="2560"
   inkscape:window-height="1369"
   inkscape:window-x="-8"
   inkscape:window-y="-8"
   inkscape:window-maximized="1"
   inkscape:current-layer="svg21" />
 <defs
   class="ClipPathGroup"
   id="defs2">
  
  <clipPath
   id="presentation_clip_path_shrink"
   clipPathUnits="userSpaceOnUse">
   <rect
   x="10"
   y="10"
   width="9980"
   height="9980"
   id="rect2" />
  </clipPath>
 
  
 
   
  
    
   
     
    
      
      
      
      
      
      
     
       
      
       
      
       
      
       
      
       
      
       
      
        
        
       
        
        
       
        
        
       
        
        
       
        
        
       
        
        
       </defs>
 <defs
   class="TextShapeIndex"
   id="defs3">
  <g
   ooo:slide="id1"
   ooo:id-list="id3 id4 id5 id6 id7 id8"
   id="g2" />
 </defs>
 <defs
   class="EmbeddedBulletChars"
   id="defs12">
  <g
   id="bullet-char-template-57356"
   transform="scale(0.00048828125,-0.00048828125)">
   <path
   d="M 580,1141 L 1163,571 580,0 -4,571 580,1141 Z"
   id="path3" />
  </g>
  <g
   id="bullet-char-template-57354"
   transform="scale(0.00048828125,-0.00048828125)">
   <path
   d="M 8,1128 L 1137,1128 1137,0 8,0 8,1128 Z"
   id="path4" />
  </g>
  <g
   id="bullet-char-template-10146"
   transform="scale(0.00048828125,-0.00048828125)">
   <path
   d="M 174,0 L 602,739 174,1481 1456,739 174,0 Z M 1358,739 L 309,1346 659,739 1358,739 Z"
   id="path5" />
  </g>
  <g
   id="bullet-char-template-10132"
   transform="scale(0.00048828125,-0.00048828125)">
   <path
   d="M 2015,739 L 1276,0 717,0 1260,543 174,543 174,936 1260,936 717,1481 1274,1481 2015,739 Z"
   id="path6" />
  </g>
  <g
   id="bullet-char-template-10007"
   transform="scale(0.00048828125,-0.00048828125)">
   <path
   d="M 0,-2 C -7,14 -16,27 -25,37 L 356,567 C 262,823 215,952 215,954 215,979 228,992 255,992 264,992 276,990 289,987 310,991 331,999 354,1012 L 381,999 492,748 772,1049 836,1024 860,1049 C 881,1039 901,1025 922,1006 886,937 835,863 770,784 769,783 710,716 594,584 L 774,223 C 774,196 753,168 711,139 L 727,119 C 717,90 699,76 672,76 641,76 570,178 457,381 L 164,-76 C 142,-110 111,-127 72,-127 30,-127 9,-110 8,-76 1,-67 -2,-52 -2,-32 -2,-23 -1,-13 0,-2 Z"
   id="path7" />
  </g>
  <g
   id="bullet-char-template-10004"
   transform="scale(0.00048828125,-0.00048828125)">
   <path
   d="M 285,-33 C 182,-33 111,30 74,156 52,228 41,333 41,471 41,549 55,616 82,672 116,743 169,778 240,778 293,778 328,747 346,684 L 369,508 C 377,444 397,411 428,410 L 1163,1116 C 1174,1127 1196,1133 1229,1133 1271,1133 1292,1118 1292,1087 L 1292,965 C 1292,929 1282,901 1262,881 L 442,47 C 390,-6 338,-33 285,-33 Z"
   id="path8" />
  </g>
  <g
   id="bullet-char-template-9679"
   transform="scale(0.00048828125,-0.00048828125)">
   <path
   d="M 813,0 C 632,0 489,54 383,161 276,268 223,411 223,592 223,773 276,916 383,1023 489,1130 632,1184 813,1184 992,1184 1136,1130 1245,1023 1353,916 1407,772 1407,592 1407,412 1353,268 1245,161 1136,54 992,0 813,0 Z"
   id="path9" />
  </g>
  <g
   id="bullet-char-template-8226"
   transform="scale(0.00048828125,-0.00048828125)">
   <path
   d="M 346,457 C 273,457 209,483 155,535 101,586 74,649 74,723 74,796 101,859 155,911 209,963 273,989 346,989 419,989 480,963 531,910 582,859 608,796 608,723 608,648 583,586 532,535 482,483 420,457 346,457 Z"
   id="path10" />
  </g>
  <g
   id="bullet-char-template-8211"
   transform="scale(0.00048828125,-0.00048828125)">
   <path
   d="M -4,459 L 1135,459 1135,606 -4,606 -4,459 Z"
   id="path11" />
  </g>
  <g
   id="bullet-char-template-61548"
   transform="scale(0.00048828125,-0.00048828125)">
   <path
   d="M 173,740 C 173,903 231,1043 346,1159 462,1274 601,1332 765,1332 928,1332 1067,1274 1183,1159 1299,1043 1357,903 1357,740 1357,577 1299,437 1183,322 1067,206 928,148 765,148 601,148 462,206 346,322 231,437 173,577 173,740 Z"
   id="path12" />
  </g>
 </defs>
 
 <path
   id="path13"
   d="M 7030.992 2006.9576 C 7017.9261 2006.8843 7004.2626 2007.2411 6990.0126 2007.9911 C 6823.6791 2017.559 6669.3325 2061.8744 6591.0188 2144.3652 C 6585.3612 2148.8523 6579.942 2153.9585 6574.9991 2160.0232 C 6256.9991 2589.0232 5314.9764 3496.978 4619.9764 4169.978 C 3935.2309 4830.163 3674.1555 5046.2383 3388.3203 5420.5476 C 3384.5115 4482.3048 3452.5338 2878.9979 3492.7067 2538.8114 C 3520.4563 2365.5229 3435.2289 2305.0932 3246.9852 2315.0008 C 3019.9852 2327.0008 2817.005 2405.0043 2796.005 2554.0043 C 2794.3171 2565.5129 2792.962 2577.7457 2791.8192 2590.2811 C 2791.6212 2591.1942 2791.0747 2592.1054 2790.9924 2593.02 C 2790.7075 2597.0674 2790.4473 2606.3686 2790.1656 2610.7967 C 2789.644 2618.8967 2789.3743 2627.2112 2789.0804 2635.6014 C 2766.3743 3040.4666 2754.0746 4660.5137 2756.9893 5361.0164 C 2759.9893 6079.0164 2805.0192 8278.9783 2818.0192 8651.9783 C 2818.0192 8656.9415 2819.4266 8661.1044 2821.4815 8664.8974 C 2830.9479 8785.9891 2863.7233 8913.0359 2929.0202 8986.0147 C 3025.0202 9092.0147 3097.9809 9065.9978 3232.9809 8966.9978 C 3366.9809 8867.9978 3452.986 8691.9875 3488.986 8585.9875 C 3518.6977 8499.4081 3530.8779 8431.4043 3526.3997 8379.2301 C 3519.9229 8126.5629 3474.9493 7436.9577 3437.9297 6755.97 C 4300.1904 7320.6823 6579.9481 8513.7753 6706.9807 8602.989 C 6713.2638 8607.3872 6720.9694 8609.36 6729.305 8610.1204 C 6791.4751 8630.9182 6854.6943 8597.4122 6947.9996 8528.9884 C 7080.9996 8430.9884 7168.9865 8254.0116 7204.9865 8149.0116 C 7266.4746 7968.5575 7252.3639 7868.1255 7168.2446 7824.897 C 7165.7336 7823.3225 7163.6823 7821.4585 7161.0099 7819.9877 C 6882.0099 7666.9877 4178.9809 6255.9977 3867.9809 6090.9977 C 3558.9809 5925.9977 3981.0118 5581.9971 4675.0118 4914.9971 C 5340.666 4276.238 6522.615 3193.6237 6987.6871 2702.7807 C 7006.9932 2685.2321 7025.1187 2666.217 7042.1024 2646.1434 C 7043.991 2644.0925 7047.1195 2641.0358 7048.9754 2639.012 C 7049.4954 2638.2549 7049.5638 2637.2503 7050.0606 2636.4799 C 7125.8228 2543.5847 7177.4184 2432.4045 7203.0228 2357.0137 C 7289.2728 2103.8887 7226.9807 2008.0562 7030.992 2006.9576 z " />
   
  
</svg>
