<?xml version="1.0" encoding="UTF-8" standalone="no"?>
<svg
   version="1.2"
   width="100mm"
   height="100mm"
   viewBox="0 0 10000 10000"
   preserveAspectRatio="xMidYMid"
   fill-rule="evenodd"
   stroke-width="28.222"
   stroke-linejoin="round"
   xml:space="preserve"
   id="svg20"
   sodipodi:docname="gobo-caps-0034.svg"
   inkscape:version="1.4 (86a8ad7, 2024-10-11)"
   xmlns:inkscape="http://www.inkscape.org/namespaces/inkscape"
   xmlns:sodipodi="http://sodipodi.sourceforge.net/DTD/sodipodi-0.dtd"
   xmlns="http://www.w3.org/2000/svg"
   xmlns:svg="http://www.w3.org/2000/svg"
   xmlns:ooo="http://xml.openoffice.org/svg/export"><sodipodi:namedview
   id="namedview20"
   pagecolor="#ffffff"
   bordercolor="#000000"
   borderopacity="0.25"
   inkscape:showpageshadow="2"
   inkscape:pageopacity="0.0"
   inkscape:pagecheckerboard="0"
   inkscape:deskcolor="#d1d1d1"
   inkscape:document-units="mm"
   showgrid="false"
   inkscape:zoom="3.0876875"
   inkscape:cx="188.81444"
   inkscape:cy="188.97638"
   inkscape:window-width="2560"
   inkscape:window-height="1369"
   inkscape:window-x="-8"
   inkscape:window-y="-8"
   inkscape:window-maximized="1"
   inkscape:current-layer="svg20" />
 <defs
   class="ClipPathGroup"
   id="defs2">
  
  <clipPath
   id="presentation_clip_path_shrink"
   clipPathUnits="userSpaceOnUse">
   <rect
   x="10"
   y="10"
   width="9980"
   height="9980"
   id="rect2" />
  </clipPath>
 
  
 
   
  
    
   
     
    
      
      
      
      
      
     
       
      
       
      
       
      
       
      
       
      
        
        
       
        
        
       
        
        
       
        
        
       
        
        
       </defs>
 <defs
   class="TextShapeIndex"
   id="defs3">
  <g
   ooo:slide="id1"
   ooo:id-list="id3 id4 id5 id6 id7"
   id="g2" />
 </defs>
 <defs
   class="EmbeddedBulletChars"
   id="defs12">
  <g
   id="bullet-char-template-57356"
   transform="scale(0.00048828125,-0.00048828125)">
   <path
   d="M 580,1141 L 1163,571 580,0 -4,571 580,1141 Z"
   id="path3" />
  </g>
  <g
   id="bullet-char-template-57354"
   transform="scale(0.00048828125,-0.00048828125)">
   <path
   d="M 8,1128 L 1137,1128 1137,0 8,0 8,1128 Z"
   id="path4" />
  </g>
  <g
   id="bullet-char-template-10146"
   transform="scale(0.00048828125,-0.00048828125)">
   <path
   d="M 174,0 L 602,739 174,1481 1456,739 174,0 Z M 1358,739 L 309,1346 659,739 1358,739 Z"
   id="path5" />
  </g>
  <g
   id="bullet-char-template-10132"
   transform="scale(0.00048828125,-0.00048828125)">
   <path
   d="M 2015,739 L 1276,0 717,0 1260,543 174,543 174,936 1260,936 717,1481 1274,1481 2015,739 Z"
   id="path6" />
  </g>
  <g
   id="bullet-char-template-10007"
   transform="scale(0.00048828125,-0.00048828125)">
   <path
   d="M 0,-2 C -7,14 -16,27 -25,37 L 356,567 C 262,823 215,952 215,954 215,979 228,992 255,992 264,992 276,990 289,987 310,991 331,999 354,1012 L 381,999 492,748 772,1049 836,1024 860,1049 C 881,1039 901,1025 922,1006 886,937 835,863 770,784 769,783 710,716 594,584 L 774,223 C 774,196 753,168 711,139 L 727,119 C 717,90 699,76 672,76 641,76 570,178 457,381 L 164,-76 C 142,-110 111,-127 72,-127 30,-127 9,-110 8,-76 1,-67 -2,-52 -2,-32 -2,-23 -1,-13 0,-2 Z"
   id="path7" />
  </g>
  <g
   id="bullet-char-template-10004"
   transform="scale(0.00048828125,-0.00048828125)">
   <path
   d="M 285,-33 C 182,-33 111,30 74,156 52,228 41,333 41,471 41,549 55,616 82,672 116,743 169,778 240,778 293,778 328,747 346,684 L 369,508 C 377,444 397,411 428,410 L 1163,1116 C 1174,1127 1196,1133 1229,1133 1271,1133 1292,1118 1292,1087 L 1292,965 C 1292,929 1282,901 1262,881 L 442,47 C 390,-6 338,-33 285,-33 Z"
   id="path8" />
  </g>
  <g
   id="bullet-char-template-9679"
   transform="scale(0.00048828125,-0.00048828125)">
   <path
   d="M 813,0 C 632,0 489,54 383,161 276,268 223,411 223,592 223,773 276,916 383,1023 489,1130 632,1184 813,1184 992,1184 1136,1130 1245,1023 1353,916 1407,772 1407,592 1407,412 1353,268 1245,161 1136,54 992,0 813,0 Z"
   id="path9" />
  </g>
  <g
   id="bullet-char-template-8226"
   transform="scale(0.00048828125,-0.00048828125)">
   <path
   d="M 346,457 C 273,457 209,483 155,535 101,586 74,649 74,723 74,796 101,859 155,911 209,963 273,989 346,989 419,989 480,963 531,910 582,859 608,796 608,723 608,648 583,586 532,535 482,483 420,457 346,457 Z"
   id="path10" />
  </g>
  <g
   id="bullet-char-template-8211"
   transform="scale(0.00048828125,-0.00048828125)">
   <path
   d="M -4,459 L 1135,459 1135,606 -4,606 -4,459 Z"
   id="path11" />
  </g>
  <g
   id="bullet-char-template-61548"
   transform="scale(0.00048828125,-0.00048828125)">
   <path
   d="M 173,740 C 173,903 231,1043 346,1159 462,1274 601,1332 765,1332 928,1332 1067,1274 1183,1159 1299,1043 1357,903 1357,740 1357,577 1299,437 1183,322 1067,206 928,148 765,148 601,148 462,206 346,322 231,437 173,577 173,740 Z"
   id="path12" />
  </g>
 </defs>
 
 <path
   id="path13"
   d="M 5633.8163 3124.9772 C 5620.7982 3124.911 5607.1794 3125.2607 5592.9919 3126.0107 C 5415.1235 3135.4135 5251.3904 3185.3459 5179.2187 3278.1978 C 5178.5172 3278.8647 5177.668 3279.2903 5176.9966 3280.0065 C 4650.9966 4067.0065 4138.0209 4759.0118 3806.0209 5310.0118 C 3474.0209 5862.0118 3384.0192 6259.981 3453.0192 6575.981 C 3521.0192 6891.981 3543.0082 7049.9851 4268.0082 6888.9851 C 4582.3961 6818.2044 4900.1643 6779.6073 5189.6573 6757.6236 C 5173.2308 7070.1613 5158.1468 7359.899 5155.0858 7545.9993 C 5143.3744 7695.5986 5170.8624 7906.0582 5262.9862 8009.0201 C 5359.9862 8115.0201 5431.9987 8089.0032 5566.9987 7990.0032 C 5700.9987 7892.0032 5787.9856 7714.9747 5823.9856 7609.9747 C 5846.3617 7544.7711 5858.7358 7490.1646 5861.606 7444.8168 C 5862.0316 7443.2175 5862.8245 7441.5613 5863.0013 7440.0109 C 5872.9055 7282.487 5882.4457 7034.2307 5887.2892 6730.5969 C 5963.6434 6730.3197 6034.3479 6730.5205 6090.9977 6731.0103 C 6097.7904 6730.9763 6104.8644 6729.7754 6112.0817 6727.9097 C 6157.6708 6720.5202 6208.0444 6689.6591 6273.0021 6642.0235 C 6406.0021 6545.0235 6493.989 6367.995 6529.989 6261.995 C 6616.9725 6006.7171 6552.7904 5911.5301 6352.8422 5912.0422 C 6352.5475 5912.0453 6352.3111 5911.9862 6352.0153 5911.9905 C 6351.5123 5911.9979 6350.7146 5912.0855 6350.2067 5912.0939 C 6339.4813 5912.1655 6328.4741 5912.419 6316.9787 5913.024 C 6311.3698 5913.3453 6305.8644 5913.8648 6300.2872 5914.2643 C 6204.9076 5919.243 6059.5487 5933.8707 5887.7026 5954.1068 C 5885.8384 5819.1439 5883.285 5681.4096 5879.021 5538.99 C 5855.021 4699.99 5865.0025 3795.9939 5843.0025 3274.9939 C 5842.9943 3274.7085 5842.8613 3274.5005 5842.8474 3274.2187 C 5836.5417 3168.8229 5765.0888 3125.6444 5633.8163 3124.9772 z M 5205.3153 4295.7584 C 5226.0776 4596.3754 5242.0226 4937.6525 5242.9874 5285.0004 C 5244.7692 5498.2149 5236.2861 5764.0362 5224.4356 6040.4064 C 4796.3452 6099.618 4378.0667 6162.118 4222.0162 6185.979 C 3894.0162 6236.979 4081.9934 6043.9966 4171.9934 5811.9966 C 4237.9934 5638.7466 4758.5028 4878.2272 5205.3153 4295.7584 z " />
   
  
</svg>
