<?xml version="1.0" encoding="UTF-8" standalone="no"?>
<svg
   version="1.2"
   width="100mm"
   height="100mm"
   viewBox="0 0 10000 10000"
   preserveAspectRatio="xMidYMid"
   fill-rule="evenodd"
   stroke-width="28.222"
   stroke-linejoin="round"
   xml:space="preserve"
   id="svg21"
   sodipodi:docname="gobo-caps-0192.svg"
   inkscape:version="1.4 (86a8ad7, 2024-10-11)"
   xmlns:inkscape="http://www.inkscape.org/namespaces/inkscape"
   xmlns:sodipodi="http://sodipodi.sourceforge.net/DTD/sodipodi-0.dtd"
   xmlns="http://www.w3.org/2000/svg"
   xmlns:svg="http://www.w3.org/2000/svg"
   xmlns:ooo="http://xml.openoffice.org/svg/export"><sodipodi:namedview
   id="namedview21"
   pagecolor="#ffffff"
   bordercolor="#000000"
   borderopacity="0.25"
   inkscape:showpageshadow="2"
   inkscape:pageopacity="0.0"
   inkscape:pagecheckerboard="0"
   inkscape:deskcolor="#d1d1d1"
   inkscape:document-units="mm"
   showgrid="false"
   inkscape:zoom="3.0876875"
   inkscape:cx="188.81444"
   inkscape:cy="188.97638"
   inkscape:window-width="2560"
   inkscape:window-height="1369"
   inkscape:window-x="-8"
   inkscape:window-y="-8"
   inkscape:window-maximized="1"
   inkscape:current-layer="svg21" />
 <defs
   class="ClipPathGroup"
   id="defs2">
  
  <clipPath
   id="presentation_clip_path_shrink"
   clipPathUnits="userSpaceOnUse">
   <rect
   x="10"
   y="10"
   width="9980"
   height="9980"
   id="rect2" />
  </clipPath>
 
  
 
   
  
    
   
     
    
      
      
      
      
      
      
     
       
      
       
      
       
      
       
      
       
      
       
      
        
        
       
        
        
       
        
        
       
        
        
       
        
        
       
        
        
       </defs>
 <defs
   class="TextShapeIndex"
   id="defs3">
  <g
   ooo:slide="id1"
   ooo:id-list="id3 id4 id5 id6 id7 id8"
   id="g2" />
 </defs>
 <defs
   class="EmbeddedBulletChars"
   id="defs12">
  <g
   id="bullet-char-template-57356"
   transform="scale(0.00048828125,-0.00048828125)">
   <path
   d="M 580,1141 L 1163,571 580,0 -4,571 580,1141 Z"
   id="path3" />
  </g>
  <g
   id="bullet-char-template-57354"
   transform="scale(0.00048828125,-0.00048828125)">
   <path
   d="M 8,1128 L 1137,1128 1137,0 8,0 8,1128 Z"
   id="path4" />
  </g>
  <g
   id="bullet-char-template-10146"
   transform="scale(0.00048828125,-0.00048828125)">
   <path
   d="M 174,0 L 602,739 174,1481 1456,739 174,0 Z M 1358,739 L 309,1346 659,739 1358,739 Z"
   id="path5" />
  </g>
  <g
   id="bullet-char-template-10132"
   transform="scale(0.00048828125,-0.00048828125)">
   <path
   d="M 2015,739 L 1276,0 717,0 1260,543 174,543 174,936 1260,936 717,1481 1274,1481 2015,739 Z"
   id="path6" />
  </g>
  <g
   id="bullet-char-template-10007"
   transform="scale(0.00048828125,-0.00048828125)">
   <path
   d="M 0,-2 C -7,14 -16,27 -25,37 L 356,567 C 262,823 215,952 215,954 215,979 228,992 255,992 264,992 276,990 289,987 310,991 331,999 354,1012 L 381,999 492,748 772,1049 836,1024 860,1049 C 881,1039 901,1025 922,1006 886,937 835,863 770,784 769,783 710,716 594,584 L 774,223 C 774,196 753,168 711,139 L 727,119 C 717,90 699,76 672,76 641,76 570,178 457,381 L 164,-76 C 142,-110 111,-127 72,-127 30,-127 9,-110 8,-76 1,-67 -2,-52 -2,-32 -2,-23 -1,-13 0,-2 Z"
   id="path7" />
  </g>
  <g
   id="bullet-char-template-10004"
   transform="scale(0.00048828125,-0.00048828125)">
   <path
   d="M 285,-33 C 182,-33 111,30 74,156 52,228 41,333 41,471 41,549 55,616 82,672 116,743 169,778 240,778 293,778 328,747 346,684 L 369,508 C 377,444 397,411 428,410 L 1163,1116 C 1174,1127 1196,1133 1229,1133 1271,1133 1292,1118 1292,1087 L 1292,965 C 1292,929 1282,901 1262,881 L 442,47 C 390,-6 338,-33 285,-33 Z"
   id="path8" />
  </g>
  <g
   id="bullet-char-template-9679"
   transform="scale(0.00048828125,-0.00048828125)">
   <path
   d="M 813,0 C 632,0 489,54 383,161 276,268 223,411 223,592 223,773 276,916 383,1023 489,1130 632,1184 813,1184 992,1184 1136,1130 1245,1023 1353,916 1407,772 1407,592 1407,412 1353,268 1245,161 1136,54 992,0 813,0 Z"
   id="path9" />
  </g>
  <g
   id="bullet-char-template-8226"
   transform="scale(0.00048828125,-0.00048828125)">
   <path
   d="M 346,457 C 273,457 209,483 155,535 101,586 74,649 74,723 74,796 101,859 155,911 209,963 273,989 346,989 419,989 480,963 531,910 582,859 608,796 608,723 608,648 583,586 532,535 482,483 420,457 346,457 Z"
   id="path10" />
  </g>
  <g
   id="bullet-char-template-8211"
   transform="scale(0.00048828125,-0.00048828125)">
   <path
   d="M -4,459 L 1135,459 1135,606 -4,606 -4,459 Z"
   id="path11" />
  </g>
  <g
   id="bullet-char-template-61548"
   transform="scale(0.00048828125,-0.00048828125)">
   <path
   d="M 173,740 C 173,903 231,1043 346,1159 462,1274 601,1332 765,1332 928,1332 1067,1274 1183,1159 1299,1043 1357,903 1357,740 1357,577 1299,437 1183,322 1067,206 928,148 765,148 601,148 462,206 346,322 231,437 173,577 173,740 Z"
   id="path12" />
  </g>
 </defs>
 
 <path
   id="path13"
   d="M 6169.8042 2800.1391 C 6156.7862 2800.0183 6143.1674 2800.3301 6128.9799 2801.0176 C 6092.3261 2803.126 6056.4058 2807.143 6021.5962 2812.6965 C 6018.6451 2812.9154 6016.0663 2812.6714 6013.0179 2813.0066 C 5631.0179 2855.0066 5030.9783 3083.0149 4841.9783 3607.0149 C 4669.504 4085.1977 4661.3615 4471.0703 4676.407 5276.4738 C 4282.0913 5343.1647 4167.2159 5384.8557 3881.0034 5449.0214 C 3869.5011 5451.6573 3858.7991 5455.2493 3848.6023 5459.4083 C 3729.0665 5498.017 3642.304 5563.4458 3628.9774 5658.0009 C 3605.9774 5808.0009 3630.0202 6054.0137 3732.0202 6167.0137 C 3777.3562 6217.0721 3817.5438 6237.6247 3861.573 6235.0199 C 3867.3102 6236.8016 3872.8746 6237.2265 3878.0062 6235.0199 C 3885.1986 6232.6224 3894.0462 6229.3386 3901.674 6226.7 C 3904.1341 6225.878 3906.6187 6225.0543 3909.1154 6224.1162 C 4069.6655 6168.0762 4322.9044 6064.5407 4696.1474 5992.244 C 4731.0764 6925.9319 4776.608 8041.2684 4388.0009 8109.9959 C 4386.9774 8110.1459 4386.0209 8110.5465 4385.0036 8110.7193 C 4199.5202 8137.8929 4047.0028 8213.2888 4029.0047 8340.9895 C 4006.0047 8489.9895 4028.9958 8736.0024 4131.9958 8850.0024 C 4185.9958 8909.6274 4232.733 8927.4867 4287.1285 8914.0811 C 4290.7449 8913.7331 4294.2125 8913.7918 4297.9805 8912.9959 C 4637.9805 8808.9959 5101.9914 8431.0069 5219.9914 7930.0069 C 5328.8061 7468.0057 5351.8357 6892.7208 5318.0216 5917.5199 C 5554.8808 5904.1225 5756.2313 5908.0177 5882.7933 5915.3495 C 5939.8658 5925.7329 5999.9069 5892.384 6085.0032 5829.98 C 6219.0032 5732.98 6305.9901 5555.0214 6341.9901 5449.0214 C 6433.9901 5180.0214 6356.9799 5088.9806 6128.9799 5100.9806 C 6122.5941 5101.3479 6116.3099 5101.9578 6109.9629 5102.4275 C 6093.3199 5101.6042 6075.7418 5101.6837 6056.0127 5103.9778 C 5699.7326 5143.8993 5584.1591 5147.0322 5287.4808 5185.4199 C 5244.8429 4230.2892 5243.4926 3401.6477 5871.993 3616.0066 C 5875.2122 3616.7821 5878.6922 3616.5752 5882.1732 3616.3684 C 5939.2322 3626.8086 5999.5065 3593.439 6084.0214 3530.9989 C 6218.0214 3432.9989 6305.0083 3255.9886 6341.0083 3149.9886 C 6428.1958 2896.8636 6365.0752 2801.9519 6169.8042 2800.1391 z " />
   
  
</svg>
